<?xml version="1.0" encoding="utf-8"?>
<!-- Generator: Adobe Illustrator 24.0.2, SVG Export Plug-In . SVG Version: 6.00 Build 0)  -->
<svg version="1.1" id="Capa_1" xmlns="http://www.w3.org/2000/svg" xmlns:xlink="http://www.w3.org/1999/xlink" x="0px" y="0px"
	 viewBox="0 0 1296 1728" style="enable-background:new 0 0 1296 1728;" xml:space="preserve">
<g id="XMLID_288_">
	<path id="XMLID_286_" style="fill:#FFF5DB;" d="M534.29,555.79c-66,11.33-128.25,56.71-147.66,120.81
		c-15.78,52.11-2.68,109.33-16.42,162.02c-19.14,73.37-85.14,123.17-146.25,168.05c-61.11,44.89-125.9,97.48-140.37,171.91
		c-15.76,81.04,37.41,163.99,109.54,204.15c72.13,40.16,158.71,45.04,241.01,38.48c95.68-7.62,190.73-29.06,287.16-22.45
		c94.16,6.46,185.56,37.76,267.98,82.92c39.03,21.38,81.66,46.84,124.99,36.71c49.43-11.55,76.79-64.32,90.38-113.23
		c30.35-109.22,24.28-226.93-8.31-335.51c-16.16-53.85-81.05-251.46-238.48-379.35C797.57,560.1,637.92,538,534.29,555.79z"/>
	<g id="XMLID_214_">
		<g id="XMLID_212_">
			<path id="XMLID_82_" style="fill:#F9C0C0;" d="M851.66,668.84c-0.06-0.03-40.14-24.54-62.8,3.51c0,0-39.95-30.23-36.71-64.78
				c3.24-34.55,29.15-35.58-2.16-81.49c0,0-95.25,1.94-163.45-30.07c-0.62,0.85-1.21,1.69-1.74,2.51
				c-12.96,20.51-52.9,105.8-52.9,116.6c0,10.8,5.4,33.47-3.24,62.62c-8.64,29.15-22.67,131.71,43.18,186.77
				c65.86,55.06,165.91,37.36,195.41,10.8c25.24-22.72,29.88-38.81,39.95-93.93c0,0,69.1,3.24,70.18-58.3
				C877.83,697.59,866.59,679.34,851.66,668.84z"/>
			<g id="XMLID_213_">
				<path id="XMLID_200_" style="fill:#F9C0C0;" d="M608.31,886.8l-16.63,89.18l77.11,86.67l90.19-89.34v-91.43
					C729.63,901.12,664.27,911.01,608.31,886.8z"/>
				<path id="XMLID_201_" style="fill:#E5AAAA;" d="M758.99,881.88c-29.35,19.25-94.72,29.13-150.68,4.93l-8.2,43.98
					c56.39,15.38,116.15,1.24,136.67-19.28c9.04-9.04,16.38-16.06,22.21-23.34V881.88z"/>
			</g>
			<g id="XMLID_210_">
				<g id="XMLID_206_">
					
						<path id="XMLID_124_" style="fill:none;stroke:#E5AAAA;stroke-width:1.7607;stroke-linecap:round;stroke-linejoin:round;stroke-miterlimit:10;" d="
						M613.18,609.36c0,0,8.26,21.69,7.22,46.71c-1.03,25.02-11.34,51.34-11.86,70.43"/>
					<path id="XMLID_111_" style="fill:#303030;" d="M582.95,655.04c13.35,0,24.93,36.77,8.56,49.11
						c-16.37,12.34-28.96,5.29-28.96,5.29s13.35-1.01,15.87-5.29c0,0-10.98-3.52-9.82-27.95
						C569.6,654.89,582.95,655.04,582.95,655.04z"/>
					<path id="XMLID_122_" style="fill:#303030;" d="M603.38,553.02c-3.56-4.44-35.23,18.26-35.74,20.83
						c-0.51,2.57,1.03,16.2,6.17,18.51c5.14,2.31,30.34-9.26,33.43-13.88C610.32,573.85,607.49,558.16,603.38,553.02z"/>
					<path id="XMLID_126_" style="fill:#303030;" d="M673.89,655.04c-13.35,0-24.93,36.77-8.56,49.11
						c16.37,12.34,28.96,5.29,28.96,5.29s-13.35-1.01-15.87-5.29c0,0,10.98-3.52,9.82-27.95
						C687.23,654.89,673.89,655.04,673.89,655.04z"/>
					<path id="XMLID_125_" style="fill:#303030;" d="M653.46,553.02c3.56-4.44,35.23,18.26,35.74,20.83
						c0.51,2.57-1.03,16.2-6.17,18.51c-5.14,2.31-30.34-9.26-33.43-13.88C646.52,573.85,649.34,558.16,653.46,553.02z"/>
				</g>
				<g id="XMLID_207_">
					
						<path id="XMLID_140_" style="fill:none;stroke:#E5AAAA;stroke-width:1.7607;stroke-linecap:round;stroke-linejoin:round;stroke-miterlimit:10;" d="
						M836.61,690.34c0,0-34.28-3.06-28.77,46.53"/>
					
						<path id="XMLID_143_" style="fill:none;stroke:#E5AAAA;stroke-width:1.7607;stroke-linecap:round;stroke-linejoin:round;stroke-miterlimit:10;" d="
						M814.23,700.76c0,0,29.3,6.72,22.38,46.51"/>
				</g>
			</g>
			<path id="XMLID_98_" style="fill:#303030;" d="M891.34,470.85c-23.47,8.34-38.11,22.6-46.7,34.08
				c20.99-44.19-3.46-69.82-3.46-69.82c1.43,15.93-5.92,51.5-10.04,69.73c-81.13-144.34-248.48-139.1-248.48-139.1
				c33.47,12.96,84.21,45.34,84.21,45.34c-154.77-45.37-169.12,43.4-169.12,43.4c0.15-0.18,0.3-0.37,0.45-0.54
				c9.64-11.46,27.79-10.75,36.4,1.5c52,73.99,215.4,70.65,215.4,70.65c31.31,45.91,5.4,46.94,2.16,81.49
				c-3.24,34.55,36.71,64.78,36.71,64.78c22.67-28.07,62.8-3.51,62.8-3.51c36.57-61.92,14.47-113.71-2.82-139.94
				C858.72,502.97,891.34,470.85,891.34,470.85z"/>
			<g id="XMLID_198_">
				<path id="XMLID_62_" style="fill:#FFFFFF;" d="M788.86,672.35c0,0-54.46,107.34,18.35,109.04c0,0,4.11,93.16-87.03,119.74
					c-75.84,22.11-197.92-14.73-206.3-141.37c-0.32-4.89,1.88-9.61,5.95-12.33c14.67-9.8,52.86-32.39,92.95-32.39
					c51.2,0,91.16,39.96,119.88,22.48C761.39,720.03,763.8,685.63,788.86,672.35z"/>
				<g id="XMLID_60_">
					
						<path id="XMLID_76_" style="fill:none;stroke:#D6D6D6;stroke-width:2;stroke-linecap:round;stroke-linejoin:round;stroke-miterlimit:10;" d="
						M540.98,764.98c0,0,42.46-26.22,68.06-24.98c25.6,1.25,71.18,24.98,71.18,24.98"/>
					<path id="XMLID_81_" style="fill:none;stroke:#D6D6D6;stroke-linecap:round;stroke-linejoin:round;stroke-miterlimit:10;" d="
						M540.98,793.27c0,0,51.2-33.91,139.24,0"/>
					<path id="XMLID_96_" style="fill:none;stroke:#D6D6D6;stroke-linecap:round;stroke-linejoin:round;stroke-miterlimit:10;" d="
						M684.37,836.83c0,0-51.2,33.91-139.24,0"/>
					<path id="XMLID_77_" style="fill:none;stroke:#D6D6D6;stroke-linecap:round;stroke-linejoin:round;stroke-miterlimit:10;" d="
						M707.59,870.4c0,0-41.8,27.68-114.8,8.01"/>
				</g>
			</g>
		</g>
		<g id="XMLID_205_">
			<path id="XMLID_281_" style="fill:#EF8A3D;" d="M1030.69,1084.4c-32.12-33.46-271.71-111.09-271.71-111.09l-90.19,89.34
				l-77.11-86.67l-295.8,74.95c0,0-30.78,135.18-42.83,222.18c-12.05,87-18.74,335.95-18.74,335.95l153.66-15.37l0,136.36h546.45
				l0-124.95l128.39,20.03c0,0,17.4-22.75,25.43-203.45C1096.28,1241,1062.82,1117.86,1030.69,1084.4z"/>
			<g id="XMLID_204_">
				<g id="XMLID_203_">
					<path id="XMLID_164_" style="fill:#F9C0C0;" d="M422.64,1333.54c0,0-92.55-27.32-115.58-22.89
						c-18.04,3.47-63.81,35.75-82.8,49.58c-5.39,3.92-8.34,10.32-7.89,16.97c1.26,18.65,5.07,56.93,15.72,76.51
						c3.05,5.61,10.47,7.03,15.51,3.1c13.48-10.51,40.42-30.55,51.49-31.85c15.06-1.77,93.17,11.45,93.17,11.45L422.64,1333.54z"/>
					<g id="XMLID_128_">
						<g id="XMLID_106_">
							<path style="fill:#E5AAAA;" d="M216.93,1384.6c7.08-4.42,14.2-8.78,21.33-13.1c7.12-4.36,14.29-8.62,21.44-12.92
								c7.15-4.31,14.34-8.54,21.52-12.79c7.17-4.27,14.39-8.45,21.6-12.66l0.01,0c0.07-0.04,0.15-0.05,0.22-0.02l8.22,2.82
								l8.21,2.85l-8.31-2.56l-8.29-2.59l0.22-0.02c-7.13,4.33-14.25,8.69-21.42,12.96c-7.16,4.29-14.3,8.6-21.5,12.83
								c-7.19,4.24-14.36,8.51-21.58,12.7C231.41,1376.3,224.18,1380.48,216.93,1384.6z"/>
						</g>
						<g id="XMLID_108_">
							<path style="fill:#E5AAAA;" d="M219.66,1408.52c14.58-8.44,29.26-16.71,43.98-24.9c7.35-4.12,14.73-8.17,22.11-12.23
								c7.37-4.08,14.78-8.09,22.19-12.1l0,0c0.08-0.04,0.18-0.04,0.25-0.01c5.79,2.76,11.56,5.56,17.33,8.38
								c-5.87-2.59-11.73-5.21-17.57-7.86l0.26-0.01c-7.33,4.15-14.66,8.31-22.02,12.39c-7.36,4.11-14.71,8.22-22.1,12.26
								C249.35,1392.58,234.55,1400.64,219.66,1408.52z"/>
						</g>
						<g id="XMLID_110_">
							<path style="fill:#E5AAAA;" d="M225.4,1436.41c14.34-7.53,28.77-14.89,43.24-22.16c7.22-3.66,14.47-7.26,21.73-10.86
								c7.24-3.62,14.51-7.18,21.79-10.73l0.01,0c0.08-0.04,0.18-0.04,0.26,0c2.01,1.02,4.01,2.06,6.01,3.12l5.98,3.16l-6.14-2.85
								c-2.05-0.95-4.09-1.92-6.12-2.9l0.26,0c-7.2,3.7-14.41,7.38-21.65,11.01c-7.23,3.65-14.46,7.3-21.72,10.88
								C254.56,1422.31,240.02,1429.45,225.4,1436.41z"/>
						</g>
					</g>
					<path id="XMLID_188_" style="fill:#E5AAAA;" d="M427.05,1318.63l-65.32-24.12c-3.81-1.41-8.01-1.31-11.76,0.27l-36.44,15.4
						c30.22,0.07,109.11,23.36,109.11,23.36L427.05,1318.63z"/>
				</g>
				<g id="XMLID_202_">
					
						<path id="XMLID_148_" style="fill:none;stroke:#AA3333;stroke-width:0.8803;stroke-linecap:round;stroke-linejoin:round;stroke-miterlimit:10;" d="
						M449.8,1318.16c0,0,16.07-98.58-12.04-172.19"/>
					
						<path id="XMLID_132_" style="fill:none;stroke:#AA3333;stroke-width:0.8803;stroke-linecap:round;stroke-linejoin:round;stroke-miterlimit:10;" d="
						M834.53,1345.97c0,0,56.48,47.09,68,65.7c11.52,18.61,30.45,83.3,30.45,83.3"/>
					
						<path id="XMLID_190_" style="fill:none;stroke:#AA3333;stroke-width:0.8803;stroke-linecap:round;stroke-linejoin:round;stroke-miterlimit:10;" d="
						M900.32,1389.86c0,0,45.64,47.18,59.81,68.61c14.18,21.43,27.47,55.99,27.47,55.99"/>
					
						<path id="XMLID_191_" style="fill:none;stroke:#AA3333;stroke-width:0.8803;stroke-linecap:round;stroke-linejoin:round;stroke-miterlimit:10;" d="
						M392.25,1436.41c0,0-33.8,11.26-47.97,19.4c-14.18,8.14-30.75,32.95-30.75,32.95"/>
					
						<path id="XMLID_192_" style="fill:none;stroke:#AA3333;stroke-width:0.8803;stroke-linecap:round;stroke-linejoin:round;stroke-miterlimit:10;" d="
						M404.5,1440.99c0,0-40.34,20.3-51.61,29.16c-11.27,8.86-33.67,47.85-33.67,47.85"/>
					
						<line id="XMLID_163_" style="fill:none;stroke:#AA3333;stroke-width:0.8803;stroke-linecap:round;stroke-linejoin:round;stroke-miterlimit:10;" x1="387.98" y1="1593.7" x2="698.06" y2="1536.61"/>
					
						<path id="XMLID_144_" style="fill:none;stroke:#AA3333;stroke-width:0.8803;stroke-linecap:round;stroke-linejoin:round;stroke-miterlimit:10;" d="
						M934.43,1605.11c0,0-358.21-99.1-542.18-168.7l34.8-117.78c0,0,301.07-9.37,450.35,38.82c0,0-14.01-128.49,8.74-211.48"/>
				</g>
				<path id="XMLID_166_" style="fill:#F9C0C0;" d="M759.84,1333.05c0,0,57.63-43.66,72.69-46.32
					c15.06-2.66,132.03,35.05,143.55,46.32c11.52,11.27,58.48,83.05,57.6,96.34c-0.89,13.29-43.42,30.13-54.94,25.7
					c-11.52-4.43-105.88-96.84-144.21-109.12C834.53,1345.97,792.48,1336.95,759.84,1333.05z"/>
				<g id="XMLID_129_">
					<g id="XMLID_6_">
						<path style="fill:#E5AAAA;" d="M1024.07,1441.28c-10.14-14.76-20.12-29.62-30.02-44.54c-4.98-7.44-9.89-14.93-14.8-22.41
							c-4.93-7.47-9.81-14.98-14.68-22.49l0.12,0.1l-9.47-4.61l-9.45-4.65l9.59,4.35l9.57,4.39c0.05,0.02,0.09,0.06,0.11,0.1l0,0.01
							c5.01,7.42,10.01,14.85,14.95,22.31c4.96,7.45,9.93,14.9,14.83,22.39C1004.69,1411.17,1014.46,1426.17,1024.07,1441.28z"/>
					</g>
					<g id="XMLID_101_">
						<path style="fill:#E5AAAA;" d="M1006.93,1450.24c-10.76-15.12-21.35-30.36-31.87-45.65c-5.29-7.63-10.5-15.3-15.73-22.97
							c-5.24-7.66-10.42-15.35-15.6-23.05l0.14,0.11c-6.68-2.3-13.35-4.63-20.02-6.99c6.74,2.12,13.48,4.27,20.2,6.45
							c0.06,0.02,0.11,0.06,0.15,0.11c5.31,7.61,10.63,15.21,15.88,22.86c5.27,7.64,10.55,15.27,15.76,22.95
							C986.3,1419.38,996.7,1434.75,1006.93,1450.24z"/>
					</g>
					<g id="XMLID_104_">
						<path style="fill:#E5AAAA;" d="M989.71,1455.25c-5.8-6.89-11.54-13.83-17.26-20.79c-5.74-6.94-11.39-13.95-17.08-20.93
							c-5.7-6.97-11.3-14.03-16.95-21.04c-5.65-7.01-11.22-14.09-16.81-21.15l0.11,0.07l-12.77-3.49l12.88,3.07
							c0.05,0.01,0.08,0.04,0.11,0.07l0,0c5.73,6.95,11.48,13.88,17.16,20.87c5.67,7,11.39,13.95,17.01,20.99
							c5.63,7.03,11.31,14.02,16.88,21.09C978.61,1441.06,984.19,1448.13,989.71,1455.25z"/>
					</g>
				</g>
			</g>
		</g>
	</g>
</g>
<g id="XMLID_485_">
	<g id="XMLID_525_">
		<path id="XMLID_531_" style="fill:#C44343;" d="M309.71,622.56c5.07-9.66,1.35-21.6-8.31-26.67c-9.66-5.07-21.6-1.35-26.67,8.31
			c-3.38,6.44-2.85,13.9,0.74,19.66c1.79,2.87-12.47,37.36-9.26,39.05c3.21,1.69,23.5-29.64,26.88-29.79
			C299.88,632.81,306.33,629.01,309.71,622.56z"/>
		<path id="XMLID_530_" style="fill:#C44343;" d="M168.48,601.95c-4.62-9.88-0.37-21.64,9.51-26.26c9.88-4.62,21.64-0.37,26.26,9.51
			c3.09,6.59,2.22,14.02-1.64,19.6c-1.92,2.79,10.76,37.89,7.47,39.43c-3.29,1.54-22.12-30.68-25.49-30.99
			C177.83,612.63,171.56,608.54,168.48,601.95z"/>
		<path id="XMLID_529_" style="fill:#C44343;" d="M326.27,804.13c7.73,7.69,20.24,7.66,27.93-0.08c7.69-7.73,7.66-20.24-0.08-27.93
			c-5.16-5.13-12.44-6.82-19-5.09c-3.27,0.87-32.02-22.93-34.58-20.36c-2.56,2.57,21.4,31.19,20.55,34.46
			C319.37,791.71,321.1,798.99,326.27,804.13z"/>
		<path id="XMLID_528_" style="fill:#C44343;" d="M107.23,689.48c-10.5-2.95-16.62-13.86-13.67-24.36
			c2.95-10.5,13.86-16.62,24.36-13.67c7.01,1.97,12.06,7.48,13.77,14.05c0.85,3.28,35.71,16.61,34.73,20.11
			c-0.98,3.49-37.68-3.3-40.11-0.95C121.43,689.38,114.24,691.45,107.23,689.48z"/>
		<path id="XMLID_527_" style="fill:#C44343;" d="M359.09,702.08c10.57-2.71,16.93-13.47,14.22-24.04
			c-2.71-10.56-13.47-16.93-24.04-14.22c-7.05,1.81-12.23,7.2-14.09,13.73c-0.93,3.26-36.09,15.79-35.18,19.3
			c0.9,3.51,37.75-2.43,40.12-0.02C344.9,701.65,352.04,703.89,359.09,702.08z"/>
		<path id="XMLID_526_" style="fill:#C44343;" d="M154.84,796.4c-8.83,6.41-21.18,4.45-27.58-4.38c-6.41-8.83-4.45-21.18,4.38-27.59
			c5.89-4.28,13.35-4.83,19.56-2.1c3.1,1.36,35.17-17.72,37.31-14.79c2.13,2.93-25.95,27.52-25.61,30.89
			C163.57,785.2,160.73,792.13,154.84,796.4z"/>
	</g>
	<g id="XMLID_519_">
		<circle id="XMLID_524_" style="fill:#F8615A;" cx="240.33" cy="711.81" r="85.89"/>
		<path id="XMLID_523_" style="fill:#E84F4F;" d="M260.04,777.98c-47.44,0-85.89-38.45-85.89-85.89c0-18.69,5.99-35.96,16.12-50.06
			c-21.69,15.59-35.83,41.02-35.83,69.77c0,47.44,38.45,85.89,85.89,85.89c28.75,0,54.18-14.14,69.77-35.83
			C296,772,278.72,777.98,260.04,777.98z"/>
		<circle id="XMLID_522_" style="fill:#E84F4F;" cx="266.86" cy="684.09" r="20.9"/>
		<path id="XMLID_521_" style="fill:#E84F4F;" d="M255.57,739.77c0,9.32-7.56,16.88-16.88,16.88c-9.32,0-16.88-7.56-16.88-16.88
			c0-9.32,7.56-16.88,16.88-16.88C248.02,722.89,255.57,730.45,255.57,739.77z"/>
		<circle id="XMLID_520_" style="fill:#E84F4F;" cx="221.82" cy="695.51" r="11.42"/>
	</g>
	<g id="XMLID_486_">
		<g id="XMLID_515_">
			<path id="XMLID_518_" style="fill:#F8615A;" d="M220.58,836.11c0,10.91,8.84,19.75,19.75,19.75c10.91,0,19.75-8.84,19.75-19.75
				c0-7.28-3.94-13.63-9.8-17.06c-2.92-1.71-6.32-38.88-9.95-38.88c-3.63,0-7.03,37.17-9.95,38.87
				C224.52,822.47,220.58,828.83,220.58,836.11z"/>
			<g id="XMLID_516_">
				<path id="XMLID_517_" style="fill:#E84F4F;" d="M234.12,824.68c-5.86,3.42-9.8,9.78-9.8,17.07c0,2.82,0.6,5.5,1.67,7.92
					c-3.34-3.54-5.41-8.3-5.41-13.55c0-7.28,3.94-13.64,9.8-17.07c2.92-1.71,6.32-38.87,9.95-38.87c0.96,0,1.9,2.59,2.82,6.42
					C239.86,791.93,236.79,823.12,234.12,824.68z"/>
			</g>
		</g>
		<g id="XMLID_511_">
			<path id="XMLID_514_" style="fill:#F8615A;" d="M223.39,581.57c0-10.91,8.84-19.75,19.75-19.75c10.91,0,19.75,8.84,19.75,19.75
				c0,7.28-3.94,13.64-9.79,17.06c-2.92,1.71-6.32,38.88-9.95,38.88c-3.63,0-7.03-37.17-9.95-38.87
				C227.33,595.21,223.39,588.85,223.39,581.57z"/>
			<g id="XMLID_512_">
				<path id="XMLID_513_" style="fill:#E84F4F;" d="M236.94,593c-5.86-3.43-9.8-9.79-9.8-17.07c0-2.82,0.6-5.5,1.67-7.92
					c-3.34,3.54-5.41,8.3-5.41,13.55c0,7.28,3.94,13.64,9.8,17.07c2.92,1.71,6.32,38.87,9.95,38.87c0.96,0,1.9-2.59,2.82-6.42
					C242.68,625.75,239.61,594.56,236.94,593z"/>
			</g>
		</g>
		<g id="XMLID_507_">
			<path id="XMLID_510_" style="fill:#F8615A;" d="M272.12,817.52c4.62,9.88,16.38,14.14,26.26,9.51s14.14-16.38,9.51-26.26
				c-3.09-6.59-9.35-10.68-16.1-11.3c-3.37-0.31-22.21-32.53-25.5-30.99c-3.28,1.54,9.4,36.64,7.47,39.42
				C269.91,803.49,269.04,810.92,272.12,817.52z"/>
			<g id="XMLID_508_">
				<path id="XMLID_509_" style="fill:#E84F4F;" d="M279.54,801.42c-3.86,5.59-4.73,13.02-1.64,19.61c1.2,2.55,2.87,4.72,4.87,6.47
					c-4.53-1.79-8.42-5.22-10.64-9.98c-3.09-6.59-2.22-14.02,1.64-19.61c1.92-2.78-10.76-37.88-7.47-39.42
					c0.87-0.41,2.82,1.54,5.27,4.62C270.86,769.33,281.3,798.87,279.54,801.42z"/>
			</g>
		</g>
		<g id="XMLID_503_">
			<path id="XMLID_506_" style="fill:#F8615A;" d="M147.91,646.09c-7.73-7.69-7.77-20.2-0.08-27.93c7.69-7.73,20.2-7.77,27.93-0.08
				c5.16,5.13,6.89,12.41,5.19,18.98c-0.85,3.28,23.1,31.9,20.54,34.47c-2.56,2.57-31.31-21.23-34.57-20.36
				C160.36,652.92,153.08,651.22,147.91,646.09z"/>
			<g id="XMLID_504_">
				<path id="XMLID_505_" style="fill:#E84F4F;" d="M165.58,644.55c-6.56,1.74-13.85,0.05-19.01-5.08c-2-1.99-3.47-4.3-4.44-6.77
					c0.15,4.87,2.07,9.69,5.79,13.39c5.16,5.13,12.45,6.83,19.01,5.08c3.27-0.87,32.02,22.93,34.58,20.36
					c0.67-0.68-0.5-3.17-2.57-6.52C192.84,663.57,168.57,643.76,165.58,644.55z"/>
			</g>
		</g>
		<g id="XMLID_499_">
			<path id="XMLID_502_" style="fill:#F8615A;" d="M350.87,751.4c10.5,2.95,21.41-3.17,24.36-13.67
				c2.95-10.5-3.17-21.41-13.67-24.36c-7.01-1.97-14.19,0.1-19.08,4.81c-2.44,2.35-39.14-4.44-40.12-0.94
				c-0.98,3.49,33.88,16.82,34.73,20.1C338.81,743.91,343.86,749.42,350.87,751.4z"/>
			<g id="XMLID_500_">
				<path id="XMLID_501_" style="fill:#E84F4F;" d="M343.53,735.26c1.71,6.57,6.77,12.09,13.77,14.06c2.71,0.76,5.45,0.91,8.08,0.54
					c-4.31,2.26-9.45,2.96-14.51,1.54c-7.01-1.97-12.07-7.49-13.77-14.06c-0.85-3.27-35.71-16.61-34.73-20.1
					c0.26-0.92,3.01-1.12,6.94-0.97C313.56,720.87,342.75,732.26,343.53,735.26z"/>
			</g>
		</g>
		<g id="XMLID_495_">
			<path id="XMLID_498_" style="fill:#F8615A;" d="M117.32,753.9c-10.57,2.71-21.33-3.66-24.04-14.22
				c-2.71-10.56,3.66-21.33,14.22-24.04c7.05-1.81,14.19,0.42,18.96,5.25c2.38,2.41,39.23-3.53,40.13-0.02
				c0.9,3.51-34.25,16.04-35.18,19.29C129.55,746.69,124.37,752.09,117.32,753.9z"/>
			<g id="XMLID_496_">
				<path id="XMLID_497_" style="fill:#E84F4F;" d="M125.03,737.93c-1.86,6.53-7.04,11.93-14.09,13.74
					c-2.73,0.7-5.47,0.78-8.09,0.36c4.26,2.36,9.38,3.18,14.47,1.87c7.05-1.81,12.23-7.21,14.09-13.74
					c0.93-3.25,36.08-15.78,35.18-19.29c-0.24-0.93-2.98-1.19-6.92-1.13C155.32,724.24,125.88,734.96,125.03,737.93z"/>
			</g>
		</g>
		<g id="XMLID_491_">
			<path id="XMLID_494_" style="fill:#F8615A;" d="M354.74,646.97c8.83-6.41,10.79-18.76,4.38-27.58
				c-6.41-8.83-18.76-10.79-27.58-4.38c-5.89,4.28-8.72,11.2-8.05,17.95c0.33,3.37-27.74,27.96-25.61,30.9
				c2.13,2.93,34.2-16.15,37.3-14.79C341.39,651.8,348.85,651.25,354.74,646.97z"/>
			<g id="XMLID_492_">
				<path id="XMLID_493_" style="fill:#E84F4F;" d="M337.53,642.73c6.22,2.73,13.68,2.18,19.57-2.09c2.28-1.66,4.09-3.72,5.43-6
					c-0.9,4.78-3.54,9.25-7.79,12.34c-5.89,4.28-13.35,4.83-19.57,2.09c-3.1-1.36-35.17,17.73-37.3,14.79
					c-0.56-0.77,0.98-3.06,3.54-6.05C307.66,657.32,334.69,641.49,337.53,642.73z"/>
			</g>
		</g>
		<g id="XMLID_487_">
			<path id="XMLID_490_" style="fill:#F8615A;" d="M203.85,818.31c-5.07,9.66-17.01,13.38-26.67,8.31
				c-9.66-5.07-13.38-17.01-8.31-26.67c3.38-6.44,9.82-10.24,16.6-10.55c3.38-0.15,23.67-31.48,26.89-29.79
				c3.21,1.69-11.06,36.17-9.26,39.04C206.7,804.4,207.23,811.86,203.85,818.31z"/>
			<g id="XMLID_488_">
				<path id="XMLID_489_" style="fill:#E84F4F;" d="M197.17,801.88c3.6,5.76,4.13,13.22,0.75,19.67c-1.31,2.5-3.09,4.59-5.16,6.24
					c4.61-1.58,8.65-4.83,11.09-9.48c3.38-6.45,2.85-13.91-0.75-19.67c-1.79-2.87,12.47-37.35,9.26-39.04
					c-0.85-0.44-2.88,1.41-5.48,4.37C207.31,770.23,195.53,799.26,197.17,801.88z"/>
			</g>
		</g>
	</g>
</g>
<g id="XMLID_8_">
	<g id="XMLID_986_">
		<path id="XMLID_992_" style="fill:#C44343;" d="M354.24,325.55c3.1-5.9,0.83-13.18-5.07-16.28c-5.89-3.1-13.18-0.83-16.28,5.07
			c-2.07,3.93-1.74,8.49,0.45,12c1.09,1.75-7.61,22.81-5.65,23.84c1.96,1.03,14.34-18.09,16.41-18.19
			C348.24,331.81,352.18,329.49,354.24,325.55z"/>
		<path id="XMLID_991_" style="fill:#C44343;" d="M268.03,312.97c-2.82-6.03-0.22-13.21,5.81-16.03c6.03-2.82,13.21-0.22,16.03,5.81
			c1.88,4.02,1.35,8.56-1,11.97c-1.17,1.7,6.57,23.13,4.56,24.07c-2.01,0.94-13.5-18.73-15.56-18.92
			C273.74,319.49,269.92,316.99,268.03,312.97z"/>
		<path id="XMLID_990_" style="fill:#C44343;" d="M364.35,436.39c4.72,4.7,12.35,4.67,17.05-0.05c4.7-4.72,4.67-12.35-0.05-17.05
			c-3.15-3.13-7.6-4.17-11.6-3.11c-2,0.53-19.55-14-21.11-12.43c-1.56,1.57,13.06,19.04,12.54,21.04
			C360.14,428.81,361.2,433.25,364.35,436.39z"/>
		<path id="XMLID_989_" style="fill:#C44343;" d="M230.64,366.4c-6.41-1.8-10.14-8.46-8.34-14.87c1.8-6.41,8.46-10.14,14.87-8.34
			c4.28,1.2,7.36,4.57,8.41,8.58c0.52,2,21.8,10.14,21.2,12.27c-0.6,2.13-23-2.01-24.49-0.58
			C239.31,366.34,234.92,367.61,230.64,366.4z"/>
		<path id="XMLID_988_" style="fill:#C44343;" d="M384.39,374.09c6.45-1.65,10.34-8.22,8.68-14.67c-1.65-6.45-8.22-10.34-14.67-8.68
			c-4.3,1.1-7.47,4.4-8.6,8.38c-0.57,1.99-22.03,9.64-21.48,11.78c0.55,2.14,23.04-1.48,24.49-0.01
			C375.72,373.83,380.08,375.2,384.39,374.09z"/>
		<path id="XMLID_987_" style="fill:#C44343;" d="M259.71,431.67c-5.39,3.91-12.93,2.72-16.84-2.67
			c-3.91-5.39-2.72-12.93,2.67-16.84c3.59-2.61,8.15-2.95,11.94-1.28c1.89,0.83,21.47-10.82,22.77-9.03
			c1.3,1.79-15.84,16.8-15.63,18.86C265.03,424.83,263.3,429.06,259.71,431.67z"/>
	</g>
	<g id="XMLID_980_">
		<circle id="XMLID_985_" style="fill:#F8615A;" cx="311.89" cy="380.03" r="52.43"/>
		<path id="XMLID_984_" style="fill:#E84F4F;" d="M323.92,420.43c-28.96,0-52.43-23.47-52.43-52.43c0-11.41,3.65-21.95,9.84-30.56
			c-13.24,9.52-21.87,25.04-21.87,42.59c0,28.96,23.47,52.43,52.43,52.43c17.55,0,33.07-8.63,42.59-21.87
			C345.88,416.77,335.33,420.43,323.92,420.43z"/>
		<circle id="XMLID_983_" style="fill:#E84F4F;" cx="328.09" cy="363.11" r="12.76"/>
		<path id="XMLID_982_" style="fill:#E84F4F;" d="M321.2,397.1c0,5.69-4.61,10.3-10.3,10.3c-5.69,0-10.3-4.61-10.3-10.3
			c0-5.69,4.61-10.3,10.3-10.3C316.59,386.8,321.2,391.41,321.2,397.1z"/>
		<circle id="XMLID_981_" style="fill:#E84F4F;" cx="300.59" cy="370.08" r="6.97"/>
	</g>
	<g id="XMLID_947_">
		<g id="XMLID_976_">
			<path id="XMLID_979_" style="fill:#F8615A;" d="M299.83,455.91c0,6.66,5.4,12.06,12.06,12.06c6.66,0,12.06-5.4,12.06-12.06
				c0-4.44-2.4-8.32-5.98-10.41c-1.78-1.04-3.86-23.73-6.08-23.73c-2.21,0-4.29,22.69-6.07,23.73
				C302.24,447.59,299.83,451.47,299.83,455.91z"/>
			<g id="XMLID_977_">
				<path id="XMLID_978_" style="fill:#E84F4F;" d="M308.1,448.93c-3.58,2.09-5.98,5.97-5.98,10.42c0,1.72,0.37,3.35,1.02,4.84
					c-2.04-2.16-3.3-5.07-3.3-8.27c0-4.44,2.4-8.33,5.98-10.42c1.78-1.04,3.86-23.73,6.07-23.73c0.58,0,1.16,1.58,1.72,3.92
					C311.61,428.94,309.73,447.98,308.1,448.93z"/>
			</g>
		</g>
		<g id="XMLID_972_">
			<path id="XMLID_975_" style="fill:#F8615A;" d="M301.55,300.53c0-6.66,5.4-12.06,12.06-12.06c6.66,0,12.06,5.4,12.06,12.06
				c0,4.44-2.4,8.32-5.98,10.41c-1.78,1.04-3.86,23.73-6.08,23.73c-2.21,0-4.29-22.69-6.07-23.73
				C303.96,308.86,301.55,304.97,301.55,300.53z"/>
			<g id="XMLID_973_">
				<path id="XMLID_974_" style="fill:#E84F4F;" d="M309.82,307.51c-3.58-2.09-5.98-5.97-5.98-10.42c0-1.72,0.37-3.36,1.02-4.84
					c-2.04,2.16-3.3,5.07-3.3,8.27c0,4.44,2.4,8.33,5.98,10.42c1.78,1.04,3.86,23.73,6.07,23.73c0.58,0,1.16-1.58,1.72-3.92
					C313.33,327.5,311.45,308.46,309.82,307.51z"/>
			</g>
		</g>
		<g id="XMLID_968_">
			<path id="XMLID_971_" style="fill:#F8615A;" d="M331.3,444.56c2.82,6.03,10,8.63,16.03,5.81s8.63-10,5.81-16.03
				c-1.88-4.02-5.7-6.52-9.83-6.9c-2.06-0.19-13.56-19.86-15.57-18.92c-2.01,0.94,5.74,22.37,4.56,24.06
				C329.95,436,329.42,440.54,331.3,444.56z"/>
			<g id="XMLID_969_">
				<path id="XMLID_970_" style="fill:#E84F4F;" d="M335.83,434.73c-2.36,3.41-2.89,7.95-1,11.97c0.73,1.56,1.75,2.88,2.97,3.95
					c-2.76-1.09-5.14-3.19-6.5-6.09c-1.88-4.03-1.35-8.56,1-11.97c1.17-1.7-6.57-23.13-4.56-24.06c0.53-0.25,1.72,0.94,3.22,2.82
					C330.53,415.14,336.9,433.18,335.83,434.73z"/>
			</g>
		</g>
		<g id="XMLID_964_">
			<path id="XMLID_967_" style="fill:#F8615A;" d="M255.48,339.92c-4.72-4.7-4.74-12.33-0.05-17.05c4.7-4.72,12.33-4.74,17.05-0.05
				c3.15,3.13,4.21,7.57,3.17,11.58c-0.52,2,14.1,19.47,12.54,21.04c-1.56,1.57-19.11-12.96-21.11-12.43
				C263.08,344.08,258.63,343.05,255.48,339.92z"/>
			<g id="XMLID_965_">
				<path id="XMLID_966_" style="fill:#E84F4F;" d="M266.26,338.98c-4.01,1.06-8.46,0.03-11.61-3.1c-1.22-1.21-2.12-2.63-2.71-4.13
					c0.09,2.97,1.26,5.91,3.54,8.17c3.15,3.13,7.6,4.17,11.61,3.1c2-0.53,19.54,14,21.11,12.43c0.41-0.41-0.3-1.94-1.57-3.98
					C282.9,350.59,268.09,338.49,266.26,338.98z"/>
			</g>
		</g>
		<g id="XMLID_960_">
			<path id="XMLID_963_" style="fill:#F8615A;" d="M379.37,404.2c6.41,1.8,13.07-1.93,14.87-8.34c1.8-6.41-1.93-13.07-8.34-14.87
				c-4.28-1.2-8.66,0.06-11.64,2.94c-1.49,1.44-23.89-2.71-24.49-0.58c-0.6,2.13,20.68,10.27,21.2,12.27
				C372.01,399.63,375.09,402.99,379.37,404.2z"/>
			<g id="XMLID_961_">
				<path id="XMLID_962_" style="fill:#E84F4F;" d="M374.89,394.35c1.04,4.01,4.13,7.38,8.41,8.58c1.66,0.47,3.33,0.56,4.93,0.33
					c-2.63,1.38-5.77,1.81-8.86,0.94c-4.28-1.2-7.36-4.57-8.41-8.58c-0.52-2-21.8-10.14-21.2-12.27c0.16-0.56,1.84-0.69,4.24-0.59
					C356.6,385.56,374.41,392.52,374.89,394.35z"/>
			</g>
		</g>
		<g id="XMLID_956_">
			<path id="XMLID_959_" style="fill:#F8615A;" d="M236.8,405.72c-6.45,1.65-13.02-2.23-14.67-8.68
				c-1.65-6.45,2.23-13.02,8.68-14.67c4.3-1.1,8.66,0.26,11.57,3.2c1.45,1.47,23.95-2.16,24.5-0.01
				c0.55,2.14-20.91,9.79-21.48,11.78C244.27,401.33,241.11,404.62,236.8,405.72z"/>
			<g id="XMLID_957_">
				<path id="XMLID_958_" style="fill:#E84F4F;" d="M241.51,395.98c-1.14,3.99-4.3,7.28-8.6,8.39c-1.67,0.43-3.34,0.48-4.94,0.22
					c2.6,1.44,5.73,1.94,8.83,1.14c4.3-1.1,7.47-4.4,8.6-8.38c0.57-1.99,22.03-9.63,21.48-11.78c-0.14-0.57-1.82-0.73-4.22-0.69
					C260,387.62,242.03,394.16,241.51,395.98z"/>
			</g>
		</g>
		<g id="XMLID_952_">
			<path id="XMLID_955_" style="fill:#F8615A;" d="M381.73,340.45c5.39-3.91,6.58-11.45,2.67-16.84
				c-3.91-5.39-11.45-6.58-16.84-2.67c-3.59,2.61-5.32,6.83-4.91,10.96c0.2,2.06-16.94,17.07-15.63,18.86
				c1.3,1.79,20.88-9.86,22.77-9.03C373.58,343.4,378.14,343.07,381.73,340.45z"/>
			<g id="XMLID_953_">
				<path id="XMLID_954_" style="fill:#E84F4F;" d="M371.22,337.87c3.79,1.67,8.35,1.33,11.95-1.28c1.39-1.01,2.5-2.27,3.32-3.66
					c-0.55,2.92-2.16,5.65-4.75,7.53c-3.6,2.61-8.15,2.95-11.95,1.28c-1.89-0.83-21.47,10.82-22.77,9.03
					c-0.34-0.47,0.6-1.87,2.16-3.69C352.99,346.77,369.5,337.11,371.22,337.87z"/>
			</g>
		</g>
		<g id="XMLID_948_">
			<path id="XMLID_951_" style="fill:#F8615A;" d="M289.62,445.04c-3.1,5.9-10.38,8.16-16.28,5.07c-5.9-3.1-8.17-10.38-5.07-16.28
				c2.07-3.93,6-6.25,10.14-6.44c2.06-0.09,14.45-19.22,16.41-18.19c1.96,1.03-6.75,22.08-5.65,23.83
				C291.36,436.55,291.69,441.11,289.62,445.04z"/>
			<g id="XMLID_949_">
				<path id="XMLID_950_" style="fill:#E84F4F;" d="M285.55,435.02c2.2,3.51,2.52,8.07,0.46,12.01c-0.8,1.52-1.88,2.8-3.15,3.81
					c2.81-0.96,5.28-2.95,6.77-5.79c2.07-3.93,1.74-8.49-0.46-12.01c-1.09-1.75,7.61-22.8,5.65-23.83
					c-0.52-0.27-1.76,0.86-3.34,2.67C291.74,415.69,284.55,433.42,285.55,435.02z"/>
			</g>
		</g>
	</g>
</g>
<g id="XMLID_993_">
	<g id="XMLID_1033_">
		<path id="XMLID_1039_" style="fill:#C44343;" d="M762.74,120.14c4.96-9.44,1.32-21.11-8.12-26.07
			c-9.44-4.96-21.11-1.32-26.07,8.12c-3.31,6.3-2.79,13.59,0.72,19.22c1.75,2.81-12.19,36.53-9.05,38.18
			c3.14,1.65,22.97-28.98,26.28-29.13C753.13,130.16,759.43,126.44,762.74,120.14z"/>
		<path id="XMLID_1038_" style="fill:#C44343;" d="M624.66,99.98c-4.52-9.66-0.36-21.15,9.3-25.67c9.66-4.52,21.15-0.36,25.67,9.3
			c3.02,6.44,2.17,13.7-1.6,19.17c-1.88,2.73,10.52,37.05,7.3,38.55c-3.21,1.5-21.63-30-24.92-30.3
			C633.8,110.43,627.68,106.43,624.66,99.98z"/>
		<path id="XMLID_1037_" style="fill:#C44343;" d="M778.93,297.65c7.56,7.52,19.79,7.49,27.31-0.07c7.52-7.56,7.49-19.79-0.07-27.31
			c-5.04-5.02-12.17-6.67-18.58-4.97c-3.2,0.85-31.31-22.42-33.81-19.9c-2.5,2.51,20.92,30.49,20.09,33.7
			C772.19,285.51,773.88,292.63,778.93,297.65z"/>
		<path id="XMLID_1036_" style="fill:#C44343;" d="M564.78,185.56c-10.27-2.89-16.25-13.55-13.36-23.82
			c2.89-10.27,13.55-16.25,23.82-13.36c6.85,1.93,11.79,7.31,13.46,13.73c0.84,3.2,34.92,16.24,33.95,19.66
			c-0.96,3.41-36.84-3.22-39.22-0.93C578.66,185.47,571.63,187.49,564.78,185.56z"/>
		<path id="XMLID_1035_" style="fill:#C44343;" d="M811.02,197.88c10.33-2.65,16.56-13.17,13.91-23.5
			c-2.65-10.33-13.17-16.56-23.5-13.91c-6.89,1.77-11.96,7.04-13.78,13.42c-0.91,3.18-35.28,15.43-34.4,18.87
			c0.88,3.43,36.9-2.38,39.23-0.02C797.14,197.46,804.12,199.65,811.02,197.88z"/>
		<path id="XMLID_1034_" style="fill:#C44343;" d="M611.33,290.1c-8.63,6.27-20.7,4.35-26.97-4.28c-6.27-8.63-4.35-20.7,4.28-26.97
			c5.76-4.18,13.05-4.72,19.12-2.05c3.03,1.33,34.39-17.33,36.47-14.46c2.08,2.87-25.37,26.91-25.04,30.2
			C619.86,279.15,617.09,285.92,611.33,290.1z"/>
	</g>
	<g id="XMLID_1027_">
		<circle id="XMLID_1032_" style="fill:#F8615A;" cx="694.91" cy="207.39" r="83.97"/>
		<path id="XMLID_1031_" style="fill:#E84F4F;" d="M714.18,272.09c-46.38,0-83.97-37.6-83.97-83.97c0-18.27,5.85-35.16,15.76-48.94
			c-21.21,15.24-35.03,40.11-35.03,68.21c0,46.38,37.6,83.97,83.97,83.97c28.11,0,52.97-13.82,68.21-35.03
			C749.34,266.24,732.45,272.09,714.18,272.09z"/>
		<circle id="XMLID_1030_" style="fill:#E84F4F;" cx="720.84" cy="180.29" r="20.43"/>
		<path id="XMLID_1029_" style="fill:#E84F4F;" d="M709.81,234.73c0,9.11-7.39,16.5-16.5,16.5c-9.11,0-16.5-7.39-16.5-16.5
			c0-9.11,7.39-16.5,16.5-16.5C702.43,218.23,709.81,225.62,709.81,234.73z"/>
		<circle id="XMLID_1028_" style="fill:#E84F4F;" cx="676.81" cy="191.46" r="11.16"/>
	</g>
	<g id="XMLID_994_">
		<g id="XMLID_1023_">
			<path id="XMLID_1026_" style="fill:#F8615A;" d="M675.6,328.93c0,10.66,8.65,19.31,19.31,19.31s19.31-8.64,19.31-19.31
				c0-7.11-3.85-13.33-9.58-16.68c-2.86-1.67-6.18-38.01-9.73-38.01c-3.55,0-6.87,36.34-9.72,38
				C679.45,315.59,675.6,321.81,675.6,328.93z"/>
			<g id="XMLID_1024_">
				<path id="XMLID_1025_" style="fill:#E84F4F;" d="M688.84,317.74c-5.73,3.35-9.58,9.57-9.58,16.68c0,2.76,0.59,5.37,1.63,7.75
					c-3.27-3.46-5.29-8.11-5.29-13.25c0-7.12,3.85-13.34,9.58-16.69c2.86-1.67,6.18-38,9.72-38c0.93,0,1.85,2.53,2.75,6.28
					C694.45,285.73,691.45,316.22,688.84,317.74z"/>
			</g>
		</g>
		<g id="XMLID_1019_">
			<path id="XMLID_1022_" style="fill:#F8615A;" d="M678.35,80.06c0-10.66,8.65-19.31,19.31-19.31s19.31,8.64,19.31,19.31
				c0,7.11-3.85,13.33-9.58,16.68c-2.86,1.67-6.18,38.01-9.73,38.01c-3.55,0-6.87-36.34-9.72-38
				C682.2,93.4,678.35,87.18,678.35,80.06z"/>
			<g id="XMLID_1020_">
				<path id="XMLID_1021_" style="fill:#E84F4F;" d="M691.59,91.24c-5.73-3.35-9.58-9.57-9.58-16.68c0-2.76,0.59-5.37,1.63-7.75
					c-3.27,3.46-5.29,8.11-5.29,13.25c0,7.12,3.85,13.34,9.58,16.68c2.86,1.67,6.18,38,9.72,38c0.93,0,1.85-2.53,2.75-6.28
					C697.21,123.25,694.2,92.77,691.59,91.24z"/>
			</g>
		</g>
		<g id="XMLID_1015_">
			<path id="XMLID_1018_" style="fill:#F8615A;" d="M725.99,310.74c4.52,9.66,16.02,13.82,25.67,9.3
				c9.66-4.52,13.82-16.02,9.3-25.67c-3.02-6.44-9.14-10.44-15.75-11.05c-3.3-0.3-21.71-31.8-24.93-30.3
				c-3.21,1.5,9.19,35.82,7.31,38.54C723.83,297.03,722.97,304.3,725.99,310.74z"/>
			<g id="XMLID_1016_">
				<path id="XMLID_1017_" style="fill:#E84F4F;" d="M733.25,295c-3.77,5.46-4.62,12.73-1.61,19.17c1.17,2.5,2.81,4.62,4.76,6.33
					c-4.43-1.75-8.23-5.11-10.41-9.76c-3.02-6.45-2.17-13.71,1.61-19.17c1.88-2.72-10.52-37.04-7.31-38.54
					c0.85-0.4,2.75,1.51,5.15,4.52C724.76,263.63,734.96,292.51,733.25,295z"/>
			</g>
		</g>
		<g id="XMLID_1011_">
			<path id="XMLID_1014_" style="fill:#F8615A;" d="M604.56,143.14c-7.56-7.52-7.59-19.75-0.07-27.31
				c7.52-7.56,19.75-7.59,27.31-0.07c5.04,5.02,6.74,12.13,5.07,18.55c-0.83,3.2,22.59,31.19,20.09,33.7
				c-2.5,2.51-30.61-20.75-33.8-19.91C616.73,149.82,609.6,148.16,604.56,143.14z"/>
			<g id="XMLID_1012_">
				<path id="XMLID_1013_" style="fill:#E84F4F;" d="M621.82,141.64c-6.42,1.7-13.54,0.05-18.59-4.97c-1.95-1.94-3.4-4.21-4.34-6.62
					c0.15,4.76,2.02,9.47,5.66,13.09c5.05,5.02,12.17,6.67,18.59,4.97c3.2-0.85,31.3,22.42,33.8,19.91c0.66-0.66-0.49-3.1-2.51-6.38
					C648.48,160.23,624.75,140.86,621.82,141.64z"/>
			</g>
		</g>
		<g id="XMLID_1007_">
			<path id="XMLID_1010_" style="fill:#F8615A;" d="M802.98,246.1c10.27,2.89,20.93-3.09,23.82-13.36
				c2.89-10.27-3.09-20.93-13.36-23.82c-6.85-1.93-13.87,0.1-18.65,4.7c-2.38,2.3-38.26-4.34-39.22-0.92
				c-0.96,3.41,33.12,16.45,33.95,19.65C791.19,238.78,796.13,244.17,802.98,246.1z"/>
			<g id="XMLID_1008_">
				<path id="XMLID_1009_" style="fill:#E84F4F;" d="M795.8,230.32c1.67,6.43,6.61,11.82,13.47,13.74c2.65,0.75,5.33,0.89,7.9,0.53
					c-4.21,2.21-9.24,2.89-14.19,1.5c-6.85-1.93-11.8-7.32-13.47-13.74c-0.83-3.2-34.91-16.24-33.95-19.65
					c0.25-0.9,2.94-1.1,6.79-0.95C766.51,216.25,795.04,227.39,795.8,230.32z"/>
			</g>
		</g>
		<g id="XMLID_1003_">
			<path id="XMLID_1006_" style="fill:#F8615A;" d="M574.64,248.54c-10.33,2.65-20.85-3.58-23.5-13.91
				c-2.65-10.33,3.58-20.85,13.91-23.5c6.89-1.77,13.87,0.42,18.54,5.13c2.33,2.35,38.35-3.46,39.24-0.02
				c0.88,3.43-33.49,15.68-34.4,18.86C586.6,241.5,581.54,246.77,574.64,248.54z"/>
			<g id="XMLID_1004_">
				<path id="XMLID_1005_" style="fill:#E84F4F;" d="M582.18,232.94c-1.82,6.38-6.89,11.66-13.78,13.43
					c-2.67,0.69-5.35,0.77-7.91,0.35c4.16,2.31,9.17,3.11,14.15,1.83c6.89-1.77,11.96-7.04,13.78-13.43
					c0.91-3.18,35.28-15.43,34.4-18.86c-0.23-0.91-2.91-1.17-6.76-1.11C611.8,219.54,583.01,230.03,582.18,232.94z"/>
			</g>
		</g>
		<g id="XMLID_999_">
			<path id="XMLID_1002_" style="fill:#F8615A;" d="M806.76,144.01c8.63-6.27,10.54-18.34,4.28-26.97
				c-6.27-8.63-18.34-10.55-26.97-4.28c-5.76,4.18-8.53,10.95-7.87,17.55c0.33,3.29-27.12,27.34-25.04,30.21
				c2.08,2.87,33.44-15.79,36.47-14.46C793.71,148.72,801,148.19,806.76,144.01z"/>
			<g id="XMLID_1000_">
				<path id="XMLID_1001_" style="fill:#E84F4F;" d="M789.93,139.86c6.08,2.67,13.37,2.13,19.13-2.05c2.23-1.62,4-3.63,5.31-5.87
					c-0.88,4.68-3.46,9.05-7.61,12.06c-5.76,4.18-13.05,4.72-19.13,2.05c-3.03-1.33-34.38,17.33-36.47,14.46
					c-0.55-0.76,0.96-2.99,3.46-5.92C760.73,154.13,787.17,138.64,789.93,139.86z"/>
			</g>
		</g>
		<g id="XMLID_995_">
			<path id="XMLID_998_" style="fill:#F8615A;" d="M659.24,311.52c-4.96,9.44-16.63,13.08-26.07,8.12
				c-9.44-4.96-13.08-16.63-8.12-26.07c3.31-6.3,9.6-10.01,16.23-10.32c3.31-0.15,23.14-30.78,26.29-29.13
				c3.14,1.65-10.81,35.36-9.06,38.17C662.03,297.92,662.55,305.21,659.24,311.52z"/>
			<g id="XMLID_996_">
				<path id="XMLID_997_" style="fill:#E84F4F;" d="M652.71,295.46c3.52,5.63,4.04,12.93,0.73,19.23c-1.28,2.44-3.02,4.48-5.04,6.1
					c4.5-1.54,8.45-4.73,10.84-9.27c3.31-6.3,2.79-13.6-0.73-19.23c-1.75-2.8,12.2-36.52,9.06-38.17c-0.83-0.43-2.82,1.38-5.35,4.28
					C662.63,264.51,651.11,292.89,652.71,295.46z"/>
			</g>
		</g>
	</g>
</g>
<g id="XMLID_1040_">
	<g id="XMLID_1080_">
		<path id="XMLID_1086_" style="fill:#C44343;" d="M1068.81,646.98c2.8-5.32,0.75-11.91-4.58-14.7c-5.32-2.8-11.91-0.75-14.7,4.58
			c-1.86,3.55-1.57,7.66,0.41,10.84c0.99,1.58-6.88,20.6-5.1,21.53c1.77,0.93,12.95-16.34,14.82-16.42
			C1063.39,652.63,1066.95,650.54,1068.81,646.98z"/>
		<path id="XMLID_1085_" style="fill:#C44343;" d="M990.95,635.62c-2.55-5.45-0.2-11.93,5.24-14.48c5.45-2.55,11.93-0.2,14.48,5.24
			c1.7,3.63,1.22,7.73-0.9,10.81c-1.06,1.54,5.93,20.89,4.12,21.74c-1.81,0.85-12.19-16.91-14.05-17.08
			C996.11,641.51,992.66,639.26,990.95,635.62z"/>
		<path id="XMLID_1084_" style="fill:#C44343;" d="M1077.94,747.08c4.26,4.24,11.16,4.22,15.4-0.04c4.24-4.26,4.22-11.16-0.04-15.4
			c-2.84-2.83-6.86-3.76-10.48-2.8c-1.8,0.48-17.65-12.64-19.07-11.22c-1.41,1.42,11.8,17.19,11.33,19
			C1074.14,740.23,1075.09,744.25,1077.94,747.08z"/>
		<path id="XMLID_1083_" style="fill:#C44343;" d="M957.19,683.88c-5.79-1.63-9.16-7.64-7.53-13.43c1.63-5.79,7.64-9.16,13.43-7.53
			c3.86,1.09,6.65,4.12,7.59,7.74c0.47,1.81,19.69,9.16,19.15,11.08c-0.54,1.93-20.77-1.82-22.11-0.52
			C965.02,683.82,961.05,684.96,957.19,683.88z"/>
		<path id="XMLID_1082_" style="fill:#C44343;" d="M1096.03,690.82c5.82-1.49,9.33-7.43,7.84-13.25c-1.49-5.82-7.43-9.33-13.25-7.84
			c-3.89,1-6.74,3.97-7.77,7.57c-0.51,1.8-19.89,8.7-19.4,10.64c0.5,1.94,20.81-1.34,22.12-0.01
			C1088.21,690.58,1092.15,691.82,1096.03,690.82z"/>
		<path id="XMLID_1081_" style="fill:#C44343;" d="M983.44,742.82c-4.87,3.53-11.67,2.45-15.21-2.41
			c-3.53-4.87-2.45-11.67,2.41-15.21c3.25-2.36,7.36-2.66,10.78-1.16c1.71,0.75,19.39-9.77,20.57-8.15
			c1.17,1.62-14.3,15.17-14.12,17.03C988.25,736.64,986.68,740.46,983.44,742.82z"/>
	</g>
	<g id="XMLID_1074_">
		<circle id="XMLID_1079_" style="fill:#F8615A;" cx="1030.56" cy="696.18" r="47.35"/>
		<path id="XMLID_1078_" style="fill:#E84F4F;" d="M1041.43,732.67c-26.15,0-47.35-21.2-47.35-47.35c0-10.3,3.3-19.83,8.89-27.6
			c-11.96,8.59-19.75,22.61-19.75,38.46c0,26.15,21.2,47.35,47.35,47.35c15.85,0,29.87-7.8,38.46-19.75
			C1061.26,729.37,1051.73,732.67,1041.43,732.67z"/>
		<circle id="XMLID_1077_" style="fill:#E84F4F;" cx="1045.19" cy="680.9" r="11.52"/>
		<path id="XMLID_1076_" style="fill:#E84F4F;" d="M1038.97,711.6c0,5.14-4.17,9.3-9.3,9.3c-5.14,0-9.3-4.17-9.3-9.3
			c0-5.14,4.17-9.3,9.3-9.3C1034.8,702.29,1038.97,706.46,1038.97,711.6z"/>
		<circle id="XMLID_1075_" style="fill:#E84F4F;" cx="1020.36" cy="687.2" r="6.29"/>
	</g>
	<g id="XMLID_1041_">
		<g id="XMLID_1070_">
			<path id="XMLID_1073_" style="fill:#F8615A;" d="M1019.67,764.71c0,6.01,4.87,10.89,10.89,10.89s10.89-4.87,10.89-10.89
				c0-4.01-2.17-7.52-5.4-9.41c-1.61-0.94-3.49-21.43-5.49-21.43c-2,0-3.87,20.49-5.48,21.43
				C1021.85,757.19,1019.67,760.7,1019.67,764.71z"/>
			<g id="XMLID_1071_">
				<path id="XMLID_1072_" style="fill:#E84F4F;" d="M1027.14,758.41c-3.23,1.89-5.4,5.39-5.4,9.41c0,1.55,0.33,3.03,0.92,4.37
					c-1.84-1.95-2.98-4.58-2.98-7.47c0-4.01,2.17-7.52,5.4-9.41c1.61-0.94,3.48-21.43,5.48-21.43c0.53,0,1.05,1.43,1.55,3.54
					C1030.31,740.36,1028.62,757.55,1027.14,758.41z"/>
			</g>
		</g>
		<g id="XMLID_1066_">
			<path id="XMLID_1069_" style="fill:#F8615A;" d="M1021.23,624.39c0-6.01,4.87-10.89,10.89-10.89s10.89,4.87,10.89,10.89
				c0,4.01-2.17,7.52-5.4,9.41c-1.61,0.94-3.49,21.43-5.49,21.43c-2,0-3.87-20.49-5.48-21.43
				C1023.4,631.91,1021.23,628.4,1021.23,624.39z"/>
			<g id="XMLID_1067_">
				<path id="XMLID_1068_" style="fill:#E84F4F;" d="M1028.7,630.69c-3.23-1.89-5.4-5.39-5.4-9.41c0-1.55,0.33-3.03,0.92-4.37
					c-1.84,1.95-2.98,4.58-2.98,7.47c0,4.01,2.17,7.52,5.4,9.41c1.61,0.94,3.48,21.43,5.48,21.43c0.53,0,1.05-1.43,1.55-3.54
					C1031.86,648.74,1030.17,631.55,1028.7,630.69z"/>
			</g>
		</g>
		<g id="XMLID_1062_">
			<path id="XMLID_1065_" style="fill:#F8615A;" d="M1048.09,754.46c2.55,5.45,9.03,7.79,14.48,5.24c5.45-2.55,7.79-9.03,5.24-14.48
				c-1.7-3.63-5.15-5.89-8.88-6.23c-1.86-0.17-12.24-17.93-14.06-17.08c-1.81,0.85,5.18,20.2,4.12,21.73
				C1046.87,746.73,1046.39,750.82,1048.09,754.46z"/>
			<g id="XMLID_1063_">
				<path id="XMLID_1064_" style="fill:#E84F4F;" d="M1052.18,745.58c-2.13,3.08-2.61,7.18-0.91,10.81c0.66,1.41,1.58,2.6,2.68,3.57
					c-2.5-0.98-4.64-2.88-5.87-5.5c-1.7-3.64-1.22-7.73,0.91-10.81c1.06-1.53-5.93-20.88-4.12-21.73c0.48-0.22,1.55,0.85,2.91,2.55
					C1047.39,727.89,1053.15,744.18,1052.18,745.58z"/>
			</g>
		</g>
		<g id="XMLID_1058_">
			<path id="XMLID_1061_" style="fill:#F8615A;" d="M979.62,659.96c-4.26-4.24-4.28-11.13-0.04-15.4c4.24-4.26,11.13-4.28,15.4-0.04
				c2.84,2.83,3.8,6.84,2.86,10.46c-0.47,1.81,12.74,17.59,11.33,19c-1.41,1.42-17.26-11.7-19.06-11.22
				C986.48,663.72,982.46,662.79,979.62,659.96z"/>
			<g id="XMLID_1059_">
				<path id="XMLID_1060_" style="fill:#E84F4F;" d="M989.35,659.11c-3.62,0.96-7.64,0.03-10.48-2.8c-1.1-1.1-1.91-2.37-2.45-3.73
					c0.08,2.68,1.14,5.34,3.19,7.38c2.85,2.83,6.86,3.76,10.48,2.8c1.8-0.48,17.65,12.64,19.06,11.22c0.37-0.37-0.28-1.75-1.41-3.6
					C1004.38,669.59,991,658.67,989.35,659.11z"/>
			</g>
		</g>
		<g id="XMLID_1054_">
			<path id="XMLID_1057_" style="fill:#F8615A;" d="M1091.5,718.01c5.79,1.63,11.8-1.75,13.43-7.53c1.63-5.79-1.75-11.8-7.53-13.43
				c-3.86-1.09-7.82,0.05-10.52,2.65c-1.34,1.3-21.58-2.45-22.12-0.52c-0.54,1.92,18.68,9.28,19.14,11.08
				C1084.85,713.88,1087.64,716.92,1091.5,718.01z"/>
			<g id="XMLID_1055_">
				<path id="XMLID_1056_" style="fill:#E84F4F;" d="M1087.46,709.11c0.94,3.62,3.73,6.66,7.59,7.75c1.5,0.42,3.01,0.5,4.45,0.3
					c-2.38,1.25-5.21,1.63-8,0.85c-3.86-1.09-6.65-4.13-7.59-7.75c-0.47-1.8-19.69-9.16-19.14-11.08c0.14-0.51,1.66-0.62,3.83-0.54
					C1070.94,701.18,1087.03,707.46,1087.46,709.11z"/>
			</g>
		</g>
		<g id="XMLID_1050_">
			<path id="XMLID_1053_" style="fill:#F8615A;" d="M962.75,719.39c-5.82,1.49-11.76-2.02-13.25-7.84
				c-1.49-5.82,2.02-11.76,7.84-13.25c3.89-1,7.82,0.23,10.45,2.89c1.31,1.33,21.63-1.95,22.12-0.01
				c0.5,1.94-18.88,8.84-19.39,10.64C969.49,715.41,966.64,718.39,962.75,719.39z"/>
			<g id="XMLID_1051_">
				<path id="XMLID_1052_" style="fill:#E84F4F;" d="M967,710.59c-1.03,3.6-3.88,6.58-7.77,7.57c-1.51,0.39-3.02,0.43-4.46,0.2
					c2.35,1.3,5.17,1.75,7.98,1.03c3.89-1,6.74-3.97,7.77-7.57c0.51-1.79,19.89-8.7,19.39-10.64c-0.13-0.51-1.64-0.66-3.81-0.62
					C983.7,703.04,967.47,708.95,967,710.59z"/>
			</g>
		</g>
		<g id="XMLID_1046_">
			<path id="XMLID_1049_" style="fill:#F8615A;" d="M1093.64,660.44c4.87-3.53,5.95-10.34,2.41-15.21
				c-3.53-4.87-10.34-5.95-15.21-2.41c-3.25,2.36-4.81,6.17-4.44,9.9c0.18,1.86-15.29,15.41-14.12,17.03
				c1.17,1.62,18.85-8.9,20.56-8.15C1086.28,663.1,1090.39,662.8,1093.64,660.44z"/>
			<g id="XMLID_1047_">
				<path id="XMLID_1048_" style="fill:#E84F4F;" d="M1084.15,658.1c3.43,1.51,7.54,1.2,10.79-1.15c1.26-0.91,2.26-2.05,2.99-3.31
					c-0.49,2.64-1.95,5.1-4.29,6.8c-3.25,2.36-7.36,2.66-10.79,1.15c-1.71-0.75-19.39,9.77-20.56,8.15
					c-0.31-0.43,0.54-1.68,1.95-3.34C1067.68,666.15,1082.59,657.42,1084.15,658.1z"/>
			</g>
		</g>
		<g id="XMLID_1042_">
			<path id="XMLID_1045_" style="fill:#F8615A;" d="M1010.45,754.9c-2.8,5.32-9.38,7.37-14.7,4.58c-5.32-2.8-7.37-9.38-4.58-14.7
				c1.86-3.55,5.42-5.65,9.15-5.82c1.86-0.09,13.05-17.35,14.82-16.42c1.77,0.93-6.1,19.94-5.11,21.52
				C1012.03,747.23,1012.32,751.34,1010.45,754.9z"/>
			<g id="XMLID_1043_">
				<path id="XMLID_1044_" style="fill:#E84F4F;" d="M1006.77,745.84c1.98,3.17,2.28,7.29,0.41,10.84c-0.72,1.38-1.7,2.53-2.84,3.44
					c2.54-0.87,4.77-2.66,6.11-5.23c1.87-3.55,1.57-7.67-0.41-10.84c-0.99-1.58,6.88-20.59,5.11-21.52
					c-0.47-0.25-1.59,0.78-3.02,2.41C1012.36,728.39,1005.87,744.4,1006.77,745.84z"/>
			</g>
		</g>
	</g>
</g>
</svg>
