<?xml version="1.0" encoding="utf-8"?>
<!-- Generator: Adobe Illustrator 24.0.2, SVG Export Plug-In . SVG Version: 6.00 Build 0)  -->
<svg version="1.1" xmlns="http://www.w3.org/2000/svg" xmlns:xlink="http://www.w3.org/1999/xlink" x="0px" y="0px"
	 viewBox="0 0 500 500" style="enable-background:new 0 0 500 500;" xml:space="preserve">
<style type="text/css">
	.st0{display:none;}
	.st1{display:inline;}
	.st2{fill:#538CD6;}
	.st3{fill:#FFF5DB;}
	.st4{fill:#B7D8E9;}
	.st5{fill:none;stroke:#222221;stroke-width:0.25;stroke-linecap:round;stroke-linejoin:round;stroke-miterlimit:10;}
	.st6{fill:#A1AAC3;}
	.st7{fill:#FFFFFF;}
	.st8{fill:#8A5C5B;}
	.st9{fill:#7D5454;}
	.st10{fill:#222221;}
	.st11{fill:none;stroke:#222221;stroke-width:0.2;stroke-linecap:round;stroke-linejoin:round;stroke-miterlimit:10;}
	.st12{fill:#BF7272;}
	.st13{fill:#E9DBC1;}
	.st14{fill:none;stroke:#CCC2B0;stroke-width:0.2;stroke-linecap:round;stroke-linejoin:round;stroke-miterlimit:10;}
	.st15{fill:none;stroke:#FFFFFF;stroke-width:0.2;stroke-linecap:round;stroke-linejoin:round;stroke-miterlimit:10;}
	.st16{fill:#F99FA0;}
	.st17{fill:#E39194;}
	.st18{fill:#59274C;}
	.st19{opacity:0.71;fill:#B7D8E9;}
	.st20{fill:#2F3338;}
	.st21{fill:#EF8A3D;}
	.st22{fill:none;stroke:#FFFFFF;stroke-width:0.25;stroke-linecap:round;stroke-linejoin:round;stroke-miterlimit:10;}
	.st23{fill:#F1E6CE;}
	.st24{opacity:0.65;fill:#B7D8E9;}
	.st25{opacity:0.9;}
	.st26{fill:none;stroke:#222221;stroke-width:0.25;stroke-miterlimit:10;}
	.st27{fill:none;stroke:#000000;stroke-width:0.25;stroke-linecap:round;stroke-linejoin:round;stroke-miterlimit:10;}
	.st28{fill:#67A8C8;}
</style>
<g id="BACKGROUND">
	<g class="st0">
		<g class="st1">
			<rect class="st2" width="500" height="500"/>
		</g>
	</g>
	<g>
		<g>
			<path class="st3" d="M35.9,266.5c17.7,21.8,42.5,44,72.1,44.1c15.7,0.1,30.9-5.5,44.5-13c13-7.2,24.6-16.2,33.6-28.1
				c15.9-21,22.6-47.1,30.1-71.9c6.5-21.8,13.8-43.8,23.4-64.5c4.8-10.3,10.3-20.3,17.6-29.1c6.5-7.8,14.7-15,24.7-17.4
				c23.2-5.6,41.9,15,56.1,30.2c17.3,18.3,36.1,35.7,56.1,50.9c18.3,13.9,38.4,25.4,60.5,32.2c14.8,4.6,30.1,6.9,45.4,7.5V93.4
				c-6.9-0.1-13.3-2.2-19.8-4.4c-13.3-4.6-25.9-10.9-38.1-18c-25-14.5-48.4-32-74.8-44.1c-24-10.9-51.5-17.2-78-13.2
				c-20,3.1-38,12.7-52.4,26.7c-14.7,14.3-25.7,32.2-34.9,50.4c-10,19.7-18.1,40.3-26.4,60.8c-3.9,9.8-7.9,19.5-12.1,29.1
				c-4.8,10.9-9.7,21.8-16.2,31.8c-6.3,9.7-14.2,18.8-24.1,25c-9.8,6.1-21.2,8.8-32.7,7.7c-26.8-2.5-50.6-20.5-67.3-40.6
				C14.5,194.1,7.1,182.6,0,170.9v39.6C10.9,229.8,21.9,249.2,35.9,266.5z"/>
			<path class="st3" d="M102,463.5c3.8-13.1,10.6-30.2,25.3-34c7.7-2,16.5,0.3,23,4.7c5.5,3.8,10,9,14.3,14
				c4.7,5.6,9.4,11,14.4,16.2c8.2,8.4,17.2,16.1,26.8,22.9h185.8c3.2-3.9,6.2-8,8.7-12.4c14-23.9,16.2-52.5,15.3-79.6
				c-0.4-11-1.6-21.9-2.8-32.9c-1.2-11.2-2.2-22.5-1-33.7c1-9.5,3.7-19.5,10.7-26.3c7.6-7.5,18.6-9.9,29-8.5
				c11.9,1.6,23.2,7.2,33.2,13.6c5.4,3.5,10.5,7.3,15.5,11.4v-24.4c-8-7.3-16.8-13.8-26.1-19.3c-13.1-7.7-27.9-13.6-43-15.7
				c-10.3-1.4-21-0.6-30.3,4.3c-8.1,4.3-14.2,11.3-18.8,19.1c-10.8,18.3-14.7,40.2-18.9,60.7c-2.2,10.6-4.2,21.3-7,31.8
				c-3.2,12.3-7.3,24.6-14.2,35.4c-5.6,8.7-13.2,16.2-23,19.9c-9.2,3.5-19.2,3.4-28.7,1.7c-11.3-2-22.1-6.2-32.5-10.7
				c-11.6-5.1-22.8-10.9-34.1-16.6c-21.3-10.8-44.1-22.8-68.5-23.4c-10.4-0.3-20.8,1.8-29.7,7.1c-8.4,4.9-15,12.3-20,20.5
				c-11.4,18.4-16,40.7-18.9,61.9c-0.7,5.4-1.3,10.8-1.8,16.2h12.5C98,479.3,99.7,471.3,102,463.5z"/>
		</g>
	</g>
</g>
<g id="OBJECTS">
	<g>
		<g>
			<g>
				<g>
					<g>
						<g>
							<path class="st4" d="M387,444.5c0,0-17.4,19.7-17.9,25.7c-0.5,6,33.2-6.7,34-8.6c0.8-1.8,1.3-17.1,1.3-17.1H387z"/>
							<path class="st5" d="M403.5,459.6c0,0-27.2,13-34.4,10.6"/>
							<path class="st5" d="M395.8,462.3c0,0,0.2-8.4,8.2-9.2"/>
							<path class="st5" d="M377,456.8c0,0,3.1-0.4,5.1,1.4"/>
							<path class="st5" d="M379.2,453.9c0,0,2.4,0,4.7,1.1"/>
						</g>
						<g>
							<polygon class="st6" points="377.5,360.1 384.4,446.2 406.3,446.2 409.4,368.2 							"/>
							<line class="st5" x1="383.3" y1="445.7" x2="406.7" y2="444.5"/>
							<line class="st5" x1="406.8" y1="443.6" x2="384" y2="443.3"/>
							<line class="st5" x1="384.4" y1="405.5" x2="388.2" y2="443.3"/>
						</g>
					</g>
					<g>
						<g>
							<path class="st4" d="M369.1,434.1c0,0,0.8,15.8,0,16.6c-0.8,0.8-38.4,1.8-37.4,0c1-1.8,12.2-13,21.3-16.6H369.1z"/>
							<path class="st5" d="M333,449.2c0,0,0.1,1.1,15.1,1.1s21.3-1.1,21.3-1.1"/>
							<path class="st5" d="M361.6,449.2c0,0,1-5.8,7.6-6.2"/>
							<path class="st5" d="M342.1,440.9c1,0.6,1.9,1.5,2.4,2.6"/>
							<path class="st5" d="M343.9,439.4c1.3,0.5,2.5,1.5,3.2,2.7"/>
						</g>
						<g>
							<polygon class="st6" points="342.4,349.4 349.3,435.5 371.2,435.5 374.3,357.5 							"/>
							<line class="st5" x1="349.2" y1="434.1" x2="371.3" y2="433.1"/>
							<line class="st5" x1="371.4" y1="432" x2="349" y2="432"/>
							<line class="st5" x1="351.2" y1="403.2" x2="353" y2="432"/>
						</g>
					</g>
				</g>
				<g>
					<g>
						<path class="st6" d="M328.9,270.1l-5-0.2c-1,3.9-1.7,7.8-1.7,11.8c0.1,4,0.9,8,3.1,11.4c0.9,1.4,1.9,2.6,3.1,3.8
							C327.7,287.9,327.6,278.9,328.9,270.1z"/>
						<path class="st7" d="M322.6,267.6L322,274c0,0,5.2,0.2,6.4,0.9l0.6-7.2l-6.1-0.9L322.6,267.6z"/>
						<path class="st4" d="M340.5,144.6c0,0-10.7,7.7-13.8,26.3s5.3,59.8,5.3,59.8s-14,38.3-9,36.8c0,0,0.8,3,2.9,0.7
							c0,0,1.7,2.9,3.8,0.9l5.4-38L340.5,144.6z"/>
					</g>
					<g>
						<path class="st4" d="M385.3,130.8c0,0,14.6,0.3,22.9,11.6c8.3,11.3,13.2,53.6,13.2,53.6L406,207.8c0,0-2.4,27.5-8.5,28.4
							c0,0,21.4,68.9,18.1,162.7c0,0-12.6,0.3-22.1,4.6c-9.5,4.3-26.3-5.8-32.2-4c-5.8,1.8-18.1,5.2-24.5,1.8
							c-6.4-3.4-11-9.5-11-9.5s-4-122,8-159.9c0,0-3.7,0.5-1.8-8.8c1.8-9.3,0-70,8.6-78.5C349.1,136,368.9,129.9,385.3,130.8z"/>
						<g>
							<path class="st5" d="M326,300c1-27.3,3.3-53.7,7.8-68.1c0,0-3.7,0.5-1.8-8.8c1.3-6.7,0.7-40.4,3.6-61.7"/>
							<path class="st5" d="M333.8,231.9c0,0,8.4-1.6,24.9,1.8c16.5,3.4,30.5,5.9,38.8,2.5"/>
							<path class="st5" d="M362.7,399.3c0,0-9.1-137.5-4-165.6"/>
							<path class="st5" d="M390.8,404.3c0,0,5.4-134.6-6.5-166.4"/>
							<path class="st5" d="M343,402.8c0,0-6.6-133.9,2.4-171.2"/>
						</g>
					</g>
				</g>
			</g>
			<g>
				<g>
					<g>
						<path class="st8" d="M376.5,107.3l5.8,23.4c0,0-22.7,13.5-27.5,5.3l-2.8-16.7L376.5,107.3z"/>
						<path class="st9" d="M352.5,122.5c0,0,6.8,7.1,14.6,3.8c7.8-3.3,9.3-19,9.3-19L352.5,122.5z"/>
					</g>
					<g>
						<g>
							<path class="st8" d="M378.8,93.6c0,0,2-4.2,4.7-2.7c2.6,1.4,4.2,4.6,2.8,7.4c-1.4,2.9-3.2,6.3-8.4,5.2L378.8,93.6z"/>
							<path class="st9" d="M378.9,93.3c0,0,1-1.4,1.8-2.1c-0.9,3.1-2.1,8.4,0.9,9.7c1.3,0.6,2.7,0,3.8-1.1
								c-1.4,2.4-3.3,4.5-7.6,3.6L378.9,93.3z"/>
						</g>
						<g>
							<path class="st8" d="M380.1,78.4c-0.7-5.3-13.3-8.3-20.5-8c0,0-0.1,0-0.1,0c-7.3-0.3-19.9,2.7-20.6,8
								c-0.7,5.3,1.1,18.3,1.1,18.3l0,0c0.9,9,4.5,27.3,19.5,27.3c15,0,18.6-18.3,19.5-27.3l0,0C378.9,96.6,380.8,83.7,380.1,78.4z"
								/>
							<path class="st10" d="M387.1,59.5c-2-2-5.7,6.3-5.7,6.3s0.6-4.7,0.7-5.2c0.1-0.5-1.5-1.4-2.9-1c-1.1,0.3-0.2,4.5,0.2,6.3
								c-8.3-1.5-39.1,1.8-40.7,2.8c-1.8,1.1,0,14.9,0,14.9s0.9-0.8,2.6-1.1c1.2,0.1,2.4,0.3,3.6,0.7c1.6,0.5,2.8,1.5,4.2,2.4
								c2.7,1.9,6.1,2.7,9.5,2.5c3.3-0.2,6.6-1.4,9.3-3.3c2.5-1.7,4.6-3.8,6.5-6.1c1.3,0.5,5,14.9,5,14.9l0.1-0.5c0,0,4.7-21,2.3-26
								C382.7,66.6,389.7,62.2,387.1,59.5z M367.2,84c-2.6,1.9-5.6,3.1-8.8,3.5c-3.2,0.3-6.5-0.3-9.2-2.1c-1.4-0.9-2.7-1.9-4.3-2.3
								c-1.1-0.3-2.3-0.5-3.5-0.6c2.1-0.3,5.2,0,9,3c5.5,4.2,15.4-1.7,20.6-4.9C369.9,81.8,368.6,83,367.2,84z"/>
							<g>
								<path class="st11" d="M359.3,95.6c-0.4,3.1-0.5,6.2-0.3,9.2"/>
								<g>
									<path class="st12" d="M342.1,103.7c0,1.7,2.5,3.1,5.5,3.1c3.1,0,5.5-1.4,5.5-3.1c0-1.7-2.5-3.1-5.5-3.1
										C344.6,100.6,342.1,102,342.1,103.7z"/>
									<g>
										<path class="st10" d="M349.7,98.7c0.8-0.6,0.9-1.8,0.2-2.5c-0.6-0.8-1.8-0.9-2.5-0.2c-0.8,0.6-0.9,1.8-0.2,2.5
											C347.8,99.2,348.9,99.3,349.7,98.7z"/>
										<path class="st10" d="M343.7,91.4c0.3-0.8,1.2-1.2,2-1.5c1-0.3,4.8-1.6,6.1-0.5c0.4,0.8,0.2,1.4-0.3,1.8
											c-1.7,0.7-5.6,0.4-6.7,0.8c-0.4,0.1-0.9,0.3-1.1-0.1C343.6,91.8,343.7,91.5,343.7,91.4z"/>
										<path class="st5" d="M350.9,98.1c0,0.9-0.4,1.7-1.1,2.2c-0.6,0.6-1.5,0.8-2.3,0.6c-0.8-0.2-1.5-0.9-1.5-1.8"/>
									</g>
								</g>
								<g>
									<ellipse class="st12" cx="371" cy="103.7" rx="5.5" ry="3.1"/>
									<g>
										<path class="st10" d="M369,98.7c-0.8-0.6-0.9-1.8-0.2-2.5c0.6-0.8,1.8-0.9,2.5-0.2c0.8,0.6,0.9,1.8,0.2,2.5
											C370.9,99.2,369.8,99.3,369,98.7z"/>
										<path class="st10" d="M366.9,89.1c1.1-1.5,5.3,0.5,6.3,1c0.8,0.4,1.6,0.9,1.8,1.7c0,0.2,0.1,0.4-0.1,0.6
											c-0.2,0.3-0.7,0.1-1.1-0.1c-1.2-0.6-5.6-0.8-6.9-1.8C366.8,90.1,366.8,89.7,366.9,89.1z"/>
										<path class="st5" d="M367.7,98c0.2,1.3,1.3,2.3,2.6,2.6c0.8,0.1,1.6,0,2.2-0.5c0.6-0.5,1.1-1.2,1.1-2"/>
									</g>
								</g>
							</g>
							<path class="st13" d="M370.1,103.7c-8.4,0.8-7.6-1.4-11-1.4c-2.5,0-3.6,0.9-5.9,1.4c-2,0.5-5.8-0.1-6.7-0.2
								c-2-0.5-4-1-5.9-1.7c0.1,0.3,0.1,0.7,0.2,1c1.2,0.8,3,2.2,3.9,4.1c1.5,3.3,1.3,7,1,9c2.9,4.5,7.3,7.9,13.7,7.9
								c6.5,0,10.8-3.4,13.7-8c-0.3-2.1-0.5-5.7,1-8.9c0.8-1.9,2.6-3.3,3.8-4.1c0.1-0.6,0.2-1.2,0.3-1.7
								C375.7,102.2,372.9,103.1,370.1,103.7z"/>
							<path class="st14" d="M358.9,103.7c0,0-1.1,8-1.1,8.8c0,0.8,2.8,9.6,2.8,9.6"/>
							<path class="st15" d="M370.7,111.7c0,1.8-1.4,3.2-3.2,3.2c-1.8,0-3.2-1.4-3.2-3.2c0-1.8,1.4-3.2,3.2-3.2
								C369.3,108.5,370.7,109.9,370.7,111.7z"/>
							<path class="st15" d="M364.7,110.1c0,0,2.4,0.9,5.6,0"/>
							<path class="st15" d="M364.2,111.7c0,0,3.3,0.9,6.5,0"/>
							<path class="st15" d="M364.8,113.5c0,0,2.2,0.8,5.3-0.1"/>
						</g>
					</g>
				</g>
				<g>
					<path class="st6" d="M390.1,121.7c0-0.4,0.1-0.8-0.2-1.2c-0.4-0.5-1.2-0.3-1.6,0.2s-0.5,1.1-0.6,1.7c-0.6,2.9-2,5.6-4.1,7.7
						c0.7-1.3,0.7-2.5,0.8-3.9c0.1-1.4-0.2-2.8-0.4-4.1c-0.3-2-0.6-4-1-6.1c-0.2-1.5-0.5-3.1-1.1-4.5c-0.2-0.5-0.8-1.1-1.3-0.8
						c-0.2,0.2-0.2,0.4-0.2,0.7c-0.3,5.6-0.2,11.1-0.6,16.5c-2.6-6.2-4.9-11.7-8-17.6c-0.3-0.5-0.7-1.1-1.3-1
						c-0.6,0.1-0.7,0.9-0.7,1.5c0.1,2.8,0.8,5.5,2,8.1c1.6,3.4,2.2,7,3.3,10.6c-1.6-0.2-3.7-0.7-5.2-1.4c-0.4-0.2-0.8-0.4-1.3-0.4
						c-1,0-1.7,0.8-2.3,1.6c-0.8,1.1-1.7,2.2-2.5,3.4c-1,1.4-1.7,2.8-1.6,4.7c-0.9-1.1-2-1.8-3.2-1.5c-1.2,0.3-1.2,2-0.8,3.1
						c1.1,3,3.6,5.2,6.2,7c2.6,1.8,4.5,2.8,7.9,5.2c2.3,1.6,5.3,3.2,7.1,5.3c3.5-2.3,5.4-2.8,9.4-4.2c-1.3-3-2.4-6.1-3.3-9.3
						c-0.3-0.9-0.5-1.9-0.5-2.9c0-2.2,1.2-4.1,2.1-6C389.1,130.2,389.6,125.9,390.1,121.7z M370.5,141.2c-4,1.6-5.3-2.2-5.3-2.2
						c0.3-0.4,0.9-1.7,0.9-1.7c0.8-1.9,2-2.9,2-2.9c4-1.1,5.4,2.4,5.4,2.4S374.5,139.6,370.5,141.2z"/>
					<polygon class="st7" points="382,163.2 376.6,155.3 389.6,147.9 394.1,155.6 					"/>
					<path class="st4" d="M378.7,162.7c0,0,18.7,56,37.8,45.2c19.1-10.8-21.8-54.5-21.8-54.5s-2.7-3.1-3.3,2.7c0,0-4.4-0.9-4.4,3.2
						c0,0-4.2-1.8-4.2,2.3C382.9,161.5,377.8,158.2,378.7,162.7z"/>
					<path class="st11" d="M411.4,174.4c-7.6-11.4-16.7-21-16.7-21s-2.7-3.1-3.3,2.7c0,0-4.4-0.9-4.4,3.2c0,0-4.2-1.8-4.2,2.3
						c0,0-5-3.4-4.2,1.2c0,0,13.5,40.6,29.4,46"/>
					<g>
						<path class="st5" d="M368.2,134.3c0,0,4-1.4,5.5,2.9"/>
						<path class="st5" d="M370,128c0,0,5.5,1.8,7.3,1.6"/>
						<path class="st5" d="M375.2,129.4c0,0-2.6-9.2-2.8-9.7"/>
						<line class="st5" x1="379.7" y1="128.8" x2="380.3" y2="115.9"/>
						<path class="st5" d="M389.5,125c0,0-0.3,6.5-3.5,11.7c0,0-1.6,2.3-0.7,4.6c0.8,2.2,1.8,6.1,1.8,6.1"/>
						<path class="st5" d="M362.3,137.3c0,0,0.1,3,0.4,3.2s1.6,0.5,3.2-2.7c1.5-3.2,3.9-5,3.9-5"/>
					</g>
				</g>
			</g>
		</g>
		<g>
			<g>
				<g>
					<path class="st16" d="M276.7,142.4c-0.9,4.6-7.1,6.4-11.5,6.9c-6.2,0.7-13.1-1.1-16.7-6.3c1.2-0.3,1.9-0.5,2.1-0.5
						c0.7-0.2-0.6-18.6-0.6-18.6l13.7,4.3h0.9l11.5-4.3c0,0-0.7,18.2,0,18.4C276.1,142.3,276.3,142.3,276.7,142.4z"/>
					<path class="st17" d="M276,123.9c0,0-0.5,12.6-12.1,12.6c-11.6,0-14-12.6-14-12.6H276z"/>
				</g>
				<g>
					<g>
						<path class="st16" d="M279.2,108c0,0,1.7-3.5,3.9-2.3c2.2,1.2,3.5,3.8,2.3,6.2c-1.2,2.4-2.7,5.3-7,4.4L279.2,108z"/>
						<path class="st17" d="M279.3,107.7c0,0,0.8-1.2,1.5-1.7c-0.7,2.6-1.8,7.1,0.7,8.2c1.1,0.5,2.2,0,3.2-0.9c-1.1,2-2.7,3.8-6.3,3
							L279.3,107.7z"/>
					</g>
					<g>
						<path class="st16" d="M246.8,108c0,0-1.7-3.5-3.9-2.3c-2.2,1.2-3.5,3.8-2.3,6.2c1.2,2.4,2.7,5.3,7,4.4L246.8,108z"/>
						<path class="st17" d="M246.7,107.7c0,0-0.8-1.2-1.5-1.7c0.7,2.6,1.8,7.1-0.7,8.2c-1.1,0.5-2.2,0-3.2-0.9c1.1,2,2.7,3.8,6.3,3
							L246.7,107.7z"/>
					</g>
					<g>
						<path class="st16" d="M245.7,95.3c0.6-4.5,11.1-6.9,17.2-6.7c0,0,0,0,0.1,0c6.1-0.2,16.7,2.2,17.3,6.7
							c0.6,4.5-0.9,15.3-0.9,15.3l0,0c-0.7,7.5-3.8,22.9-16.3,22.9c-12.5,0-15.6-15.3-16.3-22.9l0,0
							C246.7,110.6,245.1,99.7,245.7,95.3z"/>
						<g>
							<path class="st11" d="M263.1,109.7c0.3,2.6,0.4,5.2,0.3,7.7"/>
							<g>
								<ellipse class="st17" cx="272.9" cy="116.5" rx="4.6" ry="2.6"/>
								<g>
									<path class="st10" d="M271.2,112.3c-0.6-0.5-0.7-1.5-0.2-2.1c0.5-0.6,1.5-0.7,2.1-0.2c0.6,0.5,0.7,1.5,0.2,2.1
										C272.8,112.7,271.8,112.8,271.2,112.3z"/>
									<path class="st18" d="M276.2,106.2c-0.3-0.7-1-1-1.7-1.2c-0.8-0.3-4-1.3-5.1-0.4c-0.3,0.6-0.1,1.1,0.3,1.5
										c1.4,0.5,4.7,0.3,5.7,0.7c0.3,0.1,0.7,0.2,0.9,0C276.2,106.5,276.2,106.3,276.2,106.2z"/>
									<path class="st5" d="M270.2,111.8c0,0.7,0.4,1.4,0.9,1.9c0.5,0.5,1.3,0.7,1.9,0.5c0.7-0.2,1.3-0.8,1.3-1.5"/>
								</g>
							</g>
							<g>
								<ellipse class="st17" cx="253.3" cy="116.5" rx="4.6" ry="2.6"/>
								<g>
									<path class="st10" d="M255,112.3c0.6-0.5,0.7-1.5,0.2-2.1c-0.5-0.6-1.5-0.7-2.1-0.2c-0.6,0.5-0.7,1.5-0.2,2.1
										C253.4,112.7,254.4,112.8,255,112.3z"/>
									<path class="st18" d="M256.8,104.3c-0.9-1.3-4.4,0.4-5.3,0.8c-0.7,0.3-1.4,0.7-1.5,1.4c0,0.2,0,0.3,0.1,0.5
										c0.2,0.3,0.6,0.1,0.9-0.1c1-0.5,4.7-0.7,5.8-1.5C256.8,105.1,256.9,104.7,256.8,104.3z"/>
									<path class="st5" d="M256.1,111.7c-0.2,1.1-1.1,2-2.2,2.1c-0.6,0.1-1.3,0-1.9-0.4c-0.5-0.4-0.9-1-0.9-1.6"/>
								</g>
							</g>
						</g>
						<path class="st13" d="M254.1,116.5c7,0.6,6.4-1.2,9.2-1.1c2.1,0,3,0.7,4.9,1.2c1.7,0.4,4.9-0.1,5.6-0.2
							c1.7-0.4,3.3-0.9,4.9-1.4c-0.1,0.3-0.1,0.6-0.2,0.9c-1,0.6-2.6,1.8-3.3,3.5c-1.3,2.8-1.1,5.9-0.8,7.6
							c-2.5,3.8-6.1,6.6-11.4,6.6c-5.4,0-9.1-2.9-11.5-6.7c0.2-1.7,0.4-4.7-0.8-7.5c-0.7-1.6-2.2-2.8-3.2-3.4
							c-0.1-0.5-0.2-1-0.3-1.4C249.4,115.3,251.7,116,254.1,116.5z"/>
						<g>
							<path class="st14" d="M263.4,116.5c0,0,0.9,6.7,0.9,7.4c0,0.7-2.4,8-2.4,8"/>
							<circle class="st15" cx="256.3" cy="123.2" r="2.7"/>
							<path class="st15" d="M258.6,121.8c0,0-2,0.7-4.7,0"/>
							<path class="st15" d="M259,123.2c0,0-2.8,0.7-5.4,0"/>
							<path class="st15" d="M258.5,124.7c0,0-1.8,0.7-4.5,0"/>
						</g>
					</g>
					<path class="st18" d="M243.8,90.7c4.7-4.8,14.1-6.1,17.7-6.4c-1-1.2-2.8-3.5-2.5-3.7c0.4-0.4,2.3-1.1,3-0.4
						c0.7,0.7,1,3.7,1,3.7s0.4-6.3,2.5-5.4c1.5,0.6-0.2,4-1.3,5.8c3.5,0.3,13.1,1.6,17.9,6.4c0.9,0.9-2.5,18.1-2.5,18.1
						s-1-13.8-3.9-13.4c-2.9,0.3-5.7,5.2-12.7,5.3v0c0,0,0,0-0.1,0c0,0,0,0-0.1,0l0,0c-7,0-9.7-5-12.6-5.3
						c-2.9-0.3-3.9,13.4-3.9,13.4S242.9,91.6,243.8,90.7z"/>
					<g>
						<path class="st19" d="M244.4,103c-1.1-2.2-2.2-4.2-3.3-6.5c-1.1-2.2-1.7-4.9-0.9-7.2c0.2-0.5,0.4-1,0.8-1.3
							c0.4-0.3,0.8-0.7,1.3-0.4c0.1-2.2,1.2-4.5,3.3-5.4c1.7-0.7,3.4-0.4,5.2-0.1c0.5-3.7,3.2-7,6.7-8.1c3.5-1.2,7.9-0.1,10.4,2.6
							c2.5-0.4,5.3-0.6,7.6,0.6c2.4,1.2,3.9,3.7,4.7,6.3c1.9,0.3,4,0.9,5.2,2.3c1,1.1,1.4,2.6,1.4,4.1c0,1.5-0.4,2.9-0.8,4.3
							c-1,2.9-2.5,5.7-4.3,8.2c0,0-1.6,1.8-2.9,0.1c0,0-3,2-4.5-1.2c0,0-2.2,2.9-4.1,0.1c0,0-1.8,2.8-4.2,0.4c0,0-3.4,3.5-5.8,0
							c0,0-2.9,3.1-5.2,0.1c0,0-1.4,2.9-3.9,0.8c0,0-1.4,3.1-2.9,0.7C248.2,103.4,246.2,106.3,244.4,103z"/>
						<g>
							<path class="st13" d="M246.3,104.9c0.8,0,1.5-0.6,1.9-1c0.4,0.5,0.8,0.7,1.2,0.7c0.8,0,1.5-1,1.7-1.5
								c0.7,0.5,1.4,0.7,2.1,0.5c0.9-0.2,1.5-0.9,1.8-1.3c0.6,0.7,1.4,1.1,2.2,1.1c1.4,0.1,2.5-0.8,3-1.3c0.7,0.9,1.5,1.3,2.4,1.4
								c1.6,0.1,3-1,3.5-1.4c0.7,0.6,1.4,0.9,2.2,0.8c0.9-0.1,1.6-0.8,2-1.2c0.5,0.7,1.1,1,1.8,1c1,0,1.8-0.7,2.2-1.1
								c0.5,0.8,1.1,1.3,1.8,1.5c1.1,0.3,2.2-0.2,2.7-0.4c0.4,0.4,0.8,0.6,1.3,0.6c1.1,0,1.9-0.9,1.9-0.9c0.1-0.1,0.1-0.3,0-0.4
								c-0.1-0.1-0.3-0.1-0.4,0c0,0-0.7,0.7-1.4,0.7c0,0,0,0,0,0c-0.4,0-0.7-0.2-1-0.6c-0.1-0.1-0.3-0.1-0.4-0.1
								c0,0-1.3,0.8-2.5,0.5c-0.7-0.2-1.2-0.7-1.6-1.6c0-0.1-0.1-0.1-0.2-0.2c-0.1,0-0.2,0-0.2,0.1c0,0-1,1.2-2.1,1.2
								c-0.6,0-1.1-0.4-1.6-1.1c-0.1-0.1-0.1-0.1-0.2-0.1c-0.1,0-0.2,0-0.2,0.1c0,0-0.7,1.1-1.8,1.2c-0.6,0.1-1.3-0.2-1.9-0.9
								c-0.1-0.1-0.1-0.1-0.2-0.1c-0.1,0-0.1,0-0.2,0.1c0,0-1.6,1.6-3.2,1.5c-0.8-0.1-1.6-0.5-2.2-1.4c0-0.1-0.1-0.1-0.2-0.1
								c-0.1,0-0.2,0-0.2,0.1c0,0-1.3,1.4-2.8,1.3c-0.7,0-1.4-0.4-2-1.2c-0.1-0.1-0.2-0.1-0.2-0.1c-0.1,0-0.2,0.1-0.2,0.2
								c0,0-0.6,1.2-1.6,1.4c-0.6,0.1-1.2-0.1-1.9-0.6c-0.1-0.1-0.2-0.1-0.2-0.1c-0.1,0-0.2,0.1-0.2,0.2c-0.2,0.4-0.8,1.4-1.4,1.5
								c-0.3,0-0.6-0.2-1-0.8c0-0.1-0.1-0.1-0.2-0.1c-0.1,0-0.2,0-0.2,0.1c0,0-0.8,1.1-1.7,1.1c-0.6,0-1.1-0.5-1.6-1.5
								c-0.1-0.1-0.2-0.2-0.4-0.1c-0.1,0.1-0.2,0.2-0.1,0.4c0.6,1.1,1.3,1.7,2,1.8C246.3,104.9,246.3,104.9,246.3,104.9z"/>
						</g>
					</g>
				</g>
			</g>
			<g>
				<g>
					<g>
						<g>
							<path class="st13" d="M289.2,429.1l-0.9,4.9c0,0,6.9,7.7,9.6,13c2.7,5.3-7.5,6.3-18.2,5.1c0,0-6.5-0.3-6.3-23H289.2z"/>
							<g>
								<g>
									<path class="st5" d="M290.2,433.9c0.5-0.1,1.1-0.2,1.6-0.1c0.5,0.1,1,0.5,1.1,1c0.1,0.6-0.2,1.1-0.6,1.5
										c-0.4,0.4-1,0.5-1.6,0.7c-1.2,0.3-3.4,0.6-4.5-0.1C286.9,435.4,288.7,434.3,290.2,433.9z"/>
									<path class="st5" d="M286.3,436.9c1.6,1.7,3.8,2.8,6.1,3.3c0.7,0.2,1.5,0.3,2.2,0.2c0.7-0.1,1.5-0.4,1.9-1
										c0.5-0.6,0.6-1.5,0.2-2.1c-0.4-0.6-1.3-0.9-1.9-0.5c-0.6,0.4-0.6,1.5,0,1.9"/>
									<path class="st5" d="M282.3,433.9c-0.5-0.1-1.1-0.2-1.6-0.1c-0.5,0.1-1,0.5-1.1,1c-0.1,0.6,0.2,1.1,0.6,1.5
										c0.4,0.4,1,0.5,1.6,0.7c1.2,0.3,3.4,0.6,4.5-0.1C285.6,435.4,283.8,434.3,282.3,433.9z"/>
									<path class="st5" d="M286.3,436.9c-1.6,1.7-3.8,2.8-6.1,3.3c-0.7,0.2-1.5,0.3-2.2,0.2c-0.7-0.1-1.5-0.4-1.9-1
										c-0.5-0.6-0.6-1.5-0.2-2.1c0.4-0.6,1.3-0.9,1.9-0.5c0.6,0.4,0.6,1.5,0,1.9"/>
								</g>
								<path class="st5" d="M297.9,448c0,0-10.5,4-18.8,1.2c0,0-3.8-2.5-5.3-13.3"/>
							</g>
						</g>
						<g>
							<polygon class="st20" points="266.7,308.8 272.7,430.6 290.5,430.6 298.4,308.8 							"/>
							<line class="st5" x1="283.6" y1="424.3" x2="283.6" y2="318.3"/>
						</g>
					</g>
					<g>
						<g>
							<path class="st13" d="M250.3,429.1l-0.9,4.9c0,0,6.9,7.7,9.6,13c2.7,5.3-7.5,6.3-18.2,5.1c0,0-6.5-0.3-6.3-23H250.3z"/>
							<g>
								<g>
									<path class="st5" d="M251.3,433.9c0.5-0.1,1.1-0.2,1.6-0.1c0.5,0.1,1,0.5,1.1,1c0.1,0.6-0.2,1.1-0.6,1.5
										c-0.4,0.4-1,0.5-1.6,0.7c-1.2,0.3-3.4,0.6-4.5-0.1C248,435.4,249.8,434.3,251.3,433.9z"/>
									<path class="st5" d="M247.4,436.9c1.6,1.7,3.8,2.8,6.1,3.3c0.7,0.2,1.5,0.3,2.2,0.2c0.7-0.1,1.5-0.4,1.9-1
										c0.5-0.6,0.6-1.5,0.2-2.1c-0.4-0.6-1.3-0.9-1.9-0.5c-0.6,0.4-0.6,1.5,0,1.9"/>
									<path class="st5" d="M243.5,433.9c-0.5-0.1-1.1-0.2-1.6-0.1c-0.5,0.1-1,0.5-1.1,1c-0.1,0.6,0.2,1.1,0.6,1.5
										c0.4,0.4,1,0.5,1.6,0.7c1.2,0.3,3.4,0.6,4.5-0.1C246.8,435.4,245,434.3,243.5,433.9z"/>
									<path class="st5" d="M247.4,436.9c-1.6,1.7-3.8,2.8-6.1,3.3c-0.7,0.2-1.5,0.3-2.2,0.2c-0.7-0.1-1.5-0.4-1.9-1
										c-0.5-0.6-0.6-1.5-0.2-2.1c0.4-0.6,1.3-0.9,1.9-0.5c0.6,0.4,0.6,1.5,0,1.9"/>
								</g>
								<path class="st5" d="M259.1,448c0,0-10.5,4-18.8,1.2c0,0-3.8-2.5-5.3-13.3"/>
							</g>
						</g>
						<g>
							<polygon class="st20" points="227.9,308.8 233.8,430.6 251.6,430.6 259.5,308.8 							"/>
							<line class="st5" x1="244.7" y1="424.3" x2="244.7" y2="318.3"/>
						</g>
					</g>
				</g>
				<g>
					<g>
						<path class="st21" d="M230.9,208.5c0,0-9.7-52.2-8.9-55.6c0.6-2.8,18.3-11.2,25.3-13c1.5,2.4,4.5,7.4,7.2,8.6
							c4.9,2.1,10.5,2,15.5,0.5c3.4-1.1,8.7-6.2,9.4-9.4c5.3,1.3,26.2,10.3,26.9,13.4c0.7,3.4-8.9,55.6-8.9,55.6
							s14.1,109.2,13.4,110.3c-0.7,1.1-46.6,6.3-46.6,6.3l0,0c0,0-45.9-5.3-46.6-6.3C216.8,317.7,230.9,208.5,230.9,208.5z"/>
						<g>
							<line class="st5" x1="266.2" y1="166.4" x2="266.2" y2="320.4"/>
							<g>
								<g>
									<circle class="st7" cx="263" cy="219.5" r="1.1"/>
									<circle class="st7" cx="263" cy="175" r="1.1"/>
									<circle class="st7" cx="263" cy="241.9" r="1.1"/>
									<circle class="st7" cx="263" cy="264.3" r="1.1"/>
									<circle class="st7" cx="263" cy="286.8" r="1.1"/>
									<circle class="st7" cx="263" cy="309.2" r="1.1"/>
								</g>
							</g>
						</g>
					</g>
					<g>
						<g>
							<path class="st4" d="M262.5,141.6h1.1h1.1c0,0,6-3.5,8.2,5.2l-1.9,7c0,0-7.1,8.1-7.4,11c-0.3-2.8-7.4-11-7.4-11l-1.9-7
								C256.5,138.1,262.5,141.6,262.5,141.6z"/>
							<path class="st6" d="M259.4,142.4c0,0,1.9-1.6,4.6-1.5c2.7,0.1,4.6,2,4.6,2s-1.6,3.2-2.5,4.1l0,0l1.9,8l-4.4,9.8L260,157
								l1.2-9.9C260.3,146.3,259.4,142.4,259.4,142.4z"/>
						</g>
						<g>
							<g>
								<g>
									<path class="st22" d="M284.9,179.8c-9.2,0-7.5-22.3-7.5-22.3s-0.5-8.3,6.9-7.3c7.4,1.1,5.6,9.1,5.6,9.1
										s-2.4,20.9-12.4,18.7"/>
									<path class="st6" d="M275.3,178.1l1.3,0.3c0.3,0.1,0.5-0.1,0.6-0.4l0-0.1c0.1-0.3-0.1-0.5-0.4-0.6l-1.3-0.3
										c-0.3-0.1-0.5,0.1-0.6,0.4l0,0.1C274.9,177.7,275.1,178,275.3,178.1z"/>
									<path class="st6" d="M285.4,180.3h1.3c0.3,0,0.5-0.2,0.5-0.5v-0.1c0-0.3-0.2-0.5-0.5-0.5h-1.3c-0.3,0-0.5,0.2-0.5,0.5v0.1
										C285,180.1,285.2,180.3,285.4,180.3z"/>
								</g>
								<path class="st10" d="M279,151c1.1-1,2.6-1.5,4.5-1.4c0.1-0.6,0.1-1.2,0-1.8c-0.1-0.3,0.1-0.6,0.4-0.6
									c0.3-0.1,0.6,0.1,0.6,0.4c0.1,0.7,0.1,1.4,0,2.2c2,0.4,3.6,1.3,4.6,2.7c2,2.9,1.1,6.8,1.1,7c-0.1,0.3-0.3,0.4-0.5,0.4
									c0,0-0.1,0-0.1,0c-0.3-0.1-0.5-0.4-0.4-0.7c0,0,0.8-3.6-0.9-6.1c-0.9-1.3-2.3-2.1-4.2-2.3c-1.9-0.3-3.3,0.1-4.4,1
									c-2.1,1.9-1.9,5.6-1.9,5.7c0,0.3-0.2,0.6-0.5,0.6c-0.3,0-0.6-0.2-0.6-0.5C276.8,157.4,276.5,153.2,279,151z"/>
							</g>
							<g>
								<path class="st10" d="M244.8,145.5c0-0.3,0.3-0.5,0.6-0.5c0.3,0,0.5,0.3,0.5,0.6c-0.6,4.5,3.5,16.9,3.5,17
									c0.1,0.3-0.1,0.6-0.4,0.7c-0.1,0-0.1,0-0.2,0c-0.2,0-0.5-0.1-0.5-0.4C248.3,162.4,244.2,150.2,244.8,145.5z"/>
								<g>
									<path class="st7" d="M246.3,168.6c0.6,1.5,2.9,1.9,5.3,1.1c2.4-0.9,3.9-2.8,3.3-4.3c-0.6-1.5-2.9-1.9-5.3-1.1
										C247.2,165.2,245.7,167.1,246.3,168.6z"/>
									<g>
										<path class="st6" d="M252.1,163.4l0.9,2.3c0.3,0.9-0.5,2-1.9,2.5c-1.4,0.5-2.8,0.2-3.1-0.6l-0.9-2.3L252.1,163.4z"/>
										<path class="st4" d="M247.1,165.3c0.3,0.9,1.7,1.1,3.1,0.6c1.4-0.5,2.3-1.6,1.9-2.5c-0.3-0.9-1.7-1.1-3.1-0.6
											C247.6,163.3,246.7,164.4,247.1,165.3z"/>
									</g>
								</g>
							</g>
							<g>
								<path class="st23" d="M275.5,137.1c0,0,8.2,3.9,12.3,12c0,0-6.9-1.1-9.1-1.3c0,0,2.8,2.4,2.9,2.9
									c0.2,0.5-16.5,7.7-18.2,13.9c0,0,0.5-5.5,6.2-13.4C275.5,143.5,275.3,141.1,275.5,137.1z"/>
								<path class="st7" d="M275.8,132.6c0,0-10.8,7.8-12.3,8.2c0,0,5,0.1,10.3,7c0,0,4.4-5.4,3.5-9.8L275.8,132.6z"/>
								<path class="st23" d="M251.5,137.1c0,0-8.2,3.9-12.3,12c0,0,6.9-1.1,9.1-1.3c0,0-2.8,2.4-2.9,2.9
									c-0.2,0.5,16.5,7.7,18.2,13.9c0,0-0.5-5.5-6.2-13.4C251.6,143.5,251.7,141.1,251.5,137.1z"/>
								<path class="st7" d="M250.5,132.3c0,0,11.1,8.1,12.7,8.6c0,0-4.6,0.1-9.8,6.9c0,0-5.1-5-4.1-9.4L250.5,132.3z"/>
							</g>
						</g>
					</g>
					<g>
						<g>
							<path class="st16" d="M271.3,206.1c-0.6,0.1-1.2,0.2-1.8,0c-0.5-0.1-0.9-0.4-1.3-0.7c-1.6-1.2-2.7-3.4-1.9-5.3
								c0.5-1.3,1.8-2.1,3.1-2.4c1.3-0.3,2.7-0.1,4,0.2c1.8,0.5,7.6,2.1,5.9,4.3C277.7,204.4,273.9,205.7,271.3,206.1z"/>
							<polygon class="st7" points="262.4,212.9 269.1,212.9 269.1,201.5 262.4,199.9 							"/>
							<path class="st21" d="M238.2,191.6c0,0-0.6-42.3-13.6-40.8c-13,1.5-8.2,59.4-2.9,61.1c5.3,1.7,41.5,3.6,41.5,3.6l1-15.9
								L238.2,191.6z"/>
							<path class="st5" d="M237.7,182c-2.3-20.9-6-32-13.2-31.2c-13,1.5-8.2,59.4-2.9,61.1c5.3,1.7,41.5,3.6,41.5,3.6l0.2-3.5"/>
						</g>
						<g>
							<g>
								<path class="st16" d="M243,192.1c-3.3-0.1-6.6-0.1-9.6-1.2c-1.8-0.6-3.5-1.6-5.3-2.3c-3.6-1.4-7.5-1.9-11.3-1.3
									c-1.1,0.2-2.3,0.4-3.2-0.2c-0.8-0.6-1-1.7-1-2.7c-0.1-2,0-4.7,1.7-5.9c2.3-1.7,5.1-2.5,7.9-2.8c2.9-0.4,5.9-0.2,8.6,0.9
									c1.8,0.7,3.4,1.9,5.1,2.8c2.6,1.4,5.5,2.4,8.5,2.8c-0.2,2.4,0,5-0.2,7.4C244.1,190.4,243.4,191.3,243,192.1z"/>
								<g>
									<path class="st5" d="M230.4,178.9c-5.8-1.5-12.1-0.6-17.3,2.4"/>
									<path class="st5" d="M228.8,181.5c-4.2-0.4-8.6-0.8-12.7,0.4c-1.1,0.3-2.1,0.8-3,1.4"/>
									<path class="st5" d="M227.5,184.3c-4.7-0.8-9.7-0.5-14.3,0.9"/>
								</g>
							</g>
							<g>
								<g>
									<polygon class="st7" points="249.5,181.7 243.2,180.2 241.7,192.8 246.4,194.2 									"/>
									<path class="st21" d="M304.7,151.4c0,0,14.1,1.5,1.1,51.3c0,0-1.5,8-12,6.2c-15.8-2.6-49.6-13.5-49.6-13.5l3.1-14.6
										l42.9,7.3C290.1,188.2,289.7,149.2,304.7,151.4z"/>
								</g>
								<g>
									<path class="st5" d="M290.4,180.2c0.5-7.8,2.1-19.2,6.5-25.1"/>
									<g>
										<path class="st16" d="M281,186.6c0.8-1.7,4.3-4.7,5.7-5.5c2.7-1.5,5.3-2.1,7.7-2.7c1.3-0.3,2.6-0.4,3.9-0.3
											c1.5,0.1,3,0.3,4.3,0.9c1.6,0.7,3,2.4,2.6,4.1c-0.2,0.9-0.9,1.6-1.7,2c-1.5,0.8-3.2,0.9-4.9,1c-2.1,0.2-4.1,0.5-6.1,1
											c-0.9,0.2-1.8,0.5-2.6,1L281,186.6z"/>
										<g>
											<path class="st5" d="M304.6,180.6c-2.3-0.3-4.5-0.6-6.8-0.4c-2.3,0.1-4.6,0.7-6.5,1.9"/>
											<path class="st5" d="M305.2,183.4c-4.4-0.9-9-0.9-13.4,0.1"/>
											<path class="st5" d="M303.6,185.1c-3.5-0.4-7-0.3-10.5,0.2"/>
										</g>
									</g>
								</g>
								<g>
									<path class="st5" d="M298.8,209c-1.4,0.2-3.1,0.3-5-0.1c-15.8-2.6-49.6-13.5-49.6-13.5l0.6-2.7"/>
									<polyline class="st5" points="247,182.1 247.2,180.9 290.1,188.2 									"/>
								</g>
							</g>
						</g>
					</g>
				</g>
			</g>
		</g>
		<g>
			<g>
				<g>
					<path class="st4" d="M107.5,433.4c0,0,6.6,24.4,4.5,29.8c-2.1,5.4-25.8-20-25.7-21.9c0.1-1.9,6.2-15.3,6.2-15.3L107.5,433.4z"
						/>
					<path class="st5" d="M86.9,439.4c0,0,17.9,22.8,25.1,23.8"/>
					<path class="st5" d="M92.3,445c0,0,3.4-7.3-3.1-11.4"/>
					<path class="st5" d="M111,448.3c0,0-2.5-1.6-5-1"/>
					<path class="st5" d="M110.2,444.8c0,0-2.1-1-4.5-1.1"/>
				</g>
				<g>
					<path class="st4" d="M183.9,438.5c0,0,19.3,16.3,20.6,21.9c1.3,5.6-32.6-1.8-33.5-3.4c-1-1.6-3.6-16.1-3.6-16.1L183.9,438.5z"
						/>
					<path class="st5" d="M170.3,455.1c0,0,27.7,8.5,34.2,5.3"/>
					<path class="st5" d="M178,456.7c0,0-1.3-7.9-9.1-7.6"/>
					<path class="st5" d="M195.1,448.8c0,0-3,0.1-4.6,2"/>
					<path class="st5" d="M192.6,446.3c0,0-2.3,0.3-4.4,1.7"/>
				</g>
			</g>
			<g>
				<g>
					<path class="st16" d="M151.2,147l-3.1-0.9c1.7,3.5,5.4,6,9.4,6.1c5.9,0.2,10.1-5.3,11.8-10.7l-0.1-17.7l-21.5,2.1l3.9,20.8
						C151.7,147.1,151.6,147.2,151.2,147z"/>
					<path class="st17" d="M148.8,130.5c0,0,1.7,7.3,10.5,6.6c8.8-0.7,10.1-7,10.1-7L148.8,130.5z"/>
				</g>
				<g>
					<g>
						<g>
							<path class="st16" d="M176.8,110.5c0,0,2.7-2.8,5.3-0.3c2.6,2.5-0.1,12.2-7.3,9.7L176.8,110.5z"/>
							<path class="st17" d="M178.7,117.8c-1.2-0.7-1.4-2.3-1.5-3.5c-0.1-1.5,0.3-3.1,0.6-4.6c-0.6,0.4-1,0.8-1,0.8l-2,9.4
								c3,1,5.2-0.1,6.6-1.9C180.5,118.3,179.5,118.3,178.7,117.8z"/>
						</g>
					</g>
					<g>
						<g>
							<path class="st16" d="M140.9,110.7c0,0-2.7-2.8-5.3-0.3c-2.6,2.5,0.1,12.2,7.3,9.7L140.9,110.7z"/>
							<path class="st17" d="M140.9,110.7c0,0-0.4-0.4-1-0.7c0.7,3.2,1.8,7.4-1.2,9.4c-0.3,0.2-0.6,0.3-0.9,0.4
								c1.3,0.9,3,1.2,5.1,0.5L140.9,110.7z"/>
						</g>
					</g>
					<g>
						<g>
							<path class="st16" d="M177.2,103c-0.1-10.2-8.4-18.4-18.6-18.3s-18.4,8.4-18.3,18.6c0,0.5,0,1,0.1,1.4l0,0
								c0,0,0.2,29.9,18.7,29.8c18.5-0.1,18.2-30.1,18.2-30.1l0,0C177.2,104,177.2,103.5,177.2,103z"/>
							<path class="st18" d="M177.8,102.9c-0.1-8.8-6.6-16.5-15-18.4c4.4-1.7,7.5-5.9,7.5-10.9c0-4.3-2.4-8.1-5.9-10.1
								c0.8,0.4,1.6,0.9,2.3,1.6c2,1.8,3.3,4.1,3.7,6.7c0.5,2.6,0,5.3-1.2,7.6c-0.6,1.2-1.4,2.2-2.4,3.1c-1,0.9-2.1,1.7-3.3,2.3
								c2.6-0.7,5-2.6,6.5-5c1.5-2.4,2-5.4,1.5-8.2c-0.5-2.8-2-5.4-4.3-7.1c-1.1-0.9-2.4-1.5-3.7-1.9c-1.2-0.4-2.5-0.5-3.7-0.5
								c-0.4,0-0.9-0.1-1.3-0.1c-6.5,0-11.7,5.2-11.7,11.7c0,5.1,3.3,9.4,7.8,11c-8.3,2.1-14.9,10.2-14.8,19c0,0.5,0,0.7,0,1.2
								c0,0,0.5,2.3,0.9,5.8c-0.1-1-0.2-8.4,6.2-15.6c0.5,2.6,1.8,5.1,3.7,7c1.2,1.2,2.9,2.2,4.6,2.5c1.7,0.3,3.4,0.2,5,0
								c1.6-0.2,3.3-0.5,4.9-0.9c1.6-0.4,3.1-0.9,4.7-1c1.6,0,3.2,0.3,4.7,0.9c0.3,0.1,0.6,0.3,0.9,0.5c0.7,1.2,1.2,2.6,1.6,4.3
								c0.3-0.7,0.5-1.4,0.6-2c0.1,0.2,0.2,0.4,0.2,0.6c0-0.2-0.1-0.5-0.2-0.7c0.2-1.1,0.2-1.8,0.2-1.8
								C177.8,103.9,177.8,103.4,177.8,102.9z M174.6,103.2c-1.5-0.7-3.1-1.1-4.8-1.2c-1.7-0.1-3.3,0.4-4.9,0.7
								c-1.6,0.3-3.2,0.6-4.8,0.6c-1.6,0.1-3.2,0.1-4.7-0.3c-1.5-0.3-2.7-1.2-3.7-2.3c-1-1.1-1.8-2.5-2.3-3.9
								c2.2,3.3,7.2,7.5,17.8,3.7c3.7-1.3,6.2,0,7.9,2.9C175,103.4,174.8,103.3,174.6,103.2z"/>
						</g>
						<g>
							<g>
								<g>
									<path class="st10" d="M158.9,117.1c-0.1,0-0.1,0-0.1-0.1c0-2.8,0.2-5.7,0.7-8.5c0-0.1,0.1-0.1,0.1-0.1
										c0.1,0,0.1,0.1,0.1,0.1c-0.5,2.8-0.7,5.6-0.7,8.4C159,117.1,159,117.1,158.9,117.1L158.9,117.1z"/>
								</g>
								<g>
									<path class="st17" d="M174.6,117.2c0,1.4-2.1,2.6-4.6,2.6c-2.5,0-4.6-1.2-4.6-2.6s2.1-2.6,4.6-2.6
										C172.5,114.6,174.6,115.7,174.6,117.2z"/>
									<g>
										<path class="st10" d="M168.3,113.1c-0.6-0.5-0.7-1.5-0.2-2.1c0.5-0.6,1.5-0.7,2.1-0.2c0.6,0.5,0.7,1.5,0.2,2.1
											C169.8,113.6,168.9,113.7,168.3,113.1z"/>
										<path class="st18" d="M171.6,109c-0.6-0.6-1.4-0.9-2.3-0.9c-0.6,0-1.2,0.2-1.8,0.3c-0.1,0-0.2,0-0.3-0.1
											c-0.1-0.1-0.1-0.2-0.1-0.2c-0.1-0.4-0.2-0.8-0.3-1.1c0.8-0.1,1.6-0.2,2.4,0C170.3,107.2,171.1,108.1,171.6,109z"/>
									</g>
									<path class="st5" d="M167.3,112.9c0.4,1.5,1.9,2.7,3.4,2.8"/>
									<path class="st5" d="M171.4,111.4c-0.3-1.1-1.4-1.9-2.5-1.9"/>
								</g>
								<g>
									<path class="st17" d="M143.1,117.2c0,1.4,2.1,2.6,4.6,2.6c2.5,0,4.6-1.2,4.6-2.6s-2.1-2.6-4.6-2.6
										C145.2,114.6,143.1,115.7,143.1,117.2z"/>
									<g>
										<path class="st10" d="M146.9,112c0,0.8,0.7,1.5,1.5,1.5c0.8,0,1.5-0.7,1.5-1.5c0-0.8-0.7-1.5-1.5-1.5
											C147.6,110.5,146.9,111.1,146.9,112z"/>
										<path class="st18" d="M146,109c0.6-0.6,1.4-0.9,2.3-0.9c0.6,0,1.2,0.2,1.8,0.3c0.1,0,0.2,0,0.3-0.1
											c0.1-0.1,0.1-0.2,0.1-0.2c0.1-0.4,0.2-0.8,0.3-1.1c-0.8-0.1-1.6-0.2-2.4,0C147.4,107.2,146.6,108.1,146,109z"/>
										<path class="st5" d="M150.3,112.9c-0.4,1.5-1.9,2.7-3.4,2.8"/>
										<path class="st5" d="M146.2,111.4c0.3-1.1,1.4-1.9,2.5-1.9"/>
									</g>
								</g>
							</g>
							<path class="st13" d="M171.9,120.6c0.6-2,2.1-3.7,4-4.7c0.1-0.5,0.2-1,0.3-1.5c-2.3,0.7-9.7,2.7-17.5,2.7
								c-7.8-0.1-15.2-2.1-17.3-2.7c0.1,0.5,0.2,1,0.3,1.5c1.9,1,3.4,2.7,4.1,4.8c0.5,1.8,0.4,3.7-0.3,5.4c2.8,4.8,7,8.6,13.6,8.5
								c6.4-0.1,10.6-3.7,13.3-8.5C171.5,124.3,171.4,122.4,171.9,120.6z"/>
							<g>
								<path class="st24" d="M177.8,107.1c-0.4-0.9-0.9-1.7-1.7-2.2c-0.7-0.4-1.5-0.6-2.3-0.7c-4.6-0.7-10.1-1.7-14.7-1.3
									c-4.6-0.4-9.4-0.1-14.3,1.5c-0.8,0.3-1.6,0.3-2.3,0.7c-0.8,0.5-1.3,1.4-1.7,2.2c-1.4,3.3-0.6,7.5,2,9.9
									c2.6,2.5,7,2.9,9.9,0.9c1.2-0.8,2.1-2,3.2-2.9c0.9-0.8,1.9-1.4,3-1.6c1.4-0.1,2.8,0.4,3.8,1.4c1.1,1,2,2.1,3.2,2.9
									c3,2,7.3,1.6,9.9-0.9C178.4,114.6,179.2,110.4,177.8,107.1z"/>
								<g class="st25">
									<g>
										<path class="st4" d="M144.7,104.3c4.9-1.6,9.7-1.9,14.3-1.5c4.6-0.4,10.2,0.6,14.7,1.3c0.8,0.1,1.6,0.3,2.3,0.7
											c0.6,0.4,1,0.9,1.3,1.5c0,0,0,0,0,0c-0.8-1.9-2.5-3.7-2.5-3.7c-18.2-4.6-29.4-0.4-30.2,0s-2.7,2.8-2.7,2.8s0,0,0,0
											c0.1-0.1,0.3-0.3,0.5-0.4C143.1,104.6,144,104.6,144.7,104.3z"/>
									</g>
								</g>
							</g>
							<g>
								<path class="st14" d="M158.6,118.4c0,0-0.9,6.6-0.9,7.2c0,0.6,2.3,7.9,2.3,7.9"/>
								<path class="st15" d="M168.3,125c0,1.5-1.2,2.7-2.7,2.7c-1.5,0-2.7-1.2-2.7-2.7c0-1.5,1.2-2.7,2.7-2.7
									C167.1,122.3,168.3,123.5,168.3,125z"/>
								<path class="st15" d="M163.4,123.7c0,0,2,0.7,4.6,0"/>
								<path class="st15" d="M163,125c0,0,2.7,0.7,5.3,0"/>
								<path class="st15" d="M163.5,126.4c0,0,1.8,0.7,4.4,0"/>
							</g>
						</g>
					</g>
				</g>
			</g>
			<g>
				<g>
					<path class="st6" d="M245.7,53.7c0,0,11.6-12.1,10.2-13.6c-1.1-1.1-13.5,10.7-13.5,10.7s12.2-16,10.1-17.5
						c-1.8-1.3-13.6,15.1-13.6,15.1s6.7-19.5,4.6-20.1c-2.3-0.7-6.6,16.6-8.5,19.4c-1.4,2-3.4,1.7-4.5,1.4c0,0-7.5-11.9-8.7-10.8
						s5.2,13.4,6.3,18.3s-1,7.8-1,7.8l13.8,4.9l7.7-13.3c0,0,8.6-7.3,8.5-8C256.8,45.7,245.7,53.7,245.7,53.7z"/>
					<g>
						<path class="st5" d="M231.6,50.2c3.4,2.7,5.3,7.3,4.6,11.7"/>
						<path class="st5" d="M237.2,47.2c3.2,2.2,6.3,4.6,9.3,7.1"/>
					</g>
				</g>
				<g>
					<path class="st6" d="M89.1,55.4c0,0-10.6-13-9-14.4c1.2-1,12.6,11.7,12.6,11.7S81.8,35.8,84,34.5c1.9-1.1,12.3,16.2,12.3,16.2
						s-5.1-19.9-2.9-20.4c2.3-0.5,5.2,17,6.9,20c1.2,2.1,3.3,2,4.4,1.8c0,0,8.5-11.2,9.6-10.1c1.1,1.1-6.3,13-7.8,17.7
						c-1.4,4.8,0.4,7.9,0.4,7.9l-14.1,3.7l-6.6-13.8c0,0-7.9-8-7.9-8.7C78.6,46.6,89.1,55.4,89.1,55.4z"/>
					<g>
						<path class="st26" d="M103.4,53.1c-3.6,2.4-5.8,6.9-5.6,11.2"/>
						<path class="st27" d="M98.1,49.6c-3.4,1.9-6.7,4-9.8,6.3"/>
					</g>
				</g>
				<g>
					<g>
						<path class="st4" d="M191.3,159l35.1-44.8l16-46.5l-15.7-5.2l-17.9,38.8l-38.7,44.7c-0.2,0.2-0.6,0.2-0.6-0.1l0.4-6.1
							c-2.6,0.9-6,1.9-8.8,2.3c-3.4,0.5-7.8,0.8-11.2,0.2l1.7,4.5c0.1,0.4,0,0.5-0.4,0.3l-14.1-4.2l-19.4-32.2l-10.9-45.5l-16.5,3.9
							l6.7,46.8l23.2,45.5c0,0,10.2,36.7,10.5,37.6c0.3,0.9-7.7,28.1-3.7,28.1l-9.8,105.8L90,428.1l20,8.6c0,0,34.8-95.1,35.1-97.9
							c0.3-2.8,21.5-72.7,21.5-72.7l-1.8,176.4h25.5c0,0,9.5-182.2,6.2-208.1c0,0,4.3,0.6,2.5-4.3c-1.8-4.9-10.8-42-10.5-43.9
							C188.8,184.3,191.3,159,191.3,159z"/>
						<g>
							<g>
								
									<rect x="231.6" y="61.1" transform="matrix(0.3099 -0.9508 0.9508 0.3099 94.4109 269.2785)" class="st28" width="2.2" height="17"/>
							</g>
							<g>
								
									<rect x="230" y="65" transform="matrix(0.4803 -0.8771 0.8771 0.4803 55.3371 241.0516)" class="st28" width="2.2" height="17.6"/>
							</g>
							<g>
								
									<rect x="90.7" y="70.3" transform="matrix(0.9682 -0.25 0.25 0.9682 -14.6907 27.1214)" class="st28" width="17.4" height="2.2"/>
							</g>
							<g>
								
									<rect x="91.5" y="75.2" transform="matrix(0.9874 -0.1582 0.1582 0.9874 -10.8021 16.8449)" class="st28" width="17.8" height="2.2"/>
							</g>
							<g>
								<path class="st28" d="M196.6,236.4c-51.6-0.8-69.3-5.4-70-5.6l0.2-2.1c0.2,0,18.6,4.8,69.8,5.5L196.6,236.4z"/>
							</g>
							<g>
								<path class="st28" d="M172.7,234.8l-2.2,0c0.8-62.1-6.8-92.8-6.9-93.1l2.1-0.5C165.9,141.4,173.6,172.4,172.7,234.8z"/>
							</g>
							<g>
								<path class="st28" d="M170.3,188.9c-36.9-0.3-44.4-7.9-44.8-8.3l-0.3-1.4l-0.1-0.2l-0.5-1.3c0.1,0.1,9.9,8.8,45.7,9.1
									L170.3,188.9z"/>
							</g>
							<g>
								<polygon class="st28" points="105.9,434.9 103.8,434.1 141.1,335.5 162.7,264 170.8,264 176.9,235.1 179,235.5 172.6,266.2 
									164.3,266.2 143.1,336.2 								"/>
							</g>
							<g>
								
									<rect x="80.2" y="352.8" transform="matrix(9.776604e-03 -1 1 9.776604e-03 -186.5247 519.3693)" class="st28" width="177.5" height="2.2"/>
							</g>
						</g>
					</g>
					<g>
						<path class="st5" d="M188.5,186.3c0,0,3-27.5,3.3-34.1"/>
						<path class="st5" d="M127.9,188.9c0,0-7.2-24.1-8.5-32.2"/>
						<line class="st5" x1="107.2" y1="367.5" x2="121" y2="319.2"/>
					</g>
				</g>
			</g>
		</g>
	</g>
</g>
</svg>
