<?xml version="1.0" encoding="utf-8"?>
<!-- Generator: Adobe Illustrator 24.0.2, SVG Export Plug-In . SVG Version: 6.00 Build 0)  -->
<svg version="1.1" xmlns="http://www.w3.org/2000/svg" xmlns:xlink="http://www.w3.org/1999/xlink" x="0px" y="0px"
	 viewBox="0 0 500 500" style="enable-background:new 0 0 500 500;" xml:space="preserve">
<g id="BACKGROUND">
	<rect style="fill:#FFFFFF;" width="500" height="500"/>
</g>
<g id="OBJECT">
	<g>
		<rect style="display:none;fill:#FCF3EB;" width="500" height="500"/>
		<rect style="display:none;fill:#E3FCFF;" width="500" height="386.31"/>
		<rect y="374.5" style="display:none;fill:#DDC6B6;" width="500" height="11.81"/>
		<g>
			<defs>
				<rect id="SVGID_1_" width="500" height="500"/>
			</defs>
			<clipPath id="SVGID_2_">
				<use xlink:href="#SVGID_1_"  style="overflow:visible;"/>
			</clipPath>
			<g style="clip-path:url(#SVGID_2_);">
				<g>
					<path style="fill:#F07171;" d="M502.82,48.41c0,0-7.71,47.77-78.44,63.27c-45.03,10.04-15.77,40.19-55.83,56.59
						c-40.06,16.41-86.78,39.99-75.13,96.12c11.65,56.13,65.45,22.45,70.82,80.17s115.42,15.62,138.66,102.37L502.82,48.41z"/>
					<path style="fill:#F07171;" d="M361.44,128.73c7.81-9.8,21.02,2.89,14.15,11.32C368.72,148.47,349.68,143.49,361.44,128.73z"/>
					<path style="fill:#F07171;" d="M418.87,102.31c6.27,4,13.86-4.48,10.99-8.07S412.54,98.28,418.87,102.31z"/>
					<path style="fill:#F07171;" d="M335.8,323.52c6.95-10.02,20.67,4.44,18.18,15.09S327.21,342.42,335.8,323.52z"/>
					<path style="fill:#F07171;" d="M458.48,406.91c3.1-5.38,16.16,6.57,12.35,11.35C467.02,423.05,452.64,417.07,458.48,406.91z"/>
				</g>
				<g style="display:none;">
					<polygon style="display:inline;fill:#D2E9F7;" points="227.08,75.54 214.19,275.72 -68.26,275.72 -71.47,231.18 -82.94,71.9 
						67.67,73.67 134.61,74.46 159.81,74.75 175.05,74.93 					"/>
					<g style="display:inline;">
						<defs>
							<polygon id="SVGID_3_" points="214.19,275.72 -68.26,275.72 -82.93,71.9 227.08,75.54 							"/>
						</defs>
						<clipPath id="SVGID_4_">
							<use xlink:href="#SVGID_3_"  style="overflow:visible;"/>
						</clipPath>
						<g style="opacity:0.6;clip-path:url(#SVGID_4_);">
							<g>
								<path style="fill:#BBBDBF;" d="M-21.51,306.55c0.16-1.42,9.37-127.13,9.37-127.13l26.66-0.97l12.15,158.41L-21.51,306.55z"
									/>
								<polygon style="fill:#BBBDBF;" points="35.68,109.13 22.7,319.68 68.91,342.78 84.34,338.66 63.39,106.23 								"/>
								<polygon style="fill:#BBBDBF;" points="3.3,181.51 3.3,175.99 9,174.92 9,180.62 								"/>
								<path style="fill:#BBBDBF;" d="M-65.2,281.22c0.16-1.42,9.55-126.13,9.55-126.13l26.48-1.96l12.15,158.41L-65.2,281.22z"/>
								<polygon style="fill:#BBBDBF;" points="-40.38,156.18 -40.38,150.66 -34.69,149.59 -34.69,155.29 								"/>
								<polygon style="fill:#BBBDBF;" points="87.65,124.71 87.46,343.62 140.8,337.13 121.61,126.69 								"/>
								<polygon style="fill:#BBBDBF;" points="132.96,147.43 140.07,313.69 173.91,300.03 157.71,147.43 								"/>
								<polygon style="fill:#BBBDBF;" points="38.74,109.21 38.74,97.99 49.44,109.95 								"/>
								<polygon style="fill:#BBBDBF;" points="101.19,133.8 100.53,126.62 105.64,129.31 105.98,136.66 								"/>
								<g>
									<polygon style="fill:#BBBDBF;" points="167.68,141.8 172.9,282.55 209.34,282.21 196.53,140.57 									"/>
									<path style="fill:#BBBDBF;" d="M186.02,143.12l-0.51-6.72l6.32-0.2c0,0,1.57,8.13,0.89,7.85
										C192.04,143.78,186.02,143.12,186.02,143.12z"/>
								</g>
							</g>
							<g>
								<polygon style="fill:#929497;" points="-42.44,277.76 -40.28,221.73 -3.58,220.63 1.08,314.89 -39.86,291.94 								"/>
								<path style="fill:#929497;" d="M7.49,275.6c-0.02-1.42,0.35-72.34,0.35-72.34l37.85-1.04l5.28,93.01L9.53,281.86L7.49,275.6
									z"/>
								<path style="fill:#929497;" d="M56.78,192.92c0.14,0,2.14,143.68,2,143.68h39.7l-6.96-145.2L56.78,192.92z"/>
								<path style="fill:#929497;" d="M38.4,280.17h26l3.31,66.27c0,0-23.38-2.38-23.45-5.12C44.19,338.58,38.4,280.17,38.4,280.17
									z"/>
								<path style="fill:#929497;" d="M121.06,322.2c-1-5.34-6-95.8-6-95.8l28.52-1.89l7.7,79.44L121.06,322.2z"/>
								<polygon style="fill:#929497;" points="103.28,331.21 102.03,260.33 119.7,258.47 125.65,321.04 								"/>
								<polygon style="fill:#929497;" points="150.28,294.8 146.54,206.78 168.1,206.84 171.98,277.49 								"/>
								<polygon style="fill:#929497;" points="168.71,278.32 164.97,190.3 186.57,189.74 189.42,279.95 								"/>
							</g>
						</g>
					</g>
					<path style="display:inline;fill:#C6AA97;" d="M-82.93,71.9l310.01,3.64l-12.89,200.18H-68.26L-82.93,71.9 M-93.69,61.77
						l0.78,10.84l14.67,203.82l0.67,9.28h9.31h282.45h9.38l0.6-9.36l12.89-200.18l0.68-10.52l-10.54-0.12L-82.82,61.9L-93.69,61.77
						L-93.69,61.77z"/>
					<polygon style="display:inline;fill:#CCF2ED;" points="134.61,74.46 -8.86,275.72 -68.26,275.72 -71.47,231.18 67.67,73.67 
											"/>
					<polygon style="display:inline;fill:#CCF2ED;" points="175.05,74.93 62.38,275.72 32.32,275.72 159.81,74.75 					"/>
				</g>
				<g>
					<g>
						<g>
							<g>
								<path style="fill:#E84F4F;" d="M506.36,104.99c-5.53-8.61-16.47-3.07-19.29,6.39c-2.47,8.27,0.78,17.16,11.97,16.37
									C510.24,126.96,511.89,113.6,506.36,104.99z M496.16,125.01c-8.83-1.55-9.64-9.06-6.13-15c4.01-6.79,13.57-8.98,16.19-1.24
									C508.85,116.51,504.99,126.55,496.16,125.01z"/>
							</g>
							<path style="fill:#E84F4F;" d="M497.46,102.1c-0.25-1.4,0.44-3.66,0.36-5.09c0.44,1.49,0.66,3.75,1.1,5.24"/>
							<path style="fill:#E84F4F;" d="M490.7,106.21c-1.48-0.82-2.95-1.64-4.43-2.46c0.87,1.61,1.91,3.13,3.09,4.54"/>
							<path style="fill:#E84F4F;" d="M507.04,106.97c0.93-0.08,1.84-0.38,2.64-0.88c-0.48,1.02-1.14,1.96-1.95,2.75"/>
							<path style="fill:#E84F4F;" d="M508.61,115.28c0.76,0.36,1.56,0.63,2.38,0.83c-0.85,0.13-1.71,0.27-2.56,0.4"/>
							<path style="fill:#E84F4F;" d="M497.91,126.59c0.35,1.27,0.69,2.53,1.04,3.8c0.02-0.99,0.04-1.98,0.05-2.97"/>
							<path style="fill:#E84F4F;" d="M490.75,124.17c-0.08,1-0.31,1.98-0.67,2.92c0.6-0.45,1.25-0.83,1.93-1.15"/>
							<path style="fill:#E84F4F;" d="M486.3,116.23c-1.65,0.84-3.24,1.82-4.76,2.89c1.85-0.29,3.71-0.59,5.57-0.92"/>
							<path style="fill:#E84F4F;" d="M502.9,102.32c0.52-0.46,1.11-0.85,1.74-1.13c-0.16,1.04-0.17,2.11-0.03,3.16"/>
							<path style="fill:#E84F4F;" d="M506.97,122.33c0.15,0.87,0.31,1.74,0.46,2.61c-0.86-0.38-1.8-0.6-2.74-0.65"/>
							<path style="fill:#E84F4F;" d="M487.33,110.88c-0.23-0.35-0.45-0.7-0.68-1.05c0.44-0.08,0.87-0.16,1.31-0.23"/>
							<path style="fill:#E84F4F;" d="M493.48,104c0.02-1.01,0.1-2.01,0.23-3.01c0.82,0.35,1.6,0.79,2.33,1.31"/>
							<path style="fill:#E84F4F;" d="M487.71,121.34c-0.5,0.77-1.01,1.53-1.51,2.3c0.91-0.07,1.78-0.49,2.4-1.16"/>
							<path style="fill:#E84F4F;" d="M507.83,119.14c1.14,0.39,3.42,1.16,3.42,1.16s-2.11-0.03-3.06,0.41"/>
							<path style="fill:#E84F4F;" d="M508.42,110.82c1.87,0.17,3.74,0.33,5.61,0.5c-1.89,0.63-3.78,1.27-5.67,1.9"/>
							<path style="fill:#E84F4F;" d="M494.03,126.9c0.48,0.49,0.95,0.98,1.43,1.47c0.54-0.44,1.15-0.8,1.79-1.07"/>
							<path style="fill:#E84F4F;" d="M501.39,127c1.02,0.98,2.86,4,2.86,4s-0.74-3.68-0.44-5.13"/>
							<path style="fill:#E84F4F;" d="M486.88,113.08c-0.61-0.04-1.23-0.08-1.84-0.11c0.7,0.63,1.49,1.14,2.35,1.52"/>
							<path style="fill:#E84F4F;" d="M486.16,103.38c0.77-0.98,1.96-0.02,0.6,1.36C485.39,106.12,485.57,104.13,486.16,103.38z"/>
							<path style="fill:#E84F4F;" d="M514.82,111.69c0.12,1.44-1.64,1.58-1.58-0.67C513.3,108.77,514.73,110.6,514.82,111.69z"/>
							<path style="fill:#E84F4F;" d="M498.33,97.08c0.82,0.28,0.47,1.29-0.75,0.71C496.36,97.2,497.71,96.86,498.33,97.08z"/>
							<path style="fill:#E84F4F;" d="M511.46,120.76c-0.25,0.83-1.27,0.52-0.74-0.73C511.26,118.79,511.65,120.13,511.46,120.76z"
								/>
							<path style="fill:#E84F4F;" d="M499.25,129.88c0.82,0.28,0.47,1.29-0.75,0.71C497.27,130.01,498.63,129.67,499.25,129.88z"/>
							<path style="fill:#E84F4F;" d="M510.11,106.24c0.5,0.71-0.37,1.32-1.02,0.13C508.43,105.18,509.73,105.7,510.11,106.24z"/>
							<path style="fill:#E84F4F;" d="M486.68,123.42c0.5,0.71-0.37,1.32-1.02,0.13C485,122.37,486.3,122.88,486.68,123.42z"/>
							<path style="fill:#E84F4F;" d="M504.22,131.36c-1.36,0.49-1.94-1.19,0.25-1.7C506.66,129.15,505.25,131,504.22,131.36z"/>
							<path style="fill:#E84F4F;" d="M482.6,119.38c0.1,1.2-1.37,1.32-1.32-0.56C481.33,116.94,482.52,118.47,482.6,119.38z"/>
							<path style="fill:#E84F4F;" d="M495.49,106.19c1.76-1.63,4.7-1.35,4.39,0.56C499.56,108.66,493.26,108.26,495.49,106.19z"/>
							<path style="fill:#E84F4F;" d="M492.38,108.6c0.52-0.88,1.74-0.77,1.43,0.35C493.5,110.08,491.17,110.66,492.38,108.6z"/>
							<path style="fill:#E84F4F;" d="M495.06,108.8c0.36-0.48,1.48-0.56,1.26,0.14C496.09,109.64,494.03,110.17,495.06,108.8z"/>
							<path style="fill:#E84F4F;" d="M498.32,121.66c1.18-0.85,3.37,0.17,1.57,0.89C498.09,123.26,496.86,122.71,498.32,121.66z"/>
						</g>
						<g>
							<g>
								<path style="fill:#E84F4F;" d="M471.34,239.55c-3.52-7.25-12.61-3.94-15.7,3.2c-2.7,6.25-0.99,13.5,7.85,13.93
									C472.33,257.11,474.86,246.81,471.34,239.55z M461.49,254.27c-6.77-2.03-6.7-7.99-3.4-12.31
									c3.77-4.94,11.46-5.76,12.79,0.54S468.26,256.3,461.49,254.27z"/>
							</g>
							<path style="fill:#E84F4F;" d="M464.64,236.46c-0.06-1.12,0.69-2.83,0.76-3.95c0.2,1.21,0.17,3,0.37,4.21"/>
							<path style="fill:#E84F4F;" d="M458.96,239.05c-1.08-0.78-2.16-1.56-3.24-2.34c0.53,1.34,1.2,2.63,1.99,3.84"/>
							<path style="fill:#E84F4F;" d="M471.69,241.16c0.74,0.02,1.48-0.13,2.15-0.44c-0.47,0.75-1.08,1.42-1.78,1.97"/>
							<path style="fill:#E84F4F;" d="M472.14,247.82c0.56,0.35,1.16,0.64,1.79,0.87c-0.68,0.02-1.36,0.05-2.04,0.07"/>
							<path style="fill:#E84F4F;" d="M462.71,255.67c0.15,1.02,0.31,2.05,0.46,3.07c0.11-0.77,0.21-1.55,0.32-2.32"/>
							<path style="fill:#E84F4F;" d="M457.33,253.11c-0.16,0.77-0.42,1.52-0.8,2.22c0.51-0.29,1.06-0.54,1.62-0.72"/>
							<path style="fill:#E84F4F;" d="M454.58,246.48c-1.37,0.51-2.71,1.12-3.99,1.82c1.48-0.05,2.96-0.12,4.44-0.2"/>
							<path style="fill:#E84F4F;" d="M468.87,237.14c0.45-0.31,0.95-0.56,1.47-0.72c-0.22,0.8-0.33,1.64-0.32,2.47"/>
							<path style="fill:#E84F4F;" d="M470.2,253.18c0.04,0.7,0.08,1.39,0.12,2.09c-0.64-0.38-1.35-0.64-2.08-0.76"/>
							<path style="fill:#E84F4F;" d="M455.89,242.39c-0.14-0.3-0.29-0.59-0.43-0.89c0.35-0.02,0.7-0.04,1.04-0.06"/>
							<path style="fill:#E84F4F;" d="M461.34,237.58c0.11-0.78,0.26-1.56,0.46-2.33c0.61,0.35,1.18,0.77,1.7,1.24"/>
							<path style="fill:#E84F4F;" d="M455.21,250.61c-0.47,0.55-0.93,1.11-1.4,1.66c0.72,0.03,1.44-0.22,1.98-0.69"/>
							<path style="fill:#E84F4F;" d="M471.17,250.76c0.86,0.41,2.57,1.23,2.57,1.23s-1.65-0.22-2.43,0.04"/>
							<path style="fill:#E84F4F;" d="M472.41,244.3c1.45,0.31,2.9,0.61,4.34,0.91c-1.54,0.32-3.08,0.64-4.62,0.96"/>
							<path style="fill:#E84F4F;" d="M459.65,255.56c0.33,0.43,0.66,0.86,0.98,1.28c0.46-0.3,0.97-0.52,1.5-0.67"/>
							<path style="fill:#E84F4F;" d="M465.39,256.32c0.71,0.86,1.87,3.39,1.87,3.39s-0.24-2.95,0.13-4.05"/>
							<path style="fill:#E84F4F;" d="M455.33,244.07c-0.48-0.09-0.95-0.17-1.43-0.26c0.49,0.55,1.06,1.03,1.7,1.41"/>
							<path style="fill:#E84F4F;" d="M455.67,236.41c0.69-0.69,1.54,0.16,0.34,1.12C454.81,238.48,455.14,236.94,455.67,236.41z"/>
							<path style="fill:#E84F4F;" d="M477.34,245.58c-0.04,1.14-1.43,1.08-1.18-0.67C476.42,243.16,477.37,244.72,477.34,245.58z"
								/>
							<path style="fill:#E84F4F;" d="M465.79,232.61c0.62,0.3,0.25,1.05-0.66,0.48C464.23,232.52,465.32,232.38,465.79,232.61z"/>
							<path style="fill:#E84F4F;" d="M473.86,252.37c-0.27,0.63-1.04,0.29-0.51-0.64C473.89,250.81,474.07,251.9,473.86,252.37z"/>
							<path style="fill:#E84F4F;" d="M463.45,258.38c0.62,0.3,0.25,1.05-0.66,0.48C461.89,258.29,462.98,258.15,463.45,258.38z"/>
							<path style="fill:#E84F4F;" d="M474.15,240.88c0.33,0.6-0.41,1-0.81,0.01C472.94,239.9,473.91,240.42,474.15,240.88z"/>
							<path style="fill:#E84F4F;" d="M454.21,252.15c0.33,0.6-0.41,1-0.81,0.01C453,251.17,453.97,251.69,454.21,252.15z"/>
							<path style="fill:#E84F4F;" d="M467.21,260c-1.11,0.25-1.41-1.11,0.35-1.31C469.32,258.49,468.05,259.81,467.21,260z"/>
							<path style="fill:#E84F4F;" d="M451.4,248.61c-0.03,0.95-1.2,0.91-0.98-0.56C450.63,246.57,451.42,247.88,451.4,248.61z"/>
							<path style="fill:#E84F4F;" d="M462.71,239.47c1.53-1.11,3.8-0.62,3.38,0.85C465.67,241.79,460.78,240.89,462.71,239.47z"/>
							<path style="fill:#E84F4F;" d="M460.05,241.07c0.49-0.64,1.43-0.44,1.08,0.41C460.79,242.33,458.92,242.57,460.05,241.07z"/>
							<path style="fill:#E84F4F;" d="M462.13,241.48c0.33-0.34,1.21-0.3,0.97,0.22C462.86,242.24,461.2,242.46,462.13,241.48z"/>
							<path style="fill:#E84F4F;" d="M463.49,251.85c1.01-0.56,2.62,0.45,1.14,0.84C463.16,253.08,462.25,252.54,463.49,251.85z"/>
						</g>
						<g>
							<g>
								<path style="fill:#E84F4F;" d="M498.78,374.93c-4.17-8.58-14.92-4.66-18.58,3.79c-3.2,7.39-1.17,15.98,9.29,16.48
									C499.95,395.71,502.95,383.52,498.78,374.93z M487.12,392.35c-8.01-2.41-7.93-9.46-4.03-14.57
									c4.46-5.85,13.56-6.82,15.14,0.64C499.81,385.88,495.13,394.76,487.12,392.35z"/>
							</g>
							<path style="fill:#E84F4F;" d="M490.85,371.27c-0.08-1.33,0.81-3.35,0.9-4.67c0.24,1.43,0.2,3.55,0.44,4.98"/>
							<path style="fill:#E84F4F;" d="M484.13,374.34c-1.28-0.92-2.55-1.85-3.83-2.77c0.63,1.59,1.42,3.11,2.36,4.54"/>
							<path style="fill:#E84F4F;" d="M499.19,376.84c0.87,0.03,1.75-0.15,2.54-0.52c-0.56,0.89-1.27,1.69-2.11,2.33"/>
							<path style="fill:#E84F4F;" d="M499.73,384.72c0.67,0.41,1.38,0.76,2.12,1.03c-0.81,0.03-1.61,0.06-2.42,0.09"/>
							<path style="fill:#E84F4F;" d="M488.57,394.01c0.18,1.21,0.36,2.42,0.54,3.63c0.13-0.91,0.25-1.83,0.38-2.74"/>
							<path style="fill:#E84F4F;" d="M482.2,390.98c-0.18,0.92-0.5,1.8-0.94,2.63c0.61-0.35,1.25-0.63,1.92-0.85"/>
							<path style="fill:#E84F4F;" d="M478.95,383.13c-1.62,0.6-3.21,1.32-4.73,2.15c1.75-0.06,3.5-0.14,5.26-0.24"/>
							<path style="fill:#E84F4F;" d="M495.86,372.07c0.53-0.37,1.12-0.66,1.74-0.86c-0.26,0.95-0.39,1.94-0.37,2.92"/>
							<path style="fill:#E84F4F;" d="M497.43,391.06c0.05,0.82,0.09,1.65,0.14,2.47c-0.76-0.45-1.6-0.75-2.47-0.9"/>
							<path style="fill:#E84F4F;" d="M480.5,378.29c-0.17-0.35-0.34-0.7-0.51-1.05c0.41-0.02,0.82-0.05,1.24-0.07"/>
							<path style="fill:#E84F4F;" d="M486.95,372.6c0.13-0.93,0.31-1.85,0.55-2.76c0.72,0.42,1.4,0.91,2.01,1.47"/>
							<path style="fill:#E84F4F;" d="M479.7,388.02c-0.55,0.66-1.1,1.31-1.65,1.97c0.85,0.03,1.7-0.26,2.35-0.81"/>
							<path style="fill:#E84F4F;" d="M498.58,388.2c1.01,0.49,3.04,1.46,3.04,1.46s-1.95-0.26-2.88,0.05"/>
							<path style="fill:#E84F4F;" d="M500.04,380.55c1.71,0.36,3.43,0.72,5.14,1.08c-1.82,0.38-3.64,0.76-5.46,1.14"/>
							<path style="fill:#E84F4F;" d="M484.94,393.87c0.39,0.51,0.78,1.01,1.16,1.52c0.55-0.35,1.15-0.62,1.78-0.8"/>
							<path style="fill:#E84F4F;" d="M491.74,394.78c0.84,1.02,2.21,4.02,2.21,4.02s-0.28-3.49,0.16-4.8"/>
							<path style="fill:#E84F4F;" d="M479.83,380.28c-0.56-0.1-1.13-0.2-1.69-0.31c0.58,0.66,1.26,1.22,2.01,1.67"/>
							<path style="fill:#E84F4F;" d="M480.23,371.21c0.82-0.82,1.82,0.19,0.41,1.32C479.22,373.67,479.61,371.84,480.23,371.21z"/>
							<path style="fill:#E84F4F;" d="M505.88,382.07c-0.04,1.34-1.69,1.28-1.39-0.8C504.79,379.2,505.91,381.05,505.88,382.07z"/>
							<path style="fill:#E84F4F;" d="M492.21,366.71c0.73,0.35,0.29,1.24-0.78,0.57C490.37,366.61,491.66,366.45,492.21,366.71z"/>
							<path style="fill:#E84F4F;" d="M501.77,390.1c-0.32,0.74-1.23,0.34-0.6-0.75C501.79,388.25,502.01,389.54,501.77,390.1z"/>
							<path style="fill:#E84F4F;" d="M489.44,397.21c0.73,0.35,0.29,1.24-0.78,0.57C487.6,397.11,488.89,396.94,489.44,397.21z"/>
							<path style="fill:#E84F4F;" d="M502.11,376.5c0.39,0.71-0.49,1.18-0.96,0.01C500.67,375.34,501.82,375.96,502.11,376.5z"/>
							<path style="fill:#E84F4F;" d="M478.51,389.84c0.39,0.71-0.49,1.18-0.96,0.01C477.07,388.68,478.22,389.3,478.51,389.84z"/>
							<path style="fill:#E84F4F;" d="M493.89,399.13c-1.31,0.3-1.67-1.31,0.42-1.55C496.39,397.35,494.88,398.9,493.89,399.13z"/>
							<path style="fill:#E84F4F;" d="M475.18,385.65c-0.04,1.13-1.42,1.07-1.16-0.67C474.27,383.24,475.2,384.79,475.18,385.65z"/>
							<path style="fill:#E84F4F;" d="M488.57,374.84c1.81-1.32,4.5-0.74,4,1C492.07,377.58,486.28,376.51,488.57,374.84z"/>
							<path style="fill:#E84F4F;" d="M485.42,376.73c0.57-0.76,1.69-0.52,1.28,0.49C486.3,378.22,484.08,378.51,485.42,376.73z"/>
							<path style="fill:#E84F4F;" d="M487.88,377.22c0.39-0.41,1.43-0.36,1.15,0.27C488.75,378.11,486.78,378.37,487.88,377.22z"/>
							<path style="fill:#E84F4F;" d="M489.49,389.48c1.19-0.66,3.1,0.53,1.35,1C489.1,390.94,488.02,390.3,489.49,389.48z"/>
						</g>
						<g>
							<g>
								<path style="fill:#E84F4F;" d="M409.72,163.04c-5.29-2.93-9.44,3.02-8.26,8.74c1.04,5,5.22,8.72,10.83,5.17
									C417.9,173.39,415.02,165.97,409.72,163.04z M410.02,176.32c-5.03,1.67-7.56-2.01-7.4-6.09c0.18-4.66,4.55-8.48,8.09-5.19
									C414.25,168.34,415.06,174.65,410.02,176.32z"/>
							</g>
							<path style="fill:#E84F4F;" d="M404.27,164.02c-0.52-0.66-0.8-2.03-1.24-2.75c0.65,0.66,1.4,1.77,2.04,2.42"/>
							<path style="fill:#E84F4F;" d="M401.91,168.07c-1-0.01-2-0.03-3-0.04c0.91,0.6,1.87,1.1,2.88,1.5"/>
							<path style="fill:#E84F4F;" d="M410.63,163.87c0.46-0.3,0.85-0.72,1.13-1.2c0.04,0.67-0.05,1.34-0.24,1.98"/>
							<path style="fill:#E84F4F;" d="M413.78,167.76c0.5-0.03,0.99-0.11,1.47-0.24c-0.41,0.31-0.82,0.62-1.22,0.93"/>
							<path style="fill:#E84F4F;" d="M411.38,176.65c0.54,0.56,1.07,1.12,1.61,1.69c-0.27-0.52-0.54-1.04-0.8-1.56"/>
							<path style="fill:#E84F4F;" d="M406.97,177.41c0.24,0.54,0.4,1.12,0.47,1.71c0.19-0.4,0.42-0.79,0.68-1.14"/>
							<path style="fill:#E84F4F;" d="M402.42,174.52c-0.62,0.9-1.18,1.86-1.67,2.84c0.88-0.67,1.76-1.35,2.64-2.04"/>
							<path style="fill:#E84F4F;" d="M407.17,162.62c0.14-0.39,0.34-0.75,0.59-1.08c0.21,0.59,0.5,1.15,0.87,1.65"/>
							<path style="fill:#E84F4F;" d="M414.9,171.9c0.32,0.41,0.65,0.82,0.97,1.23c-0.56,0.05-1.1,0.19-1.61,0.43"/>
							<path style="fill:#E84F4F;" d="M401.46,171.44c-0.22-0.12-0.43-0.24-0.65-0.36c0.2-0.16,0.41-0.33,0.61-0.49"/>
							<path style="fill:#E84F4F;" d="M402.73,166.13c-0.27-0.53-0.51-1.07-0.72-1.63c0.53-0.05,1.06-0.04,1.58,0.03"/>
							<path style="fill:#E84F4F;" d="M404.59,176.78c-0.05,0.54-0.09,1.08-0.14,1.62c0.45-0.29,0.79-0.76,0.92-1.28"/>
							<path style="fill:#E84F4F;" d="M414.46,169.99c0.7-0.12,2.11-0.35,2.11-0.35s-1.11,0.58-1.48,1.07"/>
							<path style="fill:#E84F4F;" d="M412.43,165.49c1.02-0.44,2.04-0.87,3.06-1.31c-0.81,0.86-1.61,1.72-2.42,2.58"/>
							<path style="fill:#E84F4F;" d="M409.45,177.91c0.39,0.12,0.77,0.24,1.16,0.36c0.16-0.38,0.37-0.74,0.63-1.06"/>
							<path style="fill:#E84F4F;" d="M413.31,175.9c0.81,0.23,2.61,1.28,2.61,1.28s-1.42-1.71-1.67-2.55"/>
							<path style="fill:#E84F4F;" d="M401.84,172.71c-0.33,0.15-0.66,0.3-0.99,0.46c0.54,0.13,1.1,0.18,1.65,0.13"/>
							<path style="fill:#E84F4F;" d="M398.75,167.87c0.13-0.72,1.02-0.56,0.69,0.54C399.12,169.51,398.65,168.42,398.75,167.87z"/>
							<path style="fill:#E84F4F;" d="M416.01,164.15c0.47,0.71-0.41,1.28-1.01,0.09C414.4,163.06,415.65,163.61,416.01,164.15z"/>
							<path style="fill:#E84F4F;" d="M403.32,161.16c0.51-0.08,0.6,0.54-0.19,0.58C402.33,161.78,402.94,161.23,403.32,161.16z"/>
							<path style="fill:#E84F4F;" d="M416.8,169.82c0.1,0.5-0.51,0.63-0.59-0.17C416.14,168.85,416.72,169.43,416.8,169.82z"/>
							<path style="fill:#E84F4F;" d="M413,178c0.51-0.08,0.6,0.54-0.19,0.58C412.01,178.62,412.62,178.06,413,178z"/>
							<path style="fill:#E84F4F;" d="M412.02,162.63c0.46,0.23,0.18,0.79-0.5,0.36C410.85,162.56,411.67,162.46,412.02,162.63z"/>
							<path style="fill:#E84F4F;" d="M404.64,178.16c0.46,0.23,0.18,0.79-0.5,0.36C403.47,178.08,404.29,177.98,404.64,178.16z"/>
							<path style="fill:#E84F4F;" d="M416.01,177.37c-0.57,0.63-1.34-0.07-0.35-0.95C416.66,175.53,416.44,176.89,416.01,177.37z"
								/>
							<path style="fill:#E84F4F;" d="M401.38,177.2c0.39,0.6-0.34,1.07-0.85,0.08C400.03,176.28,401.09,176.74,401.38,177.2z"/>
							<path style="fill:#E84F4F;" d="M404.39,166.71c0.46-1.34,2.07-2.02,2.44-0.94C407.21,166.85,403.81,168.41,404.39,166.71z"/>
							<path style="fill:#E84F4F;" d="M403.45,168.84c0.02-0.6,0.69-0.89,0.84-0.22C404.45,169.29,403.4,170.25,403.45,168.84z"/>
							<path style="fill:#E84F4F;" d="M404.9,168.19c0.05-0.35,0.61-0.71,0.69-0.28C405.68,168.34,404.75,169.19,404.9,168.19z"/>
							<path style="fill:#E84F4F;" d="M410.21,173.97c0.38-0.78,1.8-0.85,1.06,0.02C410.54,174.87,409.74,174.93,410.21,173.97z"/>
						</g>
						<g>
							<g>
								<path style="fill:#E84F4F;" d="M400.47,326.98c-4.71-2.61-8.4,2.69-7.34,7.77c0.92,4.45,4.64,7.75,9.63,4.59
									C407.74,336.19,405.17,329.59,400.47,326.98z M400.73,338.8c-4.48,1.49-6.73-1.79-6.58-5.42c0.16-4.15,4.04-7.54,7.19-4.61
									C404.49,331.7,405.21,337.31,400.73,338.8z"/>
							</g>
							<path style="fill:#E84F4F;" d="M395.62,327.86c-0.47-0.59-0.71-1.81-1.1-2.45c0.57,0.58,1.24,1.57,1.82,2.15"/>
							<path style="fill:#E84F4F;" d="M393.51,331.46c-0.89-0.01-1.78-0.02-2.67-0.04c0.81,0.53,1.67,0.98,2.56,1.33"/>
							<path style="fill:#E84F4F;" d="M401.28,327.73c0.41-0.27,0.76-0.64,1-1.06c0.03,0.59-0.04,1.19-0.22,1.76"/>
							<path style="fill:#E84F4F;" d="M404.08,331.19c0.44-0.03,0.88-0.1,1.31-0.21c-0.36,0.27-0.73,0.55-1.09,0.82"/>
							<path style="fill:#E84F4F;" d="M401.94,339.1c0.48,0.5,0.95,1,1.43,1.5c-0.24-0.46-0.48-0.93-0.72-1.39"/>
							<path style="fill:#E84F4F;" d="M398.02,339.77c0.21,0.48,0.35,1,0.42,1.52c0.17-0.36,0.37-0.7,0.61-1.02"/>
							<path style="fill:#E84F4F;" d="M393.97,337.2c-0.55,0.8-1.05,1.65-1.48,2.53c0.79-0.6,1.57-1.2,2.35-1.81"/>
							<path style="fill:#E84F4F;" d="M398.19,326.61c0.12-0.34,0.3-0.67,0.52-0.96c0.19,0.52,0.45,1.02,0.77,1.47"/>
							<path style="fill:#E84F4F;" d="M405.07,334.87c0.29,0.36,0.58,0.73,0.86,1.09c-0.49,0.04-0.98,0.17-1.43,0.38"/>
							<path style="fill:#E84F4F;" d="M393.12,334.46c-0.19-0.11-0.38-0.21-0.58-0.32c0.18-0.14,0.36-0.29,0.55-0.43"/>
							<path style="fill:#E84F4F;" d="M394.25,329.74c-0.24-0.47-0.46-0.96-0.64-1.45c0.47-0.04,0.94-0.03,1.41,0.03"/>
							<path style="fill:#E84F4F;" d="M395.91,339.21c-0.04,0.48-0.08,0.96-0.13,1.44c0.4-0.26,0.7-0.67,0.82-1.14"/>
							<path style="fill:#E84F4F;" d="M404.68,333.17c0.62-0.1,1.87-0.31,1.87-0.31s-0.98,0.51-1.31,0.95"/>
							<path style="fill:#E84F4F;" d="M402.87,329.17c0.91-0.39,1.82-0.78,2.72-1.17c-0.72,0.77-1.44,1.53-2.15,2.3"/>
							<path style="fill:#E84F4F;" d="M400.22,340.21c0.34,0.11,0.69,0.22,1.03,0.32c0.14-0.34,0.33-0.66,0.56-0.94"/>
							<path style="fill:#E84F4F;" d="M403.66,338.42c0.72,0.2,2.32,1.14,2.32,1.14s-1.26-1.52-1.48-2.27"/>
							<path style="fill:#E84F4F;" d="M393.46,335.59c-0.29,0.14-0.59,0.27-0.88,0.41c0.48,0.12,0.98,0.16,1.47,0.12"/>
							<path style="fill:#E84F4F;" d="M390.7,331.28c0.11-0.64,0.9-0.5,0.62,0.48C391.03,332.74,390.62,331.77,390.7,331.28z"/>
							<path style="fill:#E84F4F;" d="M406.06,327.97c0.42,0.63-0.37,1.14-0.9,0.08C404.62,327,405.74,327.49,406.06,327.97z"/>
							<path style="fill:#E84F4F;" d="M394.77,325.32c0.45-0.07,0.54,0.48-0.17,0.52C393.89,325.87,394.43,325.38,394.77,325.32z"/>
							<path style="fill:#E84F4F;" d="M406.76,333.01c0.09,0.45-0.46,0.56-0.52-0.15C406.18,332.15,406.69,332.68,406.76,333.01z"/>
							<path style="fill:#E84F4F;" d="M403.38,340.29c0.45-0.07,0.54,0.48-0.17,0.52C402.5,340.84,403.04,340.35,403.38,340.29z"/>
							<path style="fill:#E84F4F;" d="M402.51,326.63c0.41,0.2,0.16,0.7-0.44,0.32S402.2,326.47,402.51,326.63z"/>
							<path style="fill:#E84F4F;" d="M395.95,340.43c0.41,0.2,0.16,0.7-0.44,0.32C394.91,340.36,395.64,340.28,395.95,340.43z"/>
							<path style="fill:#E84F4F;" d="M406.06,339.73c-0.51,0.56-1.2-0.06-0.31-0.85C406.63,338.1,406.44,339.31,406.06,339.73z"/>
							<path style="fill:#E84F4F;" d="M393.05,339.58c0.35,0.53-0.31,0.95-0.75,0.07S392.79,339.18,393.05,339.58z"/>
							<path style="fill:#E84F4F;" d="M395.73,330.25c0.41-1.19,1.84-1.8,2.17-0.83C398.23,330.38,395.21,331.77,395.73,330.25z"/>
							<path style="fill:#E84F4F;" d="M394.89,332.14c0.02-0.54,0.61-0.79,0.75-0.19C395.77,332.55,394.84,333.4,394.89,332.14z"/>
							<path style="fill:#E84F4F;" d="M396.18,331.57c0.05-0.31,0.54-0.63,0.62-0.25C396.87,331.7,396.05,332.46,396.18,331.57z"/>
							<path style="fill:#E84F4F;" d="M400.9,336.71c0.34-0.69,1.6-0.76,0.95,0.02C401.19,337.51,400.48,337.57,400.9,336.71z"/>
						</g>
					</g>
					<g>
						<g>
							<path style="fill:#D64343;" d="M412.6,208c-26.69-30.86-66.78-2.81-72.56,36.14c-5.05,34.06,12.78,67.3,56.54,57.84
								C440.34,292.54,439.29,238.86,412.6,208z"/>
							<path style="fill:#ED5454;" d="M383.65,292.81c-35.76-1.1-43.18-30.31-32.7-55.75c11.99-29.09,48.48-43.12,63.24-14.05
								C428.94,252.08,419.4,293.91,383.65,292.81z"/>
							<path style="fill:#D64343;" d="M375.81,201.6c-1.78-5.4-0.33-14.72-1.45-20.29c2.57,5.65,4.74,14.44,7.31,20.08"/>
							<path style="fill:#D64343;" d="M351.44,221.7c-6.29-2.41-12.58-4.82-18.88-7.23c4.35,5.87,9.3,11.3,14.75,16.16"/>
							<path style="fill:#D64343;" d="M416.42,215.42c3.63-0.85,7.06-2.56,9.93-4.95c-1.32,4.3-3.4,8.37-6.13,11.95"/>
							<path style="fill:#D64343;" d="M427.32,247.36c3.22,0.98,6.53,1.62,9.88,1.92c-3.3,1.01-6.6,2.02-9.9,3.03"/>
							<path style="fill:#D64343;" d="M391.47,298.04c2.08,4.8,4.17,9.61,6.25,14.41c-0.49-3.92-0.98-7.83-1.47-11.75"/>
							<path style="fill:#D64343;" d="M361.81,292.57c0.25,3.98-0.09,8-1,11.89c2.13-2.1,4.47-4,6.98-5.64"/>
							<path style="fill:#D64343;" d="M339.73,263.74c-6.02,4.27-11.78,9-17.15,14.11c7.15-2.18,14.3-4.44,21.46-6.77"/>
							<path style="fill:#D64343;" d="M397.4,199.41c1.79-2.12,3.9-3.97,6.24-5.46c-0.04,4.21,0.53,8.43,1.67,12.48"/>
							<path style="fill:#D64343;" d="M424.8,276.11c1.1,3.35,2.2,6.69,3.3,10.04c-3.63-1.01-7.43-1.35-11.18-1"/>
							<path style="fill:#D64343;" d="M340.8,242c-1.09-1.26-2.18-2.52-3.27-3.78c1.68-0.56,3.35-1.11,5.03-1.67"/>
							<path style="fill:#D64343;" d="M361.18,211.39c-0.49-3.98-0.75-7.99-0.78-12c3.44,0.92,6.78,2.22,9.94,3.87"/>
							<path style="fill:#D64343;" d="M348.22,283.1c-1.55,3.32-3.11,6.63-4.66,9.95c3.54-0.79,6.75-2.96,8.8-5.94"/>
							<path style="fill:#D64343;" d="M426.43,263.02c4.71,0.89,14.14,2.66,14.14,2.66s-8.35,1.09-11.84,3.37"/>
							<path style="fill:#D64343;" d="M424.03,229.83c7.48-0.4,14.95-0.8,22.43-1.2c-7.11,3.57-14.21,7.15-21.32,10.72"/>
							<path style="fill:#D64343;" d="M376.33,301.48c2.16,1.66,4.32,3.33,6.49,4.99c1.88-2.05,4.07-3.82,6.46-5.25"/>
							<path style="fill:#D64343;" d="M405.43,297.73c4.59,3.3,13.56,14.16,13.56,14.16s-5.01-14.12-4.64-20"/>
							<path style="fill:#D64343;" d="M340.25,250.96c-2.44,0.2-4.89,0.4-7.33,0.6c3.1,2.08,6.54,3.66,10.13,4.67"/>
							<path style="fill:#D64343;" d="M331.91,213.09c2.48-4.29,7.74-1.2,3.13,5.02C330.43,224.33,330.03,216.35,331.91,213.09z"/>
							<path style="fill:#D64343;" d="M449.8,229.65c1.31,5.6-5.58,7.15-6.62-1.76C442.14,218.98,448.81,225.4,449.8,229.65z"/>
							<path style="fill:#D64343;" d="M376.43,181.29c3.4,0.65,2.57,4.81-2.58,3.21C368.7,182.91,373.85,180.81,376.43,181.29z"/>
							<path style="fill:#D64343;" d="M441.68,267.36c-0.51,3.42-4.7,2.77-3.32-2.45C439.75,259.71,442.06,264.77,441.68,267.36z"/>
							<path style="fill:#D64343;" d="M398.61,310.31c3.4,0.65,2.57,4.81-2.58,3.21C390.88,311.93,396.04,309.82,398.61,310.31z"/>
							<path style="fill:#D64343;" d="M428.09,210.79c2.38,2.51-0.72,5.41-3.97,1.1C420.88,207.59,426.29,208.89,428.09,210.79z"/>
							<path style="fill:#D64343;" d="M345.32,291.9c2.38,2.51-0.72,5.41-3.97,1.1C338.1,288.7,343.52,290,345.32,291.9z"/>
							<path style="fill:#D64343;" d="M419.09,313.34c-5.08,2.68-8.34-3.58,0.02-6.85C427.46,303.22,422.94,311.3,419.09,313.34z"/>
							<path style="fill:#D64343;" d="M326.93,278.27c1.09,4.69-4.68,5.99-5.55-1.47C320.52,269.34,326.1,274.71,326.93,278.27z"/>
							<path style="fill:#D64343;" d="M368.24,213.85c6.01-7.43,17.77-8,17.63-0.27C385.73,221.31,360.6,223.29,368.24,213.85z"/>
							<path style="fill:#D64343;" d="M360.57,225.27c1.54-3.78,6.42-4.01,5.84,0.59C365.83,230.46,356.98,234.08,360.57,225.27z"/>
							<path style="fill:#D64343;" d="M370.12,226.79c1.15-2.1,5.52-3.05,5.04-0.17C374.68,229.51,366.85,232.76,370.12,226.79z"/>
							<path style="fill:#D64343;" d="M392.38,282.58c3.94-4.98,13.59-0.46,7.06,4.04C392.92,291.12,387.5,288.74,392.38,282.58z"/>
							<path style="fill:#D64343;" d="M404.7,274.21c2.69-1.13,3.53,3.83,0.37,3.97C401.9,278.32,401.37,275.61,404.7,274.21z"/>
							<path style="fill:#D64343;" d="M408.44,281.48c3.87-1.63,5.08,5.51,0.53,5.71C404.42,287.39,403.65,283.49,408.44,281.48z"/>
						</g>
						<path style="fill:#D64343;" d="M354.35,241.97c0.68-0.59,10.67,6.96,10.73,8.07c0.07,1.11-1.89,5.22-4.93,4.82
							C357.1,254.45,354.35,241.97,354.35,241.97z"/>
						<path style="fill:#D64343;" d="M377.18,250.82c0,0,24.39-13.87,25.19-13.91c0.8-0.04-6.68,18.35-11.9,21.11
							C385.25,260.78,380.01,255.5,377.18,250.82z"/>
						<path style="fill:#D64343;" d="M360.89,258.77c0,0,4.66,11.08,0.04,19.59l2.92-4.29l0.87,4.1l2.31-5.49l1.85,7.98l1.7-4.11
							l1.93,5.07l2.66-7.42l2.14,7.19c0,0,4.07-8.39,0.39-21.64l-1.02,6.61l-3.41-5.69l-0.94,3.71l-2.94-4.33l-1.14,5.65l-2.75-5.89
							l-0.7,4.16L360.89,258.77z"/>
					</g>
					<g>
						<g>
							<path style="fill:#D64343;" d="M508.59,210.41c-7.66-8.85-19.16-0.81-20.82,10.37c-1.45,9.77,3.67,19.31,16.22,16.6
								C516.55,234.66,516.25,219.27,508.59,210.41z"/>
							<path style="fill:#ED5454;" d="M500.28,234.74c-10.26-0.32-12.39-8.7-9.38-16c3.44-8.35,13.91-12.37,18.14-4.03
								C513.28,223.06,510.54,235.06,500.28,234.74z"/>
							<path style="fill:#D64343;" d="M498.03,208.57c-0.51-1.55-0.09-4.22-0.42-5.82c0.74,1.62,1.36,4.14,2.1,5.76"/>
							<path style="fill:#D64343;" d="M491.04,214.34c-1.81-0.69-3.61-1.38-5.42-2.07c1.25,1.68,2.67,3.24,4.23,4.64"/>
							<path style="fill:#579D6C;" d="M509.68,212.54c1.04-0.24,2.03-0.74,2.85-1.42c-0.38,1.23-0.98,2.4-1.76,3.43"/>
							<path style="fill:#579D6C;" d="M512.81,221.7c0.92,0.28,1.87,0.47,2.83,0.55c-0.95,0.29-1.89,0.58-2.84,0.87"/>
							<path style="fill:#579D6C;" d="M502.53,236.24c0.6,1.38,1.2,2.76,1.79,4.13c-0.14-1.12-0.28-2.25-0.42-3.37"/>
							<path style="fill:#D64343;" d="M494.02,234.68c0.07,1.14-0.02,2.3-0.29,3.41c0.61-0.6,1.28-1.15,2-1.62"/>
							<path style="fill:#D64343;" d="M487.68,226.4c-1.73,1.22-3.38,2.58-4.92,4.05c2.05-0.63,4.1-1.27,6.16-1.94"/>
							<path style="fill:#579D6C;" d="M504.23,207.95c0.51-0.61,1.12-1.14,1.79-1.57c-0.01,1.21,0.15,2.42,0.48,3.58"/>
							<path style="fill:#579D6C;" d="M512.09,229.95c0.32,0.96,0.63,1.92,0.95,2.88c-1.04-0.29-2.13-0.39-3.21-0.29"/>
							<path style="fill:#D64343;" d="M487.99,220.17c-0.31-0.36-0.63-0.72-0.94-1.08c0.48-0.16,0.96-0.32,1.44-0.48"/>
							<path style="fill:#D64343;" d="M493.83,211.38c-0.14-1.14-0.21-2.29-0.22-3.44c0.99,0.26,1.94,0.64,2.85,1.11"/>
							<path style="fill:#D64343;" d="M490.12,231.96c-0.45,0.95-0.89,1.9-1.34,2.85c1.01-0.23,1.94-0.85,2.53-1.71"/>
							<path style="fill:#579D6C;" d="M512.56,226.2c1.35,0.25,4.06,0.76,4.06,0.76s-2.4,0.31-3.4,0.97"/>
							<path style="fill:#579D6C;" d="M511.87,216.67c2.14-0.11,4.29-0.23,6.43-0.34c-2.04,1.03-4.08,2.05-6.12,3.08"/>
							<path style="fill:#D64343;" d="M498.18,237.23c0.62,0.48,1.24,0.95,1.86,1.43c0.54-0.59,1.17-1.1,1.85-1.51"/>
							<path style="fill:#579D6C;" d="M506.53,236.16c1.32,0.95,3.89,4.06,3.89,4.06s-1.44-4.05-1.33-5.74"/>
							<path style="fill:#D64343;" d="M487.83,222.74c-0.7,0.06-1.4,0.11-2.1,0.17c0.89,0.6,1.87,1.05,2.91,1.34"/>
							<path style="fill:#D64343;" d="M485.44,211.87c0.71-1.23,2.22-0.35,0.9,1.44C485.01,215.09,484.9,212.8,485.44,211.87z"/>
							<path style="fill:#579D6C;" d="M519.26,216.62c0.37,1.61-1.6,2.05-1.9-0.5C517.06,213.56,518.98,215.4,519.26,216.62z"/>
							<path style="fill:#D64343;" d="M498.21,202.75c0.97,0.19,0.74,1.38-0.74,0.92C495.99,203.21,497.47,202.61,498.21,202.75z"/>
							<path style="fill:#579D6C;" d="M516.93,227.44c-0.15,0.98-1.35,0.79-0.95-0.7C516.38,225.25,517.04,226.7,516.93,227.44z"/>
							<path style="fill:#579D6C;" d="M504.58,239.77c0.97,0.19,0.74,1.38-0.74,0.92C502.36,240.23,503.84,239.62,504.58,239.77z"/>
							<path style="fill:#579D6C;" d="M513.03,211.21c0.68,0.72-0.21,1.55-1.14,0.32C510.96,210.29,512.52,210.67,513.03,211.21z"/>
							<path style="fill:#D64343;" d="M489.29,234.48c0.68,0.72-0.21,1.55-1.14,0.32C487.21,233.56,488.77,233.94,489.29,234.48z"/>
							<path style="fill:#579D6C;" d="M510.45,240.63c-1.46,0.77-2.39-1.03,0-1.97C512.85,237.73,511.56,240.05,510.45,240.63z"/>
							<path style="fill:#D64343;" d="M484.01,230.57c0.31,1.35-1.34,1.72-1.59-0.42C482.17,228.01,483.77,229.55,484.01,230.57z"/>
							<path style="fill:#D64343;" d="M495.86,212.09c1.72-2.13,5.1-2.3,5.06-0.08C500.88,214.23,493.67,214.8,495.86,212.09z"/>
							<path style="fill:#D64343;" d="M493.66,215.36c0.44-1.08,1.84-1.15,1.68,0.17C495.17,216.86,492.63,217.89,493.66,215.36z"/>
							<path style="fill:#D64343;" d="M496.4,215.8c0.33-0.6,1.58-0.88,1.45-0.05C497.71,216.58,495.46,217.52,496.4,215.8z"/>
							<path style="fill:#579D6C;" d="M502.79,231.81c1.13-1.43,3.9-0.13,2.03,1.16C502.94,234.26,501.39,233.58,502.79,231.81z"/>
							<path style="fill:#579D6C;" d="M506.32,229.41c0.77-0.32,1.01,1.1,0.11,1.14C505.52,230.59,505.37,229.81,506.32,229.41z"/>
							<path style="fill:#579D6C;" d="M507.4,231.49c1.11-0.47,1.46,1.58,0.15,1.64C506.24,233.19,506.02,232.07,507.4,231.49z"/>
						</g>
						<path style="fill:#D64343;" d="M491.88,220.16c0.2-0.17,3.06,2,3.08,2.31c0.02,0.32-0.54,1.5-1.42,1.38
							C492.67,223.74,491.88,220.16,491.88,220.16z"/>
						<path style="fill:#D64343;" d="M498.43,222.7c0,0,7-3.98,7.23-3.99c0.23-0.01-1.92,5.27-3.41,6.06
							C500.74,225.55,499.24,224.04,498.43,222.7z"/>
						<path style="fill:#D64343;" d="M493.75,224.98c0,0,1.34,3.18,0.01,5.62l0.84-1.23l0.25,1.18l0.66-1.58l0.53,2.29l0.49-1.18
							l0.55,1.45l0.76-2.13l0.62,2.06c0,0,1.17-2.41,0.11-6.21l-0.29,1.9l-0.98-1.63l-0.27,1.06l-0.84-1.24l-0.33,1.62l-0.79-1.69
							l-0.2,1.19L493.75,224.98z"/>
					</g>
					<g>
						<g>
							<path style="fill:#E84F4F;" d="M473.56,151.53c-9.39-10.86-23.5-0.99-25.53,12.72c-1.78,11.99,4.5,23.68,19.9,20.35
								C483.32,181.28,482.95,162.39,473.56,151.53z"/>
							<path style="fill:#F07171;" d="M463.37,181.38c-12.58-0.39-15.2-10.67-11.51-19.62c4.22-10.24,17.06-15.17,22.25-4.94
								C479.31,167.05,475.95,181.76,463.37,181.38z"/>
							<path style="fill:#E84F4F;" d="M460.61,149.28c-0.63-1.9-0.11-5.18-0.51-7.14c0.9,1.99,1.67,5.08,2.57,7.07"/>
							<path style="fill:#E84F4F;" d="M452.04,156.35c-2.21-0.85-4.43-1.7-6.64-2.54c1.53,2.07,3.27,3.98,5.19,5.69"/>
							<path style="fill:#E84F4F;" d="M474.9,154.14c1.28-0.3,2.48-0.9,3.49-1.74c-0.46,1.51-1.2,2.95-2.16,4.21"/>
							<path style="fill:#E84F4F;" d="M478.74,165.38c1.13,0.34,2.3,0.57,3.48,0.68c-1.16,0.36-2.32,0.71-3.48,1.07"/>
							<path style="fill:#E84F4F;" d="M466.12,183.22c0.73,1.69,1.47,3.38,2.2,5.07c-0.17-1.38-0.34-2.76-0.52-4.13"/>
							<path style="fill:#E84F4F;" d="M455.69,181.29c0.09,1.4-0.03,2.82-0.35,4.18c0.75-0.74,1.57-1.41,2.46-1.98"/>
							<path style="fill:#E84F4F;" d="M447.92,171.15c-2.12,1.5-4.15,3.17-6.03,4.96c2.52-0.77,5.03-1.56,7.55-2.38"/>
							<path style="fill:#E84F4F;" d="M468.21,148.51c0.63-0.75,1.37-1.4,2.2-1.92c-0.01,1.48,0.19,2.97,0.59,4.39"/>
							<path style="fill:#E84F4F;" d="M477.85,175.5c0.39,1.18,0.77,2.35,1.16,3.53c-1.28-0.35-2.62-0.47-3.93-0.35"/>
							<path style="fill:#E84F4F;" d="M448.29,163.5c-0.38-0.44-0.77-0.89-1.15-1.33c0.59-0.2,1.18-0.39,1.77-0.59"/>
							<path style="fill:#E84F4F;" d="M455.46,152.73c-0.17-1.4-0.26-2.81-0.27-4.22c1.21,0.32,2.39,0.78,3.5,1.36"/>
							<path style="fill:#E84F4F;" d="M450.9,177.96c-0.55,1.17-1.09,2.33-1.64,3.5c1.24-0.28,2.37-1.04,3.1-2.09"/>
							<path style="fill:#E84F4F;" d="M478.42,170.89c1.66,0.31,4.98,0.94,4.98,0.94s-2.94,0.38-4.17,1.18"/>
							<path style="fill:#E84F4F;" d="M477.58,159.22c2.63-0.14,5.26-0.28,7.89-0.42c-2.5,1.26-5,2.51-7.5,3.77"/>
							<path style="fill:#E84F4F;" d="M460.8,184.43c0.76,0.59,1.52,1.17,2.28,1.76c0.66-0.72,1.43-1.35,2.27-1.85"/>
							<path style="fill:#E84F4F;" d="M471.04,183.11c1.62,1.16,4.77,4.98,4.77,4.98s-1.76-4.97-1.63-7.04"/>
							<path style="fill:#E84F4F;" d="M448.1,166.65c-0.86,0.07-1.72,0.14-2.58,0.21c1.09,0.73,2.3,1.29,3.56,1.65"/>
							<path style="fill:#E84F4F;" d="M445.16,153.32c0.87-1.51,2.72-0.42,1.1,1.77S444.5,154.47,445.16,153.32z"/>
							<path style="fill:#E84F4F;" d="M486.65,159.15c0.46,1.97-1.96,2.52-2.33-0.62C483.95,155.4,486.3,157.66,486.65,159.15z"/>
							<path style="fill:#E84F4F;" d="M460.83,142.14c1.19,0.23,0.91,1.69-0.91,1.13C458.11,142.7,459.92,141.96,460.83,142.14z"/>
							<path style="fill:#E84F4F;" d="M483.79,172.42c-0.18,1.2-1.66,0.97-1.17-0.86C483.11,169.73,483.93,171.51,483.79,172.42z"/>
							<path style="fill:#E84F4F;" d="M468.64,187.54c1.19,0.23,0.91,1.69-0.91,1.13C465.92,188.1,467.73,187.36,468.64,187.54z"/>
							<path style="fill:#E84F4F;" d="M479.01,152.52c0.84,0.88-0.25,1.9-1.4,0.39C476.47,151.39,478.38,151.85,479.01,152.52z"/>
							<path style="fill:#E84F4F;" d="M449.88,181.06c0.84,0.88-0.25,1.9-1.4,0.39C447.34,179.93,449.25,180.39,449.88,181.06z"/>
							<path style="fill:#E84F4F;" d="M475.84,188.6c-1.79,0.94-2.93-1.26,0.01-2.41C478.79,185.04,477.2,187.88,475.84,188.6z"/>
							<path style="fill:#E84F4F;" d="M443.41,176.26c0.38,1.65-1.65,2.11-1.95-0.52C441.15,173.12,443.12,175.01,443.41,176.26z"/>
							<path style="fill:#E84F4F;" d="M457.95,153.59c2.11-2.62,6.25-2.82,6.21-0.09C464.1,156.22,455.26,156.91,457.95,153.59z"/>
							<path style="fill:#E84F4F;" d="M455.25,157.61c0.54-1.33,2.26-1.41,2.05,0.21C457.1,159.44,453.99,160.71,455.25,157.61z"/>
							<path style="fill:#E84F4F;" d="M458.61,158.14c0.41-0.74,1.94-1.07,1.77-0.06C460.21,159.1,457.46,160.25,458.61,158.14z"/>
							<path style="fill:#E84F4F;" d="M466.44,177.78c1.39-1.75,4.78-0.16,2.49,1.42C466.63,180.78,464.73,179.95,466.44,177.78z"/>
							<path style="fill:#E84F4F;" d="M470.78,174.83c0.95-0.4,1.24,1.35,0.13,1.4C469.79,176.28,469.61,175.32,470.78,174.83z"/>
							<path style="fill:#E84F4F;" d="M472.1,177.39c1.36-0.57,1.79,1.94,0.19,2.01S470.41,178.1,472.1,177.39z"/>
						</g>
						<path style="fill:#E84F4F;" d="M453.06,163.49c0.24-0.21,3.75,2.45,3.78,2.84c0.02,0.39-0.66,1.84-1.74,1.7
							C454.03,167.88,453.06,163.49,453.06,163.49z"/>
						<path style="fill:#E84F4F;" d="M461.1,166.6c0,0,8.58-4.88,8.86-4.89c0.28-0.01-2.35,6.46-4.19,7.43
							C463.93,170.1,462.09,168.25,461.1,166.6z"/>
						<path style="fill:#E84F4F;" d="M455.36,169.4c0,0,1.64,3.9,0.01,6.89l1.03-1.51l0.31,1.44l0.81-1.93l0.65,2.81l0.6-1.45
							l0.68,1.78l0.94-2.61l0.75,2.53c0,0,1.43-2.95,0.14-7.62l-0.36,2.33l-1.2-2l-0.33,1.31l-1.03-1.53l-0.4,1.99l-0.97-2.07
							l-0.25,1.46L455.36,169.4z"/>
					</g>
					<g>
						<g>
							<path style="fill:#E84F4F;" d="M505.77,288.91c-17.7-20.47-44.29-1.86-48.12,23.97c-3.35,22.59,8.48,44.63,37.5,38.36
								C524.16,344.97,523.47,309.38,505.77,288.91z"/>
							<path style="fill:#F07171;" d="M486.57,345.15c-23.71-0.73-28.64-20.1-21.69-36.98c7.95-19.29,32.15-28.6,41.94-9.32
								C516.6,318.15,510.28,345.88,486.57,345.15z"/>
							<path style="fill:#E84F4F;" d="M481.37,284.66c-1.18-3.58-0.22-9.76-0.96-13.46c1.7,3.75,3.15,9.57,4.85,13.32"/>
							<path style="fill:#E84F4F;" d="M465.21,297.99c-4.17-1.6-8.35-3.2-12.52-4.79c2.88,3.89,6.17,7.49,9.79,10.72"/>
							<path style="fill:#7AD385;" d="M508.3,293.83c2.41-0.57,4.68-1.7,6.58-3.28c-0.88,2.85-2.26,5.55-4.06,7.93"/>
							<path style="fill:#7AD385;" d="M515.53,315.01c2.13,0.65,4.33,1.08,6.55,1.27c-2.19,0.67-4.38,1.34-6.56,2.01"/>
							<path style="fill:#E84F4F;" d="M491.76,348.63c1.38,3.19,2.76,6.37,4.14,9.56c-0.32-2.6-0.65-5.2-0.97-7.79"/>
							<path style="fill:#E84F4F;" d="M472.08,345c0.17,2.64-0.06,5.31-0.66,7.89c1.41-1.4,2.97-2.65,4.63-3.74"/>
							<path style="fill:#E84F4F;" d="M457.44,325.88c-3.99,2.83-7.81,5.97-11.37,9.36c4.74-1.45,9.48-2.94,14.23-4.49"/>
							<path style="fill:#E84F4F;" d="M495.69,283.21c1.18-1.41,2.59-2.64,4.14-3.62c-0.03,2.79,0.35,5.59,1.11,8.28"/>
							<path style="fill:#7AD385;" d="M513.86,334.08c0.73,2.22,1.46,4.44,2.19,6.66c-2.4-0.67-4.93-0.89-7.41-0.66"/>
							<path style="fill:#E84F4F;" d="M458.15,311.46c-0.72-0.84-1.45-1.67-2.17-2.51c1.11-0.37,2.22-0.74,3.33-1.11"/>
							<path style="fill:#E84F4F;" d="M471.66,291.16c-0.32-2.64-0.49-5.3-0.52-7.96c2.28,0.61,4.5,1.47,6.59,2.56"/>
							<path style="fill:#E84F4F;" d="M463.07,338.71c-1.03,2.2-2.06,4.4-3.09,6.6c2.35-0.52,4.47-1.96,5.84-3.94"/>
							<path style="fill:#7AD385;" d="M514.94,325.4c3.13,0.59,9.38,1.77,9.38,1.77s-5.54,0.72-7.85,2.23"/>
							<path style="fill:#7AD385;" d="M513.34,303.39c4.96-0.26,9.92-0.53,14.87-0.79c-4.71,2.37-9.43,4.74-14.14,7.11"/>
							<path style="fill:#E84F4F;" d="M481.71,350.91c1.43,1.1,2.87,2.21,4.3,3.31c1.25-1.36,2.7-2.54,4.28-3.48"/>
							<path style="fill:#7AD385;" d="M501.01,348.42c3.05,2.19,8.99,9.39,8.99,9.39s-3.32-9.37-3.07-13.26"/>
							<path style="fill:#E84F4F;" d="M457.78,317.4c-1.62,0.13-3.24,0.26-4.86,0.4c2.06,1.38,4.33,2.43,6.72,3.1"/>
							<path style="fill:#E84F4F;" d="M452.25,292.29c1.65-2.85,5.13-0.8,2.08,3.33C451.27,299.74,451,294.45,452.25,292.29z"/>
							<path style="fill:#7AD385;" d="M530.44,303.27c0.87,3.71-3.7,4.74-4.39-1.16C525.36,296.19,529.78,300.45,530.44,303.27z"/>
							<path style="fill:#E84F4F;" d="M481.78,271.2c2.25,0.43,1.71,3.19-1.71,2.13C476.65,272.27,480.07,270.87,481.78,271.2z"/>
							<path style="fill:#7AD385;" d="M525.05,328.28c-0.34,2.27-3.12,1.83-2.2-1.62C523.77,323.2,525.31,326.56,525.05,328.28z"/>
							<path style="fill:#E84F4F;" d="M496.49,356.76c2.25,0.43,1.71,3.19-1.71,2.13C491.36,357.83,494.78,356.44,496.49,356.76z"/>
							<path style="fill:#7AD385;" d="M516.04,290.76c1.58,1.66-0.48,3.59-2.63,0.73C511.26,288.64,514.85,289.5,516.04,290.76z"/>
							<path style="fill:#E84F4F;" d="M461.15,344.56c1.58,1.66-0.48,3.59-2.63,0.73C456.36,342.43,459.95,343.29,461.15,344.56z"/>
							<path style="fill:#7AD385;" d="M510.07,358.77c-3.37,1.78-5.53-2.38,0.01-4.54C515.62,352.06,512.63,357.42,510.07,358.77z"
								/>
							<path style="fill:#E84F4F;" d="M448.95,335.51c0.72,3.11-3.1,3.97-3.68-0.97C444.7,329.59,448.4,333.15,448.95,335.51z"/>
							<path style="fill:#E84F4F;" d="M476.34,292.79c3.99-4.93,11.79-5.31,11.69-0.18C487.95,297.74,471.28,299.05,476.34,292.79z"
								/>
							<path style="fill:#E84F4F;" d="M471.26,300.36c1.02-2.5,4.26-2.66,3.87,0.39C474.75,303.81,468.88,306.21,471.26,300.36z"/>
							<path style="fill:#E84F4F;" d="M477.59,301.37c0.76-1.39,3.66-2.02,3.34-0.11C480.62,303.17,475.43,305.33,477.59,301.37z"/>
							<path style="fill:#E84F4F;" d="M492.36,338.37c2.62-3.3,9.01-0.3,4.69,2.68C492.72,344.03,489.12,342.46,492.36,338.37z"/>
							<path style="fill:#E84F4F;" d="M500.52,332.82c1.78-0.75,2.34,2.54,0.24,2.63C498.67,335.54,498.32,333.75,500.52,332.82z"/>
							<path style="fill:#7AD385;" d="M503.01,337.64c2.57-1.08,3.37,3.65,0.35,3.79C500.34,341.56,499.83,338.98,503.01,337.64z"/>
						</g>
						<path style="fill:#E84F4F;" d="M467.13,311.44c0.45-0.39,7.07,4.62,7.12,5.35c0.04,0.73-1.25,3.46-3.27,3.2
							C468.96,319.71,467.13,311.44,467.13,311.44z"/>
						<path style="fill:#E84F4F;" d="M482.28,317.31c0,0,16.17-9.2,16.71-9.23c0.53-0.03-4.43,12.17-7.89,14
							C487.63,323.91,484.15,320.41,482.28,317.31z"/>
						<path style="fill:#E84F4F;" d="M471.47,322.58c0,0,3.09,7.35,0.02,12.99l1.94-2.84l0.58,2.72l1.53-3.64l1.23,5.29l1.13-2.73
							l1.28,3.36l1.76-4.92l1.42,4.77c0,0,2.7-5.56,0.26-14.35l-0.68,4.39l-2.26-3.77l-0.62,2.46l-1.95-2.87l-0.76,3.75l-1.83-3.91
							l-0.46,2.76L471.47,322.58z"/>
					</g>
				</g>
				<g>
					<path style="fill:#E6FFFE;" d="M381.16,356.92c-0.93-4.68,19.42-2.96,23.21,6.59C408.16,373.05,382.62,364.31,381.16,356.92z"
						/>
					<path style="fill:#E6FFFE;" d="M414.28,370.79c0.35-2.86,6.87-0.53,4.93,1.89C417.27,375.09,413.98,373.2,414.28,370.79z"/>
					<path style="fill:#E6FFFE;" d="M406.89,131.02c-1.07-9.21,11.42-12.71,14.91-8.32C425.28,127.1,408.02,140.77,406.89,131.02z"
						/>
					<path style="fill:#E6FFFE;" d="M425.47,121.59c-0.5-4.26,8.99-5.42,9.98-3.44C436.43,120.13,425.83,124.71,425.47,121.59z"/>
					<path style="fill:#E6FFFE;" d="M436.53,197.47c2.6-4.49,19.1,6.44,26.8,5.22c7.7-1.21,22.58-14.44,26.16-8.68
						c3.58,5.75-19.61,15.25-18.03,25.53c1.57,10.28-9.3,8.83-16.32-2.47C448.13,205.77,432.38,204.63,436.53,197.47z"/>
					<path style="fill:#E6FFFE;" d="M506.24,79.59c2.98,1.9-4.75,13.79-9.79,11.49C491.41,88.78,498.83,74.87,506.24,79.59z"/>
					<path style="fill:#E6FFFE;" d="M301.97,239.39c-4.22-4.09,1.36-22.03,10.86-22.32C322.33,216.77,310.75,247.9,301.97,239.39z"
						/>
					<path style="fill:#E6FFFE;" d="M406.3,224.27c3.28-4.13,10.34,6.82,7.94,11.74C411.84,240.93,400.59,231.48,406.3,224.27z"/>
				</g>
			</g>
		</g>
		<g>
			<g>
				<ellipse style="fill:#E8E8E8;" cx="131.86" cy="441.77" rx="111.86" ry="18.11"/>
				<g>
					<g>
						<g>
							<g>
								<g>
									<polygon style="fill:#FFA07F;" points="180.74,394.98 180.67,400.51 180.44,417.87 196.63,418.29 198.2,400.42 
										198.66,395.15 									"/>
									<path style="fill:#3A435E;" d="M222.91,434.43c-0.08-0.81-0.4-1.78-1.42-2.31c-2.97-1.54-13.9-6.44-16.78-9.01
										c-2.24-1.99-4.05-6.13-4.75-7.88l-20.91-0.35c-1.56,5.23-3.01,15.41-3.31,17.54L222.91,434.43z"/>
									<polygon style="fill:#FFFFFF;" points="222.73,439.08 175.57,437.07 175.75,432.42 222.91,434.43 									"/>
									<g>
										<path style="fill:#FFFFFF;" d="M200.69,424.25c-0.04,0.05-0.07,0.1-0.1,0.16c-0.25,0.4-0.42,1.02,0.12,1.29
											c0.27,0.14,0.6,0.11,0.9,0.07c1.04-0.15,2.02-0.55,2.95-1.02c1-0.51,2.07-1.05,2.75-1.97c0.7-0.95-0.17-1.9-1.3-1.72
											C204.06,421.36,201.81,422.59,200.69,424.25z"/>
										<path style="fill:#FFFFFF;" d="M204.14,426.89c-0.04,0.05-0.07,0.1-0.1,0.16c-0.25,0.4-0.42,1.02,0.12,1.29
											c0.27,0.14,0.6,0.11,0.9,0.07c1.04-0.15,2.02-0.55,2.95-1.02c1-0.51,2.07-1.05,2.75-1.97c0.7-0.95-0.17-1.9-1.3-1.72
											C207.5,424,205.25,425.23,204.14,426.89z"/>
										<path style="fill:#FFFFFF;" d="M208.44,428.71c-0.04,0.05-0.07,0.1-0.1,0.16c-0.25,0.4-0.42,1.02,0.12,1.29
											c0.27,0.14,0.6,0.11,0.9,0.07c1.04-0.15,2.02-0.55,2.95-1.02c1-0.51,2.07-1.05,2.75-1.97c0.7-0.95-0.17-1.9-1.3-1.72
											C211.81,425.83,209.56,427.06,208.44,428.71z"/>
									</g>
								</g>
								<g>
									<path style="fill:#A97149;" d="M207.41,330.57c-0.53-1.66-1.19-2.89-2.01-3.61c-5.36-4.67-40.2-3.45-68.84-1.57v35.78
										c19.75-1.68,44.51-3.26,44.51-3.26l-3.65,52.3h26.35C203.77,410.21,212.87,347.73,207.41,330.57z"/>
									<path style="fill:#C78B5F;" d="M205.39,326.96c-5.36-4.67-40.2-3.45-68.84-1.57v1.02c12.13-0.24,24.25-0.48,36.38-0.73
										c6.39-0.13,12.81-0.26,19.16,0.54c5.3,0.67,9.98,2.27,14.92,4.2c0.14,0.05,0.27,0.1,0.4,0.14
										C206.88,328.91,206.21,327.68,205.39,326.96z"/>
								</g>
							</g>
							<g>
								<g>
									<polygon style="fill:#FFA07F;" points="86.28,410.11 80.77,410.56 63.47,411.99 64.6,428.15 82.54,428 87.83,427.96 
																			"/>
									<g>
										<path style="fill:#3A435E;" d="M40.83,447.99c0.81,0.11,1.82,0.01,2.57-0.86c2.17-2.54,9.42-12.08,12.57-14.3
											c2.45-1.73,6.89-2.56,8.75-2.84l5.08-20.29c-4.74-2.7-14.33-6.43-16.34-7.2L40.83,447.99z"/>
										<polygon style="fill:#FFFFFF;" points="36.34,446.76 48.97,401.28 53.46,402.5 40.83,447.99 										"/>
										<g>
											<path style="fill:#FFFFFF;" d="M55.77,428.65c-0.04-0.05-0.09-0.09-0.13-0.13c-0.33-0.33-0.9-0.64-1.28-0.17
												c-0.2,0.24-0.25,0.56-0.27,0.86c-0.09,1.05,0.08,2.09,0.33,3.11c0.26,1.09,0.56,2.26,1.3,3.13
												c0.77,0.9,1.89,0.26,1.97-0.88C57.83,432.58,57.13,430.11,55.77,428.65z"/>
											<path style="fill:#FFFFFF;" d="M52.42,431.41c-0.04-0.05-0.09-0.09-0.13-0.13c-0.33-0.33-0.9-0.64-1.28-0.17
												c-0.2,0.24-0.25,0.56-0.27,0.86c-0.09,1.05,0.08,2.09,0.33,3.11c0.26,1.09,0.56,2.26,1.3,3.13
												c0.77,0.9,1.89,0.26,1.97-0.88C54.47,435.34,53.78,432.87,52.42,431.41z"/>
											<path style="fill:#FFFFFF;" d="M49.67,435.19c-0.04-0.05-0.09-0.09-0.13-0.13c-0.33-0.33-0.9-0.64-1.28-0.17
												c-0.2,0.24-0.25,0.56-0.27,0.86c-0.09,1.05,0.08,2.09,0.33,3.11c0.26,1.09,0.56,2.26,1.3,3.13
												c0.77,0.9,1.89,0.26,1.97-0.88C51.72,439.12,51.03,436.65,49.67,435.19z"/>
										</g>
									</g>
								</g>
								<g>
									<path style="fill:#C78B5F;" d="M158.93,420.12c-1.39,2.53-6.94,10.85-8.6,11.41c-1.66,0.55-74.63,0-74.63,0V408.5
										c0,0,53.03-3.05,54.81-3.32c1.78-0.28-19.12-47.26-20.41-60.02c-1.29-12.76-1.66-32.66-1.66-32.66h48.09
										c0,0,0.66,18.33-1.52,24.98C152.83,344.14,160.32,417.59,158.93,420.12z"/>
									<path style="fill:#A97149;" d="M134.67,409.27c1.51,2.15,2.37,4.74,2.45,7.36c-2.44-0.52-4.6-2.2-5.7-4.43
										c-7.02-0.17-14.05-0.2-21.08-0.28c-11.54-0.13-23.09-0.27-34.63-0.41v-3.01c0,0,53.03-3.05,54.81-3.32
										c1.78-0.28-19.12-47.26-20.41-60.02c-1.29-12.76-1.66-32.66-1.66-32.66h10.45c-2.39,12.93-5.55,25.92-2.79,38.65
										c0.88,4.04,2.34,7.94,3.8,11.81c5.19,13.79,9.97,28.47,15.16,42.26c3.08,0.87,5.93,2.55,8.18,4.82
										c-1.43,0.7-3.06,0.94-4.63,0.75c-1.63-0.2-2.73-0.87-4.09-1.73C134.58,409.13,134.63,409.2,134.67,409.27z"/>
								</g>
							</g>
						</g>
					</g>
					<g>
						<g>
							<g>
								<g>
									<g>
										<path style="fill:#FFA07F;" d="M207.74,190.67c-1.32-0.29-10.17,19.53-10.17,19.53c-1-3.3-3.16-6.24-6.01-8.18
											c-0.03-0.02-0.05-0.03-0.08-0.05c-0.27-0.16-0.58-0.3-0.85-0.16c-0.13,0.07-0.22,0.19-0.29,0.31
											c-0.65,1.04-0.58,2.4-0.2,3.57c0.38,1.17,1.05,2.22,1.56,3.33c0.99,2.14,1.11,4.52,1.22,6.87
											c0.2,3.97,6.41,7.62,6.41,7.62s-0.14,0.56-0.31,1.33l10.45,3.35l1.44-4.6l2.46-1.84c1.58-1.55,8.15-21.28,7-22.07
											c-0.31-0.22-0.67-0.42-1.02-0.6c-0.55-0.28-1.09-0.51-1.45-0.66c-0.27-0.11-0.43-0.16-0.43-0.16s-0.46-0.62-1.09-1.26
											c-0.36-0.39-0.78-0.78-1.19-1.07c-0.44-0.31-0.88-0.49-1.22-0.38c-0.34,0.1-1.15,1.15-2.12,2.58
											c-2.4,3.53-5.86,9.37-6.07,8.91c-0.29-0.64,3.89-15.03,3.89-15.03s-0.23-0.41-0.73-0.78
											C208.62,190.99,208.23,190.78,207.74,190.67z"/>
										<path style="fill:#FF7D6F;" d="M213.94,195.53c-0.34,0.1-1.15,1.15-2.12,2.58c0.58,1.11,1.55,2.16,2.02,3.22
											c0.72,1.66,1.07,3.48,0.98,5.28c-0.15,2.96-1.39,5.75-2.88,8.31c-1.48,2.56-3.23,4.98-4.51,7.64
											c-0.69,1.43-1.24,2.93-1.7,4.45l4.18,1.39l0.98-4.8l2.46-1.84c1.58-1.55,8.15-21.28,7-22.07
											c-0.31-0.22-0.67-0.42-1.02-0.6c-0.55-0.28-1.09-0.51-1.45-0.66c-0.27-0.11-0.43-0.16-0.43-0.16s-0.46-0.62-1.09-1.26
											c-0.36-0.39-0.78-0.78-1.19-1.07C214.72,195.6,214.29,195.43,213.94,195.53z"/>
										<g>
											<g>
												<path style="fill:#CF4A57;" d="M216.36,196.98c-0.16,0.36-0.32,0.72-0.5,1.08c-1.03,2.11-2.21,3.9-3.13,5.14
													c-0.87,1.16-1.49,1.86-1.57,1.94c0.04-0.1,0.34-0.99,0.87-2.33c0.57-1.43,1.38-3.37,2.4-5.45
													c0.25-0.5,0.49-0.98,0.73-1.45C215.58,196.2,216,196.59,216.36,196.98z"/>
											</g>
											<g>
												<path style="fill:#CF4A57;" d="M219.33,199.07c-1.58,3.39-3.42,5.84-3.54,5.99c0.03-0.19,0.62-3.21,2.1-6.65
													C218.24,198.56,218.78,198.79,219.33,199.07z"/>
											</g>
										</g>
										<path style="fill:#FFBF90;" d="M201.52,225.65c0.01-0.06,0.04-0.13,0.05-0.19c0.08-0.32,0.16-0.66,0.2-1
											c0.01-0.28,0.01-0.54-0.06-0.81c-0.18-0.72-0.77-1.25-1.34-1.72c-1.84-1.54-3.88-2.98-5.03-5.09
											c-1.36-2.49-1.25-5.51-2.13-8.22c-0.64-1.96-1.79-3.83-1.78-5.89c0-0.25,0.03-0.5,0.04-0.77
											c-0.26-0.16-0.58-0.3-0.84-0.16c-0.13,0.08-0.22,0.19-0.29,0.31c-0.65,1.04-0.59,2.4-0.2,3.57
											c0.38,1.17,1.04,2.22,1.55,3.33c0.99,2.14,1.11,4.52,1.22,6.87c0.19,3.98,6.4,7.63,6.4,7.63s-0.21,0.52-0.51,1.1
											c-0.02,0.04-0.05,0.09-0.07,0.14l-0.21,0.44L201.52,225.65z"/>
									</g>
									<g>
										<path style="fill:#CF4A57;" d="M206.28,221.95c0,0,0.05-0.15,0.15-0.41c0.1-0.26,0.19-0.66,0.26-1.16
											c0.14-0.99,0.04-2.46-0.64-3.88c-0.69-1.42-1.78-2.41-2.64-2.92c-0.43-0.26-0.8-0.43-1.07-0.52
											c-0.26-0.09-0.41-0.14-0.41-0.14s0.1,0.12,0.27,0.33c0.18,0.2,0.42,0.51,0.7,0.89c0.56,0.75,1.2,1.81,1.78,3.02
											c0.58,1.21,1.01,2.37,1.25,3.27c0.12,0.45,0.21,0.83,0.26,1.1C206.25,221.8,206.28,221.95,206.28,221.95z"/>
									</g>
								</g>
							</g>
							<path style="fill:#456997;" d="M192.12,221.03l-2.68,7.24l-6.37,17.16c-0.16,0.09-10.12,24.44-10.29,24.54
								c5.91,5.36,24.85,15.37,25.75,14.12c2.39-3.33,15.53-41.66,16.96-50.17c0.32-1.92,0.61-3.79,0.87-5.5L192.12,221.03z"/>
							<polygon style="fill:#FFEEDE;" points="215.77,233.98 216.67,228.52 216.34,228.42 192.12,221.03 191.33,220.78 
								189.16,228.2 189.44,228.26 215.48,233.92 							"/>
							<path style="fill:#EF8A3D;" d="M152.38,223.21l4.31-4.31c0,0,5.7,5.21,7.77,9.29c2.08,4.09,14.19,38.06,14.19,38.06
								l19.87,17.83c0,0-7.63,11.75-14.06,13.47c-6.42,1.73-21.16-13.3-21.16-13.3L152.38,223.21z"/>
						</g>
						<g>
							<path style="fill:#65CEBA;" d="M243.73,203.57c-21.71-6.25-45.74-36.37-45.74-36.37s-4.71,1.73-5.11,1.28
								c0,0-0.19-0.58-0.29-0.32c-0.13-0.15-0.11,0.28-0.11,0.28c-1.87,4.75-13.92,34.94-33.82,50.87c0,0,8.99,80.36,68.15,121.43
								l0.02,0.12c0.6-1.11,5.51-1.24,5.51-1.24L243.73,203.57z"/>
							<path style="fill:#7FEAD6;" d="M249.24,202.33c-24.45-7.03-47.25-31.08-50.86-35.09c0,0-0.19-0.58-0.29-0.32
								c-0.13-0.15-0.11,0.28-0.11,0.28c-1.87,4.75-13.92,34.94-33.82,50.87c0,0,8.99,80.36,68.15,121.43l0.02,0.12
								C269.7,270.58,249.24,202.33,249.24,202.33z"/>
							<path style="opacity:0.6;fill:#6FD1BE;" d="M200.7,178.28c0,0,30.94,73.83,30.19,151.85c0,0-47.16-32.46-59.72-109.17
								C171.18,220.97,193.04,203.25,200.7,178.28z"/>
							<g>
								<polygon style="fill:#AEF4E7;" points="215.15,251.84 201.3,255.88 196.79,238.52 211,235 205.98,215.37 222.03,211.11 
									227.07,230.07 238.54,226.95 241.66,243.11 231.13,246.3 234.27,264.1 218.25,267.77 								"/>
								<path style="fill:#7FEAD6;" d="M221.32,212.33l5.04,18.96l11.4-3.1l2.75,14.21l-10.52,3.19l3.13,17.74l-14.08,3.23
									l-3.12-15.99l-13.91,4.06l-4-15.39l14.2-3.52l-5.02-19.64L221.32,212.33 M222.74,209.89l-1.93,0.51l-14.13,3.75l-1.91,0.51
									l0.49,1.92l4.52,17.69l-12.25,3.03l-1.96,0.49l0.51,1.96l4,15.39l0.52,1.99l1.98-0.58l11.8-3.45l2.7,13.84l0.4,2.03
									l2.01-0.46l14.08-3.23l1.85-0.42l-0.33-1.87L232.27,247l8.82-2.67l1.73-0.52l-0.34-1.77l-2.75-14.21l-0.41-2.12l-2.08,0.57
									l-9.46,2.57l-4.52-17.02L222.74,209.89L222.74,209.89z"/>
							</g>
						</g>
						<g>
							<g>
								<g>
									<g>
										<g>
											<g>
												<path style="fill:#FFA07F;" d="M125.25,207.89c0.34,0.35,15.31,11.98,15.31,11.98s-0.19-6.95-0.27-10.57
													c-0.02-1.12-0.04-1.92-0.03-2.1c0.03-1.45,1.41-7.68,1.41-7.68l-15.21-7.39c0,0-0.32,3.16-0.63,6.66
													C125.44,203,125.06,207.7,125.25,207.89z"/>
												<path style="fill:#FF7D6F;" d="M125.82,198.79c4.2,3.2,13.44,10.2,14.38,10.49c0.03,0.01,0.06,0.02,0.08,0.02
													c-0.02-1.12-0.04-1.92-0.03-2.1c0.03-1.45,1.41-7.68,1.41-7.68l-15.21-7.39C126.45,192.13,126.14,195.3,125.82,198.79z"
													/>
											</g>
										</g>
										<g>
											<g>
												<path style="fill:#FFA07F;" d="M124.34,192.62c0,0,0.36,1.12,2.04,2.68l0,0c0.34,0.32,0.74,0.66,1.21,1.01
													c1.77,1.34,18.49,8.96,21.1,8.67c2.61-0.29,5.27-9.17,5.42-10.1c0.97-5.75,3.68-23.51,3.68-23.51
													c-5.96-19.57-29.09-10.04-31.73-8.2C123.42,165.02,124.34,192.62,124.34,192.62z"/>
												<path style="fill:#FFBF90;" d="M126.38,195.3c0.34,0.32,0.74,0.66,1.21,1.01c1.77,1.34,18.49,8.96,21.1,8.67
													c2.61-0.29,5.27-9.17,5.42-10.1c-1.71,3.89-3.67,9.27-5.5,9.06C145.84,203.61,128.41,196.43,126.38,195.3z"/>
											</g>
											<g>
												<path style="fill:#55062C;" d="M155.39,176.97c0,0-5.01-1.38-5.37,0.99c-0.36,2.37,0.37,2.02,0.37,2.02L155.39,176.97z"
													/>
												<path style="fill:#55062C;" d="M131.4,173.17c0,0,8.74-0.46,8.68,2.86c-0.03,1.94-1.37,1.9-1.37,1.9L131.4,173.17z"/>
												<g>
													<path style="fill:#161818;" d="M134.31,180.36c-0.04,1.79,0.83,3.27,1.95,3.3c1.12,0.03,2.06-1.41,2.1-3.2
														c0.04-1.79-0.83-3.27-1.95-3.3C135.29,177.13,134.35,178.56,134.31,180.36z"/>
													<path style="fill:#FFEEDE;" d="M132.42,178.5c0,0,0.69,1.13,1.91,1.66c1.22,0.53,2.52,0.25,2.52,0.25
														s-0.69-1.13-1.91-1.66C133.71,178.22,132.42,178.5,132.42,178.5z"/>
												</g>
												<g>
													<path style="fill:#161818;" d="M153.41,182.02c-0.03,1.35-0.74,2.43-1.58,2.41c-0.84-0.02-1.5-1.13-1.47-2.48
														c0.03-1.35,0.74-2.43,1.58-2.41C152.78,179.56,153.44,180.67,153.41,182.02z"/>
													<path style="fill:#FFEEDE;" d="M154.74,180.86c0,0-0.55,0.71-1.44,1.04c-0.89,0.33-1.77,0.17-1.77,0.17
														s0.55-0.71,1.44-1.04C153.86,180.7,154.74,180.86,154.74,180.86z"/>
												</g>
												<g>
													<path style="fill:#FC5B68;" d="M137.88,195.62c1.51,0.81,3.39,0.9,4.98,0.26c-0.57,0.78-1.34,1.24-2.31,1.18
														C139.59,197,138.52,196.34,137.88,195.62z"/>
												</g>
												<path style="fill:#FF7D6F;" d="M131.32,185.69c-0.3,1.07,1.43,2.49,3.87,3.18c2.44,0.69,4.66,0.39,4.97-0.68
													c0.3-1.07-1.43-2.49-3.87-3.18C133.85,184.32,131.63,184.62,131.32,185.69z"/>
												<g>
													<path style="fill:#FC5B68;" d="M134.39,190.71c0,0,0.1,0.15,0.28,0.4c0.18,0.26,0.48,0.62,0.89,1.02
														c0.81,0.81,2.17,1.75,3.9,2.23c1.73,0.47,3.38,0.36,4.49,0.09c0.56-0.14,1-0.29,1.29-0.42c0.28-0.13,0.45-0.2,0.45-0.2
														s-0.18,0.03-0.49,0.08c-0.31,0.06-0.76,0.11-1.31,0.14c-1.1,0.06-2.62-0.04-4.21-0.48c-1.59-0.44-2.94-1.13-3.86-1.75
														c-0.46-0.31-0.82-0.58-1.06-0.79C134.53,190.83,134.39,190.71,134.39,190.71z"/>
												</g>
												<path style="fill:#FF7D6F;" d="M142.46,187.4c1.45,0.73,3.02,1.21,4.63,1.42c-0.53,0.29-1.1,0.56-1.68,0.7
													c-0.58,0.14-1.24,0.12-1.75-0.19C142.97,188.92,142.72,188.16,142.46,187.4z"/>
												<path style="fill:#FC5B68;" d="M147.84,180.18c-1.03,1.22-1.63,2.81-1.65,4.41c-0.02,1.6,0.53,3.21,1.53,4.46
													c-0.91,0.6-1.97,0.95-3.06,0.94c-0.55-0.01-1.04-0.58-1.45-0.95c1.12,0.42,2.36,0.31,3.38-0.31
													c-0.92-1.25-1.28-2.94-1.06-4.47C145.76,182.73,146.6,181.11,147.84,180.18z"/>
											</g>
										</g>
									</g>
								</g>
								<g>
									<path style="fill:#FFBF90;" d="M126.81,193.37c-3.47-0.35-5.95-2.48-7.27-4.23c-0.3-0.4-0.53-0.77-0.71-1.11
										c-0.95-1.82-1.09-8.07,1.5-9.47c1.82-0.97,3.08,0.53,3.68,1.52c0,0,0,0,0,0c0.25,0.42,0.39,0.75,0.39,0.75L126.81,193.37z"
										/>
									<path style="fill:#FFA07F;" d="M126.81,193.37c-3.47-0.35-5.95-2.48-7.27-4.23c-0.11-0.18-0.21-0.35-0.3-0.51
										c-0.95-1.82-1.09-8.07,1.5-9.47c1.47-0.79,2.58,0.05,3.27,0.92c0,0,0,0,0,0c0.25,0.42,0.39,0.75,0.39,0.75L126.81,193.37z"
										/>
									<path style="fill:#FF7D6F;" d="M119.41,183.5c-0.14,0.5-0.07,1.02,0.08,1.52c0.65,2.11,2.71,3.76,4.68,5.29
										c-0.58-1.03-0.78-2.18-0.63-3.3c0.05-0.39,0.14-0.77,0.16-1.16C123.75,184.27,120.23,180.56,119.41,183.5z"/>
									<g>
										<path style="fill:#CF4A57;" d="M125.16,190.92c0,0-0.04-0.02-0.11-0.07c-0.07-0.05-0.19-0.11-0.32-0.2
											c-0.26-0.19-0.63-0.48-0.97-0.92c-0.34-0.43-0.64-1.01-0.77-1.68c-0.12-0.67-0.07-1.45,0.3-2.2
											c0.04-0.09,0.1-0.18,0.15-0.27l0.04-0.07c0.01-0.02,0-0.01,0.01-0.01l0,0l0,0l0,0c0,0,0,0-0.01-0.01l-0.03-0.06
											l-0.06-0.12c-0.04-0.08-0.09-0.16-0.13-0.24c-0.18-0.31-0.38-0.6-0.58-0.88c-0.2-0.27-0.42-0.52-0.63-0.75
											c-0.21-0.23-0.42-0.44-0.62-0.6c-0.2-0.16-0.43-0.27-0.64-0.3c-0.21-0.03-0.42,0.01-0.55,0.08
											c-0.14,0.07-0.22,0.15-0.25,0.22c-0.04,0.07-0.03,0.11-0.04,0.1c0,0-0.01-0.04,0.01-0.11c0.02-0.07,0.07-0.18,0.21-0.28
											c0.14-0.1,0.35-0.18,0.64-0.18c0.28,0,0.59,0.11,0.85,0.27c0.27,0.16,0.51,0.36,0.77,0.58c0.25,0.22,0.51,0.47,0.75,0.74
											c0.24,0.27,0.48,0.57,0.69,0.9c0.05,0.08,0.1,0.16,0.16,0.25l0.07,0.13l0.1,0.18l0.07,0.13
											c-0.02,0.04-0.05,0.08-0.07,0.12l-0.11,0.18c-0.05,0.08-0.1,0.15-0.13,0.24c-0.33,0.64-0.41,1.33-0.37,1.94
											c0.06,0.61,0.25,1.16,0.49,1.6c0.24,0.44,0.52,0.77,0.73,0.98c0.1,0.11,0.2,0.19,0.26,0.24
											C125.13,190.89,125.16,190.92,125.16,190.92z"/>
									</g>
									<path style="fill:#3F0727;" d="M120.2,171.45c-0.17,0.63-0.13,1.83-0.02,3.06c0.18,1.9,0.52,3.87,0.52,3.87l3.69,2.44
										c3.62-1.72,2.21-8.15,2.21-8.15c1.44-0.33,2.7-1.36,3.32-2.7c0.62-1.35,0.58-2.99-0.1-4.3c0.69,1.01,2.09,1.45,3.23,1.01
										c1.14-0.42,1.9-1.69,1.75-2.9c1.01,1.32,2.53,2.25,4.17,2.55c0.69,0.13,1.47,0.12,2.05-0.27c0.38-0.26,0.67-0.83,0.7-1.33
										c0.79,2.23,2.34,4.17,4.36,5.4c0.8,0.49,1.9,0.85,2.63,0.25c0.47-0.4,0.59-1.12,0.44-1.72c-0.15-0.6-0.5-1.13-0.86-1.64
										c1.89,2.6,4.4,4.77,7.27,6.25c1.03,0.53,2.21,0.99,3.33,0.68c1.3-0.37,2.11-1.68,2.45-2.98c0.39-1.5,0.28-3.1-0.25-4.55
										c-0.27-0.77-0.68-1.48-1.18-2.11c0,0-9.84-7.99-20.57-8.74c-8.73-0.61-16.46,4.59-19.05,6.55
										c-0.07,0.16-0.21,0.4-0.45,0.75C118.45,165,120.2,171.45,120.2,171.45z"/>
									<path style="fill:#55062C;" d="M119.83,169.86c0.2,0.94,0.37,1.59,0.37,1.59c-0.17,0.63-0.13,1.83-0.02,3.06
										c1.61,0.2,3.35-0.14,4.47-1.3c1.22-1.26,1.3-3.63-0.13-4.63c1.45,0.51,3.06-0.73,3.42-2.22c0.36-1.48-0.2-3.05-0.94-4.38
										c0.85,0.71,1.76,1.44,2.83,1.7c1.08,0.27,2.4-0.09,2.89-1.09c0.41-0.85,0.11-1.89-0.37-2.71c1.17,0.5,2.15,1.33,3.21,2.03
										c1.06,0.69,2.28,1.27,3.54,1.15c1.26-0.11,2.51-1.13,2.48-2.4c0.75,0.78,1.27,1.75,1.95,2.59c0.68,0.84,1.62,1.58,2.7,1.57
										c1.08,0,2.16-1.05,1.86-2.09c1.01,1.49,2.02,2.99,3.32,4.22c1.31,1.22,2.96,2.17,4.75,2.31s3.71-0.64,4.61-2.19
										c0.11-0.21,0.22-0.41,0.29-0.64c-0.27-0.77-0.68-1.48-1.18-2.11c0,0-0.27-0.22-0.77-0.58c-2.52-1.87-10.85-7.53-19.81-8.16
										c-8.73-0.61-16.46,4.59-19.05,6.55c-0.07,0.16-0.21,0.4-0.45,0.75C118.89,164.33,119.41,167.81,119.83,169.86z"/>
									<path style="fill:#6F0A32;" d="M119.83,169.86c0.91,0.01,1.83-0.3,2.45-0.95c0.98-1.02,1.03-2.87-0.06-3.77
										c2.39-0.12,4.36-2.63,3.93-4.98c1.06,0.88,2.68,1.04,3.89,0.36c1.21-0.68,1.92-2.14,1.71-3.51
										c1.14,1.22,3.98,4.16,7.13,3.28c1.29-0.36,2.56-1.55,2.01-2.76c0.94,1.39,1.95,2.85,3.48,3.55
										c1.52,0.7,3.71,0.26,4.29-1.32c0.91,1.56,1.86,3.14,3.23,4.33c1.36,1.18,3.26,1.91,5.01,1.43
										c0.94-0.25,1.76-0.94,2.22-1.78c-2.52-1.87-10.85-7.53-19.81-8.16c-8.73-0.61-16.46,4.59-19.05,6.55
										c-0.07,0.16-0.21,0.4-0.45,0.75C118.89,164.33,119.41,167.81,119.83,169.86z"/>
								</g>
							</g>
						</g>
						<path style="fill:#FFEEDE;" d="M101.22,266.23c-0.19,14.2,1.42,39.5,2.34,53.81c0,0,0,0,0,0.01c1.18,2.56,2.55,4.76,4.15,6.51
							l57.28-2.6l0.27-0.01c0,0,2.28-1.54,4.82-4.16c-0.52-6.46-1.44-18.15-1.71-21c-0.83-8.75-1.84-18.85-2.99-28.81
							c-0.46-4.12-0.97-8.22-1.49-12.2c-0.18-1.44-0.37-2.87-0.56-4.26c-0.6-4.34-1.21-8.45-1.84-12.2
							c-0.62-3.69-1.25-7.01-1.89-9.84c-0.1-0.43-0.29-1.02-0.52-1.69c-2.13-5.96-6.6-10.79-12.35-13.45
							c-0.02-0.01-0.03-0.01-0.03-0.01l-2.38-7.72c0,0-15.25-7.2-22.12-6.18l-5.83,6.32l-1.87,3.07l-7.5,12.27
							c-1.59,4.41-2.8,9.74-3.68,15.61c-0.52,3.43-0.93,7.05-1.25,10.78c-0.15,1.67-0.28,3.36-0.39,5.07
							c-0.16,2.61-0.29,5.24-0.38,7.9C101.25,264.32,101.23,265.25,101.22,266.23z"/>
						<path style="fill:#EAD7CA;" d="M120.35,212.41c0.6,0.38,1.21,0.73,1.82,1.07c0.66-1.43,1.33-2.84,2.01-4.26
							c0.27-0.56,1.23-0.14,1,0.45c-0.58,1.5-1.17,2.99-1.78,4.48c1.05,0.53,2.11,1.02,3.2,1.45c0.34-0.7,0.85-1.35,1.19-2.04
							c0.55-1.1,0.96-2.24,1.29-3.42c0.27-0.95,1.73-0.51,1.47,0.44c-0.34,1.24-0.79,2.44-1.34,3.6c-0.31,0.65-0.65,1.36-1.09,1.97
							c1.15,0.39,2.32,0.72,3.53,0.97c0.08,0.02,0.15,0.02,0.23,0.04c0.38-1.18,1.12-2.31,1.59-3.42c0.58-1.38,1.1-2.79,1.56-4.22
							c0.28-0.87,1.59-0.48,1.36,0.41c-0.42,1.65-0.92,3.26-1.54,4.85c-0.33,0.85-0.66,1.8-1.12,2.64c1.43,0.12,2.86,0.12,4.28,0.15
							c0.21-0.55,0.51-1.07,0.76-1.6c0.47-0.98,0.94-1.94,1.55-2.84c0.29-0.42,0.92-0.13,0.81,0.36c-0.26,1.06-0.64,2.06-1.05,3.07
							c-0.14,0.35-0.27,0.72-0.42,1.08c0.97,0.05,1.93,0.16,2.88,0.37c0.34,0.08,0.37,0.58,0.08,0.73
							c-6.76,3.63-17.6-0.57-23.41-4.45C118.05,213.48,119.15,211.66,120.35,212.41z"/>
						<path style="fill:#EF8A3D;" d="M103.56,320.04C103.56,320.04,103.56,320.04,103.56,320.04c1.18,2.57,2.55,4.77,4.15,6.52
							c0.17,0.18,0.33,0.37,0.51,0.54l56.77-3.14l0.27-0.01c0,0,2.28-1.54,4.82-4.16c3.51-3.62,7.52-9.32,6.65-15.89
							c-1.5-11.33-17.77-83.37-20.04-84.99c-1.51-2.05-9.31-2.45-9.97-2.56c-0.02-0.01-0.03-0.01-0.03-0.01s-5.64,15.72-10.64,19.27
							c0,0-19.6-16.01-21.56-23.79c0,0-10.06,2.46-12.15,6.2C99.8,222.54,91.35,293.47,103.56,320.04z"/>
						<path style="fill:#AD6331;" d="M157.82,230.19c5.02,18.18,9.48,37.23,10.15,56.16c0.05,1.53-2.44,1.84-2.71,0.3
							c-3.32-18.64-5.18-37.54-8.59-56.18C156.53,229.73,157.62,229.45,157.82,230.19z"/>
						<path style="fill:#AD6331;" d="M106.62,314.38c18.76,2.91,36.71,2.8,55.1-0.66c0.1-0.04,0.2-0.06,0.3-0.06
							c2.21-0.42,4.43-0.88,6.65-1.4c0.61-0.14,0.82,0.75,0.24,0.94c-1.89,0.61-3.81,1.16-5.75,1.68c0.71,1.36,1.26,2.95,1.1,4.42
							c-0.07,0.65-0.91,0.75-1.12,0.13c-0.49-1.45-0.8-2.81-1.52-4.14c-1.19,0.3-2.39,0.58-3.59,0.84c0.74,1.15,1.19,2.57,0.74,3.87
							c-0.18,0.52-1,0.56-1.13-0.03c-0.28-1.3-0.45-2.46-1.34-3.49c-1.57,0.32-3.15,0.59-4.74,0.85c-0.11,0.55-0.26,1.07-0.27,1.65
							c-0.01,0.62,0.29,1.28,0.04,1.87c-0.15,0.35-0.62,0.67-1,0.38c-0.93-0.72-0.83-2.39-0.33-3.64c-1.48,0.22-2.97,0.4-4.47,0.57
							c-0.09,0.48-0.22,0.95-0.29,1.43c-0.09,0.59-0.08,1.18-0.11,1.77c-0.04,0.85-1.45,1.1-1.57,0.18c-0.13-1-0.04-2.2,0.35-3.21
							c-2.39,0.23-4.78,0.37-7.18,0.46c-0.16,0.35-0.37,0.68-0.52,1.03c-0.25,0.58-0.43,1.19-0.56,1.81
							c-0.21,1.02-1.84,0.56-1.57-0.47c0.18-0.7,0.45-1.55,0.85-2.3c-2.16,0.05-4.33,0.03-6.49-0.03c-0.3,0.77-0.65,1.53-0.99,2.28
							c-0.31,0.71-0.52,1.6-1.25,1.97c-0.32,0.16-0.73,0.01-0.82-0.36c-0.19-0.81,0.34-1.53,0.68-2.24
							c0.28-0.57,0.55-1.15,0.83-1.72c-2.1-0.09-4.2-0.25-6.28-0.45c-0.33,0.54-0.67,1.08-0.96,1.64c-0.37,0.71-0.53,1.46-0.78,2.21
							c-0.24,0.74-1.49,0.61-1.4-0.22c0.14-1.36,0.77-2.73,1.7-3.76c-2.1-0.23-4.18-0.52-6.25-0.87c-0.32,0.82-0.93,1.57-1.32,2.36
							c-0.5,1.01-0.71,2.1-1.17,3.11c-0.31,0.68-1.4,0.28-1.36-0.4c0.06-1.16,0.61-2.33,1.13-3.36c0.32-0.64,0.7-1.4,1.21-1.98
							c-1.7-0.31-3.38-0.65-5.05-1.04C105.48,315.78,105.69,314.24,106.62,314.38z"/>
						<g>
							<path style="fill:#D94562;" d="M119.49,167.89c0,0,30.12-13.21,41.57-1.52c0,0-0.89-9.15-2.16-10.55
								c-1.27-1.4-3.22-1.86-3.22-1.86s-6.94-14.77-16.28-14.87c-9.34-0.09-24.71,9.22-24.28,11.3c0.44,2.08,4.56,3.11,4.56,3.11
								l-0.28,5.32c0,0-2.08,1.1-2.3,3.49C116.88,164.69,119.49,167.89,119.49,167.89z"/>
							<path style="fill:#AA2B48;" d="M152.61,152.39c-10.53-0.75-20.42,1.2-29.8,6.01c-0.23,0.12-0.07,0.53,0.18,0.43
								c9.38-3.73,19.56-5.39,29.63-4.71C153.74,154.2,153.72,152.47,152.61,152.39z"/>
							<path style="fill:#AA2B48;" d="M123.06,164.25c-0.06-0.46-0.32-0.92-0.5-1.35l-0.55-1.33c-0.28-0.67-1.38-0.4-1.12,0.3
								c0.18,0.48,0.36,0.96,0.54,1.43c0.17,0.45,0.3,0.98,0.58,1.38C122.4,165.23,123.15,164.89,123.06,164.25z"/>
							<path style="fill:#AA2B48;" d="M127.45,162.13c0.01-0.86-0.7-1.8-1.15-2.49c-0.33-0.51-1.13-0.06-0.83,0.47
								c0.22,0.39,0.43,0.79,0.62,1.2c0.18,0.4,0.29,0.81,0.6,1.13C126.96,162.73,127.45,162.51,127.45,162.13z"/>
							<path style="fill:#AA2B48;" d="M131.88,160.48c-0.12-0.46-0.38-0.88-0.6-1.3c-0.22-0.43-0.44-0.85-0.65-1.28
								c-0.42-0.83-1.61-0.11-1.23,0.71c0.39,0.84,0.71,1.84,1.27,2.57C131.13,161.79,132.04,161.13,131.88,160.48z"/>
							<path style="fill:#AA2B48;" d="M136.61,159.83c0.06-0.5-0.31-1.03-0.52-1.47c-0.23-0.5-0.5-0.99-0.76-1.48
								c-0.27-0.51-1.15-0.17-0.95,0.39c0.19,0.54,0.38,1.08,0.6,1.61c0.21,0.52,0.35,1.08,0.82,1.42
								C136.17,160.57,136.57,160.19,136.61,159.83z"/>
							<path style="fill:#AA2B48;" d="M140.71,158.98c-0.33-0.95-0.79-1.87-1.19-2.79c-0.26-0.6-1.3-0.17-1.06,0.44
								c0.37,0.93,0.7,1.91,1.14,2.81C139.91,160.05,140.94,159.63,140.71,158.98z"/>
							<path style="fill:#AA2B48;" d="M144.72,156.98c-0.25-0.6-0.58-1.16-0.94-1.71c-0.3-0.46-0.96-0.07-0.73,0.42
								c0.26,0.56,0.48,1.14,0.67,1.72c0.17,0.52,0.22,1.15,0.59,1.56c0.26,0.28,0.75,0.13,0.84-0.23
								C145.3,158.16,144.95,157.51,144.72,156.98z"/>
							<path style="fill:#AA2B48;" d="M149.42,158.11c-0.16-0.97-0.69-1.95-1.06-2.86c-0.23-0.57-1.13-0.37-0.95,0.26
								c0.28,0.99,0.47,2.12,0.97,3.03c0.1,0.18,0.3,0.29,0.5,0.29c0.17,0,0.27-0.06,0.4-0.16
								C149.44,158.53,149.45,158.3,149.42,158.11z"/>
							<path style="fill:#AA2B48;" d="M153.37,157.33c-0.16-0.68-0.42-1.28-0.79-1.86c-0.25-0.4-0.97-0.16-0.8,0.33
								c0.19,0.57,0.35,1.17,0.45,1.75c0.1,0.57-0.05,1.26,0.23,1.76c0.2,0.37,0.74,0.35,0.95,0
								C153.73,158.76,153.5,157.92,153.37,157.33z"/>
							<path style="fill:#AA2B48;" d="M157.53,161.16c0.12-0.84-0.08-1.74-0.26-2.55c-0.19-0.85-0.46-1.73-0.96-2.46
								c-0.28-0.41-0.87-0.16-0.79,0.32c0.14,0.78,0.39,1.54,0.55,2.32c0.16,0.78,0.13,1.6,0.31,2.37
								C156.5,161.72,157.44,161.77,157.53,161.16z"/>
							<path style="fill:#AA2B48;" d="M128.98,149.75c-2.12,0.42-4.18,1.24-6.24,1.97c1.12-1.06,2.07-2.31,2.86-3.62
								c0.15-0.25-0.22-0.56-0.42-0.32c-1.34,1.61-2.83,3.05-4.25,4.58c-0.21,0.23-0.01,0.66,0.32,0.55c2.63-0.86,5.46-1.38,8-2.5
								C129.65,150.24,129.36,149.68,128.98,149.75z"/>
						</g>
						<g>
							<polygon style="fill:#937B79;" points="99.17,319.13 96.24,325.82 102.93,328.3 133.51,311.26 132.33,308.76 131.15,306.26 
															"/>
							<polygon style="fill:#9AA49F;" points="139.3,331.65 147.66,327.7 138.03,312.67 135.92,313.67 133.8,314.67 							"/>
							<polygon style="fill:#9AA49F;" points="127.67,285.43 119.32,289.38 128.94,304.4 131.06,303.4 133.17,302.4 							"/>
							<polygon style="fill:#E0E0E0;" points="239.7,258.58 216.18,254.33 130.65,305.77 132.34,309.34 							"/>
							<polygon style="fill:#CECECE;" points="239.7,258.58 228.06,279.45 134.02,312.91 132.34,309.34 							"/>
							<polygon style="fill:#BFBEBE;" points="132.83,316.37 139.96,313 140.61,305.13 134.12,300.64 126.98,304.01 126.33,311.88 
															"/>
							<polygon style="fill:#9AA49F;" points="133.03,313.87 137.9,311.57 138.34,306.2 133.91,303.14 129.04,305.44 128.6,310.81 
															"/>
						</g>
						<g>
							<path style="fill:#EF8A3D;" d="M86.52,267.19c-2.32-1.58-3.85-3.68-4.62-5.95c-3.93,0.09-7.78-0.06-11.8-0.63
								c-1.1-0.16-2.07-0.49-2.93-0.95c-5.08,4.59-8.26,8.8-7.92,11.94C60.63,284.54,96,311.08,96,311.08l16.29-15.9L93.97,269.7
								C91.32,269.51,88.79,268.74,86.52,267.19z"/>
							<g>
								<g>
									<path style="fill:#FFA07F;" d="M129.02,324.8c-1.6,0.73-5.34-10.83-5.34-10.83l-3.37-0.16l1.11,4.97l-2.04,7.14
										c0,0-1.43,0.22-3.19,0.39c-0.22,0.02-0.44,0.04-0.67,0.06c-1.05,0.09-2.18,0.14-3.15,0.11c-0.09,0-0.19,0-0.28-0.01
										c-0.49-0.03-0.93-0.07-1.3-0.15c-0.41-0.09-0.73-0.21-0.92-0.38l0.34-5.78c0,0-5.88-5.39-6.27-6.54
										c-0.15-0.46,0.35-2.51,1-4.81c0.32-1.1,8.6-8.65,8.6-8.65c0.68,0.4,5.62,5.76,6.58,6.41l0,0c0.47,0.32,0.97,0.66,1.47,1.02
										c1.8,1.3,3.65,2.82,4.8,4.3c0.49,0.63,0.86,1.25,1.04,1.84C128.71,317.83,130.61,324.08,129.02,324.8z"/>
									<g>
										<g>
											<path style="fill:#CF4A57;" d="M112.37,326.49c-0.09,0-0.19,0-0.28-0.01c0.04-0.24,0.11-0.55,0.18-0.92
												c0.16-0.85,0.36-2,0.56-3.24c0.18-1.25,0.27-2.38,0.25-3.24c-0.01-0.22-0.02-0.41-0.03-0.59
												c-0.02-0.17-0.04-0.32-0.06-0.45c-0.03-0.25-0.04-0.4-0.04-0.4s0.08,0.12,0.22,0.35c0.07,0.11,0.15,0.26,0.24,0.42
												c0.07,0.17,0.15,0.37,0.24,0.59c0.33,0.89,0.54,2.22,0.34,3.59c-0.21,1.36-0.72,2.47-1.16,3.21
												C112.65,326.09,112.5,326.31,112.37,326.49z"/>
										</g>
										<g>
											<path style="fill:#CF4A57;" d="M116.19,326.32c-0.22,0.02-0.44,0.04-0.67,0.06c0-0.05,0.02-0.1,0.03-0.15
												c0.16-0.85,0.36-2,0.56-3.24c0.19-1.25,0.28-2.39,0.25-3.25c-0.01-0.22-0.02-0.41-0.03-0.58
												c-0.02-0.18-0.04-0.33-0.06-0.45c-0.03-0.25-0.05-0.39-0.05-0.39s0.08,0.12,0.22,0.35c0.07,0.11,0.15,0.26,0.24,0.43
												c0.08,0.17,0.16,0.37,0.24,0.59c0.33,0.89,0.54,2.22,0.33,3.59C117.07,324.54,116.61,325.58,116.19,326.32z"/>
										</g>
									</g>
								</g>
							</g>
							<g>
								<polygon style="fill:#FFEEDE;" points="114.12,292.99 118.61,299.23 100.99,315.98 94.62,312.49 								"/>
							</g>
							<path style="fill:#EF8A3D;" d="M103.92,216.29l-38.6,45.12l22.52,12.55l6.14-4.25l-1.36-2.19c0,0,8.86-11.41,9.97-14.24
								C103.71,250.46,103.92,216.29,103.92,216.29z"/>
						</g>
						<path style="fill:#AD6331;" d="M109.99,291.98c0,0-7.35-10.23-9.92-13.8c-2.57-3.57-6.45-9.02-6.52-10.39
							s12.23-19.98,13.08-21.25c-0.92-2.25-7.9,8.63-9.21,10c-1.31,1.38-6.96,8.42-6.96,10.75c0,1.42,3.83,5.46,5.58,8.42
							c1.75,2.96,5.47,7.55,7.4,10.15C105.37,288.45,110.25,294.43,109.99,291.98z"/>
						<path style="fill:#AD6331;" d="M91.5,265.72c-0.96-0.22-1.92-0.45-2.87-0.67c-0.42-0.1-0.85-0.2-1.28-0.16
							c-0.43,0.04-0.87,0.24-1.08,0.61c-0.04,0.07-0.07,0.16-0.06,0.24c0.01,0.06,0.05,0.12,0.09,0.17c0.33,0.4,0.89,0.5,1.4,0.61
							c0.94,0.2,1.86,0.5,2.74,0.89c-1.61,0.28-3.19,0.71-4.71,1.29c-0.12,0.05-0.27,0.13-0.25,0.27c0.01,0.09,0.11,0.15,0.19,0.19
							c0.96,0.46,2.06,0.56,3.12,0.46c1.06-0.1,2.09-0.39,3.12-0.67c0.11-0.03,0.24-0.16,0.14-0.22"/>
					</g>
					<path style="fill:#8CEEE4;" d="M155.21,189.99c0,0-0.59,3.41-1.64,6.99c-1.04,3.56-2.54,7.28-4.36,8.01
						c-4.54,0.04-13.47-4.49-17.78-8.2c-0.02-0.01-0.03-0.02-0.03-0.02c-0.53-0.46-0.99-0.9-1.36-1.32c0,0-1.83-5.2-0.5-10.81
						c0,0,8.74,0.23,12.12-0.3c3.38-0.52,4.56-0.56,4.56-0.56S151.95,186.47,155.21,189.99z"/>
					<path style="fill:#8CEEE4;" d="M124.36,181.74l5.06,5.55l0.13-2.65l-6.36-4.62C123.18,180.02,123.98,181.28,124.36,181.74z"/>
					<path style="fill:#8CEEE4;" d="M124.42,192.81l5.87,0.55l-0.25,2.08c0,0-5.08-1.5-5.46-1.71
						C124.21,193.53,124.42,192.81,124.42,192.81z"/>
					<path style="fill:#88DBD1;" d="M153.58,196.77l-0.01,0.21c-1.04,3.56-2.54,7.28-4.36,8.01c-4.54,0.04-13.47-4.49-17.78-8.2
						c0.74,0.34,13,6,16.42,5.54C151.37,201.86,153.58,196.77,153.58,196.77z"/>
				</g>
			</g>
			<g>
				<g>
					<polygon style="fill:#FFFFFF;" points="93.59,173.27 110.71,179.27 94.2,182.04 					"/>
					<polygon style="fill:#FFFFFF;" points="112,164.72 113.66,174.86 107.8,167.4 					"/>
					<polygon style="fill:#FFFFFF;" points="104.72,187.65 114.23,183.76 108.27,191.14 					"/>
				</g>
			</g>
			<g>
				<g>
					<path style="fill:#FFFFFF;" d="M239.7,205.37l-1.12-1.76l-0.22,2.08c-0.3,2.9-1.67,5.59-3.85,7.54l0,0l0,0
						c2.81,0.78,5.24,2.57,6.8,5.04l1.12,1.76l0.22-2.08c0.3-2.9,1.67-5.59,3.85-7.54l0,0l0,0
						C243.68,209.63,241.26,207.83,239.7,205.37z"/>
					<path style="fill:#FFFFFF;" d="M226.05,259.57l-0.85-1.33l-0.16,1.57c-0.23,2.2-1.27,4.23-2.91,5.7l0,0l0,0
						c2.13,0.59,3.96,1.95,5.15,3.81l0.85,1.33l0.16-1.57c0.23-2.2,1.27-4.23,2.91-5.7h0h0
						C229.07,262.79,227.23,261.43,226.05,259.57z"/>
					<path style="fill:#FFFFFF;" d="M176.78,215.86l-0.72-1.13l-0.14,1.33c-0.19,1.86-1.07,3.59-2.47,4.84l0,0l0,0
						c1.81,0.5,3.36,1.65,4.37,3.23l0.72,1.13l0.14-1.33c0.19-1.86,1.07-3.59,2.47-4.84l0,0l0,0
						C179.34,218.6,177.79,217.45,176.78,215.86z"/>
				</g>
			</g>
		</g>
	</g>
	<path style="fill:#AD6331;" d="M19.15,188.51"/>
	<g>
	</g>
	<g>
	</g>
	<g>
	</g>
	<g>
	</g>
	<g>
	</g>
	<g>
	</g>
</g>
</svg>
