<svg xmlns="http://www.w3.org/2000/svg" xmlns:xlink="http://www.w3.org/1999/xlink" viewBox="0 0 411.91 529.73"><defs><style>.cls-1,.cls-10{fill:none;}.cls-2{fill:#fff5db;}.cls-3{fill:#6eb7ac;}.cls-4{fill:#ffafaf;}.cls-5{fill:#d87575;opacity:0.4;}.cls-6{fill:#44193b;}.cls-7,.cls-9{fill:#1c0a18;}.cls-7{opacity:0.3;}.cls-8{fill:#37142e;}.cls-9{opacity:0.5;}.cls-10{stroke:#fcfcfc;stroke-miterlimit:10;stroke-width:1.52px;}.cls-11{fill:#83dbd1;}.cls-12{fill:#fcfcfc;}.cls-13{fill:#8ff2e9;}.cls-14{fill:#040f10;opacity:0.2;}.cls-15{fill:#140711;}.cls-16{fill:#bf6a6a;}.cls-17{clip-path:url(#clip-path);}.cls-18{fill:#ef8a3d;}.cls-19{fill:#d87430;}.cls-20{fill:#ff5748;}</style><clipPath id="clip-path" transform="translate(-39.27 -35.71)"><rect class="cls-1" x="53.36" y="235.06" width="353" height="264.94"/></clipPath></defs><title>heroImg-svg</title><g id="BACKGROUND"><path class="cls-2" d="M249.49,431.29q-82,0-135.32-58.56T60.81,237.4q0-76.77,59.86-139.23T258.6,35.71q78.07,0,135.33,62.46t57.26,144.44q0,82-59.86,135.33T249.49,431.29Z" transform="translate(-39.27 -35.71)"/></g><g id="OBJECTS"><path class="cls-3" d="M171.34,201.51s-7.27-5.26-1.6-6.3,4.78,4.41,4.78,4.41Z" transform="translate(-39.27 -35.71)"/><path class="cls-4" d="M181.57,313s20.12-28.06,13.76-58.24S171,194.39,171,194.39s-18-50.83,16.41-78.9,124.44-21.18,152,23.3c0,0,16.19,32.14,17.25,49.61l-2.32,13.33s12.61,39.26,12.61,44-1.06,8.48-13.77,7.42L324.93,319l-24.22-4.9s-21.18,21.71-24.89,46.07S181.57,313,181.57,313Z" transform="translate(-39.27 -35.71)"/><path class="cls-5" d="M196.09,274.78c-2.55,21.5-14.52,38.22-14.52,38.22s90.54,71.49,94.25,47.13c2.48-16.32,18.34-37.86,24.89-46.07C253.51,289.18,221.59,280.25,196.09,274.78Z" transform="translate(-39.27 -35.71)"/><polygon class="cls-5" points="268.85 280.2 258.52 250.02 284.73 232.81 289.5 219.57 288.97 191.51 315.71 199.98 296.91 267.5 280.5 282.06 268.85 280.2"/><path class="cls-6" d="M311.43,165.27s-7.15-21.45-14.69-33.36-92.93-21-92.93-21l-1.44,4.3-.15-4.7L164.49,147c1.35,9.51,5.16,48.05,5.16,48.05,12.18,17.48,27.45,74.27,27.45,74.27s17.74-10.45,26.87-17.21c0,0-5.07-47.53,13.2-60.23s34.94,2.38,39.31,18.26,1.59,23.44,1.59,23.44l13.09,2.9s4-34.18,6-54.14Z" transform="translate(-39.27 -35.71)"/><path class="cls-7" d="M236.18,158.13c1.59-13.79,5.33-29.23,13.86-40.77-23.2-4-46.23-6.5-46.23-6.5l-1.44,4.3-.15-4.7L164.49,147c1.35,9.51,5.16,48.05,5.16,48.05,12.18,17.48,27.45,74.27,27.45,74.27s17.74-10.45,26.87-17.21c0,0-5.07-47.53,13.2-60.23l.1-.07A111.24,111.24,0,0,1,236.18,158.13Z" transform="translate(-39.27 -35.71)"/><path class="cls-8" d="M290.65,82.66c-60.9-20.12-80-4.23-80-4.23,22.77-6.36,46.07-.53,46.07-.53-72-5.83-84.2,30.71-84.2,30.71a80.13,80.13,0,0,1,30.19-19.06c-51.37,25.41-45,75.19-45,75.19,1.06-7.42,5.29-8.47,5.29-8.47l-3.17,10.59,3.7-4.77c.06.29.13.66.2,1.09a47.69,47.69,0,0,1,3.91-4.27l-1.2,9.14,4-8c-1.2,6.76,2.38,9.54,2.38,9.54-.37-6.55,2.33-13,4.72-17.3-3.41,7.42-3.13,18.49-3.13,18.49.39-16.29,19.06-23.83,19.06-23.83a43.78,43.78,0,0,1-.79,17.47c8.27-3.84,12.81-18.68,14.59-26-1.25,10.39,5.26,18.48,5.26,18.48-5.16-17.48,7.15-30.58,7.15-30.58a27.22,27.22,0,0,0-3.18,25.81c2-9.53,11.12-14.69,11.12-14.69,0,2.78,2.78,6.35,2.78,6.35,2.39-10.72,15.89-14.69,15.89-14.69a28.41,28.41,0,0,0-11.52,12.71c17.87-14.7,40.51-7.15,40.51-7.15a98.32,98.32,0,0,0-26.21,1.59c35.74,9.53,73.87.39,73.87.39-2,2-20.65,5.17-20.65,5.17,29,1.58,43.42-12.05,43.42-12.05C341,142,308.65,143.56,308.65,143.56c7.94,0,46.07,1.59,49.78-24.36S351.54,102.78,290.65,82.66ZM179.79,148.73c1.31-1.89,1.77-2.18,0,0Z" transform="translate(-39.27 -35.71)"/><path class="cls-9" d="M343.21,120.59c-20.48,5.67-88.08,12-116.34-11.53A46.92,46.92,0,0,1,210.18,81c-31.17,8.31-37.62,27.61-37.62,27.61a80.13,80.13,0,0,1,30.19-19.06c-51.37,25.41-45,75.19-45,75.19,1.06-7.42,5.29-8.47,5.29-8.47l-3.17,10.59,3.7-4.77c.06.29.13.66.2,1.09a47.69,47.69,0,0,1,3.91-4.27l-1.2,9.14,4-8c-1.2,6.76,2.38,9.54,2.38,9.54-.37-6.55,2.33-13,4.72-17.3-3.41,7.42-3.13,18.49-3.13,18.49.39-16.29,19.06-23.83,19.06-23.83a43.78,43.78,0,0,1-.79,17.47c8.27-3.84,12.81-18.68,14.59-26-1.25,10.39,5.26,18.48,5.26,18.48-5.16-17.48,7.15-30.58,7.15-30.58a27.22,27.22,0,0,0-3.18,25.81c2-9.53,11.12-14.69,11.12-14.69,0,2.78,2.78,6.35,2.78,6.35,2.39-10.72,15.89-14.69,15.89-14.69a28.41,28.41,0,0,0-11.52,12.71c17.87-14.7,40.51-7.15,40.51-7.15a98.32,98.32,0,0,0-26.21,1.59c35.74,9.53,73.87.39,73.87.39-2,2-20.65,5.17-20.65,5.17,29,1.58,43.42-12.05,43.42-12.05C341,142,308.65,143.56,308.65,143.56c7.94,0,46.07,1.59,49.78-24.36a48.65,48.65,0,0,0,.63-8.63A32.08,32.08,0,0,1,343.21,120.59Z" transform="translate(-39.27 -35.71)"/><path class="cls-10" d="M330.49,227.62S277,208.13,257.62,203.89s-41-8.61-38.92,8c1.29,10.33,16.88,28,86.77,67.71" transform="translate(-39.27 -35.71)"/><path class="cls-11" d="M213.6,205.2c2.14,2.47,7,1.62,7-.28s-1.43-.37-2.34-.54-2.72-1.9-.42-3.13,10.74.88,9.38,9.26-10.47,8.74-11.27,6.91,1.13-2.77,3.18-2.58,2.64-2.92-2.52-2.43c-1.63.16-3.32-.19-4.27,1.8" transform="translate(-39.27 -35.71)"/><path class="cls-11" d="M202,204.53c1.61,2.26,6.08,1.71,6-.19s-1.3-.38-2.13-.56-2.49-1.92-.41-3.13,9.8,1,8.63,9.33-9.47,8.64-10.22,6.81,1-2.76,2.88-2.56,1.74-3.26-2-2.73c-1,.14-2.15-.08-2.95,1.57" transform="translate(-39.27 -35.71)"/><path class="cls-11" d="M192,204.38c.77,1.6,4.89,2.92,5.09.52.1-1.11-.93-.94-1.66-1.11s-2.2-1.89-.39-3,8.59,1,7.64,9.13-8.2,8.3-8.88,6.52.86-2.67,2.5-2.46,2.07-2.63-2.05-2.39c-.95.05-2.74-.39-3.47,1.53" transform="translate(-39.27 -35.71)"/><path class="cls-11" d="M183.26,204.4s4,1.63,4.24-.94c.19-1.71-1.05-.37-1.71-.55s-2-1.79-.32-2.85,7.82,1.08,6.88,8.64-7.56,7.65-8.16,6,.81-2.48,2.3-2.26,1.91-2.43-1.85-2.27c-.86,0-2.5-.39-3.18,1.39" transform="translate(-39.27 -35.71)"/><path class="cls-11" d="M182.79,202.07c-2.19-3-14.07-2.33-14.94-4.48-.61-1.5.9-2.13,1.89-2.38-.07-.12-.14-.22-.2-.34-1.76.51-2.14.93-2.16,3.34,0,2.76-.35,9.48,0,11.54s2.39,2.52,8.44,4.56,7.53-3,7.77-4.41S185,205.05,182.79,202.07Z" transform="translate(-39.27 -35.71)"/><path class="cls-12" d="M218.49,214.53a5.6,5.6,0,0,1,1.41-.69,11.88,11.88,0,0,1-.45-2,10.89,10.89,0,0,1,.69-6.11,5.27,5.27,0,0,1-1.32-.73,12.37,12.37,0,0,0-.87,7A14.14,14.14,0,0,0,218.49,214.53Z" transform="translate(-39.27 -35.71)"/><path class="cls-12" d="M367,229.33l-39.48-6.44s4.38,38,4.35,37.26-6.39,10.38-6.39,10.38l-20.65,8.21-8.13,5.14,24.71,40.45,26-18.8-1.68-3.72L361.2,285l-2.43-3.69,10-20.91Z" transform="translate(-39.27 -35.71)"/><polygon class="cls-13" points="288.1 284.28 265.87 251.61 273.04 247.51 290.74 241.46 300.42 224.86 296.16 195.7 328.02 199.41 329.5 224.65 319.5 245.56 321.93 249.25 306.45 266.1 308.12 269.82 288.1 284.28"/><polygon class="cls-11" points="273.04 247.51 290.74 241.46 300.42 224.86 296.16 195.7 328.02 199.41 328.09 200.47 297.47 196.91 301.73 226.07 292.06 242.67 274.35 248.72 267.19 252.82 288.43 284.05 288.1 284.28 265.87 251.61 273.04 247.51"/><path class="cls-14" d="M304.79,278.74l20.65-8.21,1-1.71,19,38.16-24,17.35-24.71-40.45Z" transform="translate(-39.27 -35.71)"/><path class="cls-14" d="M326.51,268.68c1.79-3.11,5.24-9,5.32-8.54,0,0,0-.14-.05-.31L361.2,285l-15.48,16.84,1.68,3.72Z" transform="translate(-39.27 -35.71)"/><path class="cls-14" d="M368.77,260.37l-8.85,18.5L331.7,259.13c-.14-1.1-.36-3-.65-5.42Z" transform="translate(-39.27 -35.71)"/><path class="cls-8" d="M358.69,185.72s-1.8,10.83-11.52,8.74c-6.75-1.46-16-3.58-16-3.58s-9.4,1.59-16.15,6c0,0,6.75-10.72,15.88-13.5S350.75,187.71,358.69,185.72Z" transform="translate(-39.27 -35.71)"/><path class="cls-15" d="M341.75,209.18c-.78,4.82-2.8,8.49-4.51,8.22s-2.47-4.41-1.69-9.23,2.8-8.49,4.52-8.21S342.53,204.36,341.75,209.18Z" transform="translate(-39.27 -35.71)"/><path class="cls-4" d="M267.61,209.75S249.87,171.89,232.93,196c-12.34,17.55,20.65,67.25,33.09,48.19" transform="translate(-39.27 -35.71)"/><path class="cls-16" d="M267.61,209.75s-.84-1.71-2.58-4.54c-.87-1.41-2-3.1-3.34-5a46.33,46.33,0,0,0-5-5.84,22.51,22.51,0,0,0-7.36-5.1,11.12,11.12,0,0,0-4.69-.78,10.49,10.49,0,0,0-4.7,1.48,17.55,17.55,0,0,0-4,3.34c-.6.66-1.17,1.36-1.71,2.08-.26.36-.56.75-.78,1.09a10.47,10.47,0,0,0-.69,1.17c-1.63,3.14-1.94,7-1.63,10.63a45.5,45.5,0,0,0,2.5,10.82,67.05,67.05,0,0,0,4.49,9.86,65.73,65.73,0,0,0,5.59,8.47,42.8,42.8,0,0,0,6.25,6.56,19.39,19.39,0,0,0,6.57,3.75,7.94,7.94,0,0,0,5.69-.25,9.89,9.89,0,0,0,3.63-3.09l.21-.27-.19.29a8.42,8.42,0,0,1-.58.83,8.59,8.59,0,0,1-2.92,2.55,8.47,8.47,0,0,1-6,.58,19,19,0,0,1-7-3.63,43.3,43.3,0,0,1-6.63-6.53,59.67,59.67,0,0,1-5.89-8.53,63.14,63.14,0,0,1-4.68-10.07,43.54,43.54,0,0,1-2.57-11.21A20.52,20.52,0,0,1,231.48,197a11.8,11.8,0,0,1,.76-1.23c.29-.44.56-.78.85-1.17a27.1,27.1,0,0,1,1.83-2.16,18.1,18.1,0,0,1,4.37-3.49,11.79,11.79,0,0,1,5.25-1.53,12.14,12.14,0,0,1,5.12,1,23.26,23.26,0,0,1,7.54,5.47,48.58,48.58,0,0,1,4.88,6.11c1.31,1.92,2.35,3.66,3.17,5.11C266.86,208,267.61,209.75,267.61,209.75Z" transform="translate(-39.27 -35.71)"/><path class="cls-5" d="M230.69,200.8c-11.34,18,20.65,67.22,33.75,45.22l0-.36C251,257.63,226.19,220.32,230.69,200.8Z" transform="translate(-39.27 -35.71)"/><path class="cls-5" d="M258.84,214.33c-.36-5.34-4-7.53-.08-10.6l-.19-.32s-16.8-18.4-20.89-1.21,16.88,33.29,16.88,33.29c3.07-3.14,5.91-2.69,7.84-1.67a47.49,47.49,0,0,1-4.8-9.59C254.38,221.28,251.35,221.82,258.84,214.33Z" transform="translate(-39.27 -35.71)"/><path class="cls-16" d="M242.64,208.84a12.49,12.49,0,0,1,1.37-1.05,16.74,16.74,0,0,1,4.11-2,10.27,10.27,0,0,1,3.11-.53,7,7,0,0,1,3.54.9,7.59,7.59,0,0,1,2.76,2.78,11.45,11.45,0,0,1,.88,1.79c.11.3.22.57.31.9a9.05,9.05,0,0,1,.24,1,6.29,6.29,0,0,1,0,2.12,5.56,5.56,0,0,1-.85,2,14.56,14.56,0,0,1-2.7,2.58c-.4.37-.56.67-.55.93a2.07,2.07,0,0,0,.57,1.08,16.09,16.09,0,0,0,2.15,1.93c1.46,1.12,2.75,2,3.65,2.62s1.41,1,1.41,1-.58-.25-1.57-.71l-1.77-.88c-.68-.35-1.44-.76-2.24-1.26a13.51,13.51,0,0,1-2.5-1.88,3.18,3.18,0,0,1-1-1.74,2,2,0,0,1,.23-1.22,3.57,3.57,0,0,1,.64-.84,16.71,16.71,0,0,0,2.41-2.45,3.94,3.94,0,0,0,.58-1.41,4.94,4.94,0,0,0,0-1.58c0-.28-.12-.53-.17-.79s-.19-.58-.29-.87a12.45,12.45,0,0,0-.72-1.53,6.6,6.6,0,0,0-2.17-2.36,6,6,0,0,0-2.86-.91,10.54,10.54,0,0,0-2.84.22,19,19,0,0,0-4.19,1.43C243.18,208.52,242.64,208.84,242.64,208.84Z" transform="translate(-39.27 -35.71)"/><path class="cls-16" d="M264.9,235.82a9.38,9.38,0,0,0-2.36-1.76c-.21-.12-.44-.2-.66-.3a5.58,5.58,0,0,0-.69-.23,3.22,3.22,0,0,0-.7-.14,3.35,3.35,0,0,0-.71-.06,2.75,2.75,0,0,0-.7,0,4,4,0,0,0-.69.13l-.67.22c-.22.09-.42.21-.63.32a2.7,2.7,0,0,0-.6.37l-.57.41c-.19.15-.35.33-.53.48l-.52.49-.28.27-.29-.22a60.3,60.3,0,0,1-6.32-5.61c-1-1-1.94-2-2.84-3.13s-1.78-2.2-2.59-3.36a36.26,36.26,0,0,1-2.28-3.59,36.85,36.85,0,0,1-1.88-3.84,27.55,27.55,0,0,1-1.34-4.09,22.79,22.79,0,0,1-.62-4.27,20.23,20.23,0,0,1,.21-4.33l.22-1.07L237,202l.14-.51.3-1,.4-1a9.23,9.23,0,0,1,2.52-3.68,6,6,0,0,1,4.26-1.44,11.09,11.09,0,0,1,4.21,1.12,20.66,20.66,0,0,1,3.64,2.21,38.36,38.36,0,0,1,6.12,5.75c-1-1-2.07-1.87-3.14-2.76a39.91,39.91,0,0,0-3.36-2.44,25.2,25.2,0,0,0-3.62-1.93,10,10,0,0,0-3.86-.86,4.89,4.89,0,0,0-3.42,1.31,8.79,8.79,0,0,0-2,3.23l-.33.91-.27,1-.13.51-.09.47-.18,1a21.5,21.5,0,0,0-.15,4,20.81,20.81,0,0,0,.61,4,31.06,31.06,0,0,0,1.26,3.86,33.76,33.76,0,0,0,1.77,3.69c.66,1.2,1.38,2.36,2.15,3.5a59.94,59.94,0,0,0,5.13,6.47,57.78,57.78,0,0,0,5.94,5.77l-.58.05.58-.51a7.22,7.22,0,0,1,.6-.5l.65-.41a3.83,3.83,0,0,1,.69-.37l.72-.3.77-.18a3.86,3.86,0,0,1,.77-.09,3.39,3.39,0,0,1,.78,0,3.87,3.87,0,0,1,.76.11,5.75,5.75,0,0,1,.74.21,5.46,5.46,0,0,1,.7.3,7.12,7.12,0,0,1,.67.36,6.82,6.82,0,0,1,.62.43c.2.16.4.31.58.48A9.54,9.54,0,0,1,264.9,235.82Z" transform="translate(-39.27 -35.71)"/><g class="cls-17"><path class="cls-18" d="M185.27,279.11s69.9,15.89,111.2,61.43L282.7,375.49S330.36,445.38,342,549.17H97.37S95.25,457,117.49,396.67,172.56,313,172.56,313Z" transform="translate(-39.27 -35.71)"/><path class="cls-19" d="M177.06,313.51c36.82,0,77.05,26.32,106,61.1l13.42-34.07c-41.3-45.54-111.2-61.43-111.2-61.43L172.56,313s-.56.4-1.56,1.21A28,28,0,0,1,177.06,313.51Z" transform="translate(-39.27 -35.71)"/><path class="cls-19" d="M278.42,445c-1.64,6-3.24,12.1-4.92,18.14s-3.33,12.07-5,18.09l0-.42,2.34,20.37,2.26,20.38,4.3,40.79.28,2.68-2.75,0-32.72.26-32.73.11-16.36.05-16.36,0-32.72-.09h-2.43l-.31-2.37-5.05-38.27-4.83-38.3-2.33-19.16L126.85,448q-1.14-9.6-2.18-19.19c-.73-6.39-1.38-12.8-2-19.2,1.1,6.34,2.24,12.68,3.3,19s2.15,12.69,3.18,19l3.1,19,3,19.07L141.12,524l5.66,38.18-2.73-2.38,32.72-.09,16.36,0,16.36.05,32.73.11,32.72.26-2.46,2.7-3.23-40.88-1.51-20.45L266.31,481l0-.24.06-.18q3-8.93,6-17.81C274.32,456.82,276.38,450.91,278.42,445Z" transform="translate(-39.27 -35.71)"/><polygon class="cls-19" points="228.14 447.5 234.51 514.68 256.52 513.46 231.03 434.17 228.14 447.5"/></g><path class="cls-20" d="M166.08,70.54a4.11,4.11,0,0,0-4.27,2.23l-7.52-1.11a17.59,17.59,0,0,0-.75-6.58l3.52-1.39a2.89,2.89,0,1,0-1-2.4l-3.51,1.39a18,18,0,0,0-4-5.32l4-5.08a3.61,3.61,0,1,0-2-1.61l-4,5.09a17.35,17.35,0,0,0-6.08-2.62l.39-2.66a3,3,0,1,0-2.55-.38l-.4,2.66a17.61,17.61,0,0,0-6.58.75l-2.38-6a3.6,3.6,0,1,0-2.4,1l2.39,6a18,18,0,0,0-5.32,3.95l-2.19-1.73a3.54,3.54,0,1,0-1.6,2l2.18,1.73a17.73,17.73,0,0,0-2.62,6.08L113,65.57a3.59,3.59,0,1,0-.37,2.55l6.42.95a17.62,17.62,0,0,0,.76,6.58L117,76.77a3.6,3.6,0,1,0,.95,2.4L120.79,78a17.66,17.66,0,0,0,3.95,5.32l-4,5.09a3.59,3.59,0,1,0,2,1.6l4-5.08a17.73,17.73,0,0,0,6.08,2.62l-.42,2.82a2.8,2.8,0,1,0,3.69,3A2.82,2.82,0,0,0,135,90.78l.41-2.81a17.59,17.59,0,0,0,6.58-.76l2.39,6a3.6,3.6,0,1,0,2.4-.95l-2.39-6a17.79,17.79,0,0,0,5.32-4l5.58,4.42a3,3,0,1,0,1.6-2l-5.58-4.42a17.35,17.35,0,0,0,2.62-6.08l7.52,1.11a4.11,4.11,0,1,0,4.65-4.78Z" transform="translate(-39.27 -35.71)"/><path class="cls-20" d="M344.12,371.83a1.93,1.93,0,0,0-2,1.05l-3.56-.53a8.31,8.31,0,0,0-.35-3.11l1.66-.65a1.38,1.38,0,0,0,1.41.25,1.36,1.36,0,1,0-1.86-1.39l-1.66.66a8.4,8.4,0,0,0-1.87-2.51l1.91-2.41a1.7,1.7,0,1,0-1-.76l-1.91,2.41A8.21,8.21,0,0,0,332,363.6l.18-1.26a1.4,1.4,0,0,0-.21-2.71,1.41,1.41,0,0,0-1.59,1.18,1.39,1.39,0,0,0,.6,1.35l-.19,1.26a8.47,8.47,0,0,0-3.11.35l-1.13-2.85a1.7,1.7,0,1,0-1.13.45l1.13,2.85a8.58,8.58,0,0,0-2.52,1.87l-1-.82a1.67,1.67,0,0,0-2.91-1.53,1.67,1.67,0,0,0,2.15,2.49l1,.82a8.4,8.4,0,0,0-1.24,2.87l-3-.45a1.69,1.69,0,1,0-.17,1.21l3,.45a8.26,8.26,0,0,0,.36,3.11l-1.34.53a1.7,1.7,0,1,0,.45,1.14l1.34-.53a8.36,8.36,0,0,0,1.87,2.51l-1.91,2.41a1.68,1.68,0,0,0-1.84.56,1.7,1.7,0,1,0,2.8.19l1.9-2.4a8.45,8.45,0,0,0,2.88,1.24l-.2,1.33a1.32,1.32,0,1,0,1.21.18l.2-1.33a8.29,8.29,0,0,0,3.11-.36l1.13,2.85a1.7,1.7,0,1,0,1.13-.45l-1.13-2.85a8.4,8.4,0,0,0,2.52-1.87l2.64,2.1a1.4,1.4,0,0,0,.5,1.43,1.42,1.42,0,1,0,.25-2.39l-2.63-2.09a8.56,8.56,0,0,0,1.24-2.88l3.55.53a1.95,1.95,0,1,0,2.2-2.26Z" transform="translate(-39.27 -35.71)"/><path class="cls-20" d="M134.89,174.25a1.5,1.5,0,0,0-1.54.8l-2.71-.4a6.46,6.46,0,0,0-.27-2.37l1.26-.5a1.06,1.06,0,0,0,1.08.19,1,1,0,0,0,.59-1.35,1.05,1.05,0,0,0-1.36-.59,1.07,1.07,0,0,0-.65.88l-1.27.5a6.52,6.52,0,0,0-1.42-1.92l1.45-1.83a1.31,1.31,0,0,0,1.41-.44,1.3,1.3,0,0,0-2-1.61,1.32,1.32,0,0,0-.1,1.47l-1.45,1.83a6.37,6.37,0,0,0-2.2-.94l.14-1a1.09,1.09,0,0,0,.74-.86,1.07,1.07,0,0,0-.9-1.21,1.06,1.06,0,0,0-1.21.9,1.07,1.07,0,0,0,.45,1l-.14,1a6.44,6.44,0,0,0-2.37.27l-.87-2.17a1.3,1.3,0,1,0-.86.34l.86,2.18a6.39,6.39,0,0,0-1.92,1.42l-.79-.62a1.27,1.27,0,1,0-.58.73l.79.62a6.39,6.39,0,0,0-1,2.2l-2.32-.35a1.28,1.28,0,0,0-1.07-1,1.31,1.31,0,0,0-1.48,1.1,1.3,1.3,0,0,0,2.42.83l2.32.34a6.25,6.25,0,0,0,.27,2.37l-1,.41a1.3,1.3,0,1,0-.48,2.08,1.28,1.28,0,0,0,.82-1.22l1-.4a6.55,6.55,0,0,0,1.43,1.92l-1.46,1.83a1.3,1.3,0,1,0,.73.58l1.46-1.83a6.41,6.41,0,0,0,2.19.94l-.15,1a1,1,0,0,0-.67.81,1,1,0,1,0,1.6-.67l.15-1a6.46,6.46,0,0,0,2.37-.27l.86,2.18a1.3,1.3,0,1,0,2.09.47,1.32,1.32,0,0,0-1.22-.82l-.86-2.18A6.35,6.35,0,0,0,129,178.5l2,1.6a1.09,1.09,0,1,0,1.74-.61,1.09,1.09,0,0,0-1.16-.12l-2-1.6a6.21,6.21,0,0,0,.95-2.2l2.71.4a1.5,1.5,0,0,0,1.25,1.22,1.49,1.49,0,0,0,.43-2.94Z" transform="translate(-39.27 -35.71)"/><path class="cls-20" d="M109.36,326.45a4.8,4.8,0,0,0-5,2.59l-8.75-1.29a20.43,20.43,0,0,0-.88-7.67l4.1-1.62a3.36,3.36,0,1,0-1.11-2.8l-4.1,1.62a20.7,20.7,0,0,0-4.6-6.19l4.7-5.93a4.19,4.19,0,1,0-2.36-1.87l-4.7,5.93a20.36,20.36,0,0,0-7.08-3.06l.46-3.1a3.43,3.43,0,1,0-3-.43l-.46,3.09a20.61,20.61,0,0,0-7.66.88l-2.79-7a4.18,4.18,0,1,0-2.79,1.11l2.78,7a20.75,20.75,0,0,0-6.19,4.6l-2.55-2a4.12,4.12,0,1,0-1.87,2.36l2.55,2A20.36,20.36,0,0,0,55,321.75l-7.49-1.1a4.19,4.19,0,1,0-.44,3l7.49,1.11a20.38,20.38,0,0,0,.88,7.66l-3.3,1.31a4.19,4.19,0,1,0,1.11,2.8l3.3-1.31a20.58,20.58,0,0,0,4.6,6.19l-4.7,5.93a4.19,4.19,0,1,0,2.36,1.87l4.7-5.93a20.36,20.36,0,0,0,7.08,3.06l-.48,3.28a3.26,3.26,0,1,0,3,.44l.49-3.28a20.4,20.4,0,0,0,7.66-.88l2.79,7a4.18,4.18,0,1,0,2.79-1.11l-2.78-7a20.58,20.58,0,0,0,6.19-4.6l6.51,5.16A3.51,3.51,0,1,0,98.63,343l-6.5-5.15a20.49,20.49,0,0,0,3.06-7.09L104,332a4.79,4.79,0,1,0,5.41-5.56Z" transform="translate(-39.27 -35.71)"/></g></svg>