<svg id="OBJECTS" xmlns="http://www.w3.org/2000/svg" xmlns:xlink="http://www.w3.org/1999/xlink" viewBox="0 0 570.56 361.92"><defs><style>.cls-1,.cls-12,.cls-16,.cls-21,.cls-27,.cls-29,.cls-31,.cls-9{fill:none;}.cls-2{fill:#fff5db;}.cls-3{fill:#ffac9d;}.cls-4{fill:#ef8d7f;}.cls-5{fill:#352c38;}.cls-32,.cls-6{fill:#251f28;}.cls-7{fill:#d66e63;}.cls-13,.cls-8{fill:#030d16;}.cls-9{stroke:#ffa65b;stroke-width:0.71px;}.cls-12,.cls-16,.cls-21,.cls-27,.cls-29,.cls-31,.cls-9{stroke-miterlimit:10;}.cls-10{fill:#ef8a3d;}.cls-11{clip-path:url(#clip-path);}.cls-12,.cls-16,.cls-31{stroke:#352c38;}.cls-12{stroke-width:0.36px;}.cls-13,.cls-32{opacity:0.2;}.cls-14,.cls-33{fill:#6f96bd;}.cls-15{clip-path:url(#clip-path-2);}.cls-16{stroke-width:0.72px;}.cls-17{fill:#965450;}.cls-18,.cls-19{fill:#76413b;}.cls-19{opacity:0.5;}.cls-20{fill:#fff;}.cls-21,.cls-27,.cls-29{stroke:#fff;}.cls-21{stroke-linecap:round;stroke-width:0.76px;}.cls-22{clip-path:url(#clip-path-3);}.cls-23{fill:#ffa65b;}.cls-24{fill:#683430;}.cls-25{clip-path:url(#clip-path-4);}.cls-26{clip-path:url(#clip-path-5);}.cls-27{stroke-width:0.79px;}.cls-28{clip-path:url(#clip-path-6);}.cls-29{stroke-width:1.43px;}.cls-30{clip-path:url(#clip-path-7);}.cls-31{stroke-width:0.72px;}.cls-33{font-size:37px;font-family:BeVietnam-Bold, Be Vietnam;font-weight:700;}.cls-34{letter-spacing:-0.02em;}.cls-35{letter-spacing:0em;}</style><clipPath id="clip-path" transform="translate(-92.36 -95.06)"><path class="cls-1" d="M515,195.17s20.87-11.47,27.63-7.2,8.67,7.78,8.67,7.78-2.5,25.13-15.87,27.19-23.81-6.76-23.81-6.76Z"/></clipPath><clipPath id="clip-path-2" transform="translate(-92.36 -95.06)"><path class="cls-1" d="M579.69,267.82s-15.18-25.14-19.44-28.46c-3.11-2.41-14.37-4.2-20.28-5-2.18-.35-3.67-.46-3.67-.46s0,16.89-20,16.75-24.9-19.61-24.9-19.61-24.23.1-29.09,12.84,6,124.53,6,124.53c42.82,23.66,88.56,0,88.56,0,1-12.27-1.86-52.69-4-79.82Z"/></clipPath><clipPath id="clip-path-3" transform="translate(-92.36 -95.06)"><path class="cls-1" d="M390.65,221.31l1-16.24s6.1-6.86,15-7.62,16.75,7.11,16.75,7.11l1.27,14s-7.87,9.64-16,10.91S390.65,221.31,390.65,221.31Z"/></clipPath><clipPath id="clip-path-4" transform="translate(-92.36 -95.06)"><path class="cls-1" d="M309.38,168.78l3.05-1.12c-3,.62-12.12,4.43-15.73,5a119.82,119.82,0,0,1-17.13-4.11c-5-1.92-13.46,4.81-13.46,4.81s-1.18,11.33,2.85,19.53c7.45,15.14,27.16,6.73,27.16,6.73l.16-2.58,13.85-14.16-1-.08-12.94,13,1.11-22.28C306.59,170.5,309.38,168.78,309.38,168.78Z"/></clipPath><clipPath id="clip-path-5" transform="translate(-92.36 -95.06)"><path class="cls-1" d="M282.84,210s1.32,14.22,16.59,15.27l4.22,10.54,2.11-11.59s11.85-3.43,13.43-12.91c0,0,19.22,2.9,23.44,8.17s14.22,53.2,14.22,53.2l-113.51,3.95s1-44.25,9.48-53.73C260.31,214.49,282.84,210,282.84,210Z"/></clipPath><clipPath id="clip-path-6" transform="translate(-92.36 -95.06)"><path class="cls-1" d="M211.8,211l2.68-1.56c-2.75,1.08-10.65,6.17-14,7.29a113.3,113.3,0,0,1-16.77-1c-5.07-1-11.86,6.75-11.86,6.75a28.35,28.35,0,0,0,5.49,13.94c9.51,13,26.65,1.83,26.65,1.83l-.29-2.45,10.67-15.61-.93.08-10,14.4-2.23-17.19C209.46,213,211.8,211,211.8,211Z"/></clipPath><clipPath id="clip-path-7" transform="translate(-92.36 -95.06)"><path class="cls-1" d="M197.91,300.72s-12.51,26.81-13.59,47.19,8.4,102.22,8.4,102.22h49l-4.45-78.63,26.49,78.63h45s-16.85-130.47-62.25-159.42Z"/></clipPath></defs><title>imgDashboard</title><path class="cls-2" d="M374,427.14s-264,34.49-280.49-132,156-238.48,246-180S452.58,193.72,504,170.93s147.43,2.72,157.93,85.22S600.44,421.14,374,427.14Z" transform="translate(-92.36 -95.06)"/><path class="cls-3" d="M504.67,198s4.63,29.2-7.4,32.6-28.21,3-31.28,24,93.83,10.53,93.83,10.53,3.08-23.6-16.65-28S528.6,231.13,530,208.39,504.67,198,504.67,198Z" transform="translate(-92.36 -95.06)"/><path class="cls-4" d="M504.5,220.74c3.76,4.71,8.43,8.51,14.53,10.23a51.24,51.24,0,0,0,11.59,1.81c-4.13-3.48-1.56-9.31-.66-24.39,1.36-22.75-25.29-10.39-25.29-10.39S506.73,211.07,504.5,220.74Z" transform="translate(-92.36 -95.06)"/><path class="cls-3" d="M505.78,203.72s-12.44-28.64,7.84-45,36.4.12,36.76,13.55S553.44,226,530,222.43,505.78,203.72,505.78,203.72Z" transform="translate(-92.36 -95.06)"/><path class="cls-5" d="M557.16,150.32s-2.49,4.62-4.27,5c0,0,6.41-7.11-.71-14.58,0,0-5.69,6.75-12.45,5.69,0,0,6-2.14,7.83-7.12a29.36,29.36,0,0,1-16.36,3.2c-8.5-1-23.48-1.05-26,10.42-4.65.67-9.6,3.29-8.82,11.64a17.75,17.75,0,0,0,.34,2.24,43.83,43.83,0,0,0,3.37,14.45s2.64-3.12,5,.76c1.87,3.09,1.61,10.65,1.61,10.65h3.92L510,175.43s5.58-4.94,5.21-14.74c5.6,1.86,20.9,6.09,30.92.66,0,0,5,6.75,4.27,9.6C550.41,171,561.79,161,557.16,150.32Z" transform="translate(-92.36 -95.06)"/><path class="cls-6" d="M515.22,160.69a70,70,0,0,0,10.6,2.63c-4.87-5.84-7.34-13.15-8.15-20.67-5.84,1.08-11.09,3.9-12.51,10.26-4.65.67-9.6,3.29-8.82,11.64a17.75,17.75,0,0,0,.34,2.24,43.83,43.83,0,0,0,3.37,14.45s2.64-3.12,5,.76c1.87,3.09,1.61,10.65,1.61,10.65h3.92L510,175.43S515.59,170.49,515.22,160.69Z" transform="translate(-92.36 -95.06)"/><path class="cls-7" d="M536.61,201.55c.9-.46,1.82-.88,2.74-1.31s1.84-.84,2.77-1.24l-.26.45q-1.08-5.13-1.88-10.32c-.26-1.73-.51-3.46-.72-5.19-.1-.87-.21-1.74-.28-2.62s-.18-1.74-.23-2.62c.25.85.44,1.7.66,2.55s.4,1.71.59,2.56c.37,1.71.72,3.43,1,5.14.63,3.44,1.18,6.89,1.63,10.36l.05.35-.31.1c-.95.33-1.92.64-2.88.94S537.59,201.3,536.61,201.55Z" transform="translate(-92.36 -95.06)"/><path class="cls-8" d="M519.8,176.07a3.9,3.9,0,0,1,.36-.76,6.11,6.11,0,0,1,.53-.81,7.77,7.77,0,0,1,.85-.92,8.44,8.44,0,0,1,1.2-.93,9.29,9.29,0,0,1,1.55-.75,7.21,7.21,0,0,1,1.83-.44,8.55,8.55,0,0,1,2,0,11.77,11.77,0,0,1,1.89.42,12.28,12.28,0,0,1,1.68.77c.49.32,1,.65,1.37,1a14.38,14.38,0,0,1,1,1.06c.15.17.3.33.43.49l.31.5a7.07,7.07,0,0,1,.48.82,6.82,6.82,0,0,1,.36.75,8.31,8.31,0,0,1-.79-.29c-.23-.1-.53-.21-.83-.36a8.11,8.11,0,0,0-1-.44c-.38-.15-.78-.32-1.18-.51s-.87-.28-1.3-.45-.91-.22-1.36-.37-.92-.17-1.38-.23a10.61,10.61,0,0,0-1.38-.05c-.23,0-.46,0-.68,0l-.68.08a13.23,13.23,0,0,0-1.31.23c-.42.1-.84.19-1.22.31-.77.22-1.43.46-1.9.64Z" transform="translate(-92.36 -95.06)"/><path class="cls-8" d="M540.35,176.7a4.25,4.25,0,0,1,.78-2,4.5,4.5,0,0,1,.72-.83,5.18,5.18,0,0,1,1-.73,4.33,4.33,0,0,1,1.37-.45,5.51,5.51,0,0,1,1.52,0,5.69,5.69,0,0,1,1.39.47,4.58,4.58,0,0,1,1.13.73,5.73,5.73,0,0,1,.85.86c.22.3.41.6.58.87a3.3,3.3,0,0,1,.36.8,5.22,5.22,0,0,1,.21.64,4.87,4.87,0,0,1,.13.58s-.22-.08-.56-.24-.76-.42-1.27-.66c-.26-.13-.52-.26-.79-.42s-.56-.24-.83-.38a5.66,5.66,0,0,0-.83-.32,6.31,6.31,0,0,0-.8-.21,5.32,5.32,0,0,0-.79,0c-.13,0-.26,0-.39,0l-.41.05a6.09,6.09,0,0,0-.81.22,8.11,8.11,0,0,0-.79.28c-.5.21-1,.42-1.28.58Z" transform="translate(-92.36 -95.06)"/><path class="cls-8" d="M522.41,185.29s0-.2-.06-.56a3.1,3.1,0,0,1,0-.63c0-.25.06-.55.13-.87a4.75,4.75,0,0,1,.42-1l.35-.49a3.87,3.87,0,0,1,.47-.43,2.3,2.3,0,0,1,.56-.35,1.84,1.84,0,0,1,.64-.24,4.19,4.19,0,0,1,1.37-.11l.68.14.62.26a2.33,2.33,0,0,1,.57.34,2.38,2.38,0,0,1,.49.4c.14.15.3.29.42.44l.32.49a4.68,4.68,0,0,1,.42,1,5.1,5.1,0,0,1,.16.84,2.9,2.9,0,0,1,0,.66c0,.36-.05.55-.05.55l-.18-.52a4.21,4.21,0,0,0-.21-.58c-.12-.2-.2-.45-.35-.68a6.49,6.49,0,0,0-.52-.72l-.32-.34-.37-.3a1.39,1.39,0,0,0-.41-.27,3.17,3.17,0,0,0-.45-.23l-.47-.17-.49-.09a3.09,3.09,0,0,0-1,0,1.58,1.58,0,0,0-.45.14,1.25,1.25,0,0,0-.42.2,3.62,3.62,0,0,0-.38.26l-.32.32a6.55,6.55,0,0,0-.51.7c-.1.24-.21.47-.31.68a6,6,0,0,0-.2.6C522.48,185.1,522.41,185.29,522.41,185.29Z" transform="translate(-92.36 -95.06)"/><path class="cls-8" d="M541.56,185.54s0-.2,0-.53a5.63,5.63,0,0,1,0-.61c0-.25.06-.53.12-.83a6.28,6.28,0,0,1,.36-.95,3.34,3.34,0,0,1,.75-.91,1.8,1.8,0,0,1,.53-.37,2,2,0,0,1,.62-.26,3.66,3.66,0,0,1,1.36-.08l.65.18.6.29a4,4,0,0,1,.94.82,3.79,3.79,0,0,1,.62,1,5.43,5.43,0,0,1,.31.94,6.81,6.81,0,0,1,.09.82,3,3,0,0,1,0,.63c0,.34-.07.53-.07.53s-.07-.19-.16-.51a5.13,5.13,0,0,0-.18-.57l-.28-.68c-.15-.23-.27-.49-.45-.73a4.18,4.18,0,0,0-.6-.67,3.61,3.61,0,0,0-.75-.55l-.43-.19-.44-.1a2.22,2.22,0,0,0-.89,0,1.51,1.51,0,0,0-.41.13,1.09,1.09,0,0,0-.38.21,3.21,3.21,0,0,0-.65.57c-.16.23-.32.47-.46.69s-.21.46-.31.66a5.51,5.51,0,0,0-.19.58C541.64,185.36,541.56,185.54,541.56,185.54Z" transform="translate(-92.36 -95.06)"/><polyline class="cls-9" points="412.94 92.02 426.02 101.87 423.23 117.74 410.89 103.63"/><path class="cls-3" d="M507.14,200.2s-8.47,1.65-8.7-11.28c-.2-11.18,6.71-10.87,7.65-3.79S507.14,200.2,507.14,200.2Z" transform="translate(-92.36 -95.06)"/><path class="cls-7" d="M504.79,198.21a9.49,9.49,0,0,1-1.74-1,4.69,4.69,0,0,1-1.47-1.5,2.19,2.19,0,0,1-.19-.58,1.3,1.3,0,0,1,.07-.67,1.86,1.86,0,0,1,.82-.92,5.92,5.92,0,0,1,2-.72l-.41.42c.13-1.35.24-2.73.26-4.08,0-.68,0-1.35,0-2a9,9,0,0,0-.31-1.91,2.05,2.05,0,0,0-.37-.74,1.06,1.06,0,0,0-.24-.2s-.13,0-.1,0l-.26,0c-.2,0-.26,0-.38,0s-.25.1-.38.14a4.13,4.13,0,0,0-.71.57,11.45,11.45,0,0,0-2,3.51,10.41,10.41,0,0,1,.51-2,6.84,6.84,0,0,1,1-1.92,3.94,3.94,0,0,1,.82-.81,4.29,4.29,0,0,1,.57-.27,2.45,2.45,0,0,1,.64-.1h.26a1.19,1.19,0,0,1,.4.09,1.69,1.69,0,0,1,.6.39,2.87,2.87,0,0,1,.63,1.06,8.06,8.06,0,0,1,.44,2.16c.06.72.08,1.43.07,2.13a33,33,0,0,1-.39,4.2l-.06.36-.35.06a6,6,0,0,0-1.76.48c-.52.26-.73.6-.53,1.15a5,5,0,0,0,1.11,1.5A15.63,15.63,0,0,0,504.79,198.21Z" transform="translate(-92.36 -95.06)"/><path class="cls-10" d="M515,195.17s20.87-11.47,27.63-7.2,8.67,7.78,8.67,7.78-2.5,25.13-15.87,27.19-23.81-6.76-23.81-6.76Z" transform="translate(-92.36 -95.06)"/><g class="cls-11"><path class="cls-12" d="M553.76,201.14" transform="translate(-92.36 -95.06)"/><path class="cls-12" d="M553,204.68" transform="translate(-92.36 -95.06)"/><line class="cls-12" x1="410.09" y1="88.37" x2="462.82" y2="99.08"/><line class="cls-12" x1="408.79" y1="94.73" x2="461.53" y2="105.44"/><line class="cls-12" x1="407.5" y1="101.09" x2="460.23" y2="111.8"/><line class="cls-12" x1="406.21" y1="107.45" x2="458.94" y2="118.16"/><line class="cls-12" x1="404.92" y1="113.82" x2="457.65" y2="124.53"/><line class="cls-12" x1="411.38" y1="82.01" x2="464.11" y2="92.72"/><line class="cls-12" x1="403.63" y1="120.18" x2="456.36" y2="130.89"/><line class="cls-12" x1="415.79" y1="130.23" x2="426.5" y2="77.5"/><line class="cls-12" x1="422.15" y1="131.52" x2="432.86" y2="78.79"/><line class="cls-12" x1="428.51" y1="132.81" x2="439.22" y2="80.08"/><line class="cls-12" x1="434.87" y1="134.11" x2="445.59" y2="81.37"/><line class="cls-12" x1="441.24" y1="135.4" x2="451.95" y2="82.67"/><line class="cls-12" x1="409.43" y1="128.94" x2="420.14" y2="76.2"/><line class="cls-12" x1="447.6" y1="136.69" x2="458.31" y2="83.96"/></g><path class="cls-10" d="M500.86,450.13c1-5.5,10.5-52.53,10.5-52.53l3-.23s.86,47,1.26,52.76h35.25c.24-31.34.32-25.25-1.57-108.75,0,0-58.62-48.45-68.14-5.32-2.11,9.6-12.12,85.08-15.39,114.07Z" transform="translate(-92.36 -95.06)"/><path class="cls-13" d="M503.33,384c9.31-.28,18.69-.52,27.9-2,6.33-1,13-2.46,18.83-5.49-.21-9.77-.46-21.29-.78-35.12,0,0-58.62-48.45-68.14-5.32-1,4.47-3.69,23.28-6.62,45A108.92,108.92,0,0,0,503.33,384Z" transform="translate(-92.36 -95.06)"/><path class="cls-13" d="M550.85,450.13c0-6.51-.1-51.18-.56-59.95-11.22,4.65-23.6,7-35.91,7.7.08,1.16.91,47.79,1.22,52.25Z" transform="translate(-92.36 -95.06)"/><path class="cls-3" d="M616,247.61s11.89-34.74-3.6-2.66c0,0,7.4-35.07-5-.14,0,0,8.2-32.71-4.95,3.06-1.21-2.82-3.16-6.82-4.38-6.89-1.59-.1.31,7.63,1.54,12.62-.28.79-.57,1.61-.86,2.45l-.2.54c-6.63,11.2-16.3,29.18-16.3,29.18s-8-15.06-18.81-35.12c-7.72-14.38-27.72-14.74-27.72-14.74L546,274.46s23,49.2,39.36,42.21c13.63-5.81,25-44.18,28.56-57.52C618.65,248.62,631.63,219.08,616,247.61Z" transform="translate(-92.36 -95.06)"/><path class="cls-4" d="M576.47,275c-3.33-6.21-7.86-14.68-13-24.3-7.72-14.38-27.72-14.74-27.72-14.74L546,274.46a197.16,197.16,0,0,0,11.89,21.27C563.92,288.63,569.62,281.26,576.47,275Z" transform="translate(-92.36 -95.06)"/><path class="cls-14" d="M579.69,267.82s-15.18-25.14-19.44-28.46c-3.11-2.41-14.37-4.2-20.28-5-2.18-.35-3.67-.46-3.67-.46s0,16.89-20,16.75-24.9-19.61-24.9-19.61-24.23.1-29.09,12.84,6,124.53,6,124.53c42.82,23.66,88.56,0,88.56,0,1-12.27-1.86-52.69-4-79.82Z" transform="translate(-92.36 -95.06)"/><g class="cls-15"><line class="cls-16" x1="348.37" y1="146.67" x2="490.18" y2="146.67"/><line class="cls-16" x1="348.37" y1="158.77" x2="490.18" y2="158.77"/><line class="cls-16" x1="348.37" y1="170.86" x2="490.18" y2="170.86"/><line class="cls-16" x1="348.37" y1="182.96" x2="490.18" y2="182.96"/><line class="cls-16" x1="348.37" y1="195.05" x2="490.18" y2="195.05"/><line class="cls-16" x1="348.37" y1="207.14" x2="490.18" y2="207.14"/><line class="cls-16" x1="348.37" y1="219.24" x2="490.18" y2="219.24"/><line class="cls-16" x1="348.37" y1="231.33" x2="490.18" y2="231.33"/><line class="cls-16" x1="348.37" y1="243.42" x2="490.18" y2="243.42"/><line class="cls-16" x1="348.37" y1="255.52" x2="490.18" y2="255.52"/><line class="cls-16" x1="348.37" y1="267.61" x2="490.18" y2="267.61"/></g><path class="cls-13" d="M552.56,351.41a176.67,176.67,0,0,1-39.49-9.66,75.64,75.64,0,0,1-36.62-28.35,266.05,266.05,0,0,1-14.19-22.52l-.12-.21c2.05,35.51,6.16,77.75,6.16,77.75,42.82,23.66,88.56,0,88.56,0,.29-3.52.26-9.37,0-16.55C555.43,351.74,554,351.59,552.56,351.41Z" transform="translate(-92.36 -95.06)"/><path class="cls-13" d="M579.69,267.82s-9-14.87-15.06-23.24c-5.83,9.21-13.39,21.82-13.39,21.82l1.83,22Z" transform="translate(-92.36 -95.06)"/><path class="cls-14" d="M374.23,308.18l2.12,19.08S350.92,372.39,353,450.13H403.9l6.61-73.66,14.58,73.66h54.4s-4.95-60.71-33.2-132.06Z" transform="translate(-92.36 -95.06)"/><path class="cls-13" d="M356.48,393.41c17.44.13,34.92.53,52.43.95l1.6-17.89,3.57,18c18.69.44,37.41.86,56.1.92a537,537,0,0,0-23.89-77.33l-72.06-9.89,2.12,19.08S363,350.89,356.48,393.41Z" transform="translate(-92.36 -95.06)"/><path class="cls-17" d="M396.22,211.05s4.77,24.83,1.59,27.38-12.73-1-22,9.23S414,262.3,414,262.3l25.15-22.6s-11.41-2.74-18.46-3.18c-5.1-.32-3.82-28.65-3.82-28.65Z" transform="translate(-92.36 -95.06)"/><path class="cls-18" d="M398.89,233.63c6.51,1.12,13.86.76,18.82-3.14-1.44-8.4-.8-22.62-.8-22.62l-20.69,3.18S399,225.68,398.89,233.63Z" transform="translate(-92.36 -95.06)"/><path class="cls-10" d="M370.75,286.18s-4.77-33.43-1.59-38.52,19.1-8.91,19.1-8.91,5.41,14.27,19.42,14c16.87-.31,20-17.06,20-17.06s19.14.83,22,12.29-5.1,40.43-5.1,40.43Z" transform="translate(-92.36 -95.06)"/><path class="cls-17" d="M426.18,198.18s4.77-9.19,8.17-5.1-3.4,18-6.81,15S426.18,198.18,426.18,198.18Z" transform="translate(-92.36 -95.06)"/><path class="cls-17" d="M384.7,202.64s-4.77-9.2-8.18-5.11,3.41,18.06,6.82,15S384.7,202.64,384.7,202.64Z" transform="translate(-92.36 -95.06)"/><path class="cls-19" d="M426.18,198.18s4.77-9.19,8.17-5.1-3.4,18-6.81,15S426.18,198.18,426.18,198.18Z" transform="translate(-92.36 -95.06)"/><path class="cls-19" d="M384.7,202.64s-4.77-9.2-8.18-5.11,3.41,18.06,6.82,15S384.7,202.64,384.7,202.64Z" transform="translate(-92.36 -95.06)"/><path class="cls-14" d="M400.69,166.49s-11-.6-8.36-7.16c0,0-10.15-1.5-8.36-9s10.15-5.67,10.15-5.67-8.65-3.28-5.67-8.66,15.52-11.94,18.81,3.59c0,0-1.49-7.77,2.09-8.36s.3,8.65.3,8.65,2.68-6.26,6.86-4.77,8.36,10.74,1.49,14,8.06-6.87,8.36-1.79-9.55,3.88-9.55,3.88,7.16-1.79,7.46,4.18-9.85,6-13.73,1.49,15.82,6.27,0,9.85S400.69,166.49,400.69,166.49Z" transform="translate(-92.36 -95.06)"/><path class="cls-13" d="M400.69,166.49s-11-.6-8.36-7.16c0,0-10.15-1.5-8.36-9s10.15-5.67,10.15-5.67-8.65-3.28-5.67-8.66,15.52-11.94,18.81,3.59c0,0-1.49-7.77,2.09-8.36s.3,8.65.3,8.65,2.68-6.26,6.86-4.77,8.36,10.74,1.49,14,8.06-6.87,8.36-1.79-9.55,3.88-9.55,3.88,7.16-1.79,7.46,4.18-9.85,6-13.73,1.49,15.82,6.27,0,9.85S400.69,166.49,400.69,166.49Z" transform="translate(-92.36 -95.06)"/><ellipse class="cls-5" cx="313.88" cy="70.79" rx="9.39" ry="5.73"/><path class="cls-17" d="M408,228.56s-21-.63-26.1-26.74,12.73-32.47,23.24-32.78,25.35,5.69,23.56,33.74C427.09,227.61,408,228.56,408,228.56Z" transform="translate(-92.36 -95.06)"/><path class="cls-14" d="M381.26,198s-5.1-20.37,13.68-30.87,33.43,7.64,35,18.78-2.23,15.59-2.23,15.59L426.46,191s-.64-18.14-15.6-16.55-24.19-1.91-26.74,13.05c0,0-.64,18.46,0,18.78S381.57,206.6,381.26,198Z" transform="translate(-92.36 -95.06)"/><path class="cls-13" d="M430,185.91c-.9-6.28-5.93-14.77-13.51-19.12a16.13,16.13,0,0,1,4,7.82,25.62,25.62,0,0,1,.34,2.67c5.37,4.78,5.69,13.72,5.69,13.72l1.27,10.5S431.55,197.05,430,185.91Z" transform="translate(-92.36 -95.06)"/><path class="cls-8" d="M411.57,196.9s0-.2,0-.54a2.26,2.26,0,0,1,0-.62,5.24,5.24,0,0,1,.22-.84,3.37,3.37,0,0,1,.53-.9c.13-.14.25-.29.4-.44s.34-.23.51-.35a2.85,2.85,0,0,1,.59-.26,1.77,1.77,0,0,1,.64-.16,4.24,4.24,0,0,1,1.33,0l.64.17c.21.07.4.18.6.26a2.34,2.34,0,0,1,.54.34,2.68,2.68,0,0,1,.48.4c.14.15.28.29.41.44s.2.33.3.48a3.51,3.51,0,0,1,.4,1,3.83,3.83,0,0,1,.13.83,2.14,2.14,0,0,1,0,.64c0,.36-.09.54-.09.54s-.06-.19-.15-.52a2.85,2.85,0,0,0-.19-.56,6.69,6.69,0,0,0-.32-.67,4.45,4.45,0,0,0-.5-.69,4,4,0,0,0-.67-.63,4.53,4.53,0,0,0-.83-.49c-.15-.05-.3-.13-.46-.18l-.48-.11a3.1,3.1,0,0,0-1,0,1.33,1.33,0,0,0-.45.07,1.51,1.51,0,0,0-.44.14c-.13.07-.26.14-.4.2l-.34.26c-.25.16-.38.42-.58.6s-.25.43-.38.62a3.67,3.67,0,0,0-.25.55C411.65,196.72,411.57,196.9,411.57,196.9Z" transform="translate(-92.36 -95.06)"/><path class="cls-8" d="M407.29,190a4.53,4.53,0,0,1,.42-.73,8.88,8.88,0,0,1,1.46-1.71,8.51,8.51,0,0,1,1.19-.94,10.69,10.69,0,0,1,1.5-.85c.28-.12.57-.21.87-.32a4.81,4.81,0,0,1,.92-.25c.32-.05.65-.12,1-.16l1,0a8.55,8.55,0,0,1,1.95.26,14.75,14.75,0,0,1,1.77.66c.53.31,1,.64,1.46.94a11.4,11.4,0,0,1,1.12,1l.47.48c.13.16.24.33.35.48q.33.47.54.81a7.5,7.5,0,0,1,.42.72s-.28-.14-.73-.41c-.23-.13-.51-.29-.8-.48a7.56,7.56,0,0,0-1-.58c-.39-.18-.78-.43-1.21-.62l-1.36-.54c-.49-.11-1-.28-1.47-.38a11.15,11.15,0,0,0-1.53-.14h-.77l-.77.09a14.55,14.55,0,0,0-1.49.3c-.48.17-1,.26-1.4.46s-.86.35-1.25.53c-.77.37-1.42.71-1.88,1Z" transform="translate(-92.36 -95.06)"/><path class="cls-8" d="M392,198.5s-.06-.19-.14-.53a2.38,2.38,0,0,1-.11-.61,5.3,5.3,0,0,1,0-.87,3.35,3.35,0,0,1,.32-1c.09-.17.19-.34.29-.51s.28-.3.43-.46a3.27,3.27,0,0,1,.51-.39,2.19,2.19,0,0,1,.59-.3,4.39,4.39,0,0,1,1.3-.29l.66,0c.22,0,.43.08.64.12a3.14,3.14,0,0,1,.61.21,3.19,3.19,0,0,1,.55.29c.17.11.34.22.49.34a5.18,5.18,0,0,1,.41.4,3.18,3.18,0,0,1,.59.83,3.36,3.36,0,0,1,.32.79,2.32,2.32,0,0,1,.11.63c0,.35,0,.55,0,.55l-.26-.48a2.63,2.63,0,0,0-.31-.5,5.6,5.6,0,0,0-.46-.59,4.42,4.42,0,0,0-.64-.56,4.71,4.71,0,0,0-.79-.47,4.49,4.49,0,0,0-.92-.29,4,4,0,0,0-.48-.07h-.5a3.64,3.64,0,0,0-.94.18,1.63,1.63,0,0,0-.43.18,1.67,1.67,0,0,0-.39.23l-.35.28-.28.33a4.07,4.07,0,0,0-.43.71c-.1.24-.15.47-.23.69a3,3,0,0,0-.12.6C392,198.31,392,198.5,392,198.5Z" transform="translate(-92.36 -95.06)"/><path class="cls-8" d="M386.28,192.72a4.61,4.61,0,0,1,.24-.81,9.25,9.25,0,0,1,1.05-2,8.29,8.29,0,0,1,1-1.18,9.58,9.58,0,0,1,1.27-1.16,8.74,8.74,0,0,1,.78-.51,4,4,0,0,1,.85-.44c.29-.13.59-.26.9-.38l1-.23a8.71,8.71,0,0,1,2-.18,14,14,0,0,1,1.87.26c.58.17,1.12.4,1.63.59a10,10,0,0,1,1.31.76l.56.36c.17.12.32.27.46.39s.51.48.7.67c.38.38.57.61.57.61s-.3-.07-.81-.23l-.88-.3a9,9,0,0,0-1.13-.34c-.42-.09-.85-.24-1.32-.34s-1-.14-1.45-.23-1-.05-1.51,0a9.84,9.84,0,0,0-1.53.19l-.75.16c-.24.1-.48.18-.73.26a13.35,13.35,0,0,0-1.39.62c-.42.27-.88.47-1.26.76s-.76.53-1.11.79c-.66.53-1.23,1-1.61,1.36Z" transform="translate(-92.36 -95.06)"/><path class="cls-18" d="M404,192.56a7.67,7.67,0,0,1,.27.75,17.27,17.27,0,0,1,.53,2,23.36,23.36,0,0,1,.44,2.91c.06.53.08,1.09.09,1.66s0,1.14,0,1.71-.09,1.15-.14,1.72A10.93,10.93,0,0,1,405,205c-.1.53-.23,1-.34,1.53a8.13,8.13,0,0,1-.39,1.34,26.31,26.31,0,0,1-1.2,2.62s.07-1.18.35-2.82c.09-.4.06-.87.12-1.34s.07-1,.13-1.5.05-1.05.09-1.6.06-1.09.09-1.65,0-1.11,0-1.66.06-1.08.05-1.61c0-1,0-2,0-2.87s0-1.56,0-2Z" transform="translate(-92.36 -95.06)"/><path class="cls-20" d="M390.65,221.31l1-16.24s6.1-6.86,15-7.62,16.75,7.11,16.75,7.11l1.27,14s-7.87,9.64-16,10.91S390.65,221.31,390.65,221.31Z" transform="translate(-92.36 -95.06)"/><polyline class="cls-21" points="288.89 102.94 301.59 112.29 300.83 121.94 291.94 116.35"/><polyline class="cls-21" points="338.4 97.82 329 111.28 329 121.68 335.86 113.81"/><g class="cls-22"><path class="cls-23" d="M392.08,205.52s-1.59-1.44-.46-1.78,1,1.77,1,1.77.64-1.19,1.49-1-1.27,1.5-1.27,1.5,1.38,0,1.24,1.19-1.78-1.36-1.78-1.36-1.65,1.75-2.07,1S392.08,205.52,392.08,205.52Z" transform="translate(-92.36 -95.06)"/><path class="cls-23" d="M398.9,206.91s1.6,1.44.47,1.78-1-1.77-1-1.77-.64,1.19-1.5,1,1.28-1.5,1.28-1.5-1.39,0-1.24-1.19,1.78,1.35,1.78,1.35,1.65-1.74,2.07-1S398.9,206.91,398.9,206.91Z" transform="translate(-92.36 -95.06)"/><path class="cls-23" d="M404.35,207.93s-1.6-1.44-.47-1.78,1,1.77,1,1.77.64-1.19,1.5-1-1.28,1.5-1.28,1.5,1.39,0,1.24,1.19-1.78-1.36-1.78-1.36-1.65,1.75-2.07,1S404.35,207.93,404.35,207.93Z" transform="translate(-92.36 -95.06)"/><path class="cls-23" d="M411.17,209.32s1.59,1.44.46,1.78-1-1.77-1-1.77-.64,1.19-1.49,1,1.27-1.5,1.27-1.5-1.38,0-1.24-1.19,1.78,1.35,1.78,1.35,1.65-1.74,2.07-1S411.17,209.32,411.17,209.32Z" transform="translate(-92.36 -95.06)"/><path class="cls-23" d="M416.61,210.34s-1.59-1.44-.46-1.78,1,1.77,1,1.77.64-1.19,1.49-1-1.27,1.5-1.27,1.5,1.38,0,1.24,1.19-1.78-1.36-1.78-1.36-1.65,1.75-2.07,1S416.61,210.34,416.61,210.34Z" transform="translate(-92.36 -95.06)"/><path class="cls-23" d="M423.43,211.73s1.6,1.44.47,1.78-1-1.77-1-1.77-.65,1.19-1.5,1,1.28-1.5,1.28-1.5-1.39,0-1.24-1.19,1.78,1.35,1.78,1.35,1.65-1.74,2.07-1S423.43,211.73,423.43,211.73Z" transform="translate(-92.36 -95.06)"/><path class="cls-23" d="M393.77,212s-1.6-1.44-.47-1.78,1,1.77,1,1.77.64-1.19,1.5-1-1.28,1.51-1.28,1.51,1.39,0,1.24,1.18-1.78-1.35-1.78-1.35-1.65,1.74-2.07,1S393.77,212,393.77,212Z" transform="translate(-92.36 -95.06)"/><path class="cls-23" d="M400.59,213.39s1.59,1.44.46,1.78-1-1.77-1-1.77-.64,1.19-1.5,1,1.28-1.5,1.28-1.5-1.38,0-1.24-1.18,1.78,1.35,1.78,1.35,1.65-1.75,2.07-1S400.59,213.39,400.59,213.39Z" transform="translate(-92.36 -95.06)"/><path class="cls-23" d="M406,214.41s-1.6-1.44-.47-1.78,1.05,1.77,1.05,1.77.64-1.19,1.49-1-1.27,1.51-1.27,1.51,1.38,0,1.23,1.18-1.77-1.35-1.77-1.35-1.65,1.74-2.07,1S406,214.41,406,214.41Z" transform="translate(-92.36 -95.06)"/><path class="cls-23" d="M412.85,215.8s1.6,1.44.47,1.78-1-1.77-1-1.77-.65,1.19-1.5,1,1.28-1.5,1.28-1.5-1.39,0-1.24-1.18,1.77,1.35,1.77,1.35,1.65-1.75,2.07-1S412.85,215.8,412.85,215.8Z" transform="translate(-92.36 -95.06)"/><path class="cls-23" d="M418.3,216.82s-1.6-1.44-.47-1.78,1,1.77,1,1.77.64-1.19,1.5-1-1.28,1.51-1.28,1.51,1.39,0,1.24,1.18-1.78-1.35-1.78-1.35-1.65,1.74-2.07,1S418.3,216.82,418.3,216.82Z" transform="translate(-92.36 -95.06)"/><path class="cls-23" d="M425.11,218.21s1.6,1.44.47,1.78-1-1.77-1-1.77-.64,1.19-1.5,1,1.28-1.5,1.28-1.5-1.39,0-1.24-1.18,1.78,1.35,1.78,1.35,1.65-1.75,2.07-1S425.11,218.21,425.11,218.21Z" transform="translate(-92.36 -95.06)"/><path class="cls-23" d="M389.61,218.09s-1.59-1.44-.46-1.79,1,1.77,1,1.77.64-1.18,1.5-.95-1.28,1.5-1.28,1.5,1.38,0,1.24,1.18-1.78-1.35-1.78-1.35-1.65,1.74-2.07,1S389.61,218.09,389.61,218.09Z" transform="translate(-92.36 -95.06)"/><path class="cls-23" d="M396.43,219.47s1.6,1.44.47,1.78-1-1.77-1-1.77-.64,1.19-1.5,1,1.28-1.5,1.28-1.5-1.39,0-1.24-1.18,1.78,1.35,1.78,1.35,1.65-1.74,2.07-1S396.43,219.47,396.43,219.47Z" transform="translate(-92.36 -95.06)"/><path class="cls-23" d="M401.88,220.5s-1.6-1.44-.47-1.79,1,1.77,1,1.77.65-1.18,1.5-.95-1.28,1.5-1.28,1.5,1.39,0,1.24,1.18-1.78-1.35-1.78-1.35-1.65,1.74-2.07,1S401.88,220.5,401.88,220.5Z" transform="translate(-92.36 -95.06)"/><path class="cls-23" d="M408.7,221.88s1.59,1.44.46,1.78-1-1.77-1-1.77-.64,1.19-1.49,1,1.27-1.5,1.27-1.5-1.38,0-1.24-1.18,1.78,1.35,1.78,1.35,1.65-1.74,2.07-1S408.7,221.88,408.7,221.88Z" transform="translate(-92.36 -95.06)"/><path class="cls-23" d="M414.14,222.91s-1.59-1.44-.46-1.79,1,1.77,1,1.77.64-1.18,1.49-.95-1.27,1.5-1.27,1.5,1.38,0,1.24,1.18-1.78-1.35-1.78-1.35-1.65,1.74-2.07,1S414.14,222.91,414.14,222.91Z" transform="translate(-92.36 -95.06)"/><path class="cls-23" d="M421,224.29s1.6,1.44.47,1.78-1-1.77-1-1.77-.64,1.19-1.5,1,1.28-1.5,1.28-1.5-1.39,0-1.24-1.18,1.78,1.35,1.78,1.35,1.65-1.74,2.07-1S421,224.29,421,224.29Z" transform="translate(-92.36 -95.06)"/><path class="cls-23" d="M391.3,224.57s-1.6-1.44-.47-1.78,1,1.77,1,1.77.64-1.19,1.5-1-1.28,1.5-1.28,1.5,1.39,0,1.24,1.18-1.78-1.35-1.78-1.35-1.65,1.74-2.07,1S391.3,224.57,391.3,224.57Z" transform="translate(-92.36 -95.06)"/><path class="cls-23" d="M398.12,226s1.59,1.45.46,1.79-1-1.77-1-1.77-.64,1.19-1.49.95,1.27-1.5,1.27-1.5-1.38,0-1.24-1.18,1.78,1.35,1.78,1.35,1.65-1.74,2.07-1S398.12,226,398.12,226Z" transform="translate(-92.36 -95.06)"/><path class="cls-23" d="M403.56,227s-1.59-1.44-.46-1.78,1,1.77,1,1.77.64-1.19,1.49-1-1.27,1.5-1.27,1.5,1.38,0,1.24,1.18-1.78-1.35-1.78-1.35-1.65,1.74-2.07,1S403.56,227,403.56,227Z" transform="translate(-92.36 -95.06)"/><path class="cls-23" d="M410.38,228.36s1.6,1.45.47,1.79-1-1.77-1-1.77-.65,1.19-1.5,1,1.28-1.5,1.28-1.5-1.39,0-1.24-1.18,1.78,1.35,1.78,1.35,1.65-1.74,2.07-1S410.38,228.36,410.38,228.36Z" transform="translate(-92.36 -95.06)"/><path class="cls-23" d="M415.83,229.39s-1.6-1.44-.47-1.78,1,1.77,1,1.77.64-1.19,1.5-1-1.28,1.5-1.28,1.5,1.39,0,1.24,1.18-1.78-1.35-1.78-1.35-1.65,1.74-2.07,1S415.83,229.39,415.83,229.39Z" transform="translate(-92.36 -95.06)"/><path class="cls-23" d="M422.65,230.77s1.59,1.45.46,1.79-1-1.77-1-1.77-.64,1.19-1.5,1,1.28-1.5,1.28-1.5-1.38,0-1.24-1.18,1.78,1.35,1.78,1.35,1.65-1.74,2.07-1S422.65,230.77,422.65,230.77Z" transform="translate(-92.36 -95.06)"/><path class="cls-23" d="M394.35,194s-1.59-1.44-.47-1.79,1.05,1.77,1.05,1.77.64-1.18,1.49-1-1.27,1.5-1.27,1.5,1.38,0,1.24,1.18-1.78-1.35-1.78-1.35-1.65,1.74-2.07,1S394.35,194,394.35,194Z" transform="translate(-92.36 -95.06)"/><path class="cls-23" d="M401.17,195.36s1.6,1.44.47,1.78-1-1.77-1-1.77-.65,1.19-1.5,1,1.28-1.5,1.28-1.5-1.39,0-1.24-1.18,1.78,1.35,1.78,1.35,1.65-1.74,2.07-1S401.17,195.36,401.17,195.36Z" transform="translate(-92.36 -95.06)"/><path class="cls-23" d="M406.62,196.39s-1.6-1.44-.47-1.79,1,1.77,1,1.77.64-1.18,1.5-1-1.28,1.5-1.28,1.5,1.39,0,1.24,1.18-1.78-1.35-1.78-1.35-1.65,1.74-2.07,1S406.62,196.39,406.62,196.39Z" transform="translate(-92.36 -95.06)"/><path class="cls-23" d="M413.44,197.77s1.59,1.44.46,1.78-1-1.77-1-1.77-.64,1.19-1.5,1,1.28-1.5,1.28-1.5-1.38,0-1.24-1.18,1.78,1.35,1.78,1.35,1.65-1.74,2.07-1S413.44,197.77,413.44,197.77Z" transform="translate(-92.36 -95.06)"/><path class="cls-23" d="M418.88,198.8s-1.6-1.44-.47-1.79,1,1.77,1,1.77.64-1.18,1.49-.95-1.27,1.5-1.27,1.5,1.38,0,1.23,1.18-1.77-1.35-1.77-1.35-1.65,1.74-2.07,1S418.88,198.8,418.88,198.8Z" transform="translate(-92.36 -95.06)"/><path class="cls-23" d="M425.7,200.18s1.6,1.44.47,1.78-1-1.77-1-1.77-.65,1.19-1.5,1,1.28-1.5,1.28-1.5-1.39,0-1.24-1.18,1.77,1.35,1.77,1.35,1.65-1.74,2.08-1S425.7,200.18,425.7,200.18Z" transform="translate(-92.36 -95.06)"/><path class="cls-23" d="M396,200.46s-1.6-1.44-.47-1.78,1,1.77,1,1.77.64-1.19,1.5-1-1.28,1.5-1.28,1.5,1.39,0,1.24,1.18-1.78-1.35-1.78-1.35-1.65,1.74-2.07,1S396,200.46,396,200.46Z" transform="translate(-92.36 -95.06)"/><path class="cls-23" d="M402.85,201.84s1.6,1.45.47,1.79-1-1.77-1-1.77-.64,1.19-1.5.95,1.28-1.5,1.28-1.5-1.39,0-1.24-1.18,1.78,1.35,1.78,1.35,1.65-1.74,2.07-1S402.85,201.84,402.85,201.84Z" transform="translate(-92.36 -95.06)"/><path class="cls-23" d="M408.3,202.87s-1.6-1.44-.47-1.78,1,1.77,1,1.77.65-1.19,1.5-1-1.28,1.5-1.28,1.5,1.39,0,1.24,1.18-1.77-1.35-1.77-1.35-1.65,1.74-2.08,1S408.3,202.87,408.3,202.87Z" transform="translate(-92.36 -95.06)"/><path class="cls-23" d="M415.12,204.25s1.6,1.45.47,1.79-1-1.77-1-1.77-.64,1.19-1.49.95,1.27-1.5,1.27-1.5-1.38,0-1.23-1.18,1.77,1.35,1.77,1.35,1.65-1.74,2.07-1S415.12,204.25,415.12,204.25Z" transform="translate(-92.36 -95.06)"/><path class="cls-23" d="M420.56,205.28s-1.59-1.44-.46-1.78,1,1.77,1,1.77.64-1.19,1.5-1-1.28,1.5-1.28,1.5,1.38,0,1.24,1.18-1.78-1.35-1.78-1.35-1.65,1.74-2.07,1S420.56,205.28,420.56,205.28Z" transform="translate(-92.36 -95.06)"/><path class="cls-23" d="M427.38,206.66s1.6,1.45.47,1.79-1-1.77-1-1.77-.64,1.19-1.5,1,1.28-1.51,1.28-1.51-1.39,0-1.24-1.18,1.78,1.35,1.78,1.35,1.65-1.74,2.07-1S427.38,206.66,427.38,206.66Z" transform="translate(-92.36 -95.06)"/></g><path class="cls-17" d="M310.28,179.05s-6.15,27.79,5.21,31.75,30.29,2.8,32,23.17-94.13,6.38-94.13,6.38-1.59-22.86,17.62-25.89,14.36-5,14.37-26.91S310.28,179.05,310.28,179.05Z" transform="translate(-92.36 -95.06)"/><path class="cls-18" d="M309.12,200.9c-3.89,4.32-8.6,7.69-14.56,9A49.42,49.42,0,0,1,283.32,211c4.17-3.11,2-8.86,2.05-23.41,0-21.93,24.91-8.5,24.91-8.5S307.53,191.48,309.12,200.9Z" transform="translate(-92.36 -95.06)"/><path class="cls-17" d="M308.88,184.48s13.62-26.8-4.91-43.74-35-2-36.12,10.89-6.07,51.46,16.67,49.42S308.88,184.48,308.88,184.48Z" transform="translate(-92.36 -95.06)"/><path class="cls-5" d="M303.43,143.6s-13.88,10-21,7.7,3-8.64,3-8.64-12.76,10.51-19.14,6.38,2.25-12,8.25-15-10.51,13.89-15.38,5.26,13.13-9.76,16.51-9-14.26,2.62-14.64-3,12.39-8.26,20.64-.76-13.88-2.25-9.75-7.5,24.77-2.25,32.65,10.13c0,0,13.7-5.25,19.33,10.89s-12.2,38.28-12.2,38.28l-.44-9.65-1,10.38-4.6-1.86,3.38-18.39S302.68,154.86,303.43,143.6Z" transform="translate(-92.36 -95.06)"/><path class="cls-6" d="M303.43,143.6s-8.95,6.41-16.17,7.77a26.08,26.08,0,0,0,11.3-8c3.52-4.28,4.94-9.56,5.52-15,.16.23.33.46.48.7,0,0,13.7-5.25,19.33,10.89s-12.2,38.28-12.2,38.28l-.44-9.65-1,10.38-4.6-1.86,3.38-18.39S302.68,154.86,303.43,143.6Z" transform="translate(-92.36 -95.06)"/><path class="cls-24" d="M280,183c-.94-.27-1.86-.58-2.79-.88s-1.85-.62-2.77-1l-.27-.1,0-.32q.75-5,1.76-9.94.51-2.47,1.08-4.93c.21-.82.39-1.64.62-2.46s.42-1.63.67-2.44c-.07.84-.18,1.68-.27,2.52s-.22,1.67-.33,2.51c-.24,1.66-.5,3.32-.79,5q-.87,5-2,9.9l-.23-.42c.89.4,1.77.81,2.65,1.23S279.11,182.57,280,183Z" transform="translate(-92.36 -95.06)"/><path class="cls-8" d="M274.46,165.41c.08,1.41-.32,2.59-.87,2.62s-1.07-1.1-1.14-2.52.32-2.59.88-2.62S274.39,164,274.46,165.41Z" transform="translate(-92.36 -95.06)"/><path class="cls-8" d="M294.94,165.41c.07,1.41-.33,2.59-.88,2.62s-1.07-1.1-1.14-2.52.32-2.59.88-2.62S294.86,164,294.94,165.41Z" transform="translate(-92.36 -95.06)"/><path class="cls-8" d="M297.16,157.55l-.64-.22c-.4-.13-.95-.31-1.59-.46-.32-.1-.67-.15-1-.24s-.73-.13-1.11-.16l-.58-.06-.58,0c-.39,0-.79,0-1.18,0s-.79.1-1.18.14-.78.16-1.16.25-.74.21-1.11.3l-1,.34a9.22,9.22,0,0,0-.89.3c-.26.1-.51.18-.71.24a5.79,5.79,0,0,1-.66.19s.11-.22.34-.58c.12-.18.27-.41.46-.65a4.2,4.2,0,0,1,.68-.75,9.44,9.44,0,0,1,.92-.8c.36-.23.76-.48,1.18-.71a11,11,0,0,1,1.4-.54,11.15,11.15,0,0,1,1.55-.27,7.58,7.58,0,0,1,1.58.05,6.51,6.51,0,0,1,1.48.34,8.39,8.39,0,0,1,1.28.58,7.49,7.49,0,0,1,1,.72,6.09,6.09,0,0,1,1.22,1.36A2.91,2.91,0,0,1,297.16,157.55Z" transform="translate(-92.36 -95.06)"/><path class="cls-8" d="M277,159l-.46-.27-1.1-.61a7,7,0,0,0-.68-.31,7.24,7.24,0,0,0-.69-.25,4.12,4.12,0,0,0-.65-.1,3.22,3.22,0,0,0-.62,0,3.61,3.61,0,0,0-.65.19,3.78,3.78,0,0,0-.7.3,7.09,7.09,0,0,0-.72.38c-.23.15-.46.28-.68.4s-.42.26-.62.37l-.5.28a3.58,3.58,0,0,1-.49.23,3.74,3.74,0,0,1,.08-.53,4.86,4.86,0,0,1,.14-.59,4.1,4.1,0,0,1,.27-.73c.14-.26.29-.53.47-.81a4.13,4.13,0,0,1,.71-.82,3.64,3.64,0,0,1,1-.73,4.29,4.29,0,0,1,1.29-.46,3.8,3.8,0,0,1,1.43.06,4.09,4.09,0,0,1,1.25.5,4.65,4.65,0,0,1,.86.77,4.23,4.23,0,0,1,.56.81A4,4,0,0,1,277,159Z" transform="translate(-92.36 -95.06)"/><path class="cls-10" d="M309.38,168.78l3.05-1.12c-3,.62-12.12,4.43-15.73,5a119.82,119.82,0,0,1-17.13-4.11c-5-1.92-13.46,4.81-13.46,4.81s-1.18,11.33,2.85,19.53c7.45,15.14,27.16,6.73,27.16,6.73l.16-2.58,13.85-14.16-1-.08-12.94,13,1.11-22.28C306.59,170.5,309.38,168.78,309.38,168.78Z" transform="translate(-92.36 -95.06)"/><g class="cls-25"><polygon class="cls-5" points="210.03 77.45 206.93 75.56 208.62 78.98 210.03 77.45"/><polygon class="cls-5" points="201.25 78.35 203.15 75.26 199.72 76.94 201.25 78.35"/><polygon class="cls-5" points="196.22 77.45 193.12 75.56 194.8 78.98 196.22 77.45"/><polygon class="cls-5" points="187.44 78.35 189.33 75.26 185.91 76.94 187.44 78.35"/><polygon class="cls-5" points="181.51 77.45 178.42 75.56 180.1 78.98 181.51 77.45"/><polygon class="cls-5" points="172.74 78.35 174.63 75.26 171.21 76.94 172.74 78.35"/><polygon class="cls-5" points="206.69 83.69 203.59 81.79 205.27 85.22 206.69 83.69"/><polygon class="cls-5" points="197.91 84.59 199.8 81.49 196.38 83.17 197.91 84.59"/><polygon class="cls-5" points="192.88 83.69 189.78 81.79 191.46 85.22 192.88 83.69"/><polygon class="cls-5" points="184.1 84.59 185.99 81.49 182.57 83.17 184.1 84.59"/><polygon class="cls-5" points="178.17 83.69 175.08 81.79 176.76 85.22 178.17 83.69"/><polygon class="cls-5" points="169.4 84.59 171.29 81.49 167.87 83.17 169.4 84.59"/><polygon class="cls-5" points="210.03 90.59 206.93 88.7 208.62 92.12 210.03 90.59"/><polygon class="cls-5" points="201.25 91.49 203.15 88.4 199.72 90.08 201.25 91.49"/><polygon class="cls-5" points="196.22 90.59 193.12 88.7 194.8 92.12 196.22 90.59"/><polygon class="cls-5" points="187.44 91.49 189.33 88.4 185.91 90.08 187.44 91.49"/><polygon class="cls-5" points="181.51 90.59 178.42 88.7 180.1 92.12 181.51 90.59"/><polygon class="cls-5" points="172.74 91.49 174.63 88.4 171.21 90.08 172.74 91.49"/><polygon class="cls-5" points="210.03 103.07 206.93 101.17 208.62 104.6 210.03 103.07"/><polygon class="cls-5" points="201.25 103.97 203.15 100.87 199.72 102.56 201.25 103.97"/><polygon class="cls-5" points="196.22 103.07 193.12 101.17 194.8 104.6 196.22 103.07"/><polygon class="cls-5" points="187.44 103.97 189.33 100.87 185.91 102.56 187.44 103.97"/><polygon class="cls-5" points="181.51 103.07 178.42 101.17 180.1 104.6 181.51 103.07"/><polygon class="cls-5" points="172.74 103.97 174.63 100.87 171.21 102.56 172.74 103.97"/><polygon class="cls-5" points="206.69 96.83 203.59 94.94 205.27 98.36 206.69 96.83"/><polygon class="cls-5" points="197.91 97.73 199.8 94.64 196.38 96.32 197.91 97.73"/><polygon class="cls-5" points="192.88 96.83 189.78 94.94 191.46 98.36 192.88 96.83"/><polygon class="cls-5" points="184.1 97.73 185.99 94.64 182.57 96.32 184.1 97.73"/><polygon class="cls-5" points="178.17 96.83 175.08 94.94 176.76 98.36 178.17 96.83"/><polygon class="cls-5" points="169.4 97.73 171.29 94.64 167.87 96.32 169.4 97.73"/></g><path class="cls-17" d="M306.8,181.94s5.3-4.13,4.45-13.27c0,0,5.95-8.39,8.81-1.44C323.31,175.13,313.74,189.6,306.8,181.94Z" transform="translate(-92.36 -95.06)"/><path class="cls-24" d="M311.32,182a9.58,9.58,0,0,0,2.19-2.36l.17-.34.12-.34c0-.11,0-.23,0-.34a3,3,0,0,0,0-.31,1.19,1.19,0,0,0-.12-.29c0-.1-.13-.17-.19-.25a.7.7,0,0,0-.25-.23l-.28-.21-.2-.14V177a36.15,36.15,0,0,1,.24-4.42,16.71,16.71,0,0,1,.37-2.21,8.49,8.49,0,0,1,.75-2.19,2.48,2.48,0,0,1,.9-1,1.47,1.47,0,0,1,.8-.15,2.08,2.08,0,0,1,.24.05l.13.05.25.1c.17.07.34.13.51.21l.53.35a3.7,3.7,0,0,1,.87.85l.28.53.13.27.07.29c0,.19.09.38.12.57l0,.59a4.29,4.29,0,0,1-.22,1.11,10.07,10.07,0,0,1-.48,1c.09-.36.21-.7.28-1.05a4.13,4.13,0,0,0,0-1l-.06-.51-.18-.48-.08-.24-.14-.2-.27-.41c-.27-.2-.46-.5-.75-.61l-.4-.24c-.16-.06-.34-.11-.52-.16-.42-.14-.48-.15-.67-.06a1.74,1.74,0,0,0-.5.65,15.53,15.53,0,0,0-1,4.07c-.19,1.43-.32,2.87-.4,4.31l-.2-.37a3.91,3.91,0,0,1,.69.66,2,2,0,0,1,.26.42,2.26,2.26,0,0,1,.14.49,2.17,2.17,0,0,1,0,.51,3.45,3.45,0,0,1-.12.46l-.19.42L314,180a6.85,6.85,0,0,1-1.23,1.18A8.54,8.54,0,0,1,311.32,182Z" transform="translate(-92.36 -95.06)"/><path class="cls-14" d="M282.84,210s1.32,14.22,16.59,15.27l4.22,10.54,2.11-11.59s11.85-3.43,13.43-12.91c0,0,19.22,2.9,23.44,8.17s14.22,53.2,14.22,53.2l-113.51,3.95s1-44.25,9.48-53.73C260.31,214.49,282.84,210,282.84,210Z" transform="translate(-92.36 -95.06)"/><g class="cls-26"><polyline class="cls-27" points="153.61 128.64 154.93 184.74 160.98 184.74 160.72 121.79 167.83 119.69 167.57 186.06 178.1 186.32 174.68 114.16 184.95 113.1 187.32 186.32 197.07 187.11 193.38 114.16 202.86 114.68 205.76 186.06 220.24 185 214.19 116.26 222.09 116.79 230.78 187.11 241.05 187.11 235.25 114.16 244.74 115.74 250.27 187.64 259.22 185.27 250.79 118.9"/></g><polygon class="cls-5" points="175.98 227.31 191.63 355.07 224.9 355.07 218.05 287 227.84 285.04 243.49 355.07 276.76 355.07 257.19 222.42 175.98 227.31"/><path class="cls-6" d="M312.28,400.58l-1.87-18.52,9.79-2,4.18,18.7q18.18-2.82,36.21-6.49l-11-74.83-81.21,4.89,10.07,82.18Q295.38,402.92,312.28,400.58Z" transform="translate(-92.36 -95.06)"/><path class="cls-18" d="M172.53,189.41l2.38-1.19s-5.48-6-11.44,1.19,2.38,11.44-2.38,22.41.71,27.88,14.77,34.79c0,0-3.57-4.05-1.19-5.48s11.68,6,16-.24S172.53,189.41,172.53,189.41Z" transform="translate(-92.36 -95.06)"/><path class="cls-3" d="M193.75,280.3c10.7,0,44.46-18.84,55.17-19-.3-7-1.59-12.86-4.89-14.37-9.22-4.2-28.25,7.55-30.83-10.6-2.67-18.89-2.82-23.45-2.82-23.45l-19,18.17s5.8,5.86,2.86,16.18c-2.7,9.45-19.3.5-23,12.09C186.37,260.94,178.55,280.25,193.75,280.3Z" transform="translate(-92.36 -95.06)"/><path class="cls-4" d="M194.78,245c9.18-.37,16.48-6.68,17.52-15.32-1.81-13.41-1.92-16.88-1.92-16.88l-19,18.17S196.42,236.06,194.78,245Z" transform="translate(-92.36 -95.06)"/><path class="cls-3" d="M189.27,183.92s-20-.55-19.47,21.74,9.31,37.24,22.31,36.49c14.71-.84,22.76-14.71,21.09-32.5C212,197.32,209.16,181,189.27,183.92Z" transform="translate(-92.36 -95.06)"/><path class="cls-17" d="M218,209.17s-5.22-6.85-6.8,8.81a8.16,8.16,0,0,1-2-11.18s-15.89-8.06-13.82-21c0,0-16.45-6.32-23.58,8.5,0,0,8.95-26.77,34.61-20.64C227.56,178.76,218,209.17,218,209.17Z" transform="translate(-92.36 -95.06)"/><path class="cls-7" d="M182.38,210.55a23.41,23.41,0,0,1,.13,3.35,29.25,29.25,0,0,1-.27,3.36c-.08.56-.18,1.11-.3,1.67a16.12,16.12,0,0,1-.45,1.65,8.11,8.11,0,0,1-.31.82,4.54,4.54,0,0,1-.39.8,4.23,4.23,0,0,1-.53.77,3.2,3.2,0,0,1-.75.66v-.84c.34.24.7.47,1.06.69s.72.45,1.1.65a11.08,11.08,0,0,0,1.14.58,5.22,5.22,0,0,0,.59.25l.62.2h-.67c-.22,0-.43-.07-.65-.1a3.43,3.43,0,0,1-.65-.16c-.21-.06-.44-.11-.64-.19a17.48,17.48,0,0,1-2.43-1.08l-.46-.25.47-.6c.14-.17.32-.24.44-.47a3.59,3.59,0,0,0,.37-.63,7.6,7.6,0,0,0,.31-.71c.09-.25.19-.49.26-.75.15-.51.3-1,.42-1.55s.23-1.07.36-1.6C181.59,214.92,181.94,212.74,182.38,210.55Z" transform="translate(-92.36 -95.06)"/><path class="cls-8" d="M184.91,206.16a3.16,3.16,0,0,1,.15-.64,5.78,5.78,0,0,1,.77-1.55,6.54,6.54,0,0,1,.74-.93,7.38,7.38,0,0,1,1-.85,6.13,6.13,0,0,1,1.3-.67,9,9,0,0,1,1.46-.4,9.43,9.43,0,0,1,1.5,0,8,8,0,0,1,1.41.22c.44.13.86.26,1.25.41s.71.36,1,.53a4.22,4.22,0,0,1,.81.54c.23.17.42.33.57.46a6.31,6.31,0,0,1,.48.44s-.24,0-.64-.11-.94-.25-1.6-.34c-.32-.06-.67-.12-1-.2l-1.13-.12a11.72,11.72,0,0,0-1.19,0c-.4,0-.79.07-1.18.08s-.79.13-1.15.26l-.55.17-.52.23c-.36.14-.66.35-1,.51s-.6.37-.85.57a14.79,14.79,0,0,0-1.22,1A6.41,6.41,0,0,0,184.91,206.16Z" transform="translate(-92.36 -95.06)"/><path class="cls-8" d="M169.52,208.5a2.12,2.12,0,0,1,0-.57,4.07,4.07,0,0,1,1-2.38,4.2,4.2,0,0,1,.94-.82,3.52,3.52,0,0,1,.58-.3,2.56,2.56,0,0,1,.64-.22c.22-.05.44-.11.67-.15l.66,0a5.48,5.48,0,0,1,1.29.13,5.9,5.9,0,0,1,1.17.33,4.52,4.52,0,0,1,1,.46c.31.16.59.34.84.5a5.41,5.41,0,0,1,.66.51c.19.16.35.31.48.43s.39.4.39.4-.21,0-.56-.08-.83-.16-1.39-.29c-.28,0-.58-.1-.89-.18a9.79,9.79,0,0,0-1-.18,9.07,9.07,0,0,0-1-.14,5.68,5.68,0,0,0-1,0h-.5l-.46.07a4.83,4.83,0,0,0-.87.23,4.94,4.94,0,0,0-.76.39,4.09,4.09,0,0,0-.65.49c-.19.19-.37.36-.52.53l-.38.47A5.44,5.44,0,0,0,169.52,208.5Z" transform="translate(-92.36 -95.06)"/><path class="cls-8" d="M197.18,212s-.08-.2-.22-.52a12.55,12.55,0,0,0-.64-1.28,4.52,4.52,0,0,0-1.22-1.41,2.23,2.23,0,0,0-.85-.37c-.15,0-.32,0-.47,0l-.5.06-.54.15-.39.21a3,3,0,0,0-.72.64,3.53,3.53,0,0,0-.5.83,6.92,6.92,0,0,0-.31.86,11.06,11.06,0,0,0-.35,2,3.07,3.07,0,0,1-.15-.55,5.75,5.75,0,0,1-.11-1.51,3.91,3.91,0,0,1,.16-1,3.46,3.46,0,0,1,1.41-2.09,5.87,5.87,0,0,1,.66-.35l.62-.19.7-.07a5.67,5.67,0,0,1,.72.09,2.88,2.88,0,0,1,1.22.65,3.31,3.31,0,0,1,.76.94,4.39,4.39,0,0,1,.42,1,6.19,6.19,0,0,1,.29,1.48C197.19,211.81,197.18,212,197.18,212Z" transform="translate(-92.36 -95.06)"/><path class="cls-8" d="M180,215.24s-.08-.2-.22-.52a11.6,11.6,0,0,0-.64-1.28,4.41,4.41,0,0,0-1.22-1.41,2.23,2.23,0,0,0-.85-.37c-.15,0-.32,0-.47,0l-.5.06-.54.15-.39.21a2.59,2.59,0,0,0-.72.64,3.53,3.53,0,0,0-.5.83,6.39,6.39,0,0,0-.31.86,10.91,10.91,0,0,0-.35,2,3.07,3.07,0,0,1-.15-.55,6.14,6.14,0,0,1-.12-1.51,4.42,4.42,0,0,1,.17-1,3.53,3.53,0,0,1,.47-1.11,3.33,3.33,0,0,1,.94-1,5.87,5.87,0,0,1,.66-.35l.62-.19.7-.07a5.67,5.67,0,0,1,.72.09,2.86,2.86,0,0,1,1.22.64,3.49,3.49,0,0,1,.76.95,4.54,4.54,0,0,1,.42,1,6.35,6.35,0,0,1,.29,1.49C180,215,180,215.24,180,215.24Z" transform="translate(-92.36 -95.06)"/><path class="cls-14" d="M211.8,211l2.68-1.56c-2.75,1.08-10.65,6.17-14,7.29a113.3,113.3,0,0,1-16.77-1c-5.07-1-11.86,6.75-11.86,6.75a28.35,28.35,0,0,0,5.49,13.94c9.51,13,26.65,1.83,26.65,1.83l-.29-2.45,10.67-15.61-.93.08-10,14.4-2.23-17.19C209.46,213,211.8,211,211.8,211Z" transform="translate(-92.36 -95.06)"/><g class="cls-28"><path class="cls-29" d="M172.88,219.56s4.44,14.66,13,25.38h4.44s-11.77-22.16-13.47-31.46l8,1.08L193.78,245l5.38-.81-7.51-29,6.49-1.07s3.75,28.24,4.77,28.24" transform="translate(-92.36 -95.06)"/></g><path class="cls-17" d="M173,192.27s6.68-9.53,13.83-6-4.05,15.5,13.11,21.69-3.58,22.41,16.2,27.89c0,0-4-5,.72-6.2s21-6.91,17.63-22.88-16.19-13.28-16-24.55c.23-12.15-24.59-17.28-39.81-4.76C168,186.31,173,192.27,173,192.27Z" transform="translate(-92.36 -95.06)"/><path class="cls-3" d="M211.52,221.48s3-3.92.79-10.32c0,0,2.74-7.1,6.05-2.64C222.12,213.6,217.89,225.71,211.52,221.48Z" transform="translate(-92.36 -95.06)"/><path class="cls-7" d="M214.77,220.71a6.9,6.9,0,0,0,1.07-2.11,2,2,0,0,0,.07-.52,1.09,1.09,0,0,0-.11-.43c0-.06-.09-.1-.12-.16s-.12-.08-.17-.13a2.24,2.24,0,0,0-.44-.19l-.23-.11-.05-.2a23.27,23.27,0,0,1-.66-3.22A13,13,0,0,1,214,212a6.19,6.19,0,0,1,.15-1.74,2,2,0,0,1,.51-.94,1.15,1.15,0,0,1,.61-.28,1,1,0,0,1,.21,0h.1l.2,0a3.06,3.06,0,0,1,.4.07l.47.16a3.21,3.21,0,0,1,.8.48,2.71,2.71,0,0,1,.54.73,3.62,3.62,0,0,1,.19.4l.09.43a3.47,3.47,0,0,1,0,.85,5.2,5.2,0,0,1-.2.8c0-.27,0-.54,0-.8a3.06,3.06,0,0,0-.19-.75l-.14-.34-.22-.3c-.11-.22-.34-.33-.5-.49s-.41-.26-.63-.28l-.3-.08-.4,0c-.36,0-.31,0-.4.06a1.07,1.07,0,0,0-.2.5,11.55,11.55,0,0,0,.06,3c.12,1.05.28,2.12.47,3.16l-.28-.31a2.54,2.54,0,0,1,.63.37,1.2,1.2,0,0,1,.28.27,1.75,1.75,0,0,1,.2.35,1.72,1.72,0,0,1,.09.77,2.67,2.67,0,0,1-.19.66,4.87,4.87,0,0,1-.7,1.06A6.1,6.1,0,0,1,214.77,220.71Z" transform="translate(-92.36 -95.06)"/><path class="cls-10" d="M197.91,300.72s-12.51,26.81-13.59,47.19,8.4,102.22,8.4,102.22h49l-4.45-78.63,26.49,78.63h45s-16.85-130.47-62.25-159.42Z" transform="translate(-92.36 -95.06)"/><g class="cls-30"><path class="cls-31" d="M195.93,453.23s-12-98.65,6.15-156.8l4.77.95s-8.06,88.17-5.2,155.38h8.11l.9-156.33,4.77.47,2.91,156.33h11l-11-158.71,6.19-.48,10.06,162.53,6.2-.95L228.77,296l3.34-.48s13.63,107.35,36,156.93l5.25-.48L233.54,293.09l4.29-1.91s39.85,145.49,42.23,161.69l7.15-.47s-30.79-143.58-47.47-163.6l2.38-.95s43.18,83.51,52.72,165.5l9.05-.48s-21.73-134.52-61.77-166.93" transform="translate(-92.36 -95.06)"/></g><path class="cls-32" d="M198.08,409.53c13.65-1.8,27.37-2.95,41.07-4.29l-1.91-33.74,11,32.81q4.16-.44,8.29-.94,21.17-2.56,42.19-6c-9.44-39.69-26.11-90-52.24-106.62l-48.62,10s-12.51,26.81-13.59,47.19c-.56,10.78,1.82,38.8,4.19,62.78C191.71,410.36,194.9,410,198.08,409.53Z" transform="translate(-92.36 -95.06)"/><path class="cls-3" d="M170.62,257s-13.23,6.79-33.25,19.66l-13.23-43.25c14-21.1-1.07-5.72-1.07-5.72.84-29.76-3.57-2.86-3.57-2.86-.23-34.42-3.66.57-3.66.57-3.46-31.91-3.45-.85-3.45-.85-9.7-34,1.42,41.66,5.68,62.12,6.66,32,67-11.76,69.71-13.94,9.13-4.49-10.12,8.58,0,0C206.47,256.87,170.62,257,170.62,257Z" transform="translate(-92.36 -95.06)"/><path class="cls-4" d="M187.78,272.71c-10.12,8.58,9.13-4.49,0,0Z" transform="translate(-92.36 -95.06)"/><path class="cls-4" d="M170.62,257s-12.12,6.23-30.71,18a66.61,66.61,0,0,0,6.35,20.67c18.72-6.27,39.93-21.71,41.52-23C206.47,256.87,170.62,257,170.62,257Z" transform="translate(-92.36 -95.06)"/><path class="cls-5" d="M140.71,272.47S145,285.34,152.15,295c0,0,20.73-7.87,29.67-15.38,0,0-1.07,14.3,16.09,21.1,0,0,32.18,0,48.62-10,4.65-16.45,4.65-29.68,2.86-36.83s-6.79-8.58-15-9.29c0,0-8.58,13.94-24,14.65s-23.95-7.86-23.95-7.86-7.15-1.43-15.73,3.22S140.71,272.47,140.71,272.47Z" transform="translate(-92.36 -95.06)"/><path class="cls-5" d="M234.38,244.59s22,.48,28.74,28l-26.94,1.84Z" transform="translate(-92.36 -95.06)"/><path class="cls-6" d="M181.82,280.51c.09-.54.19-1.08.29-1.63l0-.1c-6-6.57-10.4-14.5-14-22.73-9.66,5.48-27.41,16.42-27.41,16.42S145,285.34,152.15,295c0,0,20.73-7.87,29.67-15.38C181.82,279.62,181.8,280,181.82,280.51Z" transform="translate(-92.36 -95.06)"/><path class="cls-6" d="M223.44,290.44a71.17,71.17,0,0,1-22.19,4.07c-4.85.09-10.65-.07-15.2-2.37a26.76,26.76,0,0,0,11.86,8.58s32.18,0,48.62-10a105.25,105.25,0,0,0,3.62-19A63,63,0,0,1,223.44,290.44Z" transform="translate(-92.36 -95.06)"/><path class="cls-6" d="M194.59,298.17s-5.22,10-6.64,20.39c0,0,28,13.28,79.68-8.06l-21.82-21.81Z" transform="translate(-92.36 -95.06)"/><polygon class="cls-20" points="440.23 278.48 113.53 303.61 101.86 175.43 423.07 145.97 440.23 278.48"/><path class="cls-3" d="M280.29,262.23s1.77-5.25,6.94-4.6a7,7,0,0,1,5.49-.65s3.23-1,3.88,0,9,21.32-1.94,4.2c0,0,7.11,27.51-3.23,0,0,0,1.33,22.29-3.31.22,0,0-2,23-4,.47l-3.79.36" transform="translate(-92.36 -95.06)"/><path class="cls-17" d="M445.19,247.23s1.91-5.66,7.49-5a7.57,7.57,0,0,1,5.92-.69s3.48-1,4.18,0,9.75,23-2.09,4.53c0,0,5.57,31.35-3.49,0,0,0,5.14,32.63-3.57.23,0,0-.16,30.13-4.35.51l-4.09.39" transform="translate(-92.36 -95.06)"/><path class="cls-17" d="M372.84,254.31s-2.94-5.2-8.28-3.47a7.61,7.61,0,0,0-5.95.42s-3.62-.37-4.11.79-5.28,24.41,2.9,4.05c0,0,.39,31.85,3.42-.65,0,0,1.06,33,3.55-.44,0,0,5.81,29.57,4.37-.31l4.1-.39" transform="translate(-92.36 -95.06)"/><text class="cls-33" transform="translate(172.99 212.78)">¡Ap<tspan class="cls-34" x="57.94" y="0">o</tspan><tspan x="78.74" y="0">ya a la </tspan><tspan x="12.67" y="44.4">socied</tspan><tspan class="cls-35" x="128.41" y="44.4">a</tspan><tspan x="151.35" y="44.4">d!</tspan></text></svg>