<?xml version="1.0" encoding="utf-8"?>
<!-- Generator: Adobe Illustrator 24.0.2, SVG Export Plug-In . SVG Version: 6.00 Build 0)  -->
<svg version="1.1" id="OBJECTS" xmlns="http://www.w3.org/2000/svg" xmlns:xlink="http://www.w3.org/1999/xlink" x="0px" y="0px"
	 viewBox="0 0 570.6 361.9" style="enable-background:new 0 0 570.6 361.9;" xml:space="preserve">
<style type="text/css">
	.st0{fill:#FFF5DB;}
	.st1{fill:#FFAC9D;}
	.st2{fill:#EF8D7F;}
	.st3{fill:#352C38;}
	.st4{fill:#251F28;}
	.st5{fill:#D66E63;}
	.st6{fill:#030D16;}
	.st7{fill:none;stroke:#FFA65B;stroke-width:0.71;stroke-miterlimit:10;}
	.st8{fill:#EF8A3D;}
	.st9{clip-path:url(#SVGID_2_);}
	.st10{fill:none;stroke:#352C38;stroke-width:0.36;stroke-miterlimit:10;}
	.st11{opacity:0.2;fill:#030D16;enable-background:new    ;}
	.st12{fill:#6F96BD;}
	.st13{clip-path:url(#SVGID_4_);}
	.st14{fill:none;stroke:#352C38;stroke-width:0.72;stroke-miterlimit:10;}
	.st15{fill:#965450;}
	.st16{fill:#76413B;}
	.st17{opacity:0.5;fill:#76413B;enable-background:new    ;}
	.st18{fill:#FFFFFF;}
	.st19{fill:none;stroke:#FFFFFF;stroke-width:0.76;stroke-linecap:round;stroke-miterlimit:10;}
	.st20{clip-path:url(#SVGID_6_);}
	.st21{fill:#FFA65B;}
	.st22{fill:#683430;}
	.st23{clip-path:url(#SVGID_8_);}
	.st24{clip-path:url(#SVGID_10_);}
	.st25{fill:none;stroke:#FFFFFF;stroke-width:0.79;stroke-miterlimit:10;}
	.st26{clip-path:url(#SVGID_12_);}
	.st27{fill:none;stroke:#FFFFFF;stroke-width:1.43;stroke-miterlimit:10;}
	.st28{clip-path:url(#SVGID_14_);}
	.st29{opacity:0.2;fill:#251F28;enable-background:new    ;}
	.st30{enable-background:new    ;}
</style>
<title>imgDashboard</title>
<path class="st0" d="M281.6,332.1c0,0-264,34.5-280.5-132s156-238.5,246-180s113.1,78.6,164.5,55.8s147.4,2.7,157.9,85.2
	S508.1,326.1,281.6,332.1z"/>
<path class="st1" d="M412.3,102.9c0,0,4.6,29.2-7.4,32.6c-12,3.4-28.2,3-31.3,24s93.8,10.5,93.8,10.5s3.1-23.6-16.7-28
	s-14.6-6-13.2-28.7S412.3,102.9,412.3,102.9z"/>
<path class="st2" d="M412.1,125.7c3.8,4.7,8.4,8.5,14.5,10.2c3.8,1,7.7,1.7,11.6,1.8c-4.1-3.5-1.6-9.3-0.7-24.4
	c1.4-22.8-25.3-10.4-25.3-10.4S414.4,116,412.1,125.7z"/>
<path class="st1" d="M413.4,108.7c0,0-12.4-28.6,7.8-45s36.4,0.1,36.8,13.6s3.1,53.7-20.4,50.2S413.4,108.7,413.4,108.7z"/>
<path class="st3" d="M464.8,55.3c0,0-2.5,4.6-4.3,5c0,0,6.4-7.1-0.7-14.6c0,0-5.7,6.8-12.5,5.7c0,0,6-2.1,7.8-7.1
	c-5,2.6-10.7,3.7-16.4,3.2c-8.5-1-23.5-1.1-26,10.4c-4.7,0.7-9.6,3.3-8.8,11.6c0.1,0.8,0.2,1.5,0.3,2.2c0.3,5,1.4,9.9,3.4,14.4
	c0,0,2.6-3.1,5,0.8c1.9,3.1,1.6,10.6,1.6,10.6h3.9l-0.6-17.2c0,0,5.6-4.9,5.2-14.7c5.6,1.9,20.9,6.1,30.9,0.7c0,0,5,6.8,4.3,9.6
	C458,75.9,469.4,65.9,464.8,55.3z"/>
<path class="st4" d="M422.9,65.6c3.5,1.2,7,2,10.6,2.6c-4.9-5.8-7.3-13.1-8.2-20.7c-5.8,1.1-11.1,3.9-12.5,10.3
	c-4.7,0.7-9.6,3.3-8.8,11.6c0.1,0.8,0.2,1.5,0.3,2.2c0.3,5,1.4,9.9,3.4,14.4c0,0,2.6-3.1,5,0.8c1.9,3.1,1.6,10.6,1.6,10.6h3.9
	l-0.6-17.2C417.6,80.4,423.2,75.4,422.9,65.6z"/>
<path class="st5" d="M444.3,106.5c0.9-0.5,1.8-0.9,2.7-1.3s1.8-0.8,2.8-1.2l-0.3,0.4c-0.7-3.4-1.3-6.9-1.9-10.3
	c-0.3-1.7-0.5-3.5-0.7-5.2c-0.1-0.9-0.2-1.7-0.3-2.6s-0.2-1.7-0.2-2.6c0.3,0.9,0.4,1.7,0.7,2.6s0.4,1.7,0.6,2.6
	c0.4,1.7,0.7,3.4,1,5.1c0.6,3.4,1.2,6.9,1.6,10.4l0,0.4l-0.3,0.1c-1,0.3-1.9,0.6-2.9,0.9S445.2,106.2,444.3,106.5z"/>
<path class="st6" d="M427.4,81c0.1-0.3,0.2-0.5,0.4-0.8c0.2-0.3,0.3-0.6,0.5-0.8c0.3-0.3,0.5-0.6,0.8-0.9c0.4-0.3,0.8-0.7,1.2-0.9
	c0.5-0.3,1-0.5,1.5-0.8c0.6-0.2,1.2-0.4,1.8-0.4c0.7-0.1,1.3-0.1,2,0c0.6,0.1,1.3,0.2,1.9,0.4c0.6,0.2,1.1,0.5,1.7,0.8
	c0.5,0.3,1,0.6,1.4,1c0.4,0.3,0.7,0.7,1,1.1c0.2,0.2,0.3,0.3,0.4,0.5l0.3,0.5c0.2,0.3,0.3,0.5,0.5,0.8c0.1,0.2,0.3,0.5,0.4,0.8
	c-0.3-0.1-0.5-0.2-0.8-0.3c-0.2-0.1-0.5-0.2-0.8-0.4c-0.3-0.2-0.7-0.3-1-0.4c-0.4-0.1-0.8-0.3-1.2-0.5s-0.9-0.3-1.3-0.4
	s-0.9-0.2-1.4-0.4s-0.9-0.2-1.4-0.2c-0.5,0-0.9-0.1-1.4-0.1c-0.2,0-0.5,0-0.7,0l-0.7,0.1c-0.4,0.1-0.9,0.1-1.3,0.2
	c-0.4,0.1-0.8,0.2-1.2,0.3c-0.8,0.2-1.4,0.5-1.9,0.6L427.4,81z"/>
<path class="st6" d="M448,81.6c0.1-0.7,0.4-1.4,0.8-2c0.2-0.3,0.4-0.6,0.7-0.8c0.3-0.3,0.6-0.5,1-0.7c0.4-0.2,0.9-0.4,1.4-0.4
	c0.5-0.1,1-0.1,1.5,0c0.5,0.1,0.9,0.3,1.4,0.5c0.4,0.2,0.8,0.4,1.1,0.7c0.3,0.3,0.6,0.5,0.8,0.9c0.2,0.3,0.4,0.6,0.6,0.9
	c0.2,0.2,0.3,0.5,0.4,0.8c0.1,0.2,0.2,0.4,0.2,0.6c0.1,0.2,0.1,0.4,0.1,0.6c0,0-0.2-0.1-0.6-0.2s-0.8-0.4-1.3-0.7
	c-0.3-0.1-0.5-0.3-0.8-0.4s-0.6-0.2-0.8-0.4c-0.3-0.1-0.5-0.2-0.8-0.3c-0.3-0.1-0.5-0.2-0.8-0.2c-0.3,0-0.5,0-0.8,0
	c-0.1,0-0.3,0-0.4,0l-0.4,0.1c-0.3,0.1-0.5,0.1-0.8,0.2c-0.3,0.1-0.5,0.2-0.8,0.3c-0.5,0.2-1,0.4-1.3,0.6L448,81.6z"/>
<path class="st6" d="M430,90.2c0,0,0-0.2-0.1-0.6c0-0.2,0-0.4,0-0.6c0-0.3,0.1-0.6,0.1-0.9c0.1-0.3,0.2-0.7,0.4-1l0.3-0.5
	c0.1-0.2,0.3-0.3,0.5-0.4c0.2-0.1,0.4-0.3,0.6-0.4c0.2-0.1,0.4-0.2,0.6-0.2c0.4-0.1,0.9-0.1,1.4-0.1l0.7,0.1l0.6,0.3
	c0.2,0.1,0.4,0.2,0.6,0.3c0.2,0.1,0.3,0.2,0.5,0.4c0.1,0.1,0.3,0.3,0.4,0.4l0.3,0.5c0.2,0.3,0.3,0.7,0.4,1c0.1,0.3,0.1,0.6,0.2,0.8
	c0,0.2,0,0.4,0,0.7c0,0.4,0,0.6,0,0.6l-0.2-0.5c-0.1-0.2-0.1-0.4-0.2-0.6c-0.1-0.2-0.2-0.4-0.3-0.7c-0.2-0.3-0.3-0.5-0.5-0.7
	l-0.3-0.3l-0.4-0.3c-0.1-0.1-0.3-0.2-0.4-0.3c-0.1-0.1-0.3-0.2-0.5-0.2l-0.5-0.2l-0.5-0.1c-0.3-0.1-0.7-0.1-1,0
	c-0.2,0-0.3,0.1-0.5,0.1c-0.2,0-0.3,0.1-0.4,0.2c-0.1,0.1-0.3,0.2-0.4,0.3l-0.3,0.3c-0.2,0.2-0.4,0.5-0.5,0.7
	c-0.1,0.2-0.2,0.5-0.3,0.7c-0.1,0.2-0.1,0.4-0.2,0.6C430.1,90,430,90.2,430,90.2z"/>
<path class="st6" d="M449.2,90.5c0,0,0-0.2,0-0.5c0-0.2,0-0.4,0-0.6c0-0.3,0.1-0.5,0.1-0.8c0.1-0.3,0.2-0.6,0.4-0.9
	c0.2-0.3,0.4-0.7,0.8-0.9c0.2-0.2,0.3-0.3,0.5-0.4c0.2-0.1,0.4-0.2,0.6-0.3c0.4-0.1,0.9-0.1,1.4-0.1l0.7,0.2l0.6,0.3
	c0.4,0.2,0.7,0.5,0.9,0.8c0.3,0.3,0.5,0.6,0.6,1c0.1,0.3,0.2,0.6,0.3,0.9c0,0.3,0.1,0.5,0.1,0.8c0,0.2,0,0.4,0,0.6
	c0,0.3-0.1,0.5-0.1,0.5s-0.1-0.2-0.2-0.5c0-0.2-0.1-0.4-0.2-0.6l-0.3-0.7c-0.2-0.2-0.3-0.5-0.5-0.7c-0.2-0.2-0.4-0.5-0.6-0.7
	c-0.2-0.2-0.5-0.4-0.8-0.6l-0.4-0.2l-0.4-0.1c-0.3-0.1-0.6-0.1-0.9,0c-0.1,0-0.3,0.1-0.4,0.1c-0.1,0-0.3,0.1-0.4,0.2
	c-0.2,0.2-0.5,0.4-0.7,0.6c-0.2,0.2-0.3,0.5-0.5,0.7s-0.2,0.5-0.3,0.7c-0.1,0.2-0.1,0.4-0.2,0.6C449.3,90.3,449.2,90.5,449.2,90.5z"
	/>
<polyline class="st7" points="412.9,92 426,101.9 423.2,117.7 410.9,103.6 "/>
<path class="st1" d="M414.8,105.1c0,0-8.5,1.6-8.7-11.3c-0.2-11.2,6.7-10.9,7.6-3.8S414.8,105.1,414.8,105.1z"/>
<path class="st5" d="M412.4,103.2c-0.6-0.3-1.2-0.6-1.7-1c-0.6-0.4-1.1-0.9-1.5-1.5c-0.1-0.2-0.2-0.4-0.2-0.6c0-0.2,0-0.5,0.1-0.7
	c0.2-0.4,0.5-0.7,0.8-0.9c0.6-0.4,1.3-0.6,2-0.7l-0.4,0.4c0.1-1.4,0.2-2.7,0.3-4.1c0-0.7,0-1.4,0-2c0-0.6-0.1-1.3-0.3-1.9
	c-0.1-0.3-0.2-0.5-0.4-0.7c-0.1-0.1-0.2-0.1-0.2-0.2c0,0-0.1,0-0.1,0h-0.3c-0.2,0-0.3,0-0.4,0s-0.3,0.1-0.4,0.1
	c-0.3,0.2-0.5,0.4-0.7,0.6c-0.9,1-1.5,2.2-2,3.5c0.1-0.7,0.3-1.4,0.5-2c0.2-0.7,0.6-1.3,1-1.9c0.2-0.3,0.5-0.6,0.8-0.8
	c0.2-0.1,0.4-0.2,0.6-0.3c0.2-0.1,0.4-0.1,0.6-0.1h0.3c0.1,0,0.3,0,0.4,0.1c0.2,0.1,0.4,0.2,0.6,0.4c0.3,0.3,0.5,0.7,0.6,1.1
	c0.2,0.7,0.4,1.4,0.4,2.2c0.1,0.7,0.1,1.4,0.1,2.1c0,1.4-0.2,2.8-0.4,4.2l-0.1,0.4l-0.3,0.1c-0.6,0.1-1.2,0.2-1.8,0.5
	c-0.5,0.3-0.7,0.6-0.5,1.1c0.3,0.6,0.6,1.1,1.1,1.5C411.4,102.4,411.9,102.8,412.4,103.2z"/>
<path class="st8" d="M422.6,100.1c0,0,20.9-11.5,27.6-7.2s8.7,7.8,8.7,7.8s-2.5,25.1-15.9,27.2s-23.8-6.8-23.8-6.8L422.6,100.1z"/>
<g>
	<defs>
		<path id="SVGID_1_" d="M422.6,100.1c0,0,20.9-11.5,27.6-7.2s8.7,7.8,8.7,7.8s-2.5,25.1-15.9,27.2s-23.8-6.8-23.8-6.8L422.6,100.1z
			"/>
	</defs>
	<clipPath id="SVGID_2_">
		<use xlink:href="#SVGID_1_"  style="overflow:visible;"/>
	</clipPath>
	<g class="st9">
		<path class="st10" d="M461.4,106.1"/>
		<path class="st10" d="M460.6,109.6"/>
		<line class="st10" x1="410.1" y1="88.4" x2="462.8" y2="99.1"/>
		<line class="st10" x1="408.8" y1="94.7" x2="461.5" y2="105.4"/>
		<line class="st10" x1="407.5" y1="101.1" x2="460.2" y2="111.8"/>
		<line class="st10" x1="406.2" y1="107.4" x2="458.9" y2="118.2"/>
		<line class="st10" x1="404.9" y1="113.8" x2="457.6" y2="124.5"/>
		<line class="st10" x1="411.4" y1="82" x2="464.1" y2="92.7"/>
		<line class="st10" x1="403.6" y1="120.2" x2="456.4" y2="130.9"/>
		<line class="st10" x1="415.8" y1="130.2" x2="426.5" y2="77.5"/>
		<line class="st10" x1="422.1" y1="131.5" x2="432.9" y2="78.8"/>
		<line class="st10" x1="428.5" y1="132.8" x2="439.2" y2="80.1"/>
		<line class="st10" x1="434.9" y1="134.1" x2="445.6" y2="81.4"/>
		<line class="st10" x1="441.2" y1="135.4" x2="452" y2="82.7"/>
		<line class="st10" x1="409.4" y1="128.9" x2="420.1" y2="76.2"/>
		<line class="st10" x1="447.6" y1="136.7" x2="458.3" y2="84"/>
	</g>
</g>
<path class="st8" d="M408.5,355.1c1-5.5,10.5-52.5,10.5-52.5l3-0.2c0,0,0.9,47,1.3,52.8h35.3c0.2-31.3,0.3-25.3-1.6-108.8
	c0,0-58.6-48.5-68.1-5.3c-2.1,9.6-12.1,85.1-15.4,114.1H408.5z"/>
<path class="st11" d="M411,288.9c9.3-0.3,18.7-0.5,27.9-2c6.3-1,13-2.5,18.8-5.5c-0.2-9.8-0.5-21.3-0.8-35.1c0,0-58.6-48.5-68.1-5.3
	c-1,4.5-3.7,23.3-6.6,45C391.6,288.3,401.3,289.3,411,288.9z"/>
<path class="st11" d="M458.5,355.1c0-6.5-0.1-51.2-0.6-60c-11.2,4.6-23.6,7-35.9,7.7c0.1,1.2,0.9,47.8,1.2,52.3H458.5z"/>
<path class="st1" d="M523.6,152.6c0,0,11.9-34.7-3.6-2.7c0,0,7.4-35.1-5-0.1c0,0,8.2-32.7-5,3.1c-1.2-2.8-3.2-6.8-4.4-6.9
	c-1.6-0.1,0.3,7.6,1.5,12.6c-0.3,0.8-0.6,1.6-0.9,2.4l-0.2,0.5c-6.6,11.2-16.3,29.2-16.3,29.2s-8-15.1-18.8-35.1
	c-7.7-14.4-27.7-14.7-27.7-14.7l10.3,38.6c0,0,23,49.2,39.4,42.2c13.6-5.8,25-44.2,28.6-57.5C526.3,153.6,539.3,124,523.6,152.6z"/>
<path class="st2" d="M484.1,179.9c-3.3-6.2-7.9-14.7-13-24.3c-7.7-14.4-27.7-14.7-27.7-14.7l10.3,38.5c3.5,7.3,7.5,14.4,11.9,21.3
	C471.6,193.6,477.3,186.2,484.1,179.9z"/>
<path class="st12" d="M487.3,172.8c0,0-15.2-25.1-19.4-28.5c-3.1-2.4-14.4-4.2-20.3-5c-2.2-0.4-3.7-0.5-3.7-0.5s0,16.9-20,16.8
	S399,136,399,136s-24.2,0.1-29.1,12.8s6,124.5,6,124.5c42.8,23.7,88.6,0,88.6,0c1-12.3-1.9-52.7-4-79.8L487.3,172.8z"/>
<g>
	<defs>
		<path id="SVGID_3_" d="M487.3,172.8c0,0-15.2-25.1-19.4-28.5c-3.1-2.4-14.4-4.2-20.3-5c-2.2-0.4-3.7-0.5-3.7-0.5s0,16.9-20,16.8
			S399,136,399,136s-24.2,0.1-29.1,12.8s6,124.5,6,124.5c42.8,23.7,88.6,0,88.6,0c1-12.3-1.9-52.7-4-79.8L487.3,172.8z"/>
	</defs>
	<clipPath id="SVGID_4_">
		<use xlink:href="#SVGID_3_"  style="overflow:visible;"/>
	</clipPath>
	<g class="st13">
		<line class="st14" x1="348.4" y1="146.7" x2="490.2" y2="146.7"/>
		<line class="st14" x1="348.4" y1="158.8" x2="490.2" y2="158.8"/>
		<line class="st14" x1="348.4" y1="170.9" x2="490.2" y2="170.9"/>
		<line class="st14" x1="348.4" y1="183" x2="490.2" y2="183"/>
		<line class="st14" x1="348.4" y1="195.1" x2="490.2" y2="195.1"/>
		<line class="st14" x1="348.4" y1="207.1" x2="490.2" y2="207.1"/>
		<line class="st14" x1="348.4" y1="219.2" x2="490.2" y2="219.2"/>
		<line class="st14" x1="348.4" y1="231.3" x2="490.2" y2="231.3"/>
		<line class="st14" x1="348.4" y1="243.4" x2="490.2" y2="243.4"/>
		<line class="st14" x1="348.4" y1="255.5" x2="490.2" y2="255.5"/>
		<line class="st14" x1="348.4" y1="267.6" x2="490.2" y2="267.6"/>
	</g>
</g>
<path class="st11" d="M460.2,256.4c-13.5-1.7-26.7-4.9-39.5-9.7c-14.9-5.4-27.7-15.3-36.6-28.4c-5.1-7.3-9.8-14.8-14.2-22.5
	l-0.1-0.2c2,35.5,6.2,77.8,6.2,77.8c42.8,23.7,88.6,0,88.6,0c0.3-3.5,0.3-9.4,0-16.5C463.1,256.7,461.6,256.5,460.2,256.4z"/>
<path class="st11" d="M487.3,172.8c0,0-9-14.9-15.1-23.2c-5.8,9.2-13.4,21.8-13.4,21.8l1.8,22L487.3,172.8z"/>
<path class="st12" d="M281.9,213.1l2.1,19.1c0,0-25.4,45.1-23.3,122.9h50.9l6.6-73.7l14.6,73.7h54.4c0,0-5-60.7-33.2-132.1
	L281.9,213.1z"/>
<path class="st11" d="M264.1,298.4c17.4,0.1,34.9,0.5,52.4,1l1.6-17.9l3.6,18c18.7,0.4,37.4,0.9,56.1,0.9c-6-26.3-14-52.2-23.9-77.3
	l-72.1-9.9l2.1,19.1C284,232.2,270.6,255.8,264.1,298.4z"/>
<path class="st15" d="M303.9,116c0,0,4.8,24.8,1.6,27.4s-12.7-1-22,9.2c-9.3,10.2,38.2,14.6,38.2,14.6l25.1-22.6
	c0,0-11.4-2.7-18.5-3.2c-5.1-0.3-3.8-28.6-3.8-28.6L303.9,116z"/>
<path class="st16" d="M306.5,138.6c6.5,1.1,13.9,0.8,18.8-3.1c-1.4-8.4-0.8-22.6-0.8-22.6l-20.7,3.2
	C303.9,116,306.6,130.6,306.5,138.6z"/>
<path class="st8" d="M278.4,191.1c0,0-4.8-33.4-1.6-38.5s19.1-8.9,19.1-8.9s5.4,14.3,19.4,14c16.9-0.3,20-17.1,20-17.1
	s19.1,0.8,22,12.3c2.9,11.5-5.1,40.4-5.1,40.4L278.4,191.1z"/>
<path class="st15" d="M333.8,103.1c0,0,4.8-9.2,8.2-5.1s-3.4,18-6.8,15C331.8,110,333.8,103.1,333.8,103.1z"/>
<path class="st15" d="M292.3,107.6c0,0-4.8-9.2-8.2-5.1c-3.4,4.1,3.4,18.1,6.8,15C294.4,114.4,292.3,107.6,292.3,107.6z"/>
<path class="st17" d="M333.8,103.1c0,0,4.8-9.2,8.2-5.1s-3.4,18-6.8,15C331.8,110,333.8,103.1,333.8,103.1z"/>
<path class="st17" d="M292.3,107.6c0,0-4.8-9.2-8.2-5.1c-3.4,4.1,3.4,18.1,6.8,15C294.4,114.4,292.3,107.6,292.3,107.6z"/>
<path class="st12" d="M308.3,71.4c0,0-11-0.6-8.4-7.2c0,0-10.2-1.5-8.4-9c1.8-7.5,10.1-5.7,10.1-5.7s-8.6-3.3-5.7-8.7
	s15.5-11.9,18.8,3.6c0,0-1.5-7.8,2.1-8.4c3.6-0.6,0.3,8.6,0.3,8.6s2.7-6.3,6.9-4.8s8.4,10.7,1.5,14s8.1-6.9,8.4-1.8
	s-9.5,3.9-9.5,3.9s7.2-1.8,7.5,4.2s-9.9,6-13.7,1.5s15.8,6.3,0,9.9S308.3,71.4,308.3,71.4z"/>
<path class="st11" d="M308.3,71.4c0,0-11-0.6-8.4-7.2c0,0-10.2-1.5-8.4-9c1.8-7.5,10.1-5.7,10.1-5.7s-8.6-3.3-5.7-8.7
	s15.5-11.9,18.8,3.6c0,0-1.5-7.8,2.1-8.4c3.6-0.6,0.3,8.6,0.3,8.6s2.7-6.3,6.9-4.8s8.4,10.7,1.5,14s8.1-6.9,8.4-1.8
	s-9.5,3.9-9.5,3.9s7.2-1.8,7.5,4.2s-9.9,6-13.7,1.5s15.8,6.3,0,9.9S308.3,71.4,308.3,71.4z"/>
<ellipse class="st3" cx="313.9" cy="70.8" rx="9.4" ry="5.7"/>
<path class="st15" d="M315.6,133.5c0,0-21-0.6-26.1-26.7c-5.1-26.1,12.7-32.5,23.2-32.8c10.5-0.3,25.4,5.7,23.6,33.7
	C334.7,132.6,315.6,133.5,315.6,133.5z"/>
<path class="st12" d="M288.9,102.9c0,0-5.1-20.4,13.7-30.9c18.8-10.5,33.4,7.6,35,18.8s-2.2,15.6-2.2,15.6l-1.3-10.5
	c0,0-0.6-18.1-15.6-16.6c-15,1.6-24.2-1.9-26.7,13.1c0,0-0.6,18.5,0,18.8S289.2,111.5,288.9,102.9z"/>
<path class="st11" d="M337.6,90.9c-0.9-6.3-5.9-14.8-13.5-19.1c2,2.2,3.4,4.9,4,7.8c0.2,0.9,0.3,1.8,0.3,2.7
	c5.4,4.8,5.7,13.7,5.7,13.7l1.3,10.5C335.4,106.4,339.2,102,337.6,90.9z"/>
<path class="st6" d="M319.2,101.8c0,0,0-0.2,0-0.5c0-0.2,0-0.4,0-0.6c0-0.3,0.1-0.6,0.2-0.8c0.1-0.3,0.3-0.6,0.5-0.9
	c0.1-0.1,0.3-0.3,0.4-0.4c0.2-0.2,0.3-0.2,0.5-0.4c0.2-0.1,0.4-0.2,0.6-0.3c0.2-0.1,0.4-0.1,0.6-0.2c0.4-0.1,0.9-0.1,1.3,0l0.6,0.2
	c0.2,0.1,0.4,0.2,0.6,0.3c0.2,0.1,0.4,0.2,0.5,0.3c0.2,0.1,0.3,0.2,0.5,0.4c0.1,0.1,0.3,0.3,0.4,0.4s0.2,0.3,0.3,0.5
	c0.2,0.3,0.3,0.6,0.4,1c0.1,0.3,0.1,0.5,0.1,0.8c0,0.2,0,0.4,0,0.6c0,0.4-0.1,0.5-0.1,0.5s-0.1-0.2-0.1-0.5c0-0.2-0.1-0.4-0.2-0.6
	c-0.1-0.2-0.2-0.5-0.3-0.7c-0.1-0.2-0.3-0.5-0.5-0.7c-0.2-0.2-0.4-0.4-0.7-0.6c-0.3-0.2-0.5-0.4-0.8-0.5c-0.2-0.1-0.3-0.1-0.5-0.2
	l-0.5-0.1c-0.3-0.1-0.7-0.1-1,0c-0.2,0-0.3,0-0.5,0.1c-0.2,0-0.3,0.1-0.4,0.1c-0.1,0.1-0.3,0.1-0.4,0.2l-0.3,0.3
	c-0.3,0.2-0.4,0.4-0.6,0.6c-0.2,0.2-0.3,0.4-0.4,0.6c-0.1,0.2-0.2,0.4-0.3,0.6C319.3,101.7,319.2,101.8,319.2,101.8z"/>
<path class="st6" d="M314.9,94.9c0.1-0.3,0.3-0.5,0.4-0.7c0.4-0.6,0.9-1.2,1.5-1.7c0.4-0.3,0.8-0.7,1.2-0.9c0.5-0.3,1-0.6,1.5-0.9
	c0.3-0.1,0.6-0.2,0.9-0.3c0.3-0.1,0.6-0.2,0.9-0.3c0.3-0.1,0.6-0.1,1-0.2h1c0.7,0,1.3,0.1,2,0.3c0.6,0.2,1.2,0.4,1.8,0.7
	c0.5,0.3,1,0.6,1.5,0.9c0.4,0.3,0.8,0.6,1.1,1l0.5,0.5c0.1,0.2,0.2,0.3,0.4,0.5c0.2,0.3,0.4,0.6,0.5,0.8c0.2,0.2,0.3,0.5,0.4,0.7
	c0,0-0.3-0.1-0.7-0.4c-0.2-0.1-0.5-0.3-0.8-0.5c-0.3-0.2-0.7-0.4-1-0.6c-0.4-0.2-0.8-0.4-1.2-0.6l-1.4-0.5c-0.5-0.1-1-0.3-1.5-0.4
	c-0.5-0.1-1-0.1-1.5-0.1h-0.8l-0.8,0.1c-0.5,0.1-1,0.2-1.5,0.3c-0.5,0.2-1,0.3-1.4,0.5c-0.4,0.2-0.9,0.4-1.3,0.5
	c-0.8,0.4-1.4,0.7-1.9,1L314.9,94.9z"/>
<path class="st6" d="M299.6,103.4c0,0-0.1-0.2-0.1-0.5c-0.1-0.2-0.1-0.4-0.1-0.6c0-0.3,0-0.6,0-0.9c0.1-0.3,0.2-0.7,0.3-1
	c0.1-0.2,0.2-0.3,0.3-0.5c0.1-0.2,0.3-0.3,0.4-0.5c0.2-0.1,0.3-0.3,0.5-0.4c0.2-0.1,0.4-0.2,0.6-0.3c0.4-0.2,0.9-0.3,1.3-0.3h0.7
	c0.2,0,0.4,0.1,0.6,0.1c0.2,0,0.4,0.1,0.6,0.2c0.2,0.1,0.4,0.2,0.5,0.3c0.2,0.1,0.3,0.2,0.5,0.3c0.1,0.1,0.3,0.3,0.4,0.4
	c0.2,0.2,0.4,0.5,0.6,0.8c0.1,0.2,0.2,0.5,0.3,0.8c0.1,0.2,0.1,0.4,0.1,0.6c0,0.4,0,0.6,0,0.6l-0.3-0.5c-0.1-0.2-0.2-0.3-0.3-0.5
	c-0.1-0.2-0.3-0.4-0.5-0.6c-0.2-0.2-0.4-0.4-0.6-0.6c-0.2-0.2-0.5-0.3-0.8-0.5c-0.3-0.1-0.6-0.2-0.9-0.3c-0.2,0-0.3-0.1-0.5-0.1
	h-0.5c-0.3,0-0.6,0.1-0.9,0.2c-0.2,0-0.3,0.1-0.4,0.2c-0.1,0.1-0.3,0.1-0.4,0.2l-0.3,0.3l-0.3,0.3c-0.2,0.2-0.3,0.5-0.4,0.7
	c-0.1,0.2-0.1,0.5-0.2,0.7c-0.1,0.2-0.1,0.4-0.1,0.6C299.6,103.3,299.6,103.4,299.6,103.4z"/>
<path class="st6" d="M293.9,97.7c0.1-0.3,0.1-0.5,0.2-0.8c0.3-0.7,0.6-1.4,1-2c0.3-0.4,0.6-0.8,1-1.2c0.4-0.4,0.8-0.8,1.3-1.2
	c0.3-0.2,0.5-0.4,0.8-0.5c0.3-0.2,0.6-0.3,0.9-0.4c0.3-0.1,0.6-0.3,0.9-0.4l1-0.2c0.7-0.1,1.3-0.2,2-0.2c0.6,0,1.3,0.1,1.9,0.3
	c0.6,0.2,1.1,0.4,1.6,0.6c0.5,0.2,0.9,0.5,1.3,0.8l0.6,0.4c0.2,0.1,0.3,0.3,0.5,0.4c0.1,0.1,0.5,0.5,0.7,0.7
	c0.4,0.4,0.6,0.6,0.6,0.6s-0.3-0.1-0.8-0.2l-0.9-0.3c-0.4-0.1-0.7-0.3-1.1-0.3c-0.4-0.1-0.9-0.2-1.3-0.3c-0.5-0.1-1-0.1-1.5-0.2
	s-1-0.1-1.5,0c-0.5,0-1,0.1-1.5,0.2l-0.8,0.2c-0.2,0.1-0.5,0.2-0.7,0.3c-0.5,0.2-0.9,0.4-1.4,0.6c-0.4,0.3-0.9,0.5-1.3,0.8
	s-0.8,0.5-1.1,0.8c-0.7,0.5-1.2,1-1.6,1.4L293.9,97.7z"/>
<path class="st16" d="M311.6,97.5c0.1,0.2,0.2,0.5,0.3,0.8c0.2,0.7,0.4,1.3,0.5,2c0.2,1,0.4,1.9,0.4,2.9c0.1,0.5,0.1,1.1,0.1,1.7
	s0,1.1,0,1.7s-0.1,1.1-0.1,1.7c0,0.6-0.1,1.1-0.2,1.7c-0.1,0.5-0.2,1-0.3,1.5c-0.1,0.5-0.2,0.9-0.4,1.3c-0.4,0.9-0.8,1.8-1.2,2.6
	c0,0,0.1-1.2,0.4-2.8c0.1-0.4,0.1-0.9,0.1-1.3s0.1-1,0.1-1.5s0-1.1,0.1-1.6c0-0.6,0.1-1.1,0.1-1.6c0-0.6,0-1.1,0-1.7s0.1-1.1,0-1.6
	c0-1,0-2,0-2.9s0-1.6,0-2L311.6,97.5z"/>
<path class="st18" d="M298.3,126.3l1-16.2c0,0,6.1-6.9,15-7.6c8.9-0.8,16.8,7.1,16.8,7.1l1.3,14c0,0-7.9,9.6-16,10.9
	S298.3,126.3,298.3,126.3z"/>
<polyline class="st19" points="288.9,102.9 301.6,112.3 300.8,121.9 291.9,116.3 "/>
<polyline class="st19" points="338.4,97.8 329,111.3 329,121.7 335.9,113.8 "/>
<g>
	<defs>
		<path id="SVGID_5_" d="M298.3,126.3l1-16.2c0,0,6.1-6.9,15-7.6c8.9-0.8,16.8,7.1,16.8,7.1l1.3,14c0,0-7.9,9.6-16,10.9
			S298.3,126.3,298.3,126.3z"/>
	</defs>
	<clipPath id="SVGID_6_">
		<use xlink:href="#SVGID_5_"  style="overflow:visible;"/>
	</clipPath>
	<g class="st20">
		<path class="st21" d="M299.7,110.5c0,0-1.6-1.4-0.5-1.8s1,1.8,1,1.8s0.6-1.2,1.5-1s-1.3,1.5-1.3,1.5s1.4,0,1.2,1.2
			s-1.8-1.4-1.8-1.4s-1.7,1.8-2.1,1C297.4,111,299.7,110.5,299.7,110.5z"/>
		<path class="st21" d="M306.5,111.9c0,0,1.6,1.4,0.5,1.8s-1-1.8-1-1.8s-0.6,1.2-1.5,1s1.3-1.5,1.3-1.5s-1.4,0-1.2-1.2
			s1.8,1.4,1.8,1.4s1.6-1.7,2.1-1C308.8,111.3,306.5,111.9,306.5,111.9z"/>
		<path class="st21" d="M312,112.9c0,0-1.6-1.4-0.5-1.8s1,1.8,1,1.8s0.6-1.2,1.5-1s-1.3,1.5-1.3,1.5s1.4,0,1.2,1.2s-1.8-1.4-1.8-1.4
			s-1.7,1.8-2.1,1C309.7,113.4,312,112.9,312,112.9z"/>
		<path class="st21" d="M318.8,114.3c0,0,1.6,1.4,0.5,1.8s-1-1.8-1-1.8s-0.6,1.2-1.5,1s1.3-1.5,1.3-1.5s-1.4,0-1.2-1.2
			s1.8,1.4,1.8,1.4s1.6-1.7,2.1-1C321.1,113.7,318.8,114.3,318.8,114.3z"/>
		<path class="st21" d="M324.3,115.3c0,0-1.6-1.4-0.5-1.8s1,1.8,1,1.8s0.6-1.2,1.5-1s-1.3,1.5-1.3,1.5s1.4,0,1.2,1.2
			s-1.8-1.4-1.8-1.4s-1.6,1.8-2.1,1C322,115.9,324.3,115.3,324.3,115.3z"/>
		<path class="st21" d="M331.1,116.7c0,0,1.6,1.4,0.5,1.8s-1-1.8-1-1.8s-0.6,1.2-1.5,1c-0.8-0.2,1.3-1.5,1.3-1.5s-1.4,0-1.2-1.2
			s1.8,1.4,1.8,1.4s1.7-1.7,2.1-1C333.4,116.1,331.1,116.7,331.1,116.7z"/>
		<path class="st21" d="M301.4,116.9c0,0-1.6-1.4-0.5-1.8s1,1.8,1,1.8s0.6-1.2,1.5-1s-1.3,1.5-1.3,1.5s1.4,0,1.2,1.2
			s-1.8-1.4-1.8-1.4s-1.7,1.7-2.1,1C299.1,117.5,301.4,116.9,301.4,116.9z"/>
		<path class="st21" d="M308.2,118.3c0,0,1.6,1.4,0.5,1.8s-1-1.8-1-1.8s-0.6,1.2-1.5,1s1.3-1.5,1.3-1.5s-1.4,0-1.2-1.2
			s1.8,1.4,1.8,1.4s1.6-1.8,2.1-1C310.5,117.8,308.2,118.3,308.2,118.3z"/>
		<path class="st21" d="M313.6,119.4c0,0-1.6-1.4-0.5-1.8s1,1.8,1,1.8s0.6-1.2,1.5-1s-1.3,1.5-1.3,1.5s1.4,0,1.2,1.2
			c-0.1,1.2-1.8-1.4-1.8-1.4s-1.7,1.7-2.1,1C311.4,119.9,313.6,119.4,313.6,119.4z"/>
		<path class="st21" d="M320.5,120.7c0,0,1.6,1.4,0.5,1.8s-1-1.8-1-1.8s-0.7,1.2-1.5,1c-0.9-0.2,1.3-1.5,1.3-1.5s-1.4,0-1.2-1.2
			s1.8,1.4,1.8,1.4s1.6-1.8,2.1-1C322.8,120.2,320.5,120.7,320.5,120.7z"/>
		<path class="st21" d="M325.9,121.8c0,0-1.6-1.4-0.5-1.8s1,1.8,1,1.8s0.6-1.2,1.5-1s-1.3,1.5-1.3,1.5s1.4,0,1.2,1.2
			s-1.8-1.4-1.8-1.4s-1.6,1.7-2.1,1C323.7,122.3,325.9,121.8,325.9,121.8z"/>
		<path class="st21" d="M332.8,123.2c0,0,1.6,1.4,0.5,1.8s-1-1.8-1-1.8s-0.6,1.2-1.5,1s1.3-1.5,1.3-1.5s-1.4,0-1.2-1.2
			s1.8,1.4,1.8,1.4s1.7-1.8,2.1-1C335,122.6,332.8,123.2,332.8,123.2z"/>
		<path class="st21" d="M297.3,123c0,0-1.6-1.4-0.5-1.8s1,1.8,1,1.8s0.6-1.2,1.5-0.9s-1.3,1.5-1.3,1.5s1.4,0,1.2,1.2
			s-1.8-1.4-1.8-1.4s-1.6,1.7-2.1,1C295,123.6,297.3,123,297.3,123z"/>
		<path class="st21" d="M304.1,124.4c0,0,1.6,1.4,0.5,1.8s-1-1.8-1-1.8s-0.6,1.2-1.5,1s1.3-1.5,1.3-1.5s-1.4,0-1.2-1.2
			s1.8,1.4,1.8,1.4s1.7-1.7,2.1-1C306.4,123.8,304.1,124.4,304.1,124.4z"/>
		<path class="st21" d="M309.5,125.4c0,0-1.6-1.4-0.5-1.8s1,1.8,1,1.8s0.7-1.2,1.5-0.9c0.9,0.2-1.3,1.5-1.3,1.5s1.4,0,1.2,1.2
			s-1.8-1.4-1.8-1.4s-1.6,1.7-2.1,1C307.2,126.1,309.5,125.4,309.5,125.4z"/>
		<path class="st21" d="M316.3,126.8c0,0,1.6,1.4,0.5,1.8s-1-1.8-1-1.8s-0.6,1.2-1.5,1s1.3-1.5,1.3-1.5s-1.4,0-1.2-1.2
			s1.8,1.4,1.8,1.4s1.7-1.7,2.1-1C318.6,126.2,316.3,126.8,316.3,126.8z"/>
		<path class="st21" d="M321.8,127.9c0,0-1.6-1.4-0.5-1.8s1,1.8,1,1.8s0.6-1.2,1.5-0.9s-1.3,1.5-1.3,1.5s1.4,0,1.2,1.2
			s-1.8-1.4-1.8-1.4s-1.6,1.7-2.1,1C319.5,128.5,321.8,127.9,321.8,127.9z"/>
		<path class="st21" d="M328.6,129.2c0,0,1.6,1.4,0.5,1.8s-1-1.8-1-1.8s-0.6,1.2-1.5,1s1.3-1.5,1.3-1.5s-1.4,0-1.2-1.2
			s1.8,1.4,1.8,1.4s1.7-1.7,2.1-1C330.9,128.7,328.6,129.2,328.6,129.2z"/>
		<path class="st21" d="M298.9,129.5c0,0-1.6-1.4-0.5-1.8s1,1.8,1,1.8s0.6-1.2,1.5-1s-1.3,1.5-1.3,1.5s1.4,0,1.2,1.2
			s-1.8-1.4-1.8-1.4s-1.6,1.7-2.1,1C296.7,130.1,298.9,129.5,298.9,129.5z"/>
		<path class="st21" d="M305.8,130.9c0,0,1.6,1.4,0.5,1.8s-1-1.8-1-1.8s-0.6,1.2-1.5,0.9s1.3-1.5,1.3-1.5s-1.4,0-1.2-1.2
			s1.8,1.4,1.8,1.4s1.7-1.7,2.1-1C308,130.3,305.8,130.9,305.8,130.9z"/>
		<path class="st21" d="M311.2,131.9c0,0-1.6-1.4-0.5-1.8s1,1.8,1,1.8s0.6-1.2,1.5-1s-1.3,1.5-1.3,1.5s1.4,0,1.2,1.2
			s-1.8-1.4-1.8-1.4s-1.6,1.7-2.1,1C308.9,132.5,311.2,131.9,311.2,131.9z"/>
		<path class="st21" d="M318,133.3c0,0,1.6,1.4,0.5,1.8s-1-1.8-1-1.8s-0.6,1.2-1.5,1c-0.8-0.2,1.3-1.5,1.3-1.5s-1.4,0-1.2-1.2
			s1.8,1.4,1.8,1.4s1.7-1.7,2.1-1C320.3,132.7,318,133.3,318,133.3z"/>
		<path class="st21" d="M323.5,134.3c0,0-1.6-1.4-0.5-1.8s1,1.8,1,1.8s0.6-1.2,1.5-1s-1.3,1.5-1.3,1.5s1.4,0,1.2,1.2
			s-1.8-1.4-1.8-1.4s-1.7,1.7-2.1,1C321.2,134.9,323.5,134.3,323.5,134.3z"/>
		<path class="st21" d="M330.3,135.7c0,0,1.6,1.4,0.5,1.8s-1-1.8-1-1.8s-0.6,1.2-1.5,1s1.3-1.5,1.3-1.5s-1.4,0-1.2-1.2
			s1.8,1.4,1.8,1.4s1.6-1.7,2.1-1C332.6,135.1,330.3,135.7,330.3,135.7z"/>
		<path class="st21" d="M302,98.9c0,0-1.6-1.4-0.5-1.8s1,1.8,1,1.8s0.6-1.2,1.5-1s-1.3,1.5-1.3,1.5s1.4,0,1.2,1.2s-1.8-1.4-1.8-1.4
			s-1.7,1.7-2.1,1C299.8,99.5,302,98.9,302,98.9z"/>
		<path class="st21" d="M308.8,100.3c0,0,1.6,1.4,0.5,1.8s-1-1.8-1-1.8s-0.7,1.2-1.5,1c-0.9-0.2,1.3-1.5,1.3-1.5s-1.4,0-1.2-1.2
			s1.8,1.4,1.8,1.4s1.6-1.7,2.1-1C311.1,99.7,308.8,100.3,308.8,100.3z"/>
		<path class="st21" d="M314.3,101.3c0,0-1.6-1.4-0.5-1.8s1,1.8,1,1.8s0.6-1.2,1.5-1s-1.3,1.5-1.3,1.5s1.4,0,1.2,1.2
			s-1.8-1.4-1.8-1.4s-1.6,1.7-2.1,1C312,101.9,314.3,101.3,314.3,101.3z"/>
		<path class="st21" d="M321.1,102.7c0,0,1.6,1.4,0.5,1.8s-1-1.8-1-1.8s-0.6,1.2-1.5,1s1.3-1.5,1.3-1.5s-1.4,0-1.2-1.2
			s1.8,1.4,1.8,1.4s1.7-1.7,2.1-1C323.4,102.1,321.1,102.7,321.1,102.7z"/>
		<path class="st21" d="M326.5,103.7c0,0-1.6-1.4-0.5-1.8s1,1.8,1,1.8s0.6-1.2,1.5-0.9s-1.3,1.5-1.3,1.5s1.4,0,1.2,1.2
			c-0.1,1.2-1.8-1.4-1.8-1.4s-1.7,1.7-2.1,1C324.2,104.4,326.5,103.7,326.5,103.7z"/>
		<path class="st21" d="M333.3,105.1c0,0,1.6,1.4,0.5,1.8s-1-1.8-1-1.8s-0.6,1.2-1.5,1c-0.8-0.2,1.3-1.5,1.3-1.5s-1.4,0-1.2-1.2
			s1.8,1.4,1.8,1.4s1.7-1.7,2.1-1S333.3,105.1,333.3,105.1z"/>
		<path class="st21" d="M303.6,105.4c0,0-1.6-1.4-0.5-1.8s1,1.8,1,1.8s0.6-1.2,1.5-1s-1.3,1.5-1.3,1.5s1.4,0,1.2,1.2
			s-1.8-1.4-1.8-1.4s-1.6,1.7-2.1,1C301.4,106,303.6,105.4,303.6,105.4z"/>
		<path class="st21" d="M310.5,106.8c0,0,1.6,1.4,0.5,1.8s-1-1.8-1-1.8s-0.6,1.2-1.5,0.9s1.3-1.5,1.3-1.5s-1.4,0-1.2-1.2
			s1.8,1.4,1.8,1.4s1.6-1.7,2.1-1C312.8,106.2,310.5,106.8,310.5,106.8z"/>
		<path class="st21" d="M315.9,107.8c0,0-1.6-1.4-0.5-1.8s1,1.8,1,1.8s0.7-1.2,1.5-1c0.9,0.2-1.3,1.5-1.3,1.5s1.4,0,1.2,1.2
			s-1.8-1.4-1.8-1.4s-1.6,1.7-2.1,1S315.9,107.8,315.9,107.8z"/>
		<path class="st21" d="M322.8,109.2c0,0,1.6,1.4,0.5,1.8s-1-1.8-1-1.8s-0.6,1.2-1.5,0.9s1.3-1.5,1.3-1.5s-1.4,0-1.2-1.2
			c0.2-1.2,1.8,1.4,1.8,1.4s1.6-1.7,2.1-1C325,108.6,322.8,109.2,322.8,109.2z"/>
		<path class="st21" d="M328.2,110.2c0,0-1.6-1.4-0.5-1.8s1,1.8,1,1.8s0.6-1.2,1.5-1s-1.3,1.5-1.3,1.5s1.4,0,1.2,1.2
			s-1.8-1.4-1.8-1.4s-1.6,1.7-2.1,1C325.9,110.8,328.2,110.2,328.2,110.2z"/>
		<path class="st21" d="M335,111.6c0,0,1.6,1.4,0.5,1.8s-1-1.8-1-1.8s-0.6,1.2-1.5,1s1.3-1.5,1.3-1.5s-1.4,0-1.2-1.2
			s1.8,1.4,1.8,1.4s1.7-1.7,2.1-1C337.3,111,335,111.6,335,111.6z"/>
	</g>
</g>
<path class="st15" d="M217.9,84c0,0-6.1,27.8,5.2,31.8s30.3,2.8,32,23.2c1.7,20.4-94.1,6.4-94.1,6.4s-1.6-22.9,17.6-25.9
	s14.4-5,14.4-26.9S217.9,84,217.9,84z"/>
<path class="st16" d="M216.8,105.8c-3.9,4.3-8.6,7.7-14.6,9c-3.7,0.8-7.5,1.2-11.2,1.1c4.2-3.1,2-8.9,2-23.4
	c0-21.9,24.9-8.5,24.9-8.5S215.2,96.4,216.8,105.8z"/>
<path class="st15" d="M216.5,89.4c0,0,13.6-26.8-4.9-43.7s-35-2-36.1,10.9s-6.1,51.5,16.7,49.4S216.5,89.4,216.5,89.4z"/>
<path class="st3" d="M211.1,48.5c0,0-13.9,10-21,7.7s3-8.6,3-8.6s-12.8,10.5-19.1,6.4s2.3-12,8.3-15s-10.5,13.9-15.4,5.3
	s13.1-9.8,16.5-9s-14.3,2.6-14.6-3s12.4-8.3,20.6-0.8c8.3,7.5-13.9-2.3-9.8-7.5s24.8-2.3,32.6,10.1c0,0,13.7-5.3,19.3,10.9
	s-12.2,38.3-12.2,38.3l-0.4-9.6l-1,10.4l-4.6-1.9l3.4-18.4C216.7,63.8,210.3,59.8,211.1,48.5z"/>
<path class="st4" d="M211.1,48.5c0,0-9,6.4-16.2,7.8c4.4-1.6,8.3-4.4,11.3-8c3.5-4.3,4.9-9.6,5.5-15c0.2,0.2,0.3,0.5,0.5,0.7
	c0,0,13.7-5.3,19.3,10.9s-12.2,38.3-12.2,38.3l-0.4-9.6l-1,10.4l-4.6-1.9l3.4-18.4C216.7,63.7,210.3,59.8,211.1,48.5z"/>
<path class="st22" d="M187.6,87.9c-0.9-0.3-1.9-0.6-2.8-0.9s-1.9-0.6-2.8-1l-0.3-0.1v-0.3c0.5-3.3,1.1-6.6,1.8-9.9
	c0.3-1.6,0.7-3.3,1.1-4.9c0.2-0.8,0.4-1.6,0.6-2.5s0.4-1.6,0.7-2.4c-0.1,0.8-0.2,1.7-0.3,2.5s-0.2,1.7-0.3,2.5
	c-0.2,1.7-0.5,3.3-0.8,5c-0.6,3.3-1.2,6.6-2,9.9l-0.2-0.4c0.9,0.4,1.8,0.8,2.6,1.2S186.7,87.5,187.6,87.9z"/>
<path class="st6" d="M182.1,70.4c0.1,1.4-0.3,2.6-0.9,2.6s-1.1-1.1-1.1-2.5s0.3-2.6,0.9-2.6S182,68.9,182.1,70.4z"/>
<path class="st6" d="M202.6,70.4c0.1,1.4-0.3,2.6-0.9,2.6s-1.1-1.1-1.1-2.5s0.3-2.6,0.9-2.6S202.5,68.9,202.6,70.4z"/>
<path class="st6" d="M204.8,62.5l-0.6-0.2c-0.4-0.1-1-0.3-1.6-0.5c-0.3-0.1-0.7-0.1-1-0.2s-0.7-0.1-1.1-0.2l-0.6-0.1h-0.6
	c-0.4,0-0.8,0-1.2,0s-0.8,0.1-1.2,0.1s-0.8,0.2-1.2,0.3s-0.7,0.2-1.1,0.3l-1,0.3c-0.3,0.1-0.6,0.2-0.9,0.3c-0.3,0.1-0.5,0.2-0.7,0.2
	c-0.2,0.1-0.4,0.1-0.7,0.2c0,0,0.1-0.2,0.3-0.6c0.1-0.2,0.3-0.4,0.5-0.6c0.2-0.3,0.4-0.5,0.7-0.8c0.3-0.3,0.6-0.6,0.9-0.8
	c0.4-0.2,0.8-0.5,1.2-0.7c0.5-0.2,0.9-0.4,1.4-0.5c0.5-0.1,1-0.2,1.5-0.3c0.5,0,1.1,0,1.6,0.1c0.5,0.1,1,0.2,1.5,0.3
	c0.4,0.2,0.9,0.4,1.3,0.6c0.4,0.2,0.7,0.5,1,0.7c0.5,0.4,0.9,0.8,1.2,1.4C204.6,62.1,204.7,62.3,204.8,62.5z"/>
<path class="st6" d="M184.6,63.9l-0.5-0.3l-1.1-0.6c-0.2-0.1-0.4-0.2-0.7-0.3c-0.2-0.1-0.5-0.2-0.7-0.3c-0.2-0.1-0.4-0.1-0.6-0.1
	c-0.2,0-0.4,0-0.6,0c-0.2,0-0.4,0.1-0.6,0.2c-0.2,0.1-0.5,0.2-0.7,0.3c-0.2,0.1-0.5,0.2-0.7,0.4c-0.2,0.1-0.5,0.3-0.7,0.4
	s-0.4,0.3-0.6,0.4l-0.5,0.3c-0.2,0.1-0.3,0.2-0.5,0.2c0-0.2,0-0.4,0.1-0.5c0-0.2,0.1-0.4,0.1-0.6c0.1-0.3,0.2-0.5,0.3-0.7
	c0.1-0.3,0.3-0.5,0.5-0.8c0.2-0.3,0.4-0.6,0.7-0.8c0.3-0.3,0.6-0.5,1-0.7c0.4-0.2,0.8-0.4,1.3-0.5c0.5-0.1,1-0.1,1.4,0.1
	c0.4,0.1,0.9,0.3,1.3,0.5c0.3,0.2,0.6,0.5,0.9,0.8c0.2,0.2,0.4,0.5,0.6,0.8C184.5,62.6,184.6,63.3,184.6,63.9z"/>
<path class="st8" d="M217,73.7l3-1.1c-3,0.6-12.1,4.4-15.7,5c-5.8-0.9-11.5-2.3-17.1-4.1c-5-1.9-13.5,4.8-13.5,4.8
	s-1.2,11.3,2.9,19.5c7.5,15.1,27.2,6.7,27.2,6.7l0.2-2.6l13.9-14.2l-1-0.1l-12.9,13l1.1-22.3C214.2,75.4,217,73.7,217,73.7z"/>
<g>
	<defs>
		<path id="SVGID_7_" d="M217,73.7l3-1.1c-3,0.6-12.1,4.4-15.7,5c-5.8-0.9-11.5-2.3-17.1-4.1c-5-1.9-13.5,4.8-13.5,4.8
			s-1.2,11.3,2.9,19.5c7.5,15.1,27.2,6.7,27.2,6.7l0.2-2.6l13.9-14.2l-1-0.1l-12.9,13l1.1-22.3C214.2,75.4,217,73.7,217,73.7z"/>
	</defs>
	<clipPath id="SVGID_8_">
		<use xlink:href="#SVGID_7_"  style="overflow:visible;"/>
	</clipPath>
	<g class="st23">
		<polygon class="st3" points="210,77.4 206.9,75.6 208.6,79 		"/>
		<polygon class="st3" points="201.3,78.3 203.1,75.3 199.7,76.9 		"/>
		<polygon class="st3" points="196.2,77.4 193.1,75.6 194.8,79 		"/>
		<polygon class="st3" points="187.4,78.3 189.3,75.3 185.9,76.9 		"/>
		<polygon class="st3" points="181.5,77.4 178.4,75.6 180.1,79 		"/>
		<polygon class="st3" points="172.7,78.3 174.6,75.3 171.2,76.9 		"/>
		<polygon class="st3" points="206.7,83.7 203.6,81.8 205.3,85.2 		"/>
		<polygon class="st3" points="197.9,84.6 199.8,81.5 196.4,83.2 		"/>
		<polygon class="st3" points="192.9,83.7 189.8,81.8 191.5,85.2 		"/>
		<polygon class="st3" points="184.1,84.6 186,81.5 182.6,83.2 		"/>
		<polygon class="st3" points="178.2,83.7 175.1,81.8 176.8,85.2 		"/>
		<polygon class="st3" points="169.4,84.6 171.3,81.5 167.9,83.2 		"/>
		<polygon class="st3" points="210,90.6 206.9,88.7 208.6,92.1 		"/>
		<polygon class="st3" points="201.3,91.5 203.1,88.4 199.7,90.1 		"/>
		<polygon class="st3" points="196.2,90.6 193.1,88.7 194.8,92.1 		"/>
		<polygon class="st3" points="187.4,91.5 189.3,88.4 185.9,90.1 		"/>
		<polygon class="st3" points="181.5,90.6 178.4,88.7 180.1,92.1 		"/>
		<polygon class="st3" points="172.7,91.5 174.6,88.4 171.2,90.1 		"/>
		<polygon class="st3" points="210,103.1 206.9,101.2 208.6,104.6 		"/>
		<polygon class="st3" points="201.3,104 203.1,100.9 199.7,102.6 		"/>
		<polygon class="st3" points="196.2,103.1 193.1,101.2 194.8,104.6 		"/>
		<polygon class="st3" points="187.4,104 189.3,100.9 185.9,102.6 		"/>
		<polygon class="st3" points="181.5,103.1 178.4,101.2 180.1,104.6 		"/>
		<polygon class="st3" points="172.7,104 174.6,100.9 171.2,102.6 		"/>
		<polygon class="st3" points="206.7,96.8 203.6,94.9 205.3,98.4 		"/>
		<polygon class="st3" points="197.9,97.7 199.8,94.6 196.4,96.3 		"/>
		<polygon class="st3" points="192.9,96.8 189.8,94.9 191.5,98.4 		"/>
		<polygon class="st3" points="184.1,97.7 186,94.6 182.6,96.3 		"/>
		<polygon class="st3" points="178.2,96.8 175.1,94.9 176.8,98.4 		"/>
		<polygon class="st3" points="169.4,97.7 171.3,94.6 167.9,96.3 		"/>
	</g>
</g>
<path class="st15" d="M214.4,86.9c0,0,5.3-4.1,4.5-13.3c0,0,6-8.4,8.8-1.4C230.9,80.1,221.4,94.5,214.4,86.9z"/>
<path class="st22" d="M219,86.9c0.9-0.7,1.6-1.5,2.2-2.4l0.2-0.3l0.1-0.3c0-0.1,0-0.2,0-0.3c0-0.1,0-0.2,0-0.3
	c0-0.1-0.1-0.2-0.1-0.3c0-0.1-0.1-0.2-0.2-0.3c-0.1-0.1-0.1-0.2-0.3-0.2l-0.3-0.2l-0.2-0.1v-0.2c0-1.5,0.1-3,0.2-4.4
	c0.1-0.7,0.2-1.5,0.4-2.2c0.1-0.8,0.4-1.5,0.8-2.2c0.2-0.4,0.5-0.8,0.9-1c0.2-0.1,0.5-0.2,0.8-0.1c0.1,0,0.2,0,0.2,0.1l0.1,0.1
	l0.3,0.1c0.2,0.1,0.3,0.1,0.5,0.2l0.5,0.4c0.3,0.2,0.6,0.5,0.9,0.9l0.3,0.5l0.1,0.3l0.1,0.3c0,0.2,0.1,0.4,0.1,0.6v0.6
	c0,0.4-0.1,0.8-0.2,1.1c-0.1,0.3-0.3,0.7-0.5,1c0.1-0.4,0.2-0.7,0.3-1.1c0-0.3,0-0.7,0-1l-0.1-0.5l-0.2-0.5l-0.1-0.2l-0.1-0.2
	l-0.3-0.4c-0.3-0.2-0.5-0.5-0.8-0.6l-0.4-0.2c-0.2-0.1-0.3-0.1-0.5-0.2c-0.4-0.1-0.5-0.1-0.7-0.1c-0.2,0.2-0.4,0.4-0.5,0.6
	c-0.5,1.3-0.9,2.7-1,4.1c-0.2,1.4-0.3,2.9-0.4,4.3l-0.2-0.4c0.3,0.2,0.5,0.4,0.7,0.7c0.1,0.1,0.2,0.3,0.3,0.4
	c0.1,0.2,0.1,0.3,0.1,0.5c0,0.2,0,0.3,0,0.5c0,0.2-0.1,0.3-0.1,0.5l-0.2,0.4l-0.1,0.3c-0.4,0.4-0.8,0.8-1.2,1.2
	C220,86.4,219.5,86.7,219,86.9z"/>
<path class="st12" d="M190.5,114.9c0,0,1.3,14.2,16.6,15.3l4.2,10.5l2.1-11.6c0,0,11.9-3.4,13.4-12.9c0,0,19.2,2.9,23.4,8.2
	s14.2,53.2,14.2,53.2l-113.5,4c0,0,1-44.3,9.5-53.7C167.9,119.4,190.5,114.9,190.5,114.9z"/>
<g>
	<defs>
		<path id="SVGID_9_" d="M190.5,114.9c0,0,1.3,14.2,16.6,15.3l4.2,10.5l2.1-11.6c0,0,11.9-3.4,13.4-12.9c0,0,19.2,2.9,23.4,8.2
			s14.2,53.2,14.2,53.2l-113.5,4c0,0,1-44.3,9.5-53.7C167.9,119.4,190.5,114.9,190.5,114.9z"/>
	</defs>
	<clipPath id="SVGID_10_">
		<use xlink:href="#SVGID_9_"  style="overflow:visible;"/>
	</clipPath>
	<g class="st24">
		<polyline class="st25" points="153.6,128.6 154.9,184.7 161,184.7 160.7,121.8 167.8,119.7 167.6,186.1 178.1,186.3 174.7,114.2 
			184.9,113.1 187.3,186.3 197.1,187.1 193.4,114.2 202.9,114.7 205.8,186.1 220.2,185 214.2,116.3 222.1,116.8 230.8,187.1 
			241.1,187.1 235.3,114.2 244.7,115.7 250.3,187.6 259.2,185.3 250.8,118.9 		"/>
	</g>
</g>
<polygon class="st3" points="176,227.3 191.6,355.1 224.9,355.1 218.1,287 227.8,285 243.5,355.1 276.8,355.1 257.2,222.4 "/>
<path class="st4" d="M219.9,305.5l-1.9-18.5l9.8-2l4.2,18.7c12.1-1.9,24.2-4,36.2-6.5l-11-74.8l-81.2,4.9l10.1,82.2
	C197.4,308.4,208.7,307.1,219.9,305.5z"/>
<path class="st16" d="M80.2,94.4l2.4-1.2c0,0-5.5-6-11.4,1.2s2.4,11.4-2.4,22.4s0.7,27.9,14.8,34.8c0,0-3.6-4.1-1.2-5.5
	s11.7,6,16-0.2S80.2,94.4,80.2,94.4z"/>
<path class="st1" d="M101.4,185.2c10.7,0,44.5-18.8,55.2-19c-0.3-7-1.6-12.9-4.9-14.4c-9.2-4.2-28.3,7.6-30.8-10.6
	c-2.7-18.9-2.8-23.4-2.8-23.4L99,136c0,0,5.8,5.9,2.9,16.2c-2.7,9.5-19.3,0.5-23,12.1C94,165.9,86.2,185.2,101.4,185.2z"/>
<path class="st2" d="M102.4,149.9c9.2-0.4,16.5-6.7,17.5-15.3c-1.8-13.4-1.9-16.9-1.9-16.9l-19,18.2C99,135.9,104.1,141,102.4,149.9
	z"/>
<path class="st1" d="M96.9,88.9c0,0-20-0.6-19.5,21.7s9.3,37.2,22.3,36.5c14.7-0.8,22.8-14.7,21.1-32.5
	C119.6,102.3,116.8,85.9,96.9,88.9z"/>
<path class="st15" d="M125.6,114.1c0,0-5.2-6.9-6.8,8.8c-3.6-2.6-4.5-7.5-2-11.2c0,0-15.9-8.1-13.8-21c0,0-16.4-6.3-23.6,8.5
	c0,0,8.9-26.8,34.6-20.6C135.2,83.7,125.6,114.1,125.6,114.1z"/>
<path class="st5" d="M90,115.5c0.1,1.1,0.2,2.2,0.1,3.4c0,1.1-0.1,2.2-0.3,3.4c-0.1,0.6-0.2,1.1-0.3,1.7c-0.1,0.6-0.3,1.1-0.4,1.6
	c-0.1,0.3-0.2,0.6-0.3,0.8c-0.1,0.3-0.2,0.5-0.4,0.8c-0.1,0.3-0.3,0.5-0.5,0.8c-0.2,0.3-0.5,0.5-0.8,0.7v-0.8
	c0.3,0.2,0.7,0.5,1.1,0.7s0.7,0.4,1.1,0.6c0.4,0.2,0.7,0.4,1.1,0.6c0.2,0.1,0.4,0.2,0.6,0.3l0.6,0.2H91c-0.2,0-0.4-0.1-0.6-0.1
	c-0.2,0-0.4-0.1-0.6-0.2c-0.2-0.1-0.4-0.1-0.6-0.2c-0.8-0.3-1.6-0.7-2.4-1.1l-0.5-0.3l0.5-0.6c0.1-0.2,0.3-0.2,0.4-0.5
	c0.1-0.2,0.3-0.4,0.4-0.6c0.1-0.2,0.2-0.5,0.3-0.7c0.1-0.3,0.2-0.5,0.3-0.8c0.1-0.5,0.3-1,0.4-1.6s0.2-1.1,0.4-1.6
	C89.2,119.9,89.6,117.7,90,115.5z"/>
<path class="st6" d="M92.6,111.1c0-0.2,0.1-0.4,0.1-0.6c0.2-0.6,0.4-1.1,0.8-1.6c0.2-0.3,0.5-0.6,0.7-0.9c0.3-0.3,0.6-0.6,1-0.9
	c0.4-0.3,0.8-0.5,1.3-0.7c0.5-0.2,1-0.3,1.5-0.4c0.5,0,1,0,1.5,0c0.5,0,0.9,0.1,1.4,0.2c0.4,0.1,0.9,0.3,1.3,0.4s0.7,0.4,1,0.5
	c0.3,0.1,0.6,0.3,0.8,0.5c0.2,0.2,0.4,0.3,0.6,0.5c0.2,0.1,0.3,0.3,0.5,0.4c0,0-0.2,0-0.6-0.1s-0.9-0.3-1.6-0.3
	c-0.3-0.1-0.7-0.1-1-0.2l-1.1-0.1c-0.4,0-0.8,0-1.2,0c-0.4,0-0.8,0.1-1.2,0.1s-0.8,0.1-1.1,0.3l-0.6,0.2l-0.5,0.2
	c-0.4,0.1-0.7,0.4-1,0.5s-0.6,0.4-0.9,0.6c-0.4,0.3-0.8,0.6-1.2,1C92.8,110.8,92.7,111,92.6,111.1z"/>
<path class="st6" d="M77.2,113.4c0-0.2,0-0.4,0-0.6c0.1-0.9,0.4-1.7,1-2.4c0.3-0.3,0.6-0.6,0.9-0.8c0.2-0.1,0.4-0.2,0.6-0.3
	c0.2-0.1,0.4-0.2,0.6-0.2c0.2-0.1,0.4-0.1,0.7-0.1h0.7c0.4,0,0.9,0,1.3,0.1c0.4,0.1,0.8,0.2,1.2,0.3c0.4,0.1,0.7,0.3,1,0.5
	c0.3,0.2,0.6,0.3,0.8,0.5c0.2,0.2,0.5,0.3,0.7,0.5c0.2,0.2,0.4,0.3,0.5,0.4s0.4,0.4,0.4,0.4s-0.2,0-0.6-0.1s-0.8-0.2-1.4-0.3
	c-0.3,0-0.6-0.1-0.9-0.2c-0.3-0.1-0.7-0.1-1-0.2c-0.3-0.1-0.7-0.1-1-0.1c-0.3,0-0.7,0-1,0h-0.5l-0.5,0.1c-0.3,0-0.6,0.1-0.9,0.2
	c-0.3,0.1-0.5,0.2-0.8,0.4c-0.2,0.1-0.5,0.3-0.6,0.5c-0.2,0.2-0.4,0.4-0.5,0.5l-0.4,0.5C77.4,113.2,77.3,113.3,77.2,113.4z"/>
<path class="st6" d="M104.8,116.9c0,0-0.1-0.2-0.2-0.5c-0.2-0.4-0.4-0.9-0.6-1.3c-0.3-0.5-0.7-1-1.2-1.4c-0.3-0.2-0.5-0.3-0.9-0.4
	c-0.1,0-0.3,0-0.5,0l-0.5,0.1l-0.5,0.1l-0.4,0.2c-0.3,0.2-0.5,0.4-0.7,0.6c-0.2,0.3-0.4,0.5-0.5,0.8c-0.1,0.3-0.2,0.6-0.3,0.9
	c-0.2,0.7-0.3,1.3-0.4,2c-0.1-0.2-0.1-0.4-0.1-0.6c-0.1-0.5-0.1-1-0.1-1.5c0-0.3,0.1-0.7,0.2-1c0.2-0.8,0.7-1.6,1.4-2.1
	c0.2-0.1,0.4-0.2,0.7-0.4l0.6-0.2l0.7-0.1c0.2,0,0.5,0,0.7,0.1c0.5,0.1,0.9,0.3,1.2,0.6c0.3,0.3,0.6,0.6,0.8,0.9
	c0.2,0.3,0.3,0.7,0.4,1c0.2,0.5,0.3,1,0.3,1.5C104.8,116.8,104.8,116.9,104.8,116.9z"/>
<path class="st6" d="M87.6,120.2c0,0-0.1-0.2-0.2-0.5c-0.2-0.4-0.4-0.9-0.6-1.3c-0.3-0.6-0.7-1-1.2-1.4c-0.3-0.2-0.5-0.3-0.9-0.4
	c-0.1,0-0.3,0-0.5,0l-0.5,0.1l-0.5,0.1l-0.4,0.2c-0.3,0.2-0.5,0.4-0.7,0.6c-0.2,0.3-0.4,0.5-0.5,0.8c-0.1,0.3-0.2,0.6-0.3,0.9
	c-0.2,0.7-0.3,1.3-0.4,2c-0.1-0.2-0.1-0.4-0.1-0.6c-0.1-0.5-0.1-1-0.1-1.5c0-0.3,0.1-0.7,0.2-1c0.1-0.4,0.3-0.8,0.5-1.1
	c0.2-0.4,0.6-0.7,0.9-1c0.2-0.1,0.4-0.2,0.7-0.4l0.6-0.2l0.7-0.1c0.2,0,0.5,0,0.7,0.1c0.5,0.1,0.9,0.3,1.2,0.6
	c0.3,0.3,0.6,0.6,0.8,0.9c0.2,0.3,0.3,0.7,0.4,1c0.2,0.5,0.3,1,0.3,1.5C87.6,119.9,87.6,120.2,87.6,120.2z"/>
<path class="st12" d="M119.4,115.9l2.7-1.6c-2.8,1.1-10.6,6.2-14,7.3c-5.6,0.1-11.2-0.3-16.8-1c-5.1-1-11.9,6.8-11.9,6.8
	c0.5,5.1,2.4,9.9,5.5,13.9c9.5,13,26.6,1.8,26.6,1.8l-0.3-2.4l10.7-15.6l-0.9,0.1l-10,14.4l-2.2-17.2
	C117.1,117.9,119.4,115.9,119.4,115.9z"/>
<g>
	<defs>
		<path id="SVGID_11_" d="M119.4,115.9l2.7-1.6c-2.8,1.1-10.6,6.2-14,7.3c-5.6,0.1-11.2-0.3-16.8-1c-5.1-1-11.9,6.8-11.9,6.8
			c0.5,5.1,2.4,9.9,5.5,13.9c9.5,13,26.6,1.8,26.6,1.8l-0.3-2.4l10.7-15.6l-0.9,0.1l-10,14.4l-2.2-17.2
			C117.1,117.9,119.4,115.9,119.4,115.9z"/>
	</defs>
	<clipPath id="SVGID_12_">
		<use xlink:href="#SVGID_11_"  style="overflow:visible;"/>
	</clipPath>
	<g class="st26">
		<path class="st27" d="M80.5,124.5c0,0,4.4,14.7,13,25.4H98c0,0-11.8-22.2-13.5-31.5l8,1.1l8.9,30.4l5.4-0.8l-7.5-29l6.5-1.1
			c0,0,3.8,28.2,4.8,28.2"/>
	</g>
</g>
<path class="st15" d="M80.6,97.2c0,0,6.7-9.5,13.8-6s-4.1,15.5,13.1,21.7s-3.6,22.4,16.2,27.9c0,0-4-5,0.7-6.2s21-6.9,17.6-22.9
	s-16.2-13.3-16-24.6c0.2-12.1-24.6-17.3-39.8-4.8C75.6,91.3,80.6,97.2,80.6,97.2z"/>
<path class="st1" d="M119.2,126.4c0,0,3-3.9,0.8-10.3c0,0,2.7-7.1,6.1-2.6C129.8,118.5,125.5,130.7,119.2,126.4z"/>
<path class="st5" d="M122.4,125.7c0.5-0.6,0.8-1.4,1.1-2.1c0-0.2,0.1-0.3,0.1-0.5c0-0.1,0-0.3-0.1-0.4c0-0.1-0.1-0.1-0.1-0.2
	s-0.1-0.1-0.2-0.1c-0.1-0.1-0.3-0.1-0.4-0.2l-0.2-0.1l-0.1-0.2c-0.3-1.1-0.5-2.1-0.7-3.2c-0.1-0.5-0.1-1.1-0.1-1.6
	c0-0.6,0-1.2,0.1-1.7c0.1-0.4,0.3-0.7,0.5-0.9c0.2-0.2,0.4-0.2,0.6-0.3c0.1,0,0.1,0,0.2,0h0.1h0.2c0.1,0,0.3,0,0.4,0.1l0.5,0.2
	c0.3,0.1,0.6,0.3,0.8,0.5c0.2,0.2,0.4,0.5,0.5,0.7c0.1,0.1,0.1,0.3,0.2,0.4l0.1,0.4c0,0.3,0,0.6,0,0.9c0,0.3-0.1,0.5-0.2,0.8
	c0-0.3,0-0.5,0-0.8c0-0.3-0.1-0.5-0.2-0.8l-0.1-0.3l-0.2-0.3c-0.1-0.2-0.3-0.3-0.5-0.5s-0.4-0.3-0.6-0.3l-0.3-0.1h-0.4
	c-0.4,0-0.3,0-0.4,0.1c-0.1,0.1-0.2,0.3-0.2,0.5c-0.1,1-0.1,2,0.1,3c0.1,1.1,0.3,2.1,0.5,3.2l-0.3-0.3c0.2,0.1,0.4,0.2,0.6,0.4
	c0.1,0.1,0.2,0.2,0.3,0.3c0.1,0.1,0.1,0.2,0.2,0.4c0.1,0.2,0.1,0.5,0.1,0.8c0,0.2-0.1,0.4-0.2,0.7c-0.2,0.4-0.4,0.7-0.7,1.1
	C123,125.1,122.7,125.4,122.4,125.7z"/>
<path class="st8" d="M105.6,205.7c0,0-12.5,26.8-13.6,47.2s8.4,102.2,8.4,102.2h49l-4.4-78.6l26.5,78.6h45
	c0,0-16.9-130.5-62.3-159.4L105.6,205.7z"/>
<g>
	<defs>
		<path id="SVGID_13_" d="M105.6,205.7c0,0-12.5,26.8-13.6,47.2s8.4,102.2,8.4,102.2h49l-4.4-78.6l26.5,78.6h45
			c0,0-16.9-130.5-62.3-159.4L105.6,205.7z"/>
	</defs>
	<clipPath id="SVGID_14_">
		<use xlink:href="#SVGID_13_"  style="overflow:visible;"/>
	</clipPath>
	<g class="st28">
		<path class="st14" d="M103.6,358.2c0,0-12-98.6,6.1-156.8l4.8,1c0,0-8.1,88.2-5.2,155.4h8.1l0.9-156.3l4.8,0.5l2.9,156.3h11
			l-11-158.7l6.2-0.5l10.1,162.5l6.2-1l-12-159.6l3.3-0.5c0,0,13.6,107.4,36,156.9l5.3-0.5L141.2,198l4.3-1.9
			c0,0,39.9,145.5,42.2,161.7l7.1-0.5c0,0-30.8-143.6-47.5-163.6l2.4-1c0,0,43.2,83.5,52.7,165.5l9-0.5c0,0-21.7-134.5-61.8-166.9"
			/>
	</g>
</g>
<path class="st29" d="M105.7,314.5c13.6-1.8,27.4-3,41.1-4.3l-1.9-33.7l11,32.8c2.8-0.3,5.5-0.6,8.3-0.9c14.1-1.7,28.2-3.7,42.2-6
	c-9.4-39.7-26.1-90-52.2-106.6l-48.6,10c0,0-12.5,26.8-13.6,47.2c-0.6,10.8,1.8,38.8,4.2,62.8C99.4,315.3,102.5,314.9,105.7,314.5z"
	/>
<path class="st1" d="M78.3,161.9c0,0-13.2,6.8-33.3,19.7l-13.2-43.3c14-21.1-1.1-5.7-1.1-5.7c0.8-29.8-3.6-2.9-3.6-2.9
	c-0.2-34.4-3.7,0.6-3.7,0.6c-3.5-31.9-3.4-0.9-3.4-0.9c-9.7-34,1.4,41.7,5.7,62.1c6.7,32,67-11.8,69.7-13.9c9.1-4.5-10.1,8.6,0,0
	C114.1,161.8,78.3,161.9,78.3,161.9z"/>
<path class="st2" d="M95.4,177.6C85.3,186.2,104.6,173.2,95.4,177.6z"/>
<path class="st2" d="M78.3,161.9c0,0-12.1,6.2-30.7,18c1,7.2,3.1,14.2,6.4,20.7c18.7-6.3,39.9-21.7,41.5-23
	C114.1,161.8,78.3,161.9,78.3,161.9z"/>
<path class="st3" d="M48.4,177.4c0,0,4.3,12.9,11.4,22.5c0,0,20.7-7.9,29.7-15.4c0,0-1.1,14.3,16.1,21.1c0,0,32.2,0,48.6-10
	c4.6-16.5,4.6-29.7,2.9-36.8s-6.8-8.6-15-9.3c0,0-8.6,13.9-24,14.6s-23.9-7.9-23.9-7.9s-7.1-1.4-15.7,3.2
	C69.8,164.2,48.4,177.4,48.4,177.4z"/>
<path class="st3" d="M142,149.5c0,0,22,0.5,28.7,28l-26.9,1.8L142,149.5z"/>
<path class="st4" d="M89.5,185.5c0.1-0.5,0.2-1.1,0.3-1.6v-0.1c-6-6.6-10.4-14.5-14-22.7c-9.7,5.5-27.4,16.4-27.4,16.4
	s4.3,12.9,11.4,22.5c0,0,20.7-7.9,29.7-15.4C89.5,184.6,89.4,184.9,89.5,185.5z"/>
<path class="st4" d="M131.1,195.4c-7.1,2.5-14.6,3.9-22.2,4.1c-4.9,0.1-10.6-0.1-15.2-2.4c3.1,3.9,7.2,6.9,11.9,8.6
	c0,0,32.2,0,48.6-10c1.8-6.2,3-12.6,3.6-19C150.7,185.1,141.5,191.6,131.1,195.4z"/>
<path class="st4" d="M102.2,203.1c0,0-5.2,10-6.6,20.4c0,0,28,13.3,79.7-8.1l-21.8-21.8L102.2,203.1z"/>
<polygon class="st18" points="440.2,278.5 113.5,303.6 101.9,175.4 423.1,146 "/>
<path class="st1" d="M187.9,167.2c0,0,1.8-5.3,6.9-4.6c1.7-1,3.6-1.2,5.5-0.6c0,0,3.2-1,3.9,0s9,21.3-1.9,4.2c0,0,7.1,27.5-3.2,0
	c0,0,1.3,22.3-3.3,0.2c0,0-2,23-4,0.5L187.9,167.2"/>
<path class="st15" d="M352.8,152.2c0,0,1.9-5.7,7.5-5c1.8-1,3.9-1.3,5.9-0.7c0,0,3.5-1,4.2,0c0.7,1,9.8,23-2.1,4.5
	c0,0,5.6,31.3-3.5,0c0,0,5.1,32.6-3.6,0.2c0,0-0.2,30.1-4.4,0.5L352.8,152.2"/>
<path class="st15" d="M280.5,159.3c0,0-2.9-5.2-8.3-3.5c-2-0.7-4.1-0.5-6,0.4c0,0-3.6-0.4-4.1,0.8s-5.3,24.4,2.9,4
	c0,0,0.4,31.9,3.4-0.6c0,0,1.1,33,3.5-0.4c0,0,5.8,29.6,4.4-0.3L280.5,159.3"/>
<g class="st30">
	<path class="st12" d="M180.1,195.4c0.5,0.5,0.8,1.2,0.8,2s-0.3,1.4-0.8,2c-0.5,0.5-1.2,0.8-2,0.8c-0.8,0-1.4-0.3-2-0.8
		s-0.8-1.2-0.8-2s0.3-1.4,0.8-2s1.2-0.8,2-0.8C178.9,194.6,179.6,194.8,180.1,195.4z M179.9,203.5l0.8,16.3v2.2h-5.3v-2.2l0.7-16.3
		H179.9z"/>
	<path class="st12" d="M200,206.4h-8.9l-2.1,6.4h-5.2l9.3-25.9h4.8l9.3,25.9h-5.2L200,206.4z M198.7,202.5l-3.1-9.2h-0.2l-3,9.2
		H198.7z"/>
	<path class="st12" d="M217.6,211.9c-0.9-0.8-1.6-1.6-2.1-2.5h-0.3v11.1h-5.1v-27.2h5.1v3h0.3c0.4-0.8,1.1-1.6,2-2.4
		c0.9-0.8,2.2-1.1,3.9-1.1c2.5,0,4.4,0.9,5.8,2.8c1.3,1.9,2,4.3,2,7.4c0,3-0.7,5.5-2,7.3c-1.3,1.8-3.3,2.8-5.7,2.8
		C219.8,213.1,218.5,212.7,217.6,211.9z M223,207.2c0.7-1.2,1.1-2.6,1.1-4.3c0-1.6-0.4-3-1.1-4.2c-0.7-1.2-1.8-1.8-3.3-1.8
		c-1.5,0-2.6,0.6-3.3,1.8c-0.7,1.2-1.1,2.6-1.1,4.2c0,1.7,0.4,3.1,1.1,4.3c0.7,1.2,1.8,1.8,3.3,1.8C221.1,209,222.2,208.4,223,207.2
		z"/>
</g>
<g class="st30">
	<path class="st12" d="M236.6,211.7c-1.4-0.9-2.4-2.2-3.1-3.7c-0.7-1.5-1-3.2-1-5s0.3-3.5,1-5.1c0.7-1.5,1.7-2.8,3.1-3.7
		c1.4-0.9,3.1-1.4,5.2-1.4s3.8,0.5,5.2,1.4s2.5,2.2,3.1,3.7c0.7,1.5,1,3.2,1,5s-0.3,3.5-1,5.1c-0.7,1.5-1.7,2.8-3.1,3.7
		c-1.4,0.9-3.1,1.4-5.2,1.4S238,212.6,236.6,211.7z M245,207.2c0.7-1.1,1.1-2.6,1.1-4.3s-0.4-3.2-1.1-4.3c-0.7-1.1-1.8-1.7-3.2-1.7
		s-2.5,0.6-3.2,1.7c-0.7,1.1-1.1,2.5-1.1,4.3s0.4,3.2,1.1,4.3c0.7,1.1,1.8,1.7,3.2,1.7C243.2,208.9,244.3,208.4,245,207.2z"/>
</g>
<g class="st30">
	<path class="st12" d="M262,218c-0.4,0.7-1.1,1.4-2.1,2.1s-2.3,1-3.9,1c-0.7,0-1.3-0.1-1.8-0.2c-0.5-0.1-0.8-0.2-0.9-0.2v-3.6
		c0.4,0.1,0.9,0.1,1.6,0.1c0.8,0,1.5-0.1,2-0.4c0.5-0.3,0.9-0.6,1.2-1.1s0.6-1.1,0.9-1.8l0.6-1.6l-7-19.1h5.2l4.2,13.4h0.2l4.4-13.4
		h5.2l-8.6,22.3C262.8,216.5,262.4,217.3,262,218z"/>
	<path class="st12" d="M275.3,210.3c-1.4-1.9-2-4.3-2-7.3c0-3.1,0.7-5.6,2.1-7.4c1.4-1.9,3.3-2.8,5.8-2.8c1.7,0,2.9,0.4,3.9,1.1
		c0.9,0.8,1.6,1.5,2,2.4h0.3v-3h5.1v19.5h-5.1v-3.4h-0.3c-0.4,0.9-1.1,1.8-2.1,2.5c-0.9,0.8-2.2,1.1-3.9,1.1
		C278.5,213.1,276.6,212.2,275.3,210.3z M286.1,207.2c0.7-1.2,1.1-2.6,1.1-4.3s-0.4-3.1-1.1-4.2c-0.7-1.2-1.8-1.7-3.3-1.7
		s-2.6,0.6-3.3,1.7c-0.7,1.2-1.1,2.6-1.1,4.2c0,1.7,0.4,3.1,1.1,4.3c0.7,1.2,1.8,1.8,3.3,1.8C284.3,208.9,285.4,208.3,286.1,207.2z"
		/>
	<path class="st12" d="M306.6,210.3c-1.4-1.9-2-4.3-2-7.3c0-3.1,0.7-5.6,2.1-7.4c1.4-1.9,3.3-2.8,5.8-2.8c1.7,0,2.9,0.4,3.9,1.1
		c0.9,0.8,1.6,1.5,2,2.4h0.3v-3h5.1v19.5h-5.1v-3.4h-0.3c-0.4,0.9-1.1,1.8-2.1,2.5s-2.2,1.1-3.9,1.1
		C309.8,213.1,308,212.2,306.6,210.3z M317.4,207.2c0.7-1.2,1.1-2.6,1.1-4.3s-0.4-3.1-1.1-4.2s-1.8-1.7-3.3-1.7
		c-1.5,0-2.6,0.6-3.3,1.7c-0.7,1.2-1.1,2.6-1.1,4.2c0,1.7,0.4,3.1,1.1,4.3c0.7,1.2,1.8,1.8,3.3,1.8
		C315.6,208.9,316.7,208.3,317.4,207.2z"/>
	<path class="st12" d="M338.9,212.1c-0.9-0.6-1.4-1.2-1.6-2.1c-0.2-0.8-0.3-1.9-0.3-3.2V185h5.1v20.8c0,0.9,0,1.5,0.1,2
		c0.1,0.4,0.3,0.8,0.7,1c0.4,0.3,1.1,0.4,1.9,0.4c0.3,0,0.6,0,1-0.1v3.6c-1.3,0.1-2.2,0.2-3,0.2
		C341.1,212.9,339.8,212.7,338.9,212.1z"/>
	<path class="st12" d="M350.6,210.3c-1.4-1.9-2-4.3-2-7.3c0-3.1,0.7-5.6,2.1-7.4c1.4-1.9,3.3-2.8,5.8-2.8c1.7,0,2.9,0.4,3.9,1.1
		c0.9,0.8,1.6,1.5,2,2.4h0.3v-3h5.1v19.5h-5.1v-3.4h-0.3c-0.4,0.9-1.1,1.8-2.1,2.5s-2.2,1.1-3.9,1.1
		C353.8,213.1,351.9,212.2,350.6,210.3z M361.4,207.2c0.7-1.2,1.1-2.6,1.1-4.3s-0.4-3.1-1.1-4.2s-1.8-1.7-3.3-1.7
		c-1.5,0-2.6,0.6-3.3,1.7c-0.7,1.2-1.1,2.6-1.1,4.2c0,1.7,0.4,3.1,1.1,4.3c0.7,1.2,1.8,1.8,3.3,1.8
		C359.6,208.9,360.7,208.3,361.4,207.2z"/>
</g>
<g class="st30">
	<path class="st12" d="M190.7,256.6c-1.2-0.6-2.1-1.4-2.7-2.4c-0.6-1-0.9-2.1-0.9-3.2v-0.2h5v0.2c0,0.7,0.3,1.3,0.8,1.8
		c0.5,0.5,1.3,0.8,2.3,0.8c0.8,0,1.5-0.2,2-0.6c0.5-0.4,0.8-0.9,0.8-1.6c0-0.6-0.2-1.1-0.7-1.4s-1-0.6-1.7-0.7l-2.2-0.4
		c-1.5-0.3-2.8-0.9-4-1.7c-1.2-0.9-1.8-2.2-1.8-4c0-1.9,0.7-3.3,2-4.3c1.4-1,3.1-1.6,5.2-1.6c1.6,0,2.9,0.3,4,0.9
		c1.1,0.6,2,1.3,2.6,2.2c0.6,0.9,0.9,1.9,0.9,3v0.1h-5v-0.1c0-0.6-0.2-1.1-0.7-1.6c-0.4-0.5-1.1-0.8-2-0.8c-0.8,0-1.4,0.2-1.9,0.6
		c-0.5,0.4-0.7,0.9-0.7,1.6c0,0.6,0.2,1.1,0.7,1.4s1.1,0.6,1.8,0.7l2.4,0.5c1.6,0.3,2.9,1,4,1.9c1.1,0.9,1.6,2.2,1.6,3.8
		c0,1.2-0.3,2.3-1,3.3s-1.6,1.7-2.8,2.2c-1.2,0.5-2.5,0.8-3.9,0.8C193.4,257.5,191.9,257.2,190.7,256.6z"/>
	<path class="st12" d="M209.6,256.1c-1.4-0.9-2.4-2.2-3.1-3.7c-0.7-1.5-1-3.2-1-5s0.3-3.5,1-5.1c0.7-1.5,1.7-2.8,3.1-3.7
		c1.4-0.9,3.1-1.4,5.2-1.4s3.8,0.5,5.2,1.4s2.5,2.2,3.1,3.7c0.7,1.5,1,3.2,1,5s-0.3,3.5-1,5.1c-0.7,1.5-1.7,2.8-3.1,3.7
		c-1.4,0.9-3.1,1.4-5.2,1.4S211,257,209.6,256.1z M218,251.6c0.7-1.1,1.1-2.6,1.1-4.3s-0.4-3.2-1.1-4.3c-0.7-1.1-1.8-1.7-3.2-1.7
		s-2.5,0.6-3.2,1.7c-0.7,1.1-1.1,2.5-1.1,4.3s0.4,3.2,1.1,4.3c0.7,1.1,1.8,1.7,3.2,1.7C216.2,253.3,217.3,252.8,218,251.6z"/>
	<path class="st12" d="M231.3,256.1c-1.4-1-2.4-2.2-3.1-3.8c-0.7-1.6-1-3.2-1-5c0-1.8,0.3-3.4,1-4.9c0.7-1.5,1.7-2.8,3.1-3.8
		c1.4-1,3.1-1.4,5.2-1.4c2.6,0,4.7,0.7,6.2,2.2c1.5,1.5,2.4,3.4,2.8,5.6h-5c-0.2-1.1-0.6-2-1.2-2.7c-0.7-0.7-1.5-1-2.7-1
		c-1.5,0-2.6,0.6-3.3,1.7s-1.1,2.6-1.1,4.2c0,1.7,0.4,3.1,1.1,4.3s1.8,1.7,3.3,1.7c1.1,0,2-0.3,2.7-1s1.1-1.6,1.3-2.7h5
		c-0.3,2.3-1.2,4.2-2.8,5.6c-1.5,1.5-3.6,2.2-6.2,2.2C234.5,257.5,232.7,257,231.3,256.1z"/>
	<path class="st12" d="M250,233.4c-0.5-0.6-0.8-1.2-0.8-2c0-0.8,0.3-1.5,0.8-2c0.5-0.5,1.2-0.8,2-0.8s1.5,0.3,2,0.8
		c0.5,0.6,0.8,1.2,0.8,2c0,0.8-0.3,1.5-0.8,2c-0.5,0.6-1.2,0.8-2,0.8S250.6,234,250,233.4z M249.6,237.6h5.1v19.5h-5.1V237.6z"/>
	<path class="st12" d="M263,256.1c-1.4-0.9-2.4-2.2-3.1-3.7c-0.7-1.5-1-3.2-1-5c0-1.8,0.3-3.4,1-5c0.7-1.5,1.7-2.8,3.1-3.8
		c1.4-1,3.1-1.4,5.2-1.4c2.7,0,4.9,0.9,6.5,2.6c1.6,1.8,2.4,4.3,2.4,7.6v1.4h-13.4v0.3c0,1.2,0.4,2.2,1.2,3.1
		c0.8,0.9,1.8,1.3,3.1,1.3c1,0,1.8-0.2,2.4-0.7c0.7-0.4,1.1-1,1.4-1.8h5c-0.5,1.9-1.5,3.5-3,4.7c-1.5,1.2-3.4,1.8-5.8,1.8
		C266.2,257.5,264.4,257,263,256.1z M272.3,245.5c0-1.6-0.4-2.7-1.2-3.4c-0.7-0.7-1.7-1.1-2.9-1.1c-1.3,0-2.3,0.4-3,1.2
		c-0.7,0.8-1.1,1.9-1.2,3.3H272.3z"/>
	<path class="st12" d="M282.2,254.7c-1.3-1.9-2-4.3-2-7.3c0-3.1,0.7-5.6,2-7.4c1.3-1.8,3.3-2.8,5.8-2.8c1.7,0,3,0.4,3.9,1.1
		c0.9,0.8,1.6,1.5,2,2.4h0.3v-11.3h5.1v27.8h-5.1v-3.4h-0.3c-0.4,0.9-1.1,1.8-2.1,2.5s-2.2,1.1-3.9,1.1
		C285.4,257.5,283.5,256.6,282.2,254.7z M293,251.6c0.7-1.2,1.1-2.6,1.1-4.3c0-1.6-0.4-3-1.1-4.2c-0.7-1.2-1.8-1.8-3.3-1.8
		c-1.5,0-2.6,0.6-3.3,1.8c-0.7,1.2-1.1,2.6-1.1,4.2c0,1.7,0.4,3.1,1.1,4.3c0.7,1.2,1.8,1.8,3.3,1.8
		C291.2,253.4,292.3,252.8,293,251.6z"/>
</g>
<g class="st30">
	<path class="st12" d="M304.8,254.7c-1.4-1.9-2-4.3-2-7.3c0-3.1,0.7-5.6,2.1-7.4c1.4-1.9,3.3-2.8,5.8-2.8c1.7,0,2.9,0.4,3.9,1.1
		c0.9,0.8,1.6,1.5,2,2.4h0.3v-3h5.1v19.5h-5.1v-3.4h-0.3c-0.4,0.9-1.1,1.8-2.1,2.5c-0.9,0.8-2.2,1.1-3.9,1.1
		C308,257.5,306.1,256.6,304.8,254.7z M315.6,251.6c0.7-1.2,1.1-2.6,1.1-4.3s-0.4-3.1-1.1-4.2c-0.7-1.2-1.8-1.7-3.3-1.7
		c-1.5,0-2.6,0.6-3.3,1.7c-0.7,1.2-1.1,2.6-1.1,4.2c0,1.7,0.4,3.1,1.1,4.3c0.7,1.2,1.8,1.8,3.3,1.8
		C313.8,253.3,314.9,252.7,315.6,251.6z"/>
</g>
<g class="st30">
	<path class="st12" d="M327.8,254.7c-1.3-1.9-2-4.3-2-7.3c0-3.1,0.7-5.6,2-7.4c1.3-1.8,3.3-2.8,5.8-2.8c1.7,0,3,0.4,3.9,1.1
		c0.9,0.8,1.6,1.5,2,2.4h0.3v-11.3h5.1v27.8h-5.1v-3.4h-0.3c-0.4,0.9-1.1,1.8-2.1,2.5c-0.9,0.8-2.2,1.1-3.9,1.1
		C331.1,257.5,329.2,256.6,327.8,254.7z M338.7,251.6c0.7-1.2,1.1-2.6,1.1-4.3c0-1.6-0.4-3-1.1-4.2c-0.7-1.2-1.8-1.8-3.3-1.8
		c-1.5,0-2.6,0.6-3.3,1.8c-0.7,1.2-1.1,2.6-1.1,4.2c0,1.7,0.4,3.1,1.1,4.3c0.7,1.2,1.8,1.8,3.3,1.8
		C336.9,253.4,338,252.8,338.7,251.6z"/>
	<path class="st12" d="M350.2,256.7c-0.5-0.5-0.8-1.2-0.8-2c0-0.8,0.3-1.4,0.8-2c0.5-0.5,1.2-0.8,2-0.8c0.8,0,1.4,0.3,2,0.8
		c0.5,0.5,0.8,1.2,0.8,2c0,0.8-0.3,1.4-0.8,2c-0.5,0.5-1.2,0.8-2,0.8C351.4,257.5,350.8,257.3,350.2,256.7z M349.6,232.3v-2.2h5.3
		v2.2l-0.8,16.3h-3.7L349.6,232.3z"/>
</g>
</svg>
