<svg id="Capa_1" data-name="Capa 1" xmlns="http://www.w3.org/2000/svg" viewBox="0 0 280.98 80.35"><defs><style>.cls-1{font-size:72.06px;font-family:BeVietnam-Bold, Be Vietnam;font-weight:700;}.cls-2{letter-spacing:0.01em;}.cls-3{letter-spacing:0em;}.cls-4{letter-spacing:0.01em;}.cls-5{fill:#ff5646;}</style></defs><title>logo-svg</title><text class="cls-1" transform="translate(0 61.25)">sa<tspan class="cls-2" x="80.06" y="0">r</tspan><tspan class="cls-3" x="108.45" y="0">s</tspan><tspan class="cls-4" x="144.05" y="0">I</tspan><tspan x="163.94" y="0">nf</tspan></text><path class="cls-5" d="M431.24,705.1a3.41,3.41,0,0,0-3.54,1.84l-6.22-.92a14.56,14.56,0,0,0-.62-5.45l2.91-1.15a2.39,2.39,0,1,0-.79-2l-2.91,1.15a14.9,14.9,0,0,0-3.27-4.4l3.33-4.22a3,3,0,1,0-1.67-1.32l-3.34,4.21a14.41,14.41,0,0,0-5-2.17l.33-2.21a2.44,2.44,0,1,0-3.16-2.68,2.46,2.46,0,0,0,1,2.37l-.32,2.2a14.56,14.56,0,0,0-5.45.63l-2-5a3,3,0,1,0-2,.79l2,5a14.56,14.56,0,0,0-4.4,3.27l-1.81-1.44a2.93,2.93,0,1,0-1.33,1.68l1.81,1.43a14.41,14.41,0,0,0-2.17,5L387.3,701a3,3,0,1,0-.31,2.12l5.32.78a14.56,14.56,0,0,0,.63,5.45l-2.35.93a3,3,0,1,0,.79,2l2.35-.93a14.44,14.44,0,0,0,3.27,4.4l-3.34,4.22a3,3,0,1,0,1.67,1.33l3.34-4.22a14.43,14.43,0,0,0,5,2.18l-.35,2.33a2.32,2.32,0,1,0,2.12.31l.34-2.33a14.36,14.36,0,0,0,5.45-.63l2,5a3,3,0,1,0,2-.79l-2-5a14.64,14.64,0,0,0,4.4-3.28l4.63,3.67a2.5,2.5,0,1,0,1.33-1.68L419,713.17a14.43,14.43,0,0,0,2.18-5l6.22.92a3.41,3.41,0,1,0,3.85-3.95Z" transform="translate(-153.18 -661.89)"/></svg>