<?xml version="1.0" encoding="utf-8"?>
<!-- Generator: Adobe Illustrator 24.0.2, SVG Export Plug-In . SVG Version: 6.00 Build 0)  -->
<svg version="1.1" id="Capa_1" xmlns="http://www.w3.org/2000/svg" xmlns:xlink="http://www.w3.org/1999/xlink" x="0px" y="0px"
	 viewBox="0 0 281 80.3" style="enable-background:new 0 0 281 80.3;" xml:space="preserve">
<style type="text/css">
	.st0{enable-background:new    ;}
	.st1{fill:#FF5646;}
</style>
<title>logo-svg</title>
<g class="st0">
	<path d="M9.9,60c-2.3-1.2-4.1-2.8-5.3-4.7c-1.2-1.9-1.8-4-1.8-6.2v-0.4h9.7v0.4c0,1.3,0.5,2.5,1.5,3.5s2.5,1.5,4.4,1.5
		c1.6,0,2.9-0.4,3.9-1.1c1-0.7,1.5-1.8,1.5-3.1c0-1.2-0.4-2.1-1.3-2.7c-0.9-0.7-1.9-1.1-3.2-1.3L14.9,45c-2.8-0.5-5.4-1.7-7.7-3.4
		c-2.3-1.7-3.5-4.3-3.5-7.9c0-3.6,1.3-6.4,4-8.5c2.6-2,6-3.1,10.2-3.1c3,0,5.6,0.6,7.9,1.7c2.2,1.1,3.9,2.6,5,4.4
		c1.2,1.8,1.7,3.7,1.7,5.8v0.3h-9.7v-0.2c0-1.2-0.4-2.2-1.3-3.2c-0.9-1-2.2-1.5-4-1.5c-1.5,0-2.7,0.4-3.6,1.2
		c-0.9,0.8-1.4,1.8-1.4,3c0,1.2,0.5,2.1,1.4,2.7c0.9,0.7,2.1,1.1,3.5,1.4l4.8,0.9c3.1,0.7,5.7,1.9,7.8,3.6c2.1,1.8,3.2,4.2,3.2,7.5
		c0,2.4-0.6,4.5-1.9,6.3c-1.3,1.8-3.1,3.2-5.4,4.2c-2.3,1-4.8,1.5-7.6,1.5C15,61.8,12.2,61.2,9.9,60z"/>
	<path d="M42.2,56.4c-2.6-3.6-4-8.4-4-14.3c0-6,1.3-10.8,4-14.4c2.7-3.6,6.4-5.4,11.2-5.4c3.2,0,5.7,0.7,7.6,2.2
		c1.8,1.5,3.1,3,3.9,4.6h0.6v-5.9h10v38h-10v-6.6h-0.6c-0.9,1.8-2.2,3.4-4,4.9c-1.8,1.5-4.4,2.2-7.6,2.2
		C48.5,61.8,44.8,60,42.2,56.4z M63.3,50.3c1.4-2.3,2.2-5.1,2.2-8.3c0-3.2-0.7-6-2.1-8.2c-1.4-2.3-3.6-3.4-6.4-3.4s-5,1.1-6.4,3.4
		c-1.4,2.3-2.1,5-2.1,8.2c0,3.3,0.7,6,2.1,8.3c1.4,2.3,3.5,3.4,6.4,3.4C59.7,53.8,61.8,52.6,63.3,50.3z"/>
</g>
<g class="st0">
	<path d="M84.5,23.2h9.9v6.1h0.5c0.6-1.7,1.8-3.1,3.5-4.3c1.7-1.2,3.8-1.8,6.5-1.8c1,0,1.9,0.1,2.6,0.3l-0.4,9.2
		c-1.2-0.3-2.5-0.5-3.8-0.5c-3,0-5.2,0.8-6.6,2.3c-1.4,1.6-2.2,4.1-2.2,7.7v19h-9.9V23.2z"/>
</g>
<g class="st0">
	<path d="M118.4,60c-2.3-1.2-4.1-2.8-5.3-4.7c-1.2-1.9-1.8-4-1.8-6.2v-0.4h9.7v0.4c0,1.3,0.5,2.5,1.5,3.5s2.5,1.5,4.4,1.5
		c1.6,0,2.9-0.4,3.9-1.1c1-0.7,1.5-1.8,1.5-3.1c0-1.2-0.4-2.1-1.3-2.7c-0.9-0.7-1.9-1.1-3.2-1.3l-4.3-0.9c-2.8-0.5-5.4-1.7-7.7-3.4
		c-2.3-1.7-3.5-4.3-3.5-7.9c0-3.6,1.3-6.4,4-8.5c2.6-2,6-3.1,10.2-3.1c3,0,5.6,0.6,7.9,1.7c2.2,1.1,3.9,2.6,5,4.4
		c1.2,1.8,1.7,3.7,1.7,5.8v0.3h-9.7v-0.2c0-1.2-0.4-2.2-1.3-3.2c-0.9-1-2.2-1.5-4-1.5c-1.5,0-2.7,0.4-3.6,1.2
		c-0.9,0.8-1.4,1.8-1.4,3c0,1.2,0.5,2.1,1.4,2.7c0.9,0.7,2.1,1.1,3.5,1.4l4.8,0.9c3.1,0.7,5.7,1.9,7.8,3.6c2.1,1.8,3.2,4.2,3.2,7.5
		c0,2.4-0.6,4.5-1.9,6.3c-1.3,1.8-3.1,3.2-5.4,4.2c-2.3,1-4.8,1.5-7.6,1.5C123.5,61.8,120.7,61.2,118.4,60z"/>
</g>
<g class="st0">
	<path d="M148.7,10.8h10.1v50.4h-10.1V10.8z"/>
</g>
<g class="st0">
	<path d="M168,23.2h10.1V29h0.5c0.9-1.9,2.3-3.5,4.2-4.8c1.9-1.3,4.3-2,7-2c4.9,0,8.4,1.6,10.5,4.8c2,3.2,3.1,6.8,3.1,10.8v23.4
		h-9.9V39.5c0-2.8-0.7-5-2-6.6c-1.3-1.6-3.2-2.4-5.6-2.4c-2.5,0-4.5,0.8-5.8,2.5c-1.3,1.7-1.9,3.8-1.9,6.5v21.8H168V23.2z"/>
	<path d="M226.3,15.9c-0.7,0.6-1.1,1.3-1.3,2.2c-0.2,0.8-0.3,2-0.3,3.4v1.8h8.5V31h-8.5v30.3h-9.9V31H210v-7.8h4.8v-3.8
		c0-2.9,0.8-5.6,2.4-7.9c1.6-2.3,4.8-3.5,9.7-3.5c1.2,0,2.5,0.1,3.8,0.2c1.3,0.1,2.2,0.3,2.6,0.5v6.6c-1.2-0.2-2.4-0.3-3.7-0.3
		C228.1,15,227,15.3,226.3,15.9z"/>
</g>
<path class="st1" d="M278.1,43.2c-1.5-0.2-2.9,0.5-3.5,1.8l-6.2-0.9c0.1-1.8-0.1-3.7-0.6-5.5l2.9-1.2c1,0.9,2.5,0.8,3.4-0.2
	c0.9-1,0.8-2.5-0.2-3.4c-1-0.9-2.5-0.8-3.4,0.2c-0.3,0.4-0.5,0.9-0.6,1.4l-2.9,1.2c-0.8-1.7-1.9-3.1-3.3-4.4l3.3-4.2
	c1.6,0.5,3.3-0.4,3.8-2c0.5-1.6-0.4-3.3-2-3.8c-1.6-0.5-3.3,0.4-3.8,2c-0.3,0.8-0.2,1.7,0.3,2.4l-3.3,4.2c-1.5-1-3.2-1.8-5-2.2
	l0.3-2.2c1.3-0.4,2-1.8,1.6-3.1s-1.8-2-3.1-1.6c-0.9,0.3-1.5,1-1.7,2c-0.1,0.9,0.2,1.8,1,2.4l-0.3,2.2c-1.8-0.1-3.7,0.1-5.5,0.6
	l-2-5c1.2-1.1,1.3-3,0.2-4.2c-1.1-1.2-3-1.3-4.2-0.2c-1.2,1.1-1.3,3-0.2,4.2c0.6,0.6,1.4,1,2.2,1l2,5c-1.7,0.8-3.2,1.9-4.4,3.3
	l-1.8-1.4c0.5-1.5-0.4-3.2-2-3.7c-1.5-0.5-3.2,0.4-3.7,2s0.4,3.2,2,3.7c0.8,0.2,1.6,0.1,2.3-0.3l1.8,1.4c-1,1.5-1.8,3.2-2.2,5
	l-5.3-0.7c-0.4-1.6-2-2.6-3.6-2.3c-1.6,0.4-2.6,2-2.3,3.6c0.4,1.6,2,2.6,3.6,2.3c0.8-0.2,1.5-0.7,2-1.5l5.3,0.8
	c-0.1,1.8,0.1,3.7,0.6,5.5l-2.4,0.9c-1.1-1.2-3-1.3-4.2-0.2c-1.2,1.1-1.3,3-0.2,4.2s3,1.3,4.2,0.2c0.6-0.6,1-1.4,1-2.2l2.4-0.9
	c0.8,1.7,1.9,3.2,3.3,4.4l-3.3,4.2c-1.6-0.5-3.3,0.4-3.8,1.9c-0.5,1.6,0.4,3.3,1.9,3.8c1.6,0.5,3.3-0.4,3.8-1.9
	c0.3-0.8,0.2-1.7-0.3-2.4l3.3-4.2c1.5,1,3.2,1.8,5,2.2l-0.4,2.3c-1.2,0.4-1.8,1.7-1.4,3c0.4,1.2,1.7,1.8,3,1.4
	c1.2-0.4,1.8-1.7,1.4-3c-0.2-0.4-0.4-0.8-0.8-1.1l0.3-2.3c1.8,0.1,3.7-0.1,5.5-0.6l2,5c-1.2,1.1-1.3,3-0.2,4.2
	c1.1,1.2,3,1.3,4.2,0.2c1.2-1.1,1.3-3,0.2-4.2c-0.6-0.6-1.4-1-2.2-1l-2-5c1.7-0.8,3.2-1.9,4.4-3.3l4.6,3.7c-0.3,1.3,0.5,2.7,1.9,3
	s2.7-0.5,3-1.9c0.3-1.3-0.5-2.7-1.9-3c-0.6-0.1-1.2-0.1-1.7,0.2l-4.6-3.7c1-1.5,1.8-3.2,2.2-5l6.2,0.9c0.3,1.9,2.1,3.1,3.9,2.8
	s3.1-2.1,2.8-3.9C280.7,44.6,279.5,43.5,278.1,43.2L278.1,43.2z"/>
</svg>
