<?xml version="1.0" encoding="utf-8"?>
<!-- Generator: Adobe Illustrator 24.0.2, SVG Export Plug-In . SVG Version: 6.00 Build 0)  -->
<svg version="1.1" xmlns="http://www.w3.org/2000/svg" xmlns:xlink="http://www.w3.org/1999/xlink" x="0px" y="0px"
	 viewBox="0 0 500 500" style="enable-background:new 0 0 500 500;" xml:space="preserve">
<g id="BACKGROUND" style="display:none;">
	<rect style="display:inline;fill:#BFB8BF;" width="500" height="500"/>
	<path style="display:inline;opacity:0.5;fill:#BFB8BF;" d="M500,139.41c-1.12-0.29-2.23-0.56-3.31-0.82
		c-0.75-2.41-1.29-3.95-1.29-3.95l0.02-0.53v0l0.09-2.29c1.39-0.47,2.88-1.16,4.49-2.08V49.42c-3.31-2.6-11.2-7.18-23.64-4.7
		c-0.08-0.25-0.17-0.51-0.33-0.85c0,0,0,0,0,0c0.4-1.5,2.37-1.88,3.43-2.99c0.15-0.16,0.29-0.33,0.39-0.52
		c0.18-0.32,0.27-0.66,0.32-1.02c0.02-0.18,0.03-0.36,0.04-0.55c0-0.18,0-0.37-0.01-0.55c-0.01-0.31-0.04-0.63-0.09-0.93
		c-0.06-0.31-0.15-0.6-0.3-0.87c-0.15-0.27-0.37-0.51-0.64-0.68c-0.13-0.08-0.27-0.15-0.42-0.19c-0.15-0.04-0.3-0.05-0.45-0.04
		c0.28-0.11,0.54-0.26,0.79-0.43c1.06-0.74,1.75-2.03,1.83-3.35c0.11-1.62-0.58-3.22-1.62-4.45c-0.35-0.42-0.76-0.81-1.21-1.12
		c-0.45-0.32-0.94-0.56-1.48-0.68c-1.18-0.28-2.48,0.06-3.37,0.88c-0.64,0.59-1.05,1.41-1.17,2.27c0-0.67,0-1.34,0-2.01
		c0-0.41-0.01-0.85-0.24-1.19c-0.2-0.29-0.53-0.45-0.85-0.6c-1.38-0.64-2.96-1.28-4.36-0.68c-1.44,0.61-2.08,2.27-2.56,3.75
		c0.83-2.35-0.95-5.11-3.36-5.73c-2.41-0.63-5.06,0.6-6.55,2.6c0.06-1.63-0.14-3.69-1.68-4.25c-0.42-0.15-0.88-0.16-1.33-0.13
		c-3.17,0.16-6.25,1.6-8.42,3.91c-2.17,2.31-3.39,5.49-3.35,8.66c0.04,2.64,0.91,5.19,1.78,7.68c-1,0-2.12,0.05-2.8,0.79
		c-0.65,0.72-1.59,0.37-2.17,2.48v0c-0.03,0.09-0.05,0.19-0.07,0.3c-0.02,0.09-0.04,0.19-0.06,0.3c-0.02,0.1-0.04,0.21-0.06,0.32
		c-0.01,0.07-0.02,0.14-0.04,0.21c-0.03,0.19-0.06,0.39-0.09,0.61c-0.04,0.32-0.06,0.61-0.07,0.88c-0.06,1.34,0.18,2.1,0.53,2.6
		c0.35,0.5,0.81,0.73,1.19,1.01c0.15,0.11,0.29,0.23,0.41,0.38c0.06,0.07,0.11,0.16,0.15,0.25c0.09,0.18,0.14,0.4,0.16,0.68
		c0.02,0.48,0.08,0.97,0.15,1.45c0.06,0.4,0.15,0.79,0.28,1.17c0.13,0.38,0.29,0.74,0.52,1.07c0.18,0.27,0.4,0.51,0.65,0.72
		c0.25,0.21,0.53,0.39,0.82,0.52c0.59,0.26,1.24,0.33,1.84,0.11c-0.12,0.49-0.1,1.06,0.03,1.64c0.1,0.47,0.28,0.94,0.5,1.37
		c0.23,0.43,0.5,0.82,0.81,1.12c0.1,0.09,0.2,0.18,0.3,0.26c0.21,0.15,0.42,0.27,0.64,0.33c0.11,0.03,0.22,0.05,0.34,0.06
		c0.02,0,0.03,0.01,0.05,0.01c0.12,0,0.23-0.01,0.35-0.03c0.12-0.03,0.24-0.07,0.35-0.13c1.15-0.6,2.17-1.04,3.11-1.39
		c-0.03,0.16-0.03,0.29-0.02,0.4c0.01,0.11,0.04,0.19,0.08,0.26c0.1,0.17,0.29,0.24,0.5,0.3c-3.2,4.71-4.94,10.18-5.49,15.74v0
		c0,0,0,0,0,0.01c-0.46,4.6-0.1,9.24,0.9,13.58c0.02,0.09,0.04,0.18,0.06,0.27c0.29,1.21,0.63,2.39,1.02,3.55
		c0.06,0.19,0.13,0.38,0.2,0.57c0.18,0.52,0.38,1.03,0.58,1.53c0.1,0.25,0.2,0.49,0.3,0.74c0.12,0.28,0.24,0.56,0.37,0.84
		c0.2,0.43,0.4,0.85,0.61,1.27c0.11,0.22,0.23,0.44,0.35,0.66c0.17,0.32,0.35,0.64,0.53,0.95c0.11,0.2,0.23,0.4,0.35,0.59
		c0.25,0.41,0.51,0.81,0.77,1.2c0.11,0.16,0.22,0.32,0.33,0.48c0.3,0.42,0.6,0.82,0.91,1.21c0.08,0.1,0.17,0.2,0.26,0.31
		c0.29,0.35,0.58,0.68,0.88,1c0.08,0.09,0.16,0.18,0.24,0.26c0.35,0.37,0.72,0.72,1.09,1.05c0.09,0.08,0.19,0.17,0.28,0.25
		c0.38,0.34,0.77,0.66,1.17,0.95c0.04,0.03,0.09,0.06,0.13,0.09c0.38,0.28,0.77,0.53,1.17,0.77c0.08,0.05,0.16,0.1,0.24,0.15
		c0.42,0.24,0.85,0.46,1.28,0.66c0.09,0.04,0.18,0.08,0.27,0.12c0.45,0.2,0.91,0.38,1.37,0.52c0.28,0.2,0.6,0.38,0.66,0.75
		c0.09,0.5-0.39,0.92-0.84,1.15c-0.46,0.23-0.99,0.45-1.17,0.93c-0.21,0.57,0.24,1.21,0.8,1.43c0.57,0.22,1.2,0.13,1.8,0.04
		c-0.07,0.36,0.12,0.74,0.41,0.97c0.29,0.23,0.65,0.34,1.02,0.41c0.27,0.05,0.55,0.08,0.82,0.01c0.51-0.14,0.85-0.62,1.14-1.06
		c0.38,0.8,0.78,1.62,1.44,2.2c0.66,0.59,1.65,0.89,2.45,0.51c0.37-0.18,0.65-0.5,0.87-0.86c0.4,0.87,0.81,1.72,1.26,2.55l0.2,3.03
		l0.84,12.96c-12.43-0.34-18.11,2.11-18.11,2.11c-3.43-1.16-7.47-0.3-12.16,3.91c0,0-1.65,1.2-3.28,4.29c0,0,0,0,0,0
		c-0.14,0.26-0.27,0.53-0.41,0.81c-0.01,0.02-0.02,0.05-0.03,0.07c-0.13,0.27-0.26,0.56-0.38,0.86c-0.01,0.02-0.02,0.05-0.03,0.07
		c-0.4,0.97-0.78,2.07-1.12,3.32c-0.02,0.07-0.04,0.15-0.05,0.22c-0.09,0.33-0.17,0.67-0.25,1.02c-0.03,0.13-0.05,0.26-0.08,0.38
		c-0.07,0.31-0.13,0.63-0.19,0.95c-0.03,0.15-0.05,0.31-0.08,0.46c-0.05,0.32-0.1,0.65-0.15,0.98c-0.02,0.17-0.05,0.33-0.07,0.5
		c-0.05,0.36-0.09,0.74-0.12,1.12c-0.01,0.15-0.03,0.29-0.04,0.44c-0.05,0.54-0.09,1.09-0.11,1.67c0,0.02,0,0.04,0,0.07
		c-0.01,0.29-0.02,0.6-0.03,0.9c-1.26-2.81-2.8-5.67-4.51-8.52c-4.25-35.72-17.61-71.04-29.95-82.05
		c-14.54-12.97-31.82-8.91-45.28-1.82v0c0,0,0,0,0,0c-4.02,2.12-7.69,4.51-10.85,6.79l-0.14-2.47c0.05-0.05,0.1-0.1,0.14-0.15
		c0.24-0.28,0.47-0.56,0.68-0.84c0.64-0.86,1.14-1.77,1.48-2.71c0.11-0.32,0.21-0.63,0.28-0.96c0.08-0.36,0.15-1.06,0.21-2.04
		c0.03-0.43,0.05-0.91,0.07-1.44c2-0.68,3.7-2.15,4.1-4.18c-0.53-0.26-1.06-0.52-1.59-0.79c1.21,0.27,2.47,0.53,3.68,0.25
		c1.21-0.28,2.35-1.27,2.37-2.51c0.02-1.24-1.53-2.33-2.54-1.61c7.84-7.37,10.95-18.74,10.43-29.49c-0.02-0.37-0.04-0.75-0.07-1.12
		c-0.19-2.36-0.66-4.74-2.03-6.65c-1.58-2.21-4.7-3.54-7.13-2.32c0.65-3.61,0.75-7.32,0.27-10.96c-0.16-1.2-0.39-2.42-0.8-3.56
		H301.5c-0.78,0.87-1.34,1.98-1.73,3.09c-0.98,2.78-1.29,6.55-0.74,9.95c0.27,1.64,0.72,3.2,1.42,4.5c0.87,1.61,2.35,2.75,3.83,3.79
		c0.33,0.23,0.66,0.46,1,0.67c-0.05,0.22-0.07,0.45-0.11,0.68c-0.13,0.66-0.24,1.33-0.33,2.02c0,0,0,0,0,0
		c-0.14,1.08-0.24,2.17-0.3,3.29c-0.41,8.25,1,12.1,1.08,14.22c0.02,0.55,0.03,1.12,0.04,1.7h0c0,0-9.35,8.09-8.4,16.22
		c0.93,7.95,9.87,20.82,20.61,17.24c0.11,0.04,0.22,0.09,0.34,0.13c0.06,0.02,0.13,0.04,0.2,0.06v3.32
		c-3.04-0.17-9.18,0.67-15.03,8.54c-0.76,1.02-1.5,2.16-2.24,3.42c-2.72-1.77-6.11-3.35-7.88-1.72c-3.25,2.99-7.49,17.48-7.49,17.48
		s0.25,2.07,1.75,6.65c0,0-23.98,39.47-24.23,59.12c-0.05,3.69,0.38,7.17,1.21,10.33c3.57,13.66,14.56,21.11,26.52,11.68
		c0.03,0.13,0.06,0.28,0.08,0.44c0.01,0.05,0.01,0.11,0.02,0.17c0.02,0.12,0.03,0.24,0.04,0.37c0.01,0.07,0.01,0.15,0.02,0.23
		c0.01,0.13,0.02,0.27,0.03,0.41c0,0.09,0.01,0.17,0.01,0.26c0.01,0.16,0.01,0.32,0.01,0.49c0,0.09,0,0.17,0,0.27
		c0,0.22,0,0.45,0,0.69c0,0.05,0,0.1,0,0.15c0,0.3-0.01,0.61-0.02,0.93c0,0.09-0.01,0.19-0.01,0.28c-0.01,0.24-0.02,0.48-0.03,0.73
		c-0.01,0.13-0.01,0.26-0.02,0.39c-0.01,0.23-0.02,0.47-0.04,0.72c-0.01,0.14-0.02,0.28-0.02,0.42c-0.02,0.25-0.03,0.51-0.05,0.77
		c-0.01,0.14-0.02,0.28-0.03,0.43c-0.02,0.3-0.04,0.61-0.07,0.92c-0.01,0.12-0.02,0.23-0.03,0.35c-0.03,0.43-0.07,0.88-0.11,1.34
		c-0.01,0.08-0.01,0.16-0.02,0.24c-0.03,0.38-0.07,0.77-0.1,1.16c-0.02,0.17-0.03,0.34-0.05,0.52c-0.03,0.32-0.06,0.63-0.09,0.96
		c-0.02,0.19-0.04,0.38-0.06,0.58c-0.03,0.32-0.06,0.65-0.1,0.99c-0.02,0.19-0.04,0.38-0.06,0.58c-0.04,0.35-0.07,0.71-0.11,1.06
		c-0.02,0.18-0.04,0.36-0.06,0.55c-0.11,1.08-0.24,2.2-0.36,3.35c-0.02,0.19-0.04,0.39-0.07,0.58c-0.04,0.38-0.09,0.77-0.13,1.16
		c-0.03,0.23-0.05,0.46-0.08,0.68c-0.04,0.38-0.09,0.76-0.13,1.14c-0.03,0.24-0.06,0.48-0.08,0.72c-0.05,0.39-0.09,0.78-0.14,1.17
		c-0.03,0.22-0.05,0.45-0.08,0.67c-0.06,0.51-0.12,1.03-0.19,1.55c-0.01,0.11-0.03,0.21-0.04,0.32c-0.04,0.34-0.08,0.69-0.13,1.04
		c-13.51-7.49-30.37-17.01-31.62-18.55c-1.06-1.3-3.68-8.1-6.03-14.55c0.02-0.02,0.05-0.04,0.07-0.06c0,0,1.84-19.91-2.47-32.64
		c0,0,0,0,0.01,0c-0.02-0.06-0.04-0.11-0.06-0.17c-0.12-0.36-0.26-0.71-0.39-1.06c-0.07-0.18-0.14-0.37-0.21-0.55
		c-0.14-0.34-0.29-0.66-0.43-0.98c-0.08-0.18-0.16-0.36-0.24-0.53c-0.15-0.31-0.32-0.6-0.48-0.9c-0.09-0.17-0.18-0.34-0.28-0.5
		c-0.17-0.28-0.35-0.54-0.52-0.81c-0.1-0.16-0.21-0.32-0.31-0.47c-0.18-0.25-0.38-0.48-0.57-0.72c-0.12-0.14-0.23-0.29-0.35-0.42
		c-0.2-0.23-0.42-0.43-0.64-0.63c-0.12-0.12-0.24-0.25-0.37-0.36c-0.24-0.21-0.5-0.39-0.75-0.57c-0.12-0.08-0.23-0.18-0.35-0.26
		c-0.38-0.25-0.78-0.47-1.2-0.65c-0.64-0.29-1.3-0.56-1.98-0.82c-0.21-0.08-0.43-0.16-0.64-0.24c-0.49-0.18-0.98-0.36-1.48-0.53
		c-0.24-0.08-0.49-0.16-0.73-0.24c-0.51-0.16-1.03-0.32-1.56-0.48c-0.22-0.07-0.45-0.13-0.67-0.19c-0.66-0.18-1.33-0.36-2.01-0.53
		c-0.1-0.02-0.19-0.05-0.28-0.07c-1.64-0.4-3.34-0.76-5.08-1.08c-0.11-0.02-0.21-0.04-0.32-0.06c-0.29-0.05-0.59-0.11-0.88-0.16
		c-1-0.37-2.03-0.75-3.11-1.15c-1.46-0.54-2.98-1.1-4.52-1.66c-0.51-0.19-1.03-0.37-1.55-0.56c-1.56-0.55-3.13-1.1-4.69-1.61
		c-0.52-0.17-1.04-0.34-1.56-0.5c-0.02-0.01-0.04-0.01-0.05-0.02v-2.41c2.21-1.01,5.65-3.29,7.14-6.48
		c2.06-4.44,4.6-15.02,2.82-17.04c0,0,0,0,0,0c1.64-9.86,1.59-21.08,1.19-29.33c1.45-1.29,4.05-5.83,4.04-11.04
		c0-0.15,0-0.31,0-0.46c0-0.02,0-0.04,0-0.06c-0.01-0.36-0.04-0.72-0.08-1.09c-0.16-1.61-0.57-3.25-1.37-4.86
		c-2.64-5.3-7.31-7.28-10.91-8c-0.27-3.47-0.79-6.45-1.2-7.99c-2.09-7.87-21.89-5.64-40.02,3.25s-8.38,24.46-10.77,27.71
		c-0.94,1.28-1.83,1.39-2.76,1.53c0,0,0,0,0,0c-0.07,0.01-0.14,0.02-0.2,0.03c-0.02,0-0.05,0.01-0.07,0.01
		c-0.09,0.01-0.17,0.03-0.26,0.05c-0.01,0-0.01,0-0.01,0c-0.08,0.02-0.16,0.04-0.24,0.06c-0.03,0.01-0.05,0.02-0.08,0.02
		c-0.06,0.02-0.12,0.03-0.18,0.05c-0.03,0.01-0.07,0.02-0.1,0.03c-0.06,0.02-0.11,0.04-0.17,0.07c-0.03,0.01-0.06,0.03-0.1,0.04
		c-0.06,0.03-0.13,0.06-0.19,0.1c-0.02,0.01-0.05,0.03-0.07,0.04c-0.09,0.05-0.18,0.11-0.27,0.17c-0.02,0.01-0.04,0.03-0.06,0.05
		c-0.07,0.05-0.14,0.11-0.21,0.17c-0.03,0.03-0.07,0.06-0.1,0.09c-0.06,0.05-0.12,0.11-0.19,0.17c-0.04,0.04-0.07,0.07-0.11,0.11
		c-0.06,0.07-0.13,0.14-0.19,0.21c-0.03,0.04-0.07,0.08-0.1,0.12c-0.08,0.09-0.16,0.2-0.24,0.3c-0.02,0.03-0.04,0.05-0.06,0.08
		c-0.1,0.14-0.2,0.28-0.3,0.44c-0.03,0.05-0.06,0.1-0.09,0.15c-0.07,0.12-0.15,0.24-0.22,0.37c-0.04,0.07-0.08,0.14-0.12,0.21
		c-0.07,0.12-0.14,0.25-0.21,0.39c-0.04,0.08-0.08,0.15-0.12,0.23c-0.07,0.15-0.15,0.3-0.22,0.46c-0.04,0.08-0.07,0.15-0.11,0.23
		c-0.11,0.24-0.22,0.5-0.34,0.77c-3.25,7.79,9.06,8.8,7.87,12.91c-0.6,2.05-0.98,2.18-1.67,2.91c-0.09,0.09-0.18,0.19-0.27,0.31
		c-0.05,0.06-0.1,0.12-0.15,0.18c-0.15,0.19-0.32,0.43-0.5,0.71c-0.12,0.19-0.25,0.41-0.39,0.65c-0.56,0.98-1.25,2.42-2.15,4.64
		c-1.01,2.5-0.46,4.84,0.89,6.9c0.3,0.46,0.64,0.9,1.02,1.33c0.93,1.07,2.06,2.06,3.27,2.92c0.96,0.69,1.97,1.32,2.96,1.86
		c0.74,0.41,1.47,0.76,2.16,1.07c0.69,0.31,1.34,0.57,1.93,0.77c1.17,0.41,2.07,0.6,2.49,0.53c0.23-0.03,0.4-0.2,0.54-0.45
		c0.2,0.42,0.41,0.83,0.63,1.23c0.25,0.44,0.51,0.86,0.79,1.26c0.09,0.13,0.18,0.25,0.28,0.38c0.19,0.26,0.38,0.52,0.59,0.77
		c0.11,0.14,0.23,0.28,0.35,0.41c0.19,0.22,0.39,0.44,0.59,0.64c0.12,0.13,0.25,0.26,0.38,0.38c0.22,0.21,0.45,0.41,0.68,0.61
		c0.12,0.1,0.23,0.21,0.35,0.3c0.33,0.27,0.67,0.53,1.03,0.77c0.15,0.1,0.31,0.2,0.46,0.3c0.22,0.14,0.44,0.28,0.66,0.41
		c0.18,0.11,0.37,0.21,0.56,0.31c0.11,0.06,0.22,0.13,0.34,0.18l0.02,0.43l0.38,7.27c-9.61,3.51-19.48,7.96-22.52,9.32
		c-0.46,0.2-0.93,0.55-1.42,1.03c0,0-26.66,20.99-34.77,40.93c0,0,0,0,0,0c-0.21,0.52-0.41,1.05-0.6,1.57
		c-0.04,0.12-0.09,0.25-0.13,0.37c-0.15,0.44-0.3,0.89-0.43,1.33c-0.08,0.27-0.15,0.54-0.23,0.81c-0.09,0.32-0.18,0.65-0.26,0.97
		c-0.04,0.19-0.08,0.37-0.12,0.56l-0.01,0c0,0-6.04,11.41-8.86,18.59c-0.05-0.16-0.09-0.3-0.11-0.4c-0.35-1.72-2.19-13.2-3.99-24.53
		c6.88-7.33,13.67-17.88,12.45-30.23c-0.09-0.89-0.2-1.77-0.33-2.65c-0.04-0.26-0.08-0.51-0.12-0.77c-0.1-0.64-0.21-1.28-0.33-1.92
		c-0.05-0.25-0.09-0.5-0.14-0.74c-0.16-0.8-0.33-1.6-0.52-2.38c-0.01-0.04-0.02-0.08-0.03-0.13c-0.21-0.86-0.43-1.72-0.66-2.57
		c-0.04-0.15-0.09-0.3-0.13-0.46c-0.2-0.71-0.41-1.41-0.63-2.11c-0.05-0.15-0.09-0.3-0.14-0.45c-0.82-2.57-1.75-5.05-2.73-7.46
		c0,0,0,0,0,0c-5.51-13.48-12.75-24.59-12.39-34.57c0.54-14.86,8.91-48.68-4.6-60.09c-16.5-13.93-29.35-5.68-29.35-5.68
		s-9.87-8.75-31.11,1.62C6.62,56.8,22.54,90.21,13.11,100.09c-2.88,3.02-7.66,6.01-13.11,9.05V500h500V139.41z"/>
</g>
<g id="OBJECTS">
	<g>
		<defs>
			<rect id="SVGID_1_" width="500" height="500"/>
		</defs>
		<clipPath id="SVGID_2_">
			<use xlink:href="#SVGID_1_"  style="overflow:visible;"/>
		</clipPath>
		<g style="clip-path:url(#SVGID_2_);">
			<path style="fill:#CC663B;" d="M47.19,88.78c0,0,0-40.61,35.01-44.81c35.01-4.2,46.77,12.04,49.85,15.96
				c3.08,3.92,4.48,19.88,12.88,23.52c8.4,3.64,32.21,2.52,33.33,24.92c1.12,22.4-11.2,28-10.64,35.29
				c0.56,7.28,6.72,15.96,2.52,24.36c-4.2,8.4-14.84,22.68-28.85,26.88c-14,4.2-78.97-19.88-87.09-24.08
				c-8.12-4.2-24.92-10.64-29.41-31.93C20.31,117.63,43.27,98.58,47.19,88.78z"/>
			<path style="opacity:0.3;fill:#CC663B;" d="M164.19,177.42c-1.46-0.27-2.91-0.7-4.27-1.24c-7.45-2.93-13.95-8.86-16.35-16.5
				c-2.4-7.64-0.04-16.86,6.49-21.5c2.25-1.6,5.27-3.32,4.97-6.06c-0.3-2.83-3.81-3.82-6.1-5.51c-2.45-1.82-3.67-4.81-4.76-7.66
				c-3.09-8.15-5.94-16.38-8.55-24.69c-0.74-2.35-1.45-4.94-0.49-7.2c-3.67,4.58-11.12,4.63-15.96,1.3
				c-4.84-3.33-7.43-9.11-8.69-14.84c-0.23-1.05-0.47-2.18-1.26-2.91c-0.72-0.66-1.75-0.84-2.72-0.87
				c-4.31-0.15-9.08,1.87-12.66-0.54c-1.53-1.03-2.49-2.71-3.83-3.97c-1.34-1.27-3.49-2.09-4.99-1.02c-0.86,0.61-1.26,1.66-1.73,2.6
				c-3.36,6.61-13.33,8.6-18.96,3.78c-1.22-1.05-2.42-2.41-4.03-2.45c-2.22-0.05-3.57,2.41-4.19,4.55
				c-6.04,20.77,6.91,43.75,0.14,64.3c-1.22,3.69-3.52,7.55-7.32,8.37c-1.65,0.36-3.38,0.07-5.02-0.35
				c-6.6-1.69-12.49-5.73-16.71-11.04c-1.02-1.29-1.95-2.67-2.77-4.1c-0.36,2.96-0.3,5.99,0.35,9.07
				c4.48,21.28,21.28,27.72,29.41,31.93c8.12,4.2,73.09,28.28,87.1,24.08C150.79,192.07,158.75,184.57,164.19,177.42z"/>
			<g>
				<path style="fill:#EF8A3D;" d="M150.09,327.84c0,0,7.56,43.42,2.41,48.13c-5.15,4.7,15.27,97.44,15.27,97.44l-53.99-3.15
					c0,0-26.17-69.05-25.39-93.36c0,0-19.31,74.26-7.52,113.38c11.78,39.12-36.15,15.06-36.15,15.06s-24.64-168.4-4.47-200.99
					C60.41,271.75,150.09,327.84,150.09,327.84z"/>
				<g style="opacity:0.3;">
					<path style="opacity:0.3;fill:#DC8C6B;" d="M50.77,319.76c-5.66,1.17-11.62,2.76-16.69,5.74c-1,7.14-1.57,15.36-1.8,24.28
						c2.87,1.21,6.2,1.38,9.14,0.33c3.42-1.22,6.2-3.88,9.67-4.96c6.76-2.11,13.62,2.19,20.35,4.4c10.48,3.45,22.28,1.88,32.38,6.34
						c7.76,3.43,13.59,10.01,19.16,16.4c6.49,7.44,13.06,15,17.26,23.94c4.19,8.94,5.76,19.58,1.94,28.69
						c-2.54,6.05-7.41,11.09-13.37,13.84c-1.82,0.84-3.9,1.62-4.79,3.41c-1.13,2.27,0.28,5.05,2.22,6.68
						c1.94,1.63,4.38,2.59,6.3,4.24c4.13,3.55,5.1,9.51,5.26,14.95c0.03,1.06,0.08,2.22,0.79,3.01c0.33,0.36,0.75,0.59,1.22,0.73
						l2.75,0.16c8.11-0.49,15.63-4.32,22.86-8.07c0.09-0.05,0.18-0.1,0.27-0.14c-5.06-23.89-17.31-83.98-13.19-87.75
						c5.15-4.7-2.41-48.13-2.41-48.13s-12.35-7.72-28.91-15.77c-1.35,0.12-2.7,0.23-4.03,0.35
						C94.95,314.33,72.58,315.24,50.77,319.76z"/>
					<path style="opacity:0.3;fill:#6E386A;" d="M86.29,367.28c-0.58-2.59-1.75-5.53-4.32-6.19c-1.24-0.32-2.56-0.02-3.74,0.49
						c-6.44,2.76-8.84,10.49-10.5,17.3c-1.58,6.49-3.18,13.06-3.19,19.74c0,4.34,0.66,8.66,0.59,13c-0.11,6.52-1.91,13-5.19,18.64
						c-1.78,3.06-4.05,6.05-4.31,9.58c-0.27,3.61,1.61,6.98,2.82,10.4c4.6,13.09-0.79,27.76,2,41.35c0.8,3.91,2.25,8.12,0.57,11.74
						c-0.39,0.84-0.9,1.56-1.5,2.19c13.09,5.83,28.57,8.71,21.36-15.25c-10.42-34.61,3.48-96.7,6.83-110.57
						C87.6,375.53,87.2,371.38,86.29,367.28z"/>
				</g>
			</g>
			<path style="fill:#EBEBEB;" d="M136.29,164.43c0,0-57.53-4.66-74.6,6.98s-17.05,42.27-14.27,51.18
				c2.78,8.91-26.05,73.91-13.9,99.09c12.15,25.18,97.36,27.56,113.87,17.34c3.72-2.3,4.53-14.86,8.28-12.55
				c3.46,2.13,7.5,2.4,10.02-0.36c9.57-10.47-4.66-84.98-7.12-94.62C155.36,218.92,155.82,164.01,136.29,164.43z"/>
			<path style="opacity:0.4;fill:#EBEBEB;" d="M33.52,321.68c12.15,25.18,97.36,27.56,113.87,17.34c5.05-3.12,8.69-8.49,11.26-15.22
				c-4.4-0.54-7.85-2.84-10.1-8.82c-1.63-4.34-1.86-9.06-2.23-13.68c-1.32-16.47-4.6-32.77-9.75-48.47
				c-0.39-1.21-1.05-2.56-1.96-3.36c-1.18-7.47-2.46-14.93-3.74-22.38c-0.76-4.41-1.51-8.82-2.27-13.23
				c-0.48-2.82-1.61-6.29-4.45-6.62c-1.95,2.12-1.7,5.39-1.32,8.25c3.49,26.04,7.63,52.83,1.1,78.28c-0.85,3.32-2.01,6.78-4.65,8.96
				c-2.94,2.42-7.24,2.71-10.82,1.42c-3.58-1.29-6.52-3.94-8.92-6.89c-6.35-7.8-9.4-17.75-11.5-27.58
				c-1.43-6.7-2.49-13.47-3.55-20.24c-2.37-0.6-4.52,1.62-5.52,3.85c-3.74,8.38,0.74,17.87,3.64,26.58
				c2.62,7.87,3.95,16.17,3.93,24.46c0,0.96-0.03,1.96-0.47,2.81c-0.42,0.83-1.18,1.43-1.96,1.94c-8.14,5.29-19.69,1.71-26.15-5.53
				c-6.46-7.25-8.96-17.13-10.73-26.68c-0.82-4.39-1.49-9.08,0.25-13.19c1.5-3.53,4.57-6.1,6.94-9.11c2.37-3.01,4.09-7.2,2.37-10.62
				c-2.51-1.87-6.32-0.79-8.44,1.52c-2.12,2.31-2.98,5.47-3.78,8.5c-3.95,15.13-7.9,30.26-11.85,45.4c-0.75,2.88-1.5,5.76-2.15,8.67
				C30.81,313.26,31.71,317.92,33.52,321.68z"/>
			<path style="fill:#3D3D3D;" d="M44.72,198.22c0,0,18.19-24.91,25.84-28.08c7.65-3.18,8.23-3.84,8.23-3.84l-4.28-3.62
				c0,0-23.82,3.62-33.86,33.67C35.97,210.32,44.72,198.22,44.72,198.22z"/>
			<g>
				<path style="fill:#EBEBEB;" d="M33.9,218.75c0,0-11.32,30.88-22.24,52.01C0.75,291.9,9.9,320.14,33.9,310.61
					c24-9.53,15.23-84.73,15.23-84.73L33.9,218.75z"/>
				<path style="fill:#FFB799;" d="M48.63,198.8c-0.19-0.11-0.65-0.2-1.31-0.25c0.69-3.96-5.01-6.29-8.26-5.78
					c-2.56,0.41-4.11,5.38-4.77,8.1c-2.07,0.9-3.98,2.1-5.37,3.69c-4.54,5.17,3.56,22.51,6.34,28.07c0.75,1.5,1.71,2.88,2.93,4.03
					c3.31,3.12,6.06,2.77,6.9,0.94C48.86,229.32,49.87,199.55,48.63,198.8z"/>
				<path style="opacity:0.3;fill:#FFB799;" d="M48.63,198.8c-0.19-0.11-0.65-0.2-1.31-0.25c0.68-3.87-4.74-6.18-8.03-5.8
					c1.31,0.68,2.43,1.48,3.23,2.78c0.35,0.57,0.62,1.25,0.46,1.9c-0.33,1.37-2.14,1.65-3.55,1.61c-1.41-0.04-3.21,0.14-3.65,1.48
					c0.93,0.35,1.96,0.28,2.95,0.29c1,0.01,2.06,0.12,2.83,0.75c0.77,0.63,1.06,1.93,0.33,2.61c-0.32,0.3-0.77,0.43-1.14,0.66
					c-0.38,0.23-0.71,0.67-0.57,1.08c0.17,0.49,0.8,0.57,1.28,0.76c0.94,0.37,1.52,1.49,1.26,2.47c-0.28,1.09-1.41,1.87-1.5,2.99
					c-0.04,0.51,0.15,1,0.36,1.46c0.84,1.84,2.11,3.47,2.76,5.38c0.65,1.91,0.46,4.34-1.17,5.53c-0.78,0.56-1.75,0.76-2.64,1.11
					c-2.99,1.19-5.01,4.73-4.02,7.79c0.31,0.95,0.86,1.81,1.41,2.65c0.21,0.32,0.42,0.64,0.65,0.96c3.13,2.72,5.69,2.33,6.5,0.58
					C48.86,229.32,49.87,199.55,48.63,198.8z"/>
			</g>
			<path style="fill:#3D3D3D;" d="M44.63,228.42c0,0,10.62,35.09,12.96,53.27c2.33,18.17,5.22,42.11-12.96,42.11
				s-14.11-46.88-14.11-46.88s11.37-8.47,16.87-5.95l-4.9-38.48c-0.11-0.89,0.16-1.79,0.74-2.46L44.63,228.42z"/>
			<g>
				<g>
					<g>
						<path style="fill:#EBEBEB;" d="M69.58,160.17c0.99,2.04,2.08,4.16,1.98,6.42c-0.19,4.08-4.18,7.38-3.9,11.45
							c0.24,3.4,3.38,5.84,6.51,7.2c7.34,3.2,15.84,2.91,23.54,0.72c7.7-2.19,14.76-6.17,21.65-10.26c2.13-1.26,4.31-2.6,5.74-4.62
							c2.52-3.58,1.88-9.02-1.41-11.91c-1.62-1.42-3.87-2.43-4.5-4.5c-0.49-1.61,0.22-3.31,0.58-4.95c0.36-1.64,0.17-3.74-1.34-4.48
							c-0.64-0.32-1.4-0.3-2.11-0.28c-11.4,0.32-22.78,1.12-34.11,2.42C74.31,148.29,64.21,149.2,69.58,160.17z"/>
						<path style="fill:#FFB799;" d="M82.36,140.92v33.14c0,0,17.99,8.85,32.2-10.62l-2.17-47.07L82.36,140.92z"/>
						<path style="opacity:0.3;fill:#FFB799;" d="M82.36,140.92v33.14c0,0,17.99,8.85,32.2-10.62l-2.17-47.07L82.36,140.92z"/>
						<path style="fill:#FFB799;" d="M59.75,86.43c0.08,1.77,0.03,3.52-0.13,5.28c-1.25,14.14-4.21,72.38,32.81,67.12
							c25.93-3.68,31.34-29,31.67-47.92c0.23-13.07,5.69-35.62-4.74-43.49c-11.06-8.35-37.3-7.29-46.41-4.52
							C60.16,66.79,59.5,80.91,59.75,86.43z"/>
						<path style="opacity:0.3;fill:#FFB799;" d="M87.1,70.19c-6.37,1.18-12.71,2.87-18.58,5.66c-2.15,1.02-5.98,2.78-8.61,5.04
							c-0.24,2.19-0.23,4.14-0.17,5.54c0.06,1.35,0.02,2.69-0.06,4.04c1.8,2.04,4.04,3.9,6.14,5.34c3.31,2.27,7.35,3.74,11.33,3.21
							c3.98-0.53,7.77-3.37,8.63-7.3c4.58,3.36,9.96,6.9,15.49,5.62c-0.62,4.99,3.24,9.26,6.58,13.02c3.34,3.76,6.6,8.85,4.64,13.48
							c-0.73,1.73-2.12,3.1-3.56,4.31c-2.58,2.16-5.49,3.97-8.66,5.09c-10.86,3.83-22.72-0.8-34.24-0.91
							c-1.39-0.01-2.9,0.08-3.95,0.99c-0.07,0.06-0.12,0.13-0.18,0.19c3.85,15.24,12.39,27.9,30.52,25.32
							c25.93-3.68,31.34-29,31.67-47.92c0.16-9.06,2.83-22.69,0.97-32.82c-6.51-4.72-13.85-8.14-21.79-8.97
							C97.89,68.55,92.43,69.2,87.1,70.19z"/>
						<path style="fill:#FFB799;" d="M117.04,107.18c0,0,11.35-15.92,16.44-4.64c5.1,11.28-3.89,22.88-11.62,19.24
							C114.13,118.15,117.04,107.18,117.04,107.18z"/>
						<path style="opacity:0.3;fill:#FFB799;" d="M117.04,107.18c0,0,11.35-15.92,16.44-4.64c5.1,11.28-3.89,22.88-11.62,19.24
							C114.13,118.15,117.04,107.18,117.04,107.18z"/>
						<path style="fill:#4F174A;" d="M66.71,103.35c0,2.15-0.75,3.9-1.67,3.9s-1.67-1.75-1.67-3.9s0.75-3.9,1.67-3.9
							S66.71,101.19,66.71,103.35z"/>
						<path style="fill:#4F174A;" d="M96.26,104.69c0,2.15-0.75,3.9-1.67,3.9c-0.92,0-1.67-1.75-1.67-3.9s0.75-3.9,1.67-3.9
							C95.52,100.79,96.26,102.54,96.26,104.69z"/>
						<path style="fill:#EBEBEB;" d="M69.58,160.17c0.99,2.04,2.08,4.16,1.98,6.42c-0.19,4.08-4.18,7.38-3.9,11.45
							c0.24,3.4,3.38,5.84,6.51,7.2c7.34,3.2,15.84,2.91,23.54,0.72c7.7-2.19,14.76-6.17,21.65-10.26c2.13-1.26,4.31-2.6,5.74-4.62
							c2.52-3.58,1.88-9.02-1.41-11.91c-1.62-1.42-3.87-2.43-4.5-4.5c-0.49-1.61,0.22-3.31,0.58-4.95c0.36-1.64,0.17-3.74-1.34-4.48
							c-0.64-0.32-1.4-0.3-2.11-0.28c-11.4,0.32-22.78,1.12-34.11,2.42C74.31,148.29,64.21,149.2,69.58,160.17z"/>
						<path style="opacity:0.3;fill:#EBEBEB;" d="M69.58,160.17c0.99,2.04,2.08,4.16,1.98,6.42c-0.19,4.08-4.18,7.38-3.9,11.45
							c0.24,3.4,3.38,5.84,6.51,7.2c7.34,3.2,15.84,2.91,23.54,0.72c7.7-2.19,14.76-6.17,21.65-10.26c2.13-1.26,4.31-2.6,5.74-4.62
							c2.52-3.58,1.88-9.02-1.41-11.91c-1.62-1.42-3.87-2.43-4.5-4.5c-0.49-1.61,0.22-3.31,0.58-4.95c0.36-1.64,0.17-3.74-1.34-4.48
							c-0.64-0.32-1.4-0.3-2.11-0.28c-11.4,0.32-22.78,1.12-34.11,2.42C74.31,148.29,64.21,149.2,69.58,160.17z"/>
						<path style="opacity:0.4;fill:#EBEBEB;" d="M123.69,159.18c-1.62-1.42-3.87-2.43-4.5-4.5c-0.49-1.61,0.22-3.31,0.58-4.95
							c0.36-1.64,0.17-3.74-1.34-4.48c-0.64-0.32-1.4-0.3-2.11-0.28c-9.55,0.26-19.08,0.89-28.58,1.85
							c-0.81,0.79-1.56,1.65-2.19,2.61c-1.16,1.75-1.08,3.14,0.2,4.72c1.1,1.35,1.02,3.17,2.28,4.41c1.3,1.28,3.1,1.91,4.53,3.05
							c1.43,1.14,2.45,3.25,1.44,4.77c-1.1,1.65-3.55,1.35-5.51,1.08c-2.76-0.38-5.58-0.31-8.31,0.21c-0.76,0.14-1.6,0.38-1.99,1.05
							c-0.73,1.22,0.56,2.64,1.75,3.41c1.83,1.18,3.79,2.17,5.49,3.53c1.7,1.36,3.16,3.18,3.54,5.32c0.08,0.48,0.11,1-0.11,1.45
							c-0.27,0.55-0.86,0.87-1.45,1.07c-2.74,0.94-5.72,0.01-8.56-0.59c-2.49-0.52-5.03-0.78-7.57-0.77c-0.51,0-1.06,0.03-1.55,0.18
							c1.22,1.25,2.83,2.24,4.43,2.94c7.34,3.2,15.84,2.91,23.54,0.72c7.7-2.19,14.76-6.17,21.65-10.26
							c2.13-1.26,4.31-2.6,5.74-4.62C127.62,167.51,126.98,162.07,123.69,159.18z"/>
						<path style="fill:#FFFFFF;" d="M123.04,100.9l-20.28,26.26l-3.48-3.61C99.28,123.55,119.51,96.17,123.04,100.9z"/>
						<path style="opacity:0.1;fill:#4F174A;" d="M123.04,100.9l-20.28,26.26l-3.48-3.61C99.28,123.55,119.51,96.17,123.04,100.9z"
							/>
						<path style="fill:#FFFFFF;" d="M105.33,138.3h13.48c0,0,2.18,2.52-2.14,3.41c-4.32,0.88-11.35,0-11.35,0V138.3z"/>
						<path style="opacity:0.1;fill:#4F174A;" d="M105.33,138.3h13.48c0,0,2.18,2.52-2.14,3.41c-4.32,0.88-11.35,0-11.35,0V138.3z"
							/>
						<path style="fill:#FFFFFF;" d="M63.37,122.99l-4.38-12.82c0,0-4.31,0.14,2.19,14.62C67.68,139.26,63.37,122.99,63.37,122.99z"
							/>
						<g>
							<path style="fill:#FFFFFF;" d="M58.99,125.1c0,0,10.07-14.72,17.74-14.93c7.66-0.21,25.62,12.99,26.7,14.93
								c1.08,1.95,5.92,14.98,2.96,21.12c-2.96,6.14-15.37,11.58-23.23,10.7C75.3,156.04,58.77,151.74,58.99,125.1z"/>
							<path style="opacity:0.1;fill:#4F174A;" d="M106.38,146.22c2.96-6.14-1.88-19.18-2.96-21.12c-0.32-0.58-2.15-2.17-4.76-4.09
								c-2.86,0.09-5.66,1.44-6.9,3.97c-2.01,4.13,0.75,9.04,0.13,13.59c-0.38,2.78-2.06,5.31-4.34,6.94
								c-2.28,1.64-5.11,2.42-7.92,2.45c-1.35,0.02-2.7-0.13-3.98-0.55c-4.64-1.53-7.43-6.23-9.14-10.81
								c-1.72-4.57-2.87-9.53-6-13.28c-0.04-0.05-0.09-0.1-0.13-0.15c-0.89,1.17-1.41,1.93-1.41,1.93
								c-0.22,26.64,16.31,30.94,24.17,31.82C91.01,157.8,103.42,152.36,106.38,146.22z"/>
						</g>
					</g>
				</g>
				<g>
					<path style="fill:#CC663B;" d="M59.66,97.97c1.58-0.69,4.49-1.48,8.13-0.23c0.58,0.2,1.21-0.09,1.43-0.66l0.6-1.53
						c0.25-0.65-0.12-1.37-0.79-1.53c-2.09-0.52-6.49-1.05-10.53,1.99c-0.34,0.26-0.5,0.7-0.42,1.12l0,0
						C58.21,97.86,58.98,98.27,59.66,97.97z"/>
					<path style="fill:#CC663B;" d="M99.8,98.39c-1.57-0.7-4.48-1.5-8.13-0.27c-0.58,0.2-1.21-0.1-1.43-0.67l-0.59-1.53
						c-0.25-0.65,0.13-1.37,0.8-1.53c2.1-0.51,6.49-1.02,10.52,2.05c0.34,0.26,0.49,0.7,0.41,1.12l0,0
						C101.25,98.29,100.48,98.69,99.8,98.39z"/>
				</g>
				<g>
					<path style="fill:#876484;" d="M130.02,120.47c0,2.36-1.92,4.28-4.28,4.28s-4.28-1.92-4.28-4.28s1.92-4.28,4.28-4.28
						S130.02,118.11,130.02,120.47z"/>
					<path style="opacity:0.3;fill:#876484;" d="M121.45,120.47c0,2.36,1.92,4.28,4.28,4.28c2.15,0,3.91-1.58,4.22-3.64
						c-0.1-0.24-0.25-0.48-0.49-0.6c-0.42-0.21-0.94,0.02-1.28,0.34c-0.34,0.32-0.6,0.74-1,1c-0.65,0.43-1.51,0.35-2.26,0.15
						c-0.35-0.09-0.71-0.21-1-0.44c-0.39-0.3-0.62-0.77-0.68-1.26c-0.06-0.49,0.05-0.99,0.26-1.43c0.13-0.28,0.31-0.55,0.41-0.84
						c0.1-0.3,0.13-0.64-0.03-0.91c-0.1-0.16-0.25-0.25-0.41-0.29C122.26,117.61,121.45,118.94,121.45,120.47z"/>
				</g>
			</g>
			<path style="fill:#CC663B;" d="M56.6,74.19c0,0-1.76,6.89,10.1,14.97c13.73,9.34,16.34-11.91,16.34-11.91s9.7,11.48,18.22,11.77
				c8.52,0.29,7.15-13.8,7.15-13.8s-8.42,21.91,9.41,27.52c0,0-2.54,16.65,1.54,20.43c4.08,3.78-0.28-18.44,5.46-22.37
				c5.74-3.93,3.27-26.6,3.27-26.6s-0.44-18.89-18.02-20.34S58.89,58.21,56.6,74.19z"/>
			<path style="opacity:0.3;fill:#CC663B;" d="M66.71,89.16c13.73,9.34,16.34-11.91,16.34-11.91s9.7,11.48,18.22,11.77
				c2.46,0.08,4.09-1.03,5.17-2.66c0,6.31,2.23,13.49,11.39,16.38c0,0-2.54,16.65,1.54,20.43c4.08,3.78-0.28-18.44,5.46-22.37
				c2.16-1.48,3.16-5.62,3.56-10.2c-3.16,0.38-6.57-0.42-9.21-2.23c-4.84-3.33-7.43-9.11-8.69-14.84c-0.23-1.05-0.47-2.18-1.26-2.91
				c-0.72-0.66-1.75-0.84-2.72-0.87c-4.31-0.15-9.08,1.87-12.66-0.54c-1.53-1.03-2.49-2.71-3.83-3.97
				c-1.34-1.27-3.49-2.09-4.99-1.02c-0.86,0.61-1.26,1.66-1.73,2.6c-3.36,6.61-13.33,8.6-18.96,3.78c-1.22-1.05-2.42-2.41-4.03-2.45
				c-0.45-0.01-0.86,0.09-1.24,0.26c-1.29,1.77-2.15,3.7-2.46,5.81C56.6,74.19,54.85,81.09,66.71,89.16z"/>
			<path style="fill:#4F174A;" d="M110.63,89.76c-17.17-2.11-24.19,2.54-26.41,4.64c-0.5,0.47-0.84,1.06-1.03,1.71
				c-2.01-1.19-4.18-0.77-5.74-0.02c-0.19-0.64-0.53-1.22-1.02-1.69c-2.22-2.1-9.25-6.75-26.41-4.64c-1.51,0.19-2.63,1.47-2.61,2.99
				c0.05,3.75,0.72,12.99,5.99,17.78c2.23,2.03,5.01,3.05,8.29,3.05c0.45,0,0.91-0.02,1.38-0.06c13.31-1.1,14.62-11.28,14.56-15.66
				c1.08-0.65,3.36-1.61,5.38,0.16c-0.02,4.47,1.42,14.41,14.56,15.5c0.47,0.04,0.93,0.06,1.38,0.06c3.28,0,6.07-1.02,8.29-3.05
				c5.27-4.79,5.95-14.03,6-17.78C113.26,91.23,112.14,89.95,110.63,89.76z M62.93,111.88c-3.41,0.28-6.25-0.58-8.43-2.57
				c-4.79-4.36-5.41-13.05-5.46-16.58c-0.01-0.68,0.49-1.25,1.17-1.34c16.47-2.03,23.03,2.26,25.08,4.2
				c0.39,0.37,0.62,0.87,0.66,1.41C76.22,101.14,75.49,110.85,62.93,111.88z M106.14,109.32c-2.18,1.98-5.02,2.84-8.43,2.56
				c-12.55-1.04-13.28-10.75-13.02-14.87c0.04-0.54,0.27-1.04,0.66-1.41c1.68-1.58,6.35-4.74,16.98-4.74c2.39,0,5.08,0.16,8.1,0.53
				c0.67,0.08,1.17,0.66,1.17,1.34C111.55,96.27,110.93,104.96,106.14,109.32z"/>
			<g>
				<g>
					<path style="fill:#FFB799;" d="M158.89,322.27c0,0-0.95,11.07-2.33,18.79c-1.38,7.72-15.33,19.81-17.28,18.97
						c-1.96-0.84-0.23-6.41,0.98-7.87c0.44-0.53,1.5-2.27,2.68-4.31c2.04-3.52,4.44-7.95,4.71-8.64c0.42-1.09-5.44,13.42-6.52,10.29
						c-1.08-3.12-2.08-18.33,1.3-24.15C145.79,319.55,158.89,322.27,158.89,322.27z"/>
				</g>
				<g>
					<path style="fill:none;" d="M147.64,339.23c0.05-0.14,0-0.02-0.13,0.28C147.57,339.39,147.61,339.29,147.64,339.23z"/>
					<path style="opacity:0.3;fill:#FFB799;" d="M150.53,326.93c2.54-0.9,5.32-1.07,7.97-0.6c0.25-2.43,0.39-4.06,0.39-4.06
						s-13.1-2.72-16.48,3.1c-3.38,5.82-2.38,21.03-1.3,24.15c0.13,0.38,0.34,0.5,0.59,0.41c-0.65,1.08-1.18,1.9-1.46,2.24
						c-1.21,1.45-2.93,7.03-0.98,7.87c0.87,0.38,4.15-1.84,7.62-5.09c-0.95-0.26-1.87-0.67-2.37-1.49
						c-0.51-0.83-0.45-1.91-0.11-2.82c0.34-0.91,0.93-1.71,1.46-2.53c1.87-2.89,3.09-6.19,3.53-9.61c0.08-0.61-0.05-1.46-0.66-1.51
						c-0.48-0.04-0.79,0.47-0.99,0.91c-0.66,1.45-1.31,2.91-1.97,4.36c-0.19,0.42-0.39,0.85-0.74,1.15
						c-0.35,0.29-0.91,0.4-1.27,0.12c-0.15-0.12-0.26-0.3-0.35-0.47c-2.41-4.52-0.83-10.57,3.09-13.86
						C147.7,328.21,149.07,327.45,150.53,326.93z M147.64,339.23c-0.02,0.06-0.07,0.16-0.13,0.28
						C147.64,339.21,147.69,339.09,147.64,339.23z"/>
				</g>
			</g>
		</g>
		<g style="clip-path:url(#SVGID_2_);">
			<path style="fill:#EBEBEB;" d="M269.22,147.13c-1.96-0.29-3.88-0.56-5.77-0.8l0,0v-7.11l-40.64-2.06l-0.36,7.78
				c-7.58,0.6-14.03,1.78-19.77,3.17c0.03,0.03,32.21,37.38,52.19,39.77c0,0,20.64-11.8,24.69-37.74l0,0
				C273.44,148.18,269.22,147.13,269.22,147.13z"/>
			<path style="opacity:0.4;fill:#EBEBEB;" d="M205.88,151.65c3.45,3.77,9.42,10.02,16.37,16.3c4.8-1.67,13.13-4.84,15.14-7.27
				c2.87-3.47-13.04-16.38-13.04-16.38l-1.89,0.64c-7.38,0.59-13.67,1.72-19.29,3.06L205.88,151.65z"/>
			<g>
				<path style="fill:#FFB799;" d="M225.24,73.6c0,0-7.39-10.03-11.47-2.11c-2.51,4.87-7.11,22.43,8.03,22.45
					C236.94,93.97,225.24,73.6,225.24,73.6z"/>
				<path style="opacity:0.3;fill:#FFB799;" d="M225.24,73.6c0,0-7.39-10.03-11.47-2.11c-2.51,4.87-7.11,22.43,8.03,22.45
					C236.94,93.97,225.24,73.6,225.24,73.6z"/>
				<path style="fill:#FFB799;" d="M227.58,115.5l-1.87,32.3c0,0,10.3,12.17,20.83,13.34c10.53,1.17,14.51-13.34,14.51-13.34v-30.43
					L227.58,115.5z"/>
				<path style="opacity:0.3;fill:#FFB799;" d="M227.03,124.92c1.3-0.85,2.79-1.41,4.31-1.75c4.57-1.02,9.32-0.35,13.95,0.32
					c5.23,0.76,9.72,1.87,13.32,5.94c1.02,1.15,2.06,2.09,2.43,3.24v1.84c-0.07,0.24-0.14,0.47-0.27,0.73
					c-1.37,2.86-3.68,5.55-5.45,8.2c-0.95,1.43-1.91,2.87-3.07,4.14c-1.8,1.99-4.05,3.52-6.32,4.94c-2.95,1.84-6.07,3.52-9.33,4.74
					c-6.25-3.96-10.92-9.46-10.92-9.46L227.03,124.92z"/>
				<path style="fill:#FFB799;" d="M278.12,88.64c-0.47,12.17,2.09,31.15-10.18,43.16c-11.68,11.44-41.29,2.99-44.49-10.82
					c-1.18-5.11-0.31-62.36-0.31-62.36s15.45-19.43,37.69-16.85c12.51,1.45,18.04,13.73,18.75,27.88
					C280.12,80.66,278.23,85.8,278.12,88.64z"/>
				<path style="opacity:0.3;fill:#FFB799;" d="M241.63,44.79c4.73-0.21,9.47-0.16,14.19,0.15c3.58,0.24,7.22,0.64,10.52,2.06
					c3.72,1.6,6.72,4.32,9.79,6.9c1.51,3.36,2.5,7.22,3.03,11.35c-0.08,0.05-0.15,0.11-0.23,0.16c-2.59,1.53-5.81,1.37-8.81,1.15
					c-6.51-0.46-13.02-0.93-19.53-1.39c-3.1-0.22-6.86-0.13-8.48,2.53c-0.77,1.26-0.84,2.85-1.57,4.13
					c-1.22,2.15-4.13,3.21-4.66,5.63c-0.39,1.77,0.7,3.49,1.14,5.25c0.87,3.5-0.87,7.05-2.04,10.47
					c-1.65,4.83-2.17,10.11-0.97,15.07c1.2,4.96,4.21,9.55,8.57,12.2c7.56,4.59,17.14,2.69,25.98,2.61c1.13-0.01,2.3,0.02,3.3,0.54
					c0.55,0.28,0.98,0.68,1.33,1.16c-1.35,2.52-3.06,4.9-5.26,7.05c-11.68,11.44-41.29,2.99-44.49-10.82
					c-1.18-5.11-0.31-62.36-0.31-62.36S230.19,49.75,241.63,44.79z"/>
				<path style="fill:#3D3D3D;" d="M229.26,74.16c-0.61-2.78-1.48-5.56-1.38-8.41c0.11-2.85,1.47-5.88,4.1-6.97
					c3-1.25,7.14,0.11,9.21-2.39c0.94-1.14,1.12-2.81,2.21-3.82c1.48-1.38,3.91-0.87,5.68,0.12c1.77,0.99,3.41,2.4,5.42,2.64
					c2.09,0.25,4.08-0.81,6.03-1.59c1.95-0.79,4.34-1.26,6.04-0.01c0.7,0.52,1.8,4.39,4.14,5.72c4.38,2.5,7.26,1.13,8.33,6.45
					c0.74,3.67,6.18-1.45,7.04-11.13c0.09-1.06,2-1.02,2.37-2.02c0.33-0.89,0.05-1.88,0-2.83c-0.14-2.66,1.55-5.08,3.49-6.9
					c1.94-1.82,4.23-3.3,5.89-5.38c1.66-2.08,2.59-5.07,1.34-7.42c-0.53-0.99-1.39-1.78-1.82-2.81c-0.82-1.99,0.17-4.2,0.67-6.29
					c1.38-5.7-1.07-11.76-4.85-16.25c-1.94-2.3-4.42-4.4-7.4-4.79c-1.78-0.23-3.6,0.17-5.29,0.78c-2.72,0.98-5.29,2.57-6.96,4.94
					c-2.81,3.99-2.65,9.57-5.71,13.37c-0.66,0.83-1.56,1.58-2.61,1.63c-0.59,0.03-1.16-0.17-1.71-0.38
					c-4.23-1.67-7.88-4.8-12.34-5.7c-2.58-0.52-5.25-0.24-7.84,0.26c-0.96,0.19-1.95,0.42-2.74,0.99c-0.99,0.71-1.56,1.87-2.03,3
					c-1.44,3.44-2.53,7.33-5.53,9.54c-4.07,2.99-10.65,2.08-13.48,6.26c-2.96,4.37,0.64,11.07-2.52,15.3
					c-0.76,1.02-1.85,1.76-2.75,2.67c-2.14,2.16-3.19,5.35-2.74,8.36c0.44,3.01,2.37,5.76,5.05,7.21c1.36,0.73,2.88,1.15,4.15,2.02
					c2.09,1.44,3.17,3.92,3.5,6.37c0.3,2.18-0.78,5.62,0.43,7.62c1.31,2.17,2.9,0.8,4.04-1.11
					C230.31,80.51,229.9,77.07,229.26,74.16z"/>
				<path style="opacity:0.2;fill:#4F174A;" d="M224.24,76.68c-0.34-2.45-1.41-4.93-3.5-6.37c-1.23-0.85-2.7-1.27-4.02-1.96
					c1.56-0.12,3.1-0.44,4.26-1.43c1.77-1.5,2.13-4.08,1.99-6.4c-0.13-2.31-0.63-4.66-0.11-6.92c0.12-0.51,0.3-1.04,0.69-1.4
					c0.68-0.63,1.73-0.56,2.66-0.49c3.56,0.28,7.87-0.46,9.28-3.74c0.81-1.89,0.38-4.12,1.06-6.06c1.13-3.27,4.96-4.73,8.4-5.09
					c2-0.21,4.28-0.08,5.65,1.4c0.57,0.62,0.92,1.42,1.5,2.03c1.29,1.37,3.49,1.53,5.26,0.89c1.77-0.64,3.21-1.93,4.61-3.2
					c2,1.07,3.41,2.99,5.3,4.26c2.33,1.56,5.36,2.01,8.04,1.21c2.68-0.81,4.96-2.86,6.04-5.45c1.61,1.12,2.79,2.75,4.17,4.15
					c1.33,1.34,3.02,2.52,4.9,2.55c-1.21,1.53-2.06,3.32-1.96,5.24c0.05,0.95,0.33,1.94,0,2.83c-0.37,1-2.28,0.96-2.37,2.02
					c-0.86,9.69-6.3,14.81-7.04,11.13c-1.08-5.32-3.96-3.95-8.33-6.45c-2.33-1.33-3.43-5.2-4.14-5.72
					c-1.69-1.25-4.08-0.77-6.04,0.01c-1.95,0.79-3.94,1.85-6.03,1.59c-2.01-0.24-3.65-1.65-5.42-2.64c-1.77-0.99-4.19-1.5-5.68-0.12
					c-1.08,1.01-1.26,2.68-2.21,3.82c-2.07,2.5-6.21,1.14-9.21,2.39c-2.63,1.1-3.99,4.12-4.1,6.97c-0.11,2.85,0.77,5.62,1.38,8.41
					c0.63,2.9,1.05,6.34-0.55,9.03c-1.14,1.91-2.73,3.28-4.04,1.11C223.46,82.3,224.54,78.87,224.24,76.68z"/>
				<path style="fill:#4F174A;" d="M241.1,85.73c0,2.33,1,4.22,2.24,4.22c1.24,0,2.24-1.89,2.24-4.22s-1-4.22-2.24-4.22
					C242.1,81.51,241.1,83.4,241.1,85.73z"/>
				<path style="fill:#4F174A;" d="M269.21,85.73c0,2.33,1,4.22,2.24,4.22c1.24,0,2.24-1.89,2.24-4.22s-1-4.22-2.24-4.22
					C270.22,81.51,269.21,83.4,269.21,85.73z"/>
				<g>
					<g>
						<path style="fill:#FFFFFF;" d="M223.44,74.3l12.12,28.83l2.33-1.42C237.89,101.72,226.45,70.55,223.44,74.3z"/>
						<path style="fill:#FFFFFF;" d="M230.67,123.44l-7.85-26.25c0,0-1.55-3.01,0-3.24c1.55-0.23,8.48,22.77,8.48,22.77
							L230.67,123.44z"/>
					</g>
					<g style="opacity:0.1;">
						<path style="fill:#4F174A;" d="M223.44,74.3l12.12,28.83l2.33-1.42C237.89,101.72,226.45,70.55,223.44,74.3z"/>
						<path style="fill:#4F174A;" d="M230.67,123.44l-7.85-26.25c0,0-1.55-3.01,0-3.24c1.55-0.23,8.48,22.77,8.48,22.77
							L230.67,123.44z"/>
					</g>
					<path style="fill:#FFFFFF;" d="M273.69,101.07l4.36-5.43c0,0,1.73-0.74,0,2.72c-1.73,3.45-4.37,6.21-4.37,6.21V101.07z"/>
					<path style="fill:#FFFFFF;" d="M259.48,91.16c0,0,17.58,9.39,19.14,13.27c1.55,3.88-1.29,32.34-22.11,32.72
						c-20.82,0.38-24.83-7.51-25.47-8.67c-0.65-1.16-2.59-15.9,0-22.76C233.62,98.87,257.33,89.98,259.48,91.16z"/>
					<path style="opacity:0.1;fill:#4F174A;" d="M276.3,121.2c-0.59-0.09-1.19-0.08-1.78,0.01c-4.65,0.68-7.98,5.07-12.54,6.19
						c-4.41,1.08-9.3-1.4-11.46-5.39c-2.16-4-1.71-9.13,0.69-12.99c1.91-3.06,4.87-5.33,6.95-8.28c1.74-2.48,3.73-7.74,0.17-9.6
						c-0.03-0.01-0.06-0.03-0.09-0.04c-5.41,0.62-24.88,8.45-27.21,14.63c-2.59,6.85-0.65,21.59,0,22.76
						c0.65,1.16,4.66,9.05,25.47,8.67C267.33,136.95,273.28,129.17,276.3,121.2z"/>
				</g>
			</g>
			<g>
				<path style="fill:#3D3D3D;" d="M307.62,326.81v67.41c0,0,4.47,139.49,5.65,142.16c1.18,2.67-41.49,2.33-41.49,2.33
					l-12.07-145.92l-13.02,1.87l-26.6,141.71l-38.72-3.09l1.23-207.17C182.6,326.11,288.43,339.63,307.62,326.81z"/>
				<path style="opacity:0.3;fill:#4F174A;" d="M279.03,474.42c-0.06-11.52-0.13-23.08-1.69-34.49
					c-1.79-13.04-5.52-25.87-5.67-39.03c-0.05-4.46,0.34-9,2.01-13.13c2.3-5.67,6.81-10.11,10.06-15.28
					c0.63-1.01,1.05-2.64-0.03-3.13c-0.47-0.21-1.01-0.07-1.49,0.11c-6.57,2.47-9.49,10.55-15.83,13.56
					c-2.46,1.17-5.24,1.46-7.96,1.6c-6.85,0.36-13.74-0.13-20.47-1.45c-3.76-0.74-7.59-1.73-11.38-1.92
					c2.7-9.22,6.7-18.17,13.99-24.24c3.91-3.26,8.56-5.5,13.31-7.31c7.73-2.94,15.82-4.81,24.01-5.93
					c7.43-1.02,14.93-1.42,22.43-1.5c2.43-0.03,4.87-0.01,7.3,0.02v-15.52c-19.19,12.82-125.02-0.7-125.02-0.7l-1.07,180.7
					c1.18,0.63,2.4,1.19,3.64,1.68c5.83,2.34,12.08,3.62,18.37,3.76c14.26-40.03,11.47-84.12,21.55-125.41
					c0.05-0.19,0.1-0.38,0.14-0.57c1.93,0.95,4.09,1.73,5.84,2.91c6.03,4.05,6.68,12.5,6.72,19.76c0.06,9.18,0.12,18.36,0.18,27.54
					c0.01,1.69-0.16,3.6-0.16,5.48l8.88-47.3l13.02-1.87l12.07,145.92c0,0,3.09,0.02,7.59,0.01
					C279.26,517.28,279.14,495.85,279.03,474.42z"/>
			</g>
			<path style="fill:#4F174A;" d="M246.82,77.52c-2.02-0.24-5.57-0.37-8.79,1.03c-0.57,0.25-1.23,0.03-1.55-0.5l0,0
				c-0.38-0.61-0.17-1.42,0.46-1.76c2.12-1.16,6.76-3.33,10.24-2.24c0.46,0.14,0.8,0.54,0.87,1.02l0.16,1.01
				C248.33,76.9,247.65,77.62,246.82,77.52z"/>
			<path style="fill:#4F174A;" d="M266.08,77.52c2.02-0.24,5.57-0.37,8.79,1.03c0.57,0.25,1.23,0.03,1.55-0.5l0,0
				c0.38-0.61,0.17-1.42-0.46-1.76c-2.12-1.16-6.76-3.33-10.24-2.24c-0.46,0.14-0.8,0.54-0.87,1.02l-0.16,1.01
				C264.58,76.9,265.26,77.62,266.08,77.52z"/>
			<polygon style="fill:#EBEBEB;" points="222.43,144.44 242.14,169.11 251.47,160.49 259.64,167.89 263.46,146.33 263.46,139.22 
				251.24,159.32 222.82,137.15 			"/>
			<polygon style="opacity:0.4;fill:#EBEBEB;" points="222.43,144.44 242.14,169.11 251.47,160.49 259.64,167.89 263.46,146.33 
				263.46,139.22 251.24,159.32 222.82,137.15 			"/>
			<g>
				<g>
					<path style="fill:#EF8A3D;" d="M320.97,173.67c-5.86-11.32-29.46-19.91-43.12-24.05v0c-3.88,23.66-23.59,34.42-23.59,34.42
						c-19.08-2.18-49.96-36.3-49.99-36.33c-17.14,3.96-26.31,10.41-31.74,13.13c-10.04,5.02-22.15,156.04-17.13,161.06
						c1.38,1.38,10.29,10.57,30.87,11.48c31.65,1.39,77.3,2.15,110.2,2.05c23.46-0.07,38.64-9.21,39.44-10.23
						C339.03,321.21,329.34,189.86,320.97,173.67z"/>
					<path style="opacity:0.3;fill:#DC8C6B;" d="M336.51,316.34c-1.77-0.61-3.77-0.83-5.35-0.86c-3.9-0.08-8.05,0.47-11.52-1.33
						c-2.93-1.52-4.84-4.47-6.13-7.51c-4.58-10.83-2.62-23.15-3.33-34.89c-0.46-7.66-2.13-15.23-4.88-22.4
						c-0.87-7.1-1.95-14.18-3.04-21.26c-2-13.04-4-26.09-6-39.13c-3.89,5.44-4.16,12.59-4.04,19.27c0.36,20.68,3,41.49,0.08,61.97
						c-0.59,4.15-2.23,9.13-6.35,9.87c-5.82,1.04-9.29-7.33-15.15-8.15c3.17,5.83,4.93,12.42,5.1,19.05
						c-5.66-0.05-10.76-3.29-15.3-6.67c-14.63-10.89-27.25-24.47-37.05-39.86c-0.64,11.94,4.77,23.57,12.43,32.76
						c7.66,9.19,17.45,16.3,27.14,23.31c-4.2,2.63-9.66,0.43-14.02-1.93c-12.09-6.55-23.57-14.22-34.25-22.87
						c-5.26-4.26-10.6-8.91-17.19-10.48c2.32,9.3,5.85,18.7,12.8,25.29c7.91,7.49,19.01,10.28,28.8,15.05
						c1.71,0.83,3.62,2.12,3.54,4.02c-0.1,2.38-3.1,3.31-5.47,3.53c-15.26,1.42-30.78,0.06-45.56-3.99
						c-0.76-0.21-1.55-0.44-2.17-0.93c-1.15-0.9-1.49-2.47-1.73-3.91c-6.15-36.86,3.13-74.52,1.83-111.86
						c-4.44,3.44-5.38,9.65-5.98,15.23c-1.42,13.07-2.84,26.13-4.26,39.2c-0.79,7.25-1.58,14.52-1.68,21.81
						c-0.19,12.47,1.63,24.97,0.2,37.41c-0.66,5.7-1.83,7.22-7.5,8.76c-5.23,1.42-10.73,1.41-16.06,2.26
						c0.19,2.65,0.5,4.33,0.96,4.78c1.38,1.38,10.29,10.57,30.87,11.48c31.65,1.39,77.3,2.15,110.2,2.05
						c23.46-0.07,38.64-9.21,39.44-10.23C336.36,324.62,336.54,321.43,336.51,316.34z"/>
				</g>
				<g>
					<g>
						<path style="fill:#FFB799;" d="M331.1,323.97c0,0,0.55,14.43,0,24.62c-0.55,10.18-16.6,28.01-19.26,27.24
							c-2.66-0.77-1.33-8.23,0-10.3c0.49-0.76,1.57-3.17,2.77-5.99c2.06-4.87,4.46-10.96,4.69-11.89
							c0.36-1.47-4.87,18.18-6.77,14.32c-1.9-3.86-5.62-23.31-2.19-31.36S331.1,323.97,331.1,323.97z"/>
					</g>
					<g>
						<path style="fill:none;" d="M319.3,347.65c0.05-0.19,0-0.03-0.12,0.39C319.24,347.87,319.28,347.73,319.3,347.65z"/>
						<path style="opacity:0.3;fill:#FFB799;" d="M321.06,331.32c3.13-1.57,6.69-2.23,10.19-2.05c-0.07-3.18-0.15-5.3-0.15-5.3
							s-17.34-1.41-20.76,6.64c-3.42,8.05,0.3,27.51,2.19,31.36c0.23,0.47,0.52,0.59,0.83,0.44c-0.67,1.49-1.22,2.64-1.52,3.12
							c-1.33,2.07-2.66,9.53,0,10.3c1.19,0.34,5.06-3.04,9.02-7.78c-1.26-0.19-2.52-0.56-3.29-1.54c-0.79-0.99-0.88-2.39-0.59-3.62
							c0.29-1.23,0.93-2.35,1.48-3.49c1.95-4.02,2.99-8.48,3.01-12.95c0-0.81-0.29-1.88-1.1-1.85c-0.62,0.03-0.95,0.74-1.13,1.33
							c-0.62,1.98-1.23,3.96-1.85,5.94c-0.18,0.57-0.37,1.16-0.78,1.6c-0.41,0.44-1.11,0.66-1.62,0.35
							c-0.22-0.13-0.38-0.34-0.52-0.55c-3.83-5.44-2.77-13.5,1.77-18.37C317.61,333.42,319.26,332.22,321.06,331.32z M319.3,347.65
							c-0.02,0.08-0.06,0.22-0.12,0.39C319.3,347.62,319.35,347.46,319.3,347.65z"/>
					</g>
				</g>
				<g>
					<g>
						<path style="fill:#FFB799;" d="M158.67,321.67c0,0-0.55,14.43,0,24.62c0.55,10.18,16.6,28.01,19.26,27.24
							c2.66-0.77,1.33-8.23,0-10.3c-0.49-0.76-1.57-3.17-2.77-5.99c-2.06-4.87-4.46-10.96-4.69-11.89
							c-0.36-1.47,4.87,18.18,6.77,14.32c1.9-3.86,5.62-23.31,2.19-31.36C176,320.26,158.67,321.67,158.67,321.67z"/>
					</g>
					<g>
						<path style="fill:none;" d="M170.47,345.35c-0.05-0.19,0-0.03,0.12,0.39C170.53,345.57,170.49,345.43,170.47,345.35z"/>
						<path style="opacity:0.3;fill:#FFB799;" d="M173.52,332.6c4.54,4.87,5.61,12.93,1.77,18.37c-0.15,0.21-0.31,0.42-0.52,0.55
							c-0.51,0.31-1.21,0.08-1.62-0.35c-0.41-0.44-0.6-1.03-0.78-1.6c-0.62-1.98-1.23-3.96-1.85-5.94c-0.18-0.6-0.51-1.3-1.13-1.33
							c-0.8-0.04-1.1,1.04-1.1,1.85c0.02,4.47,1.06,8.93,3.01,12.95c0.55,1.14,1.18,2.26,1.48,3.49c0.29,1.23,0.2,2.63-0.59,3.62
							c-0.78,0.98-2.03,1.35-3.29,1.54c3.96,4.75,7.83,8.13,9.02,7.78c2.66-0.77,1.33-8.23,0-10.3c-0.31-0.48-0.86-1.63-1.52-3.12
							c0.32,0.15,0.6,0.04,0.83-0.44c1.9-3.86,5.62-23.31,2.19-31.36c-3.42-8.05-20.76-6.64-20.76-6.64s-0.08,2.12-0.15,5.3
							c3.49-0.18,7.06,0.48,10.19,2.05C170.5,329.92,172.15,331.12,173.52,332.6z M170.59,345.73c-0.05-0.16-0.1-0.3-0.12-0.39
							C170.42,345.16,170.47,345.32,170.59,345.73z"/>
					</g>
				</g>
				<path style="display:none;fill:#DC8C6B;" d="M187.9,333.35c4.77,1.65,9.99,0.85,15.04,0.69c6.87-0.21,13.71,0.81,20.53,1.61
					c20.34,2.39,40.86,2.78,61.34,3.17c3.54,0.07,7.11,0.13,10.57-0.62c3.89-0.84,7.59-2.77,10.22-5.76
					c2.62-2.99,4.07-7.08,3.51-11.02c-0.07-0.52-0.19-1.06-0.55-1.44c-0.37-0.4-0.92-0.56-1.44-0.7c-3.58-0.92-7.27-1.35-10.95-1.74
					c-28.5-3.05-57.18-4.38-85.83-3.99c-7.91,0.11-16.48,0.48-23.55,4.43c-2.84,1.59-6.52,3.48-6.22,7.07
					C180.88,328.87,184.49,332.17,187.9,333.35z"/>
				<path style="display:none;opacity:0.3;fill:#DC8C6B;" d="M305.59,332.45c2.62-2.99,4.07-7.08,3.51-11.02
					c-0.07-0.52-0.19-1.06-0.55-1.44c-0.37-0.4-0.92-0.56-1.44-0.7c-3.58-0.92-7.27-1.35-10.95-1.74
					c-21.84-2.34-43.79-3.66-65.76-3.97c-3.76,0.14-7.53,0.12-11.29-0.07c-2.93,0-5.86,0.01-8.79,0.05
					c-7.91,0.11-16.48,0.48-23.55,4.43c-2.84,1.59-6.52,3.48-6.22,7.07c0.32,3.8,3.93,7.09,7.34,8.27
					c4.77,1.65,9.99,0.85,15.04,0.69c6.87-0.21,13.71,0.81,20.53,1.61c20.34,2.39,40.86,2.78,61.34,3.17
					c3.54,0.07,7.11,0.13,10.57-0.62C299.26,337.36,302.97,335.44,305.59,332.45z"/>
			</g>
		</g>
		<g style="clip-path:url(#SVGID_2_);">
			<g>
				<path style="fill:#876484;" d="M451.44,376.11c0,0,0.34,42.13-5.13,45.76s-0.79,94.26-0.79,94.26l-49.33-11.4
					c0,0-13.6-69.2-9.17-92c0,0-29.16,67.01-24.26,105.74c4.9,38.73-35.14,0.53-35.14,0.53s2.47-154.6,26.06-182.19
					C377.26,309.22,451.44,376.11,451.44,376.11z"/>
				<g style="opacity:0.3;">
					<path style="opacity:0.3;fill:#6E386A;" d="M361.03,352.99c-5.4,0.22-11.14,0.79-16.28,2.8c-2.02,6.57-3.8,14.24-5.37,22.61
						c2.47,1.59,5.51,2.27,8.39,1.74c3.34-0.61,6.32-2.69,9.68-3.17c6.56-0.94,12.23,4.19,18.1,7.32
						c9.15,4.89,20.27,5.25,28.91,11.03c6.63,4.44,11.01,11.56,15.18,18.46c4.85,8.03,9.76,16.19,12.26,25.27
						c2.5,9.08,2.33,19.37-2.59,27.35c-3.27,5.31-8.53,9.3-14.45,10.96c-1.81,0.51-3.85,0.92-4.94,2.47
						c-1.38,1.97-0.51,4.81,1.03,6.65c1.54,1.84,3.64,3.12,5.16,4.98c3.27,3.99,3.25,9.76,2.57,14.92c-0.13,1-0.26,2.11,0.27,2.96
						c0.25,0.4,0.6,0.67,1.01,0.88l2.51,0.58c7.56,0.81,15.08-1.63,22.33-4.05c0.09-0.03,0.18-0.06,0.27-0.09
						c-1.02-23.32-3.14-81.89,1.23-84.8c5.47-3.63,5.13-45.76,5.13-45.76s-10.22-9.21-24.27-19.38c-1.26-0.1-2.52-0.2-3.77-0.3
						C402.63,354.77,381.85,352.12,361.03,352.99z"/>
					<path style="opacity:0.3;fill:#6E386A;" d="M386.54,403.34c-0.14-2.53-0.77-5.48-3.04-6.52c-1.1-0.5-2.36-0.42-3.53-0.12
						c-6.36,1.6-9.76,8.51-12.33,14.67c-2.45,5.87-4.93,11.82-5.95,18.12c-0.67,4.09-0.71,8.27-1.44,12.35
						c-1.09,6.13-3.75,11.96-7.64,16.76c-2.11,2.61-4.66,5.08-5.44,8.36c-0.8,3.36,0.42,6.84,1.01,10.25
						c2.24,13.06-4.97,26.05-4.47,39.3c0.14,3.82,0.84,8.01-1.26,11.16c-0.49,0.73-1.07,1.33-1.72,1.83
						c11.19,7.54,25.03,12.67,22.03-11.04c-4.33-34.26,17.98-90.64,23.19-103.2C386.49,411.32,386.77,407.35,386.54,403.34z"/>
				</g>
			</g>
			<path style="fill:#FCD585;" d="M384.15,177.62c0,0-29.49,13.12-31.87,20.9c-2.38,7.78-5.71,55.9-8.09,69.99
				c-2.38,14.1-13.79,67.08-5.71,79.72c8.09,12.64,94.65,43.26,117,32.57c22.35-10.69,30.44-90.89,25.68-109.37
				c-4.76-18.47-16.17-82.63-22.83-85.06C451.68,183.94,403.39,167.66,384.15,177.62z"/>
			<g>
				<g>
					<path style="fill:#876484;" d="M362.19,100.59c-0.28,1.31-0.02,2.7,0.58,3.89c0.34,0.69,0.81,1.48,0.49,2.19
						c-0.14,0.31-0.4,0.54-0.53,0.85c-0.22,0.52-0.01,1.13,0.3,1.61c0.31,0.47,0.72,0.89,0.94,1.41c0.34,0.78,0.22,1.7,0.51,2.5
						c0.4,1.12,1.66,1.85,2.81,1.61c1.55-0.32,2.41-2,2.89-3.54c0.87-2.83,1.16-5.83,0.85-8.78c-0.18-1.7-0.6-3.48-1.79-4.68
						C366.8,95.17,362.84,97.61,362.19,100.59z"/>
					<path style="opacity:0.3;fill:#876484;" d="M362.19,100.59c-0.28,1.31-0.02,2.7,0.58,3.89c0.34,0.69,0.81,1.48,0.49,2.19
						c-0.14,0.31-0.4,0.54-0.53,0.85c-0.22,0.52-0.01,1.13,0.3,1.61c0.31,0.47,0.72,0.89,0.94,1.41c0.34,0.78,0.22,1.7,0.51,2.5
						c0.4,1.12,1.66,1.85,2.81,1.61c1.55-0.32,2.41-2,2.89-3.54c0.87-2.83,1.16-5.83,0.85-8.78c-0.18-1.7-0.6-3.48-1.79-4.68
						C366.8,95.17,362.84,97.61,362.19,100.59z"/>
				</g>
				<g>
					<path style="fill:#FFB799;" d="M388.86,157.26v32.44c0,0,17.23,8.66,30.85-10.39l-2.08-46.08L388.86,157.26z"/>
					<path style="opacity:0.3;fill:#FFB799;" d="M388.86,157.26v32.44c0,0,17.23,8.66,30.85-10.39l-2.08-46.08L388.86,157.26z"/>
					<path style="fill:#FFB799;" d="M367.19,103.91c0.08,1.73,0.03,3.45-0.12,5.17c-1.2,13.84-4.03,70.86,31.44,65.71
						c24.84-3.61,30.03-28.4,30.34-46.92c0.22-12.79-5.51-24.93-15.5-32.64c-10.6-8.18-24.78-17.08-33.5-14.37
						C367.59,84.68,366.95,98.51,367.19,103.91z"/>
					<path style="opacity:0.3;fill:#FFB799;" d="M403.14,173.81c20.86-5.86,25.41-28.63,25.71-45.93
						c0.22-12.79-5.51-24.93-15.5-32.64c-5.56-4.29-12.1-8.77-18.32-11.68c-3.55,0.41-7.05,1.19-10.38,2.48
						c-3.21,1.25-21.03,2.26-18.91,6.96c1.34,2.97,1.53,10.21,1.53,10.21c3.36,1.37,21.26,0.85,24.86,0.48
						c2.99-0.31,6.52-0.8,8.53,1.48c2.12,2.4,1.14,6.47,3.02,9.07c1.75,2.41,5.22,2.63,7.53,4.47c2.46,1.96,3.2,5.37,3.78,8.5
						c0.44,2.36,0.88,4.72,1.32,7.08c0.37,2,0.74,4.12,0.07,6.04c-1.03,2.95-4.15,4.53-7.11,5.37c-6.7,1.91-13.77,1.56-20.72,1.69
						c-6.53,0.13-13.05,0.71-19.5,1.73c2.45,10.46,7.04,19.8,15.35,23.85C390.61,173.75,396.89,174.02,403.14,173.81z"/>
					<path style="fill:#FFB799;" d="M422.08,124.23c0,0,10.87-15.59,15.75-4.54c4.88,11.04-3.72,22.4-11.13,18.84
						S422.08,124.23,422.08,124.23z"/>
					<path style="opacity:0.3;fill:#FFB799;" d="M422.08,124.23c0,0,10.87-15.59,15.75-4.54c4.88,11.04-3.72,22.4-11.13,18.84
						S422.08,124.23,422.08,124.23z"/>
					<ellipse style="fill:#4F174A;" cx="373.86" cy="123.33" rx="1.6" ry="3.82"/>
					<ellipse style="fill:#4F174A;" cx="401.38" cy="124.9" rx="1.6" ry="3.82"/>
					<path style="fill:#FFFFFF;" d="M366.47,143.26c0,0,10.63-15.88,18.72-16.11c8.09-0.23,27.04,14.01,28.18,16.11
						c1.14,2.1,6.24,16.16,3.12,22.78c-3.12,6.62-16.22,12.49-24.51,11.54C383.68,176.63,366.23,171.99,366.47,143.26z"/>
					<g>
						<defs>
							<path id="SVGID_3_" d="M366.47,143.26c0,0,10.63-15.88,18.72-16.11c8.09-0.23,27.04,14.01,28.18,16.11
								c1.14,2.1,6.24,16.16,3.12,22.78c-3.12,6.62-16.22,12.49-24.51,11.54C383.68,176.63,366.23,171.99,366.47,143.26z"/>
						</defs>
						<clipPath id="SVGID_4_">
							<use xlink:href="#SVGID_3_"  style="overflow:visible;"/>
						</clipPath>
						<path style="opacity:0.1;clip-path:url(#SVGID_4_);fill:#4F174A;" d="M397.48,137.48c-0.27,0.34-0.61,0.63-0.78,1.03
							c-0.35,0.83,0.12,1.76,0.61,2.51c1.47,2.25,3.22,4.33,4.43,6.75c1.2,2.42,1.8,5.32,0.82,7.84c-1.23,3.13-4.61,4.86-7.88,5.3
							c-1.62,0.22-3.52,0.32-4.46,1.69c-0.67,0.98-0.6,2.27-0.77,3.45c-0.34,2.39-1.94,4.69-4.23,5.3c-2.52,0.67-5.1-0.74-7.17-2.34
							c-2.08-1.6-4.11-3.49-6.66-4c-0.56-0.11-1.19-0.14-1.65,0.22c-0.31,0.24-0.49,0.62-0.61,0.99c-1.06,3.16,0.78,6.63,3.19,8.87
							c4.59,4.27,11.04,5.68,17.21,6.35c12.22,1.32,24.79,0.32,36.38-3.87c3.28-1.19,6.55-2.67,9.05-5.16
							c2.23-2.22,3.71-5.12,4.71-8.13c3.69-11.02,0.92-24.03-6.91-32.49c-7.84-8.46-20.4-12-31.37-8.84
							c-2.56,0.74-7.63,2.36-6.24,6.02C396.17,131.7,400.08,134.2,397.48,137.48z"/>
					</g>
					<path style="fill:#FFFFFF;" d="M427.83,118.05l-17.8,24.51l-3.06-3.37C406.97,139.19,424.73,113.64,427.83,118.05z"/>
					<path style="opacity:0.1;fill:#4F174A;" d="M427.83,118.05l-17.8,24.51l-3.06-3.37C406.97,139.19,424.73,113.64,427.83,118.05z
						"/>
					<path style="fill:#FFFFFF;" d="M413.82,154.69h10.07c0,0,1.63,2.47-1.6,3.33c-3.22,0.87-8.48,0-8.48,0V154.69z"/>
					<path style="opacity:0.1;fill:#4F174A;" d="M413.82,154.69h10.07c0,0,1.63,2.47-1.6,3.33c-3.22,0.87-8.48,0-8.48,0V154.69z"/>
					<path style="fill:#FFFFFF;" d="M370.66,139.7l-4.2-12.55c0,0-4.13,0.13,2.1,14.31C374.79,155.64,370.66,139.7,370.66,139.7z"/>
				</g>
				<g>
					<path style="fill:#876484;" d="M430.45,89.92c1.74-0.27,4.07-1.27,5.38-4.53c2.26-5.61-2.91-0.83-4.36,0.5
						c-0.85,0.77-2.14,1.4-3.07,1.84c-2.03-13.22-44.57-28.21-45.25-23.69c-0.72,4.72,7.9,8.7,7.9,8.7
						c-14.02-4.74-40.52,6.23-37.97,16.15c2.55,9.92,12.82,11.76,22.43,13.13c18.03,2.57,38.63-3.23,38.63-3.23
						s-0.54,1.91,0.53,2.45c1.07,0.55,2.83-2.23,2.29-0.52c-0.54,1.71-1.47,5.09-0.38,9.2c1.09,4.11,4.35,5.75,6.18,7.91
						c1.83,2.16-0.47,9.05,1.81,8.31c1.99-0.65,3.98-8.43,7.14-9.94c3.16-1.51,4.33-13.07,5.5-19.28
						C438.04,92.54,433.29,90.65,430.45,89.92z"/>
					<path style="opacity:0.3;fill:#876484;" d="M431.73,102.31c-0.99-1.57-1.2-3.55-0.85-5.38c-2.74,1.34-6.23,0.84-8.51-1.2
						c-2.28-2.04-3.21-5.52-2.27-8.46c-1.03,2.3-3.62,3.77-6.08,3.43c-2.46-0.34-4.58-2.45-4.97-4.95
						c-1.38,5.12-5.41,9.41-10.37,11.01c-2.69,0.87-5.56,0.98-8.39,1.04c-10.12,0.23-20.76-0.11-29.54-5.25
						c-2.02-1.18-3.91-2.68-5.39-4.53c-0.69-0.86-1.3-1.8-1.76-2.82c-0.04-0.08-0.05-0.17-0.08-0.25c-0.59,1.31-0.77,2.64-0.43,3.96
						c2.55,9.92,12.82,11.76,22.43,13.13c18.03,2.57,38.63-3.23,38.63-3.23s-0.54,1.91,0.53,2.45c1.07,0.55,2.83-2.23,2.29-0.52
						c-0.54,1.71-1.47,5.09-0.38,9.2c1.09,4.11,4.35,5.75,6.18,7.91c1.83,2.16-0.47,9.05,1.81,8.31c1.99-0.65,3.98-8.43,7.14-9.94
						c1.93-0.92,3.11-5.57,4.01-10.46C434.21,104.78,432.68,103.83,431.73,102.31z"/>
				</g>
				<path style="fill:#876484;" d="M369.63,115.63c1.59-0.45,4.46-0.81,7.74,0.91c0.52,0.27,1.16,0.08,1.45-0.44l0.77-1.39
					c0.33-0.59,0.07-1.34-0.55-1.6c-1.92-0.79-6.01-1.92-10.26,0.47c-0.36,0.2-0.56,0.61-0.55,1.02l0,0
					C368.27,115.32,368.94,115.82,369.63,115.63z"/>
				<path style="fill:#876484;" d="M406.41,117.63c-1.48-0.75-4.23-1.65-7.76-0.6c-0.56,0.17-1.16-0.15-1.34-0.72l-0.5-1.52
					c-0.21-0.65,0.18-1.33,0.83-1.47c2.03-0.41,6.26-0.73,9.99,2.44c0.31,0.27,0.44,0.7,0.35,1.11l0,0
					C407.8,117.59,407.04,117.95,406.41,117.63z"/>
			</g>
			<path style="opacity:0.3;fill:#FCD585;" d="M445.08,280.64c-2.13-15.52-6.68-30.57-11.4-45.49c-1.23-0.33-2.5,0.7-2.92,1.93
				c-0.42,1.23-0.22,2.58,0.01,3.86c2.29,12.65,6.92,24.78,8.85,37.49c1.04,6.87,1.29,13.83,1.38,20.78
				c0.12,9.35-0.2,19.24-5.06,27.16c-2.17,3.55-5.52,6.71-9.6,7.13c-4.19,0.43-8.1-2.07-11.41-4.71
				c-17.42-13.91-28.64-34.31-37.99-54.78c-0.97-2.12-2.81-4.66-4.95-3.84c1.46,7.45,3.76,14.72,6.85,21.63
				c5.48,12.27,13.34,23.23,20.06,34.84c2.97,5.13,5.81,10.75,5.45,16.7c-4.26,2.57-9.91,1.48-13.99-1.37
				c-4.08-2.86-6.91-7.18-9.55-11.46c-5.58-9.06-10.73-18.39-15.43-27.96c-2.5,7.11,1.77,14.62,5.41,21.19
				c3.64,6.57,6.67,15.19,2.23,21.22c-3.06,4.15-9.39,5.31-13.67,2.5c-3.45-2.26-5.27-6.49-5.68-10.65
				c-0.41-4.16,0.39-8.34,1.15-12.45c6.85-36.76,11.24-74,13.14-111.37c0.1-2.05-0.54-4.9-2.55-4.74
				c-3.71,20.95-6.23,42.11-7.53,63.36c-0.36,5.91-0.64,11.84-1.66,17.67c-0.82,4.67-2.12,9.24-3.2,13.85
				c-2.09,8.89-3.38,17.98-3.86,27.11c-0.23,4.39-0.55,9.4-3.93,12.13c-2.09,1.69-4.88,2.07-7.38,3.01
				c-0.2,0.07-0.39,0.16-0.59,0.24c0.34,0.99,0.75,1.87,1.21,2.6c6.03,9.43,55.78,28.88,89.92,33.69c10.15-5.81-1.34-6.48-1.47-8.68
				c-0.4-6.75,1.27-11.38,3.38-17.8c3.18-9.71,8.31-18.65,11.56-28.34C446.84,312.28,447.21,296.16,445.08,280.64z"/>
			<g>
				<g>
					<path style="fill:#FFB799;" d="M350.44,353.55c2.26,5.03,5.95,13.89,5.5,17.09c0,0-4.47-1.63-6.94-7.33
						c0,0-7.58,7.98-8.62,9.93c0,0-7.14-10.35-1.01-23.88c0.66-1.45,2.14-1.73,3.74-1.51C346.35,348.29,349.08,350.52,350.44,353.55
						z"/>
					<path style="opacity:0.3;fill:#FFB799;" d="M342.32,368.45c-1.07,1.23-1.98,2.75-2.2,4.35c0.17,0.29,0.28,0.44,0.28,0.44
						c1.04-1.96,8.62-9.93,8.62-9.93c2.47,5.7,6.94,7.33,6.94,7.33c0.45-3.19-3.25-12.06-5.5-17.09c-1.36-3.03-4.09-5.27-7.32-5.7
						c-1.6-0.22-3.09,0.06-3.74,1.51c-0.39,0.87-0.73,1.73-1.02,2.57c0.88,0.97,2.17,1.7,3.4,2.16c2.2,0.83,4.75,1.57,5.8,3.71
						c0.94,1.91,0.26,4.27-0.96,6.01C345.39,365.54,343.71,366.86,342.32,368.45z"/>
				</g>
				<g>
					<path style="fill:#FFB799;" d="M431.74,373.76c0,0-15.23,13.52-14.23,19.04l7.09-2.05l-1.48,5.53l20.24,6.12
						c6.81-6.12,6.81-21.62,6.81-21.62S442.77,370.89,431.74,373.76z"/>
					<path style="opacity:0.3;fill:#FFB799;" d="M431.74,373.76c0,0-15.23,13.52-14.23,19.04l7.09-2.05l-1.48,5.53l10.7,3.24
						c-0.3-0.7-0.63-1.4-0.93-2.11c-0.98-2.39-1.42-5-1.26-7.59c0.15-2.45,0.94-5.02,2.86-6.5c1.71-1.32,4.01-1.54,6.15-1.36
						c1.98,0.16,3.93,0.62,5.78,1.35c1.12,0.44,2.3,1.39,3.45,2.05c0.29-2.71,0.29-4.59,0.29-4.59S442.77,370.89,431.74,373.76z"/>
				</g>
			</g>
		</g>
		<g style="clip-path:url(#SVGID_2_);">
			<g>
				<g>
					<path style="fill:#EBEBEB;" d="M125.06,414.32c0,0-20.08,23.97-16.42,88.03c2.1,36.67,106.51,7.45,106.51,7.45
						s16.58-21.69-4.57-92.74C189.43,346.01,125.06,414.32,125.06,414.32z"/>
					<path style="opacity:0.3;fill:#EBEBEB;" d="M155.32,491.73c1.39-2.51,2.79-5.05,3.58-7.95c0.79-2.89,0.89-6.22-0.27-8.9
						c-0.74-1.69-1.91-2.99-3.07-4.26c-4.15-4.56-8.3-9.11-12.44-13.67c-2.81-3.08-5.82-6.65-6.11-11.34
						c2.21-0.39,4.22,1.49,6.04,3.11c6.4,5.67,13.79,9.22,20.68,13.88c2.78,1.88,5.49,3.95,8.45,5.32c2.96,1.37,6.24,1.99,9.26,0.89
						c4.86-1.78,8.03-7.47,11.27-12.37c3.88-5.87,8.4-11.08,13.38-15.44c1.83,3.6,1.11,8.5-0.65,12.16
						c-1.76,3.66-4.4,6.48-6.67,9.66c-2.27,3.18-4.26,7.07-4.22,11.35c0.03,3.78,1.63,7.21,2.7,10.74c1,3.28,1.57,6.76,1.67,10.27
						c0.06,2-0.04,4.06-0.71,5.86c-0.77,2.05-2.21,3.57-3.67,4.89c-6.7,6.03-14.94,9.29-23.17,9.16
						c-6.12-0.09-12.22-2.06-17.65-5.63c-2.37-1.56-5.79-2.99-4.55-6.63C150.47,498.98,153.41,495.19,155.32,491.73z"/>
				</g>
				<g>
					<path style="fill:#876484;" d="M198.73,364.9c0,0,30.17-18.64,27.6-44.63c-2.56-25.98-20.24-44.79-19.66-60.89
						c0.58-16.1,9.65-52.75-4.98-65.11c-17.88-15.1-31.81-6.16-31.81-6.16s-10.7-9.48-33.71,1.76
						c-31.22,15.24-13.97,51.44-24.19,62.15c-10.21,10.7-42.29,21.04-50.4,34c-6.35,10.14-0.49,28.48-2.67,33.58
						c-2.18,5.1-25.65,25.46-21.04,44.72c4.6,19.26,17.23,28.94,47.83,34.35C116.29,404.09,198.73,364.9,198.73,364.9z"/>
					<path style="opacity:0.3;fill:#6E386A;" d="M226.33,320.27c-0.16-1.61-0.38-3.19-0.64-4.75c-7.5-4.69-16.63-7.78-21.02-15.35
						c-3.66-6.31-3-14.29-0.74-21.22c1.13-3.48,2.63-6.82,4.13-10.15c-0.96-3.25-1.5-6.38-1.39-9.41c0.33-9.2,3.43-25.1,3.3-39.36
						c-0.21-0.29-0.43-0.58-0.69-0.84c-1.44-1.47-3.48-2.16-5.47-2.7c-5.31-1.43-11.15-2.25-15.18-6c-3.55-3.3-5.87-8.88-10.7-9.27
						c-4.4-0.36-7.56,3.88-10.36,7.3c-5.19,6.33-12.41,11.36-20.54,12.35c-4.15,0.51-8.38-0.04-12.53,0.45
						c-4.15,0.49-8.53,2.34-10.37,6.1c-1.16,2.36-1.14,5.12-0.93,7.74c0.55,6.84,2.26,13.59,2.2,20.45
						c-0.06,6.86-2.27,14.21-7.85,18.21c-6.5,4.65-15.6,3.55-22.66,7.28c-7.47,3.95-11.26,12.63-12.42,21
						c-1.16,8.37-0.23,16.9-1.04,25.31c-0.81,8.41-3.79,17.25-10.71,22.1c-5.99,4.2-14.44,4.55-20.76,0.86
						c-3.27-1.91-5.86-4.84-7.52-8.24c-3.86,6.91-6.39,14.64-4.58,22.2c4.6,19.26,17.23,28.94,47.83,34.35
						c30.6,5.41,113.04-33.78,113.04-33.78S228.9,346.25,226.33,320.27z"/>
				</g>
				<g>
					<path style="fill:#FFB799;" d="M266.86,462.98c0,0,9.73,5.18,8.01,1.46s-19.5-17.12-19.5-17.12l0,0
						c-5.52-11.1-25.74-51.88-26.49-55.65c-0.88-4.37-9.53-59.51-9.53-59.51l-32.01,8.76c0,0,16.4,53.66,20.55,64.87
						c4.84,13.06,25.29,40.78,33.43,51.53c1.93,9.26,22.01,33.89,23.35,32.83c1.36-1.07-5.55-11.59-5.55-11.59
						s13.05,13.66,13.68,12.75c0.63-0.91-9.76-15.71-9.76-15.71s16.04,15.47,16.79,13.66c0.75-1.81-12.38-16.55-12.38-16.55
						s13.56,12.07,14.2,10.33C282.29,481.31,266.86,462.98,266.86,462.98z"/>
					<path style="opacity:0.3;fill:#FFB799;" d="M264.04,473.93c-3.78-4.53-7.56-9.06-11.34-13.59c-2.39-2.86-4.93-6.56-3.52-10.02
						c0.2-0.5,0.49-1.02,0.37-1.54c-0.17-0.75-1.05-1.05-1.77-1.32c-3.05-1.14-5.3-3.71-7.36-6.23c-3.06-3.74-6-7.59-8.81-11.52
						c-3.35-4.7-6.56-9.61-8.38-15.1c-1.82-5.48-2.14-11.66,0.22-16.93c1.01-2.26,2.5-4.85,1.29-7.01c-0.8-1.44-2.5-2.05-3.9-2.92
						c-2.82-1.77-4.58-4.88-5.41-8.1c-0.64-2.46,0.48-9.71-3.02-9.84c-3.19-0.12-6.94,4.16-8.51,6.48c-1.51,2.24-2.55,4.74-3.3,7.34
						c3.09,9.76,5.89,18.39,7.29,22.18c4.84,13.06,25.29,40.78,33.43,51.53c1.37,6.6,11.96,21,18.42,28.35
						c0.96-0.41,1.89-0.92,2.8-1.45c-1.59-2.85-3.43-5.65-3.43-5.65s2.15,2.25,4.75,4.86c1.01-0.62,2.01-1.34,2.52-2.4
						c0.06-0.12,0.1-0.24,0.14-0.36c-1.9-2.81-3.48-5.07-3.48-5.07s1.54,1.48,3.68,3.48C266.57,477.27,265.28,475.42,264.04,473.93z
						"/>
					<path style="fill:#FFB799;" d="M93.61,347.49c0,0-21.52,46.49-23.98,64.95c-2.72,20.51,2.26,91.21,2.26,91.21h21.15
						c0,0,5.01-86.76,6.72-90.87c1.71-4.11,25.3-54.7,25.3-54.7L93.61,347.49z"/>
					<path style="fill:#FCD585;" d="M132.34,291.21c0,0-14.84,3.14-19.4,7.42c-4.56,4.28-21.11,43.08-22.25,50.78
						c0,0,15.98,14.84,27.67,18.26c0,0,6.28,17.4,5.42,26.25c-0.86,8.84-4.28,26.82-4.28,26.82s21.4,9.99,48.22,11.98
						s44.22-9.41,44.22-9.41s0.57-20.83,1.43-25.39c0.86-4.56,7.7-19.69,6.28-31.95s-7.7-24.82-7.7-24.82l14.55-8.84
						c0,0-20.54-37.37-23.96-37.94c-3.42-0.57-9.13,0-9.13,0l-11.13-13.12c0,0-15.12-6.28-42.51-2.57L132.34,291.21z"/>
					<g>
						<path style="opacity:0.3;fill:#FCD585;" d="M119.5,420.73c0,0,21.4,9.99,48.22,11.98c26.82,2,44.22-9.41,44.22-9.41
							s0.16-5.84,0.44-12.01c-0.82,0.41-1.62,0.95-2.36,1.44c-11.39,7.5-26.29,6.06-39.74,3.81c-4.99-0.84-10.89-2.52-12.32-7.37
							c-0.8-2.72,0.17-5.72,1.87-7.99c1.7-2.27,4.05-3.96,6.35-5.61c2.75-1.97,5.51-3.93,8.26-5.9c1.41-1,2.86-2.07,3.66-3.6
							c0.8-1.53,0.7-3.68-0.68-4.72c-1.42-1.06-3.42-0.54-5.08,0.1c-5.54,2.14-10.8,5.16-16.61,6.4
							c-5.81,1.24-12.62,0.26-16.36-4.36c-3.96-4.89-3.21-11.96-2.05-18.15c1.16-6.18,2.43-13.03-0.82-18.41
							c-6.51,1.29-10.69,8.79-17.31,9.3c-2.3,0.18-4.58-0.55-6.72-1.41c-6.23-2.49-11.99-6.16-16.9-10.73
							c-0.58-0.54-1.48-1.69-2.5-2.69c-1.28,3.59-2.15,6.45-2.38,8.02c0,0,15.98,14.84,27.67,18.26c0,0,6.28,17.4,5.42,26.25
							C122.93,402.76,119.5,420.73,119.5,420.73z"/>
						<path style="opacity:0.3;fill:#FCD585;" d="M223.17,326.34c-1.52,0.95-3.06,1.85-4.66,2.65c-1.7,0.85-3.54,1.65-5.43,1.42
							c-3.36-0.4-5.49-3.75-8.42-5.45c-1.29,0.45-0.89,2.36-0.26,3.57c1.71,3.24,3.41,6.48,5.12,9.72c1.22,2.33,2.58,4.75,4.21,6.84
							c-1.04-2.46-1.79-3.96-1.79-3.96l14.55-8.84C226.49,332.29,225.18,329.91,223.17,326.34z"/>
					</g>
				</g>
				<g>
					<g>
						<g>
							<path style="fill:#FFB799;" d="M179.33,269.36v31.85c0,0,0.75,20.57-4.48,20.72c-6.21,0.17-19.05-20.76-26.47-30.92
								l2.08-45.23L179.33,269.36z"/>
							<path style="opacity:0.3;fill:#FFB799;" d="M179.33,269.36v31.85c0,0,0.75,20.57-4.48,20.72
								c-6.21,0.17-19.05-20.76-26.47-30.92l2.08-45.23L179.33,269.36z"/>
							<g>
								<polygon style="fill:#FCD585;" points="139.76,278.66 175.05,321.33 182.27,281.22 193.39,294.35 187.99,333.67 
									174.85,321.92 166.58,333.67 131.88,291.31 								"/>
								<polygon style="opacity:0.3;fill:#FCD585;" points="139.76,278.66 175.05,321.33 182.27,281.22 193.39,294.35 
									187.99,333.67 174.85,321.92 166.58,333.67 131.88,291.31 								"/>
							</g>
							<path style="fill:#FFB799;" d="M201.06,216.99c-0.08,1.7-0.03,3.38,0.12,5.07c1.2,13.59,4.05,69.56-31.54,64.5
								c-24.92-3.54-30.12-27.87-30.44-46.05c-0.22-12.56,5.53-24.47,15.55-32.04c10.63-8.03,24.85-16.77,33.61-14.1
								C200.66,198.12,201.3,211.69,201.06,216.99z"/>
							<path style="opacity:0.3;fill:#FFB799;" d="M197.5,267.2c-1.12-0.88-2.38-1.58-3.76-1.99c-3.24-0.96-6.77-0.29-10.05-1.11
								c-1.95-0.49-3.73-1.49-5.48-2.47c-3.34-1.88-6.69-3.77-10.03-5.65c-3.41-1.92-6.94-3.95-9.24-7.12
								c-2.1-2.9-2.98-6.5-3.33-10.06c-0.06-0.57-0.1-1.18,0.15-1.7c0.51-1.1,1.94-1.32,3.15-1.42c8.8-0.77,18.01-3.75,23.34-10.79
								c0.36-0.48,0.75-1.01,1.33-1.18c0.53-0.16,1.1,0.01,1.63,0.19c4.3,1.45,8.58,3.07,13.07,3.72c0.94,0.13,2.08,0.25,3.31,0.3
								c-0.12-2.36-0.27-4.35-0.4-5.84c-0.15-1.69-0.2-3.38-0.12-5.07c0.15-3.41-0.06-10.22-3.49-15.65c-2.49-2-5.87-2.75-9.07-3.32
								c-4.43-0.79-8.89-1.44-13.37-1.86c-6.82,2.77-14.2,7.66-20.37,12.32c-10.02,7.57-15.77,19.48-15.55,32.04
								c0.32,18.18,5.52,42.51,30.44,46.05C185.05,288.75,193.25,279.5,197.5,267.2z"/>
							<path style="fill:#FFB799;" d="M146,236.93c0,0-10.9-15.3-15.8-4.46c-4.9,10.84,3.73,21.99,11.17,18.49
								C148.8,247.47,146,236.93,146,236.93z"/>
							<path style="opacity:0.3;fill:#FFB799;" d="M146,236.93c0,0-10.9-15.3-15.8-4.46c-4.9,10.84,3.73,21.99,11.17,18.49
								C148.8,247.47,146,236.93,146,236.93z"/>
							<path style="fill:#4F174A;" d="M193.02,237.64c0,2.07,0.72,3.75,1.6,3.75c0.89,0,1.6-1.68,1.6-3.75
								c0-2.07-0.72-3.75-1.6-3.75C193.74,233.89,193.02,235.57,193.02,237.64z"/>
							<path style="fill:#4F174A;" d="M164.62,238.93c0,2.07,0.72,3.75,1.6,3.75c0.89,0,1.6-1.68,1.6-3.75s-0.72-3.75-1.6-3.75
								C165.34,235.18,164.62,236.86,164.62,238.93z"/>
							<path style="fill:#FFFFFF;" d="M201.79,255.61c0,0-10.67-15.59-18.78-15.81c-8.11-0.22-27.12,13.75-28.27,15.81
								c-1.15,2.06-6.26,15.86-3.13,22.36c3.13,6.5,16.27,12.26,24.59,11.33C184.52,288.37,202.02,283.82,201.79,255.61z"/>
							<path style="opacity:0.1;fill:#4F174A;" d="M188.18,280.6c-1.6-0.1-3.22,0.08-4.8-0.21c-4.3-0.8-7.3-5.1-7.83-9.45
								c-0.52-4.35,0.94-8.68,2.73-12.68c1.41-3.13,3.06-6.21,3.71-9.59c0.57-2.93,0.23-6.21-1.47-8.6
								c-8.96,1.95-24.75,13.66-25.79,15.53c-1.15,2.06-6.26,15.86-3.13,22.36c3.13,6.5,16.27,12.26,24.59,11.33
								c4.23-0.48,10.84-1.9,16.28-6.88C191.49,281.16,189.78,280.7,188.18,280.6z"/>
							<g>
								<path style="fill:#FFFFFF;" d="M140.23,229.5l17.85,25.43l3.07-3.31C161.15,251.62,143.34,225.17,140.23,229.5z"/>
								<path style="fill:#FFFFFF;" d="M154.28,266.84h-10.11c0,0-1.63,2.42,1.6,3.27c3.23,0.85,8.5,0,8.5,0V266.84z"/>
							</g>
							<g style="opacity:0.1;">
								<path style="fill:#4F174A;" d="M140.23,229.5l17.85,25.43l3.07-3.31C161.15,251.62,143.34,225.17,140.23,229.5z"/>
								<path style="fill:#4F174A;" d="M154.28,266.84h-10.11c0,0-1.63,2.42,1.6,3.27c3.23,0.85,8.5,0,8.5,0V266.84z"/>
							</g>
							<path style="fill:#FFFFFF;" d="M197.58,252.12l4.21-12.32c0,0,4.14,0.13-2.11,14.05
								C193.43,267.77,197.58,252.12,197.58,252.12z"/>
							<g>
								<path style="fill:#876484;" d="M191.12,230.04c1.62-0.6,4.35-1.05,7.67,0.55c0.69,0.33,1.51,0.01,1.74-0.72l0.02-0.05
									c0.17-0.53-0.04-1.1-0.5-1.4c-1.31-0.86-4.39-2.21-9.61-0.84c-0.55,0.14-0.94,0.63-0.94,1.2v0.11
									C189.48,229.73,190.32,230.34,191.12,230.04z"/>
								<path style="fill:#876484;" d="M160.97,235.73c1.17-1.26,4.02-3.39,9.19-2.11c0.53,0.13,1.06-0.22,1.16-0.75l0.21-1.08
									c0.1-0.52-0.24-1.03-0.77-1.12c-2.3-0.41-8.24-0.93-11.31,3.92c-0.22,0.35-0.16,0.81,0.11,1.12l0,0
									C159.93,236.12,160.59,236.14,160.97,235.73z"/>
							</g>
						</g>
					</g>
				</g>
				<path style="fill:#876484;" d="M196.56,192.9l-20.63-1.77l-19.56,4.08l-15.58,14.75l-0.56,20.76c0,0,29.31,0.43,39.52-12.74
					c-0.4,2.33-0.93,4.82-1.52,6.18c0,0,4.31-0.84,7.02-6.57c1.68,3.9,4.66,8.1,10.29,8.88C214.06,229.02,196.56,192.9,196.56,192.9
					z"/>
				<g>
					<path style="fill:none;" d="M147.04,220.87c8.12-1,15.35-6.02,20.54-12.35c2.8-3.41,5.96-7.66,10.36-7.3
						c4.83,0.4,7.15,5.97,10.7,9.27c4.03,3.75,9.86,4.57,15.18,6c0.05,0.01,0.11,0.03,0.16,0.04c-0.77-9.93-7.41-23.64-7.41-23.64
						l-20.63-1.77l-19.56,4.08l-15.58,14.75l-0.3,11.14C142.68,221.12,144.87,221.14,147.04,220.87z"/>
					<path style="opacity:0.3;fill:#6E386A;" d="M188.63,210.5c-3.55-3.3-5.87-8.88-10.7-9.27c-4.4-0.36-7.56,3.88-10.36,7.3
						c-5.19,6.33-12.41,11.36-20.54,12.35c-2.17,0.27-4.36,0.24-6.54,0.23l-0.26,9.62c0,0,29.31,0.43,39.52-12.74
						c-0.4,2.33-0.93,4.82-1.52,6.18c0,0,4.31-0.84,7.02-6.57c1.68,3.9,4.66,8.1,10.29,8.88c7.11,0.98,8.91-3.74,8.44-9.92
						c-0.05-0.01-0.11-0.03-0.16-0.04C198.5,215.06,192.66,214.24,188.63,210.5z"/>
				</g>
			</g>
			<g>
				<path style="fill:#876484;" d="M144.81,229.78c0,0,4.97,19.1-6.59,28.14c0,0,4.1-25.09,1.01-28.9"/>
				<path style="opacity:0.3;fill:#6E386A;" d="M144.81,229.78c0,0,4.97,19.1-6.59,28.14c0,0,4.1-25.09,1.01-28.9"/>
			</g>
		</g>
		<g style="clip-path:url(#SVGID_2_);">
			<g>
				<path style="fill:#3D3D3D;" d="M317.23,297.41c0,0-26.06-13.35-21.97-28.64c4.09-15.29,38.55-45.01,67.62-25.63
					s50.23,61.46,40.76,74.38c-9.48,12.92-21.87,8.48-21.87,16.45c0,7.97-37.02,20.06-37.02,20.06L317.23,297.41z"/>
				<path style="opacity:0.3;fill:#4F174A;" d="M377.84,320.58c2.75-4.56,8.36-6.71,11.33-11.13c2.62-3.9,2.75-9.18,0.83-13.47
					c-1.92-4.29-5.68-7.59-9.97-9.52c-2.39-1.08-4.99-1.77-7.15-3.27c-2.4-1.66-4.15-4.23-6.75-5.56
					c-5.51-2.82-12.34,0.91-18.32-0.67c-4.8-1.26-8.11-5.66-12.61-7.74c-5.18-2.4-11.27-1.46-16.76,0.13
					c-6.14,1.78-13.11,4.23-18.55,0.85c-1.61-1-2.84-2.5-3.64-4.21c-0.43,0.96-0.77,1.88-1,2.76
					c-4.09,15.29,21.97,28.64,21.97,28.64l26.76,55.05c1.33-3.9,3.72-6.39,7.92-4.97c1.62,0.55,3,1.39,4.21,2.41
					c7.84-3.05,17.69-7.37,22.59-11.43C376.29,332.58,374.62,325.91,377.84,320.58z"/>
				<g>
					<g>
						<path style="fill:#FFB799;" d="M335.14,331.29v30.4c0,0,16.5,8.11,29.54-9.74l-1.99-43.17L335.14,331.29z"/>
						<path style="opacity:0.3;fill:#FFB799;" d="M335.14,331.29v30.4c0,0,16.5,8.11,29.54-9.74l-1.99-43.17L335.14,331.29z"/>
						<path style="fill:#FFB799;" d="M314.39,281.3c0.07,1.62,0.02,3.23-0.12,4.84c-1.15,12.97-3.86,66.39,30.1,61.57
							c23.78-3.38,28.75-26.61,29.05-43.96c0.21-11.99-5.27-23.35-14.84-30.58c-10.15-7.66-23.72-16-32.08-13.46
							C314.78,263.29,314.16,276.24,314.39,281.3z"/>
						<path style="opacity:0.3;fill:#FFB799;" d="M373.43,303.76c0.21-11.99-5.27-23.35-14.84-30.58
							c-6.36-4.8-14.07-9.87-20.99-12.36c-0.31,0.05-0.63,0.09-0.94,0.15c-5.05,0.98-9.63,3.53-14.12,6.04
							c-2.46,1.38-4.95,2.78-7.1,4.59c-1.08,3.78-1.14,7.5-1.04,9.71c0.07,1.62,0.02,3.23-0.12,4.84c-0.01,0.13-0.02,0.27-0.03,0.4
							c1.06,0.82,2.16,1.53,3.07,2.13c3.21,2.08,6.8,3.58,10.53,4.4c0.95,0.21,11.32,1.19,11.21,0.36c0.49,3.78,2.94,7.12,6.07,9.3
							c3.13,2.18,6.88,3.3,10.65,3.89c1.98,0.31,4.09,0.53,5.71,1.71c2.16,1.57,2.9,4.57,2.45,7.2s-1.91,4.98-3.45,7.15
							c-3.2,4.51-7.09,8.76-12.15,10.98c-5.78,2.53-12.34,2.13-18.65,1.95c-2.8-0.08-6.02,0.12-8.05,1.83
							c4.6,7.3,11.75,11.84,22.74,10.28C368.16,344.34,373.12,321.11,373.43,303.76z"/>
						<path style="fill:#FFB799;" d="M366.95,300.34c0,0,10.41-14.6,15.08-4.26c4.68,10.35-3.57,20.99-10.66,17.65
							C364.27,310.4,366.95,300.34,366.95,300.34z"/>
						<path style="opacity:0.3;fill:#FFB799;" d="M366.95,300.34c0,0,10.41-14.6,15.08-4.26c4.68,10.35-3.57,20.99-10.66,17.65
							C364.27,310.4,366.95,300.34,366.95,300.34z"/>
						<ellipse style="fill:#4F174A;" cx="320.78" cy="299.5" rx="1.53" ry="3.58"/>
						<path style="fill:#4F174A;" d="M347.81,301.3c0,1.98-0.69,3.58-1.53,3.58c-0.85,0-1.53-1.6-1.53-3.58s0.69-3.58,1.53-3.58
							C347.12,297.73,347.81,299.33,347.81,301.3z"/>
						<path style="fill:#FFFFFF;" d="M313.7,318.17c0,0,10.18-14.88,17.92-15.09c7.74-0.21,25.89,13.12,26.98,15.09
							c1.09,1.97,5.98,15.14,2.99,21.35c-2.99,6.2-15.53,11.7-23.47,10.81C330.18,349.44,313.48,345.09,313.7,318.17z"/>
						<path style="opacity:0.1;fill:#4F174A;" d="M338.62,304.93c-0.85,1-1.41,2.37-1.56,4.21c-0.35,4.23,2.88,7.4,4.76,10.85
							c1,1.83,1.68,3.83,2.01,5.89c0.11,0.68,0.18,1.4-0.05,2.05c-0.24,0.68-0.79,1.2-1.33,1.67c-5.01,4.31-11.88,6.37-18.44,5.52
							c-1.72-0.22-3.58-0.61-5.09,0.22c-0.63,0.34-1.13,0.87-1.54,1.46c5.33,10.58,15.19,12.91,20.75,13.53
							c7.94,0.89,20.48-4.61,23.47-10.81s-1.9-19.38-2.99-21.35C357.77,316.68,347.09,308.62,338.62,304.93z"/>
						<path style="fill:#FFFFFF;" d="M372.45,294.56l-17.04,22.96l-2.93-3.16C352.48,314.36,369.48,290.42,372.45,294.56z"/>
						<path style="opacity:0.1;fill:#4F174A;" d="M372.45,294.56l-17.04,22.96l-2.93-3.16
							C352.48,314.36,369.48,290.42,372.45,294.56z"/>
						<path style="fill:#FFFFFF;" d="M359.04,328.89h9.65c0,0,1.56,2.31-1.53,3.12c-3.09,0.81-8.12,0-8.12,0V328.89z"/>
						<path style="opacity:0.1;fill:#4F174A;" d="M359.04,328.89h9.65c0,0,1.56,2.31-1.53,3.12c-3.09,0.81-8.12,0-8.12,0V328.89z"/>
						<path style="fill:#FFFFFF;" d="M317.72,314.84l-4.02-11.76c0,0-3.95,0.12,2.01,13.41
							C321.67,329.77,317.72,314.84,317.72,314.84z"/>
					</g>
					<g>
						<path style="fill:#4F174A;" d="M317.64,292.57c1.5-0.49,4.23-0.95,7.44,0.51c0.51,0.23,1.12,0.02,1.37-0.48l0.68-1.34
							c0.29-0.57,0.01-1.26-0.59-1.47c-1.87-0.66-5.83-1.53-9.79,0.89c-0.33,0.2-0.51,0.59-0.48,0.98v0
							C316.33,292.34,316.99,292.78,317.64,292.57z"/>
						<path style="fill:#4F174A;" d="M350.25,295.3c-1.42-0.7-4.05-1.53-7.44-0.54c-0.54,0.16-1.11-0.14-1.29-0.67l-0.49-1.42
							c-0.21-0.6,0.16-1.25,0.79-1.38c1.94-0.39,5.99-0.7,9.57,2.25c0.3,0.25,0.43,0.66,0.34,1.04l0,0
							C351.58,295.25,350.86,295.6,350.25,295.3z"/>
					</g>
				</g>
				<path style="fill:#3D3D3D;" d="M303.57,257.7c0,0,7.03,34.84,40.28,28.77c0,0,7.35,19.5,24.29,11.51s6.39-32.92,6.39-32.92
					S313.8,235.97,303.57,257.7z"/>
				<path style="opacity:0.3;fill:#4F174A;" d="M368.14,297.98c5.84-2.75,8.41-7.51,9.28-12.58c-1.58-0.61-3.14-1.24-4.53-2.2
					c-2.4-1.66-4.15-4.23-6.75-5.56c-5.51-2.82-12.34,0.91-18.32-0.67c-4.8-1.26-8.11-5.66-12.61-7.74
					c-5.18-2.4-11.27-1.46-16.76,0.13c-2.92,0.85-6.02,1.84-9.06,2.29c5.57,8.91,15.95,18.21,34.46,14.83
					C343.84,286.47,351.2,305.97,368.14,297.98z"/>
			</g>
			<g>
				<path style="fill:#FFB799;" d="M262.95,474.48c0,0-20.51,7.39-23.36,10.84c-2.85,3.45,8.87,0.71,8.87,0.71
					s-21.42,15.03-21.24,17.04c0.18,2.02,17.89-6.93,17.89-6.93s-17.99,11.89-17.71,14.01c0.28,2.12,21.56-9.72,21.56-9.72
					s-15.12,12.71-14.71,13.85c0.41,1.14,18.02-9.63,18.02-9.63s-10.25,9.17-9.11,10.68c1.13,1.51,29.8-19.29,34.01-28.4
					C281.37,477.84,262.95,474.48,262.95,474.48z"/>
				<path style="fill:#CC663B;" d="M333.03,362.32c0,0-27.21-1.51-33.78,12.44c-3.39,7.2-4.42,20.63-5.91,32.73
					c-3.97,32.37-3.84,38.12-6.34,40.48c-2.51,2.36-24.42,18.74-25.55,24.06c-1.13,5.32,14.2,21.61,17.93,19.04
					c3.73-2.57,34.03-21.12,41.24-36.65C328.25,437.99,344.76,360.18,333.03,362.32z"/>
				<path style="opacity:0.3;fill:#CC663B;" d="M333.03,362.32c0,0-3.96-0.22-9.22,0.28c0.27,0.75,0.45,1.55,0.76,2.33
					c0.69,1.74,1.61,3.39,2.74,4.89c2.17,2.88,5.02,5.16,7.64,7.64c0.66,0.63,1.31,1.27,1.94,1.93
					C337.6,368.78,336.69,361.65,333.03,362.32z"/>
				<path style="opacity:0.3;fill:#CC663B;" d="M322.81,365.48c0,0-23.55,28.56-24.51,62.91c-0.21,7.59-6.86,21.59-7.9,29.12
					c-1.04,7.52-4.09,15.05-9.87,19.98c-1.67,1.42-3.65,2.65-5.85,2.75c-3.37,0.15-6.27-2.36-8.34-5.03
					c-0.93-1.19-1.81-2.45-2.74-3.63c-0.62-0.79-1.94-0.54-2.15,0.44c0,0.01,0,0.01,0,0.02c-1.13,5.32,14.2,21.61,17.93,19.04
					c3.73-2.57,34.03-21.12,41.24-36.65C328.25,437.99,334.53,363.34,322.81,365.48z"/>
			</g>
			<g>
				<path style="fill:#EF8A3D;" d="M339.29,360.07c-11.09,1.86-21.43,6.99-29.32,15c-2.45,2.49-4.94,10.05-5.51,12.17
					c-2.01,7.43-0.99,40.1-2.28,57.87c-1.83,25.16-3.46,45.27,6.12,68.35c5.12,12.34,93.3-2.88,93.39-5.59
					c3.16-97.85-9.11-114.63-5.24-124.9c3.87-10.28-13.54-27.53-32.71-26.02C354.95,357.65,346.19,358.91,339.29,360.07z"/>
				<g>
					<path style="opacity:0.3;fill:#CC663B;" d="M394.77,403.09c-2.78-3.13-6.75-5.39-10.9-6.07c-4.75-0.77-6.01,2.7-8.07,6.62
						c-4.13,7.86-6.05,16.88-5.36,25.74c0.27,3.48,0.92,7,0.23,10.42c-1.24,6.14-6.67,10.74-12.58,12.8
						c-5.52,1.93-11.92,1.97-16.99-0.94c-8.01-4.61-10.97-15.18-18.81-20.06c-2.11-1.31-5.25-1.97-6.79-0.02
						c-1.13,1.43-0.75,3.52-0.09,5.22c4.48,11.7,18.4,18.61,20.57,30.95c0.16,0.89,0.23,1.87-0.26,2.62
						c-0.65,1.02-2.03,1.24-3.23,1.27c-6.6,0.16-12.93-2.39-19.39-3.71c-3.98-0.82-8.36-1.05-12.23-0.03
						c-0.4,15.5,0.93,29.84,7.45,45.56c5.12,12.34,93.3-2.88,93.39-5.59c1.71-53.07-1.11-82.29-3.44-99.56
						C397.28,406.45,396.17,404.67,394.77,403.09z"/>
					<path style="opacity:0.3;fill:#CC663B;" d="M334.95,377.47c4.87,4.61,9.05,10.12,11.12,16.49c0.84,2.58,1.32,5.26,1.76,7.93
						c0.4,2.42,1.03,5.21,3.23,6.29c1.85,0.9,4.08,0.18,5.83-0.9c6.4-3.95,8.97-11.78,11.64-18.81c2.37-6.23,5.19-12.36,6.41-18.92
						c0.69-3.7,0.85-7.45,0.72-11.21c-3.77-1.15-7.8-1.7-11.93-1.37c-8.79,0.69-17.55,1.95-24.45,3.11
						c-5.15,0.86-10.13,2.44-14.78,4.68c0.02,0.06,0.04,0.13,0.07,0.19c0.69,1.74,1.61,3.39,2.74,4.89
						C329.47,372.71,332.33,374.99,334.95,377.47z"/>
				</g>
			</g>
			<path style="fill:#CC663B;" d="M331.62,363.53c0.4,0.79,1.13,1.36,1.86,1.86c5.88,3.98,13.49,5.31,20.37,3.55
				c5.89-1.5,11-5.05,16.22-8.15c1.26-0.75,2.59-1.52,3.4-2.74c0.81-1.22,0.93-3.05-0.15-4.04c-0.39-0.36-0.91-0.59-1.22-1.03
				c-0.26-0.38-0.33-0.86-0.37-1.32c-0.16-1.69-0.16-3.4,0.01-5.09c0.17-1.7,0.49-3.45,0-5.09c-0.49-1.64-2.16-3.08-3.81-2.62
				c-1.15,0.33-1.87,1.42-2.55,2.4c-2.15,3.1-4.89,5.79-8.02,7.89c-1.44,0.96-2.97,1.8-4.63,2.28c-1.52,0.43-3.11,0.55-4.7,0.6
				c-2.84,0.09-5.69-0.02-8.52-0.33c-1.38-0.15-5.41-1.58-6.43-0.38c-0.86,1.02-0.1,3.77-0.3,5.04
				C332.43,358.61,330.48,361.24,331.62,363.53z"/>
			<path style="opacity:0.3;fill:#CC663B;" d="M331.62,363.53c0.4,0.79,1.13,1.36,1.86,1.86c5.88,3.98,13.49,5.31,20.37,3.55
				c5.89-1.5,11-5.05,16.22-8.15c1.26-0.75,2.59-1.52,3.4-2.74c0.81-1.22,0.93-3.05-0.15-4.04c-0.39-0.36-0.91-0.59-1.22-1.03
				c-0.26-0.38-0.33-0.86-0.37-1.32c-0.16-1.69-0.16-3.4,0.01-5.09c0.17-1.7,0.49-3.45,0-5.09c-0.49-1.64-2.16-3.08-3.81-2.62
				c-1.15,0.33-1.87,1.42-2.55,2.4c-2.15,3.1-4.89,5.79-8.02,7.89c-1.44,0.96-2.97,1.8-4.63,2.28c-1.52,0.43-3.11,0.55-4.7,0.6
				c-2.84,0.09-5.69-0.02-8.52-0.33c-1.38-0.15-5.41-1.58-6.43-0.38c-0.86,1.02-0.1,3.77-0.3,5.04
				C332.43,358.61,330.48,361.24,331.62,363.53z"/>
			<path style="opacity:0.3;fill:#CC663B;" d="M373.48,358.05c0.81-1.22,0.93-3.05-0.15-4.04c-0.39-0.36-0.91-0.59-1.22-1.03
				c-0.26-0.38-0.33-0.86-0.37-1.32c-0.16-1.69-0.16-3.4,0.01-5.09c0.17-1.7,0.49-3.45,0-5.09c-0.49-1.64-2.16-3.08-3.81-2.62
				c-1.15,0.33-1.87,1.42-2.55,2.4c-2.15,3.1-4.89,5.79-8.02,7.89c-1.18,0.79-2.43,1.48-3.75,1.97c1.16,1.63,2.09,3.22-0.96,4.31
				c-1.33,0.48-2.84,0.45-4.09,1.1c-1.26,0.65-2.09,2.5-1.06,3.47c2.19-0.07,4.37-0.13,6.56-0.2c0.57,2.02-0.8,4.23-0.19,6.23
				c0.32,1.06,1.1,1.79,2.08,2.27c5.03-1.72,9.54-4.79,14.13-7.52C371.34,360.04,372.66,359.27,373.48,358.05z"/>
			<g>
				<path style="fill:#FFB799;" d="M427.66,486.61c0,0-8.68,20-8.12,24.44c0.56,4.44,6.6-5.97,6.6-5.97s-3.75,25.9-2.15,27.15
					c1.6,1.25,7.22-17.77,7.22-17.77s-3.68,21.25-1.94,22.49c1.74,1.25,7.71-22.36,7.71-22.36s-1.11,19.72,0,20.2
					c1.11,0.49,5.35-19.72,5.35-19.72s-0.35,13.75,1.53,13.96c1.87,0.21,6.39-34.92,2.64-44.23
					C442.73,475.5,427.66,486.61,427.66,486.61z"/>
				<path style="fill:#EF8A3D;" d="M389.34,368.31c0,0-14.74,29.62,7.97,53.02c22.71,23.4,27.53,26.15,27.53,29.6
					c0,3.44-3.1,30.63,0,35.1c3.1,4.47,25.47,4.47,26.15,0c0.69-4.47,7.96-39.25,1.59-55.15
					C445.86,414.06,395.83,358.3,389.34,368.31z"/>
				<path style="opacity:0.3;fill:#CC663B;" d="M437.79,447.3c-1.54-1.03-3.47-1.13-5.3-1.41c-1.8-0.28-3.73-0.88-4.69-2.42
					c-1.55-2.51,0.27-6.17-1.42-8.59c-1.64-2.34-5.41-1.94-7.48-3.91c-1.57-1.49-1.72-3.89-2.06-6.02c-0.34-2.14-1.29-4.58-3.4-5.08
					c-1.3-0.31-2.64,0.23-3.97,0.3c-4.42,0.25-7.36-4.35-9.31-8.32c-3.81-7.77-7.62-15.55-11.43-23.32
					c-0.83-1.69-3.29-1.72-4.07-0.01l-0.02,0.04c-0.33,9.91,2.19,22,12.64,32.77c22.71,23.4,27.53,26.15,27.53,29.6
					c0,3.44-3.1,30.63,0,35.1c0.97,1.41,3.86,2.37,7.38,2.89c0.2-5.79-1.14-11.62-1.47-17.45c-0.39-6.92,1.19-14.75,6.95-18.59
					c0.87-0.58,1.84-1.08,1.77-2.65C439.42,449.05,438.78,447.95,437.79,447.3z"/>
			</g>
			<path style="fill:#3D3D3D;" d="M368.42,337.78c0,0-23.76,14.03-22.63,25.12c1.13,11.09,13.31,13.13,11.3,19.46
				c-2.02,6.34-16.23,56.61,11.24,39.74c24.67-15.14,17.07-37.03,17.97-41.78c0.91-4.75,9.88-4.19,14.41-7.97
				c4.34-3.63,2.17-20.47-4.99-23.92c-15.11-7.29-13.47-16.77-13.47-16.77L368.42,337.78z"/>
			<path style="opacity:0.3;fill:#4F174A;" d="M395.71,348.43c-3.48-1.68-6.06-3.47-7.98-5.24c-0.73,1.14-1.9,2.01-3.23,2.02
				c-2.41,0.02-3.94-2.51-4.92-4.71c-0.93-2.09-1.82-4.31-2.47-6.57l-8.69,3.84c0,0-7.85,4.64-14.32,10.69
				c9.99,5.69,9.66,23.48,17.59,19.83c8.46-3.9,10.13-16.2,21.92-14.28c3.54,0.58,6.13,1.59,8.04,2.72
				C400.44,353.01,398.44,349.75,395.71,348.43z"/>
		</g>
		<rect x="7.97" y="10.53" style="clip-path:url(#SVGID_2_);fill:none;" width="460.99" height="460.99"/>
	</g>
	<g>
	</g>
	<g>
	</g>
	<g>
	</g>
	<g>
	</g>
	<g>
	</g>
</g>
</svg>
