<?xml version="1.0" encoding="utf-8"?>
<!-- Generator: Adobe Illustrator 24.0.2, SVG Export Plug-In . SVG Version: 6.00 Build 0)  -->
<svg version="1.1" id="Capa_1" xmlns="http://www.w3.org/2000/svg" xmlns:xlink="http://www.w3.org/1999/xlink" x="0px" y="0px"
	 viewBox="0 0 50 50" style="enable-background:new 0 0 50 50;" xml:space="preserve">
<circle style="fill:#EE7171;fill-opacity:0.38;" cx="25" cy="25" r="23.69"/>
<circle style="fill:#EE7171;fill-opacity:0.38;" cx="25" cy="25" r="20.81"/>
<rect x="11.61" y="11.2" style="fill:none;" width="27.19" height="27.19"/>
<g>
	<g>
		<path style="fill:#FDC3C9;" d="M36.78,32.71l-1.29-1.29l-1.29,1.29c-0.41-0.41-15.73-15.73-16.71-16.71l1.29-1.29l-1.29-1.29
			l-1.29,1.29l-5.24-5.24l-1.27,1.27l5.24,5.24l-1.29,1.29l1.29,1.29l1.29-1.29l1.32,1.32c-1.28,1.51-2.09,3.46-2.27,5.49h-1.87
			v-1.82h-1.82v5.45h1.82v-1.82h1.87c0.18,2.09,1,3.96,2.27,5.48l-1.32,1.32l-1.29-1.29l-1.29,1.29l3.86,3.86l1.29-1.29L17.49,34
			l1.32-1.32c1.53,1.27,3.4,2.09,5.48,2.27v1.87h-1.82v1.82h5.45v-1.82h-1.82v-1.87c2.03-0.18,3.98-0.99,5.49-2.27l1.32,1.32
			l-1.29,1.29l1.29,1.29l1.29-1.29l5.24,5.24l1.27-1.27l-5.24-5.24L36.78,32.71z M20.66,25.91h-1.82v-1.82h1.82V25.91z M26.12,31.36
			H24.3v-1.82h1.82V31.36z"/>
		<path style="fill:#FDC3C9;" d="M26.12,15.06v-1.87h1.82v-1.82h-5.45v1.82h1.82v1.87c-1.44,0.13-2.78,0.56-3.96,1.22l13.6,13.6
			c0.65-1.18,1.09-2.53,1.22-3.96h1.87v1.82h1.82v-5.45h-1.82v1.82h-1.87c-0.18-2.09-1-3.96-2.27-5.48l1.32-1.32l1.29,1.29
			l1.29-1.29l-3.86-3.86l-1.29,1.29L32.92,16l-1.32,1.32C30.07,16.05,28.2,15.24,26.12,15.06L26.12,15.06z M29.75,22.27h-1.82v-1.82
			h1.82V22.27z"/>
	</g>
</g>
</svg>
