<?xml version="1.0" encoding="utf-8"?>
<!-- Generator: Adobe Illustrator 24.0.2, SVG Export Plug-In . SVG Version: 6.00 Build 0)  -->
<svg version="1.1" id="Capa_1" xmlns="http://www.w3.org/2000/svg" xmlns:xlink="http://www.w3.org/1999/xlink" x="0px" y="0px"
	 viewBox="0 0 800 600" style="enable-background:new 0 0 800 600;" xml:space="preserve">
<g>
	<g>
		<g>
			
				<line style="fill:none;stroke:#FF4F5D;stroke-width:0.9945;stroke-linecap:round;stroke-linejoin:round;stroke-miterlimit:10;stroke-dasharray:0.4,4;" x1="300.97" y1="502.71" x2="264.14" y2="502.71"/>
			
				<line style="fill:none;stroke:#FF4F5D;stroke-width:0.9945;stroke-linecap:round;stroke-linejoin:round;stroke-miterlimit:10;stroke-dasharray:0.4,4;" x1="188.32" y1="110.59" x2="300.97" y2="110.59"/>
			
				<line style="fill:none;stroke:#FF4F5D;stroke-width:0.9945;stroke-linecap:round;stroke-linejoin:round;stroke-miterlimit:10;stroke-dasharray:0.4,4;" x1="195.54" y1="171.25" x2="300.97" y2="171.25"/>
			
				<line style="fill:none;stroke:#FF4F5D;stroke-width:0.9945;stroke-linecap:round;stroke-linejoin:round;stroke-miterlimit:10;stroke-dasharray:0.4,4;" x1="201.32" y1="232.99" x2="300.97" y2="232.99"/>
			
				<line style="fill:none;stroke:#FF4F5D;stroke-width:0.9945;stroke-linecap:round;stroke-linejoin:round;stroke-miterlimit:10;stroke-dasharray:0.4,4;" x1="218.65" y1="291.48" x2="301.7" y2="291.48"/>
			
				<line style="fill:none;stroke:#FF4F5D;stroke-width:0.9945;stroke-linecap:round;stroke-linejoin:round;stroke-miterlimit:10;stroke-dasharray:0.4,4;" x1="214.32" y1="357.92" x2="300.97" y2="357.92"/>
			
				<line style="fill:none;stroke:#FF4F5D;stroke-width:0.9945;stroke-linecap:round;stroke-linejoin:round;stroke-miterlimit:10;stroke-dasharray:0.4,4;" x1="235.98" y1="431.58" x2="300.97" y2="431.58"/>
			
				<line style="fill:none;stroke:#FF4F5D;stroke-width:0.9945;stroke-miterlimit:10;" x1="300.97" y1="110.59" x2="300.97" y2="502.71"/>
			
				<line style="fill:none;stroke:#FF4F5D;stroke-width:0.9945;stroke-miterlimit:10;" x1="301.7" y1="291.48" x2="419.41" y2="291.48"/>
			<circle style="fill:#FF4F5D;" cx="300.97" cy="110.59" r="6.5"/>
			<circle style="fill:#FF4F5D;" cx="300.97" cy="170.53" r="6.5"/>
			<circle style="fill:#FF4F5D;" cx="300.97" cy="230.46" r="6.5"/>
			<circle style="fill:#FF4F5D;" cx="300.97" cy="290.4" r="6.5"/>
			<circle style="fill:#FF4F5D;" cx="425.18" cy="290.4" r="11.55"/>
			<circle style="fill:#FF4F5D;" cx="300.97" cy="356.84" r="6.5"/>
			<circle style="fill:#FF4F5D;" cx="300.97" cy="430.5" r="6.5"/>
			<circle style="fill:#FF4F5D;" cx="300.97" cy="501.99" r="6.5"/>
			<circle style="fill:none;stroke:#FF4F5D;stroke-miterlimit:10;" cx="425.18" cy="290.4" r="20.22"/>
		</g>
		<g>
			<path style="fill:#E63C47;" d="M182.62,135.86H75.22c-5.94,0-10.75-4.81-10.75-10.75v-25.08c0-5.94,4.81-10.75,10.75-10.75h107.4
				c5.94,0,10.75,4.81,10.75,10.75v25.08C193.37,131.05,188.56,135.86,182.62,135.86z"/>
			<g>
				<g>
					<path style="fill:#FFFFFF;" d="M99.11,108.59v3.28h4.8v1.65h-4.8v5.36H97v-12.13h7.56v1.85H99.11z"/>
					<path style="fill:#FFFFFF;" d="M105.97,106.73h2.11v12.13h-2.11V106.73z"/>
					<path style="fill:#FFFFFF;" d="M112.63,108.59v3.28h4.94v1.66h-4.94v3.48h5.74v1.85h-7.83v-12.13h7.83v1.85H112.63z"/>
					<path style="fill:#FFFFFF;" d="M120.36,106.73h5.04c0.77,0,1.42,0.15,1.92,0.44c0.51,0.29,0.88,0.68,1.13,1.14
						c0.24,0.47,0.36,0.97,0.36,1.5c0,0.72-0.19,1.3-0.58,1.74c-0.39,0.44-0.82,0.73-1.29,0.84v0.1c0.32,0.03,0.68,0.16,1.07,0.36
						s0.72,0.52,1.01,0.94c0.28,0.42,0.42,0.94,0.42,1.58c0,0.58-0.13,1.13-0.39,1.66c-0.26,0.53-0.67,0.97-1.22,1.32
						c-0.55,0.35-1.25,0.52-2.1,0.52h-5.37V106.73z M124.76,111.86c0.57,0,1.05-0.14,1.46-0.42s0.61-0.73,0.61-1.33
						c0-0.59-0.2-1.02-0.6-1.28c-0.4-0.27-0.89-0.4-1.46-0.4h-2.34v3.43H124.76z M125.23,117.17c0.61,0,1.14-0.14,1.57-0.43
						c0.43-0.29,0.65-0.77,0.65-1.46c0-0.67-0.22-1.15-0.65-1.44c-0.43-0.29-0.96-0.43-1.57-0.43h-2.81v3.76H125.23z"/>
					<path style="fill:#FFFFFF;" d="M135.06,114.33h-1.79v4.54h-2.1v-12.13h4.37c0.97,0,1.78,0.18,2.43,0.55
						c0.65,0.36,1.12,0.84,1.43,1.42c0.31,0.58,0.46,1.2,0.46,1.86c0,0.81-0.23,1.54-0.68,2.19c-0.45,0.65-1.13,1.11-2.03,1.36
						l2.88,4.75h-2.22L135.06,114.33z M133.27,112.59h1.96c0.73,0,1.34-0.16,1.84-0.47c0.5-0.31,0.75-0.83,0.75-1.56
						s-0.25-1.24-0.74-1.53c-0.49-0.29-1.11-0.44-1.85-0.44h-1.96V112.59z"/>
					<path style="fill:#FFFFFF;" d="M144.05,108.59v3.28h4.94v1.66h-4.94v3.48h5.74v1.85h-7.83v-12.13h7.83v1.85H144.05z"/>
				</g>
			</g>
		</g>
		<g>
			<path style="fill:#E63C47;" d="M181.28,256.52H87.76c-12.86,0-23.29-10.43-23.29-23.29l0,0c0-12.86,10.43-23.29,23.29-23.29
				h93.52c12.86,0,23.29,10.43,23.29,23.29l0,0C204.57,246.09,194.14,256.52,181.28,256.52z"/>
			<g>
				<g>
					<path style="fill:#FFFFFF;" d="M100.56,228.11h-3.38v10.28h-2.1v-10.28h-3.38v-1.85h8.86V228.11z"/>
					<path style="fill:#FFFFFF;" d="M104.13,237.72c-0.83-0.54-1.46-1.29-1.89-2.23c-0.43-0.94-0.64-2-0.64-3.18
						c0-1.18,0.21-2.24,0.64-3.2c0.43-0.95,1.06-1.71,1.9-2.26c0.84-0.55,1.84-0.83,3.01-0.83c1.16,0,2.15,0.28,2.98,0.83
						c0.83,0.55,1.46,1.31,1.89,2.25c0.43,0.95,0.64,2.02,0.64,3.21c0,1.18-0.21,2.24-0.64,3.18c-0.43,0.94-1.06,1.68-1.89,2.23
						s-1.83,0.81-2.98,0.81C105.97,238.53,104.96,238.26,104.13,237.72z M109.56,235.41c0.58-0.81,0.87-1.85,0.87-3.14
						c0-0.82-0.13-1.56-0.38-2.22c-0.25-0.66-0.63-1.18-1.12-1.57s-1.08-0.58-1.78-0.58s-1.29,0.19-1.79,0.58
						c-0.5,0.39-0.88,0.91-1.14,1.58c-0.26,0.66-0.39,1.41-0.39,2.23s0.13,1.56,0.38,2.21c0.25,0.65,0.63,1.17,1.13,1.55
						c0.5,0.38,1.1,0.57,1.8,0.57C108.18,236.62,108.98,236.22,109.56,235.41z"/>
					<path style="fill:#FFFFFF;" d="M116.36,237.97c-0.69-0.39-1.21-0.89-1.56-1.51c-0.35-0.62-0.53-1.26-0.53-1.93v-0.1h2.31v0.1
						c0,0.32,0.08,0.65,0.24,0.98c0.16,0.33,0.41,0.61,0.75,0.83c0.34,0.23,0.77,0.34,1.29,0.34c0.62,0,1.14-0.16,1.54-0.49
						c0.4-0.32,0.61-0.76,0.61-1.3c0-0.46-0.16-0.83-0.48-1.11s-0.71-0.46-1.19-0.55l-1.58-0.31c-0.75-0.16-1.47-0.48-2.16-0.96
						c-0.69-0.48-1.03-1.29-1.03-2.42c0-0.72,0.18-1.34,0.53-1.87s0.84-0.94,1.46-1.22c0.62-0.28,1.33-0.42,2.14-0.42
						c0.91,0,1.7,0.18,2.35,0.54c0.65,0.36,1.15,0.82,1.48,1.39c0.33,0.57,0.5,1.16,0.5,1.79v0.07h-2.31v-0.05
						c0-0.28-0.07-0.57-0.2-0.87c-0.13-0.3-0.36-0.55-0.68-0.76c-0.32-0.21-0.73-0.31-1.24-0.31c-0.59,0-1.06,0.16-1.4,0.49
						c-0.35,0.32-0.52,0.73-0.52,1.23c0,0.45,0.16,0.81,0.47,1.07c0.31,0.27,0.72,0.45,1.21,0.55l1.51,0.31
						c0.89,0.19,1.67,0.53,2.33,1.05s1,1.29,1,2.33c0,0.73-0.19,1.37-0.56,1.93c-0.38,0.56-0.9,1-1.56,1.31
						c-0.66,0.31-1.42,0.47-2.26,0.47C117.87,238.55,117.05,238.35,116.36,237.97z"/>
					<path style="fill:#FFFFFF;" d="M130.78,237.97c-0.69-0.39-1.21-0.89-1.56-1.51c-0.35-0.62-0.53-1.26-0.53-1.93v-0.1H131v0.1
						c0,0.32,0.08,0.65,0.24,0.98c0.16,0.33,0.41,0.61,0.75,0.83c0.34,0.23,0.77,0.34,1.29,0.34c0.62,0,1.14-0.16,1.54-0.49
						c0.4-0.32,0.61-0.76,0.61-1.3c0-0.46-0.16-0.83-0.48-1.11s-0.71-0.46-1.19-0.55l-1.58-0.31c-0.75-0.16-1.47-0.48-2.16-0.96
						c-0.69-0.48-1.03-1.29-1.03-2.42c0-0.72,0.18-1.34,0.53-1.87s0.84-0.94,1.46-1.22c0.62-0.28,1.33-0.42,2.14-0.42
						c0.91,0,1.7,0.18,2.35,0.54c0.65,0.36,1.15,0.82,1.48,1.39c0.33,0.57,0.5,1.16,0.5,1.79v0.07h-2.31v-0.05
						c0-0.28-0.07-0.57-0.2-0.87c-0.13-0.3-0.36-0.55-0.68-0.76c-0.32-0.21-0.73-0.31-1.24-0.31c-0.59,0-1.06,0.16-1.4,0.49
						c-0.35,0.32-0.52,0.73-0.52,1.23c0,0.45,0.16,0.81,0.47,1.07c0.31,0.27,0.72,0.45,1.21,0.55l1.51,0.31
						c0.89,0.19,1.67,0.53,2.33,1.05s1,1.29,1,2.33c0,0.73-0.19,1.37-0.56,1.93c-0.38,0.56-0.9,1-1.56,1.31
						c-0.66,0.31-1.42,0.47-2.26,0.47C132.29,238.55,131.47,238.35,130.78,237.97z"/>
					<path style="fill:#FFFFFF;" d="M141.64,228.11v3.28h4.94v1.66h-4.94v3.48h5.74v1.85h-7.83v-12.13h7.83v1.85H141.64z"/>
					<path style="fill:#FFFFFF;" d="M151.62,237.69c-0.83-0.56-1.46-1.31-1.9-2.26c-0.43-0.95-0.65-2-0.65-3.15
						c0-1.17,0.22-2.22,0.65-3.17c0.43-0.95,1.07-1.7,1.9-2.25c0.83-0.55,1.82-0.83,2.96-0.83c1.4,0,2.55,0.4,3.45,1.2
						c0.9,0.8,1.49,1.85,1.77,3.15h-2.04c-0.19-0.74-0.55-1.34-1.11-1.81c-0.55-0.47-1.23-0.7-2.03-0.7c-1.1,0-1.93,0.4-2.5,1.2
						c-0.57,0.8-0.85,1.87-0.85,3.2s0.29,2.4,0.86,3.21c0.57,0.81,1.4,1.21,2.49,1.21c0.76,0,1.41-0.22,1.94-0.65
						c0.53-0.43,0.9-0.98,1.11-1.66h2.05c-0.29,1.24-0.88,2.24-1.77,3.01s-2.01,1.15-3.36,1.15
						C153.44,238.53,152.45,238.25,151.62,237.69z"/>
					<path style="fill:#FFFFFF;" d="M167.7,235.22h-4.42l-1.07,3.17h-2.13l4.44-12.13h1.98l4.44,12.13h-2.13L167.7,235.22z
						 M167.15,233.59l-1.63-4.71h-0.09l-1.59,4.71H167.15z"/>
				</g>
			</g>
		</g>
		<g>
			<path style="fill:#E63C47;" d="M199.69,316.85H87.76c-12.86,0-23.29-10.43-23.29-23.29l0,0c0-12.86,10.43-23.29,23.29-23.29
				h111.93c12.86,0,23.29,10.43,23.29,23.29l0,0C222.98,306.42,212.56,316.85,199.69,316.85z"/>
			<g>
				<g>
					<path style="fill:#FFFFFF;" d="M90.57,298.69c-0.83-0.56-1.46-1.31-1.9-2.26c-0.43-0.95-0.65-2-0.65-3.15
						c0-1.17,0.22-2.22,0.65-3.17c0.43-0.95,1.07-1.7,1.9-2.25c0.83-0.55,1.82-0.83,2.96-0.83c1.4,0,2.55,0.4,3.45,1.2
						c0.9,0.8,1.49,1.85,1.77,3.15H96.7c-0.19-0.74-0.55-1.34-1.11-1.81c-0.55-0.47-1.23-0.7-2.03-0.7c-1.1,0-1.93,0.4-2.5,1.2
						c-0.57,0.8-0.85,1.87-0.85,3.2s0.29,2.4,0.86,3.21c0.57,0.81,1.4,1.21,2.49,1.21c0.76,0,1.41-0.22,1.94-0.65
						c0.53-0.43,0.9-0.98,1.11-1.66h2.05c-0.29,1.24-0.88,2.24-1.77,3.01s-2.01,1.15-3.36,1.15
						C92.39,299.53,91.4,299.25,90.57,298.69z"/>
					<path style="fill:#FFFFFF;" d="M106.65,296.22h-4.42l-1.07,3.17h-2.13l4.44-12.13h1.98l4.44,12.13h-2.13L106.65,296.22z
						 M106.09,294.59l-1.63-4.71h-0.09l-1.59,4.71H106.09z"/>
					<path style="fill:#FFFFFF;" d="M111.38,287.26h2.43l5.46,8.86h0.05v-8.86h2.08v12.15h-2.43l-5.44-8.67h-0.07v8.67h-2.08V287.26
						z"/>
					<path style="fill:#FFFFFF;" d="M125.72,298.97c-0.69-0.39-1.21-0.89-1.56-1.51c-0.35-0.62-0.53-1.26-0.53-1.93v-0.1h2.31v0.1
						c0,0.32,0.08,0.65,0.24,0.98c0.16,0.33,0.41,0.61,0.75,0.83c0.34,0.23,0.77,0.34,1.29,0.34c0.62,0,1.14-0.16,1.54-0.49
						c0.4-0.32,0.61-0.76,0.61-1.3c0-0.46-0.16-0.83-0.48-1.11s-0.71-0.46-1.19-0.55l-1.58-0.31c-0.75-0.16-1.47-0.48-2.16-0.96
						c-0.69-0.48-1.03-1.29-1.03-2.42c0-0.72,0.18-1.34,0.53-1.87s0.84-0.94,1.46-1.22c0.62-0.28,1.33-0.42,2.14-0.42
						c0.91,0,1.7,0.18,2.35,0.54c0.65,0.36,1.15,0.82,1.48,1.39c0.33,0.57,0.5,1.16,0.5,1.79v0.07h-2.31v-0.05
						c0-0.28-0.07-0.57-0.2-0.87c-0.13-0.3-0.36-0.55-0.68-0.76c-0.32-0.21-0.73-0.31-1.24-0.31c-0.59,0-1.06,0.16-1.4,0.49
						c-0.35,0.32-0.52,0.73-0.52,1.23c0,0.45,0.16,0.81,0.47,1.07c0.31,0.27,0.72,0.45,1.21,0.55l1.51,0.31
						c0.89,0.19,1.67,0.53,2.33,1.05s1,1.29,1,2.33c0,0.73-0.19,1.37-0.56,1.93c-0.38,0.56-0.9,1-1.56,1.31
						c-0.66,0.31-1.42,0.47-2.26,0.47C127.23,299.55,126.41,299.35,125.72,298.97z"/>
					<path style="fill:#FFFFFF;" d="M141.07,296.22h-4.42l-1.07,3.17h-2.13l4.44-12.13h1.98l4.44,12.13h-2.13L141.07,296.22z
						 M140.51,294.59l-1.63-4.71h-0.09l-1.59,4.71H140.51z"/>
					<path style="fill:#FFFFFF;" d="M145.8,287.26h2.43l5.46,8.86h0.05v-8.86h2.08v12.15h-2.43l-5.44-8.67h-0.07v8.67h-2.08V287.26z
						"/>
					<path style="fill:#FFFFFF;" d="M160.25,298.69c-0.83-0.56-1.46-1.31-1.9-2.26c-0.43-0.95-0.65-2-0.65-3.15
						c0-1.17,0.22-2.22,0.65-3.17c0.43-0.95,1.07-1.7,1.9-2.25c0.83-0.55,1.82-0.83,2.96-0.83c1.4,0,2.55,0.4,3.45,1.2
						c0.9,0.8,1.49,1.85,1.77,3.15h-2.04c-0.19-0.74-0.55-1.34-1.11-1.81c-0.55-0.47-1.23-0.7-2.03-0.7c-1.1,0-1.93,0.4-2.5,1.2
						c-0.57,0.8-0.85,1.87-0.85,3.2s0.29,2.4,0.86,3.21c0.57,0.81,1.4,1.21,2.49,1.21c0.76,0,1.41-0.22,1.94-0.65
						c0.53-0.43,0.9-0.98,1.11-1.66h2.05c-0.29,1.24-0.88,2.24-1.77,3.01s-2.01,1.15-3.36,1.15
						C162.07,299.53,161.09,299.25,160.25,298.69z"/>
					<path style="fill:#FFFFFF;" d="M170.29,287.26h2.11v12.13h-2.11V287.26z"/>
					<path style="fill:#FFFFFF;" d="M176.89,298.72c-0.83-0.54-1.46-1.29-1.89-2.23c-0.43-0.94-0.64-2-0.64-3.18
						c0-1.18,0.21-2.24,0.64-3.2c0.43-0.95,1.06-1.71,1.9-2.26c0.84-0.55,1.84-0.83,3.01-0.83c1.16,0,2.15,0.28,2.98,0.83
						c0.83,0.55,1.46,1.31,1.89,2.25c0.43,0.95,0.64,2.02,0.64,3.21c0,1.18-0.21,2.24-0.64,3.18c-0.43,0.94-1.06,1.68-1.89,2.23
						s-1.83,0.81-2.98,0.81C178.73,299.53,177.72,299.26,176.89,298.72z M182.32,296.41c0.58-0.81,0.87-1.85,0.87-3.14
						c0-0.82-0.13-1.56-0.38-2.22c-0.25-0.66-0.63-1.18-1.12-1.57s-1.08-0.58-1.78-0.58s-1.29,0.19-1.79,0.58
						c-0.5,0.39-0.88,0.91-1.14,1.58c-0.26,0.66-0.39,1.41-0.39,2.23s0.13,1.56,0.38,2.21c0.25,0.65,0.63,1.17,1.13,1.55
						c0.5,0.38,1.1,0.57,1.8,0.57C180.94,297.63,181.74,297.22,182.32,296.41z"/>
				</g>
			</g>
		</g>
		<g>
			<path style="fill:#E63C47;" d="M174.24,196.19H87.76c-12.86,0-23.29-10.43-23.29-23.29l0,0c0-12.86,10.43-23.29,23.29-23.29
				h86.48c12.86,0,23.29,10.43,23.29,23.29l0,0C197.53,185.76,187.1,196.19,174.24,196.19z"/>
			<g>
				<g>
					<path style="fill:#FFFFFF;" d="M90.66,165.5h4.63c1.07,0,2.02,0.24,2.84,0.73s1.46,1.18,1.91,2.1s0.68,1.99,0.68,3.24
						c0,1.26-0.23,2.35-0.68,3.26c-0.46,0.91-1.09,1.61-1.92,2.09c-0.82,0.48-1.77,0.72-2.86,0.72h-4.59V165.5z M94.89,175.75
						c1.1,0,1.97-0.34,2.62-1.01c0.65-0.68,0.97-1.74,0.97-3.18c0-1.43-0.32-2.49-0.97-3.16c-0.65-0.68-1.52-1.01-2.62-1.01h-2.18
						v8.37H94.89z"/>
					<path style="fill:#FFFFFF;" d="M102.58,165.52h2.11v12.13h-2.11V165.52z"/>
					<path style="fill:#FFFFFF;" d="M113.99,174.48h-4.42l-1.07,3.17h-2.13l4.44-12.13h1.98l4.44,12.13h-2.13L113.99,174.48z
						 M113.43,172.85l-1.63-4.71h-0.09l-1.59,4.71H113.43z"/>
					<path style="fill:#FFFFFF;" d="M122.6,173.11h-1.79v4.54h-2.1v-12.13h4.37c0.97,0,1.78,0.18,2.43,0.55
						c0.65,0.36,1.12,0.84,1.43,1.42c0.31,0.58,0.46,1.2,0.46,1.86c0,0.81-0.23,1.54-0.68,2.19c-0.45,0.65-1.13,1.11-2.03,1.36
						l2.88,4.75h-2.22L122.6,173.11z M120.82,171.38h1.96c0.73,0,1.34-0.16,1.84-0.47c0.5-0.31,0.75-0.83,0.75-1.56
						s-0.25-1.24-0.74-1.53c-0.49-0.29-1.11-0.44-1.85-0.44h-1.96V171.38z"/>
					<path style="fill:#FFFFFF;" d="M133.36,173.11h-1.79v4.54h-2.1v-12.13h4.37c0.97,0,1.78,0.18,2.43,0.55
						c0.65,0.36,1.12,0.84,1.43,1.42c0.31,0.58,0.46,1.2,0.46,1.86c0,0.81-0.23,1.54-0.68,2.19c-0.45,0.65-1.13,1.11-2.03,1.36
						l2.88,4.75h-2.22L133.36,173.11z M131.58,171.38h1.96c0.73,0,1.34-0.16,1.84-0.47c0.5-0.31,0.75-0.83,0.75-1.56
						s-0.25-1.24-0.74-1.53c-0.49-0.29-1.11-0.44-1.85-0.44h-1.96V171.38z"/>
					<path style="fill:#FFFFFF;" d="M142.36,167.38v3.28h4.94v1.66h-4.94v3.48h5.74v1.85h-7.83v-12.13h7.83v1.85H142.36z"/>
					<path style="fill:#FFFFFF;" d="M157.09,174.48h-4.42l-1.07,3.17h-2.13l4.44-12.13h1.98l4.44,12.13h-2.13L157.09,174.48z
						 M156.54,172.85l-1.63-4.71h-0.09l-1.59,4.71H156.54z"/>
				</g>
			</g>
		</g>
		<g>
			<path style="fill:#E63C47;" d="M206.16,390.18H78.22c-7.59,0-13.75-6.16-13.75-13.75v-32.08c0-7.59,6.16-13.75,13.75-13.75
				h127.94c7.59,0,13.75,6.16,13.75,13.75v32.08C219.91,384.02,213.76,390.18,206.16,390.18z"/>
			<g>
				<g>
					<path style="fill:#FFFFFF;" d="M90.66,344.14h4.63c1.07,0,2.02,0.24,2.84,0.73c0.82,0.49,1.46,1.18,1.91,2.1
						s0.68,1.99,0.68,3.24c0,1.26-0.23,2.35-0.68,3.26c-0.46,0.91-1.09,1.61-1.92,2.09c-0.82,0.48-1.77,0.72-2.86,0.72h-4.59V344.14
						z M94.89,354.39c1.1,0,1.97-0.34,2.62-1.01c0.65-0.68,0.97-1.74,0.97-3.18c0-1.43-0.32-2.49-0.97-3.16
						c-0.65-0.68-1.52-1.01-2.62-1.01h-2.18v8.37H94.89z"/>
					<path style="fill:#FFFFFF;" d="M104.72,355.62c-0.83-0.54-1.46-1.29-1.89-2.23c-0.43-0.94-0.64-2-0.64-3.18
						c0-1.18,0.21-2.25,0.64-3.2c0.43-0.95,1.06-1.71,1.9-2.26c0.84-0.55,1.84-0.83,3.01-0.83c1.16,0,2.15,0.28,2.98,0.83
						s1.46,1.31,1.89,2.25c0.43,0.95,0.64,2.02,0.64,3.21c0,1.18-0.21,2.24-0.64,3.18c-0.43,0.94-1.06,1.68-1.89,2.23
						s-1.83,0.81-2.98,0.81C106.55,356.43,105.55,356.16,104.72,355.62z M110.14,353.31c0.58-0.81,0.87-1.85,0.87-3.14
						c0-0.82-0.13-1.56-0.38-2.22c-0.25-0.66-0.63-1.18-1.12-1.57c-0.49-0.39-1.08-0.58-1.78-0.58s-1.29,0.19-1.79,0.58
						c-0.5,0.39-0.88,0.91-1.14,1.58c-0.26,0.67-0.39,1.41-0.39,2.23s0.13,1.56,0.38,2.21c0.25,0.65,0.63,1.17,1.13,1.55
						c0.5,0.38,1.1,0.57,1.8,0.57C108.76,354.53,109.56,354.12,110.14,353.31z"/>
					<path style="fill:#FFFFFF;" d="M122.65,354.44v1.85h-7.49l-0.02-12.13h2.11l-0.02,10.28H122.65z"/>
					<path style="fill:#FFFFFF;" d="M125.74,355.62c-0.83-0.54-1.46-1.29-1.89-2.23c-0.43-0.94-0.64-2-0.64-3.18
						c0-1.18,0.21-2.25,0.64-3.2c0.43-0.95,1.06-1.71,1.9-2.26c0.84-0.55,1.84-0.83,3.01-0.83c1.16,0,2.15,0.28,2.98,0.83
						s1.46,1.31,1.89,2.25c0.43,0.95,0.64,2.02,0.64,3.21c0,1.18-0.21,2.24-0.64,3.18c-0.43,0.94-1.06,1.68-1.89,2.23
						s-1.83,0.81-2.98,0.81C127.58,356.43,126.57,356.16,125.74,355.62z M131.16,353.31c0.58-0.81,0.87-1.85,0.87-3.14
						c0-0.82-0.13-1.56-0.38-2.22c-0.25-0.66-0.63-1.18-1.12-1.57c-0.49-0.39-1.08-0.58-1.78-0.58s-1.29,0.19-1.79,0.58
						c-0.5,0.39-0.88,0.91-1.14,1.58c-0.26,0.67-0.39,1.41-0.39,2.23s0.13,1.56,0.38,2.21c0.25,0.65,0.63,1.17,1.13,1.55
						c0.5,0.38,1.1,0.57,1.8,0.57C129.78,354.53,130.59,354.12,131.16,353.31z"/>
					<path style="fill:#FFFFFF;" d="M140.05,351.75h-1.79v4.54h-2.1v-12.13h4.37c0.97,0,1.78,0.18,2.43,0.55s1.12,0.84,1.43,1.42
						c0.31,0.58,0.46,1.21,0.46,1.86c0,0.81-0.23,1.54-0.68,2.19c-0.45,0.65-1.13,1.11-2.03,1.36l2.88,4.75h-2.22L140.05,351.75z
						 M138.27,350.02h1.96c0.73,0,1.34-0.16,1.84-0.47c0.5-0.31,0.75-0.83,0.75-1.56s-0.25-1.24-0.74-1.53
						c-0.49-0.29-1.11-0.44-1.85-0.44h-1.96V350.02z"/>
					<path style="fill:#FFFFFF;" d="M150.68,344.14h4.63c1.07,0,2.02,0.24,2.84,0.73c0.82,0.49,1.46,1.18,1.91,2.1
						s0.68,1.99,0.68,3.24c0,1.26-0.23,2.35-0.68,3.26c-0.46,0.91-1.09,1.61-1.92,2.09c-0.82,0.48-1.77,0.72-2.86,0.72h-4.59V344.14
						z M154.91,354.39c1.1,0,1.97-0.34,2.62-1.01c0.65-0.68,0.97-1.74,0.97-3.18c0-1.43-0.32-2.49-0.97-3.16
						c-0.65-0.68-1.52-1.01-2.62-1.01h-2.18v8.37H154.91z"/>
					<path style="fill:#FFFFFF;" d="M164.61,346.02v3.28h4.94v1.66h-4.94v3.48h5.74v1.85h-7.83v-12.13h7.83v1.85H164.61z"/>
					<path style="fill:#FFFFFF;" d="M92.71,375.04c-0.79-0.59-1.38-1.37-1.76-2.31c-0.38-0.95-0.57-1.95-0.57-3.02
						c0-1.09,0.2-2.11,0.59-3.07c0.39-0.96,1-1.74,1.82-2.33c0.82-0.59,1.84-0.89,3.05-0.89c1.36,0,2.48,0.38,3.34,1.13
						c0.86,0.75,1.46,1.71,1.81,2.88h-2.22c-0.2-0.67-0.54-1.2-1.02-1.58c-0.49-0.38-1.12-0.57-1.89-0.57
						c-1.06,0-1.89,0.41-2.47,1.21c-0.58,0.81-0.88,1.89-0.88,3.26c0,1.41,0.3,2.51,0.91,3.29c0.61,0.79,1.45,1.18,2.52,1.18
						c0.95,0,1.68-0.29,2.21-0.86c0.53-0.57,0.8-1.29,0.82-2.14v-0.35h-2.83v-1.54h4.85v6.46h-1.59v-1.87h-0.14
						c-0.21,0.42-0.58,0.86-1.11,1.32c-0.53,0.46-1.38,0.69-2.53,0.69S93.51,375.63,92.71,375.04z"/>
					<path style="fill:#FFFFFF;" d="M110.07,372.62h-4.42l-1.07,3.17h-2.13l4.44-12.13h1.98l4.44,12.13h-2.13L110.07,372.62z
						 M109.52,370.99l-1.63-4.71h-0.09l-1.59,4.71H109.52z"/>
					<path style="fill:#FFFFFF;" d="M118.68,371.25h-1.79v4.54h-2.1v-12.13h4.37c0.97,0,1.78,0.18,2.43,0.55s1.12,0.84,1.43,1.42
						c0.31,0.58,0.46,1.21,0.46,1.86c0,0.81-0.23,1.54-0.68,2.19c-0.45,0.65-1.13,1.11-2.03,1.36l2.88,4.75h-2.22L118.68,371.25z
						 M116.9,369.52h1.96c0.73,0,1.34-0.16,1.84-0.47c0.5-0.31,0.75-0.83,0.75-1.56s-0.25-1.24-0.74-1.53
						c-0.49-0.29-1.11-0.44-1.85-0.44h-1.96V369.52z"/>
					<path style="fill:#FFFFFF;" d="M127.38,375.04c-0.79-0.59-1.38-1.37-1.76-2.31c-0.38-0.95-0.57-1.95-0.57-3.02
						c0-1.09,0.2-2.11,0.59-3.07c0.39-0.96,1-1.74,1.82-2.33c0.82-0.59,1.84-0.89,3.05-0.89c1.36,0,2.48,0.38,3.34,1.13
						c0.86,0.75,1.46,1.71,1.81,2.88h-2.22c-0.2-0.67-0.54-1.2-1.02-1.58c-0.49-0.38-1.12-0.57-1.89-0.57
						c-1.06,0-1.89,0.41-2.47,1.21c-0.58,0.81-0.88,1.89-0.88,3.26c0,1.41,0.3,2.51,0.91,3.29c0.61,0.79,1.45,1.18,2.52,1.18
						c0.95,0,1.68-0.29,2.21-0.86c0.53-0.57,0.8-1.29,0.82-2.14v-0.35h-2.83v-1.54h4.85v6.46h-1.59v-1.87h-0.14
						c-0.21,0.42-0.58,0.86-1.11,1.32c-0.53,0.46-1.38,0.69-2.53,0.69S128.17,375.63,127.38,375.04z"/>
					<path style="fill:#FFFFFF;" d="M144.73,372.62h-4.42l-1.07,3.17h-2.13l4.44-12.13h1.98l4.44,12.13h-2.13L144.73,372.62z
						 M144.18,370.99l-1.63-4.71h-0.09l-1.59,4.71H144.18z"/>
					<path style="fill:#FFFFFF;" d="M149.46,363.66h2.43l5.46,8.86h0.05v-8.86h2.08v12.15h-2.43l-5.44-8.67h-0.07v8.67h-2.08V363.66
						z"/>
					<path style="fill:#FFFFFF;" d="M170.12,365.51h-3.38v10.28h-2.1v-10.28h-3.38v-1.85h8.86V365.51z"/>
					<path style="fill:#FFFFFF;" d="M177.71,372.62h-4.42l-1.07,3.17h-2.13l4.44-12.13h1.98l4.44,12.13h-2.13L177.71,372.62z
						 M177.16,370.99l-1.63-4.71h-0.09l-1.59,4.71H177.16z"/>
				</g>
			</g>
		</g>
		<g>
			<path style="fill:#E63C47;" d="M228.91,463.5H78.22c-7.59,0-13.75-6.16-13.75-13.75v-32.08c0-7.59,6.16-13.75,13.75-13.75h150.69
				c7.59,0,13.75,6.16,13.75,13.75v32.08C242.66,457.35,236.5,463.5,228.91,463.5z"/>
			<g>
				<g>
					<path style="fill:#FFFFFF;" d="M99.47,431.26c-0.83-0.56-1.46-1.31-1.9-2.26c-0.43-0.95-0.65-2-0.65-3.15
						c0-1.17,0.22-2.22,0.65-3.17c0.43-0.95,1.07-1.7,1.9-2.25c0.83-0.55,1.82-0.83,2.96-0.83c1.4,0,2.55,0.4,3.45,1.2
						c0.9,0.8,1.49,1.85,1.77,3.15h-2.04c-0.19-0.74-0.55-1.34-1.11-1.81c-0.55-0.47-1.23-0.7-2.03-0.7c-1.1,0-1.93,0.4-2.5,1.2
						c-0.57,0.8-0.85,1.87-0.85,3.2c0,1.33,0.29,2.4,0.86,3.21c0.57,0.81,1.4,1.21,2.49,1.21c0.76,0,1.41-0.22,1.94-0.65
						c0.53-0.43,0.9-0.98,1.11-1.65h2.05c-0.29,1.24-0.88,2.24-1.77,3.01s-2.01,1.15-3.36,1.15
						C101.29,432.1,100.3,431.82,99.47,431.26z"/>
					<path style="fill:#FFFFFF;" d="M111.64,431.29c-0.83-0.54-1.46-1.29-1.89-2.23c-0.43-0.94-0.64-2-0.64-3.18
						c0-1.18,0.21-2.25,0.64-3.2c0.43-0.95,1.06-1.71,1.9-2.26c0.84-0.55,1.84-0.83,3.01-0.83c1.16,0,2.15,0.28,2.98,0.83
						s1.46,1.31,1.89,2.25c0.43,0.95,0.64,2.02,0.64,3.21c0,1.18-0.21,2.24-0.64,3.18c-0.43,0.94-1.06,1.68-1.89,2.23
						s-1.83,0.81-2.98,0.81C113.47,432.1,112.47,431.83,111.64,431.29z M117.06,428.98c0.58-0.81,0.87-1.85,0.87-3.14
						c0-0.82-0.13-1.56-0.38-2.22c-0.25-0.66-0.63-1.18-1.12-1.57c-0.49-0.39-1.08-0.58-1.78-0.58s-1.29,0.19-1.79,0.58
						c-0.5,0.39-0.88,0.91-1.14,1.58c-0.26,0.67-0.39,1.41-0.39,2.23s0.13,1.56,0.38,2.21c0.25,0.65,0.63,1.17,1.13,1.55
						c0.5,0.38,1.1,0.57,1.8,0.57C115.68,430.2,116.48,429.79,117.06,428.98z"/>
					<path style="fill:#FFFFFF;" d="M122.07,419.83h2.43l5.46,8.86h0.05v-8.86h2.08v12.15h-2.43l-5.44-8.67h-0.07v8.67h-2.08V419.83
						z"/>
					<path style="fill:#FFFFFF;" d="M136.32,431.21c-0.79-0.59-1.38-1.37-1.76-2.31c-0.38-0.95-0.57-1.95-0.57-3.02
						c0-1.09,0.2-2.11,0.59-3.07c0.39-0.96,1-1.74,1.82-2.33c0.82-0.59,1.84-0.89,3.05-0.89c1.36,0,2.48,0.38,3.34,1.13
						c0.86,0.75,1.46,1.71,1.81,2.88h-2.22c-0.2-0.67-0.54-1.2-1.02-1.58c-0.49-0.38-1.12-0.57-1.89-0.57
						c-1.06,0-1.89,0.41-2.47,1.21c-0.58,0.81-0.88,1.89-0.88,3.26c0,1.41,0.3,2.51,0.91,3.29c0.61,0.79,1.45,1.18,2.52,1.18
						c0.95,0,1.68-0.29,2.21-0.86c0.53-0.57,0.8-1.29,0.82-2.14v-0.35h-2.83v-1.54h4.85v6.46h-1.59v-1.87h-0.14
						c-0.21,0.42-0.58,0.86-1.11,1.32c-0.53,0.46-1.38,0.69-2.53,0.69S137.12,431.81,136.32,431.21z"/>
					<path style="fill:#FFFFFF;" d="M148.98,421.69v3.28h4.94v1.66h-4.94v3.48h5.74v1.85h-7.83v-12.13h7.83v1.85H148.98z"/>
					<path style="fill:#FFFFFF;" d="M158.51,431.54c-0.69-0.39-1.21-0.89-1.56-1.51s-0.53-1.26-0.53-1.93V428h2.31v0.1
						c0,0.32,0.08,0.65,0.24,0.98c0.16,0.33,0.41,0.61,0.75,0.83s0.77,0.34,1.29,0.34c0.62,0,1.14-0.16,1.54-0.49
						c0.4-0.32,0.61-0.76,0.61-1.3c0-0.46-0.16-0.83-0.48-1.11s-0.71-0.46-1.19-0.55l-1.58-0.31c-0.75-0.16-1.47-0.48-2.16-0.96
						c-0.69-0.48-1.03-1.29-1.03-2.42c0-0.72,0.18-1.34,0.53-1.87c0.35-0.53,0.84-0.94,1.46-1.22c0.62-0.28,1.33-0.42,2.14-0.42
						c0.91,0,1.7,0.18,2.35,0.54c0.65,0.36,1.15,0.82,1.48,1.39c0.33,0.57,0.5,1.16,0.5,1.79v0.07h-2.31v-0.05
						c0-0.28-0.07-0.57-0.2-0.87s-0.36-0.55-0.68-0.76c-0.32-0.21-0.73-0.31-1.24-0.31c-0.59,0-1.06,0.16-1.4,0.49
						c-0.35,0.32-0.52,0.73-0.52,1.23c0,0.45,0.16,0.81,0.47,1.08s0.72,0.45,1.21,0.55l1.51,0.31c0.89,0.18,1.67,0.53,2.33,1.05
						c0.66,0.51,1,1.29,1,2.33c0,0.73-0.19,1.37-0.56,1.93s-0.9,1-1.56,1.31c-0.66,0.31-1.42,0.47-2.26,0.47
						C160.02,432.12,159.19,431.93,158.51,431.54z"/>
					<path style="fill:#FFFFFF;" d="M175.45,421.69h-3.38v10.28h-2.1v-10.28h-3.38v-1.85h8.86V421.69z"/>
					<path style="fill:#FFFFFF;" d="M177.27,419.83h2.11v12.13h-2.11V419.83z"/>
					<path style="fill:#FFFFFF;" d="M183.87,431.29c-0.83-0.54-1.46-1.29-1.89-2.23c-0.43-0.94-0.64-2-0.64-3.18
						c0-1.18,0.21-2.25,0.64-3.2c0.43-0.95,1.06-1.71,1.9-2.26c0.84-0.55,1.84-0.83,3.01-0.83c1.16,0,2.15,0.28,2.98,0.83
						s1.46,1.31,1.89,2.25c0.43,0.95,0.64,2.02,0.64,3.21c0,1.18-0.21,2.24-0.64,3.18c-0.43,0.94-1.06,1.68-1.89,2.23
						s-1.83,0.81-2.98,0.81C185.71,432.1,184.7,431.83,183.87,431.29z M189.3,428.98c0.58-0.81,0.87-1.85,0.87-3.14
						c0-0.82-0.13-1.56-0.38-2.22c-0.25-0.66-0.63-1.18-1.12-1.57c-0.49-0.39-1.08-0.58-1.78-0.58s-1.29,0.19-1.79,0.58
						c-0.5,0.39-0.88,0.91-1.14,1.58c-0.26,0.67-0.39,1.41-0.39,2.23s0.13,1.56,0.38,2.21c0.25,0.65,0.63,1.17,1.13,1.55
						c0.5,0.38,1.1,0.57,1.8,0.57C187.92,430.2,188.72,429.79,189.3,428.98z M186.09,418.55l1.73-3.29h2.11l-2.18,3.31
						L186.09,418.55z"/>
					<path style="fill:#FFFFFF;" d="M194.31,419.83h2.43l5.46,8.86h0.05v-8.86h2.08v12.15h-2.43l-5.44-8.67h-0.07v8.67h-2.08V419.83
						z"/>
					<path style="fill:#FFFFFF;" d="M124.55,439.33h2.43l5.46,8.86h0.05v-8.86h2.08v12.15h-2.43l-5.44-8.67h-0.07v8.67h-2.08V439.33
						z"/>
					<path style="fill:#FFFFFF;" d="M143.75,448.29h-4.42l-1.07,3.17h-2.13l4.44-12.13h1.98l4.44,12.13h-2.13L143.75,448.29z
						 M143.2,446.66l-1.63-4.71h-0.09l-1.59,4.71H143.2z"/>
					<path style="fill:#FFFFFF;" d="M149.88,451.04c-0.69-0.39-1.21-0.89-1.56-1.51s-0.53-1.26-0.53-1.93v-0.1h2.31v0.1
						c0,0.32,0.08,0.65,0.24,0.98c0.16,0.33,0.41,0.61,0.75,0.83s0.77,0.34,1.29,0.34c0.62,0,1.14-0.16,1.54-0.49
						c0.4-0.32,0.61-0.76,0.61-1.3c0-0.46-0.16-0.83-0.48-1.11s-0.71-0.46-1.19-0.55l-1.58-0.31c-0.75-0.16-1.47-0.48-2.16-0.96
						c-0.69-0.48-1.03-1.29-1.03-2.42c0-0.72,0.18-1.34,0.53-1.87c0.35-0.53,0.84-0.94,1.46-1.22c0.62-0.28,1.33-0.42,2.14-0.42
						c0.91,0,1.7,0.18,2.35,0.54c0.65,0.36,1.15,0.82,1.48,1.39c0.33,0.57,0.5,1.16,0.5,1.79v0.07h-2.31v-0.05
						c0-0.28-0.07-0.57-0.2-0.87s-0.36-0.55-0.68-0.76c-0.32-0.21-0.73-0.31-1.24-0.31c-0.59,0-1.06,0.16-1.4,0.49
						c-0.35,0.32-0.52,0.73-0.52,1.23c0,0.45,0.16,0.81,0.47,1.08s0.72,0.45,1.21,0.55l1.51,0.31c0.89,0.18,1.67,0.53,2.33,1.05
						c0.66,0.51,1,1.29,1,2.33c0,0.73-0.19,1.37-0.56,1.93s-0.9,1-1.56,1.31c-0.66,0.31-1.42,0.47-2.26,0.47
						C151.39,451.62,150.56,451.43,149.88,451.04z"/>
					<path style="fill:#FFFFFF;" d="M165.22,448.29h-4.42l-1.07,3.17h-2.13l4.44-12.13h1.98l4.44,12.13h-2.13L165.22,448.29z
						 M164.67,446.66l-1.63-4.71h-0.09l-1.59,4.71H164.67z"/>
					<path style="fill:#FFFFFF;" d="M177.46,449.61v1.85h-7.49l-0.02-12.13h2.11l-0.02,10.28H177.46z"/>
				</g>
			</g>
		</g>
		<g>
			<path style="fill:#E63C47;" d="M241.58,536.83H94.26c-16.45,0-29.79-13.34-29.79-29.79l0,0c0-16.45,13.34-29.79,29.79-29.79
				h147.32c16.45,0,29.79,13.34,29.79,29.79l0,0C271.37,523.49,258.03,536.83,241.58,536.83z"/>
			<g>
				<g>
					<path style="fill:#FFFFFF;" d="M123.46,489.78c0.65,0.39,1.12,0.9,1.43,1.53s0.46,1.29,0.46,1.99s-0.15,1.37-0.45,1.98
						s-0.77,1.12-1.42,1.5c-0.65,0.38-1.46,0.57-2.44,0.57h-2.31v3.97h-2.06v-12.13h4.37C122.01,489.19,122.81,489.39,123.46,489.78
						z M122.56,495.08c0.5-0.35,0.75-0.94,0.75-1.78c0-0.82-0.25-1.4-0.74-1.74c-0.49-0.34-1.11-0.51-1.85-0.51h-1.99v4.56h1.99
						C121.45,495.6,122.06,495.43,122.56,495.08z"/>
					<path style="fill:#FFFFFF;" d="M130.93,496.78h-1.79v4.54h-2.1v-12.13h4.37c0.97,0,1.78,0.18,2.43,0.55s1.12,0.84,1.43,1.42
						c0.31,0.58,0.46,1.21,0.46,1.86c0,0.81-0.23,1.54-0.68,2.19c-0.45,0.65-1.13,1.11-2.03,1.36l2.88,4.75h-2.22L130.93,496.78z
						 M129.15,495.05h1.96c0.73,0,1.34-0.16,1.84-0.47c0.5-0.31,0.75-0.83,0.75-1.56s-0.25-1.24-0.74-1.53
						c-0.49-0.29-1.11-0.44-1.85-0.44h-1.96V495.05z"/>
					<path style="fill:#FFFFFF;" d="M139.77,500.65c-0.83-0.54-1.46-1.29-1.89-2.23c-0.43-0.94-0.64-2-0.64-3.18
						c0-1.18,0.21-2.25,0.64-3.2c0.43-0.95,1.06-1.71,1.9-2.26c0.84-0.55,1.84-0.83,3.01-0.83c1.16,0,2.15,0.28,2.98,0.83
						s1.46,1.31,1.89,2.25c0.43,0.95,0.64,2.02,0.64,3.21c0,1.18-0.21,2.24-0.64,3.18c-0.43,0.94-1.06,1.68-1.89,2.23
						s-1.83,0.81-2.98,0.81C141.61,501.46,140.6,501.19,139.77,500.65z M145.2,498.34c0.58-0.81,0.87-1.85,0.87-3.14
						c0-0.82-0.13-1.56-0.38-2.22c-0.25-0.66-0.63-1.18-1.12-1.57c-0.49-0.39-1.08-0.58-1.78-0.58s-1.29,0.19-1.79,0.58
						c-0.5,0.39-0.88,0.91-1.14,1.58c-0.26,0.67-0.39,1.41-0.39,2.23s0.13,1.56,0.38,2.21c0.25,0.65,0.63,1.17,1.13,1.55
						c0.5,0.38,1.1,0.57,1.8,0.57C143.81,499.56,144.62,499.15,145.2,498.34z"/>
					<path style="fill:#FFFFFF;" d="M150.2,489.19h5.04c0.77,0,1.42,0.15,1.92,0.44c0.51,0.29,0.88,0.68,1.13,1.14
						s0.36,0.97,0.36,1.5c0,0.72-0.19,1.3-0.58,1.74c-0.39,0.45-0.82,0.73-1.29,0.84v0.1c0.32,0.03,0.68,0.16,1.07,0.36
						s0.72,0.52,1.01,0.94c0.28,0.42,0.42,0.94,0.42,1.58c0,0.58-0.13,1.13-0.39,1.66c-0.26,0.53-0.67,0.97-1.22,1.32
						c-0.55,0.35-1.25,0.52-2.1,0.52h-5.37V489.19z M154.61,494.32c0.57,0,1.05-0.14,1.46-0.42s0.61-0.72,0.61-1.33
						c0-0.59-0.2-1.02-0.6-1.28c-0.4-0.27-0.89-0.4-1.46-0.4h-2.34v3.43H154.61z M155.07,499.63c0.61,0,1.14-0.14,1.57-0.43
						c0.43-0.29,0.65-0.77,0.65-1.46c0-0.67-0.22-1.15-0.65-1.44c-0.43-0.29-0.96-0.43-1.57-0.43h-2.81v3.76H155.07z"/>
					<path style="fill:#FFFFFF;" d="M168.52,499.47v1.85h-7.49l-0.02-12.13h2.11l-0.02,10.28H168.52z"/>
					<path style="fill:#FFFFFF;" d="M172.35,491.05v3.28h4.94v1.66h-4.94v3.48h5.74v1.85h-7.83v-12.13h7.83v1.85H172.35z"/>
					<path style="fill:#FFFFFF;" d="M180.08,489.19h3.12l2.98,8.08h0.05l3-8.08h3.12v12.13h-2.06v-9.08h-0.09l-3.29,9.08h-1.39
						l-3.29-9.08h-0.09v9.08h-2.06V489.19z"/>
					<path style="fill:#FFFFFF;" d="M201.54,498.15h-4.42l-1.07,3.17h-2.13l4.44-12.13h1.98l4.44,12.13h-2.13L201.54,498.15z
						 M200.98,496.52l-1.63-4.71h-0.09l-1.59,4.71H200.98z"/>
					<path style="fill:#FFFFFF;" d="M207.67,500.9c-0.69-0.39-1.21-0.89-1.56-1.51s-0.53-1.26-0.53-1.93v-0.1h2.31v0.1
						c0,0.32,0.08,0.65,0.24,0.98c0.16,0.33,0.41,0.61,0.75,0.83s0.77,0.34,1.29,0.34c0.62,0,1.14-0.16,1.54-0.49
						c0.4-0.32,0.61-0.76,0.61-1.3c0-0.46-0.16-0.83-0.48-1.11s-0.71-0.46-1.19-0.55l-1.58-0.31c-0.75-0.16-1.47-0.48-2.16-0.96
						c-0.69-0.48-1.03-1.29-1.03-2.42c0-0.72,0.18-1.34,0.53-1.87c0.35-0.53,0.84-0.94,1.46-1.22c0.62-0.28,1.33-0.42,2.14-0.42
						c0.91,0,1.7,0.18,2.35,0.54c0.65,0.36,1.15,0.82,1.48,1.39c0.33,0.57,0.5,1.16,0.5,1.79v0.07h-2.31v-0.05
						c0-0.28-0.07-0.57-0.2-0.87s-0.36-0.55-0.68-0.76c-0.32-0.21-0.73-0.31-1.24-0.31c-0.59,0-1.06,0.16-1.4,0.49
						c-0.35,0.32-0.52,0.73-0.52,1.23c0,0.45,0.16,0.81,0.47,1.08s0.72,0.45,1.21,0.55l1.51,0.31c0.89,0.18,1.67,0.53,2.33,1.05
						c0.66,0.51,1,1.29,1,2.33c0,0.73-0.19,1.37-0.56,1.93s-0.9,1-1.56,1.31c-0.66,0.31-1.42,0.47-2.26,0.47
						C209.18,501.48,208.35,501.29,207.67,500.9z"/>
					<path style="fill:#FFFFFF;" d="M106.82,517.58h-1.79v4.54h-2.1v-12.13h4.37c0.97,0,1.78,0.18,2.43,0.55s1.12,0.84,1.43,1.42
						c0.31,0.58,0.46,1.21,0.46,1.86c0,0.81-0.23,1.54-0.68,2.19c-0.45,0.65-1.13,1.11-2.03,1.36l2.88,4.75h-2.22L106.82,517.58z
						 M105.04,515.85H107c0.73,0,1.34-0.16,1.84-0.47c0.5-0.31,0.75-0.83,0.75-1.56s-0.25-1.24-0.74-1.53
						c-0.49-0.29-1.11-0.44-1.85-0.44h-1.96V515.85z"/>
					<path style="fill:#FFFFFF;" d="M115.82,511.84v3.28h4.94v1.66h-4.94v3.48h5.74v1.85h-7.83v-12.13h7.83v1.85H115.82z"/>
					<path style="fill:#FFFFFF;" d="M125.34,521.7c-0.69-0.39-1.21-0.89-1.56-1.51s-0.53-1.26-0.53-1.93v-0.1h2.31v0.1
						c0,0.32,0.08,0.65,0.24,0.98c0.16,0.33,0.41,0.61,0.75,0.83s0.77,0.34,1.29,0.34c0.62,0,1.14-0.16,1.54-0.49
						c0.4-0.32,0.61-0.76,0.61-1.3c0-0.46-0.16-0.83-0.48-1.11s-0.71-0.46-1.19-0.55l-1.58-0.31c-0.75-0.16-1.47-0.48-2.16-0.96
						c-0.69-0.48-1.03-1.29-1.03-2.42c0-0.72,0.18-1.34,0.53-1.87c0.35-0.53,0.84-0.94,1.46-1.22c0.62-0.28,1.33-0.42,2.14-0.42
						c0.91,0,1.7,0.18,2.35,0.54c0.65,0.36,1.15,0.82,1.48,1.39c0.33,0.57,0.5,1.16,0.5,1.79v0.07h-2.31v-0.05
						c0-0.28-0.07-0.57-0.2-0.87s-0.36-0.55-0.68-0.76c-0.32-0.21-0.73-0.31-1.24-0.31c-0.59,0-1.06,0.16-1.4,0.49
						c-0.35,0.32-0.52,0.73-0.52,1.23c0,0.45,0.16,0.81,0.47,1.08s0.72,0.45,1.21,0.55l1.51,0.31c0.89,0.18,1.67,0.53,2.33,1.05
						c0.66,0.51,1,1.29,1,2.33c0,0.73-0.19,1.37-0.56,1.93s-0.9,1-1.56,1.31c-0.66,0.31-1.42,0.47-2.26,0.47
						C126.85,522.28,126.03,522.08,125.34,521.7z"/>
					<path style="fill:#FFFFFF;" d="M140.88,510.58c0.65,0.39,1.12,0.9,1.43,1.53s0.46,1.29,0.46,1.99s-0.15,1.37-0.45,1.98
						s-0.77,1.12-1.42,1.5c-0.65,0.38-1.46,0.57-2.44,0.57h-2.31v3.97h-2.06v-12.13h4.37C139.42,509.99,140.23,510.19,140.88,510.58
						z M139.98,515.87c0.5-0.35,0.75-0.94,0.75-1.78c0-0.82-0.25-1.4-0.74-1.74c-0.49-0.34-1.11-0.51-1.85-0.51h-1.99v4.56h1.99
						C138.87,516.4,139.48,516.23,139.98,515.87z"/>
					<path style="fill:#FFFFFF;" d="M144.57,509.99h2.11v12.13h-2.11V509.99z"/>
					<path style="fill:#FFFFFF;" d="M152.99,517.58h-1.79v4.54h-2.1v-12.13h4.37c0.97,0,1.78,0.18,2.43,0.55s1.12,0.84,1.43,1.42
						c0.31,0.58,0.46,1.21,0.46,1.86c0,0.81-0.23,1.54-0.68,2.19c-0.45,0.65-1.13,1.11-2.03,1.36l2.88,4.75h-2.22L152.99,517.58z
						 M151.21,515.85h1.96c0.73,0,1.34-0.16,1.84-0.47c0.5-0.31,0.75-0.83,0.75-1.56s-0.25-1.24-0.74-1.53
						c-0.49-0.29-1.11-0.44-1.85-0.44h-1.96V515.85z"/>
					<path style="fill:#FFFFFF;" d="M165.87,518.95h-4.42l-1.07,3.17h-2.13l4.44-12.13h1.98l4.44,12.13h-2.13L165.87,518.95z
						 M165.32,517.32l-1.63-4.71h-0.09l-1.59,4.71H165.32z"/>
					<path style="fill:#FFFFFF;" d="M177.69,511.84h-3.38v10.28h-2.1v-10.28h-3.38v-1.85h8.86V511.84z"/>
					<path style="fill:#FFFFFF;" d="M181.26,521.45c-0.83-0.54-1.46-1.29-1.89-2.23c-0.43-0.94-0.64-2-0.64-3.18
						c0-1.18,0.21-2.25,0.64-3.2c0.43-0.95,1.06-1.71,1.9-2.26c0.84-0.55,1.84-0.83,3.01-0.83c1.16,0,2.15,0.28,2.98,0.83
						s1.46,1.31,1.89,2.25c0.43,0.95,0.64,2.02,0.64,3.21c0,1.18-0.21,2.24-0.64,3.18c-0.43,0.94-1.06,1.68-1.89,2.23
						s-1.83,0.81-2.98,0.81C183.1,522.26,182.09,521.99,181.26,521.45z M186.69,519.14c0.58-0.81,0.87-1.85,0.87-3.14
						c0-0.82-0.13-1.56-0.38-2.22c-0.25-0.66-0.63-1.18-1.12-1.57c-0.49-0.39-1.08-0.58-1.78-0.58s-1.29,0.19-1.79,0.58
						c-0.5,0.39-0.88,0.91-1.14,1.58c-0.26,0.67-0.39,1.41-0.39,2.23s0.13,1.56,0.38,2.21c0.25,0.65,0.63,1.17,1.13,1.55
						c0.5,0.38,1.1,0.57,1.8,0.57C185.31,520.35,186.11,519.95,186.69,519.14z"/>
					<path style="fill:#FFFFFF;" d="M195.58,517.58h-1.79v4.54h-2.1v-12.13h4.37c0.97,0,1.78,0.18,2.43,0.55s1.12,0.84,1.43,1.42
						c0.31,0.58,0.46,1.21,0.46,1.86c0,0.81-0.23,1.54-0.68,2.19c-0.45,0.65-1.13,1.11-2.03,1.36l2.88,4.75h-2.22L195.58,517.58z
						 M193.79,515.85h1.96c0.73,0,1.34-0.16,1.84-0.47c0.5-0.31,0.75-0.83,0.75-1.56s-0.25-1.24-0.74-1.53
						c-0.49-0.29-1.11-0.44-1.85-0.44h-1.96V515.85z"/>
					<path style="fill:#FFFFFF;" d="M202.56,509.99h2.11v12.13h-2.11V509.99z"/>
					<path style="fill:#FFFFFF;" d="M209.16,521.45c-0.83-0.54-1.46-1.29-1.89-2.23c-0.43-0.94-0.64-2-0.64-3.18
						c0-1.18,0.21-2.25,0.64-3.2c0.43-0.95,1.06-1.71,1.9-2.26c0.84-0.55,1.84-0.83,3.01-0.83c1.16,0,2.15,0.28,2.98,0.83
						s1.46,1.31,1.89,2.25c0.43,0.95,0.64,2.02,0.64,3.21c0,1.18-0.21,2.24-0.64,3.18c-0.43,0.94-1.06,1.68-1.89,2.23
						s-1.83,0.81-2.98,0.81C211,522.26,210,521.99,209.16,521.45z M214.59,519.14c0.58-0.81,0.87-1.85,0.87-3.14
						c0-0.82-0.13-1.56-0.38-2.22c-0.25-0.66-0.63-1.18-1.12-1.57c-0.49-0.39-1.08-0.58-1.78-0.58s-1.29,0.19-1.79,0.58
						c-0.5,0.39-0.88,0.91-1.14,1.58c-0.26,0.67-0.39,1.41-0.39,2.23s0.13,1.56,0.38,2.21c0.25,0.65,0.63,1.17,1.13,1.55
						c0.5,0.38,1.1,0.57,1.8,0.57C213.21,520.35,214.01,519.95,214.59,519.14z"/>
					<path style="fill:#FFFFFF;" d="M221.39,521.7c-0.69-0.39-1.21-0.89-1.56-1.51s-0.53-1.26-0.53-1.93v-0.1h2.31v0.1
						c0,0.32,0.08,0.65,0.24,0.98c0.16,0.33,0.41,0.61,0.75,0.83s0.77,0.34,1.29,0.34c0.62,0,1.14-0.16,1.54-0.49
						c0.4-0.32,0.61-0.76,0.61-1.3c0-0.46-0.16-0.83-0.48-1.11s-0.71-0.46-1.19-0.55l-1.58-0.31c-0.75-0.16-1.47-0.48-2.16-0.96
						c-0.69-0.48-1.03-1.29-1.03-2.42c0-0.72,0.18-1.34,0.53-1.87c0.35-0.53,0.84-0.94,1.46-1.22c0.62-0.28,1.33-0.42,2.14-0.42
						c0.91,0,1.7,0.18,2.35,0.54c0.65,0.36,1.15,0.82,1.48,1.39c0.33,0.57,0.5,1.16,0.5,1.79v0.07h-2.31v-0.05
						c0-0.28-0.07-0.57-0.2-0.87s-0.36-0.55-0.68-0.76c-0.32-0.21-0.73-0.31-1.24-0.31c-0.59,0-1.06,0.16-1.4,0.49
						c-0.35,0.32-0.52,0.73-0.52,1.23c0,0.45,0.16,0.81,0.47,1.08s0.72,0.45,1.21,0.55l1.51,0.31c0.89,0.18,1.67,0.53,2.33,1.05
						c0.66,0.51,1,1.29,1,2.33c0,0.73-0.19,1.37-0.56,1.93s-0.9,1-1.56,1.31c-0.66,0.31-1.42,0.47-2.26,0.47
						C222.9,522.28,222.08,522.08,221.39,521.7z"/>
				</g>
			</g>
		</g>
	</g>
	<g>
		<g>
			<circle style="opacity:0.11;fill:#919090;" cx="529.08" cy="302.79" r="240.73"/>
			<path style="display:none;fill:#FFF5DB;" d="M105.08,257.58c-3.44-22.03-18.49-40.21-38.7-48.08c-3.31-1.29-5.53-4.42-5.77-7.96
				c-1.02-15.05-10.58-28.88-25.62-34.62c-20.57-7.84-44.2,2.98-51.73,23.67c-4.74,13.02-2.27,26.98,5.44,37.4
				c2.11,2.85,2.44,6.64,0.75,9.76c-5.49,10.14-8.24,21.99-7.23,34.54c2.42,30.22,26.7,54.37,56.93,56.63
				c16.87,1.26,32.44-4.24,44.29-14.07c3.01-2.5,7.22-2.8,10.61-0.84c10.23,5.93,23.58,4.44,32.23-4.49
				c9.7-10.02,9.89-26.1,0.41-36.33c-3.99-4.31-9.05-6.97-14.37-8C108.54,264.48,105.68,261.39,105.08,257.58z"/>
			<g>
				<defs>
					<circle id="SVGID_1_" cx="529.08" cy="302.79" r="240.73"/>
				</defs>
				<clipPath id="SVGID_2_">
					<use xlink:href="#SVGID_1_"  style="overflow:visible;"/>
				</clipPath>
				<g style="clip-path:url(#SVGID_2_);">
					<g>
						<path style="fill:#EF8A3D;" d="M443.72,301.29c0,0-39.07-0.62-55.72,68.52c-14.69,61.01-19.59,206.92-19.59,206.92h71.22
							L443.72,301.29z"/>
						<path style="fill:#D87430;" d="M470.3,306.35c0,0-39.07-0.61-55.72,68.16c-14.69,60.69-19.59,205.83-19.59,205.83h71.22
							L470.3,306.35z"/>
					</g>
					<g>
						<path style="fill:#D87430;" d="M608.98,301.29c0,0,35.64,0.3,55.72,68.52c19.29,65.52,73.38,186.34,73.38,186.34
							l-125.02,20.58L608.98,301.29z"/>
						<path style="opacity:0.25;fill:#D87430;" d="M582.41,306.35c0,0,35.78-4.4,61.91,61.36c26.15,65.82,75.74,210.08,75.74,210.08
							l-133.56,2.55L582.41,306.35z"/>
						<path style="fill:#EF8A3D;" d="M622,304.58c-24.37-6.17-53.27-14.48-87.99-16.94v-0.68c-2.58,0.04-5.14,0.12-7.66,0.24
							c-2.52-0.11-5.08-0.19-7.66-0.24v0.68c-34.71,2.47-63.62,10.77-87.99,16.94l-16.91,273.57h104.9h15.33h104.9L622,304.58z"/>
					</g>
					<path style="fill:#E63C47;" d="M537.47,484.62h-13.52c-16.9,0-30.44-10.91-29.89-24.07l4.26-101.56h64.78l4.26,101.56
						C567.91,473.71,554.37,484.62,537.47,484.62z"/>
					<g>
						<g>
							<path style="fill:#EF815E;" d="M532.37,389.43c27.13,0,49.33-20.36,51.24-46.15c-18.76-2.34-39.77-3.78-62.68-3.44
								c-14.1,0.21-27.42,1.07-39.88,2.36C482.41,368.51,504.87,389.43,532.37,389.43z"/>
						</g>
						<rect x="488.73" y="267.71" style="fill:#EF815E;" width="88.52" height="92.21"/>
						<path style="fill:#D2DFE7;" d="M576.92,289.53h-88.28v34.01c9.35,20.09,22.96,34.54,42.67,34.54
							c23.43,0,37.12-20.4,45.61-46.44V289.53z"/>
					</g>
					<path style="fill:#FF4F5D;" d="M478.87,289.59c-2.52,6.12-6.42,17.56-6.99,32.75c-0.54,14.47,2.17,26.1,4.43,33.26
						c0.72,2.28,2.53,6.34,3.61,8.38c8.42,15.84,28.34,31.41,50.19,31.68c22.9,0.29,39.97-8.89,49.59-28.21
						c1.12-2.25,4.37-9.71,5.06-12.23c2.1-7.65,4.3-18.76,4.33-32.3c0.04-16.38-3.12-29.24-5.48-36.8
						C548.69,287.27,513.78,288.43,478.87,289.59z"/>
					<g>
						<path style="fill:#E63C47;" d="M482.03,323.2c3.53,6.3,9.62,11.3,15.21,15.11c9.58,6.52,20.79,10.35,32.05,10.47
							c21.51,0.23,37.54-7.2,46.57-22.86c1.05-1.83,4.47-7.77,4.75-9.91c3.43-26.72-25.59-30.05-28.34-30.66
							c-9.15-2.01-21.13-2.98-29.76-2.01c-9.17,1.03-15.54,0.85-24.27,5.01c-8.2,3.91-16.87,9.56-18.81,19.53
							C478.31,313.65,479.54,318.75,482.03,323.2z"/>
					</g>
					<g>
						<g>
							<g>
								<path style="fill:#FF966D;" d="M474.45,235.93c0.05,9.38-4.08,17.01-9.22,17.03c-5.14,0.03-9.35-7.56-9.39-16.94
									c-0.05-9.38,4.08-17.01,9.22-17.03C470.2,218.97,474.4,226.55,474.45,235.93z"/>
								<path style="fill:#BC6649;" d="M472.23,236.26c0.03,5.27-2.29,9.55-5.18,9.57c-2.89,0.01-5.25-4.25-5.28-9.51
									c-0.03-5.27,2.29-9.55,5.18-9.57C469.84,226.73,472.2,230.99,472.23,236.26z"/>
							</g>
							<g>
								<path style="fill:#FF966D;" d="M607.24,235.27c0.05,9.38-4.08,17.01-9.22,17.03c-5.14,0.03-9.35-7.56-9.39-16.94
									c-0.05-9.38,4.08-17.01,9.22-17.03C602.99,218.31,607.19,225.89,607.24,235.27z"/>
								<path style="fill:#BC6649;" d="M601.3,235.61c0.03,5.27-2.29,9.55-5.18,9.57c-2.89,0.01-5.25-4.25-5.28-9.51
									c-0.03-5.27,2.29-9.55,5.18-9.57C598.91,226.09,601.27,230.35,601.3,235.61z"/>
							</g>
						</g>
						<path style="fill:#EF815E;" d="M591.59,241.24c-1.56,44.94-24.24,98.02-62.95,96.68c-38.7-1.34-58.98-56.25-57.42-101.19
							c1.56-44.94,25.01-81.24,63.71-79.9C573.64,158.18,593.15,196.31,591.59,241.24z"/>
						<path style="fill:#FF966D;" d="M586.56,233.7c-13.1-4.28-16.9-30.6-16.65-43.92c-10.14,7.8-19.07,10.65-32.04,11.03
							c-16.69,0.49-30.78-3.69-46.35-10.05c8.16,24.38-7.8,42.42-13.07,42.63c-1.13,32.63,10.99,80.13,36.62,92.55
							c4.45,2.15,9.12,3.33,13.88,3.5c14.8,0.51,28.87-9.1,39.63-27.08C578.35,286.04,585.85,254.25,586.56,233.7z"/>
						<g>
							<g>
								<path style="fill:#360345;" d="M468.05,263.26l12.26,0.97l-0.36-33.1c8.97-16.91,6.32-49.94,6.32-49.94
									s53.51,15.56,88.88-1.84c0,0,2.22,38.94,8.28,50.59l0.32,0.61l-0.82,33.68l9.78,0.11l2.02-48.16c0,0,6.87-48.33-30.95-67.65
									c-11.38-5.82-26.67-2.93-39.21-2.74c-15.77,0.23-27.73,5.97-38.94,12.51c-8.75,5.11-14.09,10.04-16.43,20.97
									c-2.27,10.6-0.74,24.72-1.32,45.62L468.05,263.26z"/>
							</g>
						</g>
						<g>
							<path style="fill:#BC6649;" d="M531.75,266.39c-3.51-0.17-6.51-0.94-8.74-1.72c-1.11-0.39-2.04,0.96-1.25,1.84
								c1.84,2.04,4.02,3.85,6.73,4.78c0.94,0.32,1.99,0.54,3.06,0.65l0,0l0,0l0,0l0,0c1.08-0.04,2.14-0.18,3.1-0.44
								c2.77-0.74,5.07-2.39,7.05-4.3c0.85-0.82,0.02-2.23-1.12-1.92C538.31,265.91,535.26,266.47,531.75,266.39z"/>
							<path style="fill:#EF815E;" d="M532.76,309.65c3.9,0.18,7.24,0.89,9.71,1.62c1.24,0.36,2.25-0.86,1.37-1.65
								c-2.06-1.86-4.49-3.51-7.51-4.37c-1.04-0.3-2.21-0.5-3.4-0.61l0,0l0,0l0,0l0,0c-1.2,0.03-2.37,0.15-3.44,0.37
								c-3.07,0.65-5.61,2.13-7.79,3.84c-0.94,0.74-0.01,2.02,1.25,1.75C525.48,310.04,528.86,309.56,532.76,309.65z"/>
							<path style="fill:#360345;" d="M517.84,221.95c-0.98,2.49-2.88,4.56-5.15,6.05c-2.26,1.52-4.95,2.44-7.71,2.7
								c-2.76,0.25-5.55-0.17-8.05-1.23c-2.49-1.03-4.75-2.67-6.21-4.9c-0.31-0.47-0.18-1.09,0.29-1.4c0.25-0.17,0.56-0.2,0.83-0.13
								l0.04,0.01c2.31,0.67,4.4,1.16,6.48,1.44c2.08,0.24,4.1,0.31,6.07,0.13c1.98-0.18,3.94-0.61,5.92-1.23
								c1.98-0.66,3.92-1.53,6.04-2.66l0.04-0.02c0.49-0.26,1.1-0.08,1.36,0.42C517.93,221.37,517.94,221.68,517.84,221.95z"/>
							<path style="fill:#360345;" d="M545.39,222.1c0.97,2.49,2.87,4.57,5.14,6.05c2.26,1.52,4.94,2.45,7.7,2.71
								c2.76,0.25,5.55-0.16,8.05-1.22c2.5-1.02,4.75-2.67,6.22-4.89c0.31-0.46,0.18-1.09-0.29-1.4c-0.25-0.17-0.56-0.21-0.83-0.13
								l-0.04,0.01c-2.31,0.67-4.4,1.15-6.48,1.42c-2.08,0.24-4.1,0.31-6.07,0.12c-1.98-0.18-3.94-0.62-5.92-1.25
								c-1.97-0.66-3.91-1.54-6.03-2.67l-0.04-0.02c-0.49-0.26-1.1-0.08-1.36,0.41C545.29,221.53,545.29,221.83,545.39,222.1z"/>
						</g>
						<path style="fill:#360345;" d="M588.72,142.07c-3.18,2.75-7.49,9.6-12.3,9.32c0.18-11.24-52.3-21.49-80.09-6.08
							c-3.85,2.13-11.44,9.94-10.78,15.26l-1.52,6.21c-3.73,4.61-1.89,7.32-0.21,12.79c3.1,10.1,51.57,11.97,63.62,10.16
							c10.96-1.65,28.35-6.13,34.13-17.17C585.87,164.35,591.32,151.45,588.72,142.07z"/>
						<path style="fill:#410453;" d="M562.48,163.07c0,0-0.02-0.18-0.05-0.51c-6.43,0.41-14.02-4.27-19.2-6.38
							c-5.86-2.38-12.53-2.68-18.8-2.37c-6.79,0.34-12.96,2.72-19.45,4c-2.31,3-3.15,6.78-0.89,10.72
							c5.46,9.51,19.03,13.11,29.01,13.02c34.88-0.31,43.71-19.57,44.14-25.99C571.69,161.84,562.48,163.07,562.48,163.07z"/>
					</g>
					<path style="fill:#FF7E6F;" d="M508.47,258.65c0,4.87-5.4,8.82-12.05,8.82c-6.66,0-12.05-3.95-12.05-8.82
						c0-4.87,5.4-8.82,12.05-8.82C503.07,249.83,508.47,253.78,508.47,258.65z"/>
					<path style="fill:#FF7E6F;" d="M580.6,258.65c0,4.87-5.4,8.82-12.05,8.82c-6.66,0-12.05-3.95-12.05-8.82
						c0-4.87,5.4-8.82,12.05-8.82C575.21,249.83,580.6,253.78,580.6,258.65z"/>
					
						<line style="fill:none;stroke:#FFFFFF;stroke-width:0.8324;stroke-linecap:round;stroke-linejoin:round;stroke-miterlimit:10;" x1="467" y1="218.04" x2="495.55" y2="262.67"/>
					
						<line style="fill:none;stroke:#FFFFFF;stroke-width:0.8324;stroke-linecap:round;stroke-linejoin:round;stroke-miterlimit:10;" x1="594.73" y1="217.74" x2="564.07" y2="263.57"/>
					<g>
						<path style="fill:#FFFFFF;" d="M494.19,260.86l33.7-12.22c2.26-0.82,4.74-0.77,6.97,0.15l31.46,12.97l-1.8,59.51
							c0,0-7.21,20.29-36.07,18.48c-26.17-1.64-36.52-21.19-36.52-21.19L494.19,260.86z"/>
						<path style="fill:#F7F7F7;" d="M532.02,336.26c-1.08,0-2.19-0.03-3.34-0.11c-20.99-1.31-30.94-15.08-33.1-18.51l2.12-54.22
							l31.42-11.39c0.66-0.24,1.35-0.36,2.06-0.36c0.79,0,1.57,0.16,2.3,0.46l29.15,12.02l-1.71,56.37
							C559.76,323.2,552.96,336.26,532.02,336.26z"/>
						<path style="fill:#F7F7F7;" d="M546.7,253.68c0.32,10.96,0.41,21.92,0.24,32.91c-0.2,13.22-0.73,26.86-7.07,38.81
							c-4.95,9.32-13.25,12.27-22.41,12.46c3.3,0.97,6.96,1.65,11,1.9c28.85,1.8,36.07-18.48,36.07-18.48l1.8-59.51L546.7,253.68z"
							/>
					</g>
					<path style="fill:#FFFFFF;" d="M501.75,206.72l-2.44-3.04l-2.44,3.04c-1.35,1.68-1.35,4.4,0,6.07c1.35,1.68,3.54,1.68,4.89,0
						C503.1,211.12,503.1,208.4,501.75,206.72z"/>
					<path style="fill:#FFFFFF;" d="M506.56,199.34l-1.7-2.11l-1.7,2.11c-0.94,1.17-0.94,3.06,0,4.23c0.94,1.17,2.46,1.17,3.4,0
						C507.5,202.4,507.5,200.5,506.56,199.34z"/>
					<path style="fill:#360345;" d="M509.07,240.58c0,2.74-1.61,4.96-3.61,4.96s-3.61-2.22-3.61-4.96c0-2.74,1.61-4.96,3.61-4.96
						S509.07,237.84,509.07,240.58z"/>
					<path style="fill:#360345;" d="M560.92,240.58c0,2.74-1.61,4.96-3.61,4.96c-1.99,0-3.61-2.22-3.61-4.96
						c0-2.74,1.61-4.96,3.61-4.96C559.3,235.62,560.92,237.84,560.92,240.58z"/>
					
						<path style="fill:none;stroke:#E63C47;stroke-width:0.8324;stroke-linecap:round;stroke-linejoin:round;stroke-miterlimit:10;" d="
						M481.98,333.89c-1.08,9.61-0.56,19.39,1.51,28.83"/>
					
						<path style="fill:none;stroke:#E63C47;stroke-width:0.8324;stroke-linecap:round;stroke-linejoin:round;stroke-miterlimit:10;" d="
						M493.28,341.11c-0.77,10.96-0.45,22,0.94,32.91"/>
					
						<path style="fill:none;stroke:#E63C47;stroke-width:0.8324;stroke-linecap:round;stroke-linejoin:round;stroke-miterlimit:10;" d="
						M506.92,349.68c-0.63,11.56-0.59,23.16,0.14,34.72"/>
					
						<path style="fill:none;stroke:#E63C47;stroke-width:0.8324;stroke-linecap:round;stroke-linejoin:round;stroke-miterlimit:10;" d="
						M523.89,354.18c-0.08,12.62-0.16,25.24-0.24,37.87"/>
					
						<path style="fill:none;stroke:#E63C47;stroke-width:0.8324;stroke-linecap:round;stroke-linejoin:round;stroke-miterlimit:10;" d="
						M540.25,354.63c-0.08,12.62-0.16,25.25-0.24,37.87"/>
					
						<path style="fill:none;stroke:#E63C47;stroke-width:0.8324;stroke-linecap:round;stroke-linejoin:round;stroke-miterlimit:10;" d="
						M556.41,351.48c1.29,11.68,1.4,23.49,0.35,35.2"/>
					
						<path style="fill:none;stroke:#E63C47;stroke-width:0.8324;stroke-linecap:round;stroke-linejoin:round;stroke-miterlimit:10;" d="
						M569.48,343.36c1.46,10.6,2.07,21.31,1.81,32.01"/>
					
						<path style="fill:none;stroke:#E63C47;stroke-width:0.8324;stroke-linecap:round;stroke-linejoin:round;stroke-miterlimit:10;" d="
						M578.53,331.18c2.5,8.45,3.14,17.45,1.87,26.17"/>
					
						<path style="fill:none;stroke:#C9333D;stroke-width:0.8324;stroke-linecap:round;stroke-linejoin:round;stroke-miterlimit:10;" d="
						M506.09,402.77c15.93,4.58,33.16,4.52,49.06-0.17"/>
					
						<path style="fill:none;stroke:#C9333D;stroke-width:0.8324;stroke-linecap:round;stroke-linejoin:round;stroke-miterlimit:10;" d="
						M506.09,419.6c15.93,4.58,33.16,4.52,49.06-0.17"/>
					
						<path style="fill:none;stroke:#C9333D;stroke-width:0.8324;stroke-linecap:round;stroke-linejoin:round;stroke-miterlimit:10;" d="
						M506.09,436.43c15.93,4.58,33.16,4.52,49.06-0.17"/>
					
						<path style="fill:none;stroke:#C9333D;stroke-width:0.8324;stroke-linecap:round;stroke-linejoin:round;stroke-miterlimit:10;" d="
						M506.09,453.26c15.93,4.58,33.16,4.52,49.06-0.17"/>
					<path style="fill:#FF4F5D;" d="M521.69,115.25l8.11-38.77c0.1-0.5,0.59-0.82,1.09-0.71c0.37,0.08,0.64,0.37,0.71,0.71
						l8.11,38.77c1.04,4.98-2.15,9.86-7.13,10.9c-4.98,1.04-9.86-2.15-10.9-7.13C521.43,117.76,521.45,116.45,521.69,115.25z"/>
					<g>
						<path style="fill:#FF4F5D;" d="M475.96,132.97l-8.32-26.77c-0.11-0.35,0.09-0.73,0.44-0.84c0.26-0.08,0.53,0,0.7,0.2
							l18.63,20.95c2.47,2.78,2.22,7.03-0.56,9.5c-2.78,2.47-7.03,2.22-9.5-0.56C476.71,134.71,476.24,133.85,475.96,132.97z"/>
						<path style="fill:#FF4F5D;" d="M497.1,120.6l-2.69-29.93c-0.04-0.41,0.26-0.77,0.67-0.8c0.3-0.03,0.57,0.13,0.71,0.37
							l15.07,26c2.05,3.53,0.84,8.05-2.69,10.1c-3.53,2.05-8.05,0.84-10.1-2.69C497.52,122.69,497.2,121.63,497.1,120.6z"/>
					</g>
					<g>
						<path style="fill:#FF4F5D;" d="M586.89,130.4l8.09-26.02c0.11-0.34-0.09-0.71-0.43-0.82c-0.25-0.08-0.52,0-0.68,0.19
							l-18.11,20.36c-2.4,2.7-2.16,6.83,0.54,9.23c2.7,2.4,6.83,2.16,9.23-0.54C586.17,132.09,586.62,131.25,586.89,130.4z"/>
						<path style="fill:#FF4F5D;" d="M564.92,120.6l2.69-29.93c0.04-0.41-0.26-0.77-0.67-0.8c-0.3-0.03-0.57,0.13-0.71,0.37
							l-15.07,26c-2.05,3.53-0.84,8.05,2.69,10.1c3.53,2.05,8.05,0.84,10.1-2.69C564.5,122.69,564.82,121.63,564.92,120.6z"/>
					</g>
					<g>
						<path style="fill:#FF966D;" d="M588.07,358.16l-21.35-25.85c0,0-8.55-26.66-12.91-34.12c-4.36-7.46-18.66-16.1-25.9-14.54
							c-7.24,1.55-8.42,7.26-8.42,7.26s-10.99,0.49-7.12,14.36c-5.45,5.37-2.53,8.04-0.42,13.58c-3.54,4.36-3.2,19.94,9.34,18.27
							c5.9,8.76,12.72,18.19,22.04,17.75c2.13-0.1,4.13,0.99,5.01,2.93l17.04,32.67L588.07,358.16z"/>
						<path style="fill:#EF815E;" d="M520.48,291.2c0,0,13.96,10.09,16.34,7.78C539.2,296.67,520.48,291.2,520.48,291.2z"/>
						<path style="fill:#EF815E;" d="M512.38,305.26c0,0,18.98,2.53,18.96,5.23C531.32,313.2,512.38,305.26,512.38,305.26z"/>
						<path style="fill:#EF815E;" d="M511.96,318.84c0,0,9.72-4.62,14.45,0.05C527.91,320.38,517,317.31,511.96,318.84z"/>
						<path style="fill:#EF815E;" d="M521.3,337.12c-1.7-3.19-4.17-10.54-5.7-10.32C514.08,327.01,519.27,335.49,521.3,337.12z"/>
					</g>
					<polygon style="fill:#D87430;" points="723.27,498.69 669.56,548.93 545.14,372.22 581.2,338.86 					"/>
				</g>
			</g>
		</g>
		<g>
			<g style="opacity:0.52;">
				<path style="fill:#FF5748;" d="M724.09,365.22c0,4.36-3.54,7.9-7.9,7.9c-4.36,0-7.9-3.54-7.9-7.9c0-4.36,3.54-7.9,7.9-7.9
					C720.55,357.32,724.09,360.85,724.09,365.22z"/>
				<g>
					<path style="fill:#FF5748;" d="M718.24,351.98c0-1.29-1.21-2.3-2.56-1.94c-0.66,0.18-1.21,0.72-1.39,1.38
						c-0.24,0.88,0.11,1.71,0.74,2.17c0.3,0.22,0.5,0.55,0.5,0.93v3.96h1.39v-3.96c0-0.38,0.2-0.71,0.51-0.93
						C717.92,353.22,718.24,352.64,718.24,351.98z"/>
					<path style="fill:#FF5748;" d="M714.22,377.68c0,1.29,1.21,2.3,2.56,1.94c0.66-0.18,1.21-0.72,1.39-1.38
						c0.24-0.88-0.11-1.7-0.74-2.17c-0.3-0.22-0.5-0.55-0.5-0.93v-3.96h-1.39v3.96c0,0.38-0.2,0.71-0.51,0.93
						C714.54,376.44,714.22,377.02,714.22,377.68z"/>
				</g>
				<g>
					<path style="fill:#FF5748;" d="M703.38,362.82c-1.29,0-2.3,1.21-1.94,2.56c0.18,0.66,0.72,1.21,1.38,1.39
						c0.88,0.24,1.71-0.11,2.17-0.74c0.22-0.3,0.55-0.5,0.93-0.5h3.96v-1.39h-3.96c-0.38,0-0.71-0.2-0.93-0.51
						C704.62,363.13,704.04,362.82,703.38,362.82z"/>
					<path style="fill:#FF5748;" d="M729.08,366.84c1.29,0,2.3-1.21,1.94-2.56c-0.18-0.66-0.72-1.21-1.38-1.39
						c-0.88-0.24-1.71,0.11-2.17,0.74c-0.22,0.3-0.55,0.5-0.93,0.5h-3.96v1.39h3.96c0.38,0,0.71,0.2,0.93,0.51
						C727.84,366.52,728.42,366.84,729.08,366.84z"/>
				</g>
				<g>
					<path style="fill:#FF5748;" d="M705.72,372.49c-0.91,0.91-0.77,2.48,0.44,3.18c0.59,0.35,1.36,0.35,1.96,0.01
						c0.79-0.46,1.13-1.28,1.01-2.06c-0.06-0.37,0.04-0.75,0.3-1.01l2.8-2.8l-0.99-0.99l-2.8,2.8c-0.27,0.27-0.64,0.36-1.02,0.3
						C706.82,371.84,706.19,372.03,705.72,372.49z"/>
					<path style="fill:#FF5748;" d="M726.74,357.17c0.91-0.91,0.77-2.48-0.44-3.18c-0.59-0.35-1.36-0.35-1.96-0.01
						c-0.79,0.46-1.13,1.28-1.01,2.06c0.06,0.37-0.04,0.75-0.3,1.01l-2.8,2.8l0.99,0.99l2.8-2.8c0.27-0.27,0.64-0.36,1.02-0.3
						C725.64,357.82,726.27,357.63,726.74,357.17z"/>
				</g>
				<g>
					<path style="fill:#FF5748;" d="M723.89,375.34c0.91,0.91,2.48,0.77,3.18-0.44c0.35-0.59,0.35-1.36,0.01-1.96
						c-0.46-0.79-1.28-1.13-2.06-1.01c-0.37,0.06-0.75-0.04-1.01-0.3l-2.8-2.8l-0.99,0.99l2.8,2.8c0.27,0.27,0.36,0.64,0.3,1.02
						C723.24,374.23,723.43,374.87,723.89,375.34z"/>
					<path style="fill:#FF5748;" d="M708.57,354.32c-0.91-0.91-2.48-0.77-3.18,0.44c-0.35,0.59-0.35,1.36-0.01,1.96
						c0.46,0.79,1.28,1.13,2.06,1.01c0.37-0.06,0.75,0.04,1.01,0.3l2.8,2.8l0.99-0.99l-2.8-2.8c-0.27-0.27-0.36-0.64-0.3-1.02
						C709.22,355.42,709.03,354.79,708.57,354.32z"/>
				</g>
			</g>
			<g style="opacity:0.31;">
				<path style="fill:#FF5748;" d="M635.28,156.28c0,4.36-3.54,7.9-7.9,7.9c-4.36,0-7.9-3.54-7.9-7.9s3.53-7.9,7.9-7.9
					C631.74,148.38,635.28,151.92,635.28,156.28z"/>
				<g>
					<path style="fill:#FF5748;" d="M629.43,143.04c0-1.29-1.21-2.3-2.56-1.94c-0.66,0.18-1.21,0.72-1.39,1.38
						c-0.24,0.88,0.11,1.7,0.74,2.17c0.3,0.22,0.5,0.55,0.5,0.93v3.96h1.39v-3.96c0-0.38,0.2-0.71,0.51-0.93
						C629.11,144.28,629.43,143.7,629.43,143.04z"/>
					<path style="fill:#FF5748;" d="M625.41,168.74c0,1.29,1.21,2.3,2.56,1.94c0.66-0.18,1.21-0.72,1.39-1.38
						c0.24-0.88-0.11-1.71-0.74-2.17c-0.3-0.22-0.5-0.55-0.5-0.93v-3.96h-1.39v3.96c0,0.38-0.2,0.71-0.51,0.93
						C625.73,167.5,625.41,168.08,625.41,168.74z"/>
				</g>
				<g>
					<path style="fill:#FF5748;" d="M614.57,153.88c-1.29,0-2.3,1.21-1.94,2.56c0.18,0.66,0.72,1.21,1.38,1.39
						c0.88,0.24,1.71-0.11,2.17-0.74c0.22-0.3,0.55-0.5,0.93-0.5h3.96v-1.39h-3.96c-0.38,0-0.71-0.2-0.93-0.51
						C615.81,154.2,615.23,153.88,614.57,153.88z"/>
					<path style="fill:#FF5748;" d="M640.27,157.91c1.29,0,2.3-1.21,1.94-2.56c-0.18-0.66-0.72-1.21-1.38-1.39
						c-0.88-0.24-1.71,0.11-2.17,0.74c-0.22,0.3-0.55,0.5-0.93,0.5h-3.96v1.39h3.96c0.38,0,0.71,0.2,0.93,0.51
						C639.03,157.59,639.61,157.91,640.27,157.91z"/>
				</g>
				<g>
					<path style="fill:#FF5748;" d="M616.91,163.56c-0.91,0.91-0.77,2.48,0.44,3.18c0.59,0.35,1.36,0.35,1.96,0.01
						c0.79-0.46,1.13-1.28,1.01-2.06c-0.06-0.37,0.04-0.75,0.3-1.01l2.8-2.8l-0.99-0.99l-2.8,2.8c-0.27,0.27-0.64,0.36-1.02,0.3
						C618.01,162.9,617.38,163.09,616.91,163.56z"/>
					<path style="fill:#FF5748;" d="M637.93,148.23c0.91-0.91,0.77-2.48-0.44-3.18c-0.59-0.35-1.36-0.35-1.96-0.01
						c-0.79,0.46-1.13,1.28-1.01,2.06c0.06,0.37-0.04,0.75-0.3,1.01l-2.8,2.8l0.99,0.99l2.8-2.8c0.27-0.27,0.64-0.36,1.02-0.3
						C636.83,148.88,637.46,148.7,637.93,148.23z"/>
				</g>
				<g>
					<path style="fill:#FF5748;" d="M635.08,166.4c0.91,0.91,2.48,0.77,3.18-0.44c0.35-0.59,0.35-1.36,0.01-1.96
						c-0.46-0.79-1.28-1.13-2.06-1.01c-0.37,0.06-0.75-0.04-1.01-0.3l-2.8-2.8l-0.99,0.99l2.8,2.8c0.27,0.27,0.36,0.64,0.3,1.02
						C634.43,165.3,634.62,165.94,635.08,166.4z"/>
					<path style="fill:#FF5748;" d="M619.76,145.38c-0.91-0.91-2.48-0.77-3.18,0.44c-0.35,0.59-0.35,1.36-0.01,1.96
						c0.46,0.79,1.28,1.13,2.06,1.01c0.37-0.06,0.75,0.04,1.01,0.3l2.8,2.8l0.99-0.99l-2.8-2.8c-0.27-0.27-0.36-0.64-0.3-1.02
						C620.41,146.49,620.22,145.85,619.76,145.38z"/>
				</g>
			</g>
			<g style="opacity:0.31;">
				<path style="fill:#FF5748;" d="M370.06,251.77c0,4.36-3.54,7.9-7.9,7.9c-4.36,0-7.9-3.54-7.9-7.9c0-4.36,3.54-7.9,7.9-7.9
					C366.53,243.87,370.06,247.41,370.06,251.77z"/>
				<g>
					<path style="fill:#FF5748;" d="M364.22,238.53c0-1.29-1.21-2.3-2.56-1.94c-0.66,0.18-1.21,0.72-1.39,1.38
						c-0.24,0.88,0.11,1.71,0.74,2.17c0.3,0.22,0.5,0.55,0.5,0.93v3.96h1.39v-3.96c0-0.38,0.2-0.71,0.51-0.93
						C363.9,239.77,364.22,239.19,364.22,238.53z"/>
					<path style="fill:#FF5748;" d="M360.19,264.23c0,1.29,1.21,2.3,2.56,1.94c0.66-0.18,1.21-0.72,1.39-1.38
						c0.24-0.88-0.11-1.7-0.74-2.17c-0.3-0.22-0.5-0.55-0.5-0.93v-3.96h-1.39v3.96c0,0.38-0.2,0.71-0.51,0.93
						C360.51,262.99,360.19,263.57,360.19,264.23z"/>
				</g>
				<g>
					<path style="fill:#FF5748;" d="M349.35,249.37c-1.29,0-2.3,1.21-1.94,2.56c0.18,0.66,0.72,1.21,1.38,1.39
						c0.88,0.24,1.71-0.11,2.17-0.74c0.22-0.3,0.55-0.5,0.93-0.5h3.96v-1.39h-3.96c-0.38,0-0.71-0.2-0.93-0.51
						C350.6,249.69,350.01,249.37,349.35,249.37z"/>
					<path style="fill:#FF5748;" d="M375.05,253.39c1.29,0,2.3-1.21,1.94-2.56c-0.18-0.66-0.72-1.21-1.38-1.39
						c-0.88-0.24-1.71,0.11-2.17,0.74c-0.22,0.3-0.55,0.5-0.93,0.5h-3.96v1.39h3.96c0.38,0,0.71,0.2,0.93,0.51
						C373.81,253.07,374.39,253.39,375.05,253.39z"/>
				</g>
				<g>
					<path style="fill:#FF5748;" d="M351.69,259.04c-0.91,0.91-0.77,2.48,0.44,3.18c0.59,0.35,1.36,0.35,1.96,0.01
						c0.79-0.46,1.13-1.28,1.01-2.06c-0.06-0.37,0.04-0.75,0.3-1.01l2.8-2.8l-0.99-0.99l-2.8,2.8c-0.27,0.27-0.64,0.36-1.02,0.3
						C352.8,258.39,352.16,258.58,351.69,259.04z"/>
					<path style="fill:#FF5748;" d="M372.71,243.72c0.91-0.91,0.77-2.48-0.44-3.18c-0.59-0.35-1.36-0.35-1.96-0.01
						c-0.79,0.46-1.13,1.28-1.01,2.06c0.06,0.37-0.04,0.75-0.3,1.01l-2.8,2.8l0.99,0.99l2.8-2.8c0.27-0.27,0.64-0.36,1.02-0.3
						C371.61,244.37,372.25,244.18,372.71,243.72z"/>
				</g>
				<g>
					<path style="fill:#FF5748;" d="M369.87,261.89c0.91,0.91,2.48,0.77,3.18-0.44c0.35-0.59,0.35-1.36,0.01-1.96
						c-0.46-0.79-1.28-1.13-2.06-1.01c-0.37,0.06-0.75-0.04-1.01-0.3l-2.8-2.8l-0.99,0.99l2.8,2.8c0.27,0.27,0.36,0.64,0.3,1.02
						C369.22,260.79,369.4,261.42,369.87,261.89z"/>
					<path style="fill:#FF5748;" d="M354.54,240.87c-0.91-0.91-2.48-0.77-3.18,0.44c-0.35,0.59-0.35,1.36-0.01,1.96
						c0.46,0.79,1.28,1.13,2.06,1.01c0.37-0.06,0.75,0.04,1.01,0.3l2.8,2.8l0.99-0.99l-2.8-2.8c-0.27-0.27-0.36-0.64-0.3-1.02
						C355.19,241.97,355.01,241.34,354.54,240.87z"/>
				</g>
			</g>
			<g>
				
					<ellipse transform="matrix(0.9405 -0.3398 0.3398 0.9405 -21.6867 133.937)" style="fill:#FF5748;" cx="371.65" cy="128.9" rx="15.74" ry="15.74"/>
				<g>
					<path style="fill:#FF5748;" d="M375.74,102.52c0-2.57-2.42-4.58-5.1-3.87c-1.32,0.35-2.41,1.43-2.77,2.75
						c-0.48,1.76,0.22,3.4,1.47,4.33c0.6,0.44,1,1.1,1,1.85v7.9h2.78v-7.9c0-0.75,0.41-1.41,1.01-1.86
						C375.1,104.99,375.74,103.83,375.74,102.52z"/>
					<path style="fill:#FF5748;" d="M367.72,153.74c0,2.57,2.42,4.58,5.1,3.87c1.32-0.35,2.41-1.43,2.77-2.75
						c0.48-1.76-0.22-3.4-1.47-4.33c-0.6-0.44-1-1.1-1-1.85v-7.9h-2.78v7.9c0,0.75-0.41,1.41-1.01,1.86
						C368.35,151.26,367.72,152.42,367.72,153.74z"/>
				</g>
				<g>
					<path style="fill:#FF5748;" d="M346.12,124.12c-2.57,0-4.58,2.42-3.87,5.11c0.35,1.32,1.43,2.41,2.75,2.77
						c1.76,0.48,3.4-0.22,4.33-1.47c0.44-0.6,1.1-1,1.85-1h7.9v-2.78h-7.9c-0.75,0-1.41-0.41-1.86-1.01
						C348.59,124.75,347.43,124.12,346.12,124.12z"/>
					<path style="fill:#FF5748;" d="M397.34,132.14c2.57,0,4.58-2.42,3.87-5.11c-0.35-1.32-1.43-2.41-2.75-2.77
						c-1.76-0.48-3.4,0.22-4.33,1.47c-0.44,0.6-1.1,1-1.85,1h-7.9v2.78h7.9c0.75,0,1.41,0.41,1.86,1.01
						C394.86,131.5,396.02,132.14,397.34,132.14z"/>
				</g>
				<g>
					<path style="fill:#FF5748;" d="M350.78,143.4c-1.82,1.82-1.53,4.95,0.88,6.34c1.18,0.69,2.71,0.69,3.9,0.01
						c1.58-0.91,2.25-2.56,2.02-4.1c-0.11-0.74,0.07-1.49,0.6-2.01l5.59-5.59l-1.96-1.96l-5.59,5.59c-0.53,0.53-1.28,0.71-2.03,0.6
						C352.98,142.1,351.71,142.47,350.78,143.4z"/>
					<path style="fill:#FF5748;" d="M392.67,112.86c1.82-1.82,1.53-4.95-0.88-6.34c-1.18-0.69-2.71-0.69-3.9-0.01
						c-1.58,0.91-2.25,2.56-2.02,4.1c0.11,0.74-0.07,1.49-0.6,2.01l-5.59,5.59l1.96,1.96l5.59-5.59c0.53-0.53,1.28-0.71,2.03-0.6
						C390.47,114.16,391.74,113.79,392.67,112.86z"/>
				</g>
				<g>
					<path style="fill:#FF5748;" d="M387,149.07c1.82,1.82,4.95,1.53,6.34-0.88c0.69-1.18,0.69-2.71,0.01-3.9
						c-0.91-1.58-2.56-2.25-4.1-2.02c-0.74,0.11-1.49-0.07-2.01-0.6l-5.59-5.59l-1.96,1.96l5.59,5.59c0.53,0.53,0.71,1.28,0.6,2.03
						C385.7,146.88,386.07,148.14,387,149.07z"/>
					<path style="fill:#FF5748;" d="M356.46,107.19c-1.82-1.82-4.95-1.53-6.34,0.88c-0.69,1.18-0.69,2.71-0.01,3.9
						c0.91,1.58,2.56,2.25,4.1,2.02c0.74-0.11,1.49,0.07,2.01,0.6l5.59,5.59l1.96-1.96l-5.59-5.59c-0.53-0.53-0.71-1.28-0.6-2.03
						C357.75,109.38,357.38,108.11,356.46,107.19z"/>
				</g>
			</g>
			<g>
				<circle style="fill:#FF5748;" cx="691.56" cy="44.21" r="15.74"/>
				<g>
					<path style="fill:#FF5748;" d="M695.64,17.83c0-2.57-2.42-4.58-5.1-3.87c-1.32,0.35-2.41,1.43-2.77,2.75
						c-0.48,1.76,0.22,3.4,1.47,4.33c0.6,0.44,1,1.1,1,1.85v7.9h2.78v-7.9c0-0.75,0.41-1.41,1.01-1.86
						C695.01,20.31,695.64,19.15,695.64,17.83z"/>
					<path style="fill:#FF5748;" d="M687.62,69.05c0,2.57,2.42,4.58,5.1,3.87c1.32-0.35,2.41-1.43,2.77-2.75
						c0.48-1.76-0.22-3.4-1.47-4.33c-0.6-0.44-1-1.1-1-1.85v-7.9h-2.78v7.9c0,0.75-0.41,1.41-1.01,1.86
						C688.26,66.58,687.62,67.74,687.62,69.05z"/>
				</g>
				<g>
					<path style="fill:#FF5748;" d="M666.02,39.43c-2.57,0-4.58,2.42-3.87,5.11c0.35,1.32,1.43,2.41,2.75,2.77
						c1.76,0.48,3.4-0.22,4.33-1.47c0.44-0.6,1.1-1,1.85-1h7.9v-2.78h-7.9c-0.75,0-1.41-0.41-1.86-1.01
						C668.5,40.07,667.34,39.43,666.02,39.43z"/>
					<path style="fill:#FF5748;" d="M717.24,47.45c2.57,0,4.58-2.42,3.87-5.11c-0.35-1.32-1.43-2.41-2.75-2.77
						c-1.76-0.48-3.4,0.22-4.33,1.47c-0.44,0.6-1.1,1-1.85,1h-7.9v2.78h7.9c0.75,0,1.41,0.41,1.86,1.01
						C714.77,46.82,715.93,47.45,717.24,47.45z"/>
				</g>
				<g>
					<path style="fill:#FF5748;" d="M670.69,58.72c-1.82,1.82-1.53,4.95,0.88,6.34c1.18,0.69,2.71,0.69,3.9,0.01
						c1.58-0.91,2.25-2.56,2.02-4.1c-0.11-0.74,0.07-1.49,0.6-2.01l5.59-5.59l-1.96-1.96l-5.59,5.59c-0.53,0.53-1.28,0.71-2.03,0.6
						C672.89,57.42,671.62,57.79,670.69,58.72z"/>
					<path style="fill:#FF5748;" d="M712.58,28.17c1.82-1.82,1.53-4.95-0.88-6.34c-1.18-0.69-2.71-0.69-3.9-0.01
						c-1.58,0.91-2.25,2.56-2.02,4.1c0.11,0.74-0.07,1.49-0.6,2.01l-5.59,5.59l1.96,1.96l5.59-5.59c0.53-0.53,1.28-0.71,2.03-0.6
						C710.38,29.47,711.65,29.1,712.58,28.17z"/>
				</g>
				<g>
					<path style="fill:#FF5748;" d="M706.9,64.39c1.82,1.82,4.95,1.53,6.34-0.88c0.69-1.18,0.69-2.71,0.01-3.9
						c-0.91-1.58-2.56-2.25-4.1-2.02c-0.74,0.11-1.49-0.07-2.01-0.6l-5.59-5.59l-1.96,1.96l5.59,5.59c0.53,0.53,0.71,1.28,0.6,2.03
						C705.61,62.19,705.98,63.46,706.9,64.39z"/>
					<path style="fill:#FF5748;" d="M676.36,22.5c-1.82-1.82-4.95-1.53-6.34,0.88c-0.69,1.18-0.69,2.71-0.01,3.9
						c0.91,1.58,2.56,2.25,4.1,2.02c0.74-0.11,1.49,0.07,2.01,0.6l5.59,5.59l1.96-1.96l-5.59-5.59c-0.53-0.53-0.71-1.28-0.6-2.03
						C677.66,24.7,677.29,23.43,676.36,22.5z"/>
				</g>
			</g>
			<g>
				
					<ellipse transform="matrix(0.7071 -0.7071 0.7071 0.7071 -285.5672 440.6062)" style="fill:#FF5748;" cx="389.08" cy="565.01" rx="15.7" ry="15.7"/>
				<g>
					<path style="fill:#FF5748;" d="M393.15,538.69c0-2.57-2.41-4.57-5.09-3.86c-1.32,0.35-2.4,1.42-2.76,2.74
						c-0.48,1.76,0.22,3.39,1.47,4.32c0.6,0.44,1,1.1,1,1.84v7.88h2.77v-7.88c0-0.75,0.41-1.41,1.01-1.85
						C392.52,541.16,393.15,540,393.15,538.69z"/>
					<path style="fill:#FF5748;" d="M385.15,589.79c0,2.57,2.41,4.57,5.09,3.86c1.32-0.35,2.4-1.42,2.76-2.74
						c0.48-1.76-0.22-3.39-1.47-4.32c-0.6-0.44-1-1.1-1-1.84v-7.88h-2.77v7.88c0,0.75-0.41,1.41-1.01,1.85
						C385.78,587.33,385.15,588.48,385.15,589.79z"/>
				</g>
				<g>
					<path style="fill:#FF5748;" d="M363.6,560.24c-2.57,0-4.57,2.41-3.86,5.09c0.35,1.32,1.42,2.4,2.74,2.76
						c1.76,0.48,3.39-0.22,4.32-1.47c0.44-0.6,1.1-1,1.84-1h7.88v-2.77h-7.88c-0.75,0-1.41-0.41-1.85-1.01
						C366.07,560.88,364.91,560.24,363.6,560.24z"/>
					<path style="fill:#FF5748;" d="M414.7,568.25c2.57,0,4.57-2.41,3.86-5.09c-0.35-1.32-1.42-2.4-2.74-2.76
						c-1.76-0.48-3.39,0.22-4.32,1.47c-0.44,0.6-1.1,1-1.84,1h-7.88v2.77h7.88c0.75,0,1.41,0.41,1.85,1.01
						C412.23,567.61,413.39,568.25,414.7,568.25z"/>
				</g>
				<g>
					<path style="fill:#FF5748;" d="M368.26,579.48c-1.81,1.81-1.52,4.94,0.87,6.33c1.18,0.69,2.71,0.69,3.89,0.01
						c1.58-0.91,2.24-2.55,2.01-4.09c-0.11-0.74,0.07-1.48,0.6-2.01l5.57-5.57l-1.96-1.96l-5.57,5.57c-0.53,0.53-1.28,0.71-2.02,0.6
						C370.45,578.18,369.18,578.55,368.26,579.48z"/>
					<path style="fill:#FF5748;" d="M410.05,549.01c1.81-1.81,1.52-4.94-0.87-6.33c-1.18-0.69-2.71-0.69-3.89-0.01
						c-1.58,0.91-2.24,2.55-2.01,4.09c0.11,0.74-0.07,1.48-0.6,2.01l-5.57,5.57l1.96,1.96l5.57-5.57c0.53-0.53,1.28-0.71,2.02-0.6
						C407.85,550.3,409.12,549.93,410.05,549.01z"/>
				</g>
				<g>
					<path style="fill:#FF5748;" d="M404.39,585.14c1.81,1.81,4.94,1.52,6.33-0.87c0.69-1.18,0.69-2.71,0.01-3.89
						c-0.91-1.58-2.55-2.24-4.09-2.01c-0.74,0.11-1.48-0.07-2.01-0.6l-5.57-5.57l-1.96,1.96l5.57,5.57c0.53,0.53,0.71,1.28,0.6,2.02
						C403.09,582.95,403.46,584.21,404.39,585.14z"/>
					<path style="fill:#FF5748;" d="M373.92,543.35c-1.81-1.81-4.94-1.52-6.33,0.87c-0.69,1.18-0.69,2.71-0.01,3.89
						c0.91,1.58,2.55,2.24,4.09,2.01c0.74-0.11,1.48,0.07,2.01,0.6l5.57,5.57l1.96-1.96l-5.57-5.57c-0.53-0.53-0.71-1.28-0.6-2.02
						C375.21,545.54,374.84,544.27,373.92,543.35z"/>
				</g>
			</g>
		</g>
		<g>
			<path style="fill-rule:evenodd;clip-rule:evenodd;fill:#FFFFFF;" d="M679.3,151.8L679.3,151.8c6.1,0,11.09,4.99,11.09,11.08
				v117.08c9.11,4.19,15.43,13.4,15.43,24.07c0,14.63-11.87,26.5-26.52,26.5c-14.65,0-26.52-11.86-26.52-26.5
				c0-10.68,6.32-19.88,15.43-24.07V162.88C668.2,156.79,673.2,151.8,679.3,151.8z"/>
			<path style="fill-rule:evenodd;clip-rule:evenodd;fill:#FF4F5D;" d="M674.96,195.58v84.39c0,2.69-1.48,5-3.92,6.13
				c-7.01,3.23-11.5,10.22-11.5,17.95c0,10.91,8.85,19.75,19.77,19.75c10.92,0,19.77-8.84,19.77-19.75c0-7.73-4.5-14.72-11.5-17.95
				c-2.45-1.13-3.93-3.43-3.93-6.13v-84.39H674.96z"/>
			<g>
				<path style="fill-rule:evenodd;clip-rule:evenodd;fill:#D3CFE8;" d="M685.78,164.63h0.78c0.61,0,1.12-0.5,1.12-1.11v0
					c0-0.61-0.5-1.11-1.12-1.11h-0.78c-0.61,0-1.11,0.5-1.11,1.11v0C684.67,164.13,685.17,164.63,685.78,164.63z"/>
				<path style="fill-rule:evenodd;clip-rule:evenodd;fill:#D3CFE8;" d="M685.78,171.37h0.78c0.61,0,1.12-0.5,1.12-1.11v0
					c0-0.61-0.5-1.11-1.12-1.11h-0.78c-0.61,0-1.11,0.5-1.11,1.11v0C684.67,170.87,685.17,171.37,685.78,171.37z"/>
				<path style="fill-rule:evenodd;clip-rule:evenodd;fill:#D3CFE8;" d="M685.78,178.12h0.78c0.61,0,1.12-0.5,1.12-1.11v0
					c0-0.61-0.5-1.11-1.12-1.11h-0.78c-0.61,0-1.11,0.5-1.11,1.11v0C684.67,177.62,685.17,178.12,685.78,178.12z"/>
				<path style="fill-rule:evenodd;clip-rule:evenodd;fill:#D3CFE8;" d="M685.78,184.86h0.78c0.61,0,1.12-0.5,1.12-1.11l0,0
					c0-0.61-0.5-1.11-1.12-1.11h-0.78c-0.61,0-1.11,0.5-1.11,1.11l0,0C684.67,184.36,685.17,184.86,685.78,184.86z"/>
				<path style="fill-rule:evenodd;clip-rule:evenodd;fill:#D3CFE8;" d="M685.78,191.61h0.78c0.61,0,1.12-0.5,1.12-1.11v0
					c0-0.61-0.5-1.11-1.12-1.11h-0.78c-0.61,0-1.11,0.5-1.11,1.11v0C684.67,191.11,685.17,191.61,685.78,191.61z"/>
				<path style="fill-rule:evenodd;clip-rule:evenodd;fill:#D3CFE8;" d="M685.78,198.35h0.78c0.61,0,1.12-0.5,1.12-1.11v0
					c0-0.61-0.5-1.11-1.12-1.11h-0.78c-0.61,0-1.11,0.5-1.11,1.11v0C684.67,197.85,685.17,198.35,685.78,198.35z"/>
				<path style="fill-rule:evenodd;clip-rule:evenodd;fill:#D3CFE8;" d="M685.78,205.09h0.78c0.61,0,1.12-0.5,1.12-1.11v0
					c0-0.61-0.5-1.11-1.12-1.11h-0.78c-0.61,0-1.11,0.5-1.11,1.11v0C684.67,204.59,685.17,205.09,685.78,205.09z"/>
				<path style="fill-rule:evenodd;clip-rule:evenodd;fill:#D3CFE8;" d="M685.78,211.84h0.78c0.61,0,1.12-0.5,1.12-1.11v0
					c0-0.61-0.5-1.11-1.12-1.11h-0.78c-0.61,0-1.11,0.5-1.11,1.11v0C684.67,211.34,685.17,211.84,685.78,211.84z"/>
				<path style="fill-rule:evenodd;clip-rule:evenodd;fill:#D3CFE8;" d="M685.78,218.58h0.78c0.61,0,1.12-0.5,1.12-1.11v0
					c0-0.61-0.5-1.11-1.12-1.11h-0.78c-0.61,0-1.11,0.5-1.11,1.11v0C684.67,218.08,685.17,218.58,685.78,218.58z"/>
				<path style="fill-rule:evenodd;clip-rule:evenodd;fill:#D3CFE8;" d="M685.78,225.33h0.78c0.61,0,1.12-0.5,1.12-1.11v0
					c0-0.61-0.5-1.11-1.12-1.11h-0.78c-0.61,0-1.11,0.5-1.11,1.11v0C684.67,224.83,685.17,225.33,685.78,225.33z"/>
				<path style="fill-rule:evenodd;clip-rule:evenodd;fill:#D3CFE8;" d="M685.78,232.07h0.78c0.61,0,1.12-0.5,1.12-1.11v0
					c0-0.61-0.5-1.11-1.12-1.11h-0.78c-0.61,0-1.11,0.5-1.11,1.11v0C684.67,231.57,685.17,232.07,685.78,232.07z"/>
				<path style="fill-rule:evenodd;clip-rule:evenodd;fill:#D3CFE8;" d="M685.78,238.82h0.78c0.61,0,1.12-0.5,1.12-1.11v0
					c0-0.61-0.5-1.11-1.12-1.11h-0.78c-0.61,0-1.11,0.5-1.11,1.11v0C684.67,238.32,685.17,238.82,685.78,238.82z"/>
				<path style="fill-rule:evenodd;clip-rule:evenodd;fill:#D3CFE8;" d="M685.78,245.56h0.78c0.61,0,1.12-0.5,1.12-1.11v0
					c0-0.61-0.5-1.11-1.12-1.11h-0.78c-0.61,0-1.11,0.5-1.11,1.11v0C684.67,245.06,685.17,245.56,685.78,245.56z"/>
				<path style="fill-rule:evenodd;clip-rule:evenodd;fill:#D3CFE8;" d="M685.78,252.31h0.78c0.61,0,1.12-0.5,1.12-1.11v0
					c0-0.61-0.5-1.11-1.12-1.11h-0.78c-0.61,0-1.11,0.5-1.11,1.11v0C684.67,251.81,685.17,252.31,685.78,252.31z"/>
				<path style="fill-rule:evenodd;clip-rule:evenodd;fill:#D3CFE8;" d="M685.78,259.05h0.78c0.61,0,1.12-0.5,1.12-1.11v0
					c0-0.61-0.5-1.11-1.12-1.11h-0.78c-0.61,0-1.11,0.5-1.11,1.11v0C684.67,258.55,685.17,259.05,685.78,259.05z"/>
				<path style="fill-rule:evenodd;clip-rule:evenodd;fill:#D3CFE8;" d="M685.78,265.8h0.78c0.61,0,1.12-0.5,1.12-1.11v0
					c0-0.61-0.5-1.11-1.12-1.11h-0.78c-0.61,0-1.11,0.5-1.11,1.11v0C684.67,265.29,685.17,265.8,685.78,265.8z"/>
				<path style="fill-rule:evenodd;clip-rule:evenodd;fill:#D3CFE8;" d="M685.78,272.54h0.78c0.61,0,1.12-0.5,1.12-1.11v0
					c0-0.61-0.5-1.11-1.12-1.11h-0.78c-0.61,0-1.11,0.5-1.11,1.11v0C684.67,272.04,685.17,272.54,685.78,272.54z"/>
			</g>
		</g>
		<g style="display:none;">
			<path style="display:inline;fill:#FF4F5D;" d="M769.46,471.59h-17.69L741.11,447l-10.66,24.59h-21.12
				c-16.87,0-30.54,12.48-30.54,27.87v27.73c0,15.39,13.67,27.87,30.54,27.87h60.14c16.87,0,30.54-12.48,30.54-27.87v-27.73
				C800,484.07,786.33,471.59,769.46,471.59z"/>
			<g style="display:inline;">
				<g>
					<g>
						<path style="fill:#FFFFFF;" d="M730.97,525.54l-4.11,9.49h-2.17l-4.09-9.49h2.37l2.89,6.78l2.93-6.78H730.97z"/>
						<path style="fill:#FFFFFF;" d="M737.69,533h-4.4l-0.84,2.03h-2.25l4.23-9.49h2.17l4.24,9.49h-2.3L737.69,533z M737,531.33
							l-1.5-3.63l-1.5,3.63H737z"/>
						<path style="fill:#FFFFFF;" d="M741.09,530.29c0-2.86,2.2-4.91,5.15-4.91c1.64,0,3.01,0.6,3.9,1.68l-1.41,1.3
							c-0.64-0.73-1.44-1.11-2.38-1.11c-1.78,0-3.04,1.25-3.04,3.04c0,1.79,1.26,3.04,3.04,3.04c0.95,0,1.75-0.38,2.38-1.13
							l1.41,1.3c-0.89,1.1-2.26,1.69-3.92,1.69C743.28,535.19,741.09,533.15,741.09,530.29z"/>
						<path style="fill:#FFFFFF;" d="M751.45,530.86v-5.31h2.2v5.23c0,1.8,0.79,2.55,2.11,2.55c1.34,0,2.11-0.75,2.11-2.55v-5.23
							h2.17v5.31c0,2.79-1.6,4.34-4.29,4.34S751.45,533.65,751.45,530.86z"/>
						<path style="fill:#FFFFFF;" d="M770.9,525.54v9.49h-1.8l-4.73-5.76v5.76h-2.17v-9.49h1.82l4.71,5.76v-5.76H770.9z"/>
						<path style="fill:#FFFFFF;" d="M779.39,533h-4.4l-0.84,2.03h-2.25l4.23-9.49h2.17l4.24,9.49h-2.3L779.39,533z M778.7,531.33
							l-1.5-3.63l-1.5,3.63H778.7z"/>
					</g>
					<g>
						<path style="fill:#FFFFFF;" d="M719.01,517.06l1.89-4.2c2.03,1.48,5.06,2.51,7.95,2.51c3.3,0,4.65-1.1,4.65-2.58
							c0-4.51-14.01-1.41-14.01-10.36c0-4.1,3.3-7.5,10.16-7.5c3.03,0,6.13,0.72,8.37,2.13l-1.72,4.23
							c-2.24-1.27-4.54-1.89-6.68-1.89c-3.3,0-4.58,1.24-4.58,2.75c0,4.44,14.01,1.38,14.01,10.22c0,4.03-3.34,7.47-10.22,7.47
							C725,519.85,721.15,518.71,719.01,517.06z"/>
						<path style="fill:#FFFFFF;" d="M742.87,495.34h5.58v24.1h-5.58V495.34z"/>
						<path style="fill:#FFFFFF;" d="M776.26,495.34v24.1h-4.58l-12.01-14.63v14.63h-5.51v-24.1h4.61l11.98,14.63v-14.63H776.26z"/>
					</g>
				</g>
			</g>
			<g style="display:inline;">
				<g>
					
						<rect x="695.07" y="502.39" transform="matrix(0.9999 0.0125 -0.0125 0.9999 6.5241 -8.725)" style="fill:#FFFFFF;" width="11.08" height="29.38"/>
					
						<rect x="695.06" y="535.74" transform="matrix(0.9999 0.0125 -0.0125 0.9999 6.7802 -8.7232)" style="fill:#FFFFFF;" width="11.08" height="3.61"/>
					
						<rect x="697.77" y="527.07" transform="matrix(0.9999 0.0125 -0.0125 0.9999 6.711 -8.7232)" style="fill:#FFFFFF;" width="5.54" height="9.87"/>
					<polygon style="fill:#FFFFFF;" points="698.86,503.21 701.02,484.45 702.71,503.26 					"/>
				</g>
				<rect x="697.22" y="510.83" style="fill:#FF4F5D;" width="6.22" height="18.01"/>
			</g>
		</g>
	</g>
</g>
<g>
</g>
<g>
</g>
<g>
</g>
<g>
</g>
<g>
</g>
</svg>
