<?xml version="1.0" encoding="utf-8"?>
<!-- Generator: Adobe Illustrator 24.0.2, SVG Export Plug-In . SVG Version: 6.00 Build 0)  -->
<svg version="1.1" id="Capa_1" xmlns="http://www.w3.org/2000/svg" xmlns:xlink="http://www.w3.org/1999/xlink" x="0px" y="0px"
	 viewBox="0 0 400 400" style="enable-background:new 0 0 400 400;" xml:space="preserve">
<path style="fill:#FFF5DB;" d="M188.36,99.78c0,0,81.19-78.37,125.93-14.25s77.88,133.59,77.88,133.59s13.26,172.77-71.25,140.71
	s-212.1-7.12-212.1-7.12S-40.3,276.12,37.58,233.37c47.14-25.87,59.07-53.7,61.14-71.64c1.49-12.89,8.94-24.09,20.01-29.28
	L188.36,99.78z"/>
<g>
	<path style="fill:#1C2026;" d="M214.94,14.87c36.09-0.92,61.14,33.87,68.2,65.94c2.46,11.19,3.35,23.25,3.34,34.68
		c0,28.4-11.72,51.18-30.26,71.09c-14.44,15.5-33.81,13.66-52.99,17.35c-7.91,1.52-21.38,5.39-28.08-0.78
		c-6.33-5.82-4.52-15.34-4.51-23.3c0.02-17.09-5.47-33.98-9.78-50.45c-4.41-16.81-8.21-36.07-3.51-53.53
		c5.9-21.91,15.02-45.46,36.74-55.95C200.82,16.68,207.9,15.05,214.94,14.87z"/>
	<g>
		<g>
			<path style="fill:#1C2026;" d="M172.41,42.82c-5.28,11.42-8.68,24.6-8.68,37.07c0,23.82,9.97,55.18,34.51,67.19
				c12.1,5.92,18.5,6.62,30.89,2.32c10.46-3.63,22.99-9.54,32.44-16.47c28.06-20.6,31.8-56.21,23.68-78
				c-5.61-15.06-22.14-35.53-40.42-37.76C212.48,13.22,187.77,9.63,172.41,42.82z"/>
		</g>
		<g>
			<path style="fill:#F6B5A0;" d="M276.65,92.97c0.14,8.98-4.85,19.17-12.94,22.9c-10.96,5.07-15.19-4.99-15.19-14.83
				c-0.01-7.93,3.47-21.59,12.46-24.42C269.45,73.96,276.54,85.6,276.65,92.97z"/>
		</g>
		<g>
			<rect x="205.15" y="113.97" style="fill:#F6B5A0;" width="53.8" height="66.9"/>
		</g>
		<g>
			<path style="fill:#F1927C;" d="M242.53,151c5.4-11.33,8.61-22.79,7.7-37.04l-45.1,0.03l0.05,58.15
				C219.34,169.96,236.78,163.07,242.53,151z"/>
		</g>
		<g>
			<path style="fill:#F6B5A0;" d="M185.84,243.6l-9.74,24.01l-7.48,18.44c0,0.01-0.01,0.02-0.01,0.04l-5.43,13.37l-0.01,0.01
				l-5.45,13.45l-7.43,18.31l-6.55,16.16v0.01l-0.13,0.32c-6.28,7.97-12.78,10.35-18.75,9.85c-0.69-0.05-1.36-0.13-2.02-0.27
				c-0.01,0-0.01-0.01-0.01-0.01c-0.16-0.01-0.32-0.05-0.48-0.09c0.05-0.05,0.11-0.09,0.16-0.12l0.01-0.01
				c-7.63-5.34-14.79-11.3-21.42-17.81c-0.09-11.74,0.55-22.01,1.72-31.14c1.77-13.91,4.77-25.2,8.29-35.13l0.01-0.01
				c5.3-14.98,11.79-26.86,17.08-39.91c0,0,9.89-28.84,26.11-39.3c0.65-0.43,1.32-0.82,1.99-1.17c0.67-0.37,1.37-0.7,2.07-0.98
				c1.05-0.44,2.13-0.81,3.22-1.05l0.05-0.01l0.05-0.01l0.07-0.02c1.15-0.27,2.32-0.43,3.52-0.46c1.65-0.07,3.34,0.07,5.07,0.49
				c0.03,0,0.04,0.01,0.06,0.01c0.05,0.01,0.1,0.02,0.15,0.04c0,0,5.88,2.04,10.64,10.14v0.01c0.98,1.64,1.89,3.53,2.71,5.72v0.01
				C186.93,214.47,188.53,226.29,185.84,243.6z"/>
		</g>
		<g>
			<path style="fill:#F6B5A0;" d="M332.24,210.25l-13.59,47.83l-0.21,0.74l-1.59,5.57v0.01l-0.74,2.63l-1.57,5.5l-28.06,98.77
				l-0.93,3.26l-0.03,0.06c-20.19,8.46-42.34,13.12-65.6,13.12c-21.28,0-41.62-3.91-60.39-11.05l-1.65-57.55c0.01,0,0.01,0,0-0.01
				l-0.17-6.22l-0.16-5.5l-0.5-17.43l-0.37-12.84l-1.41-49.09l-0.28-9.81v-0.01l-0.18-6.35v-0.01l-0.51-18.11l-0.01-0.4l2-0.77
				l2.1-0.81l3.19-1.22l0.05-0.01l0.05-0.01l0.07-0.02l1.54-0.61c0.01-0.01,0.02-0.01,0.02-0.01l2.49-0.95v-0.01l4.59-1.76
				l0.04-0.01l15.75-6.06h0.01l9.47-3.64l0.28-0.11l2.37-0.91l6.72-2.59h0.11l30.04-0.07l23.72-0.05l0.04,0.02l4.71,2.33l1.05,0.53
				l16.52,8.24l19.2,9.57l23.5,11.71L332.24,210.25z"/>
		</g>
		<g>
			<path style="fill:#F6B5A0;" d="M254.15,117.4c-5.14,12.94-12.16,23.58-24.35,31.08c-11.92,7.34-24.25,11.09-35.77,1.6
				c-9.16-7.56-15.1-18.58-18.44-29.7c-7.69-25.58-1.86-61,14.4-81.63c17.85-22.66,52.36-17.63,65.72,7.61
				C266.59,66.92,262.46,96.5,254.15,117.4z"/>
		</g>
		<g>
			<g>
				<path style="fill:#F1927C;" d="M263.45,107.95c-0.68,0-1.3-0.45-1.49-1.13c-2.76-9.85-0.64-19.17,5.03-22.17
					c0.75-0.4,1.69-0.11,2.09,0.65c0.4,0.76,0.11,1.69-0.65,2.09c-4.25,2.25-5.78,10.42-3.49,18.6c0.23,0.83-0.25,1.68-1.07,1.91
					C263.73,107.92,263.59,107.95,263.45,107.95z"/>
			</g>
			<g>
				<path style="fill:#F1927C;" d="M271.64,95.4c-0.2,0-0.41-0.04-0.61-0.13c-2.36-1-5.45-1.57-7.05-0.57
					c-0.72,0.45-1.68,0.24-2.13-0.49c-0.46-0.72-0.23-1.68,0.49-2.13c3.42-2.14,8.45-0.28,9.91,0.35c0.79,0.33,1.15,1.24,0.81,2.03
					C272.82,95.05,272.25,95.4,271.64,95.4z"/>
			</g>
		</g>
		<g>
			<path style="fill:#EF883B;" d="M336.25,231.35c-1.2,3.8-3.62,7.82-5.8,11.89c-0.23,6.77-2.04,14.13-4.22,21.48
				c-0.79,2.74-1.66,5.48-2.51,8.18c-0.35,1.6-0.74,3.19-1.17,4.81v0.01c-0.44,1.64-0.9,3.31-1.39,5.07
				c-0.18,0.62-0.35,1.26-0.54,1.91c-0.63,2.19-1.31,4.51-2.03,7.08c-3.68,13.03-4.85,30.01-11,42.27l-10.37,35.13
				c-2.77,1.42-5.59,2.76-8.45,4.03c-1.05,0.47-2.11,0.93-3.18,1.38c-0.02,0-0.04,0.01-0.06,0.03
				c-20.19,8.46-42.34,13.12-65.6,13.12c-21.28,0-41.62-3.91-60.39-11.05c-1.89-0.72-3.76-1.48-5.63-2.26l-3.23-38.59l-0.39-4.62
				l-1-12.07v-0.01l-0.68-8.2v-0.01l-0.27-3.14l-0.34-4.08c-0.23-0.64-0.47-1.27-0.7-1.88c-4.66-12.44-9.68-20.84-11.48-34.34
				c-0.26-1.91-0.13-4.19,0.26-6.75v-0.01c0.09-0.56,0.2-1.14,0.32-1.73c0.01-0.07,0.04-0.13,0.06-0.21
				c1.26-6.48,4.05-14.35,7.14-21.85c0.01-0.03,0.03-0.05,0.03-0.06c1.6-3.91,3.28-7.72,4.83-11.18c0.87-1.92,1.7-3.73,2.46-5.39
				c0.8-1.74,1.52-3.3,2.13-4.66l1.8-3.76v-0.01l5.13-10.71l5.33-11.12l0.27-0.58l0.27-0.54v-0.01l0.68-1.43l3.89-1.36l0.06-0.01
				l15.92-5.54l9.21-3.2c0,0,0.04,0.02,0.1,0.06c0.06,0.04,0.13,0.09,0.24,0.15c2.4,1.42,17.21,9.51,38.74,7.29
				c5.55-0.56,11.45-1.81,17.81-4.04h0.09c2.1-0.73,4.24-1.56,6.42-2.53c1.21-0.54,2.42-1.1,3.65-1.71
				c0.34-0.17,0.69-0.34,1.04-0.53c0.15-0.07,0.31-0.15,0.46-0.23c0.28,0.12,0.58,0.24,0.88,0.38c4.63,1.99,11.17,4.68,18.14,7.54
				c7.33,2.99,15.15,6.17,21.73,8.9h0.01c0.01,0,0.03,0.01,0.04,0.01c3.73,1.55,7.05,2.96,9.67,4.09c7.29,3.18,11.9,4.01,18.92,7.72
				c1.63,0.86,2.81,2.16,3.63,3.76h0.01C340.33,214.4,338.26,224.94,336.25,231.35z"/>
		</g>
		<g>
			<g>
				<path style="fill:#21263D;" d="M192.53,87.27c-0.16,2.85-1.68,5.08-3.39,4.98c-1.71-0.1-2.96-2.48-2.8-5.33
					c0.16-2.85,1.68-5.07,3.38-4.98C191.45,82.04,192.7,84.42,192.53,87.27z"/>
			</g>
			<g>
				<path style="fill:#21263D;" d="M229.54,89.38c-0.16,2.85-1.68,5.07-3.39,4.97c-1.71-0.1-2.96-2.48-2.8-5.33
					c0.16-2.84,1.68-5.07,3.38-4.98C228.45,84.15,229.71,86.54,229.54,89.38z"/>
			</g>
			<g>
				<path style="fill:#F1927C;" d="M203.68,111.75c-0.07,0-0.14,0-0.21-0.01c-4.33-0.58-7.76-2.41-9.42-5
					c-0.89-1.39-1.16-2.89-0.75-4.21c0.21-0.67,1-1.82,4.04-6.03c2.01-2.79,5.27-7.3,6.02-8.85l-5.25-9.71
					c-0.41-0.75-0.13-1.69,0.63-2.1c0.74-0.4,1.69-0.13,2.1,0.63l5.54,10.24c0.06,0.1,0.1,0.21,0.13,0.31
					c0.34,1.2-0.23,2.39-6.65,11.28c-1.5,2.08-3.37,4.68-3.62,5.22c-0.1,0.35,0.04,0.94,0.43,1.54c0.43,0.67,2.22,2.92,7.22,3.59
					c0.85,0.11,1.44,0.89,1.33,1.74C205.1,111.19,204.44,111.75,203.68,111.75z"/>
			</g>
			<g>
				<path style="fill:#1C2026;" d="M227.1,78.02c3.16,0.08,7.04,1.32,9.73,2.3c-0.01-6.58-13.64-6.85-17.03-6.58
					c-1.63,0.13-3.14,0.79-2.19,4.51C218.1,80.14,221.12,77.87,227.1,78.02z"/>
			</g>
			<g>
				<path style="fill:#1C2026;" d="M190.07,75.9c-3.15-0.28-7.15,0.51-9.93,1.17c0.76-6.53,14.32-5.25,17.67-4.6
					c1.61,0.32,3.03,1.14,1.67,4.74C198.77,79.04,196.03,76.44,190.07,75.9z"/>
			</g>
			<g>
				<path style="fill:#F1927C;" d="M234.83,101.86c-0.12,2.02-3.92,3.45-8.5,3.19c-4.58-0.26-8.19-2.11-8.08-4.14
					c0.11-2.02,3.92-3.45,8.5-3.19C231.33,97.98,234.95,99.83,234.83,101.86z"/>
			</g>
			<g>
				<path style="fill:#F1927C;" d="M193.97,99.53c-0.12,2.02-3.92,3.45-8.5,3.19c-4.58-0.26-8.19-2.11-8.08-4.13
					c0.12-2.03,3.92-3.45,8.5-3.19C190.46,95.65,194.09,97.5,193.97,99.53z"/>
			</g>
		</g>
		<g>
			<path style="fill:#1C2026;" d="M240.59,51.32c0,0,0.9,10.81,2.32,19.31c1.11,0.83,11.04,17.18,12.22,17.89
				c0.35,0.21,3.26-0.74,3.26-0.74c0.46-4.59,3.53-8.54,8.96-8.76c3.91-0.15,7.19,4.81,8.24,9c0.25-4.14,0.69-9.41,0.73-13.83
				c0.04-4.19-0.21-8.69-0.74-12.99c-1.23-10.01-2.04-15.5-6.84-24.89c-5.16-10.1-13.21-17.92-24.6-20.75
				c-13.74-3.42-36.19-6.17-47.83,2.3c-5.97,4.34-14.81,14.54-12.11,27.28C184.21,45.14,205.45,33.3,240.59,51.32z"/>
		</g>
		<g>
			<path style="fill:#F6B5A0;" d="M388.85,235.89c-2.19,20.91-8.19,40.68-17.27,58.62c-16.39-10.26-33.24-21.01-45.35-29.78
				c-2.7-1.94-5.16-3.8-7.33-5.52c-0.16-0.13-0.31-0.26-0.45-0.38c-1.25-1-2.39-1.97-3.42-2.87c-2.62-2.31-4.5-4.31-5.46-5.91
				c-14.46-26.26,5.1-40.85,14.38-43.92c1.98-0.65,3.48-0.78,4.11-0.39c2.48,0.47,5.55,1.31,9.09,2.53h0.01
				C349.96,212.65,368.97,221.94,388.85,235.89z"/>
		</g>
		<g>
			<path style="fill:#EF883B;" d="M388.94,235.07c-0.03,0.28-0.05,0.55-0.09,0.82c-2.19,20.91-8.19,40.68-17.27,58.62
				c-1.32,2.6-2.7,5.17-4.16,7.7c-0.29,0.5-0.57,1.01-0.88,1.52c-2.68-1.44-5.32-2.9-7.92-4.35c-14.04-7.86-26.86-15.76-36.07-21.64
				v-0.01c-0.83-0.53-1.64-1.04-2.41-1.54c-0.39-0.24-0.77-0.49-1.14-0.73v-0.01c-1.65-1.05-3.14-2.03-4.46-2.9
				c-4.14-2.71-6.51-4.34-6.51-4.34c-1.3-1.36-2.52-2.71-3.65-4.07c-25.8-30.87-9.69-60.96-3.93-69.72c1.07-1.65,1.8-2.54,1.8-2.54
				c0.88,0.26,1.76,0.51,2.64,0.8h0.01c0.01,0,0.03,0.01,0.04,0.01C331.97,201.02,363.41,218.74,388.94,235.07z"/>
		</g>
		<g>
			<path style="fill:#EF883B;" d="M329.52,347.69c-0.53,0.44-1.05,0.88-1.57,1.31c-9.45,7.78-19.74,14.57-30.72,20.19
				c-2.77,1.42-5.59,2.76-8.45,4.03c-1.05,0.47-2.11,0.93-3.18,1.38c-0.02,0-0.04,0.01-0.06,0.03
				c-20.19,8.46-42.34,13.12-65.6,13.12c-21.28,0-41.62-3.91-60.39-11.05c-1.89-0.72-3.76-1.48-5.63-2.26
				c-4.66-1.97-9.22-4.14-13.65-6.5c1.44-9.31,3.09-15.59,3.09-15.59l0.21-2.65c0,0-0.01,0,0-0.01l0.18-2.28v-0.01l1.78-22.91
				l0.63-7.85c0-0.01,0-0.01,0-0.01l0.66-8.46l0.49-6.33l0.09-1c0-0.01,0-0.01,0-0.01l1.43-18.33c2.57-1.91,5.19-3.68,7.88-5.33
				c2.09-1.28,4.22-2.49,6.38-3.62c3.09-1.65,6.23-3.13,9.43-4.48c1.19-0.5,2.38-0.99,3.59-1.44c4.11-1.6,8.28-2.99,12.51-4.18
				c43.65-12.34,92.17-4.57,115.76,0.7c5.27,1.18,9.29,2.24,11.73,2.91c0.54,0.15,0.99,0.27,1.36,0.38c0.9,0.26,1.37,0.4,1.37,0.4
				c0.45,2.8,0.89,5.59,1.31,8.36c0.34,2.22,0.69,4.44,1.02,6.62C324.92,308.13,327.76,331.84,329.52,347.69z"/>
		</g>
		<g>
			<path style="fill:none;" d="M224.77,187.28c-10.26,0-19.51-2.72-28.14-8.26c-0.72-0.46-0.92-1.42-0.46-2.14
				c0.46-0.72,1.42-0.93,2.14-0.47c9.82,6.31,20.06,8.69,32.22,7.49l1.94-0.18c8.52-0.81,22.78-2.17,28.05-7.13
				c0.62-0.59,1.6-0.55,2.18,0.07c0.59,0.62,0.55,1.6-0.07,2.19c-6.04,5.68-20.38,7.04-29.87,7.95l-1.93,0.19
				C228.77,187.18,226.75,187.28,224.77,187.28z"/>
		</g>
		<g>
			<path style="fill:none;" d="M330.86,346.54c-0.45,0.38-0.89,0.76-1.34,1.15c-0.53,0.44-1.05,0.88-1.57,1.31
				c-1.71-22.63-3.94-43.67-7.32-64.29c-0.51-3.09-1.05-6.18-1.61-9.26v-0.01c-0.49-2.68-1-5.35-1.54-8.02c-0.21-1-0.4-2-0.61-3.01
				c-0.59-2.82-1.2-5.63-1.83-8.46c-0.47-2.02-0.93-4.03-1.42-6.05c-0.2-0.83,0.32-1.67,1.14-1.87c0.83-0.18,1.66,0.32,1.87,1.15
				c0.72,2.97,1.39,5.94,2.04,8.9c0.1,0.38,0.17,0.76,0.25,1.12c1.36,6.17,2.57,12.33,3.65,18.51v0.01
				C326.5,299.85,328.98,322.31,330.86,346.54z"/>
		</g>
		<g>
			<path style="fill:#EF883B;" d="M203.78,241.95l-15.16,21.48l-22.61,32.03l-2.82,4l-0.01,0.01l-5.61,7.96l-8.27,11.72v0.01
				l-3.76,5.32l-8.33,11.8l-14.66,20.79c-7.63-5.34-14.79-11.3-21.42-17.81c-3.69-3.61-7.21-7.38-10.56-11.32
				c-2.67-3.12-5.21-6.33-7.64-9.64l-3.37-4.77c24.49-85.16,52.16-104.72,52.16-104.72c7.77-10.17,18.07-15.19,26.59-17.68
				c1.77-0.51,3.46-0.92,5.02-1.23c0.01-0.01,0.02-0.01,0.02-0.01c0.77-0.16,1.52-0.29,2.22-0.42c1.87-0.31,3.51-0.49,4.84-0.6h0.04
				c2.33-0.2,3.73-0.16,3.73-0.16c3.31,0.56,6.27,1.42,8.91,2.51c7.39,3.07,12.33,8.02,15.58,13.66
				C207.81,220.71,203.78,241.95,203.78,241.95z"/>
		</g>
		<g>
			<path style="fill:none;" d="M147.27,308.23c-0.75,0-1.41-0.55-1.53-1.31c-0.71-4.63-3.06-9.92-5.54-15.51
				c-4.04-9.09-8.23-18.49-5.73-26.38c4.13-13.07,10.34-31.9,14.43-43.8c0.28-0.81,1.14-1.23,1.96-0.96
				c0.81,0.28,1.23,1.16,0.96,1.96c-4.08,11.87-10.28,30.67-14.41,43.72c-2.14,6.78,1.79,15.63,5.6,24.2
				c2.58,5.79,5.01,11.26,5.78,16.3c0.13,0.85-0.45,1.63-1.29,1.76C147.42,308.23,147.34,308.23,147.27,308.23z"/>
		</g>
		<g>
			<path style="fill:none;" d="M361.02,298.2c2.16,1.46,4.3,2.8,6.4,4.01c-0.29,0.5-0.57,1.01-0.88,1.52
				c-0.22,0.38-0.45,0.77-0.67,1.15c-2.16-1.24-4.35-2.6-6.57-4.11c-0.48-0.32-0.72-0.86-0.67-1.39c0.01-0.26,0.1-0.53,0.26-0.76
				C359.36,297.9,360.32,297.72,361.02,298.2z"/>
		</g>
		<g>
			<path style="fill:none;" d="M286.49,371.3c0.77,0.67,1.53,1.32,2.28,1.92c-1.05,0.47-2.11,0.93-3.18,1.38
				c-0.01-0.01-0.02-0.01-0.04-0.04c-4.43-3.69-8.89-8.38-13.02-12.73c-2.75-2.87-5.34-5.6-7.66-7.76
				c-7.76-7.26-13.62-14.77-19.83-22.74c-2.37-3.04-4.78-6.12-7.33-9.25c-0.54-0.66-0.44-1.63,0.22-2.16
				c0.66-0.55,1.63-0.45,2.17,0.21c2.57,3.14,4.99,6.24,7.37,9.3c6.13,7.87,11.93,15.3,19.51,22.39c2.4,2.22,5.01,4.98,7.79,7.89
				C278.52,363.64,282.54,367.87,286.49,371.3z"/>
		</g>
		<g>
			<path style="fill:none;" d="M255.61,372.56c-0.74,0-1.39-0.54-1.52-1.29c-0.69-4.08-1.11-8.2-1.27-12.26
				c-0.03-0.86,0.63-1.57,1.49-1.61c0.98,0.08,1.57,0.63,1.6,1.49c0.15,3.93,0.56,7.92,1.23,11.87c0.14,0.84-0.42,1.64-1.26,1.78
				C255.78,372.55,255.69,372.56,255.61,372.56z"/>
		</g>
		<g>
			<g>
				<g>
					<path style="fill:#21263D;" d="M200.83,134.07c-8.44-4.46-5.44-23.49,4.24-14.53C210.23,124.32,211.56,139.74,200.83,134.07z"
						/>
				</g>
				<g>
					<path style="fill:#E6475B;" d="M206.83,121.82c3.54,6.08,3.36,17.2-6,12.25c-0.69-0.36-1.26-0.84-1.8-1.37
						C199.85,127.95,202.27,123.75,206.83,121.82z"/>
				</g>
			</g>
			<g>
				<path style="fill:#BAD7E9;" d="M186.43,128.53c0,0-13.37-2.79-12.3,2.35C174.13,130.89,175.36,135.96,186.43,128.53z"/>
			</g>
			<g>
				<path style="fill:#BAD7E9;" d="M177.38,137.8c0,0-13.62,0.96-11.2,5.62C166.18,143.42,168.75,147.96,177.38,137.8z"/>
			</g>
			<g>
				<path style="fill:#BAD7E9;" d="M191.01,136.82c0,0-13.09,3.91-9.71,7.92C181.3,144.74,184.8,148.61,191.01,136.82z"/>
			</g>
		</g>
	</g>
	<g>
		<g>
			<path style="fill:#F5AD93;" d="M178.92,212.38c0,0-0.26,2.63-1.18,7.72c-1.71,9.53-5.73,27.7-14.66,53.43
				c-1.8,5.18-3.79,10.67-6.01,16.46c-2.52,6.59-5.33,13.58-8.46,20.93v0.01c-0.81,1.87-1.61,3.75-2.46,5.67c0,0,0,0,0,0.01
				c-2.75,6.29-5.72,12.84-8.96,19.65c-2.6,5.51-5.37,11.19-8.31,17.04c-1.06,1.65-2.44,3.06-4.02,4.25
				c-0.25,0.21-0.52,0.4-0.77,0.59l-1.73-0.95c0.05-0.05,0.11-0.09,0.16-0.12l0.01-0.01c-7.63-5.34-14.79-11.3-21.42-17.81
				c-3.69-3.61-7.21-7.38-10.56-11.32c1.23-4.51,2.63-7.33,2.63-7.33c3.36-4.28,6.58-8.44,9.65-12.49
				c13.48-17.76,24.23-33.34,32.74-46.58c0,0,0-0.01,0.01-0.01c0.17-0.27,0.33-0.52,0.5-0.78v-0.01c2.22-3.46,4.29-6.77,6.2-9.9
				c5.46-8.94,9.74-16.56,13.01-22.77c2.81-5.3,4.89-9.59,6.38-12.81c0.13-0.28,0.26-0.55,0.38-0.82c1.91-4.19,2.7-6.34,2.7-6.34
				l11.95,3.62L178.92,212.38z"/>
		</g>
		<g>
			<g>
				<path style="fill:#F5AD93;" d="M156.11,175.92c0.7-5.13,4.43-9.84,9.97-10.77c6.92-1.22,18.76-7.47,22.03-3.35
					c4.53,5.7-4.2,23.77-5.29,30.58c-0.77,4.78-2.9,17.4-7.24,20.36c-7.59,5.16-14.43,5.3-14.65-2.31
					C160.67,200.66,155.62,179.48,156.11,175.92z"/>
			</g>
			<g>
				<path style="fill:#F29676;" d="M185.9,165.53c-4.38,1.19-11.89,3.58-15.93,6.31c-0.33,0.41-0.67,0.81-0.92,1.24
					c-2.38,4.04,1.34,9.56,1.42,13.86c0.13,6.52-2.08,15.43,2.3,20.88c1.18,1.47,2.58,2.65,4.06,3.74
					c3.52-4.25,5.33-14.88,6.01-19.18c0.85-5.33,6.35-17.53,6.55-25.32C188.15,167.63,187.25,165.17,185.9,165.53z"/>
			</g>
			<g>
				<path style="fill:#21263D;" d="M176.04,169.15c-0.33,0-0.63-0.22-0.72-0.55c-0.11-0.4,0.12-0.81,0.52-0.92l7.91-2.19
					c0.4-0.11,0.81,0.12,0.92,0.52c0.11,0.4-0.12,0.81-0.52,0.92l-7.91,2.19C176.18,169.14,176.11,169.15,176.04,169.15z"/>
			</g>
		</g>
		<g>
			<path style="fill:#D7732F;" d="M175.26,232.78c2.95,6.48,0.77,14.83,0.77,14.83c-0.97,7.48-2.15,14.63-3.52,21.43
				c-1.18,5.93-2.49,11.6-3.89,17c0,0.01-0.01,0.02-0.01,0.04c-0.84,3.21-1.71,6.34-2.6,9.37c-2.56,8.66-5.32,16.57-8.11,23.68v0.01
				c-2.41,6.17-4.85,11.73-7.21,16.69c-2.53,5.33-4.95,9.95-7.12,13.83v0.01c-5.01,8.92-8.7,13.97-9.36,14.86
				c-3.45-2.02-6.82-4.16-10.11-6.4l-1.73-0.95c0.05-0.05,0.11-0.09,0.16-0.12l0.01-0.01c-7.63-5.34-14.79-11.3-21.42-17.81
				c-3.69-3.61-7.21-7.38-10.56-11.32c-2.67-3.12-5.21-6.33-7.64-9.64c7.18-15.41,14.94-27.91,28.21-45.31l0.01-0.01
				c8.05-10.56,18.11-22.9,31.3-38.8c1.59-2.64,2.98-4.69,4.2-6.28c0.66-0.87,1.27-1.59,1.82-2.2c1.32-1.44,2.35-2.26,3.12-2.73
				c1.21-0.72,1.78-0.57,1.78-0.57l1.66-4.14v-0.01l2.48-6.18c1.27,1.25,2.7,2.31,4.18,3.2c6.11,3.69,13.3,4.62,16.07,4.85
				c0.76,0.05,1.18,0.06,1.18,0.06L175.26,232.78z"/>
		</g>
	</g>
	<path style="fill:#1C2026;" d="M244.57,81.2c2.87,21.47-0.63,42.93-4.02,64.12c-1.53,9.52-4.43,18.77-5.33,28.4
		c-0.68,7.21-2.2,23.93,6.28,27.46c10.95,4.56,23.54-7.13,32.39-12.2c10.76-6.17,22.33-11.6,30.29-21.48
		c14.91-18.5,8.4-43.83,1.84-63.85c-6.38-19.46-9.21-41.75-20.3-59.26c-5.35-8.46-14.41-17.62-23.97-21.33
		c-12.73-4.93-37.77-8.82-37.71,10.89c0.03,9.89,9.98,16.64,14.03,24.77C241.5,65.61,243.51,73.27,244.57,81.2z"/>
</g>
</svg>
