<?xml version="1.0"?>
<svg xmlns="http://www.w3.org/2000/svg" xmlns:xlink="http://www.w3.org/1999/xlink" xmlns:svgjs="http://svgjs.com/svgjs" version="1.1" width="512" height="512" x="0" y="0" viewBox="0 0 24 24" style="enable-background:new 0 0 512 512" xml:space="preserve" class=""><g><g xmlns="http://www.w3.org/2000/svg"><path d="m12 24c-6.617 0-12-5.383-12-12s5.383-12 12-12 12 5.383 12 12-5.383 12-12 12zm0-23c-6.065 0-11 4.935-11 11s4.935 11 11 11 11-4.935 11-11-4.935-11-11-11z" fill="#ff0a0a" data-original="#000000" style=""/></g><g xmlns="http://www.w3.org/2000/svg"><path d="m12 19c-.827 0-1.5-.673-1.5-1.5s.673-1.5 1.5-1.5 1.5.673 1.5 1.5-.673 1.5-1.5 1.5zm0-2c-.276 0-.5.224-.5.5s.224.5.5.5.5-.224.5-.5-.224-.5-.5-.5z" fill="#ff0a0a" data-original="#000000" style=""/></g><g xmlns="http://www.w3.org/2000/svg"><path d="m12 14c-.276 0-.5-.224-.5-.5v-8c0-.276.224-.5.5-.5s.5.224.5.5v8c0 .276-.224.5-.5.5z" fill="#ff0a0a" data-original="#000000" style=""/></g></g></svg>
