<?xml version="1.0" encoding="utf-8"?>
<!-- Generator: Adobe Illustrator 24.0.2, SVG Export Plug-In . SVG Version: 6.00 Build 0)  -->
<svg version="1.1" xmlns="http://www.w3.org/2000/svg" xmlns:xlink="http://www.w3.org/1999/xlink" x="0px" y="0px"
	 viewBox="0 0 400 400" style="enable-background:new 0 0 400 400;" xml:space="preserve">
<g id="Capa_1" style="display:none;">
	<path style="display:inline;fill:#FFF5DB;" d="M188.36,99.78c0,0,81.19-78.37,125.93-14.25s77.88,133.59,77.88,133.59
		s13.26,172.77-71.25,140.71s-212.1-7.12-212.1-7.12S-40.3,276.12,37.58,233.37c47.14-25.87,59.07-53.7,61.14-71.64
		c1.49-12.89,8.94-24.09,20.01-29.28L188.36,99.78z"/>
	<g style="display:inline;">
		<path style="fill:#1C2026;" d="M214.94,14.87c36.09-0.92,61.14,33.87,68.2,65.94c2.46,11.19,3.35,23.25,3.34,34.68
			c0,28.4-11.72,51.18-30.26,71.09c-14.44,15.5-33.81,13.66-52.99,17.35c-7.91,1.52-21.38,5.39-28.08-0.78
			c-6.33-5.82-4.52-15.34-4.51-23.3c0.02-17.09-5.47-33.98-9.78-50.45c-4.41-16.81-8.21-36.07-3.51-53.53
			c5.9-21.91,15.02-45.46,36.74-55.95C200.82,16.68,207.9,15.05,214.94,14.87z"/>
		<g>
			<g>
				<path style="fill:#1C2026;" d="M172.41,42.82c-5.28,11.42-8.68,24.6-8.68,37.07c0,23.82,9.97,55.18,34.51,67.19
					c12.1,5.92,18.5,6.62,30.89,2.32c10.46-3.63,22.99-9.54,32.44-16.47c28.06-20.6,31.8-56.21,23.68-78
					c-5.61-15.06-22.14-35.53-40.42-37.76C212.48,13.22,187.77,9.63,172.41,42.82z"/>
			</g>
			<g>
				<path style="fill:#F6B5A0;" d="M276.65,92.97c0.14,8.98-4.85,19.17-12.94,22.9c-10.96,5.07-15.19-4.99-15.19-14.83
					c-0.01-7.93,3.47-21.59,12.46-24.42C269.45,73.96,276.54,85.6,276.65,92.97z"/>
			</g>
			<g>
				<rect x="205.15" y="113.97" style="fill:#F6B5A0;" width="53.8" height="66.9"/>
			</g>
			<g>
				<path style="fill:#F1927C;" d="M242.53,151c5.4-11.33,8.61-22.79,7.7-37.04l-45.1,0.03l0.05,58.15
					C219.34,169.96,236.78,163.07,242.53,151z"/>
			</g>
			<g>
				<path style="fill:#F6B5A0;" d="M185.84,243.6l-9.74,24.01l-7.48,18.44c0,0.01-0.01,0.02-0.01,0.04l-5.43,13.37l-0.01,0.01
					l-5.45,13.45l-7.43,18.31l-6.55,16.16v0.01l-0.13,0.32c-6.28,7.97-12.78,10.35-18.75,9.85c-0.69-0.05-1.36-0.13-2.02-0.27
					c-0.01,0-0.01-0.01-0.01-0.01c-0.16-0.01-0.32-0.05-0.48-0.09c0.05-0.05,0.11-0.09,0.16-0.12l0.01-0.01
					c-7.63-5.34-14.79-11.3-21.42-17.81c-0.09-11.74,0.55-22.01,1.72-31.14c1.77-13.91,4.77-25.2,8.29-35.13l0.01-0.01
					c5.3-14.98,11.79-26.86,17.08-39.91c0,0,9.89-28.84,26.11-39.3c0.65-0.43,1.32-0.82,1.99-1.17c0.67-0.37,1.37-0.7,2.07-0.98
					c1.05-0.44,2.13-0.81,3.22-1.05l0.05-0.01l0.05-0.01l0.07-0.02c1.15-0.27,2.32-0.43,3.52-0.46c1.65-0.07,3.34,0.07,5.07,0.49
					c0.03,0,0.04,0.01,0.06,0.01c0.05,0.01,0.1,0.02,0.15,0.04c0,0,5.88,2.04,10.64,10.14v0.01c0.98,1.64,1.89,3.53,2.71,5.72v0.01
					C186.93,214.47,188.53,226.29,185.84,243.6z"/>
			</g>
			<g>
				<path style="fill:#F6B5A0;" d="M332.24,210.25l-13.59,47.83l-0.21,0.74l-1.59,5.57v0.01l-0.74,2.63l-1.57,5.5l-28.06,98.77
					l-0.93,3.26l-0.03,0.06c-20.19,8.46-42.34,13.12-65.6,13.12c-21.28,0-41.62-3.91-60.39-11.05l-1.65-57.55c0.01,0,0.01,0,0-0.01
					l-0.17-6.22l-0.16-5.5l-0.5-17.43l-0.37-12.84l-1.41-49.09l-0.28-9.81v-0.01l-0.18-6.35v-0.01l-0.51-18.11l-0.01-0.4l2-0.77
					l2.1-0.81l3.19-1.22l0.05-0.01l0.05-0.01l0.07-0.02l1.54-0.61c0.01-0.01,0.02-0.01,0.02-0.01l2.49-0.95v-0.01l4.59-1.76
					l0.04-0.01l15.75-6.06h0.01l9.47-3.64l0.28-0.11l2.37-0.91l6.72-2.59h0.11l30.04-0.07l23.72-0.05l0.04,0.02l4.71,2.33l1.05,0.53
					l16.52,8.24l19.2,9.57l23.5,11.71L332.24,210.25z"/>
			</g>
			<g>
				<path style="fill:#F6B5A0;" d="M254.15,117.4c-5.14,12.94-12.16,23.58-24.35,31.08c-11.92,7.34-24.25,11.09-35.77,1.6
					c-9.16-7.56-15.1-18.58-18.44-29.7c-7.69-25.58-1.86-61,14.4-81.63c17.85-22.66,52.36-17.63,65.72,7.61
					C266.59,66.92,262.46,96.5,254.15,117.4z"/>
			</g>
			<g>
				<g>
					<path style="fill:#F1927C;" d="M263.45,107.95c-0.68,0-1.3-0.45-1.49-1.13c-2.76-9.85-0.64-19.17,5.03-22.17
						c0.75-0.4,1.69-0.11,2.09,0.65c0.4,0.76,0.11,1.69-0.65,2.09c-4.25,2.25-5.78,10.42-3.49,18.6c0.23,0.83-0.25,1.68-1.07,1.91
						C263.73,107.92,263.59,107.95,263.45,107.95z"/>
				</g>
				<g>
					<path style="fill:#F1927C;" d="M271.64,95.4c-0.2,0-0.41-0.04-0.61-0.13c-2.36-1-5.45-1.57-7.05-0.57
						c-0.72,0.45-1.68,0.24-2.13-0.49c-0.46-0.72-0.23-1.68,0.49-2.13c3.42-2.14,8.45-0.28,9.91,0.35c0.79,0.33,1.15,1.24,0.81,2.03
						C272.82,95.05,272.25,95.4,271.64,95.4z"/>
				</g>
			</g>
			<g>
				<path style="fill:#EF883B;" d="M336.25,231.35c-1.2,3.8-3.62,7.82-5.8,11.89c-0.23,6.77-2.04,14.13-4.22,21.48
					c-0.79,2.74-1.66,5.48-2.51,8.18c-0.35,1.6-0.74,3.19-1.17,4.81v0.01c-0.44,1.64-0.9,3.31-1.39,5.07
					c-0.18,0.62-0.35,1.26-0.54,1.91c-0.63,2.19-1.31,4.51-2.03,7.08c-3.68,13.03-4.85,30.01-11,42.27l-10.37,35.13
					c-2.77,1.42-5.59,2.76-8.45,4.03c-1.05,0.47-2.11,0.93-3.18,1.38c-0.02,0-0.04,0.01-0.06,0.03
					c-20.19,8.46-42.34,13.12-65.6,13.12c-21.28,0-41.62-3.91-60.39-11.05c-1.89-0.72-3.76-1.48-5.63-2.26l-3.23-38.59l-0.39-4.62
					l-1-12.07v-0.01l-0.68-8.2v-0.01l-0.27-3.14l-0.34-4.08c-0.23-0.64-0.47-1.27-0.7-1.88c-4.66-12.44-9.68-20.84-11.48-34.34
					c-0.26-1.91-0.13-4.19,0.26-6.75v-0.01c0.09-0.56,0.2-1.14,0.32-1.73c0.01-0.07,0.04-0.13,0.06-0.21
					c1.26-6.48,4.05-14.35,7.14-21.85c0.01-0.03,0.03-0.05,0.03-0.06c1.6-3.91,3.28-7.72,4.83-11.18c0.87-1.92,1.7-3.73,2.46-5.39
					c0.8-1.74,1.52-3.3,2.13-4.66l1.8-3.76v-0.01l5.13-10.71l5.33-11.12l0.27-0.58l0.27-0.54v-0.01l0.68-1.43l3.89-1.36l0.06-0.01
					l15.92-5.54l9.21-3.2c0,0,0.04,0.02,0.1,0.06c0.06,0.04,0.13,0.09,0.24,0.15c2.4,1.42,17.21,9.51,38.74,7.29
					c5.55-0.56,11.45-1.81,17.81-4.04h0.09c2.1-0.73,4.24-1.56,6.42-2.53c1.21-0.54,2.42-1.1,3.65-1.71
					c0.34-0.17,0.69-0.34,1.04-0.53c0.15-0.07,0.31-0.15,0.46-0.23c0.28,0.12,0.58,0.24,0.88,0.38c4.63,1.99,11.17,4.68,18.14,7.54
					c7.33,2.99,15.15,6.17,21.73,8.9h0.01c0.01,0,0.03,0.01,0.04,0.01c3.73,1.55,7.05,2.96,9.67,4.09
					c7.29,3.18,11.9,4.01,18.92,7.72c1.63,0.86,2.81,2.16,3.63,3.76h0.01C340.33,214.4,338.26,224.94,336.25,231.35z"/>
			</g>
			<g>
				<g>
					<path style="fill:#21263D;" d="M192.53,87.27c-0.16,2.85-1.68,5.08-3.39,4.98c-1.71-0.1-2.96-2.48-2.8-5.33
						c0.16-2.85,1.68-5.07,3.38-4.98C191.45,82.04,192.7,84.42,192.53,87.27z"/>
				</g>
				<g>
					<path style="fill:#21263D;" d="M229.54,89.38c-0.16,2.85-1.68,5.07-3.39,4.97c-1.71-0.1-2.96-2.48-2.8-5.33
						c0.16-2.84,1.68-5.07,3.38-4.98C228.45,84.15,229.71,86.54,229.54,89.38z"/>
				</g>
				<g>
					<path style="fill:#F1927C;" d="M203.68,111.75c-0.07,0-0.14,0-0.21-0.01c-4.33-0.58-7.76-2.41-9.42-5
						c-0.89-1.39-1.16-2.89-0.75-4.21c0.21-0.67,1-1.82,4.04-6.03c2.01-2.79,5.27-7.3,6.02-8.85l-5.25-9.71
						c-0.41-0.75-0.13-1.69,0.63-2.1c0.74-0.4,1.69-0.13,2.1,0.63l5.54,10.24c0.06,0.1,0.1,0.21,0.13,0.31
						c0.34,1.2-0.23,2.39-6.65,11.28c-1.5,2.08-3.37,4.68-3.62,5.22c-0.1,0.35,0.04,0.94,0.43,1.54c0.43,0.67,2.22,2.92,7.22,3.59
						c0.85,0.11,1.44,0.89,1.33,1.74C205.1,111.19,204.44,111.75,203.68,111.75z"/>
				</g>
				<g>
					<path style="fill:#1C2026;" d="M227.1,78.02c3.16,0.08,7.04,1.32,9.73,2.3c-0.01-6.58-13.64-6.85-17.03-6.58
						c-1.63,0.13-3.14,0.79-2.19,4.51C218.1,80.14,221.12,77.87,227.1,78.02z"/>
				</g>
				<g>
					<path style="fill:#1C2026;" d="M190.07,75.9c-3.15-0.28-7.15,0.51-9.93,1.17c0.76-6.53,14.32-5.25,17.67-4.6
						c1.61,0.32,3.03,1.14,1.67,4.74C198.77,79.04,196.03,76.44,190.07,75.9z"/>
				</g>
				<g>
					<path style="fill:#F1927C;" d="M234.83,101.86c-0.12,2.02-3.92,3.45-8.5,3.19c-4.58-0.26-8.19-2.11-8.08-4.14
						c0.11-2.02,3.92-3.45,8.5-3.19C231.33,97.98,234.95,99.83,234.83,101.86z"/>
				</g>
				<g>
					<path style="fill:#F1927C;" d="M193.97,99.53c-0.12,2.02-3.92,3.45-8.5,3.19c-4.58-0.26-8.19-2.11-8.08-4.13
						c0.12-2.03,3.92-3.45,8.5-3.19C190.46,95.65,194.09,97.5,193.97,99.53z"/>
				</g>
			</g>
			<g>
				<path style="fill:#1C2026;" d="M240.59,51.32c0,0,0.9,10.81,2.32,19.31c1.11,0.83,11.04,17.18,12.22,17.89
					c0.35,0.21,3.26-0.74,3.26-0.74c0.46-4.59,3.53-8.54,8.96-8.76c3.91-0.15,7.19,4.81,8.24,9c0.25-4.14,0.69-9.41,0.73-13.83
					c0.04-4.19-0.21-8.69-0.74-12.99c-1.23-10.01-2.04-15.5-6.84-24.89c-5.16-10.1-13.21-17.92-24.6-20.75
					c-13.74-3.42-36.19-6.17-47.83,2.3c-5.97,4.34-14.81,14.54-12.11,27.28C184.21,45.14,205.45,33.3,240.59,51.32z"/>
			</g>
			<g>
				<path style="fill:#F6B5A0;" d="M388.85,235.89c-2.19,20.91-8.19,40.68-17.27,58.62c-16.39-10.26-33.24-21.01-45.35-29.78
					c-2.7-1.94-5.16-3.8-7.33-5.52c-0.16-0.13-0.31-0.26-0.45-0.38c-1.25-1-2.39-1.97-3.42-2.87c-2.62-2.31-4.5-4.31-5.46-5.91
					c-14.46-26.26,5.1-40.85,14.38-43.92c1.98-0.65,3.48-0.78,4.11-0.39c2.48,0.47,5.55,1.31,9.09,2.53h0.01
					C349.96,212.65,368.97,221.94,388.85,235.89z"/>
			</g>
			<g>
				<path style="fill:#EF883B;" d="M388.94,235.07c-0.03,0.28-0.05,0.55-0.09,0.82c-2.19,20.91-8.19,40.68-17.27,58.62
					c-1.32,2.6-2.7,5.17-4.16,7.7c-0.29,0.5-0.57,1.01-0.88,1.52c-2.68-1.44-5.32-2.9-7.92-4.35
					c-14.04-7.86-26.86-15.76-36.07-21.64v-0.01c-0.83-0.53-1.64-1.04-2.41-1.54c-0.39-0.24-0.77-0.49-1.14-0.73v-0.01
					c-1.65-1.05-3.14-2.03-4.46-2.9c-4.14-2.71-6.51-4.34-6.51-4.34c-1.3-1.36-2.52-2.71-3.65-4.07
					c-25.8-30.87-9.69-60.96-3.93-69.72c1.07-1.65,1.8-2.54,1.8-2.54c0.88,0.26,1.76,0.51,2.64,0.8h0.01c0.01,0,0.03,0.01,0.04,0.01
					C331.97,201.02,363.41,218.74,388.94,235.07z"/>
			</g>
			<g>
				<path style="fill:#EF883B;" d="M329.52,347.69c-0.53,0.44-1.05,0.88-1.57,1.31c-9.45,7.78-19.74,14.57-30.72,20.19
					c-2.77,1.42-5.59,2.76-8.45,4.03c-1.05,0.47-2.11,0.93-3.18,1.38c-0.02,0-0.04,0.01-0.06,0.03
					c-20.19,8.46-42.34,13.12-65.6,13.12c-21.28,0-41.62-3.91-60.39-11.05c-1.89-0.72-3.76-1.48-5.63-2.26
					c-4.66-1.97-9.22-4.14-13.65-6.5c1.44-9.31,3.09-15.59,3.09-15.59l0.21-2.65c0,0-0.01,0,0-0.01l0.18-2.28v-0.01l1.78-22.91
					l0.63-7.85c0-0.01,0-0.01,0-0.01l0.66-8.46l0.49-6.33l0.09-1c0-0.01,0-0.01,0-0.01l1.43-18.33c2.57-1.91,5.19-3.68,7.88-5.33
					c2.09-1.28,4.22-2.49,6.38-3.62c3.09-1.65,6.23-3.13,9.43-4.48c1.19-0.5,2.38-0.99,3.59-1.44c4.11-1.6,8.28-2.99,12.51-4.18
					c43.65-12.34,92.17-4.57,115.76,0.7c5.27,1.18,9.29,2.24,11.73,2.91c0.54,0.15,0.99,0.27,1.36,0.38c0.9,0.26,1.37,0.4,1.37,0.4
					c0.45,2.8,0.89,5.59,1.31,8.36c0.34,2.22,0.69,4.44,1.02,6.62C324.92,308.13,327.76,331.84,329.52,347.69z"/>
			</g>
			<g>
				<path style="fill:none;" d="M224.77,187.28c-10.26,0-19.51-2.72-28.14-8.26c-0.72-0.46-0.92-1.42-0.46-2.14
					c0.46-0.72,1.42-0.93,2.14-0.47c9.82,6.31,20.06,8.69,32.22,7.49l1.94-0.18c8.52-0.81,22.78-2.17,28.05-7.13
					c0.62-0.59,1.6-0.55,2.18,0.07c0.59,0.62,0.55,1.6-0.07,2.19c-6.04,5.68-20.38,7.04-29.87,7.95l-1.93,0.19
					C228.77,187.18,226.75,187.28,224.77,187.28z"/>
			</g>
			<g>
				<path style="fill:none;" d="M330.86,346.54c-0.45,0.38-0.89,0.76-1.34,1.15c-0.53,0.44-1.05,0.88-1.57,1.31
					c-1.71-22.63-3.94-43.67-7.32-64.29c-0.51-3.09-1.05-6.18-1.61-9.26v-0.01c-0.49-2.68-1-5.35-1.54-8.02c-0.21-1-0.4-2-0.61-3.01
					c-0.59-2.82-1.2-5.63-1.83-8.46c-0.47-2.02-0.93-4.03-1.42-6.05c-0.2-0.83,0.32-1.67,1.14-1.87c0.83-0.18,1.66,0.32,1.87,1.15
					c0.72,2.97,1.39,5.94,2.04,8.9c0.1,0.38,0.17,0.76,0.25,1.12c1.36,6.17,2.57,12.33,3.65,18.51v0.01
					C326.5,299.85,328.98,322.31,330.86,346.54z"/>
			</g>
			<g>
				<path style="fill:#EF883B;" d="M203.78,241.95l-15.16,21.48l-22.61,32.03l-2.82,4l-0.01,0.01l-5.61,7.96l-8.27,11.72v0.01
					l-3.76,5.32l-8.33,11.8l-14.66,20.79c-7.63-5.34-14.79-11.3-21.42-17.81c-3.69-3.61-7.21-7.38-10.56-11.32
					c-2.67-3.12-5.21-6.33-7.64-9.64l-3.37-4.77c24.49-85.16,52.16-104.72,52.16-104.72c7.77-10.17,18.07-15.19,26.59-17.68
					c1.77-0.51,3.46-0.92,5.02-1.23c0.01-0.01,0.02-0.01,0.02-0.01c0.77-0.16,1.52-0.29,2.22-0.42c1.87-0.31,3.51-0.49,4.84-0.6
					h0.04c2.33-0.2,3.73-0.16,3.73-0.16c3.31,0.56,6.27,1.42,8.91,2.51c7.39,3.07,12.33,8.02,15.58,13.66
					C207.81,220.71,203.78,241.95,203.78,241.95z"/>
			</g>
			<g>
				<path style="fill:none;" d="M147.27,308.23c-0.75,0-1.41-0.55-1.53-1.31c-0.71-4.63-3.06-9.92-5.54-15.51
					c-4.04-9.09-8.23-18.49-5.73-26.38c4.13-13.07,10.34-31.9,14.43-43.8c0.28-0.81,1.14-1.23,1.96-0.96
					c0.81,0.28,1.23,1.16,0.96,1.96c-4.08,11.87-10.28,30.67-14.41,43.72c-2.14,6.78,1.79,15.63,5.6,24.2
					c2.58,5.79,5.01,11.26,5.78,16.3c0.13,0.85-0.45,1.63-1.29,1.76C147.42,308.23,147.34,308.23,147.27,308.23z"/>
			</g>
			<g>
				<path style="fill:none;" d="M361.02,298.2c2.16,1.46,4.3,2.8,6.4,4.01c-0.29,0.5-0.57,1.01-0.88,1.52
					c-0.22,0.38-0.45,0.77-0.67,1.15c-2.16-1.24-4.35-2.6-6.57-4.11c-0.48-0.32-0.72-0.86-0.67-1.39c0.01-0.26,0.1-0.53,0.26-0.76
					C359.36,297.9,360.32,297.72,361.02,298.2z"/>
			</g>
			<g>
				<path style="fill:none;" d="M286.49,371.3c0.77,0.67,1.53,1.32,2.28,1.92c-1.05,0.47-2.11,0.93-3.18,1.38
					c-0.01-0.01-0.02-0.01-0.04-0.04c-4.43-3.69-8.89-8.38-13.02-12.73c-2.75-2.87-5.34-5.6-7.66-7.76
					c-7.76-7.26-13.62-14.77-19.83-22.74c-2.37-3.04-4.78-6.12-7.33-9.25c-0.54-0.66-0.44-1.63,0.22-2.16
					c0.66-0.55,1.63-0.45,2.17,0.21c2.57,3.14,4.99,6.24,7.37,9.3c6.13,7.87,11.93,15.3,19.51,22.39c2.4,2.22,5.01,4.98,7.79,7.89
					C278.52,363.64,282.54,367.87,286.49,371.3z"/>
			</g>
			<g>
				<path style="fill:none;" d="M255.61,372.56c-0.74,0-1.39-0.54-1.52-1.29c-0.69-4.08-1.11-8.2-1.27-12.26
					c-0.03-0.86,0.63-1.57,1.49-1.61c0.98,0.08,1.57,0.63,1.6,1.49c0.15,3.93,0.56,7.92,1.23,11.87c0.14,0.84-0.42,1.64-1.26,1.78
					C255.78,372.55,255.69,372.56,255.61,372.56z"/>
			</g>
			<g>
				<g>
					<g>
						<path style="fill:#21263D;" d="M200.83,134.07c-8.44-4.46-5.44-23.49,4.24-14.53C210.23,124.32,211.56,139.74,200.83,134.07z"
							/>
					</g>
					<g>
						<path style="fill:#E6475B;" d="M206.83,121.82c3.54,6.08,3.36,17.2-6,12.25c-0.69-0.36-1.26-0.84-1.8-1.37
							C199.85,127.95,202.27,123.75,206.83,121.82z"/>
					</g>
				</g>
				<g>
					<path style="fill:#BAD7E9;" d="M186.43,128.53c0,0-13.37-2.79-12.3,2.35C174.13,130.89,175.36,135.96,186.43,128.53z"/>
				</g>
				<g>
					<path style="fill:#BAD7E9;" d="M177.38,137.8c0,0-13.62,0.96-11.2,5.62C166.18,143.42,168.75,147.96,177.38,137.8z"/>
				</g>
				<g>
					<path style="fill:#BAD7E9;" d="M191.01,136.82c0,0-13.09,3.91-9.71,7.92C181.3,144.74,184.8,148.61,191.01,136.82z"/>
				</g>
			</g>
		</g>
		<g>
			<g>
				<path style="fill:#F5AD93;" d="M178.92,212.38c0,0-0.26,2.63-1.18,7.72c-1.71,9.53-5.73,27.7-14.66,53.43
					c-1.8,5.18-3.79,10.67-6.01,16.46c-2.52,6.59-5.33,13.58-8.46,20.93v0.01c-0.81,1.87-1.61,3.75-2.46,5.67c0,0,0,0,0,0.01
					c-2.75,6.29-5.72,12.84-8.96,19.65c-2.6,5.51-5.37,11.19-8.31,17.04c-1.06,1.65-2.44,3.06-4.02,4.25
					c-0.25,0.21-0.52,0.4-0.77,0.59l-1.73-0.95c0.05-0.05,0.11-0.09,0.16-0.12l0.01-0.01c-7.63-5.34-14.79-11.3-21.42-17.81
					c-3.69-3.61-7.21-7.38-10.56-11.32c1.23-4.51,2.63-7.33,2.63-7.33c3.36-4.28,6.58-8.44,9.65-12.49
					c13.48-17.76,24.23-33.34,32.74-46.58c0,0,0-0.01,0.01-0.01c0.17-0.27,0.33-0.52,0.5-0.78v-0.01c2.22-3.46,4.29-6.77,6.2-9.9
					c5.46-8.94,9.74-16.56,13.01-22.77c2.81-5.3,4.89-9.59,6.38-12.81c0.13-0.28,0.26-0.55,0.38-0.82c1.91-4.19,2.7-6.34,2.7-6.34
					l11.95,3.62L178.92,212.38z"/>
			</g>
			<g>
				<g>
					<path style="fill:#F5AD93;" d="M156.11,175.92c0.7-5.13,4.43-9.84,9.97-10.77c6.92-1.22,18.76-7.47,22.03-3.35
						c4.53,5.7-4.2,23.77-5.29,30.58c-0.77,4.78-2.9,17.4-7.24,20.36c-7.59,5.16-14.43,5.3-14.65-2.31
						C160.67,200.66,155.62,179.48,156.11,175.92z"/>
				</g>
				<g>
					<path style="fill:#F29676;" d="M185.9,165.53c-4.38,1.19-11.89,3.58-15.93,6.31c-0.33,0.41-0.67,0.81-0.92,1.24
						c-2.38,4.04,1.34,9.56,1.42,13.86c0.13,6.52-2.08,15.43,2.3,20.88c1.18,1.47,2.58,2.65,4.06,3.74
						c3.52-4.25,5.33-14.88,6.01-19.18c0.85-5.33,6.35-17.53,6.55-25.32C188.15,167.63,187.25,165.17,185.9,165.53z"/>
				</g>
				<g>
					<path style="fill:#21263D;" d="M176.04,169.15c-0.33,0-0.63-0.22-0.72-0.55c-0.11-0.4,0.12-0.81,0.52-0.92l7.91-2.19
						c0.4-0.11,0.81,0.12,0.92,0.52c0.11,0.4-0.12,0.81-0.52,0.92l-7.91,2.19C176.18,169.14,176.11,169.15,176.04,169.15z"/>
				</g>
			</g>
			<g>
				<path style="fill:#D7732F;" d="M175.26,232.78c2.95,6.48,0.77,14.83,0.77,14.83c-0.97,7.48-2.15,14.63-3.52,21.43
					c-1.18,5.93-2.49,11.6-3.89,17c0,0.01-0.01,0.02-0.01,0.04c-0.84,3.21-1.71,6.34-2.6,9.37c-2.56,8.66-5.32,16.57-8.11,23.68
					v0.01c-2.41,6.17-4.85,11.73-7.21,16.69c-2.53,5.33-4.95,9.95-7.12,13.83v0.01c-5.01,8.92-8.7,13.97-9.36,14.86
					c-3.45-2.02-6.82-4.16-10.11-6.4l-1.73-0.95c0.05-0.05,0.11-0.09,0.16-0.12l0.01-0.01c-7.63-5.34-14.79-11.3-21.42-17.81
					c-3.69-3.61-7.21-7.38-10.56-11.32c-2.67-3.12-5.21-6.33-7.64-9.64c7.18-15.41,14.94-27.91,28.21-45.31l0.01-0.01
					c8.05-10.56,18.11-22.9,31.3-38.8c1.59-2.64,2.98-4.69,4.2-6.28c0.66-0.87,1.27-1.59,1.82-2.2c1.32-1.44,2.35-2.26,3.12-2.73
					c1.21-0.72,1.78-0.57,1.78-0.57l1.66-4.14v-0.01l2.48-6.18c1.27,1.25,2.7,2.31,4.18,3.2c6.11,3.69,13.3,4.62,16.07,4.85
					c0.76,0.05,1.18,0.06,1.18,0.06L175.26,232.78z"/>
			</g>
		</g>
		<path style="fill:#1C2026;" d="M244.57,81.2c2.87,21.47-0.63,42.93-4.02,64.12c-1.53,9.52-4.43,18.77-5.33,28.4
			c-0.68,7.21-2.2,23.93,6.28,27.46c10.95,4.56,23.54-7.13,32.39-12.2c10.76-6.17,22.33-11.6,30.29-21.48
			c14.91-18.5,8.4-43.83,1.84-63.85c-6.38-19.46-9.21-41.75-20.3-59.26c-5.35-8.46-14.41-17.62-23.97-21.33
			c-12.73-4.93-37.77-8.82-37.71,10.89c0.03,9.89,9.98,16.64,14.03,24.77C241.5,65.61,243.51,73.27,244.57,81.2z"/>
	</g>
</g>
<g id="Capa_2" style="display:none;">
	<path style="display:inline;fill:#FFF5DB;" d="M204.37,114.91c-7.07-0.51-14.19-0.01-21.11,1.55
		c-35.19,7.93-143.29,38.31-172.53,117.44c-1.51,4.08-2.97,7.98-4.38,11.71c-16.66,43.93,12.05,91.93,58.63,98.03
		c68.54,8.98,151.59,17.1,176.91,7.89c29.67-10.79,67.26-17.17,89.76-20.3c15.42-2.14,29.74-9.13,40.91-19.98
		c21.38-20.77,46.33-56.46,9.68-87.68c-27.95-23.81-46.55-49.17-58.16-68.55c-12.27-20.49-33.62-33.85-57.44-35.59L204.37,114.91z"
		/>
	<g style="display:inline;">
		<g>
			<path style="fill:#A0A0BC;" d="M290.61,313.67l-149.45,40.79c-1.69,0.46-3.44-0.54-3.9-2.23L68.91,101.79
				c-0.46-1.69,0.54-3.44,2.23-3.9L220.58,57.1c1.69-0.46,3.44,0.54,3.9,2.23l68.36,250.45C293.3,311.47,292.3,313.21,290.61,313.67
				z"/>
			<path style="fill:#C7C7E2;" d="M290.61,313.67l-134.77,36.78c-1.69,0.46-3.44-0.54-3.9-2.23L83.59,97.78
				c-0.46-1.69,0.54-3.44,2.23-3.9L220.58,57.1c1.69-0.46,3.44,0.54,3.9,2.23l68.36,250.45C293.3,311.47,292.3,313.21,290.61,313.67
				z"/>
			
				<rect x="115.21" y="100.68" transform="matrix(0.9647 -0.2633 0.2633 0.9647 -47.0308 56.7034)" style="fill:#FCDCC8;" width="145.65" height="206.27"/>
			<path style="fill:#FCBF95;" d="M231.13,85.14l1.62,5.95c-37.96,54.99-72.69,111.87-104.42,170.58l-25-91.6
				c11.91-20.28,24.22-40.39,36.91-60.12L231.13,85.14z"/>
			<path style="fill:#FCBF95;" d="M244.23,133.14l23.1,84.62c-19.63,28.92-39.02,57.99-58.22,87.21l-64.17,17.52l-7.95-29.11
				C172.04,239.46,207.79,186.05,244.23,133.14z"/>
			<path style="fill:#A0A0BC;" d="M260.08,309.77l-72.37,19.75c-0.39,0.11-0.8-0.13-0.91-0.52l-2.78-10.18
				c-0.11-0.39,0.13-0.8,0.52-0.91l72.37-19.75c0.39-0.11,0.8,0.13,0.91,0.52l2.78,10.18C260.71,309.25,260.47,309.66,260.08,309.77
				z"/>
			<path style="fill:#A0A0BC;" d="M203.69,79.75l-87.81,23.97c-0.21,0.06-0.42-0.07-0.48-0.27l-1.43-5.24
				c-0.06-0.21,0.07-0.42,0.27-0.48l87.81-23.97c0.21-0.06,0.42,0.07,0.48,0.27l1.43,5.24C204.02,79.48,203.9,79.69,203.69,79.75z"
				/>
		</g>
		<path style="fill:#FC7F7A;" d="M251.92,135.27c5.35,14.29-1.9,30.21-16.19,35.56c-14.29,5.35-30.21-1.9-35.56-16.2
			c-5.35-14.29,1.9-30.21,16.2-35.56C230.66,113.73,246.58,120.98,251.92,135.27z"/>
		<path style="fill:#FC7F7A;" d="M205.55,196.86c2.21,5.92-0.79,12.51-6.71,14.73c-5.92,2.21-12.51-0.79-14.72-6.71
			c-2.22-5.92,0.79-12.51,6.71-14.73C196.74,187.94,203.33,190.95,205.55,196.86z"/>
		
			<ellipse transform="matrix(0.9027 -0.4302 0.4302 0.9027 -72.2446 132.2866)" style="fill:#FC7F7A;" cx="256.39" cy="225.89" rx="22.58" ry="22.58"/>
		<path style="fill:#FC7F7A;" d="M282.03,182.68c1.38,3.69-0.49,7.8-4.18,9.18c-3.69,1.38-7.8-0.49-9.18-4.18
			c-1.38-3.69,0.49-7.8,4.18-9.18C276.54,177.12,280.65,178.99,282.03,182.68z"/>
		<path style="fill:#FC7F7A;" d="M197.44,245.1c1.55,4.15-0.55,8.77-4.7,10.32s-8.77-0.55-10.32-4.7s0.55-8.77,4.7-10.32
			C191.26,238.84,195.89,240.95,197.44,245.1z"/>
		<path style="fill:#FC7F7A;" d="M188.28,118.48c1.09,2.92-0.39,6.17-3.31,7.26c-2.92,1.09-6.17-0.39-7.26-3.31
			c-1.09-2.92,0.39-6.17,3.31-7.26C183.93,114.08,187.18,115.56,188.28,118.48z"/>
		<path style="fill:#FC7F7A;" d="M260.99,116.44c1.46,3.9-0.52,8.25-4.42,9.71c-3.9,1.46-8.25-0.52-9.71-4.42
			c-1.46-3.9,0.52-8.25,4.42-9.71C255.18,110.56,259.53,112.54,260.99,116.44z"/>
		<path style="fill:#FC7F7A;" d="M185.51,172.75c0.72,1.94-0.26,4.1-2.2,4.82c-1.94,0.73-4.1-0.26-4.82-2.2
			c-0.73-1.94,0.26-4.1,2.2-4.82C182.62,169.83,184.78,170.81,185.51,172.75z"/>
		<path style="fill:#FC7F7A;" d="M225.48,208.6c0.86,2.31-0.31,4.87-2.61,5.74s-4.87-0.31-5.74-2.61c-0.86-2.3,0.31-4.87,2.61-5.74
			C222.05,205.12,224.62,206.29,225.48,208.6z"/>
	</g>
</g>
<g id="Capa_3" style="display:none;">
	<path style="display:inline;fill:#FFF5DB;" d="M322.86,228.8c-7.9-50.62-42.49-92.4-88.92-110.49c-7.6-2.96-12.7-10.15-13.26-18.28
		c-2.35-34.59-24.31-66.37-58.88-79.54C114.53,2.47,60.24,27.33,42.94,74.87c-10.89,29.93-5.21,61.99,12.51,85.94
		c4.85,6.55,5.6,15.26,1.72,22.43c-12.62,23.3-18.93,50.52-16.62,79.37c5.55,69.44,61.35,124.92,130.81,130.13
		c38.76,2.91,74.55-9.73,101.77-32.33c6.91-5.74,16.6-6.44,24.37-1.93c23.5,13.63,54.18,10.19,74.05-10.31
		c22.3-23.01,22.73-59.97,0.95-83.47c-9.18-9.9-20.8-16.02-33.02-18.37C330.8,244.65,324.22,237.54,322.86,228.8z"/>
	<g style="display:inline;">
		<g>
			<path style="fill:#EF8A3D;" d="M57.57,264.67l0.22,0.1c1.08-2.72,2.16-5.44,3.27-8.13c10.72-26.79,21.76-53.39,33.11-79.89
				c0.98-2.37,2-4.71,3.01-7.08c-19.24-0.75-38.47-1.46-57.71-2.15c-5.35,32.05-11.62,66.34-15.13,98.58
				C35.42,265.63,46.49,265.16,57.57,264.67z"/>
			<path style="fill:#F2A064;" d="M93.62,286.82c5.25,0.07,10.48-2.24,14.02-6.09l-0.22-0.19c2.44-4.36,1.91-10.06-0.75-14.33
				c-2.65-4.24-7.18-7.13-12.01-8.46c-4.11-1.11-8.38-1.18-12.62-0.68c-0.41,0.19-0.79,0.44-1.14,0.73
				c-4.72,3.51-6.34,10.56-4.48,16.29c2.18,6.65,8.37,11.78,15.3,12.61C92.35,286.79,92.98,286.82,93.62,286.82z"/>
			<path style="fill:#EF8A3D;" d="M269.85,168.95c10.44,29.21,20.85,58.43,31.3,87.64c0.66,1.93,1.36,3.83,2.05,5.76
				c10.25-0.15,26.04-0.83,36.32-1.32c-9.3-36.02-18.25-72.1-26.88-108.27c-11.46,3.53-31.11,6.77-45.07,9.83
				C268.33,164.71,269.09,166.83,269.85,168.95z"/>
			<path style="fill:#F2A064;" d="M127.48,312.49c6.49-0.63,12.69-3.28,18.01-7.07c3.86-2.75,7.35-6.23,9.53-10.37
				c0.06-0.38,0.1-0.76,0.16-1.11c0.45-6.14-2.64-12.44-7.86-15.7c-4.24-2.63-9.49-3.27-14.43-2.61c-4.94,0.66-9.62,2.52-14.18,4.54
				c-2.12,0.95-4.65,1.89-6.58,0.63c-0.51-0.35-0.95-0.82-1.49-1.08c-0.7-0.35-1.58-0.32-2.25,0.09c-0.22,0.32-0.48,0.63-0.76,0.92
				c-3.55,3.86-8.77,6.16-14.02,6.09c1.26,7.34,5.24,14.15,11.02,18.87c5.91,4.82,13.63,7.35,21.22,6.95
				C126.4,312.61,126.94,312.58,127.48,312.49z"/>
			<path style="fill:#F2A064;" d="M194.52,193.14c20.77,19.39,41.54,38.77,62.3,58.16c6.61,6.14,13.18,12.32,19.79,18.47
				c0.32,0.29,0.63,0.57,0.92,0.89c0.63-0.41,1.2-0.88,1.8-1.36c6.52-5.12,13.74-9.35,21.4-12.54l0.41-0.16
				c-10.44-29.21-20.85-58.43-31.3-87.64c-12.56-0.9-24.99-3.44-36.92-7.51c-8.73-2.98-17.21-6.76-25.24-11.32
				c-1.83-1.01-3.73-2.12-5.82-2.28c-1.68-0.16-3.32,0.31-4.94,0.79c-9.53,2.77-18.99,5.61-28.45,8.51
				c-5.95,1.86-11.93,3.72-17.6,6.31c-0.82,0.38-1.61,0.76-2.41,1.17c-2.47,1.23-4.91,2.68-6.52,4.93
				c-2.44,3.35-2.57,7.78-3.3,11.83c-2.29,12.62-11.19,23.47-12.35,36.25c-0.16,1.93-0.07,4.11,1.26,5.51
				c0.32,0.35,0.7,0.6,1.07,0.82c1.3,0.73,2.94,0.86,4.46,0.83c15.25-0.21,29.97-10.16,35.84-24.26c0.41-0.95,0.82-1.99,1.74-2.5
				c0.73-0.38,1.58-0.31,2.41-0.28C180.46,198.13,187.96,196.52,194.52,193.14z"/>
			<path style="fill:#F2A064;" d="M184,301.19c-1.45-4.05-4.58-7.57-8.53-9.44c-6.23-2.92-13.86-1.88-19.71,1.82
				c-0.19,0.51-0.44,1.01-0.73,1.49c-2.19,4.14-5.67,7.62-9.53,10.37c-5.32,3.79-11.52,6.44-18.01,7.07
				c1.67,5.76,6.51,10.26,12.04,12.57c5.76,2.35,12.18,2.58,18.32,1.82c0.22-0.03,0.44-0.06,0.66-0.09
				c6.77-0.94,13.51-3.15,18.71-7.61c4.28-3.7,7.29-9.1,7.58-14.71C184.66,303.37,184.41,302.26,184,301.19z"/>
			<path style="fill:#F2A064;" d="M184.78,304.48c-0.29,5.6-3.3,11.01-7.58,14.71c-5.19,4.46-11.94,6.66-18.71,7.61
				c5.59,5.57,13.72,8.52,21.6,7.74c7.88-0.75,15.32-5.21,19.72-11.81c1.43-2.15,2.57-4.62,2.85-7.15c0.13-1.01,0.13-2.02-0.06-3.04
				c-0.38-2.15-1.51-4.15-2.94-5.79c-3.67-4.24-9.52-6.4-15.06-5.65C184.79,302.23,184.85,303.37,184.78,304.48z"/>
			<path style="fill:#FFC494;" d="M61.06,256.63c6.61,0.38,13.21,0.76,19.82,1.19c0.38-0.33,0.76-0.54,1.14-0.76
				c4.28-0.49,8.56-0.43,12.62,0.7c4.87,1.3,9.37,4.22,12.02,8.45c2.65,4.28,3.2,9.97,0.76,14.35l0.22,0.16
				c0.27-0.27,0.54-0.6,0.76-0.92c0.65-0.38,1.57-0.43,2.27-0.11c0.54,0.27,0.98,0.76,1.46,1.08c1.95,1.3,4.44,0.33,6.61-0.6
				c4.55-2.06,9.21-3.9,14.14-4.55c4.98-0.65,10.24,0,14.46,2.6c5.2,3.25,8.29,9.59,7.85,15.71c0.16-0.16,0.38-0.27,0.54-0.38
				c5.9-3.68,13.49-4.71,19.71-1.79c3.95,1.84,7.09,5.36,8.56,9.42c0.22-0.05,0.43-0.05,0.65-0.11c5.52-0.76,11.37,1.41,15.06,5.63
				c1.41,1.68,2.55,3.68,2.92,5.79c0.16,1.03,0.16,2.06,0.05,3.03c7.47,2.82,15.71,3.41,23.5,1.73c0.16,0,0.38-0.05,0.49-0.05
				c3.19-0.76,6.44-1.9,9.1-3.84c2.38-1.73,4.33-4.22,5.2-6.99c2.27,0.6,4.55,0.97,6.88,1.03c3.63,0.05,7.26-0.81,10.29-2.6
				c0.97-0.65,1.9-1.35,2.71-2.17c3.3-3.36,4.66-8.77,2.55-13l0.05-0.76c6.44,0.49,13.11-3.36,15.81-9.26
				c0.7-1.62,1.19-3.52,0.76-5.31c-0.38-1.41-1.41-2.6-2.49-3.68c-0.27-0.32-0.6-0.6-0.92-0.87c-6.61-6.17-13.16-12.35-19.77-18.47
				c-20.8-19.39-41.54-38.78-62.34-58.17c-6.55,3.36-14.03,4.98-21.39,4.6c-0.81-0.05-1.68-0.11-2.44,0.27
				c-0.92,0.49-1.3,1.57-1.73,2.49c-5.85,14.14-20.58,24.05-35.85,24.26c-1.52,0.05-3.14-0.11-4.44-0.81
				c-0.38-0.22-0.76-0.49-1.08-0.81c-1.3-1.41-1.41-3.57-1.25-5.52c1.14-12.78,10.02-23.61,12.35-36.23c0.7-4.06,0.87-8.5,3.3-11.86
				c1.62-2.22,4.06-3.68,6.5-4.93c0.81-0.38,1.57-0.76,2.44-1.14c5.63-2.6,11.64-4.5,17.6-6.34c9.42-2.87,18.9-5.74,28.43-8.5
				c1.62-0.49,3.25-0.97,4.93-0.81c2.11,0.16,4.01,1.3,5.85,2.33c8.02,4.55,16.46,8.34,25.24,11.32l0.05-0.33
				c6.55,0.92,13.38-1.08,18.41-5.31c2.55-2.17,4.66-5.96,2.71-8.66c-0.97-1.35-2.71-1.9-4.28-2.33c-9.42-2.6-19.28-3.95-27.89-8.61
				c-3.41-1.9-6.77-4.39-10.72-4.82c-4.01-0.43-7.91,1.3-11.59,3.03c-17.06,7.91-34.12,15.87-51.18,23.78
				c-12.24,5.69-24.42,11.37-36.61,17.06l0.05,0.16c-5.85,0.98-11.81,1.41-17.76,1.3C82.83,203.23,71.78,229.87,61.06,256.63z"/>
		</g>
		<path style="fill:#F2A064;" d="M206.75,238.99c11.52,10.82,23.42,21.25,35.66,31.24c5.66,4.62,11.31,9.85,17.53,13.69
			c6.82,4.21,11.89-1.95,15.59-7.18c2.01-2.84,6.44,0.28,4.42,3.13c-3.67,5.18-8.68,11.21-15.67,11.04
			c-3.45-0.08-6.48-1.77-9.19-3.76c-3.69-2.7-7.26-5.61-10.83-8.47c-14.37-11.5-28.25-23.61-41.67-36.21
			C200.06,240.08,204.24,236.62,206.75,238.99z"/>
		<path style="fill:#F2A064;" d="M194.31,260.98c16.29,12.92,32,26.55,47.11,40.83c2.53,2.39-1.64,5.85-4.15,3.48
			c-14.77-13.96-30.16-27.26-46.09-39.89C188.46,263.25,191.56,258.81,194.31,260.98z"/>
		<path style="fill:#FF5748;" d="M185.92,195.88c0,11.23,9.1,20.33,20.33,20.33c11.22,0,20.32-9.1,20.32-20.33
			c0-11.22-9.1-20.32-20.32-20.32C195.02,175.56,185.92,184.66,185.92,195.88z"/>
		<circle style="fill:#FF5748;" cx="163.13" cy="156.55" r="17.5"/>
		<circle style="fill:#FF5748;" cx="215.59" cy="136.48" r="12.86"/>
		<path style="fill:#FF5748;" d="M191,166.62c0,1.92,1.56,3.48,3.48,3.48c1.92,0,3.48-1.56,3.48-3.48s-1.56-3.48-3.48-3.48
			C192.56,163.14,191,164.7,191,166.62z"/>
		<path style="fill:#FF5748;" d="M237.86,182.71c0,3.95,3.2,7.15,7.15,7.15c3.95,0,7.15-3.2,7.15-7.15c0-3.95-3.2-7.15-7.15-7.15
			C241.06,175.56,237.86,178.76,237.86,182.71z"/>
		<circle style="fill:#FF5748;" cx="238.99" cy="213.58" r="6.02"/>
		<circle style="fill:#FF5748;" cx="170.59" cy="233.04" r="5.16"/>
		<path style="fill:#FF5748;" d="M156.13,190c0,2.57,2.08,4.65,4.65,4.65s4.65-2.08,4.65-4.65c0-2.57-2.08-4.65-4.65-4.65
			S156.13,187.43,156.13,190z"/>
		<path style="fill:#FF5748;" d="M167.1,123.24c0,5.2,4.21,9.41,9.41,9.41c5.2,0,9.41-4.21,9.41-9.41c0-5.2-4.21-9.41-9.41-9.41
			C171.31,113.83,167.1,118.05,167.1,123.24z"/>
	</g>
</g>
<g id="Capa_4" style="display:none;">
	<path style="display:inline;fill:#FFF5DB;" d="M179.26,136.74c0,0,80.93-72.67,125.52-13.21s77.62,123.87,77.62,123.87
		s13.21,160.2-71.02,130.47c-84.23-29.73-211.4-6.61-211.4-6.61s-148.64-71.02-71.02-110.65c46.98-23.99,58.87-49.79,60.94-66.43
		c1.49-11.95,8.91-22.33,19.95-27.15L179.26,136.74z"/>
	<g id="XMLID_2_" style="display:inline;">
		<g id="XMLID_365_" style="display:none;">
			<path style="display:inline;fill:#DD6747;" d="M167.56,213.46c42.29,0,76.56,34.28,76.56,76.56c0,42.29-34.28,76.56-76.56,76.56
				s-76.56-34.28-76.56-76.56C90.99,247.74,125.27,213.46,167.56,213.46 M167.56,210.46c-43.87,0-79.56,35.69-79.56,79.56
				c0,43.87,35.69,79.56,79.56,79.56s79.56-35.69,79.56-79.56C247.12,246.15,211.43,210.46,167.56,210.46L167.56,210.46z"/>
		</g>
		<g id="XMLID_709_">
			<path id="XMLID_790_" style="fill:#FF8B66;" d="M227.25,172.91c-3.18-7.34-4.5-13.47-4.95-18.1c-0.26-2.55-0.25-4.63-0.15-6.23
				c0.15-2.38,0.5-3.63,0.5-3.63l-1.26,0.33c0.02-0.2,0.04-0.33,0.04-0.33l-22.38,6.26l-22.38-6.26c0,0,0.02,0.13,0.04,0.33
				l-1.26-0.33c0,0,0.36,1.25,0.5,3.63c0.1,1.59,0.11,3.68-0.15,6.23c-0.45,4.62-1.78,10.75-4.95,18.1c0,0-2.07,5.31-16.48,7.15
				c0,0,1.06,3.86,3.65,9.21c0.31,0.63,0.63,1.28,0.98,1.95c0.87,1.67,1.88,3.44,3.04,5.26c1.85,2.91,4.09,5.93,6.76,8.82
				c2.66,7.56,8.53,13.92,15.33,14.97c3.39,0.53,6.59,0.76,9.63,0.75c1.21-0.01,2.4-0.05,3.56-0.13c0.58-0.04,1.15-0.09,1.72-0.15
				c0.57,0.06,1.14,0.11,1.72,0.15c1.16,0.08,2.35,0.13,3.56,0.13c3.03,0.01,6.24-0.22,9.63-0.75c6.79-1.05,12.67-7.41,15.33-14.97
				c2.67-2.89,4.91-5.91,6.76-8.82c1.16-1.82,2.17-3.59,3.04-5.26c0.7-1.33,1.31-2.6,1.83-3.77c1.98-4.38,2.8-7.39,2.8-7.39
				C229.32,178.22,227.25,172.91,227.25,172.91z"/>
			<path id="XMLID_789_" style="fill:#EF883B;" d="M321.75,294.23l-40.48-40.48l-3.46,109.3c-23.83,11.4-50.51,17.79-78.67,17.79
				c-28.33,0-55.17-6.45-79.1-17.97l-0.45-14.24l-3.01-94.87l-5.33,5.33H81.42c6.23-28.69,19.27-58.24,47.82-73.32
				c10.38-5.47,25.7-6.82,30.54-7.12c0.92-0.04,1.75,0.45,2.12,1.28c0.69,1.57,2.01,4.38,3.99,7.77c0.28,0.2,0.49,0.53,0.53,0.9
				c5.78,9.79,16.61,23.83,32.7,28.25c16.1-4.42,26.9-18.46,32.7-28.25c0.04-0.37,0.24-0.69,0.53-0.9c1.97-3.4,3.3-6.21,3.99-7.77
				c0.37-0.83,1.2-1.32,2.1-1.28c4.86,0.31,20.17,1.65,30.56,7.12C309.75,207.3,318.92,258.29,321.75,294.23z"/>
			<g id="XMLID_786_">
				<path id="XMLID_788_" style="fill:#D7732F;" d="M187.43,239.88c0,0,23.63,47.92,52.62,73.97
					C240.05,313.85,204.97,302.82,187.43,239.88z"/>
				<path id="XMLID_787_" style="fill:#D7732F;" d="M179.15,278.5c0,0,25.65,34.42,59.47,40.1
					C238.62,318.59,197.55,322.1,179.15,278.5z"/>
			</g>
			<path id="XMLID_785_" style="fill:#DD6747;" d="M222.29,154.81c-0.26-2.55-0.18-4.63-0.09-6.23l-0.93-1.79l-22.19,5.91
				l-22.19-5.91l-0.93,1.79c0.1,1.59,0.11,3.68-0.15,6.23c3.01,4.88,10.42,14.21,23.23,14.24v0c0.01,0,0.02,0,0.03,0
				c0.01,0,0.02,0,0.03,0v0C211.93,169.03,219.28,159.7,222.29,154.81z"/>
			<g id="XMLID_768_">
				<path id="XMLID_784_" style="fill:#FF8B66;" d="M158.78,102.91c0,0,2.52,8.44,4.58,19.44c1.14,6.07,0.26,9.11-5.11,8.27
					c-4.17-0.65-14.78-13.15-11.16-23.88C147.94,104.22,152.39,99.78,158.78,102.91z"/>
				<g id="XMLID_769_">
					<g id="XMLID_777_">
						<g>
							<path style="fill:#DD6747;" d="M153.89,109.53c2.99,3.21,3.98,7.63,3.95,11.89c0,0.34,0.49,0.33,0.53,0
								c0.42-4.3-1.08-9.13-4.1-12.26C154.03,108.92,153.66,109.28,153.89,109.53L153.89,109.53z"/>
						</g>
					</g>
					<g id="XMLID_770_">
						<g>
							<path style="fill:#DD6747;" d="M153.6,113.73c0.79,0.07,1.58,0.45,2.19,0.96c0.74,0.61,1.19,1.4,1.66,2.22
								c0.15,0.27,0.59,0.09,0.5-0.21c-0.29-0.98-0.99-1.88-1.78-2.51c-0.75-0.59-1.61-0.97-2.57-1
								C153.24,113.18,153.26,113.7,153.6,113.73L153.6,113.73z"/>
						</g>
					</g>
				</g>
			</g>
			<g id="XMLID_751_">
				<path id="XMLID_767_" style="fill:#FF8B66;" d="M240.19,130.62c-0.26,0.04-0.49,0.06-0.72,0.09c-4.72,0.45-5.48-2.58-4.39-8.36
					c0.15-0.78,0.29-1.54,0.44-2.3c1.97-9.85,4.14-17.13,4.14-17.13c6.39-3.13,10.84,1.31,11.68,3.83
					C254.98,117.46,244.36,129.97,240.19,130.62z"/>
				<g id="XMLID_752_">
					<g id="XMLID_760_">
						<g>
							<path style="fill:#DD6747;" d="M244.19,109.16c-3.02,3.13-4.53,7.96-4.1,12.26c0.03,0.33,0.53,0.34,0.53,0
								c-0.04-4.27,0.96-8.69,3.95-11.89C244.79,109.28,244.42,108.92,244.19,109.16L244.19,109.16z"/>
						</g>
					</g>
					<g id="XMLID_753_">
						<g>
							<path style="fill:#DD6747;" d="M244.85,113.19c-0.96,0.03-1.82,0.4-2.57,1c-0.79,0.63-1.49,1.53-1.78,2.51
								c-0.09,0.3,0.35,0.48,0.5,0.21c0.47-0.82,0.93-1.6,1.66-2.22c0.61-0.51,1.39-0.89,2.19-0.96
								C245.19,113.7,245.2,113.18,244.85,113.19L244.85,113.19z"/>
						</g>
					</g>
				</g>
			</g>
			<path id="XMLID_750_" style="opacity:0.5;fill:#DD6747;" d="M239.47,130.71c-4.72,0.45-5.48-2.58-4.39-8.36
				c0.15-0.78,0.29-1.54,0.44-2.3l0.96,0.39C236.48,120.43,236.53,130.45,239.47,130.71z"/>
			<path id="XMLID_749_" style="opacity:0.5;fill:#DD6747;" d="M158.97,130.71c4.72,0.45,5.48-2.58,4.39-8.36
				c-0.15-0.78-0.29-1.54-0.44-2.3l-0.96,0.39C161.96,120.43,161.92,130.45,158.97,130.71z"/>
			<path id="XMLID_748_" style="fill:#FF8B66;" d="M199.12,75.13h-47.56c0,0,4.05,13.77,6.84,29.31
				c4.64,25.9,5.73,59.11,40.73,59.11c35.35,0,36.11-33.12,40.7-59.07c2.72-15.36,6.86-29.35,6.86-29.35H199.12z"/>
			<path id="XMLID_747_" style="fill:#072735;" d="M248.88,63.52c-8.43-16.4-16.19,11.34-16.19,11.34l0.48,1.2l-3.92,1.02
				c5.3,2.15,10.58,27.4,10.58,27.4l3.77-2.31l0-0.01l0.01,0.02C243.61,102.18,257.31,79.92,248.88,63.52z"/>
			<g id="XMLID_741_">
				<g id="XMLID_745_">
					<path id="XMLID_746_" style="fill:#072735;" d="M172.04,100.8c4.17-3.11,10.76-4.14,15.2-1.72c0.39,0.21,1.97,0.64,2.32-0.78
						c0.21-0.85-1.13-1.82-1.48-2.05c-4.8-3.3-13.75-1.32-17.34,3.11c-0.24,0.3-0.5,1.36-0.07,1.67
						C171.01,101.27,171.77,101.01,172.04,100.8z"/>
				</g>
				<g id="XMLID_743_">
					<path id="XMLID_744_" style="fill:#072735;" d="M225.87,100.8c-4.17-3.11-10.76-4.14-15.2-1.72c-0.39,0.21-1.97,0.64-2.32-0.78
						c-0.21-0.85,1.13-1.82,1.48-2.05c4.8-3.3,13.75-1.32,17.34,3.11c0.24,0.3,0.5,1.36,0.07,1.67
						C226.91,101.27,226.15,101.01,225.87,100.8z"/>
				</g>
				<path id="XMLID_742_" style="fill:#072735;" d="M183.56,106.71c-0.01,2.22-1.27,4.01-2.81,4c-1.54-0.01-2.78-1.82-2.76-4.03
					c0.01-2.22,1.27-4.01,2.81-4C182.33,102.69,183.57,104.5,183.56,106.71z"/>
			</g>
			<g id="XMLID_739_">
				<path id="XMLID_740_" style="fill:#072735;" d="M214.36,106.71c0.01,2.22,1.27,4.01,2.81,4c1.54-0.01,2.78-1.82,2.76-4.03
					c-0.01-2.22-1.27-4.01-2.81-4C215.58,102.69,214.35,104.5,214.36,106.71z"/>
			</g>
			<path id="XMLID_738_" style="fill:none;stroke:#DD6747;stroke-width:0.4514;stroke-linecap:round;stroke-miterlimit:10;" d="
				M195.01,128.35c0,0,1.03,1.54,4.11,1.54c3.08,0,4.14-1.54,4.14-1.54"/>
			<path id="XMLID_737_" style="fill:#FF8B66;" d="M46.35,344.56c0,0,5.8-30.71,23.78-67.7l44.43,16.57c0,0-12.44,38.4-29.71,57.01"
				/>
			<path id="XMLID_690_" style="fill:#FF8B66;" d="M324.18,331.3c-10.93,10.28-23.16,19.21-36.38,26.56
				c-2.46-22.59-6.9-64.43-6.9-64.43l40.03-14.94C322.92,298.52,323.81,317.24,324.18,331.3z"/>
			<path id="XMLID_735_" style="fill:#EF883B;" d="M123.25,189.3c0,0-29.38,15.06-59.56,95.89c0,0,35.44,17.09,54.6,17.74
				L123.25,189.3z"/>
			<path id="XMLID_692_" style="fill:#EF883B;" d="M323.55,293.94c-9.41,4.64-27.64,8.06-43.83,8.93l-4.7-113.57
				c0,0,9.18,3.67,22.96,22.8c0.02,0,0.69,1.04,0.69,1.04C302.92,222.43,320.11,246.24,323.55,293.94z"/>
			<path id="XMLID_733_" style="fill:#C9593F;" d="M212.39,141.13c-2.62,1.38-7.94,2.39-13.26,2.4c-5.32,0-10.65-1.01-13.27-2.4
				c0,0-1.11-0.6-1.18-0.47c-0.08,0.14,0.83,1.01,1.16,1.28c2.58,2.12,8.26,3.57,13.27,3.58v0c0,0,0.01,0,0.01,0c0,0,0.01,0,0.01,0
				v0c5.01,0,10.69-1.46,13.27-3.58c0.33-0.28,1.24-1.15,1.17-1.28C213.5,140.53,212.39,141.13,212.39,141.13z"/>
			<path id="XMLID_732_" style="fill:#072735;" d="M159.34,51.76c0,0-4.88-5.46-1.54-14.39c2.5-6.7,10.5-10.5,18.78-7.32
				c9.52,3.65,21.75-3.36,31.41,2.41c5.33,3.18,11.04,6.02,17.3,7.12c13.99,2.46,22.38-6.36,31.79,9.03
				c9.09,14.87-8.67,38.28-37.15,37.52c-28.47-0.76-42.01-13.01-53.05-8.41c-11.04,4.6-12.82-16-12.82-16L159.34,51.76z"/>
			<path id="XMLID_731_" style="fill:#072735;" d="M166.51,76.4l-7.17-24.64c0,0-18-6.12-18.03,10.03
				c-0.01,8.48,5.92,11.86,7.93,17.72c-5.85,19.52,5.38,22.62,5.38,22.62l3.77,2.31c0,0,5.28-25.25,10.58-27.4L166.51,76.4z"/>
			<path id="XMLID_728_" style="fill:#D7732F;" d="M275.01,226.96c0,0,0,31.12,4.72,75.91"/>
			<path id="XMLID_725_" style="fill:#D7732F;" d="M122.91,226.96c0,0,0,31.12-4.72,75.91"/>
			<g id="XMLID_718_">
				<g>
					<path style="fill:#072735;" d="M165.43,76.6c11.06-2.25,20.62,5.53,29.96,10.05c9.27,4.48,20.08,5.69,29.95,2.42
						c4.18-1.38,8.42-3.92,9.71-8.39c0.27-0.93-1.17-1.32-1.44-0.4c-1.21,4.18-5.45,6.39-9.34,7.56
						c-4.89,1.48-10.09,1.91-15.17,1.35c-5.23-0.57-10.13-2.34-14.78-4.75c-4.47-2.32-8.74-5.05-13.39-7.02
						c-5.03-2.13-10.47-3.37-15.9-2.26C164.09,75.35,164.49,76.79,165.43,76.6L165.43,76.6z"/>
				</g>
			</g>
			<g id="XMLID_711_">
				<g>
					<path style="fill:#072735;" d="M162.6,45.26c-6.26-2.09-15.2-3.03-19.77,2.78c-2.12,2.69-2.95,6.14-2.86,9.52
						c0.09,3.18,0.88,6.56,3.31,8.78c0.71,0.65,1.77-0.4,1.06-1.06c-2.23-2.04-2.85-5.2-2.88-8.11c-0.03-3.07,0.78-6.23,2.83-8.58
						c2.09-2.4,4.85-3.21,7.95-3.34c3.39-0.15,6.74,0.36,9.95,1.44C163.12,47.01,163.51,45.57,162.6,45.26L162.6,45.26z"/>
				</g>
			</g>
			<path id="XMLID_710_" style="fill:#F4A36C;" d="M243.73,239.88h-22.65c0,0,0.7,26.68,3.51,31.34
				c2.81,4.67,15.77,14.12,19.13,13.97c3.37,0.15,16.32-9.3,19.13-13.97c2.81-4.67,3.51-31.34,3.51-31.34H243.73z"/>
		</g>
		<path id="XMLID_251_" style="fill:#FF8B66;" d="M104.61,183.56c-0.37-3.28-0.45-7.19-3.17-7.01c-2.73,0.17-4.46,5.91-5.04,7.21
			c-0.58,1.29-1.73,3.91-4.29,5.62c-2.55,1.71-8.37,1.04-10.54-2.96c-2.17-4.01,1.82-9.8,1.82-9.8s4.1-2.99,6.33-4.02
			c2.23-1.03,4.46,0.39,4.46,0.39c1.82,3.14,6.01,4.95,7.52,3.08c1.51-1.87-0.81-6.98-1.58-8.7c-0.77-1.73-6.46-5.07-11.88-5.47
			c-5.42-0.4-12.83,7.76-12.83,7.76c-2.78,1.65-1.06-8.59-1.43-12.2c-0.37-3.61-0.22-8.19-0.35-11.43
			c-0.13-3.25,0.27-9.85-1.01-16.13c-1.28-6.28-5.76-6.89-6.43-5.81c-0.67,1.08-1.11,16.49-1.43,19.69
			c-0.32,3.2-2.65,16.68-2.65,16.68s-2.87-11.52-2.74-14.2c0.13-2.68,0.4-4.16,0.11-10.09c-0.3-5.93-3.65-7.43-5.09-6.9
			c-1.45,0.53-3.02,10.77-3.21,12.48c-0.19,1.71,0.21,9.16,0.3,14.2c0.1,5.04,3.37,17.08,3.37,17.08
			c-4.04-1.89-6.79-8.01-8.48-12.49c-1.69-4.48-5.52-7.79-7.93-7.3c-2.41,0.48-0.52,3.55,2.1,12.25c2.62,8.71,5.24,11.8,8.97,16.46
			c3.22,4.01,6.76,12.99,6.88,19.92l0,0c0,11.17-1.11,35.55-3.1,43.63c-4.82,19.6-12.88,47.09-11.94,77.03
			c1.51,48.74,45.79,40.96,49.94,15.12c6.98-43.59-14.94-74.93-8.69-107.89c0.02-0.08,0.03-0.19,0.04-0.32
			c0.73-6.7,3.45-13,7.26-18.57c2.06-3.01,3.8-6.1,4.89-8.4c2.74-5.79,5.56-7.31,7.59-10.17
			C104.41,189.41,104.94,186.46,104.61,183.56z"/>
		<g id="XMLID_326_">
			<path style="fill:#DD6747;" d="M92.48,326.41c-0.03-1.83-0.1-3.67-0.19-5.5c-0.07-1.83-0.16-3.66-0.27-5.49
				c-0.21-3.66-0.46-7.31-0.82-10.96c-0.32-3.65-0.78-7.28-1.29-10.91c-0.3-1.81-0.55-3.62-0.92-5.42c-0.3-1.81-0.73-3.59-1.12-5.39
				c1.04,3.52,1.85,7.11,2.49,10.73c0.61,3.62,1.06,7.27,1.43,10.93c0.31,3.66,0.57,7.33,0.68,11
				C92.59,319.07,92.61,322.74,92.48,326.41z"/>
		</g>
		<g id="XMLID_791_">
			<path id="XMLID_794_" style="fill:#66E2CA;" d="M214.78,119.87c-9.11,0-8.77-2.55-15.58-2.55c-6.81,0-6.48,2.55-15.58,2.55
				c-12.47,0-22.84,5.23-22.84,5.23c7.55,43.02,38.42,39.63,38.42,39.63s30.88,3.39,38.42-39.63
				C237.62,125.1,227.25,119.87,214.78,119.87z"/>
			<path id="XMLID_793_" style="fill:none;stroke:#66E2CA;stroke-width:0.9355;stroke-linecap:round;stroke-miterlimit:10;" d="
				M158.6,104.33c0,0,0.26,5.39,3.3,21.79"/>
			<path id="XMLID_792_" style="fill:none;stroke:#66E2CA;stroke-width:0.9355;stroke-linecap:round;stroke-miterlimit:10;" d="
				M240.03,104.37c0,0-0.43,5.35-3.46,21.75"/>
		</g>
	</g>
</g>
<g id="Capa_5">
	<path style="fill:#FFF5DB;" d="M186.21,314.31c-16.95,7.47-35.82,9.68-52.85,0.6c-8.38-4.47-15.44-11.87-19.21-20.63
		c-3.82-8.9-1.92-18.82-7.3-27.16c-9.21-14.3-27.7-12.15-41.13-19.45c-15.53-8.43-25.07-28.22-18.65-45.17
		c2.41-6.35,6.03-12.2,8.3-18.6c6.71-18.99,0.66-39.82-4.86-59.19c-9.34-32.83-8.41-66.78,20.28-89.88
		c31.35-25.24,61.36-9.58,96.38-7.9c26.57,1.27,44.54-17.08,69.65-19.43c15.09-1.41,31.01,1.84,42.98,11.14
		c11.23,8.72,17.72,21.5,24.91,33.42c7.81,12.95,17,22.26,27.55,32.84c9.67,9.69,19.1,20.26,23.53,33.21
		c4.67,13.66,2.31,28.67-8.21,38.83c-9.73,9.39-24.63,12.88-27.06,28.17c-3.13,19.77,10.11,38.57,8.66,58.17
		c-0.99,13.34-5.71,26.78-15.14,36.27c-17.14,17.26-37.32,10.36-57.85,5.31c-17.8-4.38-29.16,0.17-42.41,11.7
		C205.82,303.48,196.36,309.83,186.21,314.31z"/>
	<path style="fill:#FFFFFF;stroke:#B3B3B3;stroke-miterlimit:10;" d="M116.38,164.02c1.74-2.72,4.8-4.69,8.03-4.61
		c-2.32-2.66-4.08-6.01-4.02-9.54c0.06-3.53,2.3-7.15,5.72-8.03c3.42-0.88,7.52,1.87,7.34,5.39c0.68-5.64,6.21-9.62,11.78-10.73
		c4.75-0.95,9.8-0.3,14.16,1.81c16.21,7.83,19.34,32.48,9.82,46.41c-11.05,16.17-27.28,18.32-42.78,7.32
		C118.12,186.13,109.75,174.37,116.38,164.02z"/>
	<path style="fill:#F79886;" d="M72.92,370.9c16.84-36.9,33.68-73.79,50.51-110.68c5.22-11.44,10.49-23.11,14.19-35.11
		c0.83-2.67,1.57-5.37,2.22-8.08c0.35-1.44,0.66-2.89,0.95-4.35c0.06-0.29,0.12-0.59,0.17-0.88c0.82-4.33,1.37-8.7,1.56-13.12
		c0.03-0.61,0.05-1.23,0.07-1.84c0.11-4.49-0.15-8.94-0.68-13.36c-0.4-3.38-0.96-6.74-1.63-10.08c-1.98-9.81-4.94-19.51-7.83-29.24
		c-3-10.09-5.92-20.21-7.57-30.52c-0.37-2.32-0.66-4.76,0.22-6.93c1.05-2.59,3.88-4.03,6.41-2.65c2.28,1.25,3.46,3.67,4.54,5.92
		c1.65,3.45,3.19,6.96,4.61,10.51c1.02,2.55,1.98,5.11,2.89,7.7c0.94,2.69,1.82,5.41,2.63,8.14c0.59,1.97,1.14,3.96,1.66,5.96
		c0.57,2.18,3.08,2.84,4.84,1.42c1.75-1.42,2.27-3.84,2.59-6.07c0.04-0.27,0.08-0.55,0.12-0.82c0.59-4.35,0.86-8.74,0.97-13.13
		c0.37-16.23-1.61-32.63,1.17-48.62c0.74-4.22,2.95-8.76,7.15-9.6c3.08-0.62,6.19,1.46,7.77,4.17c1.57,2.72,1.53,5.55,1.81,8.68
		c1.29,14.84,1.34,29.76,1.27,44.67c-0.01,1.99-0.02,3.98-0.03,5.96c0,0.32,0,0.64,0,0.96c-0.02,2.82,0,5.76,1.29,8.27
		c1.29,2.51,4.27,4.39,6.93,3.46c2.69-0.94,3.8-4.08,4.53-6.83c1.01-3.79,1.97-7.6,2.89-11.41c0.89-3.67,1.76-7.35,2.61-11.04
		c3.26-14.01,6.4-28.05,10.47-41.83c0.79-2.67,1.65-5.41,3.39-7.59c1.75-2.17,4.59-3.69,7.31-3.09c2.96,0.66,4.94,3.63,5.4,6.63
		c0.47,2.99-0.26,6.03-0.95,8.98c-1.09,4.68-2.11,9.37-3.05,14.08c-1.31,6.56-4.84,26.41-6.21,34.91c-0.29,1.84-0.49,3.15-0.54,3.68
		c-0.26,2.87-0.39,5.75-0.53,8.63c-0.03,0.54,0.09,1.15,0.52,1.47c0.29,0.21,0.67,0.27,1.02,0.25c0.34-0.02,0.66-0.08,0.96-0.19
		c1.21-0.41,2.14-1.48,2.9-2.72c0.92-1.49,1.58-3.26,2.19-4.45c1.33-2.63,2.51-5.32,3.7-8.01c0.66-1.48,1.31-2.97,1.98-4.45
		c4.37-9.7,9.09-19.29,15.41-27.83c1.48-2,3.12-4,5.34-5.12c2.22-1.12,5.19-1.13,6.98,0.6c2.46,2.39,1.58,6.46,0.47,9.71
		c-5.46,15.97-12.11,31.58-18.06,47.38c-0.31,0.82-0.61,1.64-0.92,2.45c-1.73,4.65-3.38,9.31-4.92,14.01
		c-2.51,7.64-4.7,15.37-6.38,23.25c-0.38,1.79-0.74,3.65-0.36,5.44c0.38,1.79,1.68,3.51,3.49,3.82c1.17,0.19,2.34-0.21,3.42-0.69
		c0.17-0.08,0.34-0.15,0.51-0.23c3.72-1.73,6.98-4.31,10.27-6.81c0,0,0,0,0,0c0.55-0.42,1.11-0.84,1.67-1.25
		c0.11-0.08,0.22-0.16,0.33-0.23c0.45-0.33,0.91-0.66,1.37-0.97c6.65-4.64,13.95-8.36,21.6-11.03c0.48-0.17,0.96-0.33,1.44-0.49
		c2.79-0.92,5.77-1.71,8.64-1.09c2.52,0.55,4.9,2.52,5.35,4.97c0.07,0.34,0.1,0.7,0.08,1.05c-0.09,2.32-1.79,4.21-3.42,5.87
		c-1.44,1.46-2.89,2.91-4.36,4.35c-2.31,2.24-4.66,4.45-7.04,6.61c-7.14,6.46-14.63,12.52-22.44,18.16
		c-5.34,3.86-10.82,7.51-16.44,10.96c-5.03,3.08-9.3,7.43-13.72,11.33c-3.34,2.95-6.71,5.92-9.55,9.33
		c-0.68,0.81-1.33,1.65-1.94,2.52c-1.99,2.82-3.55,5.91-4.96,9.07c-0.59,1.34-1.16,2.68-1.72,4.03
		c-13.59,32.49-24.93,65.92-33.91,99.98"/>
	<g>
		<path style="fill:#FFB298;" d="M246.59,87.13c-2.52-0.26-4.91,1.32-6.55,3.3c-0.08,0.03-0.15,0.07-0.2,0.16
			c-0.52,0.89-1.88,2.28-1.34,3.36c0.54,1.09,3.08,1.87,4.15,2.29c1.12,0.44,4.22,1.84,5.4,1.15c0.97-0.56,1.31-2.68,1.57-3.68
			C250.28,91.12,249.88,87.47,246.59,87.13z"/>
		<path style="fill:#FFB298;" d="M213.99,62.55c-2.53,0.1-4.67,2.01-6.01,4.2c-0.07,0.04-0.13,0.09-0.17,0.19
			c-0.38,0.95-1.53,2.53-0.85,3.51c0.69,1,3.32,1.41,4.44,1.67c1.17,0.28,4.44,1.22,5.51,0.37c0.87-0.69,0.92-2.84,1.03-3.87
			C218.2,65.98,217.29,62.42,213.99,62.55z"/>
		<path style="fill:#FFB298;" d="M165.13,68.09c-2.43,0.73-3.93,3.28-4.57,5.94c-0.06,0.06-0.1,0.13-0.11,0.24
			c-0.08,1.1-0.72,3.05,0.24,3.92c0.97,0.88,3.65,0.66,4.81,0.66c1.22,0,4.68,0.18,5.46-0.98c0.64-0.95,0.03-3.23-0.17-4.34
			C170.26,70.66,168.29,67.13,165.13,68.09z"/>
		<path style="fill:#FFB298;" d="M128.27,105.85c-1.72,1.08-2.24,3.45-2.07,5.74c-0.03,0.06-0.05,0.13-0.02,0.22
			c0.22,0.92,0.21,2.63,1.19,3.15c0.99,0.53,3.03-0.18,3.94-0.41c0.96-0.24,3.72-0.78,4.03-1.88c0.26-0.9-0.8-2.64-1.24-3.5
			C132.95,106.94,130.51,104.45,128.27,105.85z"/>
		<path style="fill:#FFB298;" d="M278.07,175.62c-0.09,2.32-1.79,4.21-3.42,5.87c-1.44,1.46-2.89,2.91-4.36,4.35
			c-1-0.66-1.95-2.93-2.68-3.93c-0.24-0.33-0.49-0.67-0.54-1.08c-0.09-0.72,0.47-1.35,1.01-1.83c2.08-1.87,4.54-3.3,7.19-4.2
			c0.86-0.29,1.89-0.48,2.73-0.24C278.06,174.91,278.09,175.26,278.07,175.62z"/>
	</g>
	<path style="fill:#FFFFFF;stroke:#999999;stroke-miterlimit:10;" d="M194.79,232.9c-0.66,5.87-4.84,11.12-10.28,13.43
		c-5.44,2.31-11.92,1.75-17.09-1.12c-5.28-2.94-9.36-9.11-7.69-14.92c-2.3,0.62-5.17,0.25-7.02-1.25c-1.85-1.49-2.36-4.66-0.58-6.24
		c-5.3-1.04-11.46-3.69-14.34-8.25c-2.18-3.45-2.52-7.73-2.49-11.81c0.03-3.85,0.34-7.76,1.62-11.4c3.41-9.66,14.2-16.1,24.32-14.51
		c-2.35-0.47-4.7-3-5.79-5.13c-1.08-2.13-1.42-4.57-1.48-6.96c-0.07-2.66,0.21-5.42,1.48-7.76c2.45-4.52,8.74-6.46,13.31-4.09
		c1.11-9.5-1.17-16.89,7.02-24.16c7.54-6.69,18.68-7.62,26-0.17c4.07,4.14,6.23,9.86,7,15.61c0.49-3.37,2.4-5.77,4.98-7.98
		c2.39-2.05,5.34-3.71,8.48-3.63c3.43,0.09,6.58,2.33,8.34,5.28c1.76,2.95,2.27,6.51,2.07,9.94c5.16-2.52,10.29-1.77,15.84-0.3
		c2.82,0.75,5.55,2.05,7.6,4.13c2.27,2.29,3.57,5.37,4.57,8.44c1.46,4.5,2.38,9.29,1.64,13.97c-0.73,4.68-3.32,9.23-7.5,11.46
		c4.99-0.18,9.56,5.83,8.75,10.76c-0.82,4.93-6.7,8.3-11.37,6.52c4.38,6.36,3.43,16.49-1.41,22.52c-4.84,6.02-13.78,8.34-20.94,5.43
		c1.53,5.25-2.71,11.14-8.1,12.06c-5.39,0.92-10.98-2.59-13.24-7.57c-0.11,4.1-4.29,7.6-8.34,6.99
		C196.1,241.53,193.68,236.84,194.79,232.9z"/>
	<path style="fill:#FFB298;" d="M310.53,379c-11.35-35.72-24.16-70.93-39.09-105.31c-6.09-14.03-12.49-27.95-20.04-41.25
		c-3.85-6.79-8.04-13.49-10.33-20.96c-4.49-14.6-1.29-30.29,1.05-45.38c0.69-4.47,1.29-9.17-0.27-13.42
		c-1.56-4.25-5.99-7.8-10.4-6.79c-0.76-0.25-1.41,0.14-2.06,0.6c-0.66,0.45-1.15,1.1-1.64,1.73c-0.7,0.9-1.39,1.81-2.09,2.71
		c0.49-4.41,0.72-8.27,1.21-12.68c0.37-3.37,0.75-6.77,0.32-10.13c-0.43-3.36-1.75-6.72-4.28-8.98c-2.53-2.26-6.4-3.16-9.43-1.65
		c-0.91,0.45-1.73,1.12-2.22,2.02c-0.49,0.91-0.6,1.96-0.73,2.99c-0.86,6.47-5.78,12.72-9.66,17.97c-1.63-7.4-2.3-14.36-4.2-21.4
		c-0.95-3.51-2.37-7.32-5.6-8.99c-1.95-1-3.44-1.04-5.63-0.96c-3.8,0.14-5.68,0.83-7.88,3.93c-1.43,2-1.66,4.59-1.81,7.05
		c-0.35,5.95-1.26,11.91-1.12,17.86c0.02,1.09,0.02,2.29-0.67,3.13c-0.69,0.84-2.07,0.73-2.66-0.18
		c-5.08-7.84-9.5-11.78-15.15-17.41c-0.72-0.72-1.51-1.47-2.51-1.62c-0.88-0.13-1.75,0.22-2.56,0.58c-2.38,1.06-6.04,2.79-7.23,5.11
		c-1.54,2.99-0.5,6.6,0.56,9.78c0.97,2.91,1.96,5.87,3.7,8.4c0.96,1.4,2.13,2.64,3.06,4.06c1.28,1.95,2.07,4.18,2.77,6.41
		c1.42,4.48,2.55,9.06,3.38,13.69c0.81,4.56,0.36,9.27-0.53,13.81c-0.26,1.32-0.64,2.74-1.68,3.59c-1.38,1.14-3.51,0.88-4.99-0.1
		c-1.49-0.99-2.48-2.54-3.43-4.05c-1.42-2.26-2.84-4.52-4.26-6.78c-0.64-1.01-0.81-2.23-1.85-2.81c-1.63-0.92-3.76,0.27-4.65,1.91
		c-0.9,1.64-0.98,3.58-1.36,5.41c-1.01,4.82-4.22,9.19-4,14.11c0.17,3.82,2.4,7.2,4.62,10.31c2.73,3.81,5.57,7.54,8.69,11.04
		c10.02,11.22,22.67,19.78,35.65,27.39c8.13,4.77,17.03,9.83,20.67,18.53c18.16,43.33,31.58,87.85,39.14,134.23"/>
	<g>
		<path style="fill:#FFFFFF;" d="M161.1,195.52c6.72-2.06,15.25,3.1,14.85,10.12c0.67-3.84,5.15-6.53,8.86-5.31
			c3.71,1.22,5.72,6.03,3.98,9.53c5.38,0.14,10.87,2.01,14.6,5.9c3.73,3.88,5.37,9.93,3.3,14.9c-2.07,4.97-8.18,8.13-13.21,6.23
			c1.03,4.95,0.84,10.33-1.58,14.77c-2.42,4.44-7.35,7.69-12.38,7.17c-5.03-0.52-9.45-5.49-8.54-10.47
			c-5.2,6.1-15.45,6.97-21.6,1.82c-6.15-5.15-7.1-15.39-2.01-21.58c-5.81,2.02-12.54-3.99-11.58-10.06
			c0.46-2.91,2.52-5.28,5.05-6.67c2.22-1.21,7.05-0.09,8.43-1.15c1.65-1.27,2.27-6.74,3.67-8.79
			C154.92,198.99,157.66,196.58,161.1,195.52z"/>
		<path style="fill:#FFFFFF;" d="M184.04,182.02l-0.01-0.06l-0.26-1.96c-0.01-0.04-0.02-0.08-0.03-0.12l-0.74-1.76
			c-0.01-0.02-0.02-0.04-0.03-0.06c-0.31-0.58-0.75-1.1-1.2-1.57c-0.03-0.03-0.05-0.05-0.08-0.08c-0.14-0.14-1.36-1.08-1.54-1.18
			c-0.3-0.18-0.65-0.29-0.95-0.41c0.1,0.04-0.66-0.32-0.96-0.4c-0.33-0.09-0.78-0.12-1.04-0.15c0.04,0-0.8-0.14-1.09-0.14
			c-0.04,0-0.08,0-0.12,0c-0.26,0.01-1.76,0.21-2.01,0.27c-0.37,0.09-0.74,0.29-1.07,0.43c-1.11,0.47-0.82,0.3-1.77,1.04
			c-0.24,0.18-0.57,0.39-0.81,0.63c-0.15,0.15-1.07,1.35-1.19,1.53c-0.02,0.03-0.04,0.06-0.06,0.1c-0.14,0.3-0.27,0.6-0.38,0.91
			c-0.15,0.3-0.28,0.61-0.39,0.93c0,0,0,0,0,0.01c-0.28,0.78-0.42,1.6-0.42,2.46c0.04,0.34,0.09,0.69,0.14,1.03
			c0.02,0.35,0.06,0.69,0.14,1.03c0.1,0.32,0.23,0.63,0.39,0.93c0.13,0.31,0.26,0.62,0.39,0.92c0.17,0.3,0.44,0.59,0.63,0.83
			c0.27,0.35,0.41,0.57,0.66,0.83c0.48,0.5,1.07,0.93,1.68,1.27l1.76,0.74c0.03,0.01,0.06,0.03,0.1,0.04
			c0.04,0.01,0.09,0.02,0.13,0.03c0.73,0.15,1.46,0.29,2.19,0.27c1.54-0.04,2.56-0.35,3.91-1.05c0.04-0.02,0.07-0.04,0.11-0.06
			c0.02-0.01,0.04-0.03,0.06-0.04c0.5-0.38,0.99-0.77,1.49-1.15c0.03-0.02,0.05-0.04,0.07-0.07c0.38-0.5,0.77-0.99,1.15-1.49
			c0.03-0.04,0.05-0.09,0.08-0.13l0.74-1.76c0.01-0.03,0.02-0.05,0.03-0.08c0.21-0.66,0.3-1.39,0.28-2.07c0-0.03,0-0.05,0-0.08
			l-0.01-0.08c0.01-0.05,0.01-0.11,0.02-0.16C184.03,182.1,184.04,182.06,184.04,182.02z"/>
		<path style="fill:#FFFFFF;" d="M207.56,240.3c-3.64,0-7.13,3.2-6.96,6.96c0.17,3.77,3.06,6.96,6.96,6.96
			c3.64,0,7.13-3.2,6.96-6.96C214.35,243.49,211.46,240.3,207.56,240.3z"/>
		<path style="fill:#FFFFFF;" d="M204.1,188.59c3.67,0.98,8.02-1.43,8.76-5.15c-0.37,3.41-0.72,6.95,0.39,10.19
			c1.12,3.24,4.16,6.09,7.58,5.82c3.04-0.25,5.48-2.93,6.21-5.89c0.72-2.96,0.02-6.1-1.13-8.92c6.19,3.64,15.34,0.22,17.63-6.59
			c0.74-2.2,0.79-4.74-0.41-6.73c-1.44-2.38-4.44-3.49-7.22-3.33c-2.78,0.16-5.39,1.39-7.8,2.78c1.32-2.7,1.62-6.01,0.27-8.7
			c-1.35-2.69-4.55-4.48-7.46-3.74c-3.8,0.97-5.52,5.29-6.67,9.04c1.19-5.06-1.49-10.77-6.14-13.1c-2.88-1.44-6.22-1.63-9.43-1.47
			c-1.35,0.07-2.73,0.2-3.94,0.79c-1.19,0.59-2.13,1.59-2.83,2.71c-1.92,3.05-2.09,7.18-0.45,10.39c1.58,3.09,6.3,3.75,7.52,6.23
			C201.34,177.69,194.6,186.05,204.1,188.59z"/>
	</g>
	<path style="fill:none;" d="M186.21,314.31c-16.95,7.47-35.82,9.68-52.85,0.6c-8.38-4.47-15.44-11.87-19.21-20.63
		c-3.82-8.9-1.92-18.82-7.3-27.16c-9.21-14.3-27.7-12.15-41.13-19.45c-15.53-8.43-25.07-28.22-18.65-45.17
		c2.41-6.35,6.03-12.2,8.3-18.6c6.71-18.99,0.66-39.82-4.86-59.19c-9.34-32.83-8.41-66.78,20.28-89.88
		c31.35-25.24,61.36-9.58,96.38-7.9c26.57,1.27,44.54-17.08,69.65-19.43c15.09-1.41,31.01,1.84,42.98,11.14
		c11.23,8.72,17.72,21.5,24.91,33.42c7.81,12.95,17,22.26,27.55,32.84c9.67,9.69,19.1,20.26,23.53,33.21
		c4.67,13.66,2.31,28.67-8.21,38.83c-9.73,9.39-24.63,12.88-27.06,28.17c-3.13,19.77,10.11,38.57,8.66,58.17
		c-0.99,13.34-5.71,26.78-15.14,36.27c-17.14,17.26-37.32,10.36-57.85,5.31c-17.8-4.38-29.16,0.17-42.41,11.7
		C205.82,303.48,196.36,309.83,186.21,314.31z"/>
	<g>
		
			<ellipse transform="matrix(0.2287 -0.9735 0.9735 0.2287 -48.8948 188.265)" style="opacity:0.45;fill:#FFFFFF;" cx="94.36" cy="124.99" rx="7.68" ry="7.68"/>
		<circle style="opacity:0.45;fill:#FFFFFF;" cx="81.34" cy="76.32" r="7.68"/>
		<circle style="opacity:0.45;fill:#FFFFFF;" cx="298.47" cy="298.5" r="7.68"/>
		<circle style="opacity:0.45;fill:#FFFFFF;" cx="98.65" cy="238.63" r="7.68"/>
		
			<ellipse transform="matrix(0.7071 -0.7071 0.7071 0.7071 -4.1626 158.4561)" style="opacity:0.45;fill:#FFFFFF;" cx="189.19" cy="84.25" rx="7.68" ry="7.68"/>
		
			<ellipse transform="matrix(0.2287 -0.9735 0.9735 0.2287 53.5689 435.1254)" style="opacity:0.45;fill:#FFFFFF;" cx="301.38" cy="183.76" rx="7.68" ry="7.68"/>
		<circle style="opacity:0.45;fill:#FFFFFF;" cx="330.27" cy="258.51" r="10.63"/>
		
			<ellipse transform="matrix(0.5909 -0.8067 0.8067 0.5909 -8.2244 287.7224)" style="opacity:0.45;fill:#FFFFFF;" cx="279.6" cy="151.97" rx="7.68" ry="7.68"/>
		<circle style="opacity:0.45;fill:#FFFFFF;" cx="121.08" cy="106.29" r="9.44"/>
		<circle style="opacity:0.45;fill:#FFFFFF;" cx="101.04" cy="183.76" r="9.44"/>
		<circle style="opacity:0.45;fill:#FFFFFF;" cx="238.61" cy="67.56" r="9.44"/>
		<circle style="opacity:0.45;fill:#FFFFFF;" cx="175.84" cy="26.82" r="9.44"/>
		<circle style="opacity:0.45;fill:#FFFFFF;" cx="296.78" cy="36.4" r="16.33"/>
		<circle style="opacity:0.45;fill:#FFFFFF;" cx="62.57" cy="206.9" r="16.33"/>
		<circle style="opacity:0.45;fill:#FFFFFF;" cx="58.25" cy="115.27" r="16.33"/>
		<path style="opacity:0.87;fill:#FFFFFF;" d="M183.85,68.89c1.48,1.48,1.48,3.87,0,5.34c-1.48,1.48-3.87,1.48-5.34,0
			c-1.48-1.48-1.48-3.87,0-5.34C179.98,67.42,182.37,67.42,183.85,68.89z"/>
		<circle style="opacity:0.87;fill:#FFFFFF;" cx="314.34" cy="236.46" r="3.78"/>
		<path style="opacity:0.87;fill:#FFFFFF;" d="M119.07,193.77c1.48,1.48,1.48,3.87,0,5.34c-1.48,1.48-3.87,1.48-5.34,0
			c-1.48-1.48-1.48-3.87,0-5.34C115.2,192.3,117.6,192.3,119.07,193.77z"/>
		<path style="opacity:0.87;fill:#FFFFFF;" d="M288.03,185.76c1.48,1.48,1.48,3.87,0,5.34c-1.48,1.48-3.87,1.48-5.34,0
			c-1.48-1.48-1.48-3.87,0-5.34C284.16,184.28,286.55,184.28,288.03,185.76z"/>
		<path style="opacity:0.87;fill:#FFFFFF;" d="M310.01,87.14c1.48,1.48,1.48,3.87,0,5.34c-1.48,1.48-3.87,1.48-5.34,0
			c-1.48-1.48-1.48-3.87,0-5.34C306.14,85.67,308.53,85.67,310.01,87.14z"/>
		<circle style="opacity:0.87;fill:#FFFFFF;" cx="236.43" cy="30.87" r="3.78"/>
		<path style="opacity:0.87;fill:#FFFFFF;" d="M253.3,133c1.48,1.48,1.48,3.87,0,5.34c-1.48,1.48-3.87,1.48-5.34,0
			c-1.48-1.48-1.48-3.87,0-5.34C249.43,131.53,251.83,131.53,253.3,133z"/>
		<g>
			<circle style="opacity:0.59;fill:#FFFFFF;" cx="125.75" cy="62.22" r="21.7"/>
			<g>
				<path style="fill:#FFFFFF;" d="M136.72,62.22c0.14,2.61-0.93,5.3-3.76,7.47c-4.19,3.2-10.64,2.43-13.71-1.92
					c-2.78-3.95-2.13-9.79,1.56-12.93C127.61,49.06,136.36,55.34,136.72,62.22z"/>
				<g>
					<path style="fill:#E6E6E6;" d="M121,62.29c-0.48-0.53-1.35-0.57-1.79,0.04c-0.57,0.78-0.08,2.36,0.93,2.53
						c0.54,0.09,1.11-0.18,1.23-0.71c0.02-0.05,0.05-0.09,0.07-0.15C121.6,63.43,121.4,62.72,121,62.29z"/>
					<path style="fill:#E6E6E6;" d="M123.38,56.62c-0.14-0.4-0.57-0.74-1.02-0.58c-0.17,0.06-0.33,0.15-0.46,0.26
						c-0.74,0.35-0.74,1.73,0.21,1.95c0.44,0.1,0.89-0.06,1.15-0.43C123.51,57.46,123.53,57.03,123.38,56.62z"/>
					<path style="fill:#E6E6E6;" d="M124.62,60.33c-0.02-0.01-0.04-0.03-0.05-0.04c-0.48-0.38-1.08-0.09-1.11,0.47
						c-0.01,0-0.01-0.01-0.02-0.01c0,0.02,0,0.04,0,0.06c0.01,0.12,0.04,0.23,0.09,0.32c0.12,0.24,0.35,0.41,0.63,0.4
						c0.19-0.01,0.34-0.1,0.44-0.23C124.86,61.04,124.94,60.58,124.62,60.33z"/>
					<path style="fill:#E6E6E6;" d="M129.14,54.88c-0.29-0.28-0.74-0.63-1.14-0.74c-0.63-0.17-1.25,0.05-1.61,0.61
						c-0.31,0.49-0.24,1.13,0.05,1.61c0.46,0.75,1.48,1.26,2.28,0.82c0.4-0.1,0.68-0.44,0.83-0.82
						C129.76,55.84,129.52,55.24,129.14,54.88z"/>
					<path style="fill:#E6E6E6;" d="M133.88,59.5c-0.33-0.84-1.06-1.67-2.04-1.15c-1,0.53-0.81,1.74-0.13,2.44
						c0.31,0.32,0.7,0.54,1.16,0.52c0.66-0.02,1.18-0.57,1.16-1.23C134.03,59.89,133.97,59.69,133.88,59.5z"/>
					<path style="fill:#E6E6E6;" d="M130.36,59.56c-0.21-0.46-0.75-0.64-1.21-0.53c-0.38,0.09-0.65,0.46-0.68,0.85
						c-0.11,0.6,0.34,1.23,1,1.23C130.31,61.11,130.67,60.25,130.36,59.56z"/>
					<path style="fill:#E6E6E6;" d="M129.23,63.47c-0.38-0.58-1.13-0.7-1.68-0.29c-0.32,0.24-0.56,0.6-0.67,0.98
						c-0.24,0.86,0.2,2.1,1.27,1.97c0.4-0.05,0.66-0.25,0.81-0.53C129.46,65.04,129.66,64.14,129.23,63.47z"/>
					<path style="fill:#E6E6E6;" d="M135.26,63.15c-0.17-0.39-0.62-0.65-1.04-0.51c-0.66,0.21-0.89,0.9-0.56,1.49
						c0.18,0.31,0.55,0.48,0.9,0.43c0.32-0.05,0.7-0.29,0.75-0.64c0.02-0.15,0.03-0.27,0.02-0.39
						C135.32,63.38,135.3,63.26,135.26,63.15z"/>
					<path style="fill:#E6E6E6;" d="M131.8,67.56c-0.05-0.68-0.61-1.13-1.29-0.98c-0.49,0.11-0.9,0.5-1.02,0.99
						c-0.14,0.56,0.18,1.23,0.77,1.37c0.55,0.13,1.08-0.17,1.31-0.66C131.74,68.08,131.83,67.84,131.8,67.56z"/>
					<path style="fill:#E6E6E6;" d="M125.63,67.63c-0.07-0.15-0.2-0.27-0.33-0.36c-0.27-0.3-0.63-0.52-1.01-0.59
						c-0.44-0.07-0.85,0.02-1.14,0.39c-0.25,0.32-0.33,0.85-0.08,1.2c0.31,0.44,0.79,0.83,1.28,0.95c0.03,0.01,0.05,0.01,0.08,0.02
						c0.02,0,0.04,0.01,0.07,0.01c0.21,0.03,0.42,0,0.6-0.09c0.19-0.09,0.38-0.24,0.54-0.47C125.85,68.36,125.79,67.94,125.63,67.63
						z"/>
				</g>
				<g>
					<path style="fill:#FFFFFF;" d="M125.78,51.92c0.03,0.65-0.13,1.3-0.45,1.87c0.91-0.02,1.82-0.04,2.73-0.07
						c-0.6-1.01-0.65-2.32-0.12-3.37c-0.68-0.14-1.38-0.2-2.08-0.2c-0.16,0-0.38,0.01-0.51,0.13c-0.2,0.18-0.03,0.27,0.08,0.45
						C125.67,51.08,125.77,51.5,125.78,51.92z"/>
					<ellipse style="fill:#E6E6E6;" cx="126.66" cy="50.53" rx="2" ry="0.67"/>
				</g>
				<g>
					<path style="fill:#FFFFFF;" d="M127.63,72.43c-0.03-0.65,0.13-1.3,0.45-1.87c-0.91,0.02-1.82,0.04-2.73,0.07
						c0.6,1.01,0.65,2.32,0.12,3.37c0.68,0.14,1.38,0.2,2.08,0.2c0.16,0,0.38-0.01,0.51-0.13c0.2-0.18,0.03-0.27-0.08-0.45
						C127.75,73.27,127.65,72.84,127.63,72.43z"/>
					<ellipse style="fill:#E6E6E6;" cx="126.75" cy="73.82" rx="2" ry="0.67"/>
				</g>
				<g>
					<path style="fill:#FFFFFF;" d="M116.45,63.1c0.65-0.03,1.3,0.13,1.87,0.45c-0.02-0.91-0.04-1.82-0.07-2.73
						c-1.01,0.6-2.32,0.65-3.37,0.12c-0.14,0.68-0.2,1.38-0.2,2.08c0,0.16,0.01,0.38,0.13,0.51c0.18,0.2,0.27,0.03,0.45-0.08
						C115.61,63.21,116.04,63.12,116.45,63.1z"/>
					<path style="fill:#E6E6E6;" d="M115.06,60.22c0.37,0,0.67,0.9,0.67,2c0,1.11-0.3,2-0.67,2c-0.37,0-0.67-0.9-0.67-2
						C114.39,61.11,114.69,60.22,115.06,60.22z"/>
				</g>
				<g>
					<path style="fill:#FFFFFF;" d="M136.97,61.25c-0.65,0.03-1.3-0.13-1.87-0.45c0.02,0.91,0.04,1.82,0.07,2.73
						c1.01-0.6,2.32-0.65,3.37-0.12c0.14-0.68,0.2-1.38,0.2-2.08c0-0.16-0.01-0.38-0.13-0.51c-0.18-0.2-0.27-0.03-0.45,0.08
						C137.8,61.14,137.38,61.23,136.97,61.25z"/>
					<path style="fill:#E6E6E6;" d="M138.35,64.13c-0.37,0-0.67-0.9-0.67-2c0-1.11,0.3-2,0.67-2c0.37,0,0.67,0.9,0.67,2
						C139.02,63.24,138.72,64.13,138.35,64.13z"/>
				</g>
				<g>
					<path style="fill:#FFFFFF;" d="M118.8,55.57c0.48,0.44,0.83,1.01,1.01,1.64c0.63-0.66,1.25-1.32,1.88-1.98
						c-1.13-0.29-2.1-1.18-2.47-2.29c-0.58,0.39-1.12,0.83-1.61,1.33c-0.11,0.11-0.26,0.28-0.27,0.45
						c-0.02,0.27,0.17,0.22,0.38,0.26C118.13,55.06,118.5,55.3,118.8,55.57z"/>
					
						<ellipse transform="matrix(0.7071 -0.7071 0.7071 0.7071 -3.4724 99.5579)" style="fill:#E6E6E6;" cx="118.44" cy="53.97" rx="2" ry="0.67"/>
				</g>
				<g>
					<path style="fill:#FFFFFF;" d="M134.62,68.78c-0.48-0.44-0.83-1.01-1.01-1.64c-0.63,0.66-1.25,1.32-1.88,1.98
						c1.13,0.29,2.1,1.18,2.47,2.29c0.58-0.39,1.12-0.83,1.61-1.33c0.11-0.11,0.26-0.28,0.27-0.45c0.02-0.27-0.17-0.22-0.38-0.26
						C135.29,69.29,134.92,69.05,134.62,68.78z"/>
					<path style="fill:#E6E6E6;" d="M133.56,71.8c-0.26-0.26,0.16-1.11,0.94-1.89c0.78-0.78,1.63-1.21,1.89-0.94
						c0.26,0.26-0.16,1.11-0.94,1.89C134.66,71.63,133.82,72.06,133.56,71.8z"/>
				</g>
				<g>
					<path style="fill:#FFFFFF;" d="M120.11,70.08c0.44-0.48,1.01-0.83,1.64-1.01c-0.66-0.63-1.32-1.25-1.98-1.88
						c-0.29,1.13-1.18,2.1-2.29,2.47c0.39,0.58,0.83,1.12,1.33,1.61c0.11,0.11,0.28,0.26,0.45,0.27c0.27,0.02,0.22-0.17,0.26-0.38
						C119.6,70.75,119.83,70.38,120.11,70.08z"/>
					<path style="fill:#E6E6E6;" d="M117.09,69.02c0.26-0.26,1.11,0.16,1.89,0.94c0.78,0.78,1.21,1.63,0.94,1.89
						c-0.26,0.26-1.11-0.16-1.89-0.94C117.25,70.13,116.83,69.29,117.09,69.02z"/>
				</g>
				<g>
					<path style="fill:#FFFFFF;" d="M133.31,54.27c-0.44,0.48-1.01,0.83-1.64,1.01c0.66,0.63,1.32,1.25,1.98,1.88
						c0.29-1.13,1.18-2.1,2.29-2.47c-0.39-0.58-0.83-1.12-1.33-1.61c-0.11-0.11-0.28-0.26-0.45-0.27c-0.27-0.02-0.22,0.17-0.26,0.38
						C133.82,53.6,133.59,53.96,133.31,54.27z"/>
					<path style="fill:#E6E6E6;" d="M136.33,55.32c-0.26,0.26-1.11-0.16-1.89-0.94s-1.21-1.63-0.94-1.89
						c0.26-0.26,1.11,0.16,1.89,0.94C136.17,54.22,136.59,55.06,136.33,55.32z"/>
				</g>
			</g>
		</g>
		<g>
			<circle style="opacity:0.59;fill:#FFFFFF;" cx="74.13" cy="274.64" r="21.7"/>
			<g>
				<path style="fill:#FFFFFF;" d="M85.1,274.65c0.14,2.61-0.93,5.3-3.76,7.47c-4.19,3.2-10.64,2.43-13.71-1.92
					c-2.78-3.95-2.13-9.79,1.56-12.93C75.99,261.49,84.74,267.76,85.1,274.65z"/>
				<g>
					<path style="fill:#E6E6E6;" d="M69.38,274.72c-0.48-0.53-1.35-0.57-1.79,0.04c-0.57,0.78-0.08,2.36,0.93,2.53
						c0.54,0.09,1.11-0.18,1.23-0.71c0.02-0.05,0.05-0.09,0.07-0.15C69.98,275.86,69.77,275.15,69.38,274.72z"/>
					<path style="fill:#E6E6E6;" d="M71.76,269.05c-0.14-0.4-0.57-0.74-1.02-0.58c-0.17,0.06-0.33,0.15-0.46,0.26
						c-0.74,0.35-0.74,1.73,0.21,1.95c0.44,0.1,0.89-0.06,1.15-0.43C71.89,269.89,71.9,269.46,71.76,269.05z"/>
					<path style="fill:#E6E6E6;" d="M73,272.76c-0.02-0.01-0.04-0.03-0.05-0.04c-0.48-0.38-1.08-0.09-1.11,0.47
						c-0.01,0-0.01-0.01-0.02-0.01c0,0.02,0,0.04,0,0.06c0.01,0.12,0.04,0.23,0.09,0.32c0.12,0.24,0.35,0.41,0.63,0.4
						c0.19-0.01,0.34-0.1,0.44-0.23C73.24,273.47,73.32,273.01,73,272.76z"/>
					<path style="fill:#E6E6E6;" d="M77.52,267.31c-0.29-0.28-0.74-0.63-1.14-0.74c-0.63-0.17-1.25,0.05-1.61,0.61
						c-0.31,0.49-0.24,1.13,0.05,1.61c0.46,0.75,1.48,1.26,2.28,0.82c0.4-0.1,0.68-0.44,0.83-0.82
						C78.14,268.27,77.9,267.67,77.52,267.31z"/>
					<path style="fill:#E6E6E6;" d="M82.26,271.93c-0.33-0.84-1.06-1.67-2.04-1.15c-1,0.53-0.81,1.74-0.13,2.44
						c0.31,0.32,0.7,0.54,1.16,0.52c0.66-0.02,1.18-0.57,1.16-1.23C82.41,272.32,82.35,272.12,82.26,271.93z"/>
					<path style="fill:#E6E6E6;" d="M78.74,271.99c-0.21-0.46-0.75-0.64-1.21-0.53c-0.38,0.09-0.65,0.46-0.68,0.85
						c-0.11,0.6,0.34,1.23,1,1.23C78.69,273.54,79.05,272.68,78.74,271.99z"/>
					<path style="fill:#E6E6E6;" d="M77.61,275.9c-0.38-0.58-1.13-0.7-1.68-0.29c-0.32,0.24-0.56,0.6-0.67,0.98
						c-0.24,0.86,0.2,2.1,1.27,1.97c0.4-0.05,0.66-0.25,0.81-0.53C77.84,277.47,78.04,276.57,77.61,275.9z"/>
					<path style="fill:#E6E6E6;" d="M83.63,275.58c-0.17-0.39-0.62-0.65-1.04-0.51c-0.66,0.21-0.89,0.9-0.56,1.49
						c0.18,0.31,0.55,0.48,0.9,0.43c0.32-0.05,0.7-0.29,0.75-0.64c0.02-0.15,0.03-0.27,0.02-0.39
						C83.7,275.81,83.68,275.69,83.63,275.58z"/>
					<path style="fill:#E6E6E6;" d="M80.18,279.99c-0.05-0.68-0.61-1.13-1.29-0.98c-0.49,0.11-0.9,0.5-1.02,0.99
						c-0.14,0.56,0.18,1.23,0.77,1.37c0.55,0.13,1.08-0.17,1.31-0.66C80.12,280.51,80.21,280.27,80.18,279.99z"/>
					<path style="fill:#E6E6E6;" d="M74.01,280.06c-0.07-0.15-0.2-0.27-0.33-0.36c-0.27-0.3-0.63-0.52-1.01-0.59
						c-0.44-0.07-0.85,0.02-1.14,0.39c-0.25,0.32-0.33,0.85-0.08,1.2c0.31,0.44,0.79,0.83,1.28,0.95c0.03,0.01,0.05,0.01,0.08,0.02
						c0.02,0,0.04,0.01,0.07,0.01c0.21,0.03,0.42,0,0.6-0.09c0.19-0.09,0.38-0.24,0.54-0.47C74.23,280.79,74.17,280.37,74.01,280.06
						z"/>
				</g>
				<g>
					<path style="fill:#FFFFFF;" d="M74.16,264.35c0.03,0.65-0.13,1.3-0.45,1.87c0.91-0.02,1.82-0.04,2.73-0.07
						c-0.6-1.01-0.65-2.32-0.12-3.37c-0.68-0.14-1.38-0.2-2.08-0.2c-0.16,0-0.38,0.01-0.51,0.13c-0.2,0.18-0.03,0.27,0.08,0.45
						C74.05,263.51,74.15,263.93,74.16,264.35z"/>
					<path style="fill:#E6E6E6;" d="M77.05,262.96c0,0.37-0.9,0.67-2,0.67c-1.11,0-2-0.3-2-0.67s0.9-0.67,2-0.67
						C76.15,262.29,77.05,262.59,77.05,262.96z"/>
				</g>
				<g>
					<path style="fill:#FFFFFF;" d="M76.01,284.86c-0.03-0.65,0.13-1.3,0.45-1.87c-0.91,0.02-1.82,0.04-2.73,0.07
						c0.6,1.01,0.65,2.32,0.12,3.37c0.68,0.14,1.38,0.2,2.08,0.2c0.16,0,0.38-0.01,0.51-0.13c0.2-0.18,0.03-0.27-0.08-0.45
						C76.12,285.7,76.03,285.27,76.01,284.86z"/>
					<path style="fill:#E6E6E6;" d="M73.13,286.25c0-0.37,0.9-0.67,2-0.67c1.11,0,2,0.3,2,0.67s-0.9,0.67-2,0.67
						C74.02,286.92,73.13,286.62,73.13,286.25z"/>
				</g>
				<g>
					<path style="fill:#FFFFFF;" d="M64.83,275.53c0.65-0.03,1.3,0.13,1.87,0.45c-0.02-0.91-0.04-1.82-0.07-2.73
						c-1.01,0.6-2.32,0.65-3.37,0.12c-0.14,0.68-0.2,1.38-0.2,2.08c0,0.16,0.01,0.38,0.13,0.51c0.18,0.2,0.27,0.03,0.45-0.08
						C63.99,275.64,64.42,275.55,64.83,275.53z"/>
					<path style="fill:#E6E6E6;" d="M63.44,272.64c0.37,0,0.67,0.9,0.67,2c0,1.11-0.3,2-0.67,2c-0.37,0-0.67-0.9-0.67-2
						C62.77,273.54,63.07,272.64,63.44,272.64z"/>
				</g>
				<g>
					<path style="fill:#FFFFFF;" d="M85.35,273.68c-0.65,0.03-1.3-0.13-1.87-0.45c0.02,0.91,0.04,1.82,0.07,2.73
						c1.01-0.6,2.32-0.65,3.37-0.12c0.14-0.68,0.2-1.38,0.2-2.08c0-0.16-0.01-0.38-0.13-0.51c-0.18-0.2-0.27-0.03-0.45,0.08
						C86.18,273.57,85.76,273.66,85.35,273.68z"/>
					<path style="fill:#E6E6E6;" d="M86.73,276.56c-0.37,0-0.67-0.9-0.67-2c0-1.11,0.3-2,0.67-2c0.37,0,0.67,0.9,0.67,2
						C87.4,275.67,87.1,276.56,86.73,276.56z"/>
				</g>
				<g>
					<path style="fill:#FFFFFF;" d="M67.18,268c0.48,0.44,0.83,1.01,1.01,1.64c0.63-0.66,1.25-1.32,1.88-1.98
						c-1.13-0.29-2.1-1.18-2.47-2.29c-0.58,0.39-1.12,0.83-1.61,1.33c-0.11,0.11-0.26,0.28-0.27,0.45
						c-0.02,0.27,0.17,0.22,0.38,0.26C66.51,267.49,66.88,267.73,67.18,268z"/>
					<path style="fill:#E6E6E6;" d="M68.24,264.98c0.26,0.26-0.16,1.11-0.94,1.89c-0.78,0.78-1.63,1.21-1.89,0.94
						c-0.26-0.26,0.16-1.11,0.94-1.89C67.13,265.15,67.98,264.72,68.24,264.98z"/>
				</g>
				<g>
					<path style="fill:#FFFFFF;" d="M82.99,281.21c-0.48-0.44-0.83-1.01-1.01-1.64c-0.63,0.66-1.25,1.32-1.88,1.98
						c1.13,0.29,2.1,1.18,2.47,2.29c0.58-0.39,1.12-0.83,1.61-1.33c0.11-0.11,0.26-0.28,0.27-0.45c0.02-0.27-0.17-0.22-0.38-0.26
						C83.67,281.72,83.3,281.48,82.99,281.21z"/>
					<path style="fill:#E6E6E6;" d="M81.94,284.23c-0.26-0.26,0.16-1.11,0.94-1.89s1.63-1.21,1.89-0.94
						c0.26,0.26-0.16,1.11-0.94,1.89C83.04,284.06,82.2,284.49,81.94,284.23z"/>
				</g>
				<g>
					<path style="fill:#FFFFFF;" d="M68.49,282.51c0.44-0.48,1.01-0.83,1.64-1.01c-0.66-0.63-1.32-1.25-1.98-1.88
						c-0.29,1.13-1.18,2.1-2.29,2.47c0.39,0.58,0.83,1.12,1.33,1.61c0.11,0.11,0.28,0.26,0.45,0.27c0.27,0.02,0.22-0.17,0.26-0.38
						C67.98,283.18,68.21,282.81,68.49,282.51z"/>
					<path style="fill:#E6E6E6;" d="M65.47,281.45c0.26-0.26,1.11,0.16,1.89,0.94c0.78,0.78,1.21,1.63,0.94,1.89
						c-0.26,0.26-1.11-0.16-1.89-0.94C65.63,282.56,65.21,281.71,65.47,281.45z"/>
				</g>
				<g>
					<path style="fill:#FFFFFF;" d="M81.69,266.7c-0.44,0.48-1.01,0.83-1.64,1.01c0.66,0.63,1.32,1.25,1.98,1.88
						c0.29-1.13,1.18-2.1,2.29-2.47c-0.39-0.58-0.83-1.12-1.33-1.61c-0.11-0.11-0.28-0.26-0.45-0.27c-0.27-0.02-0.22,0.17-0.26,0.38
						C82.2,266.03,81.97,266.39,81.69,266.7z"/>
					<path style="fill:#E6E6E6;" d="M84.71,267.75c-0.26,0.26-1.11-0.16-1.89-0.94c-0.78-0.78-1.21-1.63-0.94-1.89
						s1.11,0.16,1.89,0.94C84.55,266.65,84.97,267.49,84.71,267.75z"/>
				</g>
			</g>
		</g>
		<g>
			<circle style="opacity:0.59;fill:#FFFFFF;" cx="278.93" cy="129.27" r="21.7"/>
			<g>
				<path style="fill:#FFFFFF;" d="M289.9,129.27c0.14,2.61-0.93,5.3-3.76,7.47c-4.19,3.2-10.64,2.43-13.71-1.92
					c-2.78-3.95-2.13-9.79,1.56-12.93C280.79,116.11,289.54,122.39,289.9,129.27z"/>
				<g>
					<path style="fill:#E6E6E6;" d="M274.18,129.34c-0.48-0.53-1.35-0.57-1.79,0.04c-0.57,0.78-0.08,2.36,0.93,2.53
						c0.54,0.09,1.11-0.18,1.23-0.71c0.02-0.05,0.05-0.09,0.07-0.15C274.78,130.48,274.57,129.77,274.18,129.34z"/>
					<path style="fill:#E6E6E6;" d="M276.56,123.67c-0.14-0.4-0.57-0.74-1.02-0.58c-0.17,0.06-0.33,0.15-0.46,0.26
						c-0.74,0.35-0.74,1.73,0.21,1.95c0.44,0.1,0.89-0.06,1.15-0.43C276.69,124.51,276.7,124.08,276.56,123.67z"/>
					<path style="fill:#E6E6E6;" d="M277.8,127.38c-0.02-0.01-0.04-0.03-0.05-0.04c-0.48-0.38-1.08-0.09-1.11,0.47
						c-0.01,0-0.01-0.01-0.02-0.01c0,0.02,0,0.04,0,0.06c0.01,0.12,0.04,0.23,0.09,0.32c0.12,0.24,0.35,0.41,0.63,0.4
						c0.19-0.01,0.34-0.1,0.44-0.23C278.04,128.09,278.12,127.63,277.8,127.38z"/>
					<path style="fill:#E6E6E6;" d="M282.32,121.93c-0.29-0.28-0.74-0.63-1.14-0.74c-0.63-0.17-1.25,0.05-1.61,0.61
						c-0.31,0.49-0.24,1.13,0.05,1.61c0.46,0.75,1.48,1.26,2.28,0.82c0.4-0.1,0.68-0.44,0.83-0.82
						C282.94,122.89,282.7,122.29,282.32,121.93z"/>
					<path style="fill:#E6E6E6;" d="M287.06,126.55c-0.33-0.84-1.06-1.67-2.04-1.15c-1,0.53-0.81,1.74-0.13,2.44
						c0.31,0.32,0.7,0.54,1.16,0.52c0.66-0.02,1.18-0.57,1.16-1.23C287.21,126.94,287.15,126.74,287.06,126.55z"/>
					<path style="fill:#E6E6E6;" d="M283.54,126.61c-0.21-0.46-0.75-0.64-1.21-0.53c-0.38,0.09-0.65,0.46-0.68,0.85
						c-0.11,0.6,0.34,1.23,1,1.23C283.49,128.16,283.85,127.3,283.54,126.61z"/>
					<path style="fill:#E6E6E6;" d="M282.41,130.52c-0.38-0.58-1.13-0.7-1.68-0.29c-0.32,0.24-0.56,0.6-0.67,0.98
						c-0.24,0.86,0.2,2.1,1.27,1.97c0.4-0.05,0.66-0.25,0.81-0.53C282.64,132.09,282.84,131.19,282.41,130.52z"/>
					<path style="fill:#E6E6E6;" d="M288.43,130.2c-0.17-0.39-0.62-0.65-1.04-0.51c-0.66,0.21-0.89,0.9-0.56,1.49
						c0.18,0.31,0.55,0.48,0.9,0.43c0.32-0.05,0.7-0.29,0.75-0.64c0.02-0.15,0.03-0.27,0.02-0.39
						C288.5,130.43,288.48,130.31,288.43,130.2z"/>
					<path style="fill:#E6E6E6;" d="M284.98,134.61c-0.05-0.68-0.61-1.13-1.29-0.98c-0.49,0.11-0.9,0.5-1.02,0.99
						c-0.14,0.56,0.18,1.23,0.77,1.37c0.55,0.13,1.08-0.17,1.31-0.66C284.92,135.13,285,134.89,284.98,134.61z"/>
					<path style="fill:#E6E6E6;" d="M278.81,134.68c-0.07-0.15-0.2-0.27-0.33-0.36c-0.27-0.3-0.63-0.52-1.01-0.59
						c-0.44-0.07-0.85,0.02-1.14,0.39c-0.25,0.32-0.33,0.85-0.08,1.2c0.31,0.44,0.79,0.83,1.28,0.95c0.03,0.01,0.05,0.01,0.08,0.02
						c0.02,0,0.04,0.01,0.07,0.01c0.21,0.03,0.42,0,0.6-0.09c0.19-0.09,0.38-0.24,0.54-0.47
						C279.03,135.41,278.97,134.99,278.81,134.68z"/>
				</g>
				<g>
					<path style="fill:#FFFFFF;" d="M278.96,118.97c0.03,0.65-0.13,1.3-0.45,1.87c0.91-0.02,1.82-0.04,2.73-0.07
						c-0.6-1.01-0.65-2.32-0.12-3.37c-0.68-0.14-1.38-0.2-2.08-0.2c-0.16,0-0.38,0.01-0.51,0.13c-0.2,0.18-0.03,0.27,0.08,0.45
						C278.85,118.13,278.95,118.56,278.96,118.97z"/>
					<path style="fill:#E6E6E6;" d="M281.85,117.58c0,0.37-0.9,0.67-2,0.67c-1.11,0-2-0.3-2-0.67c0-0.37,0.9-0.67,2-0.67
						C280.95,116.91,281.85,117.21,281.85,117.58z"/>
				</g>
				<g>
					<path style="fill:#FFFFFF;" d="M280.81,139.48c-0.03-0.65,0.13-1.3,0.45-1.87c-0.91,0.02-1.82,0.04-2.73,0.07
						c0.6,1.01,0.65,2.32,0.12,3.37c0.68,0.14,1.38,0.2,2.08,0.2c0.16,0,0.38-0.01,0.51-0.13c0.2-0.18,0.03-0.27-0.08-0.45
						C280.92,140.32,280.83,139.89,280.81,139.48z"/>
					<path style="fill:#E6E6E6;" d="M277.93,140.87c0-0.37,0.9-0.67,2-0.67c1.11,0,2,0.3,2,0.67c0,0.37-0.9,0.67-2,0.67
						C278.82,141.54,277.93,141.24,277.93,140.87z"/>
				</g>
				<g>
					<path style="fill:#FFFFFF;" d="M269.63,130.15c0.65-0.03,1.3,0.13,1.87,0.45c-0.02-0.91-0.04-1.82-0.07-2.73
						c-1.01,0.6-2.32,0.65-3.37,0.12c-0.14,0.68-0.2,1.38-0.2,2.08c0,0.16,0.01,0.38,0.13,0.51c0.18,0.2,0.27,0.03,0.45-0.08
						C268.79,130.26,269.22,130.17,269.63,130.15z"/>
					<path style="fill:#E6E6E6;" d="M268.24,127.27c0.37,0,0.67,0.9,0.67,2c0,1.11-0.3,2-0.67,2s-0.67-0.9-0.67-2
						C267.57,128.16,267.87,127.27,268.24,127.27z"/>
				</g>
				<g>
					<path style="fill:#FFFFFF;" d="M290.15,128.3c-0.65,0.03-1.3-0.13-1.87-0.45c0.02,0.91,0.04,1.82,0.07,2.73
						c1.01-0.6,2.32-0.65,3.37-0.12c0.14-0.68,0.2-1.38,0.2-2.08c0-0.16-0.01-0.38-0.13-0.51c-0.18-0.2-0.27-0.03-0.45,0.08
						C290.98,128.19,290.56,128.28,290.15,128.3z"/>
					<path style="fill:#E6E6E6;" d="M291.53,131.18c-0.37,0-0.67-0.9-0.67-2c0-1.11,0.3-2,0.67-2s0.67,0.9,0.67,2
						C292.2,130.29,291.9,131.18,291.53,131.18z"/>
				</g>
				<g>
					<path style="fill:#FFFFFF;" d="M271.98,122.62c0.48,0.44,0.83,1.01,1.01,1.64c0.63-0.66,1.25-1.32,1.88-1.98
						c-1.13-0.29-2.1-1.18-2.47-2.29c-0.58,0.39-1.12,0.83-1.61,1.33c-0.11,0.11-0.26,0.28-0.27,0.45
						c-0.02,0.27,0.17,0.22,0.38,0.26C271.31,122.11,271.68,122.35,271.98,122.62z"/>
					<path style="fill:#E6E6E6;" d="M273.04,119.6c0.26,0.26-0.16,1.11-0.94,1.89c-0.78,0.78-1.63,1.21-1.89,0.94
						c-0.26-0.26,0.16-1.11,0.94-1.89C271.93,119.77,272.78,119.34,273.04,119.6z"/>
				</g>
				<g>
					<path style="fill:#FFFFFF;" d="M287.79,135.83c-0.48-0.44-0.83-1.01-1.01-1.64c-0.63,0.66-1.25,1.32-1.88,1.98
						c1.13,0.29,2.1,1.18,2.47,2.29c0.58-0.39,1.12-0.83,1.61-1.33c0.11-0.11,0.26-0.28,0.27-0.45c0.02-0.27-0.17-0.22-0.38-0.26
						C288.47,136.34,288.1,136.1,287.79,135.83z"/>
					
						<ellipse transform="matrix(0.7071 -0.7071 0.7071 0.7071 -12.7789 244.007)" style="fill:#E6E6E6;" cx="288.15" cy="137.43" rx="2" ry="0.67"/>
				</g>
				<g>
					<path style="fill:#FFFFFF;" d="M273.29,137.13c0.44-0.48,1.01-0.83,1.64-1.01c-0.66-0.63-1.32-1.25-1.98-1.88
						c-0.29,1.13-1.18,2.1-2.29,2.47c0.39,0.58,0.83,1.12,1.33,1.61c0.11,0.11,0.28,0.26,0.45,0.27c0.27,0.02,0.22-0.17,0.26-0.38
						C272.78,137.8,273.01,137.43,273.29,137.13z"/>
					<path style="fill:#E6E6E6;" d="M270.27,136.07c0.26-0.26,1.11,0.16,1.89,0.94c0.78,0.78,1.21,1.63,0.94,1.89
						c-0.26,0.26-1.11-0.16-1.89-0.94S270.01,136.34,270.27,136.07z"/>
				</g>
				<g>
					<path style="fill:#FFFFFF;" d="M286.49,121.32c-0.44,0.48-1.01,0.83-1.64,1.01c0.66,0.63,1.32,1.25,1.98,1.88
						c0.29-1.13,1.18-2.1,2.29-2.47c-0.39-0.58-0.83-1.12-1.33-1.61c-0.11-0.11-0.28-0.26-0.45-0.27c-0.27-0.02-0.22,0.17-0.26,0.38
						C287,120.65,286.77,121.01,286.49,121.32z"/>
					<path style="fill:#E6E6E6;" d="M289.51,122.38c-0.26,0.26-1.11-0.16-1.89-0.94c-0.78-0.78-1.21-1.63-0.94-1.89
						c0.26-0.26,1.11,0.16,1.89,0.94C289.35,121.27,289.77,122.11,289.51,122.38z"/>
				</g>
			</g>
		</g>
		<g>
			<circle style="opacity:0.76;fill:#FFFFFF;" cx="95.7" cy="145.01" r="17.46"/>
			<g>
				<path style="fill:#FFFFFF;" d="M102.96,145.02c0.11,1.99-0.71,4.05-2.87,5.69c-3.2,2.44-8.12,1.85-10.46-1.46
					c-2.12-3.01-1.63-7.47,1.19-9.86C96.01,134.98,102.68,139.77,102.96,145.02z"/>
				<g>
					<path style="fill:#E6E6E6;" d="M90.97,145.07c-0.37-0.41-1.03-0.44-1.36,0.03c-0.43,0.6-0.06,1.8,0.71,1.93
						c0.41,0.07,0.85-0.13,0.94-0.54c0.02-0.04,0.04-0.07,0.05-0.11C91.43,145.94,91.27,145.4,90.97,145.07z"/>
					<path style="fill:#E6E6E6;" d="M92.78,140.74c-0.11-0.3-0.44-0.56-0.78-0.44c-0.13,0.05-0.25,0.12-0.35,0.2
						c-0.57,0.26-0.57,1.32,0.16,1.49c0.34,0.08,0.68-0.05,0.88-0.33C92.88,141.39,92.89,141.06,92.78,140.74z"/>
					<path style="fill:#E6E6E6;" d="M93.73,143.58c-0.01-0.01-0.03-0.02-0.04-0.03c-0.37-0.29-0.83-0.07-0.84,0.36
						c0,0-0.01,0-0.01-0.01c0,0.02,0,0.03,0,0.05c0,0.09,0.03,0.17,0.07,0.25c0.09,0.18,0.26,0.31,0.48,0.3
						c0.15-0.01,0.26-0.08,0.33-0.18C93.91,144.12,93.97,143.77,93.73,143.58z"/>
					<path style="fill:#E6E6E6;" d="M97.17,139.42c-0.22-0.21-0.57-0.48-0.87-0.57c-0.48-0.13-0.96,0.04-1.23,0.46
						c-0.24,0.37-0.19,0.86,0.04,1.23c0.35,0.58,1.13,0.96,1.74,0.63c0.3-0.07,0.52-0.34,0.64-0.62
						C97.65,140.15,97.47,139.69,97.17,139.42z"/>
					<path style="fill:#E6E6E6;" d="M100.79,142.94c-0.25-0.64-0.81-1.27-1.55-0.88c-0.76,0.4-0.61,1.33-0.1,1.86
						c0.24,0.25,0.53,0.41,0.88,0.4c0.5-0.02,0.9-0.43,0.89-0.94C100.9,143.24,100.86,143.09,100.79,142.94z"/>
					<path style="fill:#E6E6E6;" d="M98.1,142.99c-0.16-0.35-0.57-0.49-0.92-0.4c-0.29,0.07-0.5,0.35-0.52,0.65
						c-0.09,0.46,0.26,0.94,0.76,0.94C98.07,144.17,98.34,143.52,98.1,142.99z"/>
					<path style="fill:#E6E6E6;" d="M97.25,145.97c-0.29-0.44-0.86-0.53-1.28-0.22c-0.24,0.18-0.43,0.46-0.51,0.75
						c-0.18,0.66,0.16,1.6,0.97,1.5c0.31-0.04,0.5-0.19,0.62-0.4C97.42,147.17,97.58,146.48,97.25,145.97z"/>
					<path style="fill:#E6E6E6;" d="M101.84,145.72c-0.13-0.3-0.47-0.5-0.8-0.39c-0.5,0.16-0.68,0.68-0.42,1.14
						c0.13,0.24,0.42,0.37,0.68,0.33c0.24-0.04,0.53-0.22,0.57-0.49c0.02-0.11,0.02-0.21,0.01-0.3
						C101.89,145.91,101.88,145.81,101.84,145.72z"/>
					<path style="fill:#E6E6E6;" d="M99.21,149.09c-0.04-0.52-0.46-0.86-0.98-0.75c-0.38,0.08-0.68,0.38-0.78,0.75
						c-0.11,0.43,0.14,0.94,0.59,1.04c0.42,0.1,0.82-0.13,1-0.5C99.16,149.49,99.23,149.3,99.21,149.09z"/>
					<path style="fill:#E6E6E6;" d="M94.5,149.14c-0.06-0.11-0.15-0.21-0.26-0.28c-0.2-0.23-0.48-0.4-0.77-0.45
						c-0.34-0.06-0.65,0.01-0.87,0.3c-0.19,0.24-0.25,0.65-0.06,0.91c0.24,0.34,0.6,0.63,0.98,0.72c0.02,0.01,0.04,0.01,0.06,0.01
						c0.02,0,0.03,0.01,0.05,0.01c0.16,0.02,0.32,0,0.46-0.07c0.15-0.07,0.29-0.18,0.41-0.36C94.67,149.7,94.62,149.38,94.5,149.14z
						"/>
				</g>
				<g>
					<path style="fill:#FFFFFF;" d="M94.62,137.16c0.02,0.49-0.1,0.99-0.34,1.43c0.69-0.02,1.39-0.03,2.08-0.05
						c-0.46-0.77-0.49-1.77-0.09-2.57c-0.52-0.1-1.06-0.15-1.59-0.15c-0.12,0-0.29,0.01-0.39,0.1c-0.16,0.14-0.03,0.21,0.06,0.34
						C94.53,136.52,94.6,136.84,94.62,137.16z"/>
					<path style="fill:#E6E6E6;" d="M96.82,136.1c0,0.28-0.68,0.51-1.53,0.51c-0.84,0-1.53-0.23-1.53-0.51
						c0-0.28,0.68-0.51,1.53-0.51C96.13,135.59,96.82,135.82,96.82,136.1z"/>
				</g>
				<g>
					<path style="fill:#FFFFFF;" d="M96.03,152.81c-0.02-0.49,0.1-0.99,0.34-1.43c-0.69,0.02-1.39,0.03-2.08,0.05
						c0.46,0.77,0.49,1.77,0.09,2.57c0.52,0.1,1.06,0.15,1.59,0.15c0.12,0,0.29-0.01,0.39-0.1c0.16-0.14,0.03-0.21-0.06-0.34
						C96.11,153.45,96.04,153.12,96.03,152.81z"/>
					<path style="fill:#E6E6E6;" d="M93.83,153.87c0-0.28,0.68-0.51,1.53-0.51c0.84,0,1.53,0.23,1.53,0.51
						c0,0.28-0.68,0.51-1.53,0.51C94.51,154.38,93.83,154.15,93.83,153.87z"/>
				</g>
				<g>
					<path style="fill:#FFFFFF;" d="M87.5,145.69c0.49-0.02,0.99,0.1,1.43,0.34c-0.02-0.69-0.03-1.39-0.05-2.08
						c-0.77,0.46-1.77,0.49-2.57,0.09c-0.1,0.52-0.15,1.06-0.15,1.59c0,0.12,0.01,0.29,0.1,0.39c0.14,0.16,0.21,0.03,0.34-0.06
						C86.86,145.77,87.18,145.7,87.5,145.69z"/>
					<path style="fill:#E6E6E6;" d="M86.44,143.49c0.28,0,0.51,0.68,0.51,1.53c0,0.84-0.23,1.53-0.51,1.53
						c-0.28,0-0.51-0.68-0.51-1.53C85.93,144.17,86.16,143.49,86.44,143.49z"/>
				</g>
				<g>
					<path style="fill:#FFFFFF;" d="M103.15,144.28c-0.49,0.02-0.99-0.1-1.43-0.34c0.02,0.69,0.03,1.39,0.05,2.08
						c0.77-0.46,1.77-0.49,2.57-0.09c0.1-0.52,0.15-1.06,0.15-1.59c0-0.12-0.01-0.29-0.1-0.39c-0.14-0.16-0.21-0.03-0.34,0.06
						C103.78,144.19,103.46,144.27,103.15,144.28z"/>
					<path style="fill:#E6E6E6;" d="M104.2,146.48c-0.28,0-0.51-0.68-0.51-1.53c0-0.84,0.23-1.53,0.51-1.53
						c0.28,0,0.51,0.68,0.51,1.53C104.71,145.79,104.49,146.48,104.2,146.48z"/>
				</g>
				<g>
					<path style="fill:#FFFFFF;" d="M89.29,139.95c0.36,0.34,0.63,0.77,0.77,1.25c0.48-0.5,0.96-1,1.44-1.51
						c-0.87-0.22-1.6-0.9-1.88-1.75c-0.44,0.3-0.86,0.64-1.23,1.02c-0.09,0.09-0.2,0.21-0.21,0.34c-0.01,0.21,0.13,0.17,0.29,0.2
						C88.78,139.56,89.06,139.74,89.29,139.95z"/>
					<path style="fill:#E6E6E6;" d="M90.1,137.64c0.2,0.2-0.12,0.84-0.72,1.44c-0.6,0.6-1.24,0.92-1.44,0.72
						c-0.2-0.2,0.12-0.84,0.72-1.44C89.25,137.77,89.9,137.45,90.1,137.64z"/>
				</g>
				<g>
					<path style="fill:#FFFFFF;" d="M101.35,150.02c-0.36-0.34-0.63-0.77-0.77-1.25c-0.48,0.5-0.96,1-1.44,1.51
						c0.87,0.22,1.6,0.9,1.88,1.75c0.44-0.3,0.86-0.64,1.23-1.02c0.09-0.09,0.2-0.21,0.21-0.34c0.01-0.21-0.13-0.17-0.29-0.2
						C101.86,150.41,101.58,150.23,101.35,150.02z"/>
					<path style="fill:#E6E6E6;" d="M100.55,152.32c-0.2-0.2,0.12-0.84,0.72-1.44c0.6-0.6,1.24-0.92,1.44-0.72
						c0.2,0.2-0.12,0.84-0.72,1.44C101.39,152.2,100.74,152.52,100.55,152.32z"/>
				</g>
				<g>
					<path style="fill:#FFFFFF;" d="M90.29,151.01c0.34-0.36,0.77-0.63,1.25-0.77c-0.5-0.48-1-0.96-1.51-1.44
						c-0.22,0.87-0.9,1.6-1.75,1.88c0.3,0.44,0.64,0.86,1.02,1.23c0.09,0.09,0.21,0.2,0.34,0.21c0.21,0.01,0.17-0.13,0.2-0.29
						C89.9,151.53,90.07,151.25,90.29,151.01z"/>
					<path style="fill:#E6E6E6;" d="M87.98,150.21c0.2-0.2,0.84,0.12,1.44,0.72c0.6,0.6,0.92,1.24,0.72,1.44
						c-0.2,0.2-0.84-0.12-1.44-0.72C88.11,151.05,87.78,150.41,87.98,150.21z"/>
				</g>
				<g>
					<path style="fill:#FFFFFF;" d="M100.36,138.95c-0.34,0.36-0.77,0.63-1.25,0.77c0.5,0.48,1,0.96,1.51,1.44
						c0.22-0.87,0.9-1.6,1.75-1.88c-0.3-0.44-0.64-0.86-1.02-1.23c-0.09-0.09-0.21-0.2-0.34-0.21c-0.21-0.01-0.17,0.13-0.2,0.29
						C100.75,138.44,100.57,138.72,100.36,138.95z"/>
					<path style="fill:#E6E6E6;" d="M102.66,139.76c-0.2,0.2-0.84-0.12-1.44-0.72c-0.6-0.6-0.92-1.24-0.72-1.44
						c0.2-0.2,0.84,0.12,1.44,0.72C102.54,138.91,102.86,139.56,102.66,139.76z"/>
				</g>
			</g>
		</g>
		<g>
			<circle style="opacity:0.76;fill:#FFFFFF;" cx="282.69" cy="215.13" r="17.46"/>
			<g>
				<path style="fill:#FFFFFF;" d="M289.95,215.14c0.11,1.99-0.71,4.05-2.87,5.69c-3.2,2.44-8.12,1.85-10.46-1.46
					c-2.12-3.01-1.63-7.47,1.19-9.86C283,205.1,289.67,209.89,289.95,215.14z"/>
				<g>
					<path style="fill:#E6E6E6;" d="M277.95,215.19c-0.37-0.41-1.03-0.44-1.36,0.03c-0.43,0.6-0.06,1.8,0.71,1.93
						c0.41,0.07,0.85-0.13,0.94-0.54c0.02-0.04,0.04-0.07,0.05-0.11C278.41,216.06,278.26,215.52,277.95,215.19z"/>
					<path style="fill:#E6E6E6;" d="M279.77,210.86c-0.11-0.3-0.44-0.56-0.78-0.44c-0.13,0.05-0.25,0.12-0.35,0.2
						c-0.57,0.26-0.57,1.32,0.16,1.49c0.34,0.08,0.68-0.05,0.88-0.33C279.87,211.51,279.88,211.18,279.77,210.86z"/>
					<path style="fill:#E6E6E6;" d="M280.72,213.7c-0.01-0.01-0.03-0.02-0.04-0.03c-0.37-0.29-0.83-0.07-0.84,0.36
						c0,0-0.01,0-0.01-0.01c0,0.02,0,0.03,0,0.05c0,0.09,0.03,0.17,0.07,0.25c0.09,0.18,0.26,0.31,0.48,0.3
						c0.15-0.01,0.26-0.08,0.33-0.18C280.89,214.24,280.96,213.89,280.72,213.7z"/>
					<path style="fill:#E6E6E6;" d="M284.16,209.54c-0.22-0.21-0.57-0.48-0.87-0.57c-0.48-0.13-0.96,0.04-1.23,0.46
						c-0.24,0.37-0.19,0.86,0.04,1.23c0.35,0.58,1.13,0.96,1.74,0.63c0.3-0.07,0.52-0.34,0.64-0.62
						C284.64,210.27,284.45,209.81,284.16,209.54z"/>
					<path style="fill:#E6E6E6;" d="M287.78,213.06c-0.25-0.64-0.81-1.27-1.55-0.88c-0.76,0.4-0.61,1.33-0.1,1.86
						c0.24,0.25,0.53,0.41,0.88,0.4c0.5-0.02,0.9-0.43,0.89-0.94C287.89,213.36,287.85,213.21,287.78,213.06z"/>
					<path style="fill:#E6E6E6;" d="M285.09,213.11c-0.16-0.35-0.57-0.49-0.92-0.4c-0.29,0.07-0.5,0.35-0.52,0.65
						c-0.09,0.46,0.26,0.94,0.76,0.94C285.05,214.29,285.33,213.64,285.09,213.11z"/>
					<path style="fill:#E6E6E6;" d="M284.23,216.09c-0.29-0.44-0.86-0.53-1.28-0.22c-0.24,0.18-0.43,0.46-0.51,0.75
						c-0.18,0.66,0.16,1.6,0.97,1.5c0.31-0.04,0.5-0.19,0.62-0.4C284.41,217.29,284.56,216.6,284.23,216.09z"/>
					<path style="fill:#E6E6E6;" d="M288.83,215.84c-0.13-0.3-0.47-0.5-0.8-0.39c-0.5,0.16-0.68,0.69-0.42,1.14
						c0.13,0.24,0.42,0.37,0.68,0.33c0.24-0.04,0.53-0.22,0.57-0.49c0.02-0.11,0.02-0.21,0.01-0.3
						C288.88,216.03,288.87,215.93,288.83,215.84z"/>
					<path style="fill:#E6E6E6;" d="M286.2,219.21c-0.04-0.52-0.46-0.86-0.98-0.75c-0.38,0.08-0.68,0.38-0.78,0.75
						c-0.11,0.43,0.14,0.94,0.59,1.04c0.42,0.1,0.82-0.13,1-0.5C286.14,219.61,286.21,219.42,286.2,219.21z"/>
					<path style="fill:#E6E6E6;" d="M281.49,219.26c-0.06-0.11-0.15-0.21-0.26-0.28c-0.2-0.23-0.48-0.4-0.77-0.45
						c-0.34-0.06-0.65,0.01-0.87,0.3c-0.19,0.24-0.25,0.65-0.06,0.91c0.24,0.34,0.6,0.63,0.98,0.72c0.02,0.01,0.04,0.01,0.06,0.01
						c0.02,0,0.03,0.01,0.05,0.01c0.16,0.02,0.32,0,0.46-0.07c0.15-0.07,0.29-0.18,0.41-0.36
						C281.65,219.82,281.61,219.5,281.49,219.26z"/>
				</g>
				<g>
					<path style="fill:#FFFFFF;" d="M281.6,207.28c0.02,0.49-0.1,0.99-0.34,1.43c0.69-0.02,1.39-0.03,2.08-0.05
						c-0.46-0.77-0.49-1.77-0.09-2.57c-0.52-0.1-1.06-0.15-1.59-0.15c-0.12,0-0.29,0.01-0.39,0.1c-0.16,0.14-0.03,0.21,0.06,0.34
						C281.52,206.64,281.59,206.96,281.6,207.28z"/>
					<path style="fill:#E6E6E6;" d="M283.8,206.22c0,0.28-0.68,0.51-1.53,0.51c-0.84,0-1.53-0.23-1.53-0.51s0.68-0.51,1.53-0.51
						C283.12,205.71,283.8,205.94,283.8,206.22z"/>
				</g>
				<g>
					<path style="fill:#FFFFFF;" d="M283.01,222.93c-0.02-0.49,0.1-0.99,0.34-1.43c-0.69,0.02-1.39,0.03-2.08,0.05
						c0.46,0.77,0.49,1.77,0.09,2.57c0.52,0.1,1.06,0.15,1.59,0.15c0.12,0,0.29-0.01,0.39-0.1c0.16-0.14,0.03-0.21-0.06-0.34
						C283.1,223.57,283.03,223.24,283.01,222.93z"/>
					<path style="fill:#E6E6E6;" d="M280.81,223.99c0-0.28,0.68-0.51,1.53-0.51s1.53,0.23,1.53,0.51c0,0.28-0.68,0.51-1.53,0.51
						S280.81,224.27,280.81,223.99z"/>
				</g>
				<g>
					<path style="fill:#FFFFFF;" d="M274.48,215.81c0.49-0.02,0.99,0.1,1.43,0.34c-0.02-0.69-0.03-1.39-0.05-2.08
						c-0.77,0.46-1.77,0.49-2.57,0.09c-0.1,0.52-0.15,1.06-0.15,1.59c0,0.12,0.01,0.29,0.1,0.39c0.14,0.16,0.21,0.03,0.34-0.06
						C273.84,215.89,274.17,215.82,274.48,215.81z"/>
					<path style="fill:#E6E6E6;" d="M273.42,213.61c0.28,0,0.51,0.68,0.51,1.53c0,0.84-0.23,1.53-0.51,1.53
						c-0.28,0-0.51-0.68-0.51-1.53C272.91,214.29,273.14,213.61,273.42,213.61z"/>
				</g>
				<g>
					<path style="fill:#FFFFFF;" d="M290.13,214.4c-0.49,0.02-0.99-0.1-1.43-0.34c0.02,0.69,0.03,1.39,0.05,2.08
						c0.77-0.46,1.77-0.49,2.57-0.09c0.1-0.52,0.15-1.06,0.15-1.59c0-0.12-0.01-0.29-0.1-0.39c-0.14-0.16-0.21-0.03-0.34,0.06
						C290.77,214.31,290.45,214.39,290.13,214.4z"/>
					<path style="fill:#E6E6E6;" d="M291.19,216.6c-0.28,0-0.51-0.68-0.51-1.53c0-0.84,0.23-1.53,0.51-1.53
						c0.28,0,0.51,0.68,0.51,1.53C291.7,215.91,291.47,216.6,291.19,216.6z"/>
				</g>
				<g>
					<path style="fill:#FFFFFF;" d="M276.28,210.07c0.36,0.34,0.63,0.77,0.77,1.25c0.48-0.5,0.96-1,1.44-1.51
						c-0.87-0.22-1.6-0.9-1.88-1.75c-0.44,0.3-0.86,0.64-1.23,1.02c-0.09,0.09-0.2,0.21-0.21,0.34c-0.01,0.21,0.13,0.17,0.29,0.2
						C275.76,209.68,276.04,209.86,276.28,210.07z"/>
					<path style="fill:#E6E6E6;" d="M277.08,207.76c0.2,0.2-0.12,0.84-0.72,1.44c-0.6,0.6-1.24,0.92-1.44,0.72
						c-0.2-0.2,0.12-0.84,0.72-1.44C276.24,207.89,276.88,207.57,277.08,207.76z"/>
				</g>
				<g>
					<path style="fill:#FFFFFF;" d="M288.34,220.14c-0.36-0.34-0.63-0.77-0.77-1.25c-0.48,0.5-0.96,1-1.44,1.51
						c0.87,0.22,1.6,0.9,1.88,1.75c0.44-0.3,0.86-0.64,1.23-1.02c0.09-0.09,0.2-0.21,0.21-0.34c0.01-0.21-0.13-0.17-0.29-0.2
						C288.85,220.53,288.57,220.35,288.34,220.14z"/>
					<path style="fill:#E6E6E6;" d="M287.53,222.44c-0.2-0.2,0.12-0.84,0.72-1.44c0.6-0.6,1.24-0.92,1.44-0.72
						c0.2,0.2-0.12,0.84-0.72,1.44C288.38,222.32,287.73,222.64,287.53,222.44z"/>
				</g>
				<g>
					<path style="fill:#FFFFFF;" d="M277.27,221.13c0.34-0.36,0.77-0.63,1.25-0.77c-0.5-0.48-1-0.96-1.51-1.44
						c-0.22,0.87-0.9,1.6-1.75,1.88c0.3,0.44,0.64,0.86,1.02,1.23c0.09,0.09,0.21,0.2,0.34,0.21c0.21,0.01,0.17-0.13,0.2-0.29
						C276.88,221.65,277.06,221.37,277.27,221.13z"/>
					<path style="fill:#E6E6E6;" d="M274.97,220.33c0.2-0.2,0.84,0.12,1.44,0.72c0.6,0.6,0.92,1.24,0.72,1.44
						c-0.2,0.2-0.84-0.12-1.44-0.72C275.09,221.17,274.77,220.53,274.97,220.33z"/>
				</g>
				<g>
					<path style="fill:#FFFFFF;" d="M287.34,209.07c-0.34,0.36-0.77,0.63-1.25,0.77c0.5,0.48,1,0.96,1.51,1.44
						c0.22-0.87,0.9-1.6,1.75-1.88c-0.3-0.44-0.64-0.86-1.02-1.23c-0.09-0.09-0.21-0.2-0.34-0.21c-0.21-0.01-0.17,0.13-0.2,0.29
						C287.73,208.56,287.56,208.84,287.34,209.07z"/>
					
						<ellipse transform="matrix(0.7071 -0.7071 0.7071 0.7071 -63.1231 265.2021)" style="fill:#E6E6E6;" cx="288.57" cy="208.8" rx="0.51" ry="1.53"/>
				</g>
			</g>
		</g>
		<circle style="opacity:0.45;fill:#FFFFFF;" cx="336.7" cy="147.01" r="9.44"/>
	</g>
</g>
</svg>
